<?xml version="1.0" encoding="utf-8"?>
<!-- Generator: Adobe Illustrator 22.1.0, SVG Export Plug-In . SVG Version: 6.00 Build 0)  -->
<svg version="1.1" id="Layer_1" xmlns="http://www.w3.org/2000/svg" xmlns:xlink="http://www.w3.org/1999/xlink" x="0px" y="0px"
	 viewBox="0 0 595.4 505.8" style="enable-background:new 0 0 595.4 505.8;" xml:space="preserve">
<style type="text/css">
	.st0{fill:#FF5900;}
	.st1{fill:#00CCCC;}
	.st2{fill:#201E33;}
</style>
<g>
	<polygon class="st0" points="302.6,154.5 302.6,182.6 351.2,154.5 351.2,250 375.6,236 375.6,112.3 	"/>
	<polygon class="st1" points="229.6,105.9 253.9,120 297.7,94.7 341.5,120 365.8,105.9 297.7,66.6 	"/>
	<polygon class="st2" points="219.8,112.3 219.8,236 244.2,250 244.2,205.1 278.2,224.7 278.2,196.6 244.2,177 244.2,154.4 
		292.8,182.6 292.8,154.5 	"/>
</g>
<g>
	<path class="st2" d="M66.6,383.2v-66.6h40.9v11H78.6v16.5H105v11H78.6v28.1H66.6z"/>
	<path class="st2" d="M141.4,357.5h-12.6v25.7h-12v-66.6h34.9c6.1,0,11,4.9,11,11v18.9c0,5.2-3.5,9.5-8.3,10.7l12.8,26H154
		L141.4,357.5z M150.7,330.2c0-1.5-1.2-2.6-2.7-2.6h-19.2v18.9H148c1.5,0,2.7-1.1,2.7-2.6V330.2z"/>
	<path class="st2" d="M177.7,372.2v-44.6c0-6.1,4.8-11,10.9-11h23.5c6.1,0,11,4.9,11,11v44.6c0,6.1-4.9,11-11,11h-23.5
		C182.5,383.2,177.7,378.3,177.7,372.2z M211.1,330.2c0-1.5-1.2-2.6-2.7-2.6h-16c-1.5,0-2.7,1.1-2.7,2.6v39.4c0,1.5,1.2,2.6,2.7,2.6
		h16c1.5,0,2.7-1.1,2.7-2.6V330.2z"/>
	<path class="st2" d="M286,383.2h-11.6l-25.2-43.1v43.1h-11.6v-66.6h11.6l25.2,43.3v-43.3H286V383.2z"/>
	<path class="st2" d="M295.5,316.6h48.2v11h-18.1v55.6h-12v-55.6h-18.1V316.6z"/>
	<path class="st2" d="M364.8,343.4v39.8h-11.6v-66.6h11.6l17.8,40.8l17.8-40.8H412v66.6h-11.6v-39.8l-12.7,28.4h-10.2L364.8,343.4z"
		/>
	<path class="st2" d="M427,316.6h40.4v11H439v16.5h25.9v11H439v17.1h28.4v11H427V316.6z"/>
	<path class="st2" d="M528.8,383.2h-11.6L492,340.1v43.1h-11.6v-66.6H492l25.2,43.3v-43.3h11.6V383.2z"/>
</g>
<g>
	<path class="st2" d="M66.4,439.2v-33.3h20.5v5.5H72.4v8.3h13.2v5.5H72.4v14.1H66.4z"/>
	<path class="st2" d="M106,426.4h-6.3v12.9h-6v-33.3h17.5c3.1,0,5.5,2.5,5.5,5.5v9.5c0,2.6-1.8,4.8-4.2,5.4l6.4,13h-6.6L106,426.4z
		 M110.7,412.7c0-0.8-0.6-1.3-1.4-1.3h-9.6v9.5h9.6c0.8,0,1.4-0.6,1.4-1.3V412.7z"/>
	<path class="st2" d="M126.4,433.7v-22.3c0-3.1,2.4-5.5,5.5-5.5h11.8c3.1,0,5.5,2.5,5.5,5.5v22.3c0,3.1-2.5,5.5-5.5,5.5h-11.8
		C128.8,439.2,126.4,436.8,126.4,433.7z M143.1,412.7c0-0.8-0.6-1.3-1.4-1.3h-8c-0.8,0-1.4,0.6-1.4,1.3v19.7c0,0.8,0.6,1.3,1.4,1.3
		h8c0.8,0,1.4-0.5,1.4-1.3V412.7z"/>
	<path class="st2" d="M182.8,439.2H177l-12.6-21.6v21.6h-5.8v-33.3h5.8l12.6,21.7v-21.7h5.8V439.2z"/>
	<path class="st2" d="M189.8,405.9h24.1v5.5h-9.1v27.8h-6v-27.8h-9.1V405.9z"/>
	<path class="st2" d="M220.9,405.9h20.2v5.5h-14.2v8.3h13v5.5h-13v8.6h14.2v5.5h-20.2V405.9z"/>
	<path class="st2" d="M274.1,439.2h-5.8l-12.6-21.6v21.6h-5.8v-33.3h5.8l12.6,21.7v-21.7h5.8V439.2z"/>
	<path class="st2" d="M283.8,405.9h16.3c3,0,5.5,2.5,5.5,5.5v22.3c0,3.1-2.5,5.5-5.5,5.5h-16.3V405.9z M299.6,412.7
		c0-0.8-0.6-1.3-1.4-1.3h-8.4v22.3h8.4c0.8,0,1.4-0.5,1.4-1.3V412.7z"/>
	<path class="st2" d="M328.1,405.9h20.2v5.5h-14.2v8.3h13v5.5h-13v8.6h14.2v5.5h-20.2V405.9z"/>
	<path class="st2" d="M367.5,416.9l6.2-11h6.3l-9.2,16.4l9.5,16.9h-6.3l-6.5-11.5l-6.4,11.5h-6.3l9.4-16.9l-9.2-16.4h6.3
		L367.5,416.9z"/>
	<path class="st2" d="M387.7,405.9h17c3.1,0,5.5,2.5,5.5,5.5v9.5c0,3.1-2.5,5.5-5.5,5.5h-11v12.9h-6V405.9z M404.2,412.7
		c0-0.8-0.6-1.3-1.4-1.3h-9.1v9.5h9.1c0.8,0,1.4-0.6,1.4-1.3V412.7z"/>
	<path class="st2" d="M417.6,405.9h20.2v5.5h-14.2v8.3h13v5.5h-13v8.6h14.2v5.5h-20.2V405.9z"/>
	<path class="st2" d="M458.9,426.4h-6.3v12.9h-6v-33.3H464c3.1,0,5.5,2.5,5.5,5.5v9.5c0,2.6-1.8,4.8-4.2,5.4l6.4,13h-6.6
		L458.9,426.4z M463.5,412.7c0-0.8-0.6-1.3-1.4-1.3h-9.6v9.5h9.6c0.8,0,1.4-0.6,1.4-1.3V412.7z"/>
	<path class="st2" d="M476.3,405.9h24.1v5.5h-9.1v27.8h-6v-27.8h-9.1V405.9z"/>
	<path class="st2" d="M512.6,423.7c-3-0.9-5.4-2.4-5.4-5.4v-6.9c0-3.1,2.4-5.5,5.5-5.5h10.6c3,0,5.5,2.5,5.5,5.5v3.9l-6,1v-3.6
		c0-0.8-0.6-1.3-1.4-1.3h-6.9c-0.8,0-1.4,0.6-1.4,1.3v4.1c0,0.8,0.6,1.3,1.4,1.5c3,0.9,5.5,1.5,9.1,2.6c2.9,0.8,5.2,2.4,5.2,5.4v7.5
		c0,3.1-2.4,5.5-5.5,5.5h-10.8c-3.1,0-5.5-2.5-5.5-5.5v-3.8l6-1v3.5c0,0.8,0.6,1.3,1.4,1.3h7.1c0.8,0,1.4-0.5,1.4-1.3v-4.8
		c0-0.8-0.5-1.2-1.4-1.4C517.7,425.2,516.3,424.8,512.6,423.7z"/>
</g>
</svg>
