<?xml version="1.0" encoding="UTF-8" standalone="no"?>
<!DOCTYPE svg PUBLIC "-//W3C//DTD SVG 1.1//EN" "http://www.w3.org/Graphics/SVG/1.1/DTD/svg11.dtd">
<svg width="100%" height="100%" viewBox="0 0 354 126" version="1.1" xmlns="http://www.w3.org/2000/svg" xmlns:xlink="http://www.w3.org/1999/xlink" xml:space="preserve" xmlns:serif="http://www.serif.com/" style="fill-rule:evenodd;clip-rule:evenodd;stroke-linejoin:round;stroke-miterlimit:1.41421;">
    <g>
        <path d="M5.539,15.35L0,15.594L4.231,114.567L5.561,114.508L6.558,124.648L48.862,120.345L47.674,108.261L16.049,111.477L14.589,77.344L44.037,77.344L44.037,65.199L14.071,65.199L12.042,17.749L47.674,21.372L48.862,9.288L6.558,4.986L5.539,15.35ZM234.162,88.075L211.761,34.988L211.88,32.502L199.75,31.926L195.448,122.076L207.577,122.654L210.422,63.036L234.162,119.296L234.162,122.365L246.304,122.365L246.304,27.921L234.162,27.921L234.162,88.075ZM295.905,29.49L296.259,31.612L295.166,31.712L299.433,78.729L301.163,78.573L301.163,79.94L337.809,79.94L337.809,107.347L309.426,110.191L307.066,98.371L295.258,100.737L299.525,122.109L305.847,120.843L306.028,122.653L337.808,119.47L337.808,120.926L349.85,120.926L349.85,69.634L343.83,69.634L343.83,67.877L310.539,67.877L307.983,39.704L340.033,34.352L342.193,45.172L354,42.805L349.733,21.433L347.27,21.927L347.106,20.941L295.905,29.49Z" style="fill:white;"/>
        <path d="M346.767,0L140.844,4.282L140.881,6.038L134.921,5.809L130.631,117.146L132.378,117.213L132.854,123.403L188.625,119.121L187.697,107.071L143.003,110.503L144.486,72.034L179.581,72.034L179.581,59.95L144.951,59.95L146.636,16.25L268.481,13.716L280.797,173.511L292.869,172.585L280.606,13.465L347.02,12.084L346.767,0ZM92.348,93.322L71.675,4.382L59.83,7.098L85.671,118.272L86.088,118.177L85.698,119.727L97.489,122.655L127.64,2.927L115.847,0L92.348,93.322Z" style="fill:white;"/>
    </g>
</svg>
