<svg xmlns="http://www.w3.org/2000/svg" width="354" height="174" viewBox="0 0 354 174">
    <g fill="#FFF" fill-rule="evenodd">
        <path d="M5.539 15.35L0 15.594l4.231 98.973 1.33-.059.997 10.14 42.304-4.303-1.188-12.084-31.625 3.216-1.46-34.133h29.448V65.199H14.071l-2.029-47.45 35.632 3.623 1.188-12.084L6.558 4.986zM234.162 88.075l-22.401-53.087.119-2.486-12.13-.576-4.302 90.15 12.129.578 2.845-59.618 23.74 56.26v3.069h12.142V27.921h-12.142zM295.905 29.49l.354 2.122-1.093.1 4.267 47.017 1.73-.156v1.367h36.646v27.407l-28.383 2.844-2.36-11.82-11.808 2.366 4.267 21.372 6.322-1.266.181 1.81 31.78-3.183v1.456h12.042V69.634h-6.02v-1.757h-33.291l-2.556-28.173 32.05-5.352 2.16 10.82L354 42.805l-4.267-21.372-2.463.494-.164-.986z"/>
        <path d="M346.767 0L140.844 4.282l.037 1.756-5.96-.229-4.29 111.337 1.747.067.476 6.19 55.771-4.282-.928-12.05-44.694 3.432 1.483-38.469h35.095V59.95h-34.63l1.685-43.7 121.845-2.534 12.316 159.795 12.072-.926-12.263-159.12 66.414-1.381zM92.348 93.322L71.675 4.382 59.83 7.098l25.841 111.174.417-.095-.39 1.55 11.791 2.928L127.64 2.927 115.847 0z"/>
    </g>
</svg>
