<svg class="mr-10 h-24 sm:h-48 w-auto " xmlns="http://www.w3.org/2000/svg" width="173" height="85" viewBox="0 0 173 85">
  <path fill="#FFED00" fill-rule="evenodd" d="M2.72 8.023L3.222 3 24 5.085l-.583 5.857L5.915 9.186l.996 23h14.72v5.886H7.165l.717 16.544 15.534-1.559.583 5.857L3.221 61l-.49-4.915-.653.029L0 8.142l2.72-.119zM115.032 43.21V14H121v45.86h-5.969v-1.49l-11.67-27.32L101.962 60 96 59.72l2.115-43.775 5.963.28-.059 1.206 11.012 25.778zm30.32-29.006L169.72 10l.078.485 1.172-.243L173 20.748l-5.62 1.164-1.027-5.32-15.253 2.631 1.216 13.85h15.844v.864h2.865V59.15h-5.73v-.716L150.17 60l-.087-.89-3.008.622-2.031-10.506 5.62-1.162 1.122 5.81 13.508-1.398V39.003h-17.44v-.672l-.824.077L145 15.295l.52-.05-.168-1.042zM169.877 0L170 5.92l-32.533.676 6.007 77.95-5.914.454-6.033-78.281L71.84 7.96l-.825 21.408h16.964v5.92H70.787l-.726 18.846 21.893-1.681.455 5.903-27.32 2.097-.233-3.032-.856-.033 2.101-54.542 2.92.112-.018-.86L169.876 0zM45.304 45.652L57.088 0 63 1.432 47.883 60l-5.913-1.432.196-.758-.209.046L29 3.472l5.939-1.328 10.365 43.508z"/>
</svg>