<?xml version="1.0" encoding="utf-8"?>
<!-- Generator: Adobe Illustrator 23.0.6, SVG Export Plug-In . SVG Version: 6.00 Build 0)  -->
<svg version="1.1" id="Layer_1" xmlns="http://www.w3.org/2000/svg" xmlns:xlink="http://www.w3.org/1999/xlink" x="0px" y="0px"
	 viewBox="0 0 581 103" style="enable-background:new 0 0 581 103;" xml:space="preserve">
<g>
	<g>
		<polygon points="92.1,9.7 78.1,71.6 61.5,15.1 61.5,9 51.5,9 51.5,13.4 27.5,71.5 21,12.1 14,12.9 22,85.9 25.5,85.5 28.7,86.8 
			55.9,21 75.1,86.5 78.5,85.5 81.9,86.3 98.9,11.3 		"/>
		<path d="M161.3,9l-59,3l0.4,7l1.3-0.1V75h-6.5v7h64v-7h-1.6l-1.8-58.8l3.6-0.2L161.3,9z M111,75V18.6l40.1-2l1.8,58.5L111,75
			L111,75z"/>
		<path d="M221.6,83.8L203.8,51h9l2.4-46h-47.7v7h6.5v32h-2.5v7h2.5v31.5h7V51h14.9l19.5,36.2L221.6,83.8z M181,44V12h26.8l-1.6,32
			H181z"/>
		<polyline points="229,47 229,82.5 236,82.5 236,50.8 271.1,85 275.9,80 239.6,44.5 275.9,9 271.1,4 236,38.2 236,2.5 229,2.5 
			229,45.1 		"/>
		<polygon points="284.3,18.7 320.8,16 320.2,9 276.7,12.3 280.3,48.6 316.8,53.5 315.2,82.3 198.2,93 198.8,100 321.8,88.7 
			324.2,47.5 286.7,42.4 		"/>
		<polygon points="378.2,42 342,42 342,10.5 335,10.5 335,42 331.5,42 331.5,49 335,49 335,82.5 342,82.5 342,49 378,49 377,85.4 
			384,85.6 386,10.6 379,10.4 		"/>
		<path d="M457.3,75l-2.5,0.2L453.2,18h1.4l-0.1-7l-55,1v0.5H398v73.8l52-3.7l5-0.1v-0.2l2.8-0.2L457.3,75z M405,78.7V18.9l41.2-0.7
			l1.6,57.5L405,78.7z"/>
		<path d="M476,10.5h-7v1.4l-4.6,0.1l0.2,7l4.4-0.1v66.6h7v-30l34.8,2.7l2.4-47.4L476,11.7V10.5z M505.8,18.1l-1.6,32.6L476,48.5
			V18.7L505.8,18.1z"/>
		<polygon points="524.9,36.2 531.9,12.7 558.7,18.9 560.3,12.1 527.1,4.3 516.1,40.8 555.7,53 552.5,78.7 518.9,75 518.1,82 
			558.5,86.3 563.3,48 		"/>
	</g>
</g>
</svg>
