<svg xmlns="http://www.w3.org/2000/svg" width="224" height="194" viewBox="0 0 224 194">
  <path fill="#FFF" fill-rule="evenodd" d="M55.773 0H83.81v9.875h9.892v67.106H224v19.75H83.81v-2.877h-9.891V19.751h-5.024L29.573 98.27l-17.694-8.833 42.056-83.98 1.838.918V0zM112 123.686V104.2h56v19.485h-56zm-8.485 16.24l48.966-6.922 2.792 19.34-48.964 6.922-2.794-19.34zm-1.697 35.646l42.101-13.764 6.263 18.426-42.1 13.766-6.264-18.428zM0 163.08l13.94-13.98 25.052 25.128h51.796V194H27.925v-2.91L0 163.08z"/>
</svg>