<svg xmlns="http://www.w3.org/2000/svg" width="192" height="199" viewBox="0 0 192 199"><path fill="#FFED00" fill-rule="evenodd" d="M106.995 44.04l4.61-4.24 78.914 85.183-2.197 2.022 3.678 1.832-19.729 39.317-2.454-1.224-1.52 6.059-13.916-3.467-15.333 25.464-2.477-1.482-1.838 5.496-39.456-13.105.741-2.219h-7.087v-30.459l-25.852-6.439.778-3.102-6.937-3.226 41.192-87.952-.144-.155.38-.35 4.605-9.832 4.042 1.879zm-25.75 88.202l78.486 19.55 10.668-21.261-58.683-63.349-30.471 65.06zm26.245 38.216l20.57 6.832 7.501-12.456-28.071-6.992v12.616zM90.903 47.145L54.986 76.951v54.304H36.531v-58.61h9.228l-5.907-7.06 39.236-32.56 11.815 14.12zM59.059 0l12.304 13.829-49.388 43.86v80.34H3.455v-81.7L0 52.446 59.059 0z"/></svg>