<svg xmlns="http://www.w3.org/2000/svg" width="186" height="175" viewBox="0 0 186 175">
  <path fill="#00AFCB" fill-rule="evenodd" d="M140.683 66.084l1.311-9.167L186 63.194l-2.51 17.542-26.874-3.833 5.551 88.686-2.568.158V175H27.582v-9.253l-2.567-.158 5.39-86.112-25.532 7.285L0 69.725l44.006-12.556 2.551 8.918 2.453.153-.434 6.908.303 1.059-.375.106-5.191 82.968H143.87l-5.699-91.041 2.51-.156zM115.36 0h68.94v17.59h-58.53L97.085 51.82l-10.214-8.464-2.834 2.82L55.29 17.59H2.548V0H65.22v2.589l27.325 27.172 22.288-26.596.526.436V0z"/>
</svg>
