<svg xmlns="http://www.w3.org/2000/svg" width="678" height="430" viewBox="0 0 678 430">
    <path fill="#E4032E" fill-rule="evenodd" d="M259.79 303.696l62.327-5.64 1.883 20.61L242.97 326l-.27-2.971H239V125.015h17.76V122h58.932v20.698H259.79v160.998zM0 122h103v20.655H55.188l6.685 179.582-20.747.763-6.714-180.345H0V122zM362.666 0l4.683 206.043 87.26-81.031-.121-3.267 197.749-7.324.763 20.656-85.994 3.185-13.93 290.782-20.637-1.146 13.824-288.869-79.545 2.947-72.24 67.083 62.568 145.998-19 8.143-59.655-139.201-10.415 9.671 2.014 88.603-20.665.469L342 .47 362.666 0zM522 208.596l-55.412 5.568 2.019 32.46h37.769v20.7h-36.481l2.36 37.976h48.72V326h-65.694v-9.89l-2.982.186L445 198.944l2.3-.144-.344-3.466L519.95 188l2.05 20.596zm64.154-43.276l87.973-7.32.859 10.293H678v29.276h-20.69v-17.442l-52.621 4.38v39.328h62.966v3.01H678v80.509h-3.014V325h-87.973v-3.008H584v-36.597h20.689v18.95h52.621V244.49h-70.297v-10.328H584v-65.87h2.404l-.25-2.973zm-461.821-22.627V122H205v20.693h-34.35l-6.509 162.614H205V326h-88v-20.693h26.43l6.507-162.614h-25.604z"/>
  </svg>