<svg xmlns="http://www.w3.org/2000/svg" version="1" viewBox="0 0 920 528">
  <path fill="#fcfcfc" d="M262 520l-2-3c1-2 1-2 5-3 6 0 7 2 2 5-2 1-3 2-5 1zm-19-1l1-1h1l-1 1h-1zm37-4c-1-3-1-10 1-12v-3l5-10c4-5 15-3 19 3 2 4 2 7-2 12-3 4-4 5-7 5l-3 2c-1 3-3 4-8 5-3 0-4 0-5-2zm-88-8c0-2 2-2 3 0l-1 1-2-1zm-27-11l1-1h1l-1 2c-1 1-1 0-1-1zm-18-1l1-1 1 1-1 1-1-1zm86-4l1-1h1l-1 1h-1zm47-4l2-1 1 1-2 1-1-1zm311 0l1-1 1 1-1 1-1-1zm-453 0c-1-2 3-7 6-8 4-1 6 0 6 3s-10 7-12 5zm112-3l1-1h1l-1 2c-1 1-1 0-1-1zm-11-3l1-1 1 1-1 1-1-1zm-36-5v-1l1 1v1l-1-1zm53 0l2-2 1 2-1 1-2-1zm-117-1l1-1h1l-1 2-1-1zm2-3l1-1 1 1-1 1-1-1zm119 0l1-1 1 1-1 1-1-1zm-180-3v-1l1 1v1l-1-1zm72-1l1-1 1 1-1 1c-1 0-2 0-1-1zm6 0l1-1 1 1-1 1-1-1zm65-1h-2c-2 1-3-1 0-2h2l1 3-1-1zm338 0c-1-2 0-3 2-2l1 2c-1 2-3 1-3 0zm-262-2v-1l1 1v1l-1-1zm329 0l2-1 1 1c-1 1-3 2-3 0zm-195-1v-1l1 1v1l-1-1zm207-1c-2-3-3-4-3-8 0-5 1-6 3-8 4-3 10-3 13 0l2 3 1 3c1 1-2 10-4 11-3 2-9 1-12-1zm-422 0l1-1 1 1-1 1-1-1zm-72-5c-1-3 1-7 3-7l3-2c4-4 8 1 5 6v2l-2 2c-5 3-7 2-9-1zm69 2l1-1 1 1-1 1-1-1zm-3-3v-1h2c1 1 0 1-1 2l-1-1zm20-3l1-2v2h-1zm29 0l1-2c2 1 2 3 0 3l-1-1zm-56-1l1-1h1l-1 1h-1zm75-1l1-1 1 1-1 1-1-1zm207-1c-1-2 0-2 2-1 2 2 2 3 0 3l-2-2zm-213 0l1-1 1 1-1 1-1-1zm103 0l1-1h1l-1 2-1-1zm214-2l-4-5c-1-2 1-7 5-8l4-2c2-2 2-2 3 0l2 2 2 1s0 2 2 3c3 3 3 4-1 8l-6 4c-4 0-5 0-7-3zm-411 0v-3c1-1 2 0 1 2l1 1 1 1c0 2-1 1-3-1zm58 1v-1l1 1v1l-1-1zm-62 0c-1-2-1-3 1-3l1 1-2 2zm22-1l1-1 1 1-1 1c-1 0-2 0-1-1zm-68-1c-2-1-2-1 0-5 3-4 7-7 11-7 1 1 2 1 2 4 0 2-1 3-4 5l-6 3h-3zm170 0l1-1h1l-1 2-1-1zm3 0l1-1 1 1-1 1-1-1zm151 0c-1-1 1-2 2-1 1 0 1 2-1 2l-1-1zm77 0v-1l1 1v1l-1-1zm-306-1l1-1 1 1-1 1s-2 0-1-1zm170 0c-1-1 0-3 2-3 1 0 2 3 0 4l-2-1zm28-1c-2-1-4-3-4-5-2-2-2-3 0-5l5-2 4-1c2-1 4 1 5 6 1 3 1 4-1 5-2 3-6 3-9 2zm-316-1l1-1 1 1-1 1-1-1zm232 0l1-1 1 1-1 1-1-1zm-132-1l1-1 1 1-1 1-1-1zm29 0l1-1 1 1-1 1-1-1zm52 0l1-1 1 1-1 1-1-1zm-166-2c-1-1 0-2 1-3 2-2 4-1 5 2v2h-1c-1 2-4 1-5-1zm71-1l1-1 1 1-1 1-1-1zm92 1l1-1h1l-1 1h-1zm276-1v-4c1-1 4 0 4 2 0 1-2 3-4 2zm56 0l1-1 1 1-1 1-1-1zm-445-1c-1-1 1-4 2-2v2h-2zm74 0l1-1 1 1-1 1-1-1zm-34 0c-2-1-1-2 1-2s3 0 2 1l-3 1zm25 0c-1-2-1-4 1-4s2 1 2 2c0 2-2 3-3 2zm33-1l1-1 1 1-1 1-1-1zm-28-2c-1-2 0-4 1-2v3l-1-1zm36-1l1-2v2l-1 1v-1zm-133-1l1-1 2 1-1 1-2-1zm81 0l1-1 1 1-1 1-1-1zm509 0l1-1 1 1-1 1-1-1zm-577-1l2-1 1 1-1 1-2-1zm400 0v-1l1 1v1l-1-1zm-495 0l-1-2c0-1 5-1 5 1 1 1-2 1-4 1zm33 0c-1-2-1-5 1-6 3-1 4 0 4 3 0 2-3 4-5 3zm77-1v-2l2 2v1l-2-1zm76 0v-4c1 0 3 3 3 5l-3-1zm-117-1l1-1 1 1-1 1-1-1zm88-1l1-2 1 2c1 1 0 1-1 1l-1-1zm19 0c-1-2-1-3 1-3l1 1-2 2zm86 0v-3l1-1v3l-1 1zm13-1l1-1 1 1-1 1-1-1zm-78-1l1-1 1 1-1 1-1-1zm-53-1l1-1 1 1-1 1-1-1zm21 0v-2l1-2 1 1 1 3c0 2-2 2-3 0zm284 0l1-1h1l-1 2-1-1zm12 0l1-1 1 1-1 1-1-1zm-267-1h1c1 1 2 1 0 1l-1-1zm451 0l1-1 1 1-1 1-1-1zm-494-2v-1l1 1v1l-1-1zm21 0v-2c1 0 3 2 2 3l-2-1zm-43-2l2-2 1 2-1 2-2-2zm506 1l1-1 2 1-1 1-2-1zm-433-1l1-1 1 1-1 1-1-1zm26 0l3-1v1h-3zm-140 0c-1-2-1-3 1-3l2 2c0 1-2 2-3 1zm32-1c-1-1 1-3 2-2 2 1 1 3-1 3l-1-1zm15 0l1-1 1 1-1 1-1-1zm34 0l2-1 1 1-1 1-2-1zm150 0c-1-1 0-2 2-1l1 1c-1 2-2 1-3 0zm-290 0h1c1 0 1 0 0 0h-1zm134-1v-3c1-2 2-2 3 0 2 3 0 6-3 3zm-116-1l1-1 1 1-1 1-1-1zm143 0c-2-1-2-2-1-2 1-1 5 1 5 2 0 2-2 1-4 0zm35 0l2-1 2 1-2 1-2-1zm13 0l2-2 1 2-1 1-2-1zm14 0l2-1 1 1-2 1-1-1zm291 1h1c1 0 1 0 0 0h-1zm-407-2c0-2 3-3 4-2s0 3-2 3l-2-1zm6 1c-1-2-1-4 1-4l2 2c0 2-2 3-3 2zm-40-2l1-1 2 1-1 1-2-1zm468 1h1c1 0 1 0 0 0h-1zm-385-2l1-1 1 1-1 1-1-1zm45 0v-1l1 1v1l-1-1zm-82 0l-2-1-3-1 1-1v-3c-1-2 0-3 2-3l1 3 2 3 2 2-3 1zm62-1c-1-1 0-2 1-1v2l-1-1zm285 0c1-2 3-2 3 0l-1 1-2-1zm62 0l2-2c2 0 2 3 0 3l-2-1zm-317-2c-2-2-2-5-1-5l2 2c2 1 2 1 1 3 0 2 0 2-2 0zm5 0c1-2 3-2 3 0l-1 2c-1 0-2 0-2-2zm-108 1c-1-2-1-5 1-5l1 3c0 2-1 3-2 2zm55-1l2-2 1 2-2 1c-1 0-2 0-1-1zm62 1c-1-2-1-3 1-3l1 1-2 2zm323-1l1-2 1 1-1 2-1-1zm-52-1l1-1 1 1-1 1-1-1zm21 0c1-1 2-2 3 0l-1 1-2-1zm-486-1v-7c1-2 5-3 6-1h2c4-1 1 5-4 8h-4zm37 0l2-2 1 2-1 1-2-1zm13 0c-1-2-1-3 1-5 1-1 2-1 4 1 3 2 3 3 0 4h-5zm86 0l1-2 1 2-1 1-1-1zm65 0c-2-3-2-5 0-7 2-1 6 0 6 3 1 5-3 7-6 4zm-106-1l-2-3c0-1 3-1 4 1l1 1 1 1h-4zm34 0c-2-1-1-6 0-6l1-1c0-2 4-3 7-1 3 1 2 3-1 2l-2 2-2 4c-2 1-2 2-3 0zm191 0c-1-2 0-3 2-3 1 0 2 3 0 4l-2-1zm201 0l2-1 1 1-1 1-2-1zm26 0c-1-1 0-2 1-2 2 0 3 2 1 3l-2-1zm-408-1l1-2 2-2c0-2 1-3 2-3 2 1 2 2 0 5-3 4-5 4-5 2zm-75-1l1-1 1 1-1 1-1-1zm90 0c-1-1 0-4 2-4l1-1 1 1c0 4-3 7-4 4zm148 0l2-1 1 1-2 1-1-1zm13 1c-1-2-1-3 1-3l2 2c0 1-2 2-3 1zm190-1c1-2 3-2 3 0l-1 1-2-1zm-431-2l1-2 1 2-1 1-1-1zm40 0l1-1 1 1-1 1-1-1zm58 0v-2h1c2 1 1 3 0 3s-2 0-1-1zm-223-1l2-1 1 1-1 1-2-1zm158 0c-1-1 0-2 1-3s3 1 3 3-2 2-4 0zm61 0l1-1 1 1-1 1s-2 0-1-1zm9 0l1-1 1 1-1 1-1-1zm7 0l2-2c3 0 2 2 0 3l-2-1zm-119-1c-2 0-2-1-1-1h3c1 2 0 2-2 1zm36-1l-1-5v-3l-1-2c2-1 4 1 4 3v1l1 4c1 5-1 6-3 2zm21 1l1-1 1 1-1 1-1-1zm182 0l-2-2v2l-2-2-1-2-1 2v2l-3-2c-2-1-2-2-1-2l2 2 1-1v-2c-2-2-2-7 0-11 1-2 2-3 6-3l5 2 3 1 3 3c2 2 2 3 1 5l-1 2c0 2-5 4-7 4l-2 2c-1 2-1 2-1 0zm-124-2c-1-3-1-3 1-1 1 1 2 2 0 2l-1-1zm-92-1v-1c1-1 3 0 3 1h-3zm-27-1c-1-1 1-3 2-2l1 1-3 1zm17 0l1-1 1 1-1 1s-2 0-1-1zm90 0c-1-1-2-2-1-3l1 1 1 1h2c1 2-1 2-3 1zm20 0l-1-2h1c3 1 4 1 3 2-1 2-4 1-3 0zm283 0c-1 0-1-1 1-1 2-1 3 0 3 1h-4zm-318-1l1-1 1 1-1 1-1-1zm129 0v-2l1 2v1l-1-1zm180 0v-3c1-1 5 1 4 3s-4 1-4 0zm-396-1v-3c2-2 4 0 4 2s-2 3-4 1zm198 0v-1l2 1-1 1-1-1zm181 0l1-1c1 0 2 1 0 2l-1-1zm50 1c-1-2-1-3 1-3l1 2c0 1-1 2-2 1zm32-1c1-1 2-2 3 0l-1 1-2-1zm-535-1l-5-1-4-1c0-1 9-9 12-10s5-1 7 1c2 1 2 8 0 9l-1 1h-2l-2 1h-5zm11 1l1-1h1l-1 1h-1zm102-1c-2-1-1-2 2-1l1 1h-3zm98 0l1-1 2 1-1 1-2-1zm37 0l1-1 1 1-1 1-1-1zm-188-2c0-3 2-3 6-2 3 1 4 2 3 3l-5 1c-3 0-4 0-4-2zm93 1c-2-2-2-3 0-5l1-3 1-2v11l-2-1zm326 0c0-2 1-2 2-1l-1 2c-1 1-1 0-1-1zm48 0l1-1 1 1-1 1-1-1zm45 0l1-1 2 1-1 1-2-1zm-472 0v-2l2 1c0 1-1 2-2 1zm382-2c-2-2-1-3 1-2l1 1h2l1 2c0 2-3 1-5-1zm-551 0c-1-1 2-3 4-2l1 1c-1 2-4 3-5 1zm115 0c-2-1-1-4 1-4s2 1 2 2c0 3-1 3-3 2zm78-1c0-2 5-5 6-4 1 2-1 4-2 3l-2 1c1 1 0 2-1 2l-1-2zm15 2c-2-1-1-4 1-4s2 1 2 2c0 2 0 2-3 2zm-43-2l1-1h1l-1 2-1-1zm25 0l1-1 1 1-1 1-1-1zm79 0l1-1c1 0 2 1 0 2l-1-1zm198 0l2-1c2 0 2 1 0 2l-2-1zm118 0l1-1c2-1 3 0 2 1s-2 2-3 0zm-400 0l-2-3c0-2 0-2 3 0l2 2v1h-3zm28-2l-2-3-1-1-1-3c-1-2 0-3 1-5 3-2 4-9 2-10l-1 1-1 1-2 1-2 1c-2 1-2 2-2 3 1 2 1 2-1 2s-3-1-2-3c2-1 2-1-5-1-3 0-4 1 0 2 2 0 4 3 2 4h-3c-2-1-2-1-2 2l1 3v1 2l1 1c0 2-2 1-4-1s-2-2 0-3v-2c-1 0-1-2 1-6 0-1 0-2-2-2-1-1-2 0-3 2-1 1-1 2-2 1-2-1-1-4 0-3l1-2c0-2 0-2-2-2-1 1-3 0-4-1l-3-1c-1 2 0 6 1 7 1 0 1 1-2 2l-3 3-2 3-3 1h-1l-1-1h-3l-4 1c-6-1-8-3-5-6 1-2 2-5 0-5l-1-2 2-3c1 0 2 2 0 2v2h3v-4l4-8c-1-1-2 0-3 1h-3c0-1-1-1-4 1-4 2-5 2-6 1l-5-2-3-1-1-1c-2 0-2 1 0 3 1 2 1 3-1 2-2 0-2 1-2 3h-3v-1-4c-1-3-3-4-3-2l-8 1c-1-1 0-2 1-2 3-1 1-5-4-7l-1-1-2-1c-3 1-6 0-6-2l-1-1-1-1c0-2 8-2 10-1 3 2 5 2 6 0l-1-2-4-3c-1-2-1-2-2 0l-3 2c-2 1-3 0-3-1 0-2-2-3-5-3-2 0-3-4-1-4v-2l-3-2c-1 1-3 0-5-2-3-2-4-2-7-2-3 1-4 0-4-1-1-2-3-2-3 0l2 2 1 2-1 3h-1l-1-2-1-1h-1c1 1-1 7-2 7v-5c-1-4 0-4 1-4h2l-5-2c-3 0-4-1-5-3-1-4-4-6-9-7l-7-1c-4 0-4 0-4 4h-4v-4c0-2 0-2-3-2l-3-1h-1c0 1-3 1-3-1l-1-1-1-2 2-1c2 1 2-1 0-3v-1c1 0 1-6-1-7v-3-1l-3 2v-1c1-1 1-1-1-1-3 0-2-3 2-3 5-1 9-8 4-8l-2-2c0-3 1-4 3-3h3v-3h-3l-1 1-1-1-4-1c-6 0-7-1-4-3 2-1 2-1-1-2-2 0-2-1 0-3l3-2 3-2 1-1-2 3-2 2 2 4c2 3 4 4 4 2l3-1c3 0 4 1 5 3s1 3-1 6c-2 4 0 6 2 2l3-2 4-1 2-2c2 0 2-5 1-5s-2 0-3 2-2 2-2 1h-2c-1 2-2-1-1-3s0-3-3-2c-4 0-5-1-5-2 1-1 0-2-1-2l-2 2-1-1v-5c1-3 1-3 3-1h4l3 1c1-1 1-1 0 0s-1 4 1 4c3 0 4 0 4 2-1 1 0 2 1 2v-2l2-3c3-1 6 0 5 1h1c2-2 9-1 11 1l2 2v-4l-1-1c-2 1-4-1-4-3s-1-2-2-2l-3 1v1l-1 2c-1 1-5-1-5-2l1-1h1c0-1-4-2-5-1l-1 1h-2c-2 1-2 1-2-1v-1l-2-3c-1-2-1-3 1-4l4-1 2-2c1-2 3-3 3-1-1 2 0 3 2 1v-2h2c2 2 6 3 5 0l-1-1v-2l-1-6-2-4c0-2-1-1-3 1l-1 1c2-1 5 2 5 4s-1 2-4 1c-2-1-3 0-1 1 1 1 1 1-1 2s-4 0-4-2c1 0 1 0 0 0l-1 5c0 2-3 2-4 0h-3c-1 1-4-2-4-4 1-2 3-1 4 1 1 1 1 1 1-1s-1-3-3-4l-3-3-2-1c-2 0-2-2 0-3 3 0 3 0 3 2l1 1 2-1 1-1 1 2 1 2v2l2 3 2 2v-3l-1-3-1-1 1-1 1-1-1-3c-2-1-2-4-1-5 2 0 2 0 1 1l1 3c2 2 3 2 2 0l2-1 1-4 1-3 2 2h1v-2l-1-4v-4l2-1c2 0 2-3 1-3H97c-1 2-1 6 1 7 1 0 1 1-1 2l-1 3c1 2 0 2-2 2-3-1-4-4-1-4 2 0 2-1 1-5 0-2-1-3-2-3l-1-2 2-1c2 0 2-2 1-6-1-2-1-3 1-4 1-2 2-2 2-1l2-1c2-1 2-2 0-4s-4-8-3-7h4l3 2c2 1 2 1 0 3-2 1-2 3-2 4 1 2 0 3-1 3-2 1-2 4 0 5l2 2 2 2 1-3-1-3h-1l2-1c2 0 2-1 1-2-1-2-1-3 1-4l3-1v-1l-1-3-3-3h-4v-2-3l-1-2c1-2 2-1 2 2l2 2 2 1c0 2 5 1 6 0l1-3-3 1c-2 2-3 2-2 0 1-1 0-2-2-4-2-1-2-2-1-3l3-2 2-1c0-2 3-2 3 0s3 3 4 2v-3h2c2 0 2 1 2 3-1 2 1 6 3 6l1 1 1 2c1 1 1 0 1-1l1-2 1-1-2-1c-2 1-3 0-3-1l-1-2c-2 0 1-4 3-4l2-1c0-1 4-3 5-2l-1 2v3c2 2 1 2-2 2h-2l2 1 1 3c0 3 0 4-2 4l1 1 3 5 1 2 1-1h2c1-1 1-1-1-2-4-1-3-4 0-4 4 0 5-1 3-2-1-1-1-4 1-3l1 3c0 3 0 3 4 2 5 0 6-1 6-3l2-1 2-2c1-2 1-2-1-2h-2l-1-2v-2l1-3c0-3 2-3 3 1l2 2c1-2 3 1 3 3v1l1-1v-5l1-2 1-2c2-2 2-2 3 0l3 2 3 2h4l4-1-2-1c-1 1-1 1-1-1 1-1 0-2-1-3-4-1-6-5-2-4l2-1c-1-1-1-1 1-1l1-1h2l3-3 2-1c2 1 0 3-1 2l-1 1c0 2 4 6 5 5l1 1-5 1-2 1 4 1c3 1 3 0 4-2 0-2 1-2 4-2l3-1c-1-1 0-1 2-1h1v-3l2 2c0 2 0 2 2 0s2-2 0-3l-1-1-1-2c-2-1-2-1 0 0 3 1 3 1 4-5 0-3 2 0 2 3s2 6 3 4h7c4-1 4-2 4-4-1-2 0-4 2-6s3-2 3 1-2 5-3 3h-1c0 2 2 3 3 2l3-2c5 0 7 0 8-2 3-3 7-3 6-1v2c2 0 1-3 0-4-2-1-2-5-1-4h1l7-4c1 1 0 8-1 10h-2c-1-1-1 0 0 0 1 2-2 4-3 3l-2 1c0 1 2 2 3 1h3l4 1c1-1 2 0 2 1-1 2-1 2 1 1h2c2 2 3 0 3-4v-4h-3c-2-2-2-5 0-5l1 2 1 1c1-1 2 0 2 2l2 1 2 2 1 1h1v4c2 0 3 0 4 2v-1-2l1 1h1c1-1 1-2-1-3s-3-2-2-3c0-2 0-2-1-1h-2l-2-1v-1l-1-2c-2 0-2-1 0-1h2v1c1 0 2-1 2-3-1-1 0-1 0 0l1-1 1-1 1 1v3c0 2 0 2 2 0 2-1 2-1 1 2v3l2-1 1 1 1 3c-1 1 1 4 2 4v-2l1-2-1-2h4v-1l2-3c3-3 3-4 1-3-1 1-5-2-3-3h3c0-2-2-2-3-1-1 2-3 1-2-1v-2c-2 1-3-2-1-3h1c1 2 2 2 5 1 4 0 5 0 4 1v2c2-1 2 0 3 3 0 2 2 5 4 5l-1-2c-2-1-2-1 0 0l2-1h1c2 0 2 0 1-1s-2-2-3-1v-1c1-1 3 0 6 3l1 1 1-1c2 0 2-1 0-4v-3l-2-1c-1 1-1 0-1-1l-1-1h-1l2-1 2 1 2 1 2 1h6c2 0 2-1-1-3-2-2-2-2-1-4v-4l2-4 3-2-2 4-1 1 3 3 2 2v2c-2 3-1 5 1 1 2-3 2-3 4-1 1 2 1 2-1 2l-4 2c-4 5-2 7 3 3 2-2 4-2 4 1l-1 2-1 1h1l4-1-1-1v-2l-1-3 2-2c2 0 3 1 1 3h2l3 1 2 1c1 1 2 1 1 2h-2c-2-3-4-2-4 0-1 2 2 4 3 2l1-1 1 1h1v1c-2 2-2 2 0 4s3 3 2 4c0 2 0 2 1 1l2-1 1-1v-1l-1-1-1-4-1-3-1-3v-3l1 1 1 1v3l-1 2h4v-3c1-1 1-1 1 3 0 3 1 4 2 4l1 4v1l2-4 2-2v4 2h1l2 1c1-1 3 2 2 4l1 1 2-2c0-2 4-3 6-2 1 1 1 1 0 0v-4c1 1 1 0 1-1 0-2 0-2-2-2h1l2-2 2-2c2-2 2-2 2 2 0 2 0 3 3 3 2 0 2 0 1-1v-3-7-4c-1-2-1-2 1-4h4c1-2 1-1 1 0-1 2-1 2 0 0 2-2 2-2 2 1s-1 3-2 3l-1 1v2l-1 1v1c-2 1-1 3 1 2l2 2c0 2 3 3 3 1l2-1 1-1 1-1c1 1 2 0 4-2l3-2 1-1 3-1h4l-1-1-2-2c0-2 2-2 3 0l7 2v-3c0-3 1-4 2-2l3 1 2 2c1 2 5 1 5-1 0-3 3-4 4-1 1 2 1 3-1 2l-1 1 3 1c3-1 4 0 7 2l4 3 6 3c4 4 7 4 7 1l1-1v2l1 3c2 2 2 2 4 0l1-2-3-1c-1 0 0 1 0 0v-5c2-2 2-2 2 0l-1 2v1h4v2h1l2-1h1c-1-3 0-4 1-4l1 2v2l2-2 2-1 1-2c-1-2 4-9 5-9l3 2c2 2 4 1 3-3l1-3c2-2 2-1 1 1l-1 5c0 4 0 4-2 3l-2 2-3 2-1 2c-1 2 2 3 5 2h2c0 1-4 3-6 2l-2 1-3 1-1 1 2 1 2 1 1-1 2-2h2c1-1 2-1 3 1 1 1 1 1 2-1 0-2 1-2 1-1h1c1-1 1 1 1 3 1 3 4 5 4 3l-1-1h-1l3-2c2 0 2 0 1 1-2 2-1 3 2 2l1-1v6 2l6 2 2 1-1-1-1-2c0-1 1-2 2-1s1-1 1-2c1-1 0-1-1-1-2 0-4-4-3-7l6-1c0 2 2 4 4 3l1 1c0 2-4 3-5 2l-2-2h-2l2 2 2 2 1 2-1 1-1 3c0 2-1 3-2 3-2 1-2 3 0 3 1 0 2-2 3-7l2-1c2 2 6 2 6 0h1c1 2 1 2 2 0v-1c-2 1-4-4-3-6s1-2 2-1c2 1 2 1 3-1h2l-1 2-2 2c0 3 1 4 2 1l3-1c2 1 2 0 0-2-1-1-2-2-1-4v-2l-2 1c0 1 0 1 0 0l-2 1 1-2 5-3 2-1 1-1 1 2c-1 2 1 3 2 2h2c1 2 1 2 4 0h3c1 2 4 4 5 3v1c-1 2-1 2-2 0h-2-12l1 2c0 1 1 2 3 1 1 0 2 0 2 2l-1 3c-1 1-2 1-3-1-1-1-2-2-3-1s-1 2 1 1v2l1 1 2 1c1 1 7-5 7-6s0-1 0 0c1 2 1 2 2 0l3-2 1-1 2-2v-1l-2-1v-1l3-3c0-2 1-3 2-2l1-2c1-1 0-2-1-1l1-2c3-3 6-3 8-1 1 1 1 1-1 1l-2 2c0 1-1 2-2 1l-1 1c1 1 1 2 2 1l2 2h2v-3l1-2 2-1c1 0 2 0 3 2 2 2 2 6 0 6h-1l-1-4c-1-1-2-1-1 3l-2 2h-1l-1-1-2 1h-1l-2-1-2-1c-1-1-1-1-2 1-1 3 0 6 1 6s2 0 1 1 0 1 1 1l4-4 3-1h3l3-1c4 0 4 0 2 2-2 1-3 4-1 4v1c-2 1-1 2 2 2 1 1 2 0 1-1v-2l2 1h1l3-2c1 1 1 1 0 0v-1l1-1h-1c-2 2-3 1-4-2l-1-3c-1 1-1 0-1-1s1-2 3 0c1 1 1 1 0 0-2-3-3-6-1-6l3-1 2-1 2-2c2-2 2-2 0-2-3 1-3 0 1-2s5-1 4 2c-2 2-1 3 1 2l3-1c2 0 2 0 1 2l1 3c1 1 1 2-1 5-2 2-2 2-3 1l-2-2c-2 0-1 4 1 6 2 1 2 1 0 1-1-1-3 0-4 1l-2 1-2 2-1 5c-1 1 0 2 3 2 2 0 5-3 5-5h-1l-3 2c-2 0-1-4 2-5 2-1 2 0 2 2l2 3v-1l1-2 1-1 1-2v-4l2 2c2 2 4 3 4 1 1-1 0-2-1-2l-3-4c0-1 0-2 1-1l1-2c1-2 4-3 6-2l-3 2h-1l2 2h2l2-1c2 1 2-1 1-2v-2l1-1-2-1-1-4v-2c1 2 2 2 4 0 1-1 2-2 1-3-1-2 0-2 3 0 2 1 2 1 3-1s3-1 3 2c0 2-1 2-3 2l-2-1h-1l-1 2c2 4 2 5 0 7l-1 2h1c1-2 3-1 3 2l1 3v1c-2 1-1 3 1 3l1-2v-3l1-2c0-1 0-2 1-1 2 0 4-2 4-5 0-2 0-3 1-2l1 3 1 2h1v1h2v-1l-2-2-2-4c1-2 3-1 4 0v2l1 3 2 1c1-2 2-1 2 1l1 2c1-1 2 0 3 2s1 2 2 1c0-2 0-2 1-1l2 1 2 1c1 2 3 2 4 1 2-1-1-5-3-5l-2-1-4-2-4-1c-1-2 0-2 2-2l2-2c2-2 4 0 4 6l3 1 3-1 1-2c1-1 1-1 0 0l1-1c2-2 2-3 2-5l1-2 2-1c1-3 2-2 2 0l-1 2-1 1 1 2 1 2 1 1 1 2 1 1 1-4v-5l1-3v-2l1 1 1 1v-7l2 2 1 2c2-1 1 3-1 5l-1 3c1 2-2 7-3 7l-1 1c0 2 3 1 4-1l4-2 2-1c0-1 0-2-2-1l-1-2c0-1 1-2 2-1 2 0 6-3 5-4v-3c1-1 2-2 3-1l2 1 1 1 1 2v2c-1 2-1 2-1 0 0-3-4-2-5 1v5l1 1c2 1 3 2 3 4l-1 2-2 3c-2 2-2 3-3 2l-3 1c-1 3 0 4 2 4 2-1 2 0 2 1l-1 1c-2 0-2 1-1 3 1 3 0 3 3 4l2-1v-2l-1 2-1-2c0-1 0-2 1-1l2-1c2-2 3-4 1-3-2 2-4 0-4-3s2-4 5-3h1l1-2c1 0 2 2 2 5s-1 4-2 4l-1 3c0 2 0 1-1 1v3h2c2-1 2-2 1-2-2-1 1-2 3-2 2 1 2 2 2 5 0 2 0 2 2 0v-2l-1-2 2 1c3 3 3 6-1 6h-3l1 8 1 3 2-3 2-4 2-2 1-3 1-2c1 0 2-1 1-2l1-3v-1l-1 1c0 2-4-3-4-5 0-3 2-4 3-2l2 1 1 1c-1 2 0 3 1 3 2 1 2 2 0 4-1 1-1 1 1 1 4 1 5 0 3-3-2-1-2-2-2-5v-2c-1 0-3-2-2-3l-1-2c-2-2-2-6 0-6l1-2c-1-4 0-7 1-6l3-2c2-2 2-2 3 0s0 6-1 6l-3 4-1 2c1-1 1 1-1 3-1 1-1 3 1 3l8 4h1l-1 7 1 3 2-2c0-1 1-2 2-1l1-1 2-1c2-1 3 1 1 3-1 1-1 1 1 1 3-1 3-1 2 1v1c2-1 3 0 3 2s0 2-4 2c-2-1-2-2-1-3 0-2 0-2-1-1-2 2-3 4-1 4s3 2 2 4c-1 1 0 3 2 2l1 1h1c0-2 2-4 5-4l3-1c1-1 2 0 2 2l-1 3-1 2 1 1c2 0 5-6 4-7l1-1v3c0 3 1 3 3 0s2-4 3-1c0 3-4 7-6 7l-3 2-1 2-1-2c0-2-1-2-1-1h-3c-1-1-1-1 0 0v3h-1l2 1c2-1 3 1 1 2l-1 4c0 3 0 3 2 2v-2c0-1 2-5 3-4l1-1c0-2 1-3 6-3l6-2c2 0 4 3 2 4v2c1 1 1 2-1 2l-1-1-4-4-1 3c1 3 0 4-3 7l-6 4c-1 0-1 1 1 1h3l2-1 3-2c0-3 3-6 4-5l-1 2-1 2c1 2 4 0 4-1v-1l5-1c3-1 5 1 2 2l-2 1-2 1c-4 0-5 6-2 8 1 1 1 1-1 1s-6 4-5 5c1 2 3 2 2 0l1-2c1 0 2 1 2 3l1 3 2-3c3-5 3-8 0-8-2-1-3-4-1-4h10l-2 1c-2-1-3-1-3 1l2 1 2 1 3 1c2 0 1 2-1 3h-2c0-2 0-2-2-2s-3 1-2 2c2 1 1 4 0 5-2 1-2 3-1 3h1l2-3c1-2 1-2 3 0v3c-1 2-1 2 1 1h8l-1 2c-3 2-2 3 2 3 4-1 4-1 3-3-2-2-2-3 0-5v-3c-1-1-1-3 1-3l1 2 2-1c1-1 2-2 3-1s-2 6-3 5l-1 2c-1 2 0 2 1 2l2 2v3 3c2 1 4 0 4-2l2-2 4-1v-2h-4l-2-1c0-2 7-1 8 0 2 2 1 5 0 4l-1 1-2 4-1 4-1 1c-2 0-4-2-4-4 1 0 1-1 0 0-1 0-2 0-1 1v2l1 2c2-1 0 5-2 7-3 2-2 3 1 1l3 1 1 2h-5-5l-1-2-1 2-1 1-1-5c0-3 1-5 2-3s3 2 2 0l-1-3v-1c-1 0-5 5-5 7s-2 3-5 2c-2-1-3-2-3-4 0-3 0-3-2-3-3-1-3 0-3 1l1 2h2l-1 1 1 2v2 2l3-1h5l3 1c1 0 1 3-1 3l1 2h1c0-1 1-2 4-2l4 1 1 4c1 3 2 3 5 3 4 0 4 0 5 4 0 3 1 4 2 4v1l-2 1c-1-1-2 0-3 1-1 3-1 4 2 3h5c3 2 6 7 5 8l1 2c2 0-1 3-3 3s-3-2-1-3c2-2 1-4-3-4l-3 1c0 3 0 3-2 2v-2c1 0 1-1-1-1l-2-3c0-6 0-7-3-7l-2-1h-1l-1 2-1 2v2c2 1 2 1 0 3l-3 1c-2-1-5 2-4 4l2-1h3c3 2 5 2 4-1 0-2 4-3 6-1 1 2 0 3-2 3l-2 2c-1 2-2 2-7 2s-5 1-5 2c1 1 0 3-2 4-3 3-5 3-5 1s0-2-2 0c-1 2-2 2-3 2v1c2 2 3 13 2 12l-1-1c0-1-3-3-4-2l1 2 2 2h-2l-3-1c-2 1-2 1-2 3l-2 1c-1 0-2-2 0-3v-2h-3l-3-1c-2-1-4 1-2 2s2 2 0 3l-5 1c-3 0-3 0-3 2v3 4l3 2 2 1-2 1-1 1c1 1 0 2-1 2-2 0-2 0-2-2s-1-3-2-2l-4 1c-2 1-2 1-1-1 2-2 1-4-1-2h-8l-3 2c0-2-4-3-4-2l-2 1-2 2c0 4 1 5 4 3s3-2 4 0v2l-3 3-3 1-2 2c0 1 0 2 2 2 1 1 2 1 1 3-1 1-2 2-3 1l-2 1c1 2-1 3-2 2v-3-4c-1-1-1-1-2 1l-2 1c-1-1 0-5 1-5v-1c-2-2-3-4-1-5h6l-4 3 1 1 3 1c2-2 2-4 0-7v-3h-1l-2-1h-1l-3-1c-1-2-3-2-3 1l-1 1c-1-1-1 0-1 2 1 3-3 4-5 2-1-1-1 0-2 2 0 2-2 4-4 6-4 3-4 5-1 6 2 0 3 5 2 6l-3 1c-2 0-2 0-1-1l1-3c0-2-4-2-5 0 0 2-3 2-4-1-2-2-5-1-4 2 1 1 0 1-1 1l-2-1v-2h-1c1 1-2 4-3 3l-1-2c0-2-4-4-5-3l-6-2c-6-2-7-2-5 1v2l-1-1h-1c1 2 0 3-2 4-3 2-3 3-2 4 2 1 2 1 0 2-3 2-5 1-6 0 0-2 1-5 2-4l1-2 2-6-1-4-2 2-2 2c-1 0-2 1-1 2h4c0 2-2 4-5 3l-4 1h-1c1-1 0-1-1-1h-6v1c2 0 2 4 0 4l1 1 3 3c1 4 1 4-1 4-2-1-3-1-3 1-1 2-3 4-5 2v-2l1-2 1-1v-1l1-2v-2l-3-1v-2l2-3v-3l-1-3c0-2 0-3-1-2-1 0-2 1-2 3 0 4-1 5-3 3-1-1-1-5 1-5l-1-6h-2v1c1 2 1 3-1 2l-2-1-1-1 2-2c3-1 3-1 1-4l-1-5c1-1 0-3-1-4-3-2-5-3-5-1v2l-1-1c0-2-7 5-9 9-2 3-2 3-1 4l4-1c2-1 5 0 3 1-3 1-2 4 0 4 3 0 3-6 0-8-3-1-4-3-2-3l2 1v1c1 1 2 0 1-1l1-3c1-1 2-1 3 1 0 1 1 2 2 1l1 1-1 1-1 1c1 1 0 2-1 1v1c2 2 2 2 0 6l-1 5-2 2c-4 2-5 1-5-3 0-8-1-9-3-5-2 2-6 4-6 2l2-1 2-2c0-2-1-3-4-2l-1-2-2-1c-2 1-2 0-1-3l1-4h4c1-2 0-3-2-3l-1-3v-2l-1 4c-1 3-3 2-4 0s-1-2-1 0l-2 4c-1 1-2 2-4 1s-3-5-1-5h3c2-1 1-3 0-4l-1-2-1-1h-3l-2 1-1 2c0 2 2 3 4 2h2l-1 1-4 2v2l2 3v5l2 2 2 1 1 4v3c0 2-2 1-3-1l-2-3c-2 0-2-1-1-1 2 0 1-2-2-5-2-1-2-2-3 0l1 2c2 1 1 2-2 3-2 0-2 0-2-2s0-3 1-2l1-1-1-1-1-1v-3l2-1h1v-2c2-1 2-1 1-2-3-2-6-4-7-3v3l-1 3c-4 0-5 12-1 13 2 0 2 1-1 3-2 2-6 3-5 1h-2l-2 1-2-1v3h-3l-4-2-1-1h2c2 1 2-1 0-4-1-2-1-2-1 0l-3 1c-2 0-3-1-1-2v-4l-2 2-1 2-4-1c-2 0-3 0-4-2v-2-2l-2-2c-3 0-2-3 1-5 4-1 4-3 1-2h-1l-1-2-1 2-1 3c-1 2-1 2-1-1s-1-3-1-1v3c2 2 1 4-2 3-1 0-2 0-3 2l-1 1-2 1c-1 1-1 0-2-2l-1-2v1c0 1-1 2-3 2l-1 1 1 2v1c-1 2-3 2-4 0l-2-2-1 2 1 2 1 1c0 2-3 2-3 0l-5-4c-3-1-3-1-5 1l-1 2-1 3c0 1-1 2-2 1l-3 1c-2 1-3 0-3-2h-1l-1 5c-1 2-2 2-2 0s-1-2-5-3c-3 0-4 0-4 2 0 1 1 2 3 2l4 1 2 2 1 2-2 2c-2 0-3 2-2 3l1 2c-4 0-5 0-4-1l-1-3-3-2-1 2-3 3c-1 2-1 2-3 0l-2-4-1-1-2 1-1 1-2 1h-2l-1 1-1 1c-2-1-1-4 0-6 2-1 2-2 1-3-1-2-6-3-6-1l-2 1-1 1-2 3h-1-7c-1 1-8 0-9-1h-3l1-2c-2-2-8-3-9-2-1 0-2 0-2-2-1-2-1-1-1 1l2 5 1 3c0 2 0 2-2 0l-4-2h-4c-1-2-8-3-9-1l2 2 3 2 2 2v1c0 1-1 1-2-1l-2-1h-1v-2l-3 1-1 2-1 1c1 1 0 1-1 1l-1-1c1-1-4-6-5-5l-2-1c-1-1-1-1-1 1 1 1 0 2-2 0v1c1 1 1 2-1 2v5l2 1c3-1 5 0 5 2 0 3-2 4-3 2h-2l-2-1-1-1-1-3v-2l-1-2-1-3-1 1c0 2-3 1-3 0h-1l-1 2-1 1 1 4c0 2 1 3 3 4 4 0 6 2 4 4l-3-1-4-1-1-2h-1c0 2 0 2-2 0s-5-2-5-1c0 3-2 4-3 4l-2-2h2v-1c0-1 0-2 1-1v-3c-1-2-2-2-3-2l-1-1 1-1 2-2c0-2 2-3 3-3 2 0 2-2 0-2h-6-2l-5 1-1 2c-1 1 0 1 2 1h2c1 6 1 7-1 8v2l2 1 2 3v3h-1l-4-2c-3 0-4 0-4-3l1-3 1-4-1 2-2-2c-3-4-3-4-4-2l1 2c3 1 3 3 1 3l-2 1-1 1v-2-1c-1 2-4 1-5-1 0-2-1-2-1-1 0 2-2 3-2 1h-11l-3-2c-1 0-2 0-1-2l-1 1-1 4c-1 2 0 2 1 2 3-1 3 1 0 4l-2 3 1-1c1-3 4-2 4 0l1 3-1 3c-3 3-5 3-4 0 0-3-1-4-2-2v4l1 3c1-1 8 4 8 6l-2 2c-2 1-2 1-2-1l-2 1c-1 2-1 4 2 4l2 2c0 2 0 2-3 0l-3-3c0-2-2-3-2 0 0 2-2 3-3 0 0-2-1-2-3-1h-3v-4l2-8c1-1 1-2-1-3v-2-1l1-3c2-4 0-2-2 2s-5 5-3 1l-1-1-6 3v-2h-1c-3 2-4 4-3 7s3 4 6 2l2-2v9 2c2 1 1 4-1 4l-2-3c0-3-1-4-3-1-1 1-5 2-5 0l-3-2-2-2c1-2-1-3-3-2l1 2c2 2 2 2 0 3v2l-1 1c-2 2-4 12-2 11l3 1h3c2 1 2 3 0 3-1 0-2 1-1 2 2 3-3 4-5 1zm-45-26c0-3-2-3-3-1-2 2 0 6 2 4l1-3zm49-6h-2c-1 3 0 4 2 3s2-1 0-3zm-86-14h0c1 0 1 0 0 0zm93-6c-1-2-1-2-2 0s1 4 3 2l-1-2zm78 1l-2-1 1 2c3 2 3 1 1-1zm-183-4l-2-1v1l1 1 1-1zm155-6l-1-1v1l1 1v-1zm124-7h-1l-1 1h1l1-1zm21-4l1-1 3-1h4l-3-2c-3-3-4-2-6 1l-1 3h2zm172 0l-1-1h-1l2 1zm-23-5c-1-2-3 0-2 3h2v-3zm-88-2l1-1v-3c-1 0-2-1-1-2 0-1 0-2-1-1l-3-1c-1-1-2 0-1 3 0 5 1 6 3 5h2zm5-1v-1c2 0 2-3 1-4s-1-1 0 0l-1 2c-2 0-2 4-1 4l1-1zm86-1l-1-1v1l1 1v-1zm-119-2l-1-2h-5l3 2h3zm9-4c0-2 1-3 3-3l2-2 2-1v-1c-2-2-3-2-3 0l-3 3-2 2c0 1 0 2-2 2-2 1-2 1-1 3 1 1 3 0 4-3zm-7 1c-1-1-1-2-2-1l1 1c2 2 3 1 1 0zm39 0v-2l-1 2v1l1-1zm172-5l-1-1 1 3v-2zm8 0l-2-1v2c2 1 3 1 2-1zm-127 0l-1-1-1 1 1 1 1-1zm-42-2l1-1c-1-1-3 0-3 2l1-1h1zm176 0l-1-2-1 1 1 2 1-1zm-9-1c0-2-2-5-4-5v2c3 1 3 2 0 2-4 0-5 0-2 1 3 2 5 1 6 0zm-190-1c0-1-2-4-2-2l-3 2c-2 1-2 1 1 1l4-1zm7-1c0-2 0-2-1-1v3l1-2zm21 1c0-1 0-2-1-1l-1 1 1 1 1-1zm7 0l-2-2c-2 0-2 1 0 1l1 1 1 1v-1zm171 0c2-2 2-5 0-5s-2 0-1 1v2l-1 1-1 1c0 2 2 1 3 0zm-18-7c0-1 0-2-1-1v2c1 2 1 2 1-1zm25 1l-1-1v1l1 1v-1zm-10-1l-1-1v1l1 1v-1zm27-1l1-2c0-2 0-3-2-3s-7-5-6-6h3l4-1v-1c-1-1 2-4 3-3 2 0 1 5 0 5v1c1 1 3-2 3-4-1-1 0-3 1-3 2-2 1-2-2-1-3 0-4 0-6-2-3-2-5-1-4 2 0 2 0 2-2 2h-3l2 1v1l-3 3v1c1-1 1-1 1 2-1 3-3 4-4 4-2-1-2 0-1 2l1 1h2c0-1 8-1 8 1h4zm6-1l-1-1v1l1 1v-1zm-32-2l-3-2 1 2c2 2 3 2 2 0zm-12-2l-1-1h-1l2 1zm-5-2c-1-1-1-2-2-1l1 1c1 2 1 1 1 0zm11-1l-1-2c-2-1-2-1-1 1 0 1 0 2-1 1h-1c0 1 4 2 4 0zm3-5l1-1 2 1v-2c0-2 0-3-2-2l-2 1v3 1l1-1zm22-5l-1-1v1l1 1v-1zm-6-3c-1-1-2 1-1 2h1v-2zm30 1l-1-1-1 1 1 1 1-1zm-662-2l-1-1-3 1c-1 0-1 1 1 1 3 1 3 1 3-1zm620 1h-1l-1 1h1l1-1zm10-4l-1-1-1 1 1 1 1-1zm-653-2l-1-1c-2 1-2 3 0 3l1-2zm666 0c-1-2-4-3-4-2l3 3 1-1zm-638-7l-1-2-1-3c-2-1-2-1-1 1l-1 1h-1c0 2 3 4 5 4v-1zm-7-5l-1-2-1 2 1 1 1-1zm668-3l-1 1c-1 1-1 1 0 0l1-1zm2-4l-3-1-4 1c0 2-1 2-2 0l-1-1v2c0 2 1 2 5 1l5-2zm6 0l-1-1v1l1 1v-1zm-684-9l-3-1v1c0 1 3 2 3 0zm658-4c2-1 1-3-2-2l-2-1c0-2 0-2-2 1l-1 3 1-1 3-1c2 0 2 1 1 1l-2 4c0 2 0 2 1 0l3-4zm-12 3c0-2-2-2-2 0l1 1 1-1zm-612-1l-1-1-1 1 1 1 1-1zm-12-7l-2-2c-1-1-2-1-2 1 0 1 1 2 2 1h2zm623-2h-1l-2 1h2l1-1zm-5 0l-1-1-1 1 1 1 1-1zm43-3h-1c-2 0-2 1-1 1l2-1zm-30-5l-2-1v1l-2 2v2c1 1 2 0 3-1l1-3zm8 2l-3-1c-2 0-2 0 0 2 2 1 4 1 3-1zm-26 0l-1-1h-1l2 1zm44-1l-1-2-1 2 1 1 1-1zm5-1l-2-1c-1 0-2 0-1 1l1 1h1l1-1zm-35-3c0-2 0-2-3 0-2 2-3 3 0 3h2l1-3zm7-1h-2v2c1 1 2 1 2-1v-1zm5 2l-1-2-1 2 1 1 1-1zm6-3l-2-1v1c2 2 3 2 2 0zm-8 0c0-1 0-2-1-1l-1 1c0 2 1 1 2 0zm-17-4l-1-2c-2 0-2 2-1 3 1 2 2 1 2-1zm-11 0l-1-1h-1l2 1zm24-2h-1l-2 1h2l1-1zm-10-2l1-3c0-2 0-2-1-1l-2 4c0 3 1 2 2 0zm-627-9v-2l-2-1c-1-1-5 0-5 1l2 3c2 3 2 3 1 4l-2 2c0 1 0 1 0 0h-3l1 1c2 1 7-3 8-8zm623 5c3 0 4-1 2-2-1-1-1-1 0 0 1 2-1 1-3-1l-1-1c1 1 0 1-1 1v2l-1 2v2c0 1 1 1 1-1l3-2zm-614-1l3-3-2-1-2-1h1l2-1v-2-3h-2l-4-1c-3-1-5 0-4 2l1 5 3 3c1 0 2 3 1 4l1 1c1 0 2-1 2-3zm606-1l-1 2h1v-2zm-589-7h-1l-2 2v1l1-1 2-2zm582 2l-1-1-2-1s0-2-1-1 1 4 3 4l1-1zm23-3v-1h-2l-1 1v3h1l2-3zm-27-8l-2-1c-3-1-4 1-1 2l3-1zm-602-2l-1-1v1l1 1v-1zm601-3c0-2 2-2 3-1 0 1 0 1 0 0 0-2 0-2-2-1-2 0-3 0-3-2s0-2-4 0c-3 1-5 3-3 3l2-1 2-1c2 0 4 3 4 4-1 0-1 0 0 0l1-1zm-595-2l-1-1-1 1 1 1 1-1zm397 0l-1-1-1 1 1 1 1-1zm5 0l-1-1v1c0 1 0 2 1 0zm156 0l2-1c2-1 2-1 0-2s-4 0-4 3h2zm-517-1l-2-1v1h2zm515-5c0-1 0-2-1-1l-1 2 1 1 1-2zm32-1l3-3c2-3 2-3 1-4s-2 0-2 1c-1 2-2 2-5 2-3-1-3 0-3 3 0 4 1 5 3 2l3-1zm-188 1v-2-2c-1-1-2-1-3 1-2 2-1 4 1 4l2-1zm207-1c0-1-1-1-2 1l1 1 1-2zm-524-2c-1-2-4-4-4-2v2c-1 1-1 1 0 0s4 0 4 2l1 1-1-3zm41 2l-1-1-1 1 1 1 1-1zm54 0l-1-1-1 1 1 1 1-1zm348-1c0-2 0-2-1-1v2c1 2 1 1 1-1zm-353 0l-1-1v1l1 1v-1zm242 1l-2-2c-2-1-2-1-1 1l2 1h1zm147-5h-2v3h1l1-3zm-468 2a1 1 0 0 0-2 0l1 1 1-1zm340 0v-2h-3c-1 2 0 3 3 3v-1zm57 0l-2-1h-1c0 2 1 2 2 2 2 0 2 0 1-1zm6-1h-1l-1 1 1 1 1-2zm77 0l-1-2-2 1v2c-1 1-1 1 1 1l2-2zm-476 0l-2-1v1h2zm68-1c0-1 0-2-1-1v2c1 2 1 2 1-1zm238 0c0-1 0-2-1-1l-1 2 1 1 1-2zm111-1v-2c-1-2-1-2-3 1-2 4-2 5 0 2l3-1zm-86-1c-1-2-1-3 1-3 1-1 2-4 0-4l-3-1c-2 0-2 0-1 1v2 3l1 3h-4c-2 1-1 2 3 2 3 0 3 0 3-3zm-372 0l-2-1c-2 1-2 3 0 3 1 0 2 0 2-2zm104 0l-2-1c-1 1 1 2 3 3l-1-2zm234-2l-2 1c-1 2-1 3 1 2 1-1 2-2 1-3zm76 3l-3-2 1 2c3 2 4 2 2 0zm65 0a1 1 0 0 0-2 0l1 1 1-1zm-411-1h-1c-2 0-2 1-1 1l2-1zm253 0l-1-1v1l1 1v-1zm38-1l1-3c1-1 1-1 0 0l-1-1-1-2c-1 0-2 0-2 3v5c1 1 3 0 3-2zm-26 0l-2-1-1 1c1 2 3 1 3 0zm21-1l-1-2-1 2 1 2 1-2zm22 1c-1-2-2-1-3 0l2 1 1-1zm77 0l-1-2v2l1 1v-1zm-400-2l-1-2v-1c-1 1 0 5 1 5v-2zm298 1l-1-1-1 1v1l2-1zm145 0l-1-1-1 1v1l2-1zm-423-2h-3c-1 1 0 2 3 2v-2zm377 0c0-1 0-2-1-1l-1 2 1 1 1-2zm-339 0l-1-2v2l1 1v-1zm351-2l-1 2h1v-2zm17-1l-2 1v2c1 1 2 1 2-1v-2zm-314 1c1-1-1-1-3 1-2 1-2 1 0 0l3-1zm152 1l-2-2h-2l1 2h3zm15 0h-2c-2 1-2 1 0 1l2-1zm154 0l-1-2h-1v3c-1 0-1 0 0 0l2-1zm-369-2c-1-1-2-2-1-3h-1c-1 1 1 5 4 5l-2-2zm40 0l-1-3c0-2-1-2-1-1v2l1 3v1l1-2zm192 0h-2c-1 1 0 1 1 1l2 1-1-2zm94-2c-1-3-4-5-3-3s0 3-1 3c-2 2-2 3 0 3h3c2 0 2 0 1-3zm47 2c0-3-2-4-3-1 0 1 1 3 3 3v-2zm-436-2c-1-1-2-1-2 1l1 1 1-2zm290-3l-2 2c-3 2-2 3 0 1 2-1 2-2 2-3zm22 3h3l3-2v-1c-1 1-4 2-9 2l-1 2 1 1 3-2zm12-3c0-3 0-3-1-1l-1 4c1 3 2 1 2-3zm5 4h-2c-1 1-1 1 1 1l1-1zm36 0c1-1 0-1-1-1-2-1-3 0-2 1 2 2 2 2 3 0zm7-2c0-2-2-3-5-2-2 1-1 2 2 1 1 0 2 1 1 3l1 1 1-3zm9 0c0-4 4-7 5-5s3 0 3-1h-2l2-1 2-2c0-2 2-3 3-1s4 1 4 0v-3c2-2-4-2-6 0h-5l2 1 1 1h-2c-1 0-2 0-2 2s-2 3-4 2l-2 1v4c-2 2-2 5-1 5l2-3zm32-1l1-4c2-1 2-1 0 0l-3 1c-1-1-4 3-3 5h1c1-1 2 0 1 2h1l2-4zm-366 2l-3-1 4 2-1-1zm206 0l2-1c1 0 4-3 3-4l-2 1-3 1c-4 0-4 0-3 2 2 2 3 3 3 1zm166-3h-5c-1 0-1 1 1 2 2 2 2 2 3 0l1-2zm-321 2l-1-1-1-3c0-1 0-2-1-1l-1 1h-1l1 2 2 2 1 1 1-1zm335-3c0-1-1-2-2-1v1l-1 2c-1 0-1 1 1 1 2 1 4 0 2-3zm-430 0c0-2-1-2-1 0h-1c-1-1-1-1 0 0l1 1 1 1 1 1-1-3zm47 2l-1-1-1 1 1 1 1-1zm17-2l-4-3-1 1v1c0 1 1 2 2 1l3 2 2 1-2-3zm359 2c0 1 1 1 2-1l1-4c0-3-2-8-3-6h-1l-1 1c1 1 0 3-1 4l-2 1h-1v1l1 2v1l1-1c0-1 1-4 3-4l1-1 1-1 1 2-2 2-3 3c-1 2-1 3 1 1 1-2 1-2 2 0zm-399-1h-1l-1 1h1l1-1zm44-1l-1-1c0 2 1 4 2 3l-1-2zm404 0c0-1 0-2-2-2l-1 2h1l1 1 1 1v-2zm-108-1c2-1 1-1-3-2-3-1-3-1-1 1s2 2 4 1zm28 1h-2 2c1 0 1 0 0 0zm12-2c-1-1-2 0-1 1l1 1v-2zm-158 1c0-1-4-5-6-5-1 0-1 1 1 3 3 2 3 3 5 2zm-172-2h-1c-1 1-1 0-1-1v-1c-1 1 0 3 1 3l1-1zm250-1c-2-2-3-2-3 0l2 1 2 1-1-2zm-193-1l-1-1-1 2 1 1 1-2zm274 0c-4-4-6-4-3 0l5 2-2-2zm10 1h-2 2c1 0 1 0 0 0zm-321-3c-1-1-2-1-2 1l1 1 1-2zm-85-1l-1-2-1 2c1 2 2 2 2 0zm79 1h2c0-1 0-2-2-2l-2 2h2zm54-2c0-1-1-2-2-1-1 2-1 4 1 3l1-2zm149-1c-1-1-2 1-1 3 0 2 0 2 1 0v-3zm73 1l-1-2-1 3c0 3 1 2 2-1zm6 1h-1l2 2-1-2zm-318 0l-1-1v1l1 1v-1zm177 0l-1-1-1 1 1 1 1-1zm110-1c-1-1-2-1-2 1l1 1 1-2zm5 1l-1-1-2 1 1 1 2-1zm-269-2l-1-1v1l1 1v-1zm352-2l-1 2h1v-2zm-15 1h-1l-1 1h1l1-1zm4-1l-1-3-1 2 1 3 1-2zm17-3h-2v2h2v-2zm4 0l-1 2h1v-2zm-352 1h-1c-2 0-2 1-1 1l2-1zm80-2l-1 2h1v-2zm254 2h-1l-1 1h1l1-1zm-73-1l1-2-1-2c-2 0-3 3-2 4 1 2 2 1 2 0zM79 392c-4 0-4-2-1-5 5-5 7-6 10-4 2 1 3 4 2 8-1 2-3 2-11 1zm61 0c-1-1 8-10 10-10l2 3 2 2c2 1-4 4-7 4l-5 1h-2zm12 0l1-1 1 1-1 1-1-1zm67 0v-1l2 1-1 1-1-1zm54 0h2l-1 1-1-1zm22 0l1-1h1l-1 1h-1zm304-1l1-3 1-3 2 1v4c-2 2-3 3-4 1zm-407-1v-1c2-1 2-1 1 1h-1zm95 0c-1-1 0-3 1-3v2 2l-1-1zm330 1h1c1 0 1 0 0 0h-1zm14-1l1-1h1l-1 2-1-1zm76 0l1-1 1 1-1 1-1-1zm-476-2c-1-2-2-2-1-3 2-1 3 0 3 3 1 3 1 3-2 0zm70 1v-1c1-1 3 0 3 1h-3zm202 0v-1c2-1 4 0 4 1-1 1-3 2-4 0zm-440-1l1-1h1l-1 2-1-1zm97 0v-2l1-2 2-4 3-3 2-1c3-2 4-1 3 1l2 2c2 0 2 0 2-2l2-2 1 1 2 1c1-1 1 0 2 1l2 2 1-4 1-4 2-2c0-1 1-1 2 1l1 4c0 2 0 3 2 4l2 3-4 1h-7c-4-2-5-2-9 0l-6 1c-3 0-4 1-5 3s-3 3-4 1zm233 0l1-1 1 1-1 1-1-1zm17 0v-1h2l-1 2-1-1zm73 0v-1h2c1 1 0 1-1 2l-1-1zm107 0l1-1 1 1-1 1-1-1zm64 0l2-1 1 1-1 1-2-1zm45 0v-1l1 1v1l-1-1zm-480-1l4-2c1 0 2-1 1-2s1-1 1-1c2 0 1 2-1 4l-5 2h-2l2-1zm134 1h1c1 0 1 0 0 0h-1zm206-1l1-1 1 1-1 1-1-1zm85-1c0-1 4-3 5-2l-1 2c-1 3-5 3-4 0zm-458 0l1-1 1 1-1 1c-1 0-2 0-1-1zm90 0l1-2c2 1 2 3 0 3l-1-1zm48 0l1-1 2 1-1 1-2-1zm387 1v-5h3c2 0 2 1 2 3s-4 3-5 2zm22-1l1-1 1 1-1 1-1-1zm-163-1l1-1c1 0 2 1 0 2l-1-1zm93 0l1-1h1l-1 2-1-1zm-507-1v-3l2 4-2-1zm128-1l2-3c-1-2 1-5 3-5s2 0 0 1v3l-1 1-1 1c0 2-3 4-4 4l1-2zm35 2l-1-2h1l1 2h-1zm184-1l1-1 1 1-1 1-1-1zm-240-1l1-1 1 1-1 1-1-1zm202 0l1-1 1 1-1 1-1-1zm90 0l1-1 1 1-1 1-1-1zm7 0l1-1 1 1-1 1-1-1zm74 0l1-1 2 1-1 1-2-1zm-342-1l1-1 1 1-1 1-1-1zm135 0c-4-1-5-2-5-9-1-5 0-6 6-6l6-2c3-1 5 1 5 5l-2 6c-1 2-1 3 1 3v2h-3l-2 1h-6zm188 0l1-1 1 1-1 1-1-1zm-341-1c1-1 2-2 3 0l-1 1-2-1zm195 0l2-2 1 2-1 1-2-1zm100-1c-1-3 0-3 2-1s2 3 0 3l-2-2zm-447-1a2 2 0 0 1 5 0c0 2 0 2-2 2s-3 0-3-2zm286 1l2-1 1 1-2 1-1-1zm186 0c0-2 4-2 3-1l-2 2-1-1zm65 0l1-1 1 1-1 1-1-1zm72 0l1-1c1 0 2 1 0 2l-1-1zm-660-1v-1c2-1 3 0 1 1h-1zm87 0v-1h2c1 1 0 1-1 2l-1-1zm420 0l1-1 1 1-1 1c-1 0-2 0-1-1zm144-1c0-2 1-2 3-1l-2 3-1-2zm-452 0c-1-1 0-2 1-3 2-2 3-2 3-1 2 4-1 7-4 4zm58 0l1-1 1 1-1 1-1-1zm277 0l1-1 1 1-1 1-1-1zm-502-1l1-1 1 1-1 1-1-1zm10 0l2-1h1l-1 1h-2zm499 0l-1-2h2c1 1 0 3-1 2zm28 0l1-1 1 1-1 1-1-1zm36 0c0-2-1-2-2-2l-10-4c-4-3-6-9-3-9l1 3c-1 1 0 2 1 2 1 1 2-3 2-5-1-1 0-2 3-3l3-3 1-1 1 2 3 1c2 0 6 5 6 7l1 2c2 0 1 6 0 7l-1 1-1 1-1-1-2-2c-1 0-2 1-1 3l-1 2v-1zm-521-1c-1-1 2-2 3-2v1l-1 1-1 1-1-1zm98 0v-2h2v3l-2-1zm79 0l2-1 1 1-2 1c-1 0-2 0-1-1zm53 0l2-1 1 1-1 1-2-1zm108 0l1-1h1l-1 2-1-1zm-184-1l2-2c2 0 2 1 1 2-1 2-3 2-3 0zm49-1c0-3 2-5 4-3s1 3-2 4c-1 1-2 1-2-1zm250 1l1-1h1l-1 2-1-1zm-105-1l1-1 1 1-1 1-1-1zm-239-1l1-1 1 1-1 1-1-1zm116 1c-1-1 0-3 2-3l1 2c0 1-2 2-3 1zm6 0c-1-1-1-3 1-3l1 2v1h-2zm177-1l1-1 1 1-1 1-1-1zm54-1l-1-2-1-3v-1l2 1c1 0 2 0 1 2l1 1c1-1 1 0 1 1 0 3-3 4-3 1zm20 1c-1-2-1-4 1-4l2 3c0 3-1 3-3 1zm23 1c-2-2-1-4 1-4l2 2c0 2-2 3-3 2zm-522-2l2-1c2 0 1 2-1 2-1 0-2 0-1-1zm6 0l1-1 1 1-1 1-1-1zm547 0l1-1c2 0 1 2 0 2l-1-1zm7 0v-1l1 1v1l-1-1zm-590-1l-1-1c-1 0-2 0-1-1s2-1 3 1v2l-1-1zm43 0l1-1c1 0 2 1 0 2l-1-1zm164-1c0-3 0-3 1-2v3c-1 1-1 1-1-1zm4 1c-1-2 0-3 1-3v4l-1-1zm9 0h1c1 1 2 1 0 1l-1-1zm301 0l1-1 2 1-1 1-2-1zm19 0l1-1 1 1-1 1-1-1zm54 0v-1l1 1v1l-1-1zm23 1c-1-1 0-3 2-3l1 2-3 1zm-589-1c-1-2 0-4 1-4h1v1c2 1 1 3-1 3h-1zm31-1l1-2 1 2-1 1-1-1zm197 0l1-1 1-2c0-1 0-2 2-3 2-3 2-3 3-1 1 1 1 2-1 1-2 0-3 2-2 3 2 1 1 4-2 4l-2-1zm6 0l2-3c2 0 2 3 0 3h-2zm20 0l1-1 1 1-1 1-1-1zm368 0l2-1 1 1-1 1-2-1zm-417-1l1-1h1l-1 2-1-1zm5 0l2-1 1 1-1 1-2-1zm213-1l1-2v3c0 1-1 1-1-1zm-437 0l-2-4c0-2 1-3 3-3s3 1 1 3l-1 3c0 2 0 2-1 1zm206 0v-1l1 1v1l-1-1zm3 0l1-2 1 1-1 2-1-1zm302 0l1-1 1 1-1 1-1-1zm-479-1v-1l1 1v1l-1-1zm314 0l1-1 1 1-1 1-1-1zm143 0v-2l1 2h-1zm14 0h2c0 1 1 1-1 1s-2 0-1-1zm30 0l1-1 1 1-1 1c-1 0-2 0-1-1zm-498-2c-1-2 0-3 3-2 2 1 2 1 1 2l-2 1-2-1zm43 1l1-1 2 1-1 1-2-1zm81 0v-3l1-2v-2c1 0 2 3 1 4l-1 3c0 1 0 2-1 0zm35 0c-4 0-4-3-1-5l2-2v3 3h2c0 1-1 2-3 1zm32 0l-4-1-4-1c-1-1-1-2-2-1s-1-1-2-1c-1-2-1-2 2-3l2-2v-1l1-2c-1-1-1-1 0 0l1 3 2 2h3c2 0 2 1 2 2-1 1 0 2 1 3l2 2h-4zm171 1h1c1 0 1 0 0 0h-1zm57-1v-1c2-1 3 0 1 1h-1zm5 0c0-1 4-2 5-1l-1 1-2 1-2-1zm11 0l-1-2 3 1c1 2 0 2-2 1zm7-1c-2-2-3-3-3-6l-1-5c-1 0-1-1 1-2l2-2 1-2h1c-1 1 1 2 6 1l3 3 3 3 1 2c1 1 0 2-1 3v1c0 2-4 6-8 6l-5-2zm39 1c1-2 3-2 3 0l-2 1c-2 0-2 0-1-1zm72 0l1-1h1l-1 2-1-1zm-603-1l1-1 1 1-1 1-1-1zm219 0l1-2v2h-1zm201 0l1-1 1 1-1 1-1-1zm102 0l1-1 2 1-1 1-2-1zm60 0l1-1h1l-1 2-1-1zm-615-1l1-1 1 1-1 1-1-1zm61 0l2-1-1 2c-2 0-2 0-1-1zm258 0v-1c1-1 3 0 3 1h-3zm61 0c-1-2 1-4 2-3 2 1 1 3 0 4l-2-1zm91 0v-1l1 1v1l-1-1zm-434-1l2-2v2l-2 1v-1zm39-1l-1-1h-2c-2-1-2-2 1-2 2 0 3-1 4-3l2-2c1 0 4 2 3 3v2h4c0 2-3 3-5 0l-2-2v3c0 4-2 5-4 2zm154 0l-2-1v-1h4c2 0 3 0 2 1l-1 1-1 2-2-2zm423 1l1-1 1 1-1 1-1-1zm22-1h2c1 1 1 1-1 1-3 1-3 1-1-1zm-669 0l1-1 1 1-1 1c-1 0-2 0-1-1zm25-1l-3-2c-2 0-3-2-1-4h2v2l2 2c4 2 5 4 2 4l-2-2zm320 2l2-1h2l-2 1h-2zm-99-2v-5l1 2c-1 1 0 1 1 1l1 2c0 1-3 2-3 0zm55 0l1-2v2l-1 1v-1zm28 0l-1-2c-2 0-2 0-1-1 3-1 4-1 4 1l-1 3-1-1zm176 0l2-5 1 2v3h-3zm63-1c-1-4 0-4 2-2s2 2 0 3c-1 1-2 1-2-1zm-577 0l2-1 1 1-1 1-2-1zm293 0l-1-2c-1-1 0-1 1-1 2 0 2 0 2-2v-1l2 1c2 0 2 2-1 2l-2 2c1 1 0 1-1 2v-1zm172 1c0-1 2-2 3-1l-1 1h-2zm-417-2l1-1h1l-1 2-1-1zm155 1v-2h4l-1 1h-1c0 1-1 2-2 1zm-212-2c1-1 3-2 3 0l-1 1-2-1zm34 0v-1h2c1 1 0 1-1 2l-1-1zm254 0l1-2c3-1 4 0 4 1 0 2-5 2-5 1zm206 0l2-2 1 1-1 2-2-1zm70 0l1-1 1 1-1 1-1-1zm11 0l2-1 1 1-1 1-2-1zm54 0l2-2 1 2-1 1-2-1zm33 0c1-2 4-2 4 0l-2 1-2-1zm-658 0c0-1 2-2 3-1l-1 1h-2zm467 0l1-1h1l-1 1h-1zm20 0l1-1h1l-1 1h-1zm245-1l-2-1h3c2 1 1 2-1 1zm-370-1l1-2c1-1 1 0 1 1l-1 2-1-1zm85 0l1-1 2 1-1 1-2-1zm143 0v-2h7l-2 1-2 1c-1 2-2 1-3 0zm-541-2l1-2 1-1c-1-1 0-2 1-2 2 0 2 2-1 5l-2 3v-3zm13 1l1-1 1 1-1 1-1-1zm19 0l-1-2c-2-1-2-5-1-5l4 2v5l-1 1-1-1zm260 0l1-1 1 1-1 1-1-1zm56 0l1-1 1 1-1 1-1-1zm24 1c0-1 2-2 3-1l-1 1h-2zm148-2c0-3 0-3 3-3h2c1-1 3 0 3 1l-1 1-3 1c-3 3-3 3-4 0zm-565 1h1c1 0 1 0 0 0h-1zm63-2c-1-3 0-4 2-1 2 2 2 2 0 2-1 1-2 0-2-1zm185 1c-2-1-2-2-1-3 1-3 3-3 3 0 0 2 1 3 2 3v1l-4-1zm12 0l1-1 1 1-2 1v-1zm365 0c-4 0-5-3-2-3l1-2 2-3c3-1 6 0 6 1l1 1 1 2v4c1 0 1 0 0 0l-4 1c-1 1-4 0-5-1zm22 0l2-2c3 0 2 2 0 3l-2-1zm-282-1c-1-3-1-4 1-6 2-1 2-2 5-1 2 2 3 4 1 4l-3 2c-1 3-3 3-4 1zm108 0v-4l3 3c0 1-2 2-3 1zm13 0l1-1h1l-1 2-1-1zm92 0c-2-1-2-2-2-3l-1-1v-1l4 2c4 4 3 5-1 3zm-547 0h1c1 0 1 0 0 0h-1zm6-1l2-1 1 1-2 1-1-1zm443-1c-2-3-2-3-1-4s2 0 3 2c1 4 0 5-2 2zm75 1v-2h2l1 2c-1 1-2 2-3 0zm41 0l1-2c2 1 2 3 0 3l-1-1zm9 0c0-1 4-5 6-5 4 0 1 5-3 6l-3-1zm-554-3v-3l1 2v4l-1-3zm200 2l3-2 1 1-2 2-2-1zm129 0c-1-2 1-4 3-4v4c0 2-3 2-3 0zm122 0l-1-2-1-2c1-1 0-2-1-2s-2-1-1-2c1-2 3-2 4 0l2 3c2 0 2 1 0 3-1 3-3 4-2 2zm114 0v-2c1-1 4 1 3 2-1 2-2 2-3 0zm48 1l-1-2h1l1 2h-1zm50-1c0-1 2-2 3-1l-1 2c-1 1-2 0-2-1zm-656-1l2-2h2v1l-1 1-1 1-2-1zm176-2c1-3 1-4 3-4s1 2-1 5-3 3-2-1zm40 2l2-2 2 2-2 1-2-1zm312 0l2-1c1-1 1 0 1 1l-1 1-2-1zm-546-1l1-1 1 1-1 1-1-1zm287 0l2-2 1 2-2 1-1-1zm80 0l1-2c2-1 2 0 2 2-1 2-2 2-3 0zm83 0c-1-2 1-3 2-2 2 1 1 3-1 3l-1-1zm186 0l-1-2c0-2 0-2 2-1l2 2c0 1-2 2-3 1zm-659 0v-3l3 2c2 1 2 1 0 1h-3zm19-1l-1-1c-1-1 0-4 3-4s5 2 3 4-6 3-5 1zm205 1l-1-3c0-1 1-2 3-1h2l1-1 3 1c0 1-3 4-4 3h-1c-1 1-2 2-3 1zm113-1l-1-1-2-1c0-3 3-2 4 1v2l-1-1zm67 0l-3-1-3-2-4-2h-2c-1-2 7-2 8 0l4 1c2-1 3-1 4 1 1 3-3 6-4 3zm43-1l1-4 1 2-1 3-1 1v-2zm133 1h-3c-3 0-3 0-3-4l1-4 1 2 2 1h1l2 3c3 1 3 3 1 3l-2-1zm70 0l1-1 1 1-1 1c-1 0-2 0-1-1zm-193-1l1-1 1 1-1 1-1-1zm84 0c-2 0-5-2-5-3l2-1v-5c1-1 1 0 2 1l4 4c5 2 4 6-3 4zm20 0l-2-1-2-1-1-2-1-1c0-2 2-2 3 0h1l2-1c2 0 2 1 2 4s-1 4-2 2zm7 0l-2-2c0-2 0-2 3-2s4 0 4 2-1 3-5 2zm-144 0h1c1 0 1 0 0 0h-1zm371-1v-1l1 1v1l-1-1zm-801-1c-1-2 0-3 2-2 2 0 2 2 0 3l-2-1zm54-1v-2l2 4c-2 1-3 0-2-2zm6 1l2-1 1 1-1 1-2-1zm265 0h2l-1 1-1-1zm194 0l-3-1c-1 0-1 0 0 0l1-3 2-4 3-2h2c1 1 1 2 2 1s2 0 1 2v3c1 0-1 3-4 4h-4zm85 0l-1-2h4c1 2-1 3-3 2zm189 0l2-1 4 1-3 1-3-1zm-812 0c-1-1 0-3 1-3l1 2c0 1-1 2-2 1zm35-1v-1c2-1 3 0 1 1h-1zm345 0l1-2v2l-1 1v-1zm29 0c-2-1-3-4-1-4s4 2 4 3c0 2 0 3-3 1zm59 0l1-1h1l-1 2-1-1zm239 0l-3-2 3-1c4 0 4 1 4 2 0 2-3 3-4 1zm130 1h1c1 0 1 0 0 0h-1zm-845-2l2-1-2 2v-1zm18 0l1-1 1 1-1 1-1-1zm29 0l1-1c1 0 2 1 0 2l-1-1zm294 0c-2-1-3-3-2-4s4 1 4 2c0 2-1 3-2 2zm121 1l3-2c3-2 5-1 3 1l-6 1zm202-1v-3l1 2v2l-1-1zm90 0c-1-2 0-3 1-2v2h-1zm-685-1c-1-2 1-5 3-5l2-2 3-1c1 1-1 4-2 4l-3 3c-2 2-3 2-3 1zm18 1l-1-3c0-2 0-2 2 0l1 2-2 1zm218-1v-1l2 1-1 1-1-1zm68 0v-3l-1-2c-2-1-1-2 1-2 3 0 3 1 3 2l-1 4c0 3-1 3-2 1zm5 0l2-2 1 2-1 1-2-1zm200-1c0-1 1-2 2-1s1 2-1 3l-1-2zm62 2c-1-2-1-3 1-3l1 1-2 2zm-340-2l1-2 1 2-1 1-1-1zm-294-1l1-1 1 1-1 1-1-1zm70 0l5-5 4-4v5l-1 4h-8zm283 0l-1-1 3-2 2-1c-1 1-1 1 1 1 2-1 3 1 1 3h-1l-2-1v2l-3-1zm40 0v-1l1 1v1l-1-1zm71 0l1-1 1 1-1 1-1-1zm56 1l1-1h1l-1 1h-1zm86-2c-1-1-2-2-1-3l3 4-2-1zm23 1c-2-1-3-4 0-3 1 0 2 0 2-2 1-3 3-3 5-1 1 2 1 2-1 1-2 0-3 0-2 2 0 3-2 4-4 3zm20 0c-1-1 0-3 2-2l1 1-3 1zm-639-2c1-4 3-5 3-1 0 2-1 3-2 3l-1-2zm13 0l-2-4c-3-1-1-3 3-3 3 1 4 1 3 3l-1 2-1 2-1 2-1-2zm11 2c0-4 6-6 9-4 2 1 2 1-3 2l-5 1-1 1zm345 0c0-2 4-5 6-4l1 2c0 2-3 2-4 1h-2l-1 1zm145 0c-1-2-1-3 1-3l1 2c0 1-1 2-2 1zm5-1l1-2c2 1 2 3 0 3l-1-1zm65-1c0-2-1-2-2-1-2 2-5 1-4-1l-2-4c-2-2-1-4 2-3l2-1c-1-2 0-2 3-1l4 2c1 0 2 0 2 4l-2 4-1 2-1 1c-1 0-2 0-1-2zm4-4l-2-2c-3-2-3-2-2 0l4 2zm-544 4l2-1-2 2v-1zm284 1c0-2 3-4 5-3l1-1c0-2 2-1 2 1s0 2-3 1c-2-1-2-1-3 1l-2 1zm25-1l1-1 1 1-1 1-1-1zm219 0v-1-2-2c1-1 2 0 3 3l-1 3-2-1zm55 1l1-3c0-2 1-2 3-1 2 2 0 4-3 4h-1zm-632-2l1-1 1 1-1 1c-1 0-2 0-1-1zm23 0c1-2 2-2 4-2s3 0 2 1l-1 1-3 1-2-1zm320 0v-1l2 1h-2zm69 0l2-2 2 2-2 1-2-1zm74-1l1-2v-3c-1-1 0-6 1-5s5-3 5-5 1-2 2-1h3l1 3c0 2 0 2-2 1h-3c-2 1-2 2-1 2l1 2 2 2c1 0 2 2 0 2s-3 0-3 2l-1 1-2 1-2 1c-2 1-2 1-2-1zm7-6l-1-1-1 1 1 1 1-1zm126 7l1-1 1 1-1 1-1-1zm208 1h1c1 0 1 0 0 0h-1zm-346-3v-3c1-1 1-1 1 1l1 2 1 1c-1 2-2 1-3-1zm16 1l1-1 1 1-1 1c-1 0-2 0-1-1zm4 0v-2h2l3 1c0 1-1 2-3 2l-2-1zm145 0v-1l1 1v1l-1-1zm13 0c-2 0-2-6 0-7l1 1 2 1 1 1-2 1c-2 0-2 0-1 2 1 1 0 2-1 1zm-184 0c-1-1-1-4 1-5s2-1 3 2c0 3-1 4-4 3zm49-1v-1l1 1v1l-1-1zm5-2c1-2 0-2-2-2l-1-1 3-1 4-1h2l2 1 1 1c-3 6-3 6-6 6-2 0-3-1-3-3zm-533 1l1-2c2-1 2-1 2 1s-2 3-3 1zm412-2c2-3 4-4 3-1l-1 2-2 1v-2zm9 2c-2-1-2-1 0-1 2-1 3 0 2 1h-2zm24 0l1-1h1l-1 2-1-1zm198 0l2-2 1 2-1 1-2-1zm47 0c-1-1 1-2 2-1 1 0 1 2-1 2l-1-1zm-705-1c-1-1 1-3 2-2 2 1 1 3 0 3l-2-1zm6 0l1-2 1 2-1 1-1-1zm377 0l1-2c2 1 2 3 0 3l-1-1zm105 0c-1-3 0-3 2-2v2h-2zm205 0l1-1 1 1-1 1-1-1zm-664-1l1-1 1 1-1 1-1-1zm25-1c-1-2-1-2 2-5s4-3 6 1c1 3 1 3 5 2 3 0 4 0 5 2 2 3 1 3-3 0h-2c1 1 0 2-2 2s-3-1-2-2l-3-2c-4-1-4 0-4 3 0 2 0 2-2-1zm3 1l1-1 1 1-1 1-1-1zm446 0l1-1 1 1-1 1-1-1zm165 0c0-2 3-3 4-1 2 2 1 3-1 1h-2-1zm-645-1l1-1h1l-1 2-1-1zm61 1v-2l2 1c0 1-1 2-2 1zm305 0c-1-2-1-3 1-3l1 1-2 2zm55-1l-3-1v-1c3-2 8-1 8 1s-3 3-5 1zm198 0l-1-2-1-2 1-2c2 0 5 4 5 6l-2 1-2-1zm-286-1l2-1 1 1-2 1-1-1zm296 0h-1c-1 1-1 0-1-1l2-1 3 1c-1 2-3 3-3 1zm211 0c-1-1-1-1 1-1l3 1h-4zm-817 0l-1-2c0-2 3-2 3-1 1 1-1 3-2 3zm445-1l1-1 1 1-1 1-1-1zm7 0c0-1 3-2 4-1l-1 1h-3zm346 0c-2-2-1-3 3-3s11 2 11 3h-14zm-827 0c-2-1-1-4 1-4s2 1 2 2c0 2-2 2-3 2zm21-1l1-2 1 2-1 1-1-1zm394 0c-2-2-1-4 2-4 1 0 2-1 1-2l2-1 1 4-1 3-2 1-3-1zm23 0l2-1c2 1 1 2-1 2l-1-1zm8 0l2-2 1 2-1 1-2-1zm204 0c-1-1 0-8 1-8 1-1 1 0 2 1l2 2c2 0 2 3-1 4-2 2-3 3-4 1zm106 1v-2l2 1c0 1-1 2-2 1zm-63-2l2-2c2-1 2-1 2 1 0 1 0 2-2 2l-2-1zm-686-1l1-2v2h-1zm10-1c0-3 0-3 2-2 3 1 2 3 0 4-1 0-2 0-2-2zm499 1l-2-2c-2 0-2-1-1-2 2-1 6 3 4 4h-1zm245-1c2-3 6-4 7-1 0 2 0 2-5 3h-4l2-2zm-767 0l1-1 1 1-1 1c-1 0-2 0-1-1zm430-1c0-2 0-3-2-3-3-1-5-4-2-4l2 1h2l1 2c0 2 0 2 1 1v1l-1 3v1l-1-2zm5 1l2-2 1 2-1 1-2-1zm6 0v-1h2c1 1 0 1-1 2l-1-1zm17 0c-2-1-2-1-1-2h2l4 1c2 0 1 1 1 1h-6zm176 1l-2-2-2-2c-1-2 1-5 3-4l1-1h2l2-1 1-1c1-1 1 0 1 1v2c1 1 1 1-1 2l-1 2-2 3-2 1zm32-1v-4c-1-1 1-1 2 1l-1 3c-1 2-1 2-1 0zm-627-1l-1-2 2-1c1-2 2-1 2 1 1 3-1 4-3 2zm407 0v-3c0-3 5 0 4 2 0 2-4 3-4 1zm21-1v-2l2 4c-2 1-2 0-2-2zm203 1v-2l1-1v4l-1-1zm8 0l2-1c2-1 3-1 1 1-1 1-3 2-3 0zm17 0l1-1 2 1-1 1-2-1zm44 0l2-1 1 1-1 1-2-1zm-686-2l1-1 1 1-1 1-1-1zm621 0c-1-1 0-5 1-5l4 5h-5zm-667-1l1-1 2 1-1 1-2-1zm18 0v-1l2 1h-2zm429 0c-1-1-1-2-2-1v-2l2-2h6c2 2 3 6 1 6l-1-3c-1-3-3-3-4 1-1 2-2 2-2 1zm230 0c-2-4 0-5 2-1v2l-2-1zm-655-1v-1l1 1v1l-1-1zm703 0c-2 0-3-2-1-3h2c2 2 1 4-1 3zm-61 0c-1-1 0-3 1-3l1 2c0 1-1 2-2 1zm20 0v-3l2 2v1h-2zm51 0v-2l2 1c0 1-1 2-2 1zm-724-3c0-2 0-3-1-2l-1-1 1-2h2l2 3c2 1 2 1 1 2-3 3-4 3-4 0zm500 2c-2-1-1-3 2-3l2 2-4 1zm6-1v-1l1 1v1l-1-1zm-525-1c-1-1 0-1 3-2 4-1 4 1 1 2h-4zm669 0v-1c2-1 3 0 1 1h-1zm85 0l2-2 2-1v-2c2 0 1 3 0 5-2 2-4 2-4 0zm-310-1v-1l2 1-1 1-1-1zm278 0c0-1 1-2 2-1l1 1-1 1-2-1zm-725-3l2-2c2 0 2 0 1 2l-2 2-1-2zm452 2l-1-2h1l1 2h-1zm248-1l1-1 1 1-1 1-1-1zm-683-1v-2c-1-1 0-2 1-2 2 0 2 1 1 4h-2zm481 0l1-1 1 1-1 1c-1 0-2 0-1-1zm168-2l4-3c3 0 3 0 3 2-1 1-1 2-2 1l-1 2-2 1c-2 0-2 0-2-3zm-209 2h1c1 0 1 0 0 0h-1zm218-1v-1l1 1v1l-1-1zm13 0l1-2 1-1 1-2 1 1h1c2-1 3-1 3 1l-1 2h-1l-3 2-3-1zm21 1c0-2 3-5 4-5l1-1c-1-1-1-1 0 0 1 0 1 3-1 5l-4 1zm-699-3l1-1c1-1 3 0 1 2l-2-1zm488-1c0-1 1-2 2-1l1 1-1 1h-1c0 1-1 1-1-1zm22 1c-1-2 2-6 3-5v3c-2 4-3 4-3 2zm284 0h2c2 1 2 1 0 1l-2-1zM7 306v-1c3-1 5 0 5 1H7zm753 0v-4c2-2 2-3 0-2s-4-2-2-4c1-2 1-2 2 0h2c2-2 2-2 3-1l2 2 1 3c2 1 2 2 2 3l-2 1c-2-2-7 0-7 2h-1zm72 1c-2-1-1-4 1-4l2 2c0 2 0 2-3 2zm-784-2l2-1 2 1-2 1-2-1zm25 0l1-1 1 1-1 1-1-1zm682 0c1-1 0-2-1-4-2-2-1-3 2-1 2 1 2 5 0 6l-1-1zm30 0v-1l2 1-1 1-1-1zm-725-1l1-1c3 0 3 1 1 1h-2zm712 0c-1-1-1-1 0 0l3-2c3-2 5-2 5 0s0 2-3 2l-3 1-2-1zm-29-2c1-1 2-2 3-1 2 1 1 3-2 3h-3l2-2zm56 0l1-1 2 1-1 1-2-1zm21-1v-1l1 1v1l-1-1zm48 1c-1-1 1-5 2-4l1 1 1 1v1l-4 1zm-805-2l-2-2c-2-1-2-1 0-2l5-1c2 0 2 1 2 3s-1 3-3 3-3 0-2-1zm831 0l1-1 2 1-1 1-2-1zm-864-1c-1-2-1-3 1-3s4 2 4 3c0 2-3 1-5 0zm749-1l1-1-1 2v-1zm15-2l2-2 1 1-1 2c-2 1-2 1-2-1zm27 0l1-2c1-1 4 1 3 2-1 2-4 1-4 0zm61 0l1-1 1 1-1 1-1-1zm-856-3c-1-1-1-3 1-3l1 2v1h-2zm742-1c-2-2-2-2 0-3s4 0 4 2c0 3-1 3-4 1zm38 0c-2-3 1-4 6-3l5-1c1-1 1-1 2 1s1 2-4 2l-6 2-3-1zm-10-1l2-2c2 1 2 3-1 3-1 0-2 0-1-1zm68 0c-3-1-4-5-2-7l5-2c3-1 3-1 6 3l3 3-3 2c-2 2-6 3-9 1zm-92-4c-1-1 0-2 1-1v2l-1-1zm13 1v-2l2 1c0 1-1 2-2 1zm4-1l1-1 1 1-1 1-1-1zm39-1l-3-4c-1-2-2-3-4-3l-2-1-2-3c-3-2-3-2-2 1 1 2 1 2-2 1-4 0-6-2-5-4 1-1 3-2 4-1 3 0 3-1 0-2-2-1-2-1 0-2s2-5 0-5l-2-1c0-2 3-4 6-4l4-2 4-3c2 1 3 0 4-2l2-2 2-3 4-3c2 0 2 1 1 5v4l1 1v2l1 1c-1 2 1 7 2 7 1-1 7 1 7 2l-3 2c-4 0-6 2-6 5 0 1 0 2-2 2l-3 3c0 2-2 3-3 3l-2 1c-1 1-1 2 1 4 2 3 1 4-2 1zm-767-1l1-1c3 0 3-8 0-10-2-1 1-2 4-1 2 0 3 1 3 3 1 4-1 8-3 7-2 0-2 0-1 2 0 2 0 2-2 2l-2-2zm18 1h2l1 1h-1l-2-1zm804 0l2-1 1 1-1 1-2-1zm-92-1c-2-2-1-4 2-6 3-1 3-1 4 4 0 3 0 3-2 3l-4-1zm55 0v-2c1-1 5 1 4 2-1 2-4 1-4 0zm-812-1c-1-1 2-3 3-2 2 1 1 3-1 3l-2-1zm39 0l2-1h2c-1 2-4 3-4 1zm725 1l1-1h1l-1 1h-1zm103 0h1-1zm-860-2c1-1 2-2 3 0l-1 1-2-1zm736 1c-1-3-1-5 1-5l1 1c-1 1 0 1 0 0 2-2 4-3 6-1v3h-3-2c-1 2-3 3-3 2zm97-1l1-1h1l-1 1h-1zm7-1l2-1 1 1-1 1-2-1zm-810-2l1-1 1-2 8-1-1 1-3 1-2 1-2 1-1 1-1-1zm-22-1c0-2 1-3 3-2s2 3-1 3l-2-1zm740 0c0-2 2-6 4-6s4 3 2 4l-6 2zm77-1c-1-2 1-3 2-2 2 1 1 3-1 3l-1-1zm-833-2v-1l3 1c0 2-2 2-3 0zm840 0c-1-1 1-2 2-1 1 0 1 2-1 2l-1-1zm-89-1l1-2 1 2-1 1-1-1zm14 1l1-1h1l-1 1h-1zm46-1c-3-2-2-5 1-6 3 0 5 3 3 4l-1 2h-3zm-807-1l1-1 2 1-1 1-2-1zm14 1l-1-2h2l1-1v-1c2 1 2 3 1 4h-3zm29-6l2-1h2l-2 1h-2zm-16 0c-1-2-1-3 1-3l1 1-2 2zm-9-1l1-1h1l-1 1h-1zm-19-3l1-1h1l-1 2-1-1zm4-2l1-1c2 0 2 2 0 3l-1-2zm32-2v-4c2-1 4 1 4 3-1 1-3 2-4 1zm782-1l2-1 1 1-2 1c-1 0-2 0-1-1zm5-1l2-1 1 1-1 1-2-1zm-814-3v-3c1-1 2-1 1 1l1 1 1 1c0 2-2 1-3 0zm32-1v-1l1 1h-1zm4 0l2-1-1 2c-2 0-2 0-1-1zm-15-1l1-3c1-2 1-2 3 0s2 2 0 3h-4zm736 0c-2-2-2-2 0-2l1-3c0-2 1-3 4-2 2 1 2 1 1 3l-1 2c1 1 0 2-1 3l-4-1zm-768-1v-2c-1-2 2-3 4-1s1 4-1 4l-3-1zm19-1l2-2v1l-2 2v-1zm34 0l1-1a1 1 0 0 1 0 2l-1-1zm727-1l-2-3-1-3c-1 0-1-1 1-2 2 0 2-1 1-1l-3 1c-2 2-3 2-4-1 0-2 0-2-3 1s-4 3-3 1l-1-2c-1 0-2-1-2-3 0-1 0-2 1-1l1-1c0-1 5-1 6 1s6 1 7-2c0-2 4-4 5-2l-1 2-1 2c0 2 1 2 3 0 2 0 3-2 4-3l2-1c2 0 2 3 1 5l-1 3-1 2c-1 1-2 1-2 3l-2 3-3 1c0 2-2 1-2 0zm-775-1h5l-2 1-3-1zm43-1l-2-3c-1-2-1-2 1-2l4 2c1 1 2 2 3 1l1 1-4 2-3-1zm-52-3l1-1c1 0 2 1 0 2l-1-1zm840 0c-1-1 1-3 3-3l3 3c-2 2-6 1-6 0zm-797-2c0-2 1-2 1-1v3l-1-2zm786-1l3-2c3 0 3 0 2 2-2 3-5 3-5 0zm-780-1v-1l1 1v1l-1-1zm766 0h-2c-2 0-2-2-1-3s3-1 5 1c2 1 2 2 1 2h-3zm-13-1v-3l3-2v2h1c3-2 3-2 3 0 0 1 0 2-2 2l-2 1h-3zm-758 0l1-1h1l-1 1h-1zm7-2c-2-4-3-6-5-7l-2-1c0-2 2-2 3 0l3 2 4 3c2 2 3 4 1 3l-1 1c-1 2-3 2-3-1zm-21 0h1c2 1 3 1 1 1l-2-1zm732 0l-2-2-2-2h3l4-2h3l-2 3c-2 3-6 5-4 3zm-729-2l1-1 1 1-1 1-1-1zm771-4c-3-2-2-5 2-5 2 0 2 0 2 3 0 4-2 5-4 2zm-763 0v-1l2 1h-2zm768 0l2-2 1 1c-1 2-3 3-3 1zm15-1h1l1 2-2-2zm-774-1l-1-2v-2l2-1v1c-1 1-1 1 1 1l2-1 1-1v-1c-2-3 1-3 3-1l3 2h1c0 1-1 2-2 1l-7 3-3 1zm800-1l-1-2c-2 0-1-2 1-2 3-1 3-1 3 3l-3 2v-1zm-79-1c-1-1 0-3 1-2 2 0 2 3 0 3l-1-1zm20 1c-2-1-2-3-1-4s4 2 4 3l-3 1zm-29-2l-2-1h3c2 1 1 2-1 1zm13 0l2-1h1c0 2-3 3-3 1zm-747-1c-1-2-1-3 1-3l2 1c0 2-2 2-3 2zm752 0l-4-1-2-1 1-1 3-2c2-1 3-1 4 1 1 1-1 5-2 4zm23 0l-2-2c0-2 2-2 3 0l2 1h2l-5 1zm14-2c-2 0-3-2-1-4h4l2 2c0 1-3 3-5 2zm-771-2l1-1 1 1-1 1-1-1zm745 0c1-2 4-2 4 0h-1-1l-1 1-1-1zm40 0c-2-1-2-5 0-6l1 3 1 2 1 1c0 1-2 2-3 0zm-66-3l1-4 1-1 1-1h2l-1 1v2l-1 3-1 2-1 1c-2 0-2 0-1-3zm-739 1l2-2 3-1c1-1 3 0 3 2s-1 2-1 1h-2l-2 1-3-1zm779 0l1-2 1 1-1 2c-1 1-1 0-1-1zm-763-1l3-4c2-2 2-2 3 0l-1 3c-1 2-5 3-5 1zm10 0c-1-2-1-3 1-2l1 2h-2zm724 1l1-2c0-1 1-2 2-1v2l-3 1c-1 0-1 0 0 0zm7-1l2-2 1 1-2 2-1-1zm-714-1l1-1 1 1-1 1-1-1zm-16-3l1-3h1l1 2 1 1c-1 2-4 1-4 0zm7 0l1-2c2-1 2-1 1 1 0 2-1 3-2 1zm-49-1l-1-1c-1 0-2-1-1-2l1-1c3 0 5 3 4 4s-3 2-3 0zm763 0c-1-1-1-1 3-1 3-1 3 0 2 1s-4 2-5 0zm14 0l1-1 1 1-1 1-1-1zm-717-1c-1-2-1-3 1-2l1 2h-2zm-15-1l1-1 1 1-1 1-1-1zm-3-4l1-1 2 1-1 1-2-1zm763-1v-3l1 1-1 3v-1zm6 0c1-2 3-2 3 0l-1 1-2-1zm-767-2c-1-1-1-2 1-2l2 1c0 2-1 2-3 1zm-9-1c0-1 2-2 3-1l-1 2c-1 1-2 0-2-1zm736 0l2-1 1 1-2 1-1-1zm-40-3l-2-2-2-1 2-1 3-2 3-2c2 0 2 1 1 1l-1 3-2 4-2 3v-3zm36 1a1 1 0 0 1 2 0l-1 1-1-1zm-720-2h1c1 0 2 1 0 1l-1-1zm-17-3l1-1 1 1-1 1-1-1zm-24-1v-5c2 0 4 3 4 4-1 2-2 2-4 1zm42 0l-3-3c-4-2-4-2-2-5 1-2 2-2 2-1 1 2 5 2 5 1 1-1 5 1 5 3s-3 5-4 3h-1l-1 2v1l-1-1zm668 0v-1l1 1v1l-1-1zm35 0l2-1 1 1-2 1c-1 0-2 0-1-1zm-688-1v-1l1 1c-1 2-1 1-1 0zm731-1a1 1 0 0 1 2 0l-1 1-1-1zm23 0l1-1 1 1-1 1-1-1zm-86-4c-3-2-2-2 2 0l3-2c2-2 2-2 1-3s0-1 2-1v-1c-1-1 0-2 1-2l2 4-1 1-1 2c0 1 0 2-2 3-4 2-4 1-7-1zm11 0l2-2-1 2-1 1v-1zm8 0a1 1 0 0 1 2 0l-1 1-1-1zm23-1l-1-2c0-1 1-2 2-1h2v2c0 1-2 2-3 1zm9-1c-1-3 0-3 1-1v2l-1-1zm-34 0l-1-3c0-1 1-2 3-1l2 2c0 2-3 3-4 2zm-716-3v-3l1 1v3l-1-1zm700 0h1c1 0 2 1 0 1l-1-1zm23 0l1-1h1l-1 1h-1zm57-3l3-1-4 3 1-2zm-719 0l1-2v2h-1zm-53-1l-1-4c1-3 1-3 2-1l1 3c1 2-1 4-2 2zm761-1l3-2c1 1-1 3-3 3v-1zm-82-2c-2-2-3-4 0-3l1-1v-1l1 1 2 1c1-1 1-1 1 1 0 3-2 4-5 2zm24 0l1-1h1l2 1h1c-1 1-5 2-5 0zm8 0l1-1 1 1-1 1c-1 0-2 0-1-1zm6-2l2-2c2 0 1 1-1 3-1 1-1 1-1-1zm-710 0l-1-4c-1-3 0-3 2-3 2 1 3 5 1 5v2h-2zm4 0c0-2 4-2 4-1l-2 1h-2zm46 0v-4l1 5-1-1zm628 0l3-3 1 2-2 2-2-1zm52 0l2-2c1 1-1 3-2 3v-1zm-761-1v-1l1 1v1l-1-1zm93 0l-1-1c-2 1-6-2-6-4l-1-2c-2-2-2-5 0-5l2 2c1 3 2 2 2-1 0-5 2-5 3 0 2 5 1 7 0 7-2-1-3 0-2 2h2c2 0 3 3 2 3l-1-1zm656 0v-1l1 1v1l-1-1zm-666 0l1-1h1l-1 1h-1zm-58-2c-1-3 0-5 1-5l1 2v4l-2-1zm-5-1l1-1 1 1-1 1-1-1zm23 0v-1l1 1v1l-1-1zm-6-2v-1l1-3 2-3h1l-1 2-1 3c0 2 0 2 1 0l1-1c0 3 3 2 3-1 0-2 0-2 1-1 2 3 0 5-2 5l-4 1-2-1zm42 0c-1-1 0-3 1-3l1 2c0 1-1 2-2 1zm611-1l1-1 2 1-1 1-2-1zm15 0c-1-1 0-2 6-2 4-1 4-1 3 1-2 1-8 3-9 1zm14 0c-1-1 2-4 3-4 2 0 1 4 0 5l-3-1zm-667-2c0-2 1-2 3-2 3 1 3 0 0-5-1-2 0-3 4 0 3 2 4 2 4-1 0-2 1-2 4 0 2 2 1 5-2 5l-2 2c-1 2-1 2-4 2h-5c-2 1-2 1-2-1zm13 1v-2h2c1-1 1 0 1 1 0 2-3 3-3 1zm-32-1l1-1 1 1-1 1-1-1zm663-1l1-3 1-1c0-1 2-3 4-3l-1 3-2 3-2 1c0 3-2 3-1 0zm-684 0l1-1 1 1-1 1-1-1zm8 0l1-1 1 1-1 1-1-1zm82-1v-2c1 0 2 1 1 2h-1zm16 0l2-1 1 1-1 1-2-1zm-43 0c-1-3 0-4 1-3 1 0 2 3 0 3h-1zm629 0c-1-2 0-3 2-2l1 1-3 1zm33-1l2-2 1 2c-1 1-3 2-3 0zm-709-1v-1h2l-1 2c-1 1-1 0-1-1zm607-1l2-1c1 0 1 1-1 2l-1-1zm96 0l1-1 1 1-2 1v-1zm-696-1v-4c0-1 0-2-1-1l-2-1 1-1 1-1c-1-1 0-2 1-2s2 1 3 5c2 5 0 8-3 5zm78 1l-1-2-2-3c-2-1-2-1 0-3s3-2 3-1l2 8-2 1zm599 0l1-1h1l-1 1h-1zm-636-2l1-1 2 1c0 2-3 1-3 0zm6 0c-1-1-2-2-1-4 0-3 3-4 3-1-1 1 0 1 1 1v1c-3 2-3 2-1 3l1 1-3-1zm17-1l-2-3-1-4c-2-1-2-4-1-4l2 3c0 2 1 2 2 1s3 0 3 4v4l-3-1zm628-3v-3l1-1 1 2 1 1c2 1 0 3-1 3l-2-2zm-680 1v-2l-2-3-1-1c1-1 2 0 3 2s2 3 1 4h-1zm42-1l1-2 1 2-1 1-1-1zm25 0l1-2c2 1 2 3 0 3l-1-1zm20 0c-1-1 1-2 2 0v1l-2-1zm548 0l1-1h1l-1 2c-1 1-1 0-1-1zm-604-1l1-1 1 1-1 1-1-1zm620 0l3-2h4l-2 2c-2 1-6 2-5 0zm73 0h-1c-1 1-1 0-1-1h3v2l-1-1zm-744-2c-1-3-1-3 1-1s3 3 1 3l-2-2zm661 1l3-2c1 0 1 2-1 2l-2 1v-1zm30 0l1-1h1l-1 2c-1 1-1 0-1-1zm17 0l2-1 1 1-2 1c-1 0-2 0-1-1zm-723-3c-2-3-2-4 0-4s5 4 3 5c-1 2-2 1-3-1zm105 2c-1-2-1-4 1-4 1 0 2 1 0 3l-1 1zm-67-2v-4c1-1 4 3 2 4h-2zm27 1c-1-1 0-5 2-5l2 4c0 1-3 2-4 1zm26-1l-3-2v-2-5c0-2 2-2 4 2v3l-1 1 2 1 2 2-1 1-3-1zm538 0l2-1 1 1-1 1-2-1zm-576-1l-1-2-2-1 1-2 1 1 2 1c2 0 2 1 2 2-1 3-3 3-3 1zm20 0l1-1 1 1c-1 2-2 1-2 0zm48 1c0-1 5-6 6-5l-1 2-2 2-1 1h-2zm580-2l3-1c1 0-2 3-4 3l1-2zm15 2l2-3h1l-1 2-2 1zm-570-2h-2l1-7c3-4 4-3 3 2 0 6-1 7-2 5zm-67-2c-1-1-2-2-1-3 1-2 2-2 3 1s0 4-2 2zm102 0v-1c2 0 2-1 2-2 0-2 1-2 2-1l3 3c1 2 1 2-1 1h-4-2zm442 1v-2l-1-3c-2-3-2-3 0-3s3-1 4-3 1-2 1 2l-1 3h-1c-1 1 0 2 1 2 3 0 4 3 2 3l-3 1h-2zm38-1c-1-1 1-5 2-5l1 1v2l1 2c0 1-3 2-4 0zm25-1c-1-3-1-5 1-5v3c-1 2 0 2 1 2l1 1c0 2-1 1-3-1zm7 1l2-1 1 1-2 1s-2 0-1-1zm-599-1l2-2c2 0 1 2-1 3l-1-1zm28-2c0-2 0-2-1-1-2 1-2 1 0-1 1-2 2-2 3 0v2l-2 1v-1zm529 2v-3-2h-1-2c-1 0-2-2-1-3l1-2c-2 0 1-4 3-4 1-1 2 0 3 1 0 2 0 2 1 1h1l-1 1c-2 2-1 3 1 3l4-3c1-2 1-2 1 1 1 3-1 5-3 3h-2l-2 1-1 1 1 1c2 0 1 3 0 4h-3zm-666-1v-1l1 1v1l-1-1zm21 0l1-1 1 1-1 1-1-1zm57 0l2-1c2 0 2 0 1 1h-3zm635-1c0-2 2-3 4-1l-3 3-1-2zm21 1a1 1 0 0 1 2 0l-1 1-1-1zm-644-1v-1l1 1v1l-1-1zm220-1c-1-2 0-5 1-3v5l-1-2zm412 1l2-1c2 0 2 0 0 1h-2zm-606-1v-1c1-1 1 0 1 1s0 2-1 0zm49 0l1-2h2l-3 2zm554 0l1-1 1-1v-1c2 0 1 2 0 3h-2zm22 0l2-2 1 2-1 1-2-1zm-593-4v-3l-3-3-1-1 3-1c0-1 2 0 2 2l1 2c2-2 2 2 0 4s-2 2-2 0zm156 1c-2 0-2 0-1-1s2-3 1-5l1-2h3c1-1 2-1 2 1l2 1 1 1 1 1h-3c-2-1-3-1-2 2 0 3-1 3-5 2zm403-1l1-1 1 1-1 1c-1 0-2 0-1-1zm-630-1c0-2 1-2 2-1l-1 2c-1 1-1 0-1-1zm100 0l-1-2 3 2c0 2-1 1-2 0zm503 0l2-2 1 1-1 2-2-1zm-498-1l1-1 2 1-1 1-2-1zm42 0l-1-3c-2-2-4-6-2-5l1 2c0 2 2 2 2 0v-2-1c-1 0-2-1-1-2l1-2c1 0 3 5 2 6l-2 2c0 1 0 2 2 1l-1 3c0 2-1 2-1 1zm434 0l2-1 1 1-2 1-1-1zm-655-1v-2l1 2v1l-1-1zm105-1l1-2 1 2 1 1c0 1 1 1-1 1-1 0-2 0-2-2zm59 1l-1-2c1-1 1 0 2 1 2 2 1 2-1 1zm34 0v-1l1 1v1l-1-1zm4-1c0-2 0-2 1-1v2c0 1-1 1-1-1zm94 1l1-1 1 1-1 1-1-1zm163-3c0-4 1-5 4-2h2v1c0 1-3 3-4 2v1l-1 2-1-4zm6 3v-1h2c1 1 0 1-1 2s-1 0-1-1zm-366-1c0-2 0-2-2-1-2 0-2 0 1-3l4-4v-1c0-2 1-2 2-1h2l-2 3-3 1-1 1 2 2c1 1 0 4-2 4l-1-1zm32 0c-1-2 1-5 3-4v3c-1 3-3 3-3 1zm21 0c-1-3 1-4 3-2l1 2c-1 2-4 1-4 0zm298 0l-1-1c0-1 1-2 2-1h3l1 1c0 1-3 2-5 1zm-323-1l1-1 1 1-1 1-1-1zm170 0l-1-1c1-1 1 0 2 1 2 1 1 2-1 0zm15 0c-1 0-1-1 1-1 3-1 4 0 3 1h-4zm128 0l-1-1h2l1 2-2-1zm-200-2v-2c1 0 2 3 0 4v-2zm156 2l1-1h1l-1 1h-1zm233-2c1-1 0-1-1-1v-2l2-1 2-1c2-1 1 0 0 4-2 4-3 4-3 1zm40 1a1 1 0 0 1 2 0l-1 1-1-1zm12 1l1-1h1l-1 1h-1zm-467-3c0-2 2-3 2 0l-1 1c-1 1-1 0-1-1zm95 0v-9l1 3 1 4 1 1c-1-1-2 0-2 1 0 3-1 2-1 0zm411 2l1-1h1l-1 1h-1zm-638-2c0-1 3-2 5 0 2 1 2 1-1 1l-4-1zm35-1c-1-2 0-3 2-1s2 2 1 3l-3-2zm86 1v-2c1-1 3 1 1 2h-1zm127 0v-1l1 2-1-1zm312 0l-1-1 3 1c2 1 1 2-2 0zm74 1c-1-2-1-4 1-4l1 2c0 2-1 3-2 2zm-288-2l1-1h1l-1 2c-1 1-1 0-1-1zm11 0l1-1h1c-1 2-2 3-2 1zm7 0c-2-2-2-5-1-5h2c1-1 2-2 3-1s0 0 0-1l-1-2c-1-1-1-1 1-1l1 1 1 3c0 2 0 2-2 1-2 0-2 0 0 2 3 3 2 5-1 3h-1l-1 1-1-1zm20-1c0-1 3-4 5-4v5c-2 2-5 1-5-1zm12 1v-1l1 1v1l-1-1zm38 0l1-2v2h-1zm-392-1v-4c0-2 0-2 2 0 2 1 1 5-1 5-1 0-2 0-1-1zm35 0c-1-2-1-5 1-6l3-2h1c1 1-1 7-3 9l-2-1zm228 0v-3l2-1c2 0 1 3-1 4h-1zm8 0h1c2 1 3 1 1 1l-2-1zm-341-1l-2-1v-2c2-2 4-1 4 2l-1 2c-1 0-2 0-1-1zm32 0l1-2c2 1 3 3 1 3l-2-1zm109 0l1-1h1l-1 2c-1 1-1 0-1-1zm239 1c-1-2-1-3 1-3h2l-3 3zm254-1c1-2 4-3 5-2l-1 1h-1l-2 2c-1 0-2 0-1-1zm-652-1v-1l1 1v1l-1-1zm108 0c0-2 1-2 2-1l-1 2c-1 1-1 0-1-1zm137-1v-1l3 1c0-1 0-1 0 0 0 2-2 2-3 0zm115 1v-1l2 1h-2zm57 0c-1-1 1-3 2-2v2h-2zm8 0l2-2 1 1c-1 2-3 3-3 1zm131 0v-1l1 1v1l-1-1zm-423 0c-1-1 2-5 4-5 1 0 2 1 0 3-1 2-3 3-4 2zm34-1l1-1 1 1-1 1-1-1zm83 0v-2h1l2-1 1 1-1 1h-1l1 2h-1l-2-1zm193 0l3-7c2 0 3 6 2 7-2 2-5 1-5 0zm156 1c0-2 3-3 4-3s2 0 2-2l2-2v2 2l1 1c0 1-1 2-4 2h-5zm24-1l1-1 1 1-1 1c-1 1-1 0-1-1zm21 0l1-1 1 1-1 1c-1 1-1 0-1-1zm-482-1l1-2 1 2-1 1-1-1zm193 0l2-1 1 1-1 1-2-1zm84 0v-3c-2-2-1-7 1-7v1 4c1 3 1 4-1 5-1 2-1 2 0 0zm15 0c2-2 4-2 3-1l-2 2c-2 0-2 0-1-1zm25 0l1-1 1 1-1 1c-1 1-1 0-1-1zm89 0l1-2v2h-1zm59 0l1-2c2-1 2-1 2 1 0 1-1 2-3 1zm45 0l1-1h1l-1 2c-1 1-1 0-1-1zm-601-3l1-3c1-1 1 0 1 1v3h1c-1 3-3 2-3-1zm5 2v-2-2l1 2c-1 1 0 1 1 1l1 1c-1 1-3 2-3 0zm36 0l1-3c2-1 2-1 2 1 0 3-2 4-3 2zm91-1l1-3c2 0 2 2 1 3v1l-1 1c-1 0-2-1-1-2zm74 1c-1-1 0-3 1-1l2 1h2c-1 2-5 1-5 0zm68-1c0-2 2-3 3-1s0 3-1 3l-2-2zm18 1a1 1 0 0 1 2 0l-1 1-1-1zm17 0l1-2v2l-1 1v-1zm93-3c-1-3-1-3-2-1l-3 2c-2 0-2 0 1-4 4-3 5-4 6-1 1 2 1 2 2-1s2-4 3-3c2 1 2 5-1 6-2 0-2 0-1 1l1 1-2 2c-1 4-4 3-4-2zm3 0l-2-1v2c2 1 3 1 2-1zm-2-5c-1-1-2 1-1 2h1v-2zm-466 7l1-1c2 0 2 2 0 2l-1-1zm252-2v-3l1 1c1 1 2 2 3 0h2l-3 3-4 2 1-3zm40 3l2-1h1l-1 1h-2zm8-1v-1l1 1c0 1 0 2-1 0zm11 1c-1-2 1-4 2-4l-1 3-1 1zm207-2c1-3 2-4 2-1v2h-2v-1zm-481-1c0-2 2-3 3-1s1 3-2 3l-1-2zm362 1v-2 1h2c0 2-1 3-2 1zm191-1c-1-2 0-4 1-4l1 1v2c1 1 1 3-1 3l-1-2zm-576 0l-1-3 1 1 1 3-1-1zm169 0l1-1 1 1-1 1c-1 1-1 0-1-1zm64 0l1-1 1 1-1 1-1-1zm15 0v-1l1 1v1l-1-1zm13 0l1-1 1 1-2 1v-1zm56 0a1 1 0 0 1 2 0l-1 1-1-1zm60-1l2-1c2 0 1 2-2 2-2 1-2 1 0-1zm104-2l1-5-1-2-1-1c1-1 5 3 5 5v1l1-2c-1-10-1-10 1-11l2-2v-1l1 3v2h2l2 2c-1 1 0 2 1 4s1 2-2 2c-2 0-3 1-3 2s-6 7-8 7c-1 0-2-1-1-4zm44 1v-2l-1 2c-3 3-4 2-3-2 1-2 1-3 4-2l2 2 2 3 1 2-2-1-2-1-1 2v-3zm80 1l3-2-1 3c-3 2-4 1-2-1zm-539 0v-1l1 1v1l-1-1zm34 0l1-1 1 1-1 1-1-1zm7-1c1-2 3-2 3 1l-1 1c-1 0-2 0-2-2zm79 1l2-2c3 1 3 2 0 3l-2-1zm161 1c-2-1-2-2-1-4 2-2 2-2 4 0l1 3-4 1zm22-1v-2h-1c-2 1-3-2-2-4h4c2 1 2 2 1 5l-2 1zm94 0l-1-2v-2c0-3-1-5-3-4v-1l-2-3-1-2c1-1 1 0 1 1l1 1 1-1v-3l2 2c2 4 4 5 5 3l2 1c2 4 2 4-2 3-2 0-3 0-2 1 2 3 2 6 0 7-1 0-2 0-1-1zm68 0c0-1 0-2-1-1v-2l3-3c3 1 5 0 4-2v-1l2-1h2l-1 3c-2 1-2 2-1 2l2 2-1 1-2-1c0-2-1-2-3-1v2l1 3-1-1h-1l-1 1-2-1zm68 0c-1-1 1-2 2-1h-1v2l-1-1zm92 0l1-1h1l-1 2c-1 1-1 0-1-1zm-432-1v-1l1 1v1l-1-1zm329 0v-1l-1-1 2-1c2 0 1 3-1 4v-1zm-419-1l1-1 1 1-1 1-1-1zm8-1v-3c1-1 1-1 1 1v1c1-1 1 0 1 1-1 3-1 3-2 0zm43 0v-3l3 1c2 1 2 1 1-1l1-3c1-1 1 0 1 3l-1 3-2 1h-1c-2 2-2 1-2-1zm84 1l1-1 1 1-1 1-1-1zm38 1c-1-1 0-5 1-5v-1l1-2 1 2c0 3-2 7-3 6zm-375-2l1-1 1 1-1 1-1-1zm26 0v-1l1 1v1l-1-1zm128 0c-1-1 0-2 1-1v-1c-1-2-1-2 1-1l1 3c-1 2-2 1-3 0zm15-1c0-1 0-2-1-1l-1-1 1-1c2 0 2 2 1 4v-1zm69 2l1-1h1l-1 1h-1zm118-1l2-1-2 1c-1 1-1 1 0 0zm29 0l1-2h2v2h-3zm50 0l-1-4v-1h2c2 0 2 0 2 2s-1 3-2 3h-1zm31 1v-2l3 1c0 1-2 2-3 1zm-222-2l1-2v2h-1zm5 1c-1-2-1-7 1-7s3 2 1 4l-1 2c0 1 0 2-1 1zm2-5l-1-1v1l1 1v-1zm175 4l2-2 1 1-1 2-2-1zm-224-1l2-1-2 1c-1 1-1 1 0 0zm12-1l-2-4c0-2 1-3 3-3s2 1 2 4c0 5-1 6-3 3zm109 1l2-4v-4c0-2 2-3 5-1s2 4-1 3l-3 1 1 1v2l-1 2-1 1-2-1zm70-1h-1c-2 1-3 0-1-1l1-2c0-2 3-3 5-2 1 1 1 4-2 6-2 2-3 1-2-1zm47 2l2-4 1-3 1 3-1 3-3 1zm204-2l1-3 1 1v3l-1 1-1-2zm47 1l1-1 1 1-1 1-1-1zm-550-1h-3c-2 0-2 0-1-1h6l-1 2c-1 1-1 0-1-1zm486 0l2-2 1 2c-1 1-3 2-3 0zm36 0l1-1-1 2v-1zm22 0c0-2 3-3 3-1l-2 1h-1zm-503-1l-1-2 3 1c2 1 0 3-2 1zm112 0v-3h-1v-2l2 1c1 2 2 2 2 1h2c1 2-1 4-3 4l-2-1zm45 0h3l-2 1-1-1zm40 0a1 1 0 0 1 2 0l-1 1-1-1zm84 0l2-1 1 1-1 1-2-1zm9 0c-1-1 0-3 1-3v4l-1-1zm64 0l1-2 1 2-1 1-1-1zm84 0l2-2 1 1-1 2-2-1zm59 0v-2l2 1c0 3 0 3-2 1zm-566 0c-1-1 0-3 1-3l1 2c0 1-1 2-2 1zm14-1c-1-1 0-3 1-3s2 3 1 4l-2-1zm5 0l1-2 1 1-1 2c-1 1-1 0-1-1zm25 0h-1v-1c1-1 3-1 3 1l-1 1-1-1zm51 0v-1l1 1v1l-1-1zm30-1v-2l2 4-2-2zm49 1l2-2h1l-1 2h-2zm49 0l1-2v2h-1zm269 1c-2-1-1-6 1-6l1 1v3c3 1 1 3-2 2zm-534-3c0-1 0-2 1-1v3l-1-2zm51 1l1-2 1 2-1 1-1-1zm297 0c0-1 0-2-1-1l-1-1 4-2 1 3c0 2 0 2-2 2-1 0-2 0-1-1zm143-1c0-4 2-7 4-6v2 6h-1c-2 0-3 0-3-2zm34 1c1-1 0-5-1-5l-2 1v1l1-3c2-3 5-4 4-1v8h-1c-2 0-2 0-1-1zm42 0c0-1 2-2 3-1l-1 2c-1 1-2 0-2-1zm-624-1l2-2 1 2-2 1-1-1zm434 0l2-1 1 1-1 1-2-1zm56 1c-2-2-1-4 1-4l2 2c0 2-2 3-3 2zm42-1l1-2 1 2-1 1-1-1zm8 0l-1-1c1-1 4 0 4 1 0 2-3 1-3 0zm23 0c-2 0-2-1-1-2h4c0-2 1-3 3-3 3-1 3-1 2-3h2l1 1 2-6 1 4-1 4c-1-1-5 2-6 4s-3 2-7 1zm36 0a1 1 0 0 1 2 0l-1 1-1-1zm-380 0l2-1h1l-1 1h-2zm45-1v-2c1-1 2 1 1 2h-1zm231 0v-3c0-2 1-2 1-1 2 2 1 5 0 5l-1-1zm-199-1h-3v-1h3l1 2-1-1zm25-1c-1-2-1-3 1-3 1 0 3 4 2 5s-2 0-3-2zm147 0c1-3 2-3 4-1v2c-2 2-4 1-4-1zm-320 0l1-2 1 1-1 2-1-1zm71 0l1-2v2h-1zm202 0l2-1h1l-1 1h-2zm-242-1v-3c1-2 1-2 1 0l1 3c0 1-1 2-2 0zm286 0l2-2-1 2-1 1v-1zm65-1c0-2 1-2 2-1l2 2-2 1-2-2zm-309 1l1-1h1l-1 1h-1zm52-2c0-1 1-2 3-2 3 0 3 1 0 3-2 2-3 2-3-1zm84 2l2-1h1l-3 1zm228-1a1 1 0 0 1 2 0l-1 1-1-1zm47 0l1-1h1l-1 2c-1 1-1 0-1-1zm64-1l1-2c2-1 1 1 0 3-2 2-2 2-1-1zm-696 1l-1-3c0-2 0-2 2-1l1 3-2 1zm214-1c-1-1 0-3 1-2l1 2h-2zm128 0l2-1c1 0 1 1-1 2l-1-1zm76 0l1-2v2h-1zm169 0v-2l1-1 2-1 1 2c0 3-2 4-4 2zm33 0l1-1 1 1-1 1-1-1zm-646-1l1-1 1 1-1 1-1-1zm387-1c0-3 2-5 4-5s2 0 1 2l-1 2-2 2c-1 1-1 1-2-1zm51 1l1-1 1 1-1 1-1-1zm8 0l1-2v2h-1zm30-2c0-5 4-8 6-4l-1 1-2 3c-1 4-3 4-3 0zm82 2c-1-2 0-2 1 0v1l-1-1zm9 1l1-1h1l-1 1h-1zm-338-2l1-1 1 1-2 1v-1zm76 0c-1-2 1-4 3-5 2 0 2 2-1 4-1 2-2 2-2 1zm152 0l2-2 1 2-2 1-1-1zm58 0l1-1c1-1 1 0 1 1-1 1-2 2-2 0zm27 0v-3h4l-1 2-3 1c-1 1-1 1 0 0zm12-1l-1-3 1-2 1-2 1 4c0 6-1 6-2 3zm-467-1l1-4c1-1 1 0 2 2s1 4-1 4l-2-2zm122 1l1-2 1 1-1 2c-1 1-1 0-1-1zm42-1c0-2 1-2 2-1l-1 2c-1 1-2 1-1-1zm7 1v-1l2 1h-2zm30 0c0-1 2-2 3 0 1 1 1 1-1 1l-2-1zm133-1l3-2c3 0 3 1 1 3s-4 1-4-1zm52 1v-2l1 2h-1zm183 0v-3l2-1c2 0 2 2 0 4s-3 2-2 0zm-454-2c0-1 1-2 2-1l1 1-1 2c-1 0-2 0-2-2zm195 1l1-1c2-1 3 0 2 1s-2 2-3 0zm178-1l1-2v4l-1-2zm-166 1c-1-2-1-3 1-3l2 1c0 2-2 2-3 2zm39 0l1-1h1l-1 1h-1zm-317-2c-1-1 0-2 1-3l2-2c0-2 2-3 3-1l-2 3-2 3-1 1-1-1zm40 0l1-1 1 1-1 1c-1 1-1 0-1-1zm127 0v-1l1 1c0 1 0 2-1 0zm86 0l1-2 1 2-1 1-1-1zm101 0v-3l1 2v2l-1-1zm32-1h-1l-1 1v-4c0-2 1-3 2-2l1 3 1 1 1-1 1-1c2 0 1 2 0 4-2 2-2 2-4-1zm16 1l1-2 1 2-1 1-1-1zm87 0l1-5c3-4 5-5 4-1 0 2 0 2 2 2 1-1 3-5 2-8l2-2c1 0 0-1 0 0v7l-1 3-1 4h-9zm-527-2c-1-1 0-2 1-2v4l-1-2zm550 1l1-2 1-2 1-2c1-1 1 0 1 2 0 3-3 6-4 4zm-431-2l1-2v4l-1-2zm29 2c-1-2 0-6 1-7l2 3c0 2-3 4-3 4zm15-1l1-2c1-1 1 0 1 1 0 3-1 3-2 1zm55 0l1-1 1 1-1 1-1-1zm257-1v-4l1 1v3c2 2 1 2-1 0zm40 1l1-1h1l-1 2c-1 1-1 0-1-1zm-361-1h-1l-1-1 2-1 1 2v1l-1-1zm30 1l1-1h1l-1 1h-1zm304-1c0-2 1-2 2-1l-1 2-1-1zM88 96v-5l2 1v2l-1 1-1 1zm87-1l1-1 1 1-1 1-1-1zm490 0l1-2 1 1c-1 3-2 3-2 1zm-521-2v-2l1 1v3l-1-2zm398 1c-1-2 1-4 2-2 2 1 1 3-1 3l-1-1zm86-2c0-3 2-5 3-3 2 3 1 5-1 5-1 1-2 1-2-2zm31 2l-1-6h1l1 4c-1 3 1 3 2 1s1-2 1 0l-1 2-3-1zm-459-1l1-1 1 1-1 1-1-1zm234 0v-2c1-1 2 1 1 2h-1zm320 0l1-1h1l-1 2-1-1zm-569-2c0-2 0-2 2-1 1 1 1 3-1 3l-1-2zm52 1a1 1 0 0 1 2 0l-1 1-1-1zm61 0l1-1 1 1-1 1-1-1zm130 1l1-1h1l-1 1h-1zm81-1v-1c2-1 3 0 2 1h-2zm115-1c1-2 3-2 3 1l-1 1c-1 0-2 0-2-2zm-346 0v-1l1 2-1-1zm188 0v-1l1 1v1l-1-1zm100 0c-1-1-1-1 0 0l1-1 1-1 1 2c0 1-2 2-3 0zm10 0a1 1 0 0 1 2 0l-1 1-1-1zm40-2c-2-3-2-4-1-6s2-2 2-1v4l1 3v2c0 1-1 1-2-2zm30 1c-1-4-1-6 1-6l2-1 1 6c0 3-2 4-4 1zm-475 0l1-1 1 1-1 1-1-1zm237 1l1-1h1l-1 1h-1zm176-1c-1-1 0-4 2-4l1 2c0 3-2 4-3 2zm122 0l1-1c1-1 1 0 1 1l-1 1-1-1zm-344-1c2-2 4-2 4-1v1h-4zm30 0a1 1 0 0 1 2 0l-1 1-1-1zm-129-1v-2c1-1 1 0 2 1 0 1-1 3-2 1zm17 0l1-4 1-2 1 2c1 4-2 7-3 4zm137 0l1-1c1-1 1 0 1 1l-1 1-1-1zm91 0a1 1 0 0 1 2 0l-1 1-1-1zm17 0l2-1 1 1-1 1-2-1zm20 0l1-1h1l1 2h-1l-2-1zm55 0l1-2 1-2c-1-1 0-1 0 0 2 1 2 1 0 2v2c1 1 0 1-1 1l-1-1zm73 0l1-5c2-1 2 0 2 3-1 3-3 4-3 2zm-371 0c-1-1-1-3 1-4 2-2 2-2 4-1v3c-2 2-4 3-5 2zm214-1l3-3c3-1 2 1-1 3h-2zm151-1c0-2 1-3 3-2 2 2 2 4-1 4-1 0-2 0-2-2zm96 1l1-1 1 1-1 1-1-1zm-411-1v-1l1 1v1l-1-1zm253 0l1-1c1-1 2 0 2 1h-3zm27 1l1-1h1l-1 1h-1zm53-2l1-2-1 4v-2zm25 1v-2c2-2 2-1 2 1s-1 3-2 1zm-594-1c-1-2 0-3 1-1v2l-1-1zm306-1c-1-2 0-4 1-3v6l-1-3zm111 1v-2l2 2c0 2-1 1-2 0zm58 0c0-2 2-2 3-1l-1 1h-1-1zm50-1l2-4c1-1 1-1 2 1l-1 3c-1 1-2 1-1 2 1 0 1 0 0 0-2 0-3-1-2-2zm38 0c1-1 0-2-1-2s-1-2 1-3c2 0 2 0 2 3l-1 4-1-2zm-19 0l-1-2c-2-1-2-4 0-3l1 1 1 2v2h-1zm-340-1h2l-1 1-1-1zm44 0l1-1 1-2 1 1 1 2c-1 2-4 1-4 0zm105 0c-1-1 0-4 2-4v5l-2-1zm110 0l1-1c2 0 2 2 0 2l-1-1zm-337-1v-1l1 1-1 1v-1zm53 0l1-1 1 1-1 1-1-1zm213 0l2-2c1 0 1 2-1 3l-1-1zm33 0c0-2 1-2 2-1l-1 2c-1 1-1 0-1-1zm43 0c-1-1 0-2 1-1v2l-1-1zm50 0v-2l1 1-1 2v-1zm29 0l1-3h1l-1 3h-1zm32 0l1-1 1 1-1 1c-1 0-2 0-1-1zm108 1l1-1h1l-1 1h-1zm-418-2l1-1c1-1 1 0 1 1-1 1-2 2-2 0zm30 0v-1l1 1v1l-1-1zm323 0l3-2-1 2h-2zm-552-1v-2l1 2h-1zm125 0l1-1c1-1 1 0 1 1l-1 1-1-1zm207-1v-3c2-1 3 2 1 3h-1zm100 0c0-2 1-2 2-1l-1 2c-1 1-1 0-1-1zm-245-1a1 1 0 0 1 2 0l-1 1-1-1zm206 0c-2-1-3-5-1-5s4 3 4 5c0 1-1 2-3 0zm137 0v-1l1 1v1l-1-1zm-418-1v-4l1 1v2c1 2 1 3-1 1zm106 0l1-1 1 1-1 1-1-1zm146 0v-1c2-1 3 0 1 1h-1zm126 0l2-1c1-1 1 0 1 1-1 1-3 2-3 0zm55-1l2-2c2 0 2 1 1 2l-2 2-1-2zm-576 0l1-2 1 2-1 1-1-1zm96 0c-1-2-1-3 1-2l1 2h-2zm215 0c0-2 1-2 2-1l-1 2c-1 1-1 0-1-1zm205-1c0-2 2-3 3-2l-1 3c-2 2-2 1-2-1zm12 2l1-1h1l-1 1h-1zm24-1c-1-2 0-2 1-2h1c1-1 1 0 1 1 0 3-2 3-3 1zm-469-1l1-1-1 2v-1zm117 0l1-1 1 1-1 1-1-1zm61 0c0-2 1-2 2-1l-1 2c-1 1-1 0-1-1zm251 0c0-1 2-2 3 0l-1 1-2-1zm-82 0l1-3 2-1h1l-1 1v2l-2 1h-1zm26-1a1 1 0 0 1 2 0l-1 1-1-1zm43 0c-1-3 0-3 2-2l1 2c-1 2-2 2-3 0zm-120-1l2-2c1-2 1-2 1 0s-3 5-3 2zm185 0l2-3c1-2 1-2 1 0-1 2 0 4 1 2h1c0 2-5 2-5 1zm-145-2l1-3c1-1 1 0 1 2l-1 3-1-2zm59 0v-2c2-1 2-1 1 2 0 3 0 3-1 0zm-131 0l1-2v2h-1zm145-2c0-3 0-3 2-2h4c1 1 0 2-2 2l-3 2-1-2zm-102-1c2-2 3-2 3-1l-3 3v-2zm122 1l-1-2v-1c2-2 3-1 2 2 0 2-1 2-1 1zm10 0h3l1-1 1 1-2 1-3-1zm-405-2c0-4 0-4 1-2s0 4-1 4v-2zm336 1c0-2 2-4 2-3 2 1 1 4 0 4l-2-1zm88 1c-2-2-1-5 1-4l1 2c0 2-1 3-2 2zm-95-2l1-1 1 1-1 1-1-1zm82 0l3-3v2c-1 2-3 3-3 1zm-49 0c-1-1 1-5 2-4l1-1 1-1v1l-1 3c0 2-2 3-3 2zm-187-2l1-1h1l-1 1h-1zm-47-2l1-1 1 1-2 1v-1zm32-1a1 1 0 0 1 2 0l-1 1-1-1zm297 1l1-1h1l-1 1h-1zm-119-2l1-1h1l-1 1h-1zm62-1l1-2 1 2c1 1 0 1-1 1l-1-1zM87 60l-1-2h1l1 2h-1zm402 0l2-2c2-1 2-1 1 1l-3 1zm115-1l1-2v2h-1zm-450-2c0-3 0-3 1-1v2c0 1-1 1-1-1zm356 0v-1l1 1v1l-1-1zm-221-1h3l-1 1-2-1zm266 0l2-2 1 1-2 2-1-1zm37 0l1-2v2l-1 1v-1zm-487-3l1-1 1 1-1 1-1-1zm85 0v-1c2 1 1-1 0-3v-1l2 5c0 2-1 2-2 0zm310-2l2-2 1 2c0 2-3 3-3 0zm49 0l1-1 1 1-1 1-1-1zm45-2c-2-3-2-4 0-5 1-1 3 1 3 4 1 4 0 4-3 1zm-62-1l1-1 1 1-1 1-1-1zm-81-1v-1c2-1 2-1 1 1h-1zm160-1l1-1 1 1-1 1-1-1zm9-1l1-1v2c0 1-1 1-1-1zm-445 0l1-2v2l-1 1v-1zm324 0l2-2 1 1-2 2-1-1zm-377 0h1c1 0 1 0 0 0h-1zm530-1l1-1h1l-1 2c-1 1-1 0-1-1zm-39-2v-2h2l-1 2h-1zm13 0v-2c2-1 3 1 3 2-1 2-2 1-3 0zm7-1l1-2v2h-1zm160 0v-2l1 2v1l-1-1zm-139-4c0-2 2-4 2-3v4l-2-1zm-17-1v-2c1-1 1-1 1 1s0 3-1 1zm-125-2a1 1 0 0 1 2 0l-1 1-1-1zm-23-1l1-1h1l-1 1h-1zm109-1l1-1 1 1-1 1-1-1zm81-1l1-3v5l-1-2zm-121-1l1-1h1l-1 1h-1zm77-2l1-2 1 1-1 2c-1 1-1 0-1-1zm7 0l-1-3h1l2-1h1c0 2-2 4-3 4zm-242-2l1-1h1l-1 2c-1 1-1 0-1-1zm213-4l1-1h1l-1 1h-1zm-17-2l-1-2h-1l1-1c2-1 3 2 1 3-1 1-1 1 0 0zm-154-6l1-1h1l-1 1h-1zm61-1l1-2 1 1-1 2-1-1zm128-4l1-2c1-2 1-2 1 0 0 3-1 4-2 2z"/>
</svg>
