<svg xmlns="http://www.w3.org/2000/svg" version="1" viewBox="0 0 1000 565">
  <path fill="#ffed00" d="M436 556l1-1 1 1-1 1-1-1zm-48-2l1-1 1 1-1 1-1-1zm52-4l1-1h1l-1 1h-1zm-35-2l1-2c2 0 1 3-1 3v-1zm149-1l1-1 1 1-1 1-1-1zm-203-2c-1-1 0-3 2-3l1 2c0 2-2 2-3 1zm9-8l1-1 1 1-1 1-1-1zm480 0l2-1 1 1-1 1-2-1zm-484-2c1-2 2-2 3-1h-1c-1-1-1 0-1 1h-1zm396-4c-1-1-1-3 1-3l1 1c0 2-1 3-2 2zm-382-2c-1-1 0-2 2-1l1 1c-1 2-3 2-3 0zm-34-4h3l-1 1-2-1zm-29-3l1-2 1 1-1 1h-1zm224-1l2-1 1 1-1 1-2-1zm-212-2c-1 0-1-1 1-1l2 1c-1 2-1 2-3 0zm136-1c-1-2 0-4 2-4l1 2c0 2-2 3-3 2zm-115-1c-1-1 0-1 1-1s2 0 0 1h-1zm89-1v-1l2 1-1 1-1-1zm451-1l1-1 1 1-1 1-1-1zm-117-3l1-1 1 1-1 1-1-1zm-593-4c-1-1 0-1 1-1s2 0 0 1h-1zm235-2l2-2 1 2-1 1-2-1zm-123 0l1-2 1 1-1 1h-1zm255-1l1-1 1 1-1 1-1-1zm162 0c0-2 1-3 2-2 3 1 3 2 1 3l-3-1zm-429-1l1-1-1 2v-1zm187-2l1-1 1 1-1 1-1-1zm-183-1l-1-2c1 1 4 2 3 3l-2-1zm138 0c-1-1 0-1 1-1 1 1 2 2 0 2l-1-1zm-64-4c1-2 3-2 3 0l-1 2-2-2zm230 0l1-1 1 1-1 1-1-1zm-275-2c-1-1 0-2 2-2 3-1 3 1 0 2h-2zm73 0l1-1 1 1-1 1-1-1zm-162-2v-1l2 1-1 1-1-1zm133-1l1-1h1l-1 1h-1zm-3-3c-1-3-1-4 1-4 2 1 3 1 1 4h-2zm96 1h2c1 0 1 0 0 0h-2zm10-1v-1l1 1v1l-1-1zm-145 0l1-1h1l-1 1h-1zm10-2l1-1 1 1-1 1-1-1zm89 1l1-2h1l-1 2h-1zm413 0v-2l1 2h-1zm10-1l2-1 1 2c-1 1-3 1-3-1zm-690-1l1-2 1 1-1 1h-1zm154 0c-1-1 0-1 1-1s2 0 0 1h-1zm60-1v-1l2 1 1 1-3-1zm37 0v-2l1 2v1l-1-1zm-60-1l1-1 1 1-1 1-1-1zm108 0v-1l1 1v1l-1-1zm-130 0c-1-1 0-1 1-1 1 1 2 2 0 2l-1-1zm112-1v-1l1 1v1l-1-1zm190 0c-1-1 1-3 2-2 2 1 1 3-1 3l-1-1zm-395-1c-2-1-1-3 1-3l2 2c0 2-1 2-3 1zm20 0l1-1 1 1-1 1-1-1zm63 1l-1-2c0-2 3-2 3 0 1 2-1 3-2 2zm606-1l1-1 1 1-1 1-1-1zm-495-1l1-1 1 1-1 1-1-1zm-159-1h2c1 1-1 1-2 1v-1zm30 0v-2l3 1c4 1 3 3-1 3-2-1-3-1-2-2zm509 0l-1-1h2l1 2-2-1zm-321-1l2-1 1 1-2 1-1-1zm-142-1c-1-1-1-5 1-5s3 2 3 4c-1 2-2 2-4 1zm27-1l1-1 1 1-1 1-1-1zm77 1l1-2 1 1-1 1h-1zm48-1l1-1 1 1-1 1-1-1zm18-1c0-1 1-2 2-1l2 1-2 2c-1 1-2 0-2-2zm-299 0l2-1 1 1-2 1-1-1zm22 0v-1l1 1v1l-1-1zm68-1l1-1 1 1-1 1-1-1zm17 0l1-1 1 1-1 1-1-1zm156 1c-2-1-1-2 1-2l2 1c0 2 0 2-3 1zm291 0v-2h2l-1 2h-1zm3-1l1-1 1 1-1 1-1-1zm-418-1l2-1 1 1-1 1-2-1zm8 1c-1-1 0-1 2-2l3 1c1 1-4 2-5 1zm25 0v-4c2 0 2 1 1 2v2h-1zm35 0v-2h2c1 2 0 3-2 2zm16 0l1-2 1 1-1 1h-1zm149 0v-2c0-1 2 0 2 2h-2zm-362-2l2-1 2 1-2 1-2-1zm113 0c-1-1 0-2 1-2s2 2 0 3l-1-1zm79 0v-1l1 1v1l-1-1zm154 1c-1-1-1-2 1-3l1 2c0 1-1 2-2 1zm-121-2l1-1 1 1-1 1-1-1zm-73 0l2-1 1 1-1 1-2-1zm114-1l2-1 1 1-1 1-2-1zm-217-1h3l-1 1c-1 1-2 0-2-1zm29 0l2-1 1 2c-1 1-3 1-3-1zm140 0l1-1 1 1-1 1-1-1zm-49-1c0-2 0-2 2-1l1 2h-1l-2-1zm30 1l1-2 1 1-1 1h-1zm-104-3c-2-3-2-4 0-4l1-1 3-1c2-1 2 0 3 1l2 1c2 0 2 1-1 4-4 3-5 3-8 0zm16 1l1-2c2-1 3 2 1 2-2 2-3 2-2 0zm66 1c-1-1 4-4 7-4h3l-1 1v1l-2 2-1-1v-1l-3 1h-1c0 2-2 2-2 1zm43 0l1-2 1 1-1 1h-1zm9 0c0-2 3-3 4-2l-2 2h-2zm343-1l2-1c2 0 2 1 0 2l-2-1zm54 0v-1l1 1v1l-1-1zm-571-1l1-1c2 0 3 1 1 2l-2-1zm206 0l1-1 1 1-1 1-1-1zm-136-1l1-1h3l1 1-2 1-3-1zm112 1c-1-1 0-1 1-1s2 0 0 1h-1zm-287-2l1-1 1 1-1 1-1-1zm181 0l2-2 1 2-1 1-2-1zm-72-1v-1l2 1-1 1-1-1zm94 0c0-2 2-3 2-2v2h-2zm21 0v-1l1 1v1l-1-1zm47 0l1-1 2 1-1 1-2-1zm-150-2c0-3 2-3 4-2v3c-3 2-4 2-4-1zm64 2l1-2 1 1-1 1h-1zm34 0l3-1-1 1h-2zm89-1c-1 0-1-1 0 0l2-1h1l1 2c-1 1-4 1-4-1zm-222-1l2-2v2l-2 1v-1zm43 1l2-2 1 1-3 1zm87-1v-2l1 2v1l-1-1zm14 0v-1l1 1v1l-1-1zm7-1c0-1 0-2 1-1v3l-1-2zm14 2l1-2 1 1-1 1h-1zm173-1c-1-1 1-3 2-2 2 1 1 3-1 3l-1-1zm-333 0c-1-1 0-1 1-1l1 1h-2zm190-2c-2-3-2-4 0-3s3 4 2 5l-2-2zm291 1h2l-1 1s-2 0-1-1zm76 0l2-1 1 1-1 1-2-1zm-510-2l3-2-3 3-2 2 2-3zm19 1l1-1 2 1-1 1-2-1zm55 0l-2-4c-1-2-1-3 1-2l2 5c0 3 0 3-1 1zm47 1c-1-2 1-3 2-2s1 2-1 2h-1zm39-1l1-1 1 1-1 1-1-1zm-181-1c1-1 0-2-1-3v-1l4 4-1 1-2-1zm81 0l-2-2c-1 0-2-1-1-2l2 1 4 1c1-1 2 0 2 1l-1 2h-2l-2-1zm90 1h2c1 0 1 0 0 0h-2zm-203-2l-1-1h3l1 2c0 1-1 1-3-1zm86 0c-1-1-3-2-3-4l-2-1c-2 1-5 0-5-2l2-2 3-6-1-2-4-2c-2-1-2-1-1 1 2 1 2 3-1 3l-2-2-1-3-5-1c0-2 5-3 7-1h1l2-4h3c1 0 1 0 0 0-2 0-2 0-2 2 0 3 0 3 1 1l2-1 2-1 3-1 3-1-3-1c-2 0-4-3-2-4l1-3c0-2-1-2-3-2l-2 1c1 2 0 3-2 1h-2l-1 1-5 1-3 1-1 3-1 3v5l-3 2c-2 2-4 3-5 2s1-7 2-7l1 2 2 1c2-1 1-4-2-5s-6-5-6-8c0-2 0-2-2 0s-3 3-2 4c2 2-1 5-3 5-3 0-4-3-1-4 3-2 3-5 0-4l-5-1c-1-2-1-2-3 0l-1 2 1 1 1 2 1 1c-1 1-2 0-2-1l-4-3-4-3c-2-3-5-3-6-1l-2 3c-1 1-1 1 1 2 2 0 3 2 4 4 1 4 1 4-1 6-3 2-5 2-5 0l1-2 1-1h-2l-2-1 1-2c1-1 0-5-1-5h-4c-1-1-1-1-1 1 1 1-2 3-4 2s-1-5 1-4 1-3-1-5l-4-2h-1c0-1-1-1-3 1v-1l1-3c0-2 1-2 3-1 1 1 1 1 2-1 0-3 3-5 5-5l2-1 3-1c3 0 3-1-1-3-3-1-4-3-1-3l1-1-3 1h-4c-2-2-2-2-4-1l-6 2-6 1-3-1c-1-1-5 0-6 2h2c2 0 4 2 2 3-2 0-5-2-5-4l-4-3h-6c-1 1-2 2-1 3l-1 1-1-1-1-3c-2 0-2 1-1 3 0 2 0 2-2 3-2 0-2 1-1 3v2l-3 1-2-2c-1-2-1-2 1-4 2-3 2-5-1-5h-1v-2c-1-2-1-3 3-4 1-1 3 0 3 1l3 1 3 1h2c2-4 2-7 0-7l-1-1c0-3-5-3-7-1-1 1-1 2 0 0 2-1 6 2 4 4l-2 1-3-1c-4-1-4-1-3-2l-3-1c-3 1-4 0-4-1l-1-4c-1-3-6-3-7 0-1 2-4 2-3 0 1-1 0-2-1-3-2-1-1-1 3-2 2 0 2-1 2-3s-4-6-5-5l-1-2v-3l-2 2c-1 2-4 3-4 1l-2 1h-4l-3 1c-2 2-1 2 2 2h4l-3 1-3 2c1 2 0 5-2 4l-1-4-1-6c-3-4-3-5-1-5l2-1-1-1-2-2c0-1 3-2 7-1s4 1 4-1c0-1-1-2-3-1l-2-1 2-1c1 1 1 0 1-1l-6-3c-5-3-7-4-6-5l1-1c-1-1-1-2 1-1l-1-2-4-2 1-1c2-1 2-2 0-2l-4 2-2 2-2 1 1 1 1 2c-1 2 0 3 1 4 2 2 2 2 1 4s-2 1-3-2-1-3-6-2c-4 0-4 0-4-2 0-1 1-2 3-2 2 1 4-3 1-4l-2-2-2-1-1-1-1-3c0-2 0-2 2 0s5 1 3-1v-3c0-2 1-2 2-2l4 1v1l1 3h1c-1-1 0-1 1-2l2-2c-1-2-4-3-12-3l-4-2c-1-1-1-1 1-1l2-2c1-2 0-2-1-2v-1l-2-2c-1 0-1 0 0 0 4-1 1-10-4-10h-2l2 3c3 3 2 3-1 3s-3 0-2-2l-1-3c-3 0-4-2-2-4l2-4 1-2h5c2-1 3-5 1-5-1-1-3 1-3 3l-2-1-6-2c-3-2-3-2-1-2 2-1 2-1 1-5l1-4h2l5 6c2 1 2 1 0-1l-1-2h2l1 2c2 0 2 1 2 4l1 2h2c0-1 1-2 3-2 3-1 4-3 1-6-1-1-1-1-1 1 1 2 1 2-1 2h-1v3l-2-2-2-5c-2-1-2-2-1-2v-5c-2-4-2-5 0-4v2c0 2 0 2 1 1 1-2 4-1 4 1s3 4 6 3c3-2 3-2-1-4-2 0-4-2-5-3s-1-1 2-3 3-3 0-3l-4-2-4-2c-2-1-3-1-3 2s0 3-3 3h-1l1-3c0-3-1-3-3-4-2 0-3-1-3-2 0-3 3-2 5 1 2 2 4 2 4-1l2-3 2-3 2 2c2 3 3 3 3 1-1-2-1-2 1-1s4 4 2 3l-3 1-2 1 2 1 3 3c0 2 1 2 2 1l3-1c3 1 2-1 0-2-2 0-2-1-1-1l1-3 1-2c2 0 2 0 1 3l1 4 1-1c0-2 4 5 4 8l-1 3v2c1 2 2 2 2 0l3-3 2 2 1 4c2 2 2 2 0 2h-2l2 3c1 1 2 2 3 1s1 0 1 1l-1 2c-2 0-1 5 2 8l4 3v-2l-1-4-1-3v-2c-1 1-1 0-1-1l1-1-1-1c-1-1-3-2-4-1l-1-1 1-1 3-1c2-1 2 0 1 1l2 2h3l-1-1v-6l2-2-3 2c-3 3-5 4-5 2l-2-1v-3c2-1 2-2 1-2v-3c2-1 2-2 1-2h-3c-1 1-1 0-1-1s-6-3-7-2v-3c1-1 1-2-1-3-4-1-3-3 1-4 3-1 4-2 5-1v6c-2 1-1 3 1 4 2 2 3 2 4 1 2-1 5 1 3 3l2 2 1 1-1 1c0 2 3-1 3-3 1-2 0-3-1-2l-2-1 1-2c2 0 2-1 1-3h-2c-2 2-5 2-5 1h-1c0 1-3 1-3-1l2-1 3-1c0-1 1-2 3-1 2 0 6-3 6-6s1-3 2-3c2 0 2-1 2-3h-2l-1-1h1l1-1-1-1c-2 0-2-2 0-3 1 0 1-1-1-2l-2-3-2-2v2c2 2 2 2-2 6l-3 4v-5c1-3 0-4-2-5s-7 0-7 1 1 2 3 2c3 1 4 2 3 3l-1 2c1 0 0 0 0 0l-1 1 2 1h2l1 1c1-1 2 0 1 1l2 1 2 1-1 1h-2l-3 1c-2-1-2 0-2 2l-1 4c0 1-1 1-2-2l-1-6c0-2 0-2-2 0l-3 1c-1-1-3 1-3 3 1 1 0 2-1 2-3 2-4 2-1-1l2-4 1-1c1 0 1-1-2-3-1-2-3-3-5-3l-2-2h3c2 0 2-4-1-6-2 0-2-1-1-1v-1c-1-1-2 0-3 1h-2c0-2 2-3 5-3l4-2c0-2 4-4 6-4 1 1 2 0 2-1h-3c-2 0-4-1-3-3l4-1c3-1 3-1 2 1l1 3-1 3v3c1 2 2 1 3-2 2-4 2-4 3-2v3l-1 2c2 1 3 0 3-1l2-2c2 0 2-1 1-2-2-1-2-2-1-3 1-2 4-1 4 1l1 1v3 2l2 1v-1l-1-2c1-3 3-5 4-4v-2l-1-3-2-1c-1-2-2-2-3 0l-3 1h-2l-2 1c2 2 2 3 0 3l-2-2c-1-2-1-3 1-4l4-2c2 1 2-3 0-4l-3-4c-1-3-1-3 1-4l1-2c-1-1 0-1 1-1 2 0 2 1 1 3-2 1 0 5 3 6 1 1 2 1 4-1 1-2 1-2 2 1s4 3 4 0c0-1 0-2-1-1l-1-2-1-3c-2-3-2-4 0-3 2 0 2 0 2-2-1-3 1-4 3-2l1 4 1 2 4 1 3-1-2-1-4-2c-2-2-2-3 0-5 2-3 1-8-1-8l-1-2-1-2-1-1c1-1 7 3 7 4l2 1 1 2 1 2c1 0 2-1 1-3 0-2 3-2 3-1l1 2 1 2v2h-1c-1-1-2-1-2 1l2 3v1c-1 1-4-1-4-3s-1-3-2-3c-2 0-2 2-1 3v2c-1 3 1 6 2 4l2-1 3-1h2l-2 1c-3 0-4 2-2 6v4l-2-1h-2c-1 0-4-1-3-2s-4-2-6-1c-1 1-1 2 1 2 3 2 6 11 3 13l-1-1h-1c-1 2-1 1-1 0v-3h-1l-4-2c-4-4-5-4-3 1 0 2 1 2 2 1l2 1c2 2 3 7 2 8v1h2l3-1h2c1-2 1-2 3 0v1 1c1 2 4 0 4-2l1-3c1-1 1 0 1 1-1 1 0 3 1 3 1 2 1 2 0 0-1-3 0-4 2-3l1-1c0-2 3-3 4-2l1 2-2 1c-1 0-2 0-1 1l-1 1-2 1 1 1 1 2 2 3 1 1-1-2c-1-1-2-5 0-6h1c0 1 0 2 2 2 1 1 1 0 1-1l1-3c2-2 2-3 0-2l-3-1c0-1 1-2 2-1h2l2-2c2 0 2-4 0-5-2-2-4 0-2 2s1 3-3 3c-1 0-2 0-3-2l-1-2-1-1h6v-2l-3-2c-2-3-2-3 2-6 3-2 4-4 1-4l-1-2-1-3h3c2 1 3 2 2 4l1 2 1 3c0 4 1 7 3 7l1-3 1-3c1 0 2 0 1-1 0-2 0-2 2 0l2 1c1-2 0-3-1-3l-2-1 2-1 4-1c1-1 4 0 6 3v1l-2-1h-3c-3 1-3 3 1 4h2c0-2 0-2 1 0 2 2 3 2 2 0s1-1 3 2c2 2 3 2 6 2 4-1 4-3-1-2-3 0-3 0-2-2s0-3-3-2c-1 1-1 0-1-1s3-3 7-3c2 0 3 0 2-1s0 0 1 0l1-1h-5l1-2 3-1 2 1 1-1h3c2 2 4-1 2-3v-2-3c0-2 0-2 2-2s4 2 2 2l-1 1v1 1c1 2 1 2 2 0 0-2 1-2 2-2l2-1c1-1 4 3 4 5-1 2 0 3 2 1 3-1 3 2 1 4l-1 1 2 1 1 1v-2c-1-1 0-2 1-2v-2c0-2 4-2 6 1l1 3c-1 2 2 3 4 1 1-2 1-2 1 1v3l1-2 1-4-1-4c-2-1-1-4 1-3v-1l-4-1v-2l2-2 2-1 1-1 1 2 1 2 1-1 2-1 1-2v-2-5l2-1c2 0 2 4 1 4v2l3 4 3 3c1-1 0-4-2-5v-5l7 8-1 2-2 3c0 2 0 3-1 2l-1 1 4 2v-3c-1-2 0-2 1-1l1 3 2 2c1 0 3 1 3 3 2 4 3 2 1-1-1-3-1-3 2-2 3 0 4 0 5-2 2-4 1-5-1-6-3 0-3 0-2 3v3c-1 2-4 0-4-4-1-4-1-4-2-1-2 4-4 2-3-3 1-3 1-4-1-5l-2-4-1-1h-3v-1h2l1-2c-1-2 0-3 1-3 2-1 2-1 0-4 0-2-1-3-2-3l-1-1h3c2 1 3 3 2 4-1 4 4 2 6-3 1-2 2-4 4-4l2-3 2 2 4 2v1l-4 2c-4 0-6 2-3 4v2l-3 2c-2 0-2 0-1 2l3 2c2 0 4 3 4 5v1l1 1v2l1 3 1 5 1 4c0 3 1 4 3 1 1-1 0-4-2-6-1-1 0-2 2-4 2-3 3-4 3-7-1-3-2-4-3-3l1 3 1 2h-4c-1 2-1 2-2-1-2-2-2-3-1-4v-2c-2-1-1-1 0 0 2 1 3 1 6-1l3-3 1-1c1 1 2-1 1-5l-1-2-1 2-2-4-1-3-1-1 1-1 3 2 3 2 3 1 1 2-1 2-2 3c0 4 1 5 3 2 1-3 3-3 2 0l-1 4 1 2 2-3c1-4 3-5 6-3 1 2 2 2 2 1l-2-3c-2-2-1-6 1-6l2 2 1 2v1l1 2 1-3c0-2 1-3 2-3v-2-1l1-1-3-1-5 1-2 3-4 2c-2 0-2-1-2-3v-3l1 1 1 3 1-3-1-2v-3c1-3 3-3 2 0 0 2 2 4 3 3l1-3c-1-3 1-5 3-3 1 1 2 0 3-1l4-1h1l2-1 2-1h1c1 1-1 5-3 5s-2 4 0 5h1l2-4c1-1 1-1 1 1-1 4-1 7 1 4h4c3 1 4 1 3-1l1-4c2-1 2-1 2 3l-1 5-2 1v2l-1 2-1 2c1 1-2 3-3 2l-1 1-1 2h-2l-1-2-1 6-1 1v-1l-1-2c-2 0-3-1-3-2-1-3-4-3-4-1l1 2c2 0 3 4 2 5l-3-3c-3-3-6-3-6 0 0 2 1 2 2 1l1 1 1 1 3 2v1h-3c-2 1-4-1-3-2l-1-1c-2 1-4-2-3-3l-1-1-1 1-2 2c-3 2-3 2-3 0h-2v-1l-1-2-2 1-1 2-1-1-2-2v2l2 2h2l3 1c3 1 3 2 1 3s-2 2-1 4c0 2 0 3-2 3s-2-1-1-2c1-2 0-2-1-1-2 2-2 2-3 1 0-1-1-1-1 1l1 3h2l3 1 1 2c0 3 3 4 4 1l1-3-1-2c-1-2-1-2 1-2s2 1 2 3l-2 4-1 1c5 1 6 1 6-1h1c1 0 3-2 1-3-1-1-1-3 1-3 3 0 4 2 2 4l-2 4c0 3 3 5 4 2l-1-1-1-2c0-2 1-3 3-1 1 1 1 1 1-2l-1-3c-3 0-1-2 2-3l3 1 2 2 1-4v-3c1 1 1 0 1-1 0-2 1-3 2-3l2-2 2-1c1 1 1 0 1-1 0-2 3-3 4-1 0 1 1 2 2 1l1 4c0 5-1 5-2 2 0-2-1-3-2-2h-3v1c1 2-1 4-2 3l-1 2 1 3c2 1-1 2-3 1-2 0-2 1 0 3l1 3c-1 2 0 3 1 3l1 2c0 3 3 3 5 1 1-2 0-3-2-2-1 0-2 0-1-3l1-4v-2c-1-3 0-5 2-3 1 2 5 1 5-2l2-1c3 0 3 1 0 4-3 2-3 2-1 2h2l1 2c2 1 2 2 2 3-1 1-1 1 0 0v-4-2l2-2c3-1 4-1 3 1 0 2 0 2 2 0l2-3 3-1 3 2 2 1v-1c-1-2 2-2 4 0 1 1 0 1-1 2-2 1-2 7 0 7 1 0 2 1 1 2 0 2 3 4 6 4l1-3c0-3 0-3 3-4l2-2h-1l-1-4-1-4v-4l3-3 1-1c5 1 6 0 5-2v-4-4l-2-4-2-6c0-3-2-5-4-5l-1-2 4-1h5c1-1 2-1 3 1v3l-3-1c-1-1-1 0-1 1l1 3v2l-1 3 4-4h3c3 3 4 2 3 0-2-2-1-2 0-1l2 3 2 2c1 1 1 1-1 1l-2 1 2 1c1-1 2 0 3 1 1 2 1 2 2 0 2-2 1-4 0-4-1 1-1 0-1-1l2-1c2 0 3 0 2 1l1 2 1 2c0 2 4 5 5 4 2-1 1-6-1-7-1-1 0-1 1-2l1-3h1c2 1 2 2 2 4 0 1 0 2 1 1l2 2 1 3 2-2c2-3 2-3-1-6l-2-2v-1c-2-1-2-3-1-5v-2l-1-2 1-1h1l-2-1c-2 1-7-1-7-2l3-1c3 0 7-3 7-5l1-1 1 3v3c1 2 1 2 3 0s3-1 1 2c-2 4-2 5 1 5l3 1c1 1 2 1 2-1l-2-3c-2 0-1-4 1-4l1 1 1 2v-2l1-4c2-1 2-2 1-2-2 0-6-7-6-9l-1-3c-2-2-1-3 2-1 1 2 2 2 4 1 1-1 2-1 4 1l2 2-2 2c-2 1-2 2-1 2l2-2 2-1 2-3c0-3 1-3 1-1 1 3 3 3 3 1l1-1 2-1c1 0 2 0 2 2 1 2 3 2 3 0l-1-2c-3 0-5-5-3-7l2-2 1-1v6l-1 1h2l2 1 2-1v-1l-1-1s1-1 2 1c2 2 4 3 3 0l1-3 2-4 1-3c2 0 2 0 1-2v-3c2-1 3 0 2 2 0 1 0 2 1 1l3 1c1 2 2 2 3 1h4l4 1c3 0 4 2 2 3v6l-1 1-1 1h-2l-1-3-2-4-2-1-2-1c-3-3-4-3-4 0l-1 2c-3 0-6 9-3 9 2 0 4 2 3 3s-2 0-3-1l-1-1 2 4 2 3c-1 1-2 0-2-1-1-1-2-2-3-1-3 0-3-2-2-5l2-2h-6l-1-1 1 4 1 4-1 3h1l2-1h2c2-1 2-1 4 1 3 3 3 3 3 1l2-3 1-2c0-2 0-2-1 0l-2 1c-1-1 0-2 1-3l2-2c-1 1 0 2 1 3l2 2 3 6v-4l1-1c0-2 1-2 2-2l2-1c1-2 1-2-1-2l1-1c1-3 2-3 3-1 2 1 3 4 0 4l-1 1-1 2-2 2c0 2 0 3 1 2v2l-1 2c1 0 4-4 3-5l1-3h2c-1 1 0 2 1 3s2 1 1-1l1-3 2-3v-5-1l-2 1-1 1-2 1c-2 0-2-3 1-5v-2l-1-2c0-2 0-3-2-4-2-2-3-5-1-6 1-1 2 0 1 2h3v-2l-1-1 2-1c1 1 2 0 2-1l1-1v6 1l1-1 3-1c2 0 2 1 1 2-2 1-2 2 0 5 1 3 3 4 5 1s4-2 3 1l1 5c2 2 2 3-1 3l-2-2c-1-1-2 0-5 2-3 4-4 4-2 5 2 2 2 2 3 0l2-2v2l-1 3 1-1 1-1 1-1c0-2 2-1 3 1l4 3c2 1 2 1 2-3l1-5h-1c-1 1-1 1-1-1l-2-3c-2 0-2-1-2-3s3-2 5-1l2 1h2l2 2v-2l-2-4c0-3-3-7-4-7-2 0-2 0-1-3 1-4 3-4 5-1 1 2 2 3 3 2 3-1 3-1 3 2 0 2 2 5 3 4l3-1c3 0 4-1 2-2s-1-2 2-2c4 0 7 2 5 3l-1 4 2 1h3c3 1 3 3 0 2l-3 1h-2l-2-1h-2l-1-1c-2 1 0 3 2 3 3 0 2 2 0 2-5 1-6-2-2-6 3-3 2-4-1-2-4 2-4 4-3 8v5c-1 2-3 2-2 0l-1-1c-2 1-4 6-2 7s3 1 3-1l1-3 1 3 2 3v1h-1-1c-3 2-2 2 2 3l5 1 1 1 1 1c0 2-1 3-3 2l-4-1c-2-2-4-2-5 0l-1 3c1 1 1 1 0 0-2 0-2-3-1-3v-1l-1-3-1-2v-1l-1-1c-1-1-1-8 1-9v-2c-1-1-4 2-3 3l-2 4c-2 2-2 3 1 0 1-1 1-1 1 1l-1 3v1l-1 2-1 2-1 1c-1 0-2 1-1 2h3c2 0 2 0 2 2v2l3 2 2 2 1 1h2l1-2 2-1 3-1 2-2-1 4 1 2c1 1 1 1 2-1l1-2 2-4c0-3 1-4 2-3h2l-2-2-4-2-3-1-2-1 1-1c1 1 3-2 3-3l-2-1c-2 1-2 0-2-2l2-5 4 6v2l1 2c0 1 1 3 1 1l2-2 2-4v-3c-1 0-2-1-1-2l-1-2c-1-1 0-2 2-2h3c2-2 2-7 0-6l-2-1h-1l-1 1c-2 0-4-3-3-7v-3l4 1 2 1c2 0 2 3 0 4-2 2 0 4 2 3l4-1v2l-2 3c-1 1-4 7-3 10l-1 4c-1 1-1 1 0 0l1 1 1 2 1 2c0 1 0 2-1 1l-2 4-2 4-1 5 1 1 1-2 2-4c1 1 1 0 1-1l1-5 2-4 2-2h2v1l2-3 1-3c2-1 2 3 0 6s-2 5 1 5v-3h5c1 3 0 4-2 4h-3l2 2h4l2-1c1 1 6-3 5-4l-3 1c-2 2-3 1-1-1 1-3 3-3 5-1h2l1-1 1 1v1c2 1 0 3-2 2l-1 1-2 1-2 1c0 1-1 2-2 1h-1c0 2-5 8-7 8v-2l1-3-2-1h-8c-2 1-1 4 1 4h1v4l1 3 1-3 2-1h8c2 2 2 2 2 0l1-3v-3h2l2-1c0-1 1-2 3-1 6 1 8 3 8 4h3l2-2v1c-1 3 1 3 3 0l2-1 1-1-1-3-1 1h-1c-2 0-1-6 1-6l1 1c-1 1 3 5 5 5 2-1 2 0 2 3l-3 3c-3 0-3 0-1 2 1 1 1 1 4-2s9-4 6-1c-1 2-1 2 2 1h2c0 2-4 2-6 1l-2-1c-1 1 0 4 2 4l1 1-1 1-2 1-1 2-2 2c-1 1-1 2-2 1 0-1-1-1-1 2 0 4 1 5 2 1 0-2 1-2 2 0s1 2 2 0l1-2c1 1 1 8-1 9v1h2l2-1c2 1 5-3 5-5-1-1 0-1 1-1 2 0 3-3 1-5-2-1-2-1-2 1 0 3 0 3-2 1l-3-1-1-1c-2-2-1-3 1-3l2-3c0-2 1-2 3 0 1 1 1 1 1-1-1-1 0-2 2-3s2-2 1-4c-1-3-1-3-3-3h-3l-1-3v-2h1l2 2c3 0 3-2 1-3h1l2-1-1-2h-1v-1l3-1 3-1 1-2 1-1-1-1c-2 0-2 0-1-3 1-4 1-4 2-2h1l2 1v4c-2 3-1 5 0 4h1l1 1 1-3c0-2 1-3 2-3 2 0 3 3 1 4l-2 3-1 4c-2 2-2 2-3 0l-2-3c0-1-2-1-3 1l-1 4 2 2c2-1 2 0 3 2s1 2-1 4l-3 1-1 2c0 4 0 4 2 2 1-1 2 1 2 4s-3 5-5 5h-2l3 2c3 0 3 1 3 2h1c2-2 2-3 3-1v-2l-1-3v-1l1-4c0-2 0-2 2-2s3 0 3 3l-1 4v1c2 1 3 1 4-1 1-1 1-1 1 1-1 2 0 2 1 3s2 2 0 4c-1 1-2 1-4-1-1-2-2-2-2-1 1 2 0 2-2 3-2 0-2 1-1 1v3h-1c-2-1-4-1-4 1 1 1 0 2-1 2-3 2-3 5 0 4h3l1 1 1-2c0-2 3-5 4-4l1-1h1l1-1c-1-1 1-2 3-4 4-3 4-3 5-1l1 2v1l1 1v-6h-1l-1-1h-3l1-2v-3-1c2 0 7 6 6 8l2 2c2 1 3 2 2 3-1 2 1 2 3 0s2-2 0-2l-2-1 2-1c2 0 2 0 1-2l2 2c2 3 2 3 3 2 1-2 1-4-1-3l-2-2v-3-2l-1-1-3-2-4-1c-4 2-6 2-6-1l1-3v-2c0-1 0-2 1-1 2 1 1 0-2-3l-2-2h-1v-3c1-2 2-2 3-1h3l2-1c2 1 1 3-1 3v1h2l1 2 1 1 1 1c0 1 0 2 2 1v-3l1-2 1 1v2l1 2c0 2-1 2-3 2l-4-2-1 1 2 2 3 2 2 4c1 1 2 2 2 0h1l1-1c1-1 6-1 6 1h1c3-3 4-1 1 2-1 2-2 3-1 5 0 2 2 3 5 3 1 0 1 0 0 0v2c2 1 3-1 2-3l-1-1h-3c-2-1-2-4-1-3 2 0 4-2 4-3s3-3 4-2l1 4 1 4c2 0 3-2 1-4h1c1 0 2-1 2-3l1-2h3l3-1-3 3c-2 1-3 1-2 2l-1 1-2 2 1 1v4h2l4 1c0 2 4 2 4 0h6l2 2 1 1-3 1-2 1c0 2 2 2 3 1h2l1 3h1l1 1v-4l-3-7c0 2-2 1-2-1l2-3h-1c-2 0-2 0-2-2l2-4 2-4 1-1 1 3v1l2 2c0 2 1 2 6 0l4-1c1 1-4 5-6 4l-1 3v2l-2-2c-1-2-2-3-3-1-1 1-1 2 1 2l1 1 1 2c2-1 1 4 0 6-1 1-1 1 0 0h5c2 2 3 2 3 0 1-2 5-1 5 1v2l1-2c1-3 3-3 3 0 0 2-1 3-3 4-3 2-3 2-5 0-1-2-2-2-2 0l-1 3c0 2 0 2 1 1v-2l1-1c2 0 2 1 1 6 0 3 0 5 1 4 0-2 1-2 4 0l3 2-1-2v-2c1-2 3 0 2 2l1 2c2 0 2 1 1 3v1l1 1c-1 1 1 2 2 1 2-1 1-6-3-10l-2-4h1c3 5 4 6 5 3 0-2 0-2-1-1h-1c-2-2 1-3 2-1h2c0-1 1-1 2 1s1 2 1-1c-2-8-2-9 0-11h6l1 1h1l2 1h2c0 1 1 1 2-1 3-2 4-2 4 0 0 1 0 2 2 2 1 0 2 1 1 4l-1 3-1-2c0-2 0-2-1 0-2 2-2 4 0 6l1 2-2-1h-1l-1-5h-4l-1 8v2h-1l-2-3-1-2-1-3 1-3c2-2 2-2 2 1l-1 3 2-3 2-4c0-3 0-3-1-2-2 3-4 3-5 0-1-4-3-4-3-1v4 6 2c1 1 0 1-2 1l-4 1 2 1c1-1 5 2 5 5 1 2 4 2 5 0l-2-1c-2 1-2 0-1-2h3l2 5c0 1 1 2 2 1 2-1 5 0 5 1l8-5 2-1-1 1-1 1c0 3 0 4 2 5l-2 1-3 1h3c2 0 2 0 2 2s0 2-3 1l-4 1v2h3v-1 3l1 1 1-1 2-2 1-1c0-1 1-2 2-1h2l3 2c2 2 4 2 4-1s4-5 5-3v3c-1 2-1 2 1 2l3-1h3c1 2 1 2-1 2s-3 1-3 2l-3 2c-2 0-3 0-2-1 0-1 0-2-2-2s-3 2-2 4v2c-1 1-1 2 1 3h1l2-1 3-1h3c2 0 3 1 4 3l2 2 3 1c2 2 2 2 0 2-4-1-6-2-6-4h-1l-2 1v-3-1c-2 0-4 2-4 6 0 2 0 3 2 3s3 2 1 3-1 2 1 2l2-2 2-4h2l4 2c2 1 2 1 2 6-1 3-1 4 1 3 3-2 10 3 8 6v3c2 2 2 4 1 4l-1 2 2 2 1-1v-1l1-1c0-2 6-7 8-7l1-1 2 2c2 4 4 4 3 1l1 1c3 3 3 4 2 7h-1c-1-2-1-2-2-1-3 2-5 0-4-3l-1-3h-2c-2-1-2 0-2 3 1 3 0 4-2 3-2 0-4 2-3 4h3c0 2-2 4-4 4s-3 0-3-3l-1-3h-1v3c1 1 0 2-2 5-3 2-4 3-2 3l4-1c3-1 3-1 3 1-1 2 1 2 2 0s5-3 5-2l2 1v1 1l1 2v1h2c1 1 0 1-1 1v3c1-1 1 0 1 1l1 1v2l-2 3-2 9v2l1 1 2 1h1l-2 2-2 1-2 1h-2c0 2-3 4-5 3-1 0-1-1 1-2 3-2 3-4 1-4-1-1-2 0-1 1l-6 3c-6 0-7 1-8 2l1 1c2-1 6 0 6 2l4 1 1 2 3 1c2 0 2 0 1-1-2 0-2-2-1-2h3c1 2 4 2 5 1 1-2 2-1 2 0l2 3c1 1 1 1 1-1s2-3 4-1 2 5 0 3c-1-1-2-1-4 1-2 3-2 3 1 3 4-1 4 0 1 2l-3 3c-1 3-4 2-5 0-1-4-1-5 1-6l3-1h-3l-2 1h-2l-2-1-2 1-3 3-2 2c0 2 5 3 7 2l2-1-1 2c-1 1-2 2-1 3 1 2 1 4-1 5-2 0-4 3-2 4l1 3 1 2 1-1c-1-1 0-2 1-1h2c2 0 1 3-1 3l-2 1c1 1-2 2-4 1l-4-1v-2l1-5c0-3-1-4-2-3l-2 1h-6l-4-2c-1-2-2-3-3-2h-3l-1 1 2 1c2 0 2 0-1 2-2 2-2 3-2 5v5l-1 1v1l-2 2c0 3-1 5-3 4-2 0-5 4-4 6v3c-1 1 5 9 6 9s2 1 1 2c0 2 0 3 2 5 2 1 3 2 2 3 0 2-1 2-5 2s-5 1-5 2c1 2-1 3-2 0h-2l-5 1c-4 0-6 1-6 4l-2 4-1 3-2-1c-2-1-4-1-4 2l-2 2c-1 1-1 0-1-1 1-1-8-6-10-4l1 1 1 1c0 2-1 2-4 2l-2 1h-2c1-1 0-2-1-4l-1-3v-2c-2-1-6 1-6 2l-2 2v1l2 2 1 2c2 1 2 4 0 4l-1 3v2c-2 1-2 4 1 4 1 0 2 0 2 3s-1 3-4 2h-5v5l-1 3-2-3c-3-3-3-4-1-3s2 1 1-1h-7l-4-2c-2 0-4-1-5-3-1-3-1-3 1-5 4-2 3-3-2-1h-5l-5-2c-3 0-4 0-4 2s3 2 4 1l2-1v2c2 1 1 5-1 5-1 1-1 0-1-1 1-1-2-3-5-3-1 0-1 3 1 6 1 3-1 6-3 6v-2c1-1 0-2-2-3-3-2-4-3-5-1 0 1-1 1-1-1 0-7 1-6-5-6l-6 1v-1c0-2-1-2-4-1s-9-1-13-3c-2-1-3-1-5 1-2 4-2 7 0 8 3 1 3 3 1 3l-1-2c0-1 0 0 0 0h-2l-3-1c-1 1-2 0-2-1l2-3v-2c0-2 0-2-1 0 0 2-2 3-4 2l-1-2v-1l-1 2v2l-2-2c0-3-1-3-2-1-1 1-4 0-3-1s-3-3-5-3l-9-5c-6-4-7-4-6-2 1 3 0 4-2 4-2-1-4 1-3 2l1 2-1-1-2-4 1-6-3-1c-2 1-3 1-3-1l-2-2c-3-1-3 0-4 1 0 2 0 2 1 1l1 2-1 3v-2l-1-1-1 2-2 4c-2 0-2 0-1-3l-1-2-2-2v-2l2-1c2 0 3-1 1-1l-3-2-3-3c-2-1-3-1-6 2-1 1-3 3-4 2l-1 1-7-1c-2-1-5-1-5 1h-2c-2-2-4 0-3 2v1c-2-1-4 0-4 2l-2 3v-1l-1-2c-2-2-3-1-2 1l-2 4-1 3-1 1-2-1-2-1c-2 1-2 0 1-3 3-4 3-6 0-6-2-1-2-1-2 2 1 3 0 4-1 5h-3l-4-1c-3 1-7-2-7-5l-1-2v2l-2-1-1-1-1 3-2 3c0 2 0 2-3 2-2-1-3 0-3 1-1 2 0 2 4 3h2l1-2c3 0 3 4 1 5-1 1 0 1 1 1 3 0 5 2 3 4l-4 5-7 4-5 2h-7c-1 1-1 0-2-1 0-2-1-2-2-2-1 1-1 0-1-1l-2-1-3-2-1-1v-2c2-3 2-7-1-7l-2-1-3-1c-3 0-3 0-3-3l-1-2-3-2c-1-1-2-1-1 1l-1 2c-2-1-3-6-1-8l6-1 4 1 4-2-2-1h-1l-1-3v-1c1 1 2 0 2-1l-1-2-2-2h-3c-2 1-3 5-1 5l1-1c0-1 3-2 4-1s1 1-1 1l-1 1c0 2-5 5-6 4l-4 2c-5 4-7 4-7 1l2-1c1 1 2 0 2-2l2-1c2 0 4-3 3-4l-3-1-2 1c2 0 2 2-1 2l-2 2-1 2-2 1c0-2-1-2-3-2s-3-1-3-2l-1-2h-10l1 1 2 1h5c1 2 1 3-1 3l-1 2c0 2-5 3-6 2h-3l1 1c2 0 4 2 3 3v3h4v4c-2 1-5 0-6-2 0-1-1-2-3-1-3 0-3 0-3-2l1-4 2-1-2-1-1-1h-1l-2 1-1 1-2 1-3 2 1 1c1-1 2 0 2 2s0 2-2 2c-2-1-2-1-2 1 1 3-1 6-2 5h-7c-3-2-4-3-2-5 1-1 4 0 4 2l2 1v-1l-1-2c0-1-1-2-2-1l-1-2 1-1h4l3 1v-2l-1-1v-1c-1-2-7-2-7-1v3l-2 1c-2 0-3 2-2 4h-2l-1 1-1 3c-1 2-1 2-3 1-2-2-2-2-2 0l1 3c1 0 2 1 1 2h-1c-1-1-1-1-1 1 1 1 0 3-1 4v4h-2c-2-1-2 0-3 2-1 1-2 2-3 1l-2 1-2 1v2c1 3 1 3-2 2l-4 1h-2l-1-2-1-1 1-1h4c3-1 4-3 1-3l-1-1c1-2-2-1-3 1h-2l-2 2c0 3-3 3-8 3l-4-3-1-2-3-1-2-1-2-1c-1-1 0-2 1-2 1-1 1-1-2-3l-4-1v3c2 1 2 1 0 4l-3 2 1 2c2 1 2 1 1 2h-4l-4-1-1-1c0-1 1-2 2-1l3-1c0-2-3-5-6-5-1 0-2 0-2-2l-1-2v-1l3 2 4 1 4-4 2-4c2 0 3-1 3-2l3 1 2 2-2 1c-2 2-2 2 0 2l3-1c2-2 4-1 6 2 1 3 1 3-1 1h-3v1l3 4 1 3h-1l3 1c2 1 4 1 8-1l-3-8c-2-1 1-2 5-1s4 1 4 4l1 3c1-1 2 0 3 1 3 2 4 2 4 1l-1-1-1-1-1-4c-1-2-2-2-2-1-1 2-2 0-1-3 0-4 1-4 4-2h2c1-1 1-1 1 1h1l4-2c2-1 2-1 0 1v1l1 1c0 1-1 3-4 5-2 1-2 1 0 2h2c0-2 1-3 3-4l2-2-1-4v-2h-2v-1c2 0 4 0 4-2l1-1c1 1 2-2 1-4l-4-1-1-2c2-1 2-2 1-2l-1 1-2 2 1 1c4 1 3 4-1 4h-2c2 1 2 5 0 5l-1 1c0 1-4 1-6-1h-5c1-1 0-1-1-1l-1 1c1 2-1 3-4 3l-2-1 3-3c2-2 0-3-6-4-2 0-4 0-3 1 1 0 0 4-2 3l-1-2c-1-2-2-3-4-3v1c1 2-6 2-8 0-2-1-4-1-4 1l2 1 1 2c-1 2-2 2-3 1l-3-1-1-1 1-1c2 0 1-3-1-3-3-1-7 0-7 2l4 1 2 2 2 3v2l-1 2v1c-1 0-2-1-2-3 1-2 0-3-2-2l-2 1-3 1c-2 1-3 1-2-1 1-3 1-3-1-1s-2 2-2 0l1-3c3-2 0-4-4-3-2 0-3 1-3 2h3l2 1c0 2-7 6-8 4h-2l1 1c2 1 2 4 0 5l-1-1c-1-1-1-1-2 1l-1 2-2 2-3 2c0 2-2 2-6 2h-1l-1 3c-3 2-3 6 0 5l4 1c2 1 2 2 0 2l-1 1-1 3-1 2 2-2h4l4-1 1-2-2 1c-1 2-2 0-2-6 0-7 1-10 4-9 1 0 2 0 2-2l1-1 2-1c1-2 2-2 3 0l2 1c1 0 0 0 0 0l3 1c3 0 3 0 2-2v-3c1-2 2-1 4 2 4 3 4 4 1 4l-2 1 2 1 3 1c2 3-1 6-6 6-4-1-5-3-2-5 2-1 2-1 0-1l-3 4c-1 3-2 4-4 3h-3v-3c0-1 0-2-2-2-2 1-3 0-3-1s0-1 0 0l1 2c1 1 2 3 0 5l1 3c1 1 1 0 2-1s5-2 5 0c0 0 0 2 2 3 2 2 5 1 4-1l1-2 1 1c0 2 4 3 7 2h4c0 3 1 4 3 4h3l-4 4v1c2-1 3 0 5 2l3 3-2-2c-4 1-10 7-9 9s-1 3-4 0l-5-1h-1c1-1-5-3-6-3-1 1-1 0 0 0l-2-2-2-2-2-4v-1l1-1-3-1c-3 0-3 0-3 3v5c0 2-1 2-2 1l-2-1v-1c1-1 1-2-1-2-1 1-1 0-1-1 1-1 0-3-1-3v-2h-1c-1 1-4-1-3-3l-1-1c-1 0-3 6-2 7l3-1c3-1 4 0 2 2l-4 2-3 1-3 1c-3 0-3 0-2 3v6l2 4 1-1-1-1h9c2 1-1 3-4 2h-4-3zm9-26l1-3c0-2-1-2-4-2-4 0-6 2-4 4l7 1zm-6-8c-1-2-3-2-3-1s1 2 3 2v-1zm-24 0l-4-2c-2 0-2 1 0 2h4zm-41-5l-1-1-1 1 1 1 1-1zm-4-5c0-3-1-3-2-2-1 2-5 2-5 0h-1c-1 1 3 4 6 4l2-2zm39 0l-1-1-1 2 1 1 1-2zm36 0c-1-2-4-4-5-3s3 3 6 4l-1-1zm-63-2l-1-1c-1 0-2 0-2 2h2l1-1zm8-2c0-1 5-3 6-1 1 1 2 1 2-1l-1-1-1-3-2-2c-1 0-4 2-4 4l-4 3c-4 1-4 3 0 2 3-1 3 0 3 1-1 0-1 1 0 0l1-2zm64-1v-2c2-1 0-3-1-2l-1 1-2 1c-2-1-3 0-1 1 0 2 5 1 5 1zm78-2h-1l-1 1 1 1 1-2zm329 0l-3-2c-2 0-2 1-1 2 2 2 4 2 4 0zm6-1c2 0 3-1 3-3 1-4 0-7-2-7l-1 2c1 2-2 5-4 5v2c1 2 2 2 2 1h2zm-485-1c1-1 0-6-2-6s-5 2-3 2l-1 2c-2 2-2 2 0 1 2-2 6 0 4 2-1 0-1 0 0 0l2-1zm20 0c0-2-2-3-2-2-1 1 0 3 1 3l1-1zm428-1l-2-1-1 1 2 1 1-1zm31-1l1-2 1-1v-2c-1-1-3 1-3 3l-1 2v1l2-1zm-426-2l-1-1-1 1 1 1 1-1zm18 1v-6h-1c-3-1-4 2-2 3v2c-1 1-1 2 1 2l2-1zm-40-2h-3v1l3-1zm-26-2c2-1 0-4-2-4l-4-1h-2l2 1 1 1 1 3c0 2 1 2 4 0zm32 2l-1-1-2 1 2 1 1-1zm-76-1l1-2h-1l-4-2c-3-1-4-1-4 1v2c0 1 0 0 0 0l1-2 1 2 3 1h3zm105-3l-1-1-1 1 1 1 1-1zm15 0l-2-1-1 1 2 1 1-1zm-131-1l-2-2c-2 0-2 1-1 2l2 1 1-1zm40 0l-1-1v2c1 1 1 1 1-1zm27-3h-1l-1 2h1l1-2zm137-2c0-2-3-5-4-4l1 3 1 4c-1 2-1 2 1 0l1-3zm-163 1l-1-3v4l1-1zm102-1c1-2 0-3-2-2s-2 5-1 4l3-2zm-70 0c-1-3-3-3-3-1s1 3 2 3l1-2zm91-1v-2l1 1 1 1 1-1 1-2 1-1h-4l-4 1h-2c-2 0-2 3 1 4s4 1 4-1zm29 1c-3-2-4-2-4-1l2 2c3 1 4 0 2-1zm120-1l3-2 2-3 1-1c0-1 0-2-1-1l-1-1h-2l-3-1h-1c-1 1-5-2-8-5l-2-2v2l1 2c2 0 3 2 3 4h-3c-2-1-3-2-2-3 0-2-2-3-3-1l-3 1c-2-1-2-1 1 2s3 3 2 7l1 3 2-1h1c1 1 1 0 2-1 0-2 4-2 4-1 0 2 3 5 4 3l2-1zm-12-4l-1-3c1-1 1 0 2 1 1 3 1 3-1 2zm5 0l2-3h2c2 2 1 2-2 3h-2zm6-1l1-2 1 2c1 1 0 1-1 1l-1-1zm-313 4c-1-1-1 0-1 1l1 1v-2zm185 0l2-2h-2c-1 1-1 0-1-1 1-2 0-2-1 0l-1 4 1 1 2-2zm167 0c-1-1-1 0-1 1l1 1v-2zm-283 0h-2c-1 1-1 2 1 2l1-2zm20 0l-2-1 1 1c1 2 1 2 1 0zm107 0v-2l-1 2c0 2 0 2 1 0zm25 0l-1-1-1 2h1l1-1zm-242-4c-1-2-2-3-4-3-2 1-2 1-1 2l3 2c2 0 2 1 1 1-2 1-1 2 1 2s2 0 0-4zm74 3l-1-1v1l1 1v-1zm125 0l-2-1v1c2 2 2 2 2 0zm36 0l-1-1-1 2h1l1-1zm111-2l-2-1c-3 0-4 2-3 3 0 2 4 0 5-2zm93 2c1-1 0-1-1-1v2l1-1zm-77-3h-2c-2 1-2 2-1 3 2 0 3-1 3-3zm-338 1l-1-2-1 2 1 1 1-1zm287 1c0-2-2-3-3-2s1 3 2 3l1-1zm-69-4h-1l-2 2h2l1-2zm-26 0c1-2 0-2-1-2-2 1-3 4-1 4l2-2zm38-1l-1-1-1 1 1 1 1-1zm10-1h-2l-2 1 2 1 2-2zm85 0c3 1 3 0 2-1v-2l1-3c0-2 0-2-1 0l-3 1-1 1-2 3-2 3h1c1-1 2-2 5-2zm14 1c1-1 1-1 0 0-1 0-2 0-2-2l-1-2h-1l-1-2c-1-1-2 2-1 3l1 3c1 2 3 2 5 0zm11 1l-1-2-1 1 1 1h1zm6-1l3-1 4-2 2-3-2 1c-1 1-3 0-2-3 1-1 1-1-2-1-2 0-2 0-2 3l-1 3-1-1-1-1-4-3-2-2-1 2c-1 3 0 3 2 1 1-1 1 0 2 1l1 4v3c-2 1 1 1 4-1zm-9-2c-1-1-4-1-3 1l2 1 1-2zm-143-2v-3l-1 3c-2 3-2 4 0 4l1-4zm12 2l-2-1 1 1c1 2 1 2 1 0zm-236 0l1-2-2-2-2-1h-7c-1 0-2 1-1 3 1 1 1 2 1 0 1-2 7-2 8 1l2 1zm249-2l-3-1c-2-1-3 2-1 3s4 0 4-2zm18 0c0-2-4-6-8-6-2 0-3 2 0 3l2 3c0 2 2 2 2-1l1-2 1 2 1 3 1-2zm71-1l3-1-1-1c-1-2-3-3-5-2l-2-1-2-3h-2l-1-1c-2-2-2-2-3-1-1 2-1 2 3 4l3 3h-1l-1 1-1 1-1 1 1 1h1c0 2 8 1 9-1zm-97 0l-2-2-2-3h-2v3l2 2c4 2 7 2 4 0zm15-1l-1-1-1 1 1 1 1-1zm56-1h-1l-1 2h1l1-2zm81 1h-3l2 1c2 0 2 0 1-1zm-146-2l-1-2-1 2c-1 2 1 2 2 0zm52-4c-1-4-1-5-5-5-4-1-4 0-4 2h4l2 1c1-1 1 0 1 1s0 2-2 1l-2 1h1c1-1 1 0 1 1-1 1 0 1 2 1s2 0 2-3zm20 3l-1-1-2 1 2 1 1-1zm84 0c1 1 1 0 1-2l-2-2-2-1c1-3 0-3-3-3s-3 3 0 3c3 1 5 3 3 3l-1 1h2c1-1 1-1 2 1zm-146-2v-2c-1-2-3-2-3 1-1 2 0 2 1 2l2-1zm32-1c0-2 0-2-3 0l-5 1h-1l5 1c3 0 4 0 4-2zm-296 1l-1-2c-1 0-2 0-1 1 0 2 2 2 2 1zm285-1l-1-2v2l1 1v-1zm-14-4l-1-1-1 2h1l1-1zm8 0l-1-1-1 2c0 1 1 1 2-1zm-299-2l-1-1-1 1 1 1 1-1zm316 0l-2-1-2 1 2 1 2-1zm-304-3l-3-4c-2 0-2 0-1 2l3 3 1 2h1l-1-3zm-10-1c-1-1-2-1-2 1l1 1 1-2zm3-9l-1 1v1l1-2zm-13 0c0-1 0-2-2-2l-2 2c-1 1 0 1 1 1l3-1zm-23-11c-2-2-3-2-4 0 0 2 1 2 3 2 2-1 2-1 1-2zm33-1l-1-1-1 2 1 1 1-2zm-5 0l-1-3c-2-2-2-2-3-1v3h-3l4 1h3zm-8-4c0-1-3-4-5-4l-1 1h1c1 0 2 0 1 2 0 1 0 2 2 2l2-1zm-12-8c3-1 5-3 3-3-1 1-2 0-2-1 1-1 0-2-1-2l-1 1-1 2h-1s-1-2-2-1c-3 0-4 1-1 2l1 2 1 1 4-1zm20 0h-1l-1 1 1 1 1-2zm5-4l-2-1v1l1 1 1-1zm-34-3c0-2-3-3-3-1-1 1 1 4 2 3l1-2zm698-4c-1-3-1-4 2-4l2-2h-2l-4-1c-2-1-2-1 0-1 3 0 5-4 3-6s-4-2-4-1l2 3v2c-1-1-2 0-4 2l-1 2-1 1c-1 1-2 2-1 3l-2 2c-2 1-2 1 0 2l3-1c1-2 1-2 2 1 1 4 1 5 4 2 2-2 2-2 1-4zm-4-1v-4c1 0 3 3 2 4h-2zm-670 6l-2-2-1 1 2 2 1-1zm6-1l-1-1-1 1v1l2-1zm-19-2l2-1c1 1 3-2 2-4 0-2-2-2-2 0-1 2-3 2-4 0h-3c-2 2-2 3 1 3l1 2c0 2 2 2 3 0zm677-6h-1c-1 0-2 0-2-2l-1-2-1 3v3l-1 2c0 2 0 2 3 0l3-4zm-8 4l-2-1c-2 1-2 1 0 1h2zm-659-3l-1-1-1 2h1l1-1zm-21-1l-2-3h5c1 2 7 0 7-2l-1-1c-3 0-5-1-5-4-1-3-2-3-3 1 0 2-1 3-2 3h-2v6l2 1c2 0 2 0 1-1zm689-5c2-3 1-6-2-6l-2 1 2 1 1 1c-1 1-4 2-4 0 1-3 0-4-1-4l1 8c3 1 4 1 5-1zm-671-2c1-1 1-1-2-1s-3 0-1-2c1-2 1-2-2-4l-3-2-1-1-2-2v1l-1 1-2 2 3 1 4 1c2 1 3 3 1 3v2l2 1 2 2h1l1-2zm659-1v-2c-1 0-2 0-1 1l-2 1c-2 0-2-1 1-4s4-4 2-5v-1l-1-2c-1-1-1 0-1 2 1 3-1 7-3 6-1-1-1 0-1 2s1 2 2 2h4zm-658-5l-1-1-1 1 1 1 1-1zm61 0h-3c-1 1-1 1 2 1 1 0 2 0 1-1zm-83-3h-1c0 1 1 3 2 2l-1-2zm45 0l-1-1v1l1 1v-1zm-44-2h-2 2c1 0 1 0 0 0zm693-1l-1-1v1l1 1v-1zm-680-1v-2c2-1 1-3-1-5h-3c0 1-1 2-2 1l-2 1-1 2h1l2-1 2 3 1 1 3 1v-1zm672-1c1 0 1 0 0 0-2-1-1-3 1-3 1 0 2 0 1-1l-1-1-2 1c-1 0-2 1-2 3l1 3 2-2zm-648-4c-2-1-3-1-2 1 1 5 1 5 2 2v-3zm658 3v-2l1-1v-1l-2 1-2 1v2l1 2h2v-2zm-647-2h1c0-2-3-2-4 0l-1 1v1l2-1 2-1zm621 3l-2-4-1 2 2 2h1zm-684-4c-1-1-2 0-1 2h1v-2zm68-3c-1-3-2-1-1 2 0 2 1 2 1 1v-3zm638 0h-1l-1 3 1-1 1-2zm-617 1l-1-1-1 1 1 1 1-1zm620 0l-1-1-1 1 1 1 1-1zm-658-3l-1-1c-1 1-2 1-1 2l2-1zm9-3l2-3v-1c-3-1-4 0-4 4-1 3 1 3 2 0zm630 1v-3-2c-1 1-3 2-3 4-1 2 0 2 1 2l2-1zm20 0c0-2-1-4-2-3-2 1-2 1-1 2v2l1 1 2-2zm9-3c-1-3 0-4 2-4 1 1 2 0 3-1v-1l-3-3c-1-2-3-2-4-2-2 1-2 1 0-1v-1c-1 0-3 1-3 3l-1 3 4-1c2-1 2-1 1 1v1l-2 4c-2 2-2 3 0 3 0 0 2 0 2 2 2 2 2 2 1-3zm-688 3l-2-1-2 1h4zm88 0l-1-2-1 1c-1 2 1 2 2 1zm-97-3c1 1 1 1 1-1l-1-2-2 2c0 1 0 2 1 1 0-2 1-2 1 0zm123-4c-1-1-1 0-1 1l1 1v-2zm-45-1v-1c-1 1-2 0-1-1s-1-1-2-1c-2 0-2 0-1 3 0 2 1 2 4 0zm-50-2l1-1c0-2 0-2-2-1l-2 2 1 1 2-1zm629-3c-1-1-4 0-4 2h2l2-2zm22-1l-1-4c-1-1-3 4-3 6 2 3 3 1 4-2zm8 2c0-2-1-3-3-2-1 1 0 3 2 3l1-1zm-384-2l-1-1-1 2c0 1 1 1 2-1zm-268-1l-1-2-2-1 2-1 2-1-3-1c-1 0-2 1-2 3 0 3 1 4 3 4l1-1zm27 0h-1l-1 1 1 1 1-2zm246-1h-1l-2 2 2-1 1-1zm-255 0l-1-1-1 2h1l1-1zm34-1l-2-1 1 1c1 2 1 2 1 0zm589-5v-5c1-2 0-2-2-2h-1v2c-1 1 0 2 1 2 1 1 0 2-2 2l-1-2-1-2c-1-1-1 0-1 1l1 3c0 1 1 2 4 2l2-1zm-635-2c1-3 3-3 3-1l4 1 3-1-2-2-5-3-2-2h-1l-1 10 1-2zm47 0h-1l-1 2h1l1-2zm3 1l-1-1v1l1 1v-1zm-12-3h-1l-2 1 2 1 1-2zm608-3c4-2 7-4 6-5h-4l-4 3c0 3-2 2-2-1 0-2 0-2-1 0l-2 2-1 3c0 3 1 3 1 2l7-4zm-621 2c-1-1-1 0-1 1l1 1v-2zm590 2h-2 2c1 0 1 0 0 0zm-568-3h-1l-1 1 1 1 1-2zm39 1h-1l-1 1h1l1-1zm-43-2h-2 2c1 0 1 0 0 0zm587-2h1c0-1-2-3-5-3v2c1 2 2 2 3 1h1zm-625-1v-2-2l-2-1c-1 1 0 6 1 6l1-1zm606-1c0-1-1-1-2 1h1l1-1zm-590-4l-1 1c-1 3-1 4 1 2v-3zm614 3l-2-2c0-2 0-2-1-1v2l1 2h1l1-1zm-590-1h-2c-1 1-1 1 1 1l1-1zm16-1h-1l-1 2h1l1-2zm585 0l2-4v-3l-1 1-2 4-2 3c2 2 3 1 3-1zm-630-1c-1-1-4-3-5-2 0 1 3 5 4 4l1-2zm3 0c-1-2-3-2-2 0l1 2 1-2zm119 1l-1-1-1 1 1 1 1-1zm-111-2c-1-1-2 0-1 2h1v-2zm45-1l-1-1c-1 1 0 4 1 4v-3zm572 0c1-2 1-2-1-3-2 0-2-1-1-2l2-1h1v-2h-2l-2 1c-2 0-2-3 0-4 3-1 0-2-5-2l-6 1v3 2c1-3 3-3 5-2l-1 1v1l-2 2c-2 0-2 0 0 2h3l-1 2v1c2 0 2 0 2-3-1-4 0-5 3-1 1 2 1 5-1 4l-1 1c0 2 5 1 7-1zm-673 0l-2-2h-2c0 1 0 2-1 1-2-1-3 1-2 2s7 0 7-1zm53 0l-3-2c-1 0-1 0 0 0v-2l-2 1c0 1 0 2 2 3 2 2 3 2 3 0zm-15-1c1-1 1-1-1-2h-2l-2-2-2-2 1 3v3c0 2 5 2 6 0zm605 0l-2-2 1 2c2 2 3 2 1 0zm18-1c-1-1-2 0-1 2h1v-2zm-630-2h-1l-6-3 1-1 1-2c1-1 2-2 4-1l2-1h-1l-1-1c-2-2-4-1-4 1l-2 1c-1 0-2 1-2 3l-1 3c-1 1 1 3 5 4 3 0 5-1 5-3zm65 2l-1-4c0-2-3-2-4 0v1h1c-1 1 2 4 3 4l1-1zm-31-1c0-2 0-2-2-1s-2 2 0 2l2-1zm3-1v1l1 1-1-2zm20 1l-1-1-1-2c0-1 0-2 2 0h1c0-2-3-3-4-2v4c2 3 2 3 3 1zm564 0l-1-1-1 1 1 1 1-1zm-633-2v-2l-1 2v2l1-2zm632 0c1-1 0-1-2-1l-3 1h5zm-589-1l-2-1-2 1 2 1 2-1zm132 0c-1-2-3-2-3-1s1 2 3 2v-1zm49 0l-1-1h-4l1 1h2c0 2 2 2 2 0zm382-1h-1s-2 1-1 2c0 1 2 0 2-2zm-583-1l-1-1-1 2 1 1 1-2zm77-1l-2-1h-2l1 3c1 2 3 1 3-2zm62 2l-1-1-1 1h2zm106-1l-2-1c-1 0-2-1-1-2s-1-2-2-3l-2-2v5l1 1 3 3c0 1 2 1 3-1zm-204-1l-2-3c-1-3-3-2-3 1s0 3 3 3l2-1zm523 0l-1-3c-2 0-2 0-1 1v2l-1 1 2 1 1-2zm40-1l1-2-2 1-2 2 1-3-1-3-1 1-2 1 1 1 1 2v2c2 0 4 0 4-2zm10-1c-1-1-1 0-1 1l1 1v-2zm-600-1l-1-3v3l1 2v-2zm21-1l-1-3-3-1h-1l5 7v-3zm538 1h-1l-1 2h1l1-2zm18 1h-1l-1 1h1l1-1zm-597-2l-1-1-1 1 1 1 1-1zm127-1c-1-1-2 0-1 1l1 1v-2zm5 1h-1s-2 0-1 1l2-1zm-17 0l1-2c0-1 0-2-1-1h-1l1-2v-2l-1-1-1 1h-2l1 2 1 3 1 2h1zm443-2c-1-1-1 0-1 1l1 1v-2zm26 1l-1-1-2 1h3zm36 1l2-3-1-1-3 1c-1-1-3 1-3 3h5zm-549-2l-1-2-1 2 1 1 1-1zm-44-2c-1-1-4-1-4 1l2 1 2-2zm4 1l-2-2c-2-1-2-1-1 1 2 2 3 3 3 1zm57-1c1-2 1-2-1-1s-2 3-1 3 2 0 2-2zm-26-2c-1-1-1-2-2-1 0 2 2 5 3 4l-1-3zm15 1h-1l-1 2h1l1-2zm531 0l-1-1v2c1 2 1 2 1-1zm-543 0l-1-1v2c1 1 1 1 1-1zm525 0l-1-1-1 2h1l1-1zm-518-4c-1-4-2-3-1 1 0 4 0 4 1 3v-4zm10 3l-2-2c-1 0-2 0-1 2 0 2 2 2 3 0zm74-3c0-2-2 0-3 2 0 3 0 3 2 1l1-3zm461 1v-1c-1-1-1-1 1-2v-1c-2 1-2 0-2-1 1-1 0-1-1-1l-1 2c1 2 1 2-1 2-3 0-3 0-2-2v-2c-1-1-1 0-2 4-1 2 0 2 1 2l2 1s1 0 0 0l1-2 1 2c0 3 0 3 1 1l2-2zm-577 0c0-1 0-2 1-1v-3c0-2 0-3 1-2l1-1 3-2 2-2c0-2 0-2-2 0l-2 1c0-2-8 6-8 8s2 4 4 4v-2zm12-2l-3-1h-1l2 3c0 2 1 2 1 0l1-2zm70 1l-2-1c-2 0-2 2-1 3s3 0 3-2zm-23 0h3c2 1 3 0 2-3l-1-1-1 1c-2-1-2-1-3 1l-1 4 1-2zm53-1l-1-1-1 1 1 1 1-1zm439 1l-1-1-1 1h2zm-565-2l-2-1v1l1 1 1-1zm53-3l1-4v-1l1-1c0-1-3-1-3 2-1 2-3 1-3-1l-1-2v7c-1 3 0 4 2 4s3-1 3-4zm83 1l-2 2c-1 2-1 2 1 0l1-2zm-99 1l-1-1v1l1 1v-1zm123 0l-1-1-1 2c0 1 1 1 2-1zm60-1l-1-1-1 2 1 1 1-2zm-97 0l-2-2c-1 0-1 1 1 2 2 2 3 2 1 0zm84-1c2-3 1-5-1-5s-2 2-1 3c2 1 1 2-1 2-3 0-7-4-6-6l-1-3-1 2-2-2-2-4-2 2-2 3 2 1 4 2v1c0 3 4 6 6 5h2c1 2 4 2 5-1zm-204-1l-2 1c-1 2-1 2 1 1l1-2zm481-1v1l1 1-1-2zm-476-1l-1-1-2 2 2 1 1-2zm37-2c0-2-5-3-7-1-1 1-1 0-2-1h-2c-1 1-1 2 1 4h3c1-2 2-1 1 1 0 2 0 1 3 0l3-3zm59 1l-3-1 2 2c3 3 4 2 1-1zm34 2a1 1 0 0 0-2 0 1 1 0 0 0 2 0zm417-1l-1-1c-1 0-2 0-2 2h2l1-1zm15 1v-4c-1-1-1-1-1 1l-1 3v1l2-1zm-570-1l-2-2-2 2c-1 1 0 1 2 1s2 0 2-1zm76-1c-1-1-3-1-2 1l1 1 1-2zm20 0c-1-1-2 0-1 2h1v-2zm16 1l-2-2c-1-1-2-1-2 1v1l1 1 2 1 1-2zm9 1l-1-2c-2-1-2 1-1 2h2zm43-1l-2-1-2 1 2 1 2-1zm356 0h-1l-1 1h1l1-1zm39 1c-1-1 0-2 1-2l1-4 2-3c2-2 0-3-3-1-2 1-3 1-2 2v2c-2 1-3 0-2-3 0-2 0-2-1 0-2 1-2 2-1 2l2 4c0 2 1 3 2 3h1zm21-3l-1-1-2-2h-1c-1 1 0 4 2 4v1l1 1 1-3zm12-1c-1-2-7-5-9-4-1 1 1 3 3 2 2 0 2 1 2 2l1 3c1 3 3-1 3-3zm-2 1v-1l1 1v1l-1-1zm-448 0h-1c0 1 1 3 2 2l-1-2zm-137-1h-2l-2-1-2-1 2 2c3 2 4 2 4 0zm561 1l-1-2-1 2 1 1 1-1zm-537-2v1l1 1-1-2zm123 1l1-1v-1c2-1 2-1 0-2l-2 1-1-1c0-1 0-2-1-1l-2 2-1 2-1 1c0 2 5 2 7 0zm14 0h-1l-1 1h1l1-1zm-91 0l-1-3h-2l1 2c1 2 2 2 2 1zm-87-2l-1-1v1l1 1v-1zm111-1c3 1 3-2 1-5l-2-1-1-1h-1l1 2c2 2 2 3-1 3-1-1-1 0-2 2 0 2 1 3 2 1l3-1zm475 1h-1l-1 1h1l1-1zm-111-1h-1l-1 1h1l1-1zm-434 0l-1-1h-2l2-2 2 2c0 1 2 1 2-1s1-2 1 0c1 2 3 3 2 1l1-2c1-2 2-1 3 0 1 2 2 2 3 2l1-1 2-1v-2l-3 1c-2 0-3 0-4-2-1-3-5-4-5-2l-2 1-6 5c0 2 3 3 4 2zm32-2l-2-1c0 1 2 4 3 3l-1-2zm459-2l2-4v-4c0-1 1-2 3-1 3 0 3 0 1-3v-1l1-1-4-1c-2 0-2 0-2 5l-2 6c-2 1-2 1 0 1v2l-2 2v2c0 1 1 1 2-1l1-2zm-453 2l-1-1-1 1 1 1 1-1zm388 0h-1l-1 1h1l1-1zm-334-1l-1-1v1l1 1v-1zm45-5l-6-4 2 1 1 2 3 4c2 3 3 3 3 2l-3-5zm-145 3c-1-1-2 0-1 2h1v-2zm29 1c0-2-2-2-2 0v1l2-1zm35-3l1 3v1c4-1 1-5-3-6h-3c1 1 0 2-1 2h-1l-1-2 1 2c1 2 2 2 3 2h1c0 2 0 3 1 1l2-3zm414 2l-2-1c-2 0-3 1-2 2 2 1 4 1 4-1zm51 0l-1-1-1 2h1l1-1zm20 0v-3l-1-2-2 2h1v2l1 3c2-1 2-1 1-2zm-449-1l-1-2h-2v2c1 2 3 2 3 0zm410 0l-1-1-2 1 1 1 2-1zm-26 0c3-2 1-3-2-1-3 1-3 1-1 1h3zm57-2l-2 1c-1 2-1 2 1 1l1-2zm-520-1l-1-3v-2c0-2-1-3-3-1s-2 2 0 2c1-1 1 0 1 2-1 2 0 4 1 4l2-2zm28 2c1-1 0-2-1-2h-1c0 2 2 3 2 2zm416-1l-1-1-1 1 1 1 1-1zm50-1c0-2-3-4-3-2v3c-1 1 0 1 1 1s2 0 2-2zm-445 0l-1-2-1 2c0 2 1 2 2 0zm352 1l-1-1-1 1h2zm102 0h2v-3c-1-1-4 0-4 2s0 2 1 1c1-2 1-2 1 0zm-47-2h2c1-2 0-3-3 0l-1 1 2-1zm33-1h-1v2l1-2zm-458-1c-1-1-3 0-3 1l2 1 1-2zm101 0c-1-2-1-3 1-3l1-2 2-1c2 1 2 1 0-1-1-2-1-2-2 0l-2 1-1 1-1 3v3c2 2 2 2 2-1zm337 0h-1l-1 1 1 1 1-2zm17 1l-1-1-1 1 1 1 1-1zm13 1l-1-2c-2-2-3 0-2 1 0 2 3 2 3 1zm-402-2l-2-1 2 2v-1zm416-2h-1c0 1 1 3 2 2l-1-2zm-132-2c0-4 0-4-1-2l-1 2 1 2 1 2v-4zm39 1c0-2 0-2-1-1v3c1 1 1 1 1-2zm-16-1l-1-2v2l1 1v-1zm29-1h-2l-1 1h2l1-1zm32 1h-1l-1 1h1l1-1zm11 0l-1-1c-1 1-1 2 1 2v-1zm-33-2l-1-1-2 2h1l2-1zm-414-1l-2-2v2l2 2v-2zm369 1h-1l-1 1h1l1-1zm-228-1l2-2v-1h-2l-2 1c-2 0-2 2-1 3s2 1 3-1zm288 1h-1 1zm-271-1v-2c2-1 1-2-1-2-3 1-4 2-2 3 2 2 3 2 3 1zm227-2h-1l-4-1c-2-3-4-2-2 0 4 3 7 4 7 1zm-31-1l-1-3v3l1 2v-2zm52 0l-1 1v1l1-2zm15 1c-2-2-6-3-6-1-1 1 0 1 1 1h2l2 1c2 0 2 0 1-1zm10-2c-1-1-1 0-1 1l1 2v-3zm-429 0h-1l-1 1h1l1-1zm27 0l-1-1c-1 0-2 1-1 2s2 1 2-1zm110-5c0-3-1-5-2-5s-2 3-1 5l1 2h-1l-1-1-1 1v2h1c1-1 1 0 2 1 1 3 2 1 2-5zm212 5h-1l-1 1h1l1-1zm47-3l-2-1c-1 1-4-2-4-3h6v-3c1-2 0-5-2-5v3l-2 2h-2c-2 0-2-1-2-3v-3l-2 2c-2 3-2 3 0 4s3 3 2 4l1 1 1 1 2 4h3l1-3zm12 3a1 1 0 0 0-2 0 1 1 0 0 0 2 0zm-264-2c-2-4-4-6-3-2 0 2 3 4 4 4l-1-2zm290 1l-1-1-2 2 3-1zm-92-7v-3h-3 1l1 1-2 1c-1-1-1 0-1 1v2 3l1 3 1-4 2-4zm15 6l-2-2v2l2 1v-1zm95 0v-2c-1-1-4 1-4 3l4-1zm-49-2c0-2-1-2-1 0-1 2 0 2 1 2v-2zm27 1c0-2-2-2-3 0l1 1 2-1zm-67-3v-4h1l-2-1c-3 0-4 2-2 3 1 0 1 0 0 0v2c1 2 2 2 3 1v-1zm76-2c0-2-2-3-2-2v4c-1 2 0 2 1 1 1 0 2-2 1-3zm-120 1h-1l-1 1 1 1 1-2zm38-1l-2-1h-1l1-2 1-1h-2v-1l-1-2c-2 0-2 5 0 7 3 3 6 4 4 0zm29 0c-1-2-3-2-3 0s1 2 2 2l1-2zm23 0c-1-1-2 0-1 2h1v-2zm5-1c1-1 0-2-2-2-3-1-5 1-2 2 1 0 2 1 1 2l1 1 2-3zm36 1l-1-3c-2 0-2 1-1 3l2 2v-2zm-125-1c2 1 1 0 0-2h-2l-1 3v1l2-1 1-1zm26 1l-1-1-1 2h1l1-1zm81-1v-3l-1-2-1 2v2 1h1l1 1v-1zm65 0l-1-1v1l1 1v-1zm-354-4c2 0 0-3-2-3s-3-1-3-2l-1-3v-3-1l-3 2c-2 1-2 1 0 2v2c-1 0-1 0 0 0v3c0 3 1 4 4 2l2 1-1 2-1 2 2-1 3-3zm192 2c-2-3-4-6-6-6l-1-2c0-3-1-3-3 0l-1 3c2-2 3-2 3-1v2l2 2 2 1 3 1c2 3 2 3 1 0zm84 0c1-2 1-5-1-5-3-1-4 1-3 4 2 3 3 3 4 1zm26-1h-4c-3 0-3 0-2 1h4l2-1zm-294-2l2-1 1-1-3-1-2 1-1 4c-1 2-1 2 1 0l2-2zm226 2h-1l-1 1h1l1-1zm-306-6c0-3 0-3 3-1 2 1 2 1 4-1s2-3 1-4-2-2-3-1l1 2v2h-4v-3c0-2 0-2-1 0-1 1-1 1-3-1l-2-2 1 4v8c0 4 0 4 2 1l1-4zm278 4l3-2-3 2h-4c-1-1-2-2-1-3s0-1-1-1c-1-1-2 2-1 4l2 1h2c1 2 1 2 3-1zm58 1l-1-1-1 1 1 1 1-1zm-101-2l2-1c0 2 0 3 2 3l2-1-2-2h-1c1-3 0-3-2-1-4 3-6 2-5-2 1-7 1-8 3-9s3-3 1-2h-1l-4-1c1 3 0 5-2 5-3 0-6-4-4-4 2-1 1-2-1-2-2 1-3 1-2 2 1 0 2 1 2 3l3 2 2 1-1 2c-2 0-3 2-2 4s1 2 1 0l1-2 2 1-1 3v1l2 1 1 1c0 1 2 1 4-2zm56-2c0-1-1-1-2 2s-1 3 1 1l1-3zm40 3c-1-2-3-2-3-1s1 2 3 2v-1zm13-7c-1-1-1-2-2-1l-3-1v2c2 3 1 6-2 5-2-1-2-1 0 1l3 2 2-3 2-5zm14 7l-1-2-1 2 1 1 1-1zm-109-1l-1-1-1 1 1 1 1-1zm20 0l-1-2-1 1-2 2h1l3-1zm87-3l-3-1-2-1c0-2-2-1-3 1l1 1 3 1c2 1 5 1 4-1zm-91 0l-2-1c-1 1-1 2 1 2l1-1zm30-2c-1-1-1 0-1 1l1 1v-2zm43 1l-1-2-1 1 1 1h1zm-155-3h-1l-1 1h1l1-1zm-82-1h-2 2c1 0 1 0 0 0zm156-2h-1l-1 2h1l1-2zm11 1h-1l-1 1h1l1-1zm-27 0l-1-3h-2v1l1 1 1 1h1zm6-2v2l1-1h4c2 0 2 0 1-2s-1-2 9-3l4-4c1-4 1-7-1-4-3 6-6 8-8 6-2-1-2 0-5 2-3 4-5 3-4-1v-3l-3 8v2l2-2zm62 1l-2-2 1 2c2 2 3 2 1 0zm-102-1l-1-2c-3 0-2 2 1 3v-1zm128 0l-1-1-1 1 1 1 1-1zm-271-1l-1-1-1 1 1 1 1-1zm145-2c0-3 0-3 5 1 3 3 5 3 5 0 0-2-1-2-4-3-3 0-4-1-4-2l-1-3-1-2c-2 0-2 0-1 4l-1 4v2l1 2h1v-3zm25 2h-1l-1 1h1l1-1zm-92 0l-1-2c-2-1-2 1-1 2h2zm31 0l-1-2-1 1c-1 2 1 2 2 1zm9-1l-1-2-1 2c-1 2 1 2 2 0zm88 0v-6l-1-3c-2 0-2 0-1 4 1 3 1 3-2 3l-2 1 6 1zm-171-2l-1-2-1 1 1 1h1zm9-1c-1-1 0-2 1-3l2-2h-2l-2 2h-1c-1-1-1 0-1 1l1 3h1l1-1zm54 0l-1-1-1 1 1 1 1-1zm-38-6l-2-1-2-1h2l1-1c-1-1-4-1-4 1v5l2 2 1-2 2-3zm26 4c1-1 0-2-2 0l-1 1 3-1zm11-4l-1-2v-1c1-1 0-1-1-1l-1-2-1-2-1 1-1 2-2 1-1 1-1 1h4c3 0 3 0 4 2v3 1l2-4zm68 3c-1-2-3-2-3 0l2 2 1-2zm-82-1l-1-1-1 2h1l1-1zm90 0l-2-1v1l1 1 1-1zm19 0c1 1 1 1 2-2v-2l-3-1c0-2-1-2-1 0-1 3-3 3-3 1-1-2-4-2-5 0v2c-1 2-1 2 1 1l2 1h2l2 1 1-1h2zm-122-2h-1l-1 2h1l1-2zm38 0c-1-2-1-2-1 0 0 1 1 3 2 2l-1-2zm152 1l-1-2-1 1 1 2 1-1zm-194-1l-1-3h-2c-1 2-1 3 1 4h2v-1zm40 0h-1l-1 1h1l1-1zm-53-1l-1-1-1 2c0 1 1 1 2-1zm23-4l2-5-7-4c-2 0 0 2 1 3 2 1 2 1 1 2s-2 1-4-1l-1-2-1-2c-2-2-5-2-8 0l-4 1h-2l2 1 1 1c-1 1 0 2 2 1l1 2 1 2 2-2c1-2 4-2 6 0l4 2c3 1 3 4 0 3l-1 1c1 3 3 2 5-3zm-15-7v-1c0-1 2 0 2 2 0 1-2 1-2-1zm57 11l-1-5-2-6v-2c0 2 0 2-1 0-1-1-1-1-1 1v3h-1c-2-1-2 1 0 3l2 4c0 4 3 5 4 2zm-15-8c-2-3-4-1-1 1l2 2c1-1 1-2-1-3zm-55 0c0-1-2-1-2 1-1 1 0 1 1 1l1-2zm36-2v-5c-1-1-1 0-1 1l-1 2v6c1 1 1 0 2-4zm25 3l-2-1 1 1c1 2 1 2 1 0zm15-6c0-1-4-4-5-3s0 1 1 3l1 1c-1 1-2 1-2 3l2-1 3-3zm-14 2l1-1 1-3 1-1-2-2c-2 0-2 1-2 2v2c-2 0-3 3-2 4l1-1h2zm-53-6c-1-2-1-2 1 0h1c-1-3-3-3-4-1s-1 3 1 3l1-2zm54-11c-1-1-1 0-1 1l1 1v-2zm-7-1h-1l-1 1h1l1-1zm14-1l-1-2-1 1c-1 2 1 2 2 1zm-9-2l-1-1-2 1 2 1 1-1zm26-7c0-1 0-2-1-1l-3-1c-1-1-1-1-1 1l1 1h2c2 2 2 2 2 0zM389 459l1-2c1-1 0-2-1-3l-2-3 2-2c4-3 8-2 8 2l-1 1v-2h-3c-1 1-1 2 1 3v1l-2 3c-1 2-3 3-3 2zm69-1l1-1c2 0 2 2 0 2l-1-1zm194 1c-2-1-1-2 1-2l2 1c0 2-2 2-3 1zm124 0l3-1-1 1h-2zm15 0v-2-1l-2-2-1-1h3c2 0 3 1 3 3 0 3-2 4-3 3zm-534-2h3l-1 1-2-1zm8 0l2-1 1 1-1 1-2-1zm157 1c-1-1-1-2 1-2l2 1c-1 2-2 2-3 1zm41-1l1-1 1 1-1 1-1-1zm161 0l1-1 1 1-1 1-1-1zm121 0l1-1 1 1-1 1-1-1zm-468 0l2-1h2l-4 1zm7-1l1-1 1 1-1 1-1-1zm76 0c-2-2-2-3 0-3s4 1 4 3-2 2-4 0zm67 0l1-1 2 1-1 1-2-1zm44 0l2-2 1 2-1 1-2-1zm31 0v-1l1 1v1l-1-1zm118 0v-3c2-1 2-1 3 1 2 3 0 5-3 2zm-177 0l3-1-1 1h-2zm-258-1c-1-1 0-1 1-1s2 0 0 1h-1zm57-1l2-1 1 2-1 1-2-2zm222 0l1-2 1 1-1 2-1-1zm-233-1v-2c2-1 3 1 1 3l-1-1zm27 0l1-1 1 1-1 1-1-1zm31 0l2-1 1 1-2 1-1-1zm94-1c-3-3-3-4-2-5 2-1 5 3 5 6 0 2 0 2-3-1zm42 2v-2c0-1 2 0 2 2h-2zm10-1v-1l2 1c0 2-2 2-2 0zm6 0v-1l1 1v1l-1-1zm-90-1v-1l1 1v1l-1-1zm126 0v-1l1 1v1l-1-1zm185 1l1-1h1l-1 1h-1zm-418-5l1-4 4 2c3 3 3 3 1 5l-4 1c-2 0-2 0-2-4zm26 3l2-2 1 2-1 1-2-1zm61 1l2-1 1 1-1 1-2-1zm84-1l-1-3c-1-3 0-4 1-3 2 2 2 6 1 7l-1-1zm-106 0l1-1h1l-1 1h-1zm28-1l2-1 2 1-2 1-2-1zm83 1l1-1h1l-1 1h-1zm156-1l2-1 1 1-1 1-2-1zm160 1v-1l2-1c2-1 2-1 1 1-2 2-3 2-3 1zm29 0h2c1 0 1 0 0 0h-2zm-550-1c-1-1-1-1 1-1l2 1h-3zm8-1l1-1 1 2-1 1-1-2zm54 0v-1l2 1c0 2 0 2-2 0zm65 0c1-2 3-2 3 0l-1 2-2-2zm270 0c0-2 1-2 3-2h3l-1 2-2 1-1 1-2-2zm-358-1c-1-2-1-3 1-5h2l-2 2h2c3 1 3 1 2 3-2 2-3 2-5 0zm243 1c-1-1-1-2 1-2l1 1c0 2-1 2-2 1zm139-1l1-1 1 1-1 1s-2 0-1-1zm84 1v-3c0-2 0-3 2-2l2 2c0 1-3 4-4 3-1 0-1 0 0 0zm-575-1c-1-1 0-1 1-1s2 0 0 1h-1zm8-1l1-2v2l-1 1v-1zm249 1v-2h1v2c1 0 1 0 0 0h-1zm17-1c1-2 3-2 3 0l-1 2-2-2zm34 0l1-1 1 1-1 1-1-1zm303 0l2-1 1 1-1 1-2-1zm24 1l1-1h1l-1 1h-1zm-512-2c0-2 2-2 3 0l-1 1-2-1zm71 0l1-1 1 1-1 1-1-1zm67 1v-2h2l-1 2h-1zm321-1a2 2 0 0 1 5 0l-2 1c-2 1-3 0-3-1zm16-1c0-1 0-2 1-1v3l-1-2zm117 1l1-1 1 1-1 1s-2 0-1-1zm-696 0l1-1h1l-1 1h-1zm114 0l1-3c2-2 2-2 3 0 0 2 0 3-1 2l-2 1h-1zm22-2l1-2v4l-1-2zm9 2l1-3c1-2 1-2 1 0l-1 3h-1zm167 0l5-4-2 2c-2 3-3 3-3 2zm-202-2l1-1 1 1-1 1-1-1zm500 0l1-1 1 1-1 1-1-1zm19 0l1-2 1 2-1 1-1-1zm-591 0l1-2 1 1-1 1h-1zm186 0v-3c-1-1-1-1 1-1 2 1 2 1 1 2v2l-1 1-1-1zm42 0c-2-2 0-3 5-4 5 0 7 1 3 2l-5 1-3 1zm352-1v-1l1 1v1l-1-1zm-627-1l1-2 1 1-1 2-1-1zm137 1l-1-2c1-1 2 0 2 2h-1zm103 0v-3-2c-2 0-2-3-1-4 2-1 4 3 4 5-1 3-2 5-3 4zm155 0h2c1 0 1 0 0 0h-2zm325 0l1-1h1l-1 1h-1zm-657-2l2-1 1 1-2 1-1-1zm16 1h2c1 0 1 0 0 0h-2zm15-1c0-1 0-2 1-1v2l-1-1zm169 0c-2-1-2-1 1-1 1-1 2 0 2 1 0 2 0 2-3 0zm4 0h3l-1 1-2-1zm265 0l-1-2 2 2c1 2 1 2-1 0zm23 0l1-1 1 1-1 1-1-1zm104 1l-1-3-1-1c-1 1-2 0-3-2v-2l6 3 1 2 1 2c-1 2-2 2-3 1zm-562-2l1-2 1 2-1 1-1-1zm13 0v-1l2 1-1 1-1-1zm40 0l1-1 1 1-1 1-1-1zm95 1v-2-2c-2-1-2-2 0-2 4 0 8 2 8 3-1 1 0 2 1 2h1l-10 1zm351 0l4-2-2 2h-2zm14-1v-1l1 2-1-1zm-631-1v-1l1 2-1-1zm17 1v-1c2 0 3 0 1 1h-1zm44-1l-1-2c1-1 4 1 4 2-1 2-3 2-3 0zm329 1l2-1 1 1h-3zm80-1l1-1 1 1-1 1-1-1zm66 1l2-1 1 1h-3zm155 0c-1-2 1-3 2-2s1 2-1 2h-1zm-617-2l1-1 1 1-1 1-1-1zm63 0l1-1c2 1 1-3-1-5s-2-2-1 0c1 3-1 2-2-1l-1-3v-2c-2 0-2-1-2-2 1-2 3-1 4 2l4 4c3 1 4 2 4 5 0 2-1 3-3 4l-3-1zm155 0c-1-2-1-3 1-3l2-1c-1-2 3-3 4-2 1 0 1 0 0 0-3 0-5 5-4 6 1 2-1 2-3 0zm314 1c-1-1 0-1 1-1 1 1 2 2 0 2l-1-1zm19 0l1-2 1 1-1 1h-1zm14-1v-1c2 0 3 2 1 2l-1-1zm-362-1l1-1 1 1-1 1s-2 0-1-1zm20 0l2-2 2 2-2 1-2-1zm5 0l2-1 1 1-1 1-2-1zm21 1c-1-1 0-3 1-3l1 2c0 2-1 2-2 1zm254 0c-2-1-1-2 1-3 2 0 3 0 1 2l-2 1zm10-1l1-1 1 1-1 1s-2 0-1-1zm70 1v-2c2 0 3 0 3 2h-3zm-551-2l2-1 1 1-2 1-1-1zm4 0c0-2 0-2 2-3l2-1-1 1-2 3c0 2-1 2-1 0zm40 1l1-2 1 1-1 1h-1zm512-2c-1-2-1-3 1-2v-1c-1-3-1-3 1-3s2 0 2 3v2l1 1v2h-1l-4-2zm-709 1c-1-1 0-1 1-1s2 0 0 1h-1zm298-2c0-2 2-2 3 0l-1 2c-1 0-2 0-2-2zm153 1c1-2 4-3 4-1l-1 1h-1c-1 2-3 2-2 0zm54 0l2-2 1 1c0 2-3 3-3 1zm7 1l3-1-1 1h-2zm149-1c-2-1-3-7-2-7l2 2h2l1 1v1c2 0 1 3 0 4-2 1-2 1-3-1zm-534 0h1-1zm195-1l1-1 1 1-1 1s-2 0-1-1zm77 1l2-1 1 1-1 1-2-1zm286-1l-2-1c-2 0-2-1-2-3s0-3 2-2l2 2 1 2c2 0 4 2 2 2l-2 1c-1 0-2 0-1-1zm11 1l1-1h1l-1 1h-1zm4-1v-3l1-2 1 3v3h-1c-1 0-2 0-1-1zm55 1c-1-2-1-3 1-3l2 1c0 2-2 3-3 2zm-421-2c0-1 0-2 1-1v2l-1-1zm54 0v-1l1 1v1l-1-1zm122 0c-1-2 1-3 2-2s1 4-1 4l-1-2zm126 0v-1l1 1v1l-1-1zm17 1c-1-1 0-2 1-2h3l1 2h-5zm-507-3c0-2 1-3 2-3l1 3-1 2c-1 0-2 0-2-2zm208 0l2-1 2 1c2 1 0 2-2 2s-2 0-2-2zm110 2l-1-4c0-3 1-3 2-2l4 1c2 1 1 5-1 5h-4zm76-1l1-1 1 1-1 1-1-1zm223 0c-1-1 0-1 1-1l2 1c-1 2-3 2-3 0zm42 1c-1-1 1-4 3-4v2c0 2-2 3-3 2zm-642-2v-1l1 1v1l-1-1zm216 1l1-2 1 1-1 1h-1zm15 0c-1-2 0-4 2-4l1 2c0 2-2 3-3 2zm32 0c-1-1 0-3 2-3v2c0 2-1 2-2 1zm212 0c-1-1-1-2 1-3 2-2 2-2 3 0s1 2 2 1l2-1 1 2c-2 1-7 2-9 1zm-572-2l1-1 1 1-1 1-1-1zm50 0l2-2v3h-1l-1-1zm23 0v-2l1 2v1l-1-1zm179 0l2-3c0-2 1-2 4-2l6 1 2-1 2-1v2l-1 1-2 2c-2 2-5 1-5-2l-1-1c-2 1-2 1-1 2s1 2-1 1c-1 0-2 0-1 1l-3 1c-2 1-2 1-1-1zm32 1h2c1 0 1 0 0 0h-2zm-344-2l2-1 1 1-1 1-2-1zm293 1c-1-1-1-2 1-2l1 1c0 2-1 2-2 1zm85-1l2-2c2-2 2-2-1-1-2 1-2 0 0-3l2-3v-1l1 1 2 3v2l-2 4-2 1-2-1zm164-1l1-2v2l-1 2v-2zm9 1l1-1 1 1-1 1-1-1zm191 0l1-1 1 2-1 1-1-2zm-693 0l1-1h1l-1 1h-1zm228-1c-1-1 1-4 2-4 2 0 1 2 0 4h-2zm12 1v-2l-1-1-1-1 2-2 1 2v1l1 2c0 2-2 2-2 1zm11 0l-1-3c1-4 8-6 8-2h-2c-3-1-5 2-4 4l1 1h-2zm33-1c0-2 2-5 3-4v3c0 3-3 3-3 1zm60 0l1-1 1 1-1 1-1-1zm271 0v-2l-1-2c1-2 1-2 3 0l1 2-1 2-1 1-1-1zm24 0l1-1 1 1-1 1-1-1zm-587-1l-3-1-2-1c0-2 4-1 6 1l1 1 1-1c1 1 0 2-1 2l-2-1zm16 0c-1-1 0-1 2-1l3 1c1 2-5 2-5 0zm72 0h2c1 1-1 1-2 1v-1zm280 0c0-2 3-3 3 0 1 1 0 2-1 2l-2-2zm13 0v-3l-3-5c-3-3-3-4-2-5l2-2 2-2 2-1c2 1 7-1 6-3l1-3c2-1 2 0 3 1v3 2l1 6c1 5 1 5-3 7-3 1-4 3-4 4 0 2-5 3-5 1zm73 0l1-1 1 1-1 1-1-1zm66 1c-2-1-2-2 0-3l2-2 2-1c1 1 1 0 1-1l1-3 1-2v3l-1 5-1 2-1 1c0 1-1 2-4 1zm-547-2v-3c1-2 1-2 2 0l1 2c0 2-3 2-3 1zm14 1h2c1 0 1 0 0 0h-2zm20-1c0-3 1-3 1-1v2l-1-1zm238 1c-1-2 0-3 1-3v3h-1zm44 0l-1-2c0-2 3-2 4-1 0 1-2 4-3 3zm120-1l1-1 1 1-1 1-1-1zm123 0l-2-2c1-1 5-2 4 0l2 1 2 1c1 1-3 2-6 0zm8 0c-1-2-1-2 2-2h2l-2 3-2-1zm15 1l-1-4v-2l4 1c2 1 2 1 1 3s-4 3-4 2zm-534-2l-1-2c-3 0-4-2-2-3 2-2 4-1 4 1-1 2 0 3 1 3l1 2c-1 1-3 1-3-1zm332 1l-2-1c-1 0-2 0-2-2v-3l3 3 2 3h-1zm152-1c-1-2 0-3 2-1v2l-2-1zm85 0l1-2 1 2-1 1-1-1zm113 0c-1-1 0-2 1-1v2l-1-1zm-724-1l1-1 1 1-1 1-1-1zm200 0v-2h1l2 1 1 1c0 2-2 2-4 0zm15 1c-1-2 0-4 2-5 1-1 4 1 3 2-1 2-5 4-5 3zm128 0l3-1-1 1h-2zm14-1v-4l2-2c0-3 3-3 4 1 1 3 1 6-1 6h-2l-3-1zm109 0c0-1 0-2 1-1v2l-1-1zm23 0c-1-1 0-1 1-1l1 1v1l-2-1zm46 1v-2c2-1 3 0 1 2h-1zm92-1l1-1 2 1-1 1-2-1zm-651 0l1-2h1l-1 2h-1zm360 0l1-2c1-1 1 0 1 1-1 2-2 2-2 1zm111-1c-1-2-1-3 1-2l1 2h-2zm152-1c0-3 0-3 2 0v2c-1 0-2 0-2-2zm-542 1c-1-1-1-2 1-2l1 1v1h-2zm7 0l-1-1c-2 0-3-1-2-2l3-1 1-3c0-3 1-1 1 2 1 2 0 4-1 5h-1zm187-1h2c1 1-1 1-2 1v-1zm11 0v-1l1 1v1l-1-1zm22 1v-3-8l1 2 2 2 1 2c0 3-3 6-4 5zm211-3c0-3 1-3 3-1l3 1 2 1-2 1h-3c-2 2-3 1-3-2zm13 2v-1l1 1v1l-1-1zm84-1l2-1 3 1c2 0 0 2-2 2s-3 0-3-2zm-607 0l2-2v2l-2 1v-1zm218 1l1-1h1l-1 1h-1zm311-1c-2 0-2-2-2-2 0-2-2-4-4-2l-1-2c0-2 1-3 2-2l2-1 2 1 1 2v3l3 3h-3zm135 0v-1l2 1c0 2 0 2-2 0zm6 0c0-2 2-2 3 0l-1 1-2-1zm92 0c-1-1-1-2 1-2 2-1 4 1 3 2-1 2-2 2-4 0zm-757 0c-1-1-1-4 1-5 2-2 3-2 3 2 0 3-3 4-4 3zm290 0l-1-2-2-1 2-2 1 1 1 1 2 1-2 2h-1zm99-1l1-1 1 1-1 1-1-1zm-424-1l1-2c1-1 3 1 3 3-1 1-4 1-4-1zm307 1v-2h3v2h-3zm57-1c-1-2 0-4 2-4s3 3 1 4h-3zm34 0l1-1c2 0 2 2 0 2l-1-1zm19 1v-2l2 1v1h-2zm23-1l2-1 1 1-1 1-2-1zm84 0v-2l3 1c1 2 1 2-1 2s-3 0-2-1zm7 1l1-2c1-2 1-1 1 0l-2 2c-1 1-1 0 0 0zm45 0h2c1 0 1 0 0 0h-2zm10-1l2-1 1 2-1 1-2-2zm12 1v-1l-1-2c-1-2-1-3 1-3l1 3-1 3zm3-1l2-2v2l-2 1v-1zm6 0l1-1 1 1-1 1-1-1zm-613-1v-1l1 1v1l-1-1zm83 0c-3-2-4-2-3 0h-2c-1-1 0-3 3-5 3-1 3-1 4 2 1 4 0 5-2 3zm591-1v-5l-1 1c-1 1-1 1-1-1s2-3 4-1 3 4 1 3v1l-1 2-1 1v1l-1-2zm-689 1l1-1h1l-1 1h-1zm48 0v-1c2 0 3 0 1 1h-1zm66-1c-3-3-2-4 3-4l5-1 1-1h2l2 1c2-2 3-2 3 0s0 2-1 1c-1-2-1-2-1 0s-8 4-11 2v1c1 3 0 3-3 1zm164-1c0-2 1-3 2-2l-2 4v-2zm361 2l3-3c1-2 2-2 3-2l-1 1v3c1 2 1 2 0 0h-2l-1 1h-2zm106-1l1-1 1 1-1 1-1-1zm12 0h3l-1 1c-1 1-2 0-2-1zm48 0v-5l3 2c2 1 2 2 1 3-1 2-2 2-4 0zm-702-1v-3l3-4c2-1 2-3 2-3l1-1c2 0 1 1-1 4-2 2-2 2-1 3 3 2 3 3 0 3-2 0-3 0-2 1l-1 2c-1-1-2-1-1-2zm232 1c-1-1-1-2 1-2h1c0 2-1 3-2 2zm31-1c-1-1-1-3 1-3l1 2c0 3 0 3-2 1zm160 0l2-1c1 1-2 2-3 2l1-1zm77-1l-1-2-2-1c0-2 1-2 5 0l3 2-2 2c-3 2-4 2-3-1zm82 1l1-1 1 1-1 1-1-1zm30 0l2-1 2 1-2 1-2-1zm15 0l1-1 1 1-1 1-1-1zm-707 0c-1-1 0-3 1-3l1 2c0 2-1 2-2 1zm59-1v-1l1 1v1l-1-1zm315 0v-1l1 1v1l-1-1zm237 0l-3-1h-2l2-1 1-1h1l2 1c2 0 2 2 1 3l-2-1zm26-1l-1-3 3-1 1-1v7l-3-2zm-666 1l1-1h1l-1 1h-1zm48 0c-1-2 1-3 2-2s0 2-1 2h-1zm418-1l1-1v2c-1 0-2 0-1-1zm96 1c-2-1-1-5 1-5l1 1c0 3-1 5-2 4zm6 0c-1-1 0-1 1-1s2 0 0 1h-1zm77-1l2-1-2 2v-1zm30 0l-2-3h1c3 1 5 2 5 4 0 1-3 1-4-1zm-654-1c0-2 4-2 3 0l-2 1c-1 1-2 0-1-1zm57 1c-1-1 0-1 1-1v1h-1zm4-2l2-2 1 2-1 2h-1l-1-2zm278 0c0-2 0-2 1-1v3l-1-2zm88 2l3-1-1 1h-2zm142 0l1-2 1 1-1 1h-1zm96 0c-2-1-1-2 2-3 3 0 3 0 2 2-2 2-3 2-4 1zm-618-1l1-2 1 1-1 1h-1zm282-1l1-1 1 1-1 1-1-1zm152 0c-2 0-3-1-3-2-1-2-1-2 1 0h3l2 1 2 1h-3-2zm-121 0c-1-1-1-3 1-3l1-1 2-1 2 2-2 1-2 1-2 1zm138 0c1-2 2-2 2-1l-1 1h-1zm161-1l1-1 1-2-1-1v-1c2-2 3-2 3 0v3c1 1 0 2-1 2h-3zm-664 0c-2-1-3-2-1-2l4 2h-3zm61-2v-2l2 2v2l-2-2zm65 2l-4-3h-4c-1 2-4 2-4 0s4-5 6-5l8 2c0 2 1 2 3 1h6l-2 1-4 2c-3 3-4 3-5 2zm257-1l2-1 1 1-1 1-2-1zm4-1c-1-2 0-3 4-2 2 1 2 1 2-1v-2l1 3c0 3 0 3-3 1-3-1-3 0-2 1v2c-1 1-2 1-2-2zm113 1l1-1 1 1-1 1-1-1zm10 1v-2c1-1 2 0 2 1l-2 1zm-496-2l1-1 1 1-1 1-1-1zm22 1l1-2 1 1-1 1h-1zm6-1v-1l2 1-1 1-1-1zm64 1l4-1c1 1 0 1-1 1h-3zm134 0v-3c-1-2 0-3 1-2l1 1 1 3c1 1 1 1-1 1h-2zm43 0l1-2 1 1-1 1h-1zm190-1c-1-3 1-5 3-3 2 1 2 1 0 3s-2 2-3 0zm61 1c0-2 2-4 3-4l-1 3-2 1zm4-1v-1l1 1v1l-1-1zm121 1l-3-1h-1v-2c-1-1-1-1 1-2 1-1 1-1-1-2l-4-1-2-1c0-4 1-5 4-2l4 2c3-1 5 1 5 4s-2 6-3 5zm43 0c-1-1-1-3 1-3l1 1c0 2-1 3-2 2zm14-4l-1-4 6 7c-2 2-3 2-5-3zm17 3l1-1 1 1-1 1-1-1zm-158-1c1-2 0-3-1-3l-1-2 2 1 2 2c2 0 1 3-1 3l-1-1zm219 1c-2-1-1-3 1-3l2 2c-1 1-2 2-3 1zm-740-2l1-1 1 1-1 1-1-1zm267 1l1-2 1 1-1 1h-1zm261-1c-1-2-1-2 3-3l3-1-2 2-2 3-2-1zm-582 0v-2h3c0 1-2 3-3 2zm31-1l3-1c2 1 0 2-2 2s-2 0-1-1zm34 0v-1l2 1-1 1-1-1zm11 0c1-3 3-3 3 0l-1 2-2-2zm28 0l1-1 1 1-1 1-1-1zm415 0l2-1v1l-2 1v-1zm27 1c-2-1-2-1-1-2l3 1c2 2 1 2-2 1zm49-1v-1l1 2-1-1zm79 0v-1l2-1c0-2 0-2 1 0 1 1 1 1 2-1l2-1 2 3h-1-2c-2 3-4 3-6 1zm-634-1l1-1 1 2-1 1-1-2zm284 0c-2-1-1-5 1-6s3 0 3 3c-1 4-2 6-4 3zm5 0l1-1 1-1c-1-1-1-1 0 0 2 1 1 3 0 3l-2-1zm224 0c1-1 3-1 3 1h-2c-2 0-2 0-1-1zm116-1c-2-4-2-6-1-7 1 0 2-1 1-3l1-2c1 0 2 1 2 4 0 2-1 3-2 3l-1 1v1c1-1 3 2 3 4s-1 2-3-1zm-282 0l1-1 1 1-1 1-1-1zm109 0v-1l1 1v1l-1-1zm12 0l-1-3v-1l2-2 1-1h2c1 0 1 0 0 0-1-1-1-3 1-3 1-1 6 2 6 3l-4 2c-3 0-4 1-3 2l-1 1v1l-1 2-2-1zm34 0l2-2h1l-2 2c-1 2-1 1-1 0zm48 0c0-2 2-2 3-1l-1 2-2-1zm27 1v-3c1-1 1-1 1 1v2c1 0 1 0 0 0h-1zm-274-2l1-1 1 1-1 1-1-1zm3 0l2-1 1 1-2 1-1-1zm101 0c-3-1-2-3 2-3 2-1 2 0 2 1l2 3h-1l-5-1zm247 0l2-1 2 1-2 1-2-1zm-653-1c-1-2 0-3 3-3 2 0 3 1 1 3s-2 2-4 0zm58 1v-2h3c0 2-1 3-3 2zm183-1c0-1 3-4 4-3 2 0 3 2 3 3l-4 1-3-1zm114 0c0-1 0-2 1-1v2l-1-1zm61-1c-1-1 0-2 1-1l2-2v-1l1 3c-1 3-4 4-4 1zm23 2c0-2 3-3 7-3 5 0 5 0 1 1h-3c-1-1-1 0-3 1l-2 1zm-460-2l1-1 1 1-1 1-1-1zm3-2c0-2 1-3 3-3s3 1 3 2c0 2-3 4-5 4l-1-3zm254 2l2-2 2 2-2 1-2-1zm221 0v-3l2 4-2-1zm39 0l3-4h2c2 3 1 3-2 4h-3zm192 0c-1-1 0-2 2-1l1 1c-1 2-3 2-3 0zm-753 0l1-1h1l-1 1h-1zm54 0l3-1-1 1h-2zm19-1c-1-2-1-2 1-1l3 1c1 2-2 2-4 0zm19 0l-4-1-4-1c-1-1-1-2 1-3v-3c-2-1-1-1 2-3 3-3 5-2 5 0s0 2 1 0c2-2 3-2 2 1l-2 1-3 2h-2c-2 0-2 0-1 3h1l8-1 1 3-2 1-1 1c1 2 0 2-2 0zm447 0l1-1 1 1-1 1-1-1zm190 1l3-1h2c0 1-1 2-3 2l-2-1zm-339-2l1-1 1 1-1 1-1-1zm15 0h2c1 1-1 1-2 1v-1zm10 0c0-1 0-2-1-1l-2 1c0-2 4-4 5-3s0 4-1 4l-1-1zm78 0v-2h1c3 2 3 4 0 4-2-1-2-1-1-2zm61 1l1-1h1l-1 1h-1zm-522-1c-2-1-2-5-1-5l1 2 2 3v1l-2-1zm47-1l1-2 1 1-1 1h-1zm286-1h1l2-1 1 1-2 1-2-1zm32 1v-3l1-1 1 1c2 0 2 0 1 2s-2 2-3 1zm120 0c-1-1-2-1-1-2s2 0 3 1l1 1h-3zm160-1c-1-1 0-2 2-1l1 2c-1 1-3 1-3-1zm98 0l1-2 1 2-1 1-1-1zm-788-1v-2l2 2v1l-2-1zm111 0c1-1 0-2-1-2l1-2c1-2 3-2 3 0s1 2 3 0h2c1 1-3 4-6 5-2 1-2 0-2-1zm289 0c2-3 4-5 6-4s1 3-2 3h-2l-1 2c-2 0-2 0-1-1zm76 0c-3-3-2-3 1-4 4-1 5 1 4 4 0 2-3 2-5 0zm8 0l1-2 2 2-1 1-2-1zm250 0c0-2 2-3 2-1 1 1 0 2-1 2l-1-1zm-705-1c-2-1-2-1 0-3s6-2 7 0c0 2 0 2-2 2l-2 1c0 2-1 2-3 0zm48-1l-2-1-3 1c-1 0-1-1 1-1l2-2c1-1 5 2 5 4s-2 2-3-1zm344 1c-4-1-4-3-1-3s5 2 4 3h-3zm78 0c0-2 3-3 4-1l-1 2c-3 1-3 1-3-1zm18 0c-1 0-1-1 1-1l2 1c-1 2-1 2-3 0zm24 0c-3-2-2-2 1-2 4 0 4 1 2 2h-3zm24 0l-1-2h1l1 1c1 1 1 0 1-1v-1l1 2c0 3-1 3-3 1zm6 1l1-2 1 1-1 1h-1zm142-1c-2-1-3-2 0-2h1l3 1c3-1 4 1 2 2s-3 1-6-1zm-657 0c-4-1-5-3-4-4h3c1 1 2 1 3-1s5-1 5 1h-1l-1 2c0 2-1 2-2 2h-3zm29-1v-1l3 1-1 1-2-1zm6-1l-1-2-1-1-4-1-1 1v-1l1-1c-1-2 2-2 3 0l3 1c1-1 1 0 1 1 0 2 1 3 2 3 1 1 2 2 0 2 0 0-2 0-3-2zm608 1l2-1 1 1-2 1-1-1zm104 0l2-2 1 2-1 1-2-1zm35 0c-1-2 0-3 2-3s4 2 3 4c-1 1-5 1-5-1zm-342 0c-1-1 0-1 1-1s2 0 0 1h-1zm13-1c0-1 0-2 1-1v2l-1-1zm5 0v-1l1 1v1l-1-1zm12-3c-1-2-1-2 2 0 2 2 2 2 0 2l-2-2zm162 1l-2-2v-2h3v6l-1-2zm108 0l1-1 1 1-1 1-1-1zm-725 0v-3c1-2 1-2 2 0v2l-2 1zm330 0v-3c1 0 2-1 2-3 1-2 1-3 2-2l2 1c1-1 1-1 0 0l-1 3c0 2-4 5-5 4zm67-1c-1-1 0-2 1-1v2l-1-1zm49 0c-2-2-2-2 0-4s4-2 4 0c1 2 4 0 4-2-1-2 1-4 3-4 1 0 0 4-2 5l-2 4c-2 3-5 3-7 1zm231 0v-2c2-1 4 1 3 2h-3zm63 0l2-1 1 1-2 1-1-1zm-394-2l2-2-1 2-2 2 1-2zm90 1c-1-3 3-5 5-4h2v1c-1 3-1 3-3 1s-2-2-1 0v3c-2 1-3 1-3-1zm-36-1v-2l1 2v1l-1-1zm-395-2l-2-4c0-2 5-4 7-3s1 2-1 2c-3-1-3 0-1 2 2 1 2 2 2 3-1 3-2 3-5 0zm663 2c-2-2-1-6 1-6 2-1 3-2 1-3l-2-1 6-1 4 5h-1l-2 1c-2 5-5 7-7 5zm62-1c0-2 3-2 4 0v1h-2c-1 1-2 0-2-1zm-756 0c-1-1 0-1 1-1s2 0 0 1h-1zm47-1l-2-2c-3-2-3-4-1-4l1 1v1l2-2v-2l2-2c2 0 2 0 1-1-2-1-3-3-1-2l3-1 3 1 3 1 2 1c0 1 0 2-1 1l-2 2c-1 2-2 1-3 1l-1 1h-1-2l-1 1c-2 0-2 2-1 3 3 1 3 3 1 3l-2-1zm-37 0c1-2 2-2 2-1l-1 1h-1zm42-1l1-1 1 2-1 1-1-2zm629 0l2-2v2l-2 1v-1zm-665-1l2-1 2 1-2 1-2-1zm5-2c-2-2-3-3-4-2-2 3-2 1 0-2s3-3 6-3h3l-3 1c-2 2-3 5-1 5 1 0 3 3 2 4l-3-3zm462 2l1-1 1 1-1 1-1-1zm228 0l1-1 1 1-1 1-1-1zm25-1c-1-2 0-2 2-2 3 0 4 1 3 2-1 2-4 2-5 0zm-267-1l1-1 1 1-1 1-1-1zm283-1c-3-2-2-5 2-6 2 0 3-1 3-2h5c0 1-1 4-3 3l-1 3c-1 5-3 5-6 2zm-62-1l1-1v2c0 1-1 1-1-1zm85 0l1-1 1 1-1 1-1-1zm-28 0v-2c2-1 3 0 1 2h-1zm-25-2h2c1 0 1 0 0 0h-2zm-738-1h2c1 0 1 0 0 0h-2zm44-3c-2-2-2-3 0-3v-1c-2-1-2-2-1-3s2-2 1-3 1 0 2 0c2 0 2 0 2 4l1 2h1l-1 2c-1 0-2 1-1 2 1 3-2 3-4 0zm5 1l1-1 2 1-1 1-2-1zm679 1v-2l-2-3-2-3-5-5-1 2c0 1-2 2-3 1s0-4 2-4l1-2c0-1 0-2-1-1l-1-1h-2c-3 0-4-1-3-4 0-2 4-1 4 1l2 1 2 1c0 2 4 2 5 1l-1-2c-2-1-2-2-1-3 1-3 0-5-3-4-1 1-2 1-3-1l-1-5 1-3c-1-1 0-1 3-1 4 0 5-1 2-3v-2l2-4c0-2 1-3 3-3s2 0 2 4l-1 5v2l3 1 2 2 3 3c2 1 2 2 1 3l-3 2c-1 0-2 1-1 2l-2 1c-2 0-4 2-3 3l1 3c0 2 1 2 4 3 2 0 4 1 1 1v2l-2 5-1 5c0 1-1 3-2 2zm1-27l-1-1v2l1 1v-2zm33 27v-3c1-1 3 0 3 2s-1 2-3 1zm-782-2h5l-2 1-3-1zm51 0v-1l2 1-1 1-1-1zm725 0c-1-2 0-5 3-4 1 0 1 0 0 0l-1 2h2l-1 2h-3zm-730-2c-1-1 0-1 2-2 4-1 5 0 3 2-1 2-3 2-5 0zm746-3v-1l1 1v1l-1-1zm-36-1l1-3 5-1 4 1-2 3c-3 2-9 2-8 0zm-727 0h2c1 0 1 0 0 0h-2zm29-1v-2l2 2-1 1-1-1zm765 1h2c1 0 1 0 0 0h-2zm-775-2l2-3 1-2c-1-3-1-3 3-1 2 0 2 1 1 2l-4 3c-2 1-2 1-1 2l-1 1-1-2zm741 0h2l-3 1 1-1zm7 1h2c1 0 1 0 0 0h-2zm-738-2l-2-2h7l-2 3-3-1zm-52-1c-1-1-2-1-1-2h4c0 2-1 2-3 2zm34-1l-3-3c0-2 3-3 4-1l3 4c2 1 2 2 1 2l-5-2zm773-1c-1-1 1-3 3-3s2 1 1 3c0 2-3 2-4 0zm-796-1l-1-2 6 1c0 2-3 3-5 1zm751 1c0-2 4-4 5-4 2 1 3 2 1 3l-6 1zm19-2c0-2 3-4 4-3v3c-1 2-4 2-4 0zm-819-1l1-1 1 1-1 1-1-1zm65 0l-1-1-2-1c0-1 2-1 4 1v2l-1-1zm27 0l2-2c2 0 2 3 0 3-2 1-2 0-2-1zm-59 0l-2-2c0-2 0-2 4-1 2 1 3 4 1 3h-3zm43 0c-1-1 0-1 1-1 2 1 3 1 1 1h-2zm23-1l-1-3-1-1c-1-2 0-2 3-2 3-1 6 4 4 6-1 2-3 2-5 0zm695-1c-1-2 0-2 3-1 2 1 2 2 0 3-1 0-2 0-3-2zm-736 0l2-1 1 1-1 1-2-1zm19-1l-2-1 2-1c3 0 5 0 5 2h-5zm-94 0l1-2 1 1-1 1h-1zm104-1h3l-2 1c-2 0-2 0-1-1zm699 0l1-1c2 0 2 2 0 2l-1-1zm-723-1l1-1 1 1-1 1-1-1zm4 0c-1-1 0-3 1-3l1 2c0 3-1 3-2 1zm-38 0c-1-1 0-3 1-3l1 2c0 2-1 2-2 1zm46-2v-2h1l2-1c2 0 2 0 1 2s-2 3-4 1zm770 0l2-1 1 1-2 1-1-1zm-788-1h2c1 1 1 1-1 1s-2 0-1-1zm733 0v-5l1-1v-1l1 1 2 1v-1l1-2 1 4h1l1 1c-1 1 1 2 3 2 3 1 3 1 1 1h-6c-2 2-4 2-6 0zm-788 0v-2l1 2h-1zm806 0c-1-1-1-3 1-3l2 1 2 2h-5zm-713-2l-1-3c0-1 1-2 3-2l2 1-1 2c0 2-3 2-3 2zm-72-2l2-1v1h-2zm780-1l1-1 1 1-1 1-1-1zm24 1c-1-1 0-1 1-1s2 0 0 1h-1zm-760-1l2-1 2 1h-4zm7 0v-4c1-4 5-5 6-1l1 1c2-1 1 1 0 2-1 2-3 2-2 0l-2 1-3 1zm824 0c-2-1-1-3 1-4 3-1 5 1 3 3-1 2-2 2-4 1zm-76-1c-1-1-1-2 1-2h1c0 2-1 3-2 2zm-767-3l1-1 1 1-1 1-1-1zm732 0c-1-1 0-2 1-2 2 0 3 0 2 2 0 2-2 2-3 0zm31 0l1-1 1 1-1 1-1-1zm-751-2c-1-3 1-4 3-1 2 2 2 3 0 3l-3-2zm735 0c-2-3-1-5 2-6l6-2c2 1 5-5 4-7v-2l3-1 1-2c-1-2 0-2 2-2s2 0 1 2l-2 4-1 3v2c0 1-3 3-4 2v2c2 3 3 4 1 3h-2l-3 1-2 2c-1 3-5 3-6 1zm105 0l1-1 1 1-1 1s-2 0-1-1zm-879-2c0-1 0-2 2-1l1 2h-1l-2-1zm24 1v-2c-2 0-1-3 0-3 3 0 3 0 2-2-2-2-2-4 1-4 4-1 7 0 7 5 0 3 0 4-1 3-5-2-5-2-5 0s-2 4-4 4v-1zm7-9l-3-1c-2 0-3 0-2 1l3 1c3 0 3 0 2-1zm844 6l2-1 2 1-2 1-2-1zm-838-4v-5l2 2c2 2 0 4-2 3zm737-1v-1l4-2c2-3 5-3 4 0 0 2-8 5-8 3zm-726-1l2-1 1-1h1c1 1-1 3-3 3l-1-1zm765 0v-2h1c-1 1 0 1 1 1l2 1c0 2-2 2-4 0zm24 0c0-2 3-5 4-4v3l-4 1zm-861-2v-1l1 1v1l-1-1zm818 0l-1-1v-2c1-1 2-2 5-1 3 0 6 2 3 2l-1 2c-1 2-6 2-6 0zm-785-1v-3c0-2 5-2 5 1 0 2-4 3-5 2zm807-2c0-3 5-5 5-3l-5 4v-1zm-791-1h3c1 1 1 1-1 1l-2-1zm5 0c-1-1 0-2 1-2l2 2-1 1-2-1zm744 0c0-2 1-5 3-5s2 3 1 5c-2 2-4 2-4 0zm-734-1c-2-2-2-2-3-1 0 2-2 2-1-1 0-2 5-2 6 0 2 3 0 4-2 2zm741 1c-2-1-2-8 0-8l2-1c1-1 5 2 5 3 0 3-5 7-7 6zm-776-3l1-1h1l-1 1h-1zm6 0v-2c0-1 2 0 2 2h-2zm831 0c-1-1 0-2 1-2h1c0 2-2 3-2 2zm22-1h3l-1 1-2-1zm-821-1c-2-3-2-3 0-3s4 2 2 3h-2zm-13-4c-1-2-1-2 1 0l1 2-2-2zm-7 0l1-1 1 1-1 1-1-1zm13-1c1-1 0-2-1-2s-2-1-1-2c0-1-5-5-6-4-1 2-4 2-5 1v-4l1-1 1-2 1-1-2-1-1-1 3-1 1-1h2c2 1 2 2 1 4 0 3 0 4 2 4l3 3 3 2 1 2-2 5-1-1zm754 0l1-1 1 1-1 1s-2 0-1-1zm10 0l2-1 1 1-1 1-2-1zm53 1h2c1 0 1 0 0 0h-2zm-68-3c0-2 3-6 5-5v-1c-1-1 2-5 3-4s2 5 1 6l-1-1-1 3c-2 3-3 3-4 3l-3-1zm-814-1h3l-1 1-2-1zm46 0h2l-1 1c-1 0-2 0-1-1zm801 0c-1-1 1-3 2-2l1 1c0 2-3 3-3 1zm10 0l3-1-1 1h-2zm-28-4l2-1 1 1h-3zm-803-2l2-2v2l-2 1v-1zm816-2c-1-2 0-3 2-3 3 1 3 2 0 3h-2zm25 0l2-2 1 1-3 1zm-840-2l1-1 2 1-1 1-2-1zm789 0l-3-2-4-1-3-2-2 1c-3-1-2-4 0-4l2 1c0 2 3-2 5-5l2-1 2-1 1-1c2 0 2 1 1 3s-1 2 1 2 3 2 1 3v3c1 1 1 2-1 4h-2zm-747 0l1-2 1 1-1 1h-1zm-25-3l1-2h1l1 1-1 1h-1l-1 1v-1zm789-1l1-1 1 1-1 1-1-1zm-770 0l2-1 1 1-1 1-2-1zm-35-2v-1l2 1-1 1-1-1zm792 1c0-2 4-4 5-3v2c-1 2-5 2-5 1zm-783-4l-1-3c-2 0-2-2 0-2 1-1 2 4 2 5v2c1 0 1 0 0 0-2 0-2 0-1-2zm-20 1v-1c2 0 3 0 1 1h-1zm820-1l2-1c2-1 2 0 2 1-1 2-4 2-4 0zm-806-1c-1-1 0-2 2-1l1 1c-1 2-3 2-3 0zm30 0h-2c-2 1-5-2-5-4-1-3 0-3 2-1 1 2 1 2 6-1l3-1v4c-1 4-3 6-4 3zm808 0v-3c1-1 1 0 1 1 0 3 0 3-1 2zm-830-2c-1-2-1-2 1-1l2 2h-1l-2-1zm780-2l1-1 1 1-1 1-1-1zm-795-1l1-1 2 1-1 1-2-1zm812 1c-1-1-1-3 1-3v2l-1 1zm-20-3v-1l1 1v1l-1-1zm-765-1l-1-2c-2-1 0-2 4-2 2 0 3 1 3 2 0 2-1 3-2 1s-3-2-3 0l-1 2v-1zm757 0c-1-3 2-4 5-3 2 1 2 2 1 3-1 2-5 2-6 0zm-735-3c-2-2-2-4-1-3l2-1c1-1 1 0 1 3v3l-2-2zm-41 0l1-1 2 1-1 1-2-1zm794 0v-4l2 3c1 3 0 3-2 1zm-763-1v-1l3 1c0 2-3 2-3 0zm754 1c1-2 2-2 2-1l-1 1h-1zm13 0v-2c2-1 3 0 1 2h-1zm9-1l3-1c2 0 2 1 1 1-2 2-4 2-4 0zm-796-1v-1l2 1c0 2 0 2-2 0zm767-1c0-2 2-3 3-2l-1 1-2 1zm-764-1l1-2h1l-1 2h-1zm796 0l3-1-1 1h-2zm-25-2l-1-1c-3 0-5-3-4-5 0-1 1-2 3-2l2-2c0-2 0-2 1-1l5 6c2 3 2 3 0 3l-2 2-2 1-2-1zm-818-1v-3c1-1 5 2 4 3-1 2-2 2-4 0zm844-1l2-2c2 0 1 2-1 3-1 0-2 0-1-1zm-794 0v-2c1-1 2 0 2 1l-2 1zm29-1v-2l2 1c0 2-1 2-2 1zm753-1c-2-2-3-7-1-9 2-1 4 1 2 3v3c2 3 1 4-1 3zm-764-1c-1-1 0-3 1-3l1 2c0 2-1 2-2 1zm-7-1l2-1 1 1-1 1-2-1zm827-1l2-1 1 1-2 1-1-1zm-836-2c-1-1-1-2 1-2h1c0 2-1 3-2 2zm4-1l1-1 3 1-2 1-2-1zm812 1l1-2 1 1-1 1h-1zm-56-4l-2-1c-1 0-2 0-1-1s0-1-1-1v-1h2l4 1c3 0 3 1 1 3s-4 2-3 0zm31 0l1-1 1 1-1 1-1-1zm19-1c-1-1 1-3 3-3 2 1 1 4-1 4l-2-1zm-806 0v-2l-3-1c-2-1-3-1-3-3 0-3 2-3 5 0l4 2h1l1 2-2 2h-3zm790-2l-1-2v-1l3-1c4 2 4 5 0 5l-2-1zm-757-2c-1-2-1-2 1-1l2 1c0 2-1 2-3 0zm-26-1v-1l2 1-1 1-1-1zm7-1c-1-1 1-5 2-5l2 1-1 1-1 2c1 2-1 3-2 1zm753 0v-1l1 1v1l-1-1zm49 0l1-2c1-1 3 1 3 2-1 2-4 2-4 0zm-755-2c0-3 1-3 3-1l-1 2c-1 1-1 1-2-1zm698 2l1-1h1l-1 1h-1zm18-2c-1-2-1-2 2-4l2-2 2 2v4c-1 3-4 3-6 0zm-768 0l1-1 1 1-1 1-1-1zm22 0l-3-1c-2 0-2-1-1-2l-1-2-2 1-1 1-1 1c0 3-2 3-3 1v-4c0-2-1-3-3-3l-3-1-1-2-2-1h1l2-1h1l2 1 2-1 1 1 1 2 3 2h2c-1-1-2-16 0-16v-1c-1-1-1-1 0 0l1 2 1 3 1 2c-1 1 0 1 1 1 2-1 2 1 1 4l1 2 3 2 3 2 2 2h-1l-2 1v3c0 2-4 3-5 1zm2-7l-1 1v1l1-2zm25 8l1-1h1l-1 1h-1zm689-2l2-1 1 1-1 1-2-1zm65 1l1-2 1 1-1 1h-1zm-804-2c-1-1-1-3 1-4s5 2 4 3c-1 2-4 2-5 1zm-46-2v-3h2c2 2 0 4-2 3zm42-1l-4-3c-3-1-4-5-1-6 1-1 7 3 7 6 1 3-1 5-2 3zm781-1l2-1 2 1-2 1c-1 0-3 0-2-1zm-804-1l-1-3-1-2c-2 0-2-3-1-5 1-1 4 1 3 3 0 2 5 4 6 2h1c1 1 0 2-1 3-2 0-3 1-3 2h-3zm795-4c1-2 2-2 2 0v2c-1 0-2 0-2-2zm-714 0l1-1 1 1-1 1-1-1zm699-1v-2h1v2l-1 2v-2zm8 0l2-2v2l-1 1c-2 0-2 0-1-1zm68 1l2-2 1 1-3 1zm10-3l2-1 1 1-2 1-1-1zm-61 0l1-1h1l-1 1h-1zm-771-3c0-1 0-2 1-1l1 2s-1 1-2-1zm755 2h2c1 0 1 0 0 0h-2zm-23-2l3-1-2 2-1-1zm16-1c-2-1-2-1 0-3v-4c-1-1 1-5 3-6s2-1 3 2l1 5v1l-2 2c-1 2-2 3-5 3zm-756-3l1-1 2 1-1 1-2-1zm12 1v-2c0-1 2 0 2 2h-2zm-29-4c0-2 0-3 1-2v5l-1-3zm748 0l-3-3-1-1-1-1v-3-3l-1 1c-1 2-1 2-3 1l-3-2-1-1 2-1h4l3-1c2-3 3-1 3 3v4l1 1v1l1-2c1-3 1-3 3-1 0 2 1 2 2 1h2l-1 1-1 2-2 3-2 2v1l-2-2zm-729 1c-1-1-1-2 1-2l1 1c0 2-1 2-2 1zm-16-2l1-1 2 1-1 1-2-1zm23 0c0-2 1-2 2-2h1l4-1-5 4-2-1zm13 0l-1-4c-1-1 2-5 2-4h1l-3-4-2-4 2 2 2 1 2 2c0 1 1 2 3 2 1-1 1 0 1 1l-1 1c-2-1-2 0-1 2 1 4 1 5-3 6l-2-1zm-46-1l1-1 2 1-1 1-2-1zm769 0c-1-2-1-3 1-2 1 0 2 1 1 2h-2zm-753 0l2-1h2l1-1v2h-5zm11-2l-1-2h1l1 2h-1zm-65-1h3-3zm44-1c-1-1 0-2 1-1v2l-1-1zm31 1l-1-3 1-1c2 2 3 3 1 4h-1zm738 0v-3c2-3 3-4 1-3l-2-2c0-2 0-2 5-1 5 0 5 0 5-2l2-2c3 0 3 3-2 7-7 6-7 6-9 6zm93-1l2-1 1 1-1 1-2-1zm-855 0v-2c0-1 2 0 2 2h-2zm18-1v-1l2 1c0 2 0 2-2 0zm10 0c-1-1 0-2 1-2l1 2-1 1-1-1zm-77-1l-3-3c-2 0-2 0 0 0 2-1 5 1 4 3h-1zm135-1c0-1 0-2 1-1v2l-1-1zm-90-1v-1l2 2-2-1zm722 0c-1-1 0-3 1-2v3l-1-1zm34 0l-1-2h2c2-1 2 0 2 1l2 1c1-1 1-1 0 0-2 2-3 2-5 0zm9 0v-1l1 1v1l-1-1zm-762-2c-1-2 1-3 3-1l2 2c2 0 1 1-1 1s-3 0-4-2zm9 1l-1-1c-2-2-2-5 0-5l4 7h-2c-1 0-2 0-1-1zm35-1l-4-2c-2 1-4-1-3-4 0-3 3-3 5 0l3 2 1 3v3l-2-2zm-25 0v-1l1 1v1l-1-1zm1-2c-4-3-3-4 0-3 2 0 3 1 4 3 1 4 0 4-4 0zm728 1c-1-3 0-4 3-3s3 3 0 4c-2 1-3 1-3-1zm67 0c-2-2-2-2 0-3 3-2 4-2 4 0v4c-1 2-2 2-4-1zm-840 0v-1l1 1v1l-1-1zm51 0c-1-2 0-2 1-3s2 0 1 3h-2zm-42-1l-1-1c1-1 3 0 3 2 0 1-2 1-2-1zm113 0l1-2 1 2-1 1-1-1zm731 1c-1-2 2-4 3-3s-1 3-2 3h-1zm-775-3l-3-3-1-1 2-1 4 1c1-1 2 0 3 2 2 5-1 6-5 2zm33 1v-1l2 1-1 1-1-1zm7 1c-2-2-1-3 1-3l2 1c0 2-2 3-3 2zm729-1l2-2 1 2c-1 2-3 2-3 0zm-32 0v-2c2-1 3 0 1 2h-1zm-53-1c-1-2 2-4 3-3l-1 2-2 1zm24 0l1-2 1 1-1 1h-1zm-31-1v-2c2-1 2 0 1 1l-1 1zm48 0c-1-1-1-5 1-5l1 1 2 2v1c-1 2-2 2-4 1zm-758-3l-2-3-1 3c0 2 0 2-2-1s-2-5 1-4h2l1-2h3c1 2 1 2 2 0 2-2 2-2 4 0l2 2c2 0 4 3 4 5l-1 1-2-1-1-3-2 1h-3c-2-1-2 0-2 2 1 3 0 3-3 0zm6 2l-1-2c1-1 2 0 2 2h-1zm-52-2v-1l2 1-1 1-1-1zm6 1l-1-4c0-1 1-2 3-2 2-1 5 3 3 4l-2 1h-2l-1 1zm11-1v-2c2-1 4 0 4 2-1 2-2 2-4 0zm52-1l-1-1-3-2c-1-3-1-3 1-3l2 2c-1 1 0 2 1 1 3 0 5 1 5 3l-3 2c-1 0-2 0-2-2zm701 1l2-2v1c0 3-2 3-2 1zm-742-2c-3-2-3-2-2-3 3-1 5 0 5 3 1 3 0 3-3 0zm91 1l1-1v-1l2-1c1 1 2 2 0 3-2 2-3 2-3 0zm677 0l2-1 1 1-2 1-1-1zm-42-1c-2-2-2-3 0-6l4-3c1 0 2 2 0 3l-2 4c0 4 0 4-2 2zm7 1v-2l-1-2v-2c1-1 1-1 2 1l2 1 1-2h1c1 0 3 4 2 5l-7 1zm17-1l1-1v-1h2c1 1-1 3-3 3v-1zm-716 0c-1-1 0-3 2-3l1 2c0 2-2 2-3 1zm31 0c-1-2 1-6 2-6v3c-1 4-2 4-2 3zm-60-2l-1-3v-2l1 1 1 1c4 0 5 0 2 2-2 3-3 3-3 1zm828-1l2-1h1l-2 2c-1 1-1 0-1-1zm-89-1c0-1 0-2 1-1v2l-1-1zm3 1v-2h2l2-1 1-2v4h-1-1l-3 1zm36 0l2-2h1l-1 2h-2zm10-2c0-2 2-2 3 0l-1 1-2-1zm-761-1c-2-2-3-5-1-5l1 2c-1 1 0 2 1 2l1 2-2-1zm20 0c-1-2 0-2 1-3 2-1 2-1 3 2 0 3-2 3-4 1zm670-1c0-1 1-2 2-1s0 3-1 3l-1-2zm-772 0v-1l1 1v1l-1-1zm46 0c-1 0-2-1-1-2h3c2 1 3 4 2 3l-4-1zm711 0l-3-2c-3 0-2-3 0-3 3-1 6 3 5 5 0 2-1 2-2 0zm-662-1l1-1 1 1-1 1-1-1zm55 1c0-1 0-2-1-1-1 0-5-4-5-6l1-2v-2-4c0-3 0-3 2-2v-2l1-3v-3c-1-4 2-3 5 2v4 5c1 0 2 3 1 4h-2l-3-1c-3 0-3 3 0 6l2 4-1 1zm1-22c-1-1-1 0-1 1l1 1v-2zm617 22l1-2h1l-1 2h-1zm-609-3c0-1 0-2 2-1l1 3h-1l-2-2zm636 2l3-1-1 1h-2zm58-1h2l-1 1s-2 0-1-1zm-780-2l2-4h1v2l1 2-1 1h-2c0 1-1 1-1-1zm733 0c1-3 3-5 3-2l-3 5v-3zm27 2l1-2 1 1-1 1h-1zm-842-2l1-1 1 1-1 1-1-1zm106-1c0-2 0-3 1-2v3c-1 2-1 2-1-1zm81 1l-2-1c-1 1-2-2-1-4l4 1h4l4-1-1 2v2l-3 1-4 1-1-1zm615 0l-2-2-3-1c-1 0-1-1 0 0l1-1c0-2 0-2 1 0l2 1h1l1 1 1 1c1 1 0 2-1 2l-1-1zm18 1l2-4 3 1 2 1h-2l-2 2h-3zm-719-2c1-1 0-3-1-3v-4l4 8h-2l-1-1zm17 0l2-1 1 1-1 1-2-1zm659 0c-1-1 0-1 1-1l1 1c-1 2-2 2-2 0zm7 1l1-1h1l-1 1h-1zm3-2c0-1 0-2 2 0l1 1-1 1c-1 0-2 0-2-2zm-610 1v-3c1-2-1-4-5-4-1 0-2 0-2-2l2-4v-2l2-3v-4c-2-3-2-6-1-5l1-1h-3v-1h3l3 1c2 0 6 5 6 7s0 2 1 1l1-4v-1c-1 1-4-2-4-4l-2-1v-2l2 2c2 1 3 2 4 1l2 1v2l1 2v2l1 6c0 4 0 5-2 5l-1-3-1-4-3 2-1 1c-1-1-2 0-3 1l-3 1c-1-1-2 1-1 4 1 1 1 1 2-1 0-2 0-2 1 0s5 1 4-2c0-2 0-2 2-1l1 2v2c2 1 1 3 0 3l-2 1c0 2-5 6-5 5zm3-7l-2-1v1l1 1 1-1zm1-13l-1-3c-2-3-2-3-2-1-1 3 0 5 2 5l1-1zm182 16c0-3 1-5 2-5h3c2 1 2 1-1 4l-3 4 1-1c1-1 1-1 1 1l-1 1c-1 0-2-1-2-4zm4-3l-1-1-1 1 1 1 1-1zm-343 5l1-1 1 1-1 1-1-1zm88 1v-2l-1-3v-1l1-2-2-1v-1c2-2 3-3 1-4-1 0-2 0-3 2-2 2-3 2-4-3 0-3 0-4 2-3h3c1-1 1-1 3 1l3 5c2 1 2 5 0 5-1 1 0 1 1 2l1 3c-2 2-4 3-5 2zm14-1v-1l2 1-1 1-1-1zm646-1c2-3 3-3 3-1l-1 1-2 1v-1zm-708 0l-1-3 2 2c1 3 1 3-1 1zm693 1c-2-1-1-2 1-2 3 0 4 1 2 2h-3zm-766-2c-1-1 0-2 2-1l1 1c-1 2-3 2-3 0zm13 0v-1l2 1c0 2 0 2-2 0zm39 1l1-1h1l-1 1h-1zm78-2c-1-3-1-4 2-2s3 3 0 4c-1 0-2 0-2-2zm8 2v-2c1-1 1-1-1-1-3 0-6-2-6-4l1-2v-2c-2-4-2-5 0-5l1 2c0 1 4 5 6 5 1-1 3 7 2 8-2 2-2 2-3 1zm37 0v-4l-1-3v-3c2-2 4 1 4 6l-1 4h-2zm71-1l-2-1-2-1c-2-2-3-2-4-1s-1 0-2-1h-3c-3-1-3-3 0-3 2-1 5-4 3-6v-3l1 1 2 2 1-1c-1-2 2-3 3-2v2h-1l-1 1 2 1 1 2-1 3c-2 0-1 2 2 5l3 3-2-1zm509 0c-2-1-2-3 0-2l1-1c0-2 3-4 4-4 2-1 1 2-1 5-2 1-2 3-2 3l-2-1zm-697-1l-2-1c-2 0-2 0 1-1 3-2 3-2 3 1l-1 2-1-1zm20-1l-2-4c-1-3 3-3 4 0l3 3c1 1 1 1-1 1-2-1-3 0-2 1 1 2 0 2-2-1zm120 1v-1l2 1-1 1-1-1zm647 0l2-1h1l-2 2c-1 1-1 0-1-1zm-784-1l2-2v2l-1 1-1-1zm139-1v-3c0-2 3-2 4 0h1c1-1 4 1 4 3h-2l-4 1-3-1zm567-1l-2-3c1-1 0-2-1-2v-2l2-2c0-3 2-3 3 0 1 1 0 2-1 3l-1 1c0 2 3 2 3 0l2-1c1 1 0 5-1 7-1 1-2 1-4-1zm157 2l2-1h1l-3 1zm-910-1l-1-3c0-3 4-2 5 1 0 2 0 2-2 2h-2zm767-1v-5c1-3 2-3 4-1 2 1 1 4-1 6h-3zm3-4v-2l-2 2c-1 2-1 2 1 2l1-2zm134 4l1-1 1 1-2 1v-1zm-894-1v-2c1-1 3 1 3 2 0 2-3 1-3 0zm17 0c-2-1-2-3-1-5s1-2 3-1l1 3v2c1 1 1 3-1 3l-2-2zm62 0c-1-1-2-3-1-4 0-2 0-3-1-2l-1 1c-1-1 3-3 4-2l2-1c0-2 0-5-1-4l-1-1c0-2 1-2 3-1l4 1c1 1 1 8-1 9-1 1-1 0-1-1 0-2-2-2-2 1 0 2-1 2-2 0h-2l1 3c2 2 1 3-1 1zm-101-1c-2-2-2-2-1-4 2-1 2-1 4 1l2 3c-1 2-2 2-5 0zm107 0l2-2 1 2-1 1-2-1zm684 0c0-1 0-2 1-1l2 1h1l-2 2-2-2zm-634-1c-2-2-3-2-4-1s-4 0-4-2l1-1c1 1 2 0 2-1 2-4 5-5 4-2-1 2 0 3 1 3 2 0 4 3 2 5l-2-1zm-102-1v-2l1 2v1l-1-1zm34 0c-2-1-2-2-1-2h3l1 2h-3zm122 1l1-2 1 1-1 1h-1zm11-1l1-2 1 1-1 2-1-1zm590 0l1-1 1 1-1 1-1-1zm-511-1v-1l1 1v1l-1-1zm16 1v-2l1 1c0 2 0 2-1 1zm563-1l3-2c2-1 2-1 1 2 0 2-4 2-4 0zm-837 0l3-1-1 1h-2zm81-1c-1-2 0-3 2-2v3l-2-1zm81 0l-1-2 3 2v1l-2-1zm105 0c-1-2 0-3 1-1v2l-1-1zm36 0v-1h3v1c0 2-1 2-3 0zm-119-2c-3-2-4-4-2-3s3-1 1-3-3-2-2 0c0 3-1 4-3 4l-2-1h-1l-4-1c-1-2-3-2-3 0h-1l-3 1c-3 3-4 3-4 2-1-1 0-2 2-2 1 1 1-1 1-2l2-4 1-2c-1-2 0-2 2 0 2 1 2 2 1 3v1h2l1 1c0 2 5 0 5-2v-1c-1 3-2 2-2-2-1-5-1-7-3-9-1-1 0-1 2-1l2 2 3 2c2 1 2 1 1 2l-2 1c-2-1-2 1 0 3s3 2 4 1v-1l-2-1 2-1 3 1c1 1 1 0 1-2-1-3 1-5 2-3v8c-2 1-2 4 0 4l2 6c-1 2-3 2-6-1zm523 1v-1l1 1v1l-1-1zm-614-1c-1-1 1-5 2-5s3 1 3 3-2 2-3 0c0-2 0-1-1 1 0 2-1 3-1 1zm72 0v-1l2 1-1 1-1-1zm10 1l2-2 1 1-3 1zm502 0c-2-1-2-2-1-3s4 1 4 3h-3zm53-1v-1l-1-2h-4l3-2c1 0 2-1 2-3l1-5c1-1 1-5-1-5l-1-1c0-2 3-1 4 0 1 2 1 5-1 8-2 2-2 2-1 3 1 0 2 0 0 1-1 2-1 4 1 5s2 1 0 2h-2zm21 0c-1-2 0-3 2-2l1 3-3-1zm-702 0v-2-2l-1-2v-2c1 0 2 0 1 1h1l2 3v3c-2 2-2 2-3 1zm151 0l1-2 1 1-1 1h-1zm108 0l-1-3c0-2 0-2-1-1-1 2-1 2-1 0s0-2-1-1l-2 2-2 1c-2 2-2 2-2-4v-8c1 0 2-1 2-3 0-9 5-10 4-1 0 5 0 5 3 6l3 2v2 4c2 3 0 6-2 4zm418-1a1 1 0 0 1 2 0 1 1 0 0 1-2 0zm125 0h2l-1 1s-2 0-1-1zm-733-2c-1-3 0-3 1-1v3l-1-2zm599 2c1-2 2-2 2-1l-1 1h-1zm39 0v-5l1 1 2 1 1-2h-2c0-2 1-2 4-2 1 1 2 1 3-1 0-1 0-2 1-1l2 1v2l-5 4c-1 1-1 0-1-2v-2l-1 2-2 3-2 1h-1zm-711-4c-2-2-2-3-1-3l3 5-2-2zm32 2c-1-1 2-8 3-8 4 0 5 4 2 5l-3 2c0 2-1 2-2 1zm54 0c-2-1-3-6-2-7h2l1 7h-1zm189 0v-2h-2c-2 0-3 0-2-1l-2-1c-2 0-2 0-2-3 0-2 0-3-2-3-2-1-2-5 1-5l1-1 1-1v2l1 1v1l-1 2 2 1h2c3 1 7 10 4 10h-1zm361-1a1 1 0 0 1 2 0 1 1 0 0 1-2 0zm-705-1v-1l1 1v1l-1-1zm354 0l-1-1c-2 0-2 0-1-2l1-5 2-1c1-1 1 0 1 1v1l1-1h2l1 2v1c3 0 4 2 1 3l-2 2-2 1-3-1zm354 0v-3-2c-2-2 0-4 2-3s2 0 2-6c0-3 0-4 2-3l2-2-1-3c-1 1-3-4-2-6 0-2 0-2 1 0l2 2c2-1 2 0 1 1-1 3 1 4 4 2h2l-4 4-1 5-2 2-1 2v2c-1 0-2 4-1 5v2c-2 2-5 3-6 1zm62-2c0-4 2-4 2-1l-2 4v-3zm-745 2l2-1 1 1h-1-2zm12-1l-1-1c1-1 3 0 3 2 0 1-2 1-2-1zm41 0l1-1 1 1-1 1-1-1zm53 1l-1-2h1l1 2h-1zm92-1l-1-7c-1-5-1-5 1-4l2-1h1l2 4c2 2 2 2 0 1-3-1-4 0-4 5 0 4 0 4-1 2zm539 0c-2-1-3-1-2-2s1-2-1-2h-2c-1-2 5-7 6-6h-1l-1 3 2 2 1 1 1 3c2 2 0 3-3 1zm50 0c0-1 0-2 1-1v2l-1-1zm-684-1l-2-2-2-2c0-3 0-3 2-1l2 1c2 0 2 2 1 4s-1 2-1 0zm51 1l-1-1h-1l1-2c1-1 3 2 2 3h-1zm37-2c-2-3-2-5 1-5l1 2 1 3v2l-3-2zm524 2l1-1h1l-1 1h-1zm6-1l-2-3c-2-1-3-3 0-3l1-2 2-2c1-1 1-1 1 1l-1 2-1 2 1 2 1-2c-1-1 1-2 3-1v2l-2 3c0 2-3 3-3 1zm-705-1v-1l2 2-2-1zm70 0l2-1v-2h1c2 1 1 3-1 4l-2-1zm36 0c-3-2-4-4-2-5l1-2c-2-4-2-7-1-7 2 1 4 4 4 7 1 1 1 2 3 2 1-1 1 0 1 1 0 2-1 2-4-1-2-2-3-1-2 2l2 1 2 1c0 2-1 2-4 1zm-92-1v-1l2 1c0 2 0 2-2 0zm4-1l-1-4 4 4c1 3-2 3-3 0zm124 1c0-1 0-2 1-1v2l-1-1zm583 0a1 1 0 0 1 2 0 1 1 0 0 1-2 0zm-674-1h4c1 1 1 1-1 1l-3-1zm39-1l-3-3c-1 0-2-1-1-2v-3c0-3 2-2 3 2 0 2 1 2 2 1h3v4h-1l-1 1-2 3v-3zm137 2l-1-3c1-1 1 0 2 1 1 3 1 3-1 2zm510-2h1c2 1 3 2 1 2l-2-2zm-639 0v-1l1 1v1l-1-1zm99-1l1-2v3c0 2-2 2-1-1zm560 2l1-2 1 1-1 1h-1zm67-2l2-2c2 0 3 1 1 3s-3 2-3-1zm-855-1c0-2 0-2 2 0l1 2h-1l-2-2zm340 0l1-1v3l-1-2zm-236 0v-4l2 2c0 2 1 2 2 2h1c0 2-4 2-5 0zm70-1l-3-3-1-1c0-1 1-2 2-1l2-1c1-3 3 0 4 4 0 5 0 5-4 2zm543 1v-2l1-1c0-2 0-2 2 0l1 2c0 2-2 2-4 1zm90 0l1-1 1 1-2 1v-1zm-776-4c-2-4-2-5 0-4l1 3 1 2h2c2 0 3 2 1 2-2 2-2 2-5-3zm59 4c0-2 2-3 2-2v2h-2zm56-2c0-2 1-2 2-1s-1 3-2 3v-2zm77 1c0-3 0-3-3-6-2-1-3-4-3-6l-3-5c-2 0-2-1-1-3 0-3-1-6-4-5-2 1-2 0 0-3v-3c-2-2 0-4 2-3 1 1 2 2 1 4 0 2 0 3 2 4l1 3v1l2 4 1 2 2 1 1-1 1-4c0-1 0-2-1-1l-2-1-2-1c-2 0-2 0 0-1v-3l-1-4-1-3-1-3v-3l2 3 4 7 2 5h1c1-1 1 0 1 1v2l1 4c-1 3 0 4 1 4 2 0 4 3 4 6l1 2h2l1 5-1-1-1-1-4-3c-4-5-5-3-1 2l2 3-2-1c-1-3-3-2-3 1 0 2-1 2-1 1zm0-15l-1 1 1 2v-3zm37 14c1-2 2-2 3-1s1 1-1 2c-2 2-3 2-2-1zm76 2h2c1 0 1 0 0 0h-2zm-278-2l1-1 1 1-1 1-1-1zm108 0v-1l2 1-1 1-1-1zm-36-1l-2-2c-2-2-4-7-2-7l1-1v-2l1 2v3l1 3c0 2 1 2 2 3 2 1 3 3 1 3l-2-2zm34 0l-1-2h-3l-3-1-3-1c-2-1-2-1-1-2s1-1 2 0c2 1 2 1 4-1s3-3 4-2 1 0 2-1c2-1 3 0 2 2l-2 5-1 3zm549 1c-2-1-2-1 0-2l2-1 1 1v1l-1 1h-2zm-746-2l1-1 1 1-1 1-1-1zm125 0l-3-1-1-2c0-1 0-2-1-1-2 2-3 1-3-2s0-3 2-1l3 1c2 0 3 0 4 2 1 4 1 7-1 4zm18 1l-1-2c1-1 2 0 2 2h-1zm43-1c0-2 1-2 2-1l-1 2-1-1zm192 0v-1l1-4c1-5 4-6 4-2l1 4-2 2c0 2-3 3-4 1zm384 1l-2-1-2-1c0-2 1-2 5-1l2 2c-1 2-3 2-3 1zm29 0v-6c2 0 3 5 1 6h-1zm32 0l2-3c1-1 1-1 1 1s-3 3-3 2zm-716-2l1-1 1 1-1 1-1-1zm6-1v-3-1l1-2c2 0 2 2 1 3v5l-2-2zm19 2l-1-1c-1 0-2 0-2-2l2-2 2 5h-1zm119-1v-1l1 1v1l-1-1zm117-1v-2c0-1 0 0 0 0l2 2 1 1c0 2-3 2-3-1zm45 1l2-2 1 1c-1 2-3 3-3 1zm304-1l-2-4c0-1 4 3 4 5s0 2-2-1zm-488 0l-1-2c-3 0-3-1-2-5 1-2 2-2 3-2v-1c0-1 2-4 4-4l2 2 1 1c1-1 1 0 1 1l1 1 1 1-4 1c-6 0-7 1-5 3 3 2 3 5 0 5-1 0-2 0-1-1zm6 0l2-2c1-1 1-1 1 1l-1 3-2-2zm-88-1v-3l2 4-2-1zm96 0v-1l1 1v1l-1-1zm371 1c-1-1 0-1 1-1l1 1h-1-1zm81 0c0-2 3-5 4-5v-1l1-1c2 0 2 4 0 4l-2 2c-2 2-3 2-3 1zm86-1a1 1 0 0 1 2 0 1 1 0 0 1-2 0zm50 0l1-1 1 1-2 1v-1zm-749-1v-2l2-2h2c2 1 2 1 0 3-2 3-3 3-4 1zm163-1c-2-2-4-2-4 0-1-1 0-4 1-3l1-1 2-2 2 2 2 3v2c-2 2-3 2-4-1zm525 2c0-2 2-3 3-2l-1 2h-2zm118-1c0-2 1-3 2-3 2-2 3-1 1 3-1 2-3 2-3 0zm-854-1v-1l1 1v1l-1-1zm74 0l-1-2 1 1v1zm186 0v-1l1 1v1l-1-1zm398 0l-1-2v-2l1 1 1 1c2 0 3 1 2 2l-2 1c-1 0-2 0-1-1zm33 1l-2-1c0-2 4-5 6-5 2 1 1 2-1 3-2 0-3 1-2 2h2l-3 1zm29-2c0-2 1-3 2-3l2 4c-1 2-4 2-4-1zm12-1l1-2 1 3-1 2c-1 1-1-1-1-3zm18 2h-1l3-2c1-2 1-2 2-1v3c-1 2-2 2-4 0zm-129-3l1-2v5l-1-3zm-608 1l1-1 1 1-1 1-1-1zm93-1l-4-3c-2-1-2-1-1-3l1-2 2 2 4 5c1 1 2 3 0 3l-2-2zm73 2l-2-1-1-3c0-1 0-2 1-1h1l-1-2h-2c0-2 4-4 4-3l4 2c3 0 3 0 3 2s-1 3-3 3c-1 0-2 0-1 2 0 2 0 2-3 1zm142-1c-1-1-1-4 1-4l2-1h2l2 4c-1 2-3 2-3 0l-2-1c-2 0-2 1-1 2 2 2 1 2-1 0zm15 1v-2l1-1h-1c-2 0-2 0-2-3s0-4-2-5c-2 0-2-1-1-3l3-1 1-2 2-2 1-1 1-1c2 0 1 4 0 4-2 0-4 7-3 9 2 2 2 3 2 6 1 2-1 3-2 2zm379-1c1-2 3-2 3 0l-2 2-1-2zm-639-1v-1l1 1v1l-1-1zm65 1c-2-2-1-2 2-2l2 1c0 1-3 2-4 1zm27-2v-3c1-1 3 3 3 4 0 3-3 2-3-1zm4-1c0-4 1-4 2-3v4c-2 3-2 3-2-1zm529 3l1-2 1 1-1 1h-1zm27-1l1-2 1 2-1 1-1-1zm9 0c-1-2-1-2 2-4s4-2 6-1c3 1 2 4 0 4-2 1-2 0-2-1 1-3 0-2-3 1-2 2-3 2-3 1zm19 0c-1-2 0-3 2-2s2 1 0 1l-1 1v1l-1-1zm-609-1c-1-2 0-3 1-2v3c-1 1-1 0-1-1zm-52 0v-2l1 1c0 2 0 2-1 1zm16-1l1-1 1 1-1 1-1-1zm40 0l1-1-1 2v-1zm94 1v-2l1-3c-1-5 0-6 5-4l3 2v6-2c0-1 0-2-2-1l-3-1-3-1 1 2c2 0 2 1 1 3s-2 2-3 1zm18-1l-2-4c-2-3-2-3 0-2h3v1c-1 2-1 3 1 4l1 2-3-1zm77 1v-4c1 0 1-1 0 0-1 0-2-1-2-3h2l1-1v-1l2 5c0 4-1 5-3 4zm26-1c-1-1 0-5 2-7l2-3c-1-1 0-5 1-4l3-1h2l2 5 2-1 2 1c2 2 2 3 0 3-2-1-2 0-1 2v3h-3c-1 2-2 2-3 2v-2l1-2h-1l-7 5-2-1zm424 1l1-1h1l-1 1h-1zm-91-2l1-1 1 1-1 1-1-1zm62 0c2-3 3-2 2 0l-2 1v-1zm-688 0c-1-1 0-1 1-1 1 1 2 1 0 1h-1zm55-2l1-1 1 2-1 1c-1 1-1 0-1-2zm14 2v-6c2-1 2 2 1 5l-1 1zm46-3c-2-3-2-4 0-6 2-3 4-3 5-1v2l-1-1-1 1-2 3v3c2 3 1 3-1-1zm43 2c0-2 1-4 3-5 1-1 2-1 2 2 1 3-4 5-5 3zm434 1l1-2c1-2 1-2 1 0l-1 2h-1zm52-1l1-2 1-2c0-2 2-2 2 0v2l-1 1c0 2-3 3-3 1zm36 0l2-2 1 2c-1 2-3 2-3 0zm-756 0c0-1 0-2-1-1s-1-1-2-2l1-1 3 4h-1zm161 0v-2h1c1 2 0 3-1 2zm205 0l-1-3-1-1-1-2-2-5v-3-2h2l1 2c-1 1 0 3 2 5 2 3 3 6 1 6v1c1 1 0 3-1 2zm285-1l1-3c1-2 1-2 1 0l1 2v1c-2 2-3 2-3 0zm-329-2l-3-3v-2c1-1 5 3 5 6 0 2-1 2-2-1zm372 1c0-2 1-2 3 0 1 1 1 1-1 1l-2-1zm22 1c-1-1 0-1 1-1s2 0 0 1h-1zm-662-1c-1-1-1-2 1-2l1 2h-2zm99 0v-2c-1-3 0-3 1-1v3h-1zm491-1c0-3 1-3 1-1v2l-1-1zm42 1v-5c0-4 0-4-2-3-2 0-3-1-2-3h4l3-1c0-1 3-1 3 1l-2 3-1 1 1 2 1 2 1 2c0 1-5 2-6 1zm-560-2l-2-1-1-1c0-2 0-2 3 0 2 1 3 4 2 4l-2-2zm79 1c-1-1 0-1 1-1s2 0 0 1h-1zm123-2c0-3 1-3 2 1l-1 2-1-3zm280 1l1-3 3-1h-5c-4 0-5 0-4-1l-1-1h-1v-3c-1-1 0-2 1-2 2 0 2-1 2-2-1-2 1-2 2 0l-1 1c0 2 1 2 1 1l1-3c-1-2 0-2 2-2 3 0 4 1 1 2-1 1-2 1-1 2l2 2c0 3 2 4 3 4h2l-1 1v2h-3v3c0 1-3 2-4 0zm123 0l4-5c1-1 2-1 1 1 0 3-5 7-5 4zm16 0v-1l1 1v1l-1-1zm12 0l1-1 2-1 2-2c2 0 2 0 1 2l-2 1-2 1-1 1-1-1zm6 1l1-2 1 1-1 1h-1zm-434-1v-2l1 1c0 2 0 2-1 1zm299-1l1-3c2-1 2 0 1 2-2 3-2 3-2 1zm97 1h2c1 0 1 0 0 0h-2zm-722-4l1-2 1-1 1-1 1 2c-1 0-1 0 0 0l1 1-2 1v1c1 1 0 3-2 3l-1-4zm78 1c-1-2-1-2 1 0l1 2-2-2zm26 1v-5-5c0-1 1-1 2 1s2 6 0 5c-1-1-1 0-1 1l1 2 1 1c0 2-2 2-3 0zm28 0c-1-2 0-2 1-2l1 2c0 2-2 2-2 0zm32 0c-1-2-1-3 1-2v2c-1 2-1 2-1 0zm64 1c-1-1 0-4 1-3l1 2c0 2-1 2-2 1zm7 0l1-2v-3l-1-2 2 2c2 2 2 3 1 4-2 2-3 2-3 1zm49-1c-1-2 1-5 3-4v3c-2 3-2 3-3 1zm18 0l2-2c2 0 1 3-1 3l-1-1zm6-2c1-7 1-7 3-6 2 2 2 4 0 5-1 0-2 1-2 3l-1 1v-3zm33 2c-1-1-1-2-2-1h-2c-1-1 0-2 1-2 2 0 5 3 5 4l-2-1zm301 0l1-2 2 2c1 1 1 1-1 1s-3 0-2-1zm7-2l-1-3-2-1 2-2 1 1 2 1c1 0 2-1 0-2s-1-3 1-3l2-1c0-2 0-2 1 0l3 3c1 0 1 0 0 0-2 1-2 1-1 3l-1 3c-1-1-2 0-3 2-1 4-4 3-4-1zm13 2l-1-1-2-1-1-3c0-2 0-2 2 0 1 1 2 2 1 3l1 1v1zm76 1l1-1h1l-1 1h-1zm29-1a1 1 0 0 1 2 0 1 1 0 0 1-2 0zm7 0l-1-1c-2 0-2 0-1-1l1-2v-1l2 1 1 1h1v1c2-1 3 0 1 2s-4 2-4 0zm-708-1l1-1 1 1-1 1-1-1zm128 1l-1-3c0-3 0-3 1-1l4 2c2 0 2 0 1 1-1 2-2 2-5 1zm498-1l2-2 2-1c2 0 2 0 1 1 0 2-1 2-2 2l-2 1c-2 1-2 1-1-1zm21 0v-2-2h1v4c-1 2-1 2-1 0zm-652 0c-1-1-1-2 1-3 1-1 2-1 2 1s-2 3-3 2zm13-1l1-1 1 1-1 1-1-1zm61 0l1-1 1 1-1 1-1-1zm44 1c-1-1 0-2 1-2l1 1c0 2-1 2-2 1zm526-1l2-5h2c1-1 1-1 1 3 0 3 0 4-1 2h-1c-1 2-3 2-3 0zm-553-1l1-2v1c0 3-1 3-1 1zm89 1c-2-2-1-3 2-3l3 1-1 1-2 1h-2zm12-1c0-1 0-2 1-1l3-1 2-1 1 2c0 1-2 2-2 0l-2 1c-2 2-3 2-3 0zm97 0h3l-1 1-2-1zm13 1v-3l3 1c0 1-2 3-3 2zm164-1l1-2 1 1-1 2-1-1zm140 0c-1-1 0-2 2-2v2c0 2-1 2-2 0zm23 0l1-2v2l-1 1v-1zm53 1l1-2h1v2c1 0 1 0 0 0h-2zm-675-2l-1-2c1-1 4 1 4 2h-3zm106 0v-4c1 0 4 4 3 5 0 1-1 1-3-1zm48-2l2-3c1 1 1 6-1 6-1 1-1 0-1-3zm105 2l-2-4c-1-4 1-6 4-2 2 3 2 4-1 4v3l-1-1zm309 1l2-3 1-3 1-2v-1l-2-1c0-1 1-2 2-1l3-1 2 1 1 3 1 1-2 1c-2-1-2 1-2 3h-2c-2-1-3 0-3 1l-1 2h-1zm104-2l1-2 1 2-1 2-1-2zm79 1l2-1h1l-2 2c-1 1-1 0-1-1zm-686-1l1-1 1 2h-1c-1 1-1 0-1-1zm115 0l1-2v2l-1 1v-1zm13 0v-3h2c1-1 1-1 1 1 0 3-1 4-3 2zm319 0v-1l2 2-2-1zm50 0v-2l1 2v1l-1-1zm33 0l-1-2v-1c1 1 2 0 2-1l1 2-1 3-1-1zm-521-1l1-1 1 2h-1l-1-1zm42 0v-2l2 1c0 2 0 3-2 1zm113 0l-2-2c0 1-2 0-3-2l-1-1 2-1c1-2 1-2 1 0l2 3 1-1 1-1 1 2v3h-2zm24-1l-1-2c1-1 4 2 4 3 0 2-1 2-3-1zm306 2c-1-2 1-5 2-5 2 0 1 1 0 2s-2 2-1 3h-1zm43-1l-1-6c0-2 0-2 1-1l1 4c-1 1 0 2 1 2l1 2c0 1-1 1-3-1zm142 0l2-1h1l-2 2c-1 1-1 0-1-1zm-783 0c-1-1 0-3 1-3s2 2 1 3h-2zm43-1c0-1 1-2 2-1h2v1c-1 2-4 2-4 0zm57 0v-1l2 1c0 2 0 2-2 0zm144-2l-3-4-2-1h-2l2-2 3-1 2-2c2-2 2-2 3-1v3l-1 2v2c-3 1-2 3 0 3 1 1 2 1 2 3l-2 2c-1-1-2-1-2-4zm66 3h2c1 0 1 0 0 0h-2zm11-1l2-2 2 2-2 1c-2 1-2 0-2-1zm340 0c-1-2-1-2 2-3h3l-3 4-2-1zm-629-1v-3l2 4-2-1zm38 0c-1-1 0-2 2-1l1 1c-1 2-3 2-3 0zm63 1l1-2 1 1-1 1h-1zm49 0l-1-2c1-1 2 0 2 2h-1zm340-1h-2v-2l3-2 1-1c-1-1 0-1 2-1 3 0 4 3 1 4l-2 2c-1 2-2 2-3 0zm214-1l3-4c3 1 3 2 0 3l-3 2c-2 2-2 2 0-1zm-480 1v-2l1 1c0 2 0 2-1 1zm76-1l-1-3c-2-2 1-3 3-1l2 2-1 1-2 1c-1 2-1 2-1 0zm14-1l1-2c1 0 2 3 1 4s-2 0-2-2zm115 1l1-2 1 1-1 2-1-1zm83-1c-2-1-3-3-2-3 1-2 2-2 2 0s0 2 1 0c1-1 1 0 2 2 2 4 1 5-3 1zm144 2v-2l-1-1-1-1h3c2 1 2 1 2 3-1 2-3 2-3 1zm8 0l-2-2c1-2 3-2 3 0l1 2h-2zm-647-1l-1-2h2l1 2h-2zm254-2h1c2 1 3 2 1 2l-2-2zm66 0l1-2v2l-1 2v-2zm359 2l1-2 1 1-1 1h-1zm-795-1c-1-1-1-2 1-2l2 1c0 2 0 2-3 1zm122-1l-1-1h2c2 2 1 3-1 1zm42-1c-1-3 0-4 2-3 1 1 2 5 0 5l-2-2zm42 1c0-1 0-2 1-1v2l-1-1zm62 0c-1-1 0-3 1-3v4l-1-1zm81 0l-1-4 1-1 2 1 1 2c0 3-1 4-3 2zm82 0v-1l2 1c0 2 0 2-2 0zm337-1c0-1 2-2 3-1s0 3-1 3-2 0-2-2zm-530 0v-1l1 1v1l-1-1zm21 0l1-1 1 1-1 1s-2 0-1-1zm4 0l2-1 1 1-1 1-2-1zm78 0l3-3 1-1-1 4-1 1-2-1zm328 1l2-3 1-2c-1-2 3-3 3-1 1 2 0 4-2 3l-2 2-2 1zm80 0c-1-1 0-3 1-3l1 2c0 2-1 2-2 1zm32-1l1-2 1 2c1 1 0 1-1 1l-1-1zm75 0c-1-2-1-4 1-5l1 1 1 3c0 3-1 3-3 1zm-682-2c0-2 0-2 2-1 2 0 2 1 1 2-2 2-3 2-3-1zm38 1l1-3 1 2c0 3-2 3-2 1zm20 0v-2c1 0 3 0 3-2h2c1 2 0 4-2 3l-1 1c0 2-1 2-2 0zm9 0c-1-1 0-2 1-1v2l-1-1zm37 0c0-1 0-2 1-1v2l-1-1zm9 0l-1-5c-1-2 0-4 1-5h3v2l-1 2 2-1 1-4c-1-3 1-3 2-2l2 1v6c0 3 0 4-2 4l-2 1c0 2-4 2-5 1zm376 0c-1-2 1-4 2-2 1 1 1 3-1 3l-1-1zm-460-1v-1l1 1v1l-1-1zm175 0l1-1 1 1-2 1v-1zm13-1l-1-4 2-1c2 0 3 0 2 2 0 2 0 2 1 1l3-1h1l-1-2-2-2 2-1 1 1 1 2 1 1-1 2h-2l-3 2c-3 3-4 3-4 0zm22 1c-1-1 0-3 1-2v3l-1-1zm9 1v-3c1-1 2 0 1 2l-1 1zm9-1c-1-3-1-3 2-5 2-2 2-2 1 0l-1 4c0 3-1 3-2 1zm284-1l1-4 4 3v1l-4 1c-2 2-2 2-1-1zm45 2c0-2 4-5 5-4 1 0 1 0 0 0l-3 3-2 1zm65 0l1-2 1 1-1 1h-1zm-781-2c-1-2-1-3 1-1v2l-1-1zm20 0v-2l2 2-1 1-1-1zm44 1l-2-2v-1c1-1 0-1-1-1l-1 2c0 2-1 2-3 0-1-2 0-3 3-3s6 4 5 5h-1zm14-1l1-1 1 1-1 1-1-1zm49 1v-2l1 1c0 2 0 2-1 1zm9-2l-1-2v-1l2 2c2 2 3 4 1 4-1-1-2-1-2-3zm29 1v-1l1 1v1l-1-1zm56 0c-1-1-2-2-3-1l-2-1h-1l-1-1v-2l1-1v1l1 1 1-2c0-2 2-2 3 0h3l1 2-2 4c0 2 0 2-1 0zm-1-4a1 1 0 0 0-2 0 1 1 0 0 0 2 0zm102 4l-1-1h2l1 2-2-1zm262 1l1-1h1l-1 1h-1zm111-1l2-2v2l-2 1v-1zm50 1c-1-1 0-2 1-4l1-2v3c0 3-1 4-2 3zm-520-3c0-3 2-3 3-1 2 3 1 3-1 3-1 0-2 0-2-2zm28 2l1-2h1v2c1 0 1 0 0 0h-2zm39-1c-1 0-2-1-2-3 0-3 4-1 4 2v3l-2-2zm45 0c-1-1 0-2 2-1v1h-2zm21 1l1-1h1l-1 1h-1zm7-1c-2-1-4-7-3-7l3 1c2 1 2 1 1 3v3c2 2 1 2-1 0zm285 1c0-2 2-4 3-3l-1 2-2 1zm90 0l3-1-1 1h-2zm-540-2c-1-2 0-4 1-2v3l-1-1zm115-1l-1-2 1-2c0-2 2-2 3 0l1 5c-1 2-3 1-4-1zm235 1l1-1c2 0 2 2 0 2l-1-1zm51 0l1-2 1 1-1 2-1-1zm55 0l2-2 1 2-1 1-2-1zm-576-1l-1-3 2 1 1 2h-2zm19 0c0-1 0-2 1-1v2l-1-1zm75 0c-1-1 0-3 1-3l1 2c0 3-1 3-2 1zm4 1l1-2 2-1 2 1 1 1-3 1h-3zm105-1l-1-2c1-1 2 0 2 2-1 2-1 2-1 0zm13 0c-1-2 0-2 1-2 3 1 3 2 2 3-2 1-3 1-3-1zm86 0a1 1 0 0 1 2 0 1 1 0 0 1-2 0zm186 1l1-2v-1c-1-1-1-1 1-2 2-2 5-1 5 1l-1 1h-1l-2 2-3 1zm93-3l2-5h1l-1 4-1 4-1-3zm64 3v-3c2-1 2 0 2 1 0 3 0 3-2 2zm-577-2v-1l1-1c-1-1-1-1 0 0 2 2 1 4-1 2zm9 1l1-1h1l-1 1h-1zm131 0v-2l1 1c0 2 0 2-1 1zm36 0c-1-1 0-1 1-1 1 1 2 1 0 1h-1zm10 0l1-2h1l-1 2h-1zm272-1c0-1 0-2 1-1v2l-1-1zm14 0c-1-2-1-2-3-2-2 2-8 1-8 0l2-1h3l1-2c1-1 1-1 3 1l3 4c-1 2-1 2-1 0zm-590-1v-1l1 1v1l-1-1zm100 0c0-3 4-4 5-3s1 1-1 2l-2 2h-1l-1-1zm142 0c-1-2 0-4 1-4v5l-1-1zm105 0v-3l1-2c2-2 3-4 1-3v-4l3 1c2 1 2 2 1 3v2c5 2 5 2 3 4h-3c-2-1-2-1-3 1l-1 1-1 1-2 1c-1-1-1-1 1-2zm64 0c-1-3-1-4 1-2 1 1 2 4 0 4l-1-2zm95 0l2-4v4c-2 2-2 2-2 0zm5 1v-3c1-2 4-1 3 2-1 2-2 2-3 1zm16-1v-1l1 1v1l-1-1zm-490-1v-2l1 2v1l-1-1zm51-1l-2-3 3 2c2 2 3 2 1 3l-2-2zm85 2v-2c1-1 2 0 2 1l-2 1zm270-1l1-3c1-1 1-1 1 1l-1 3-1-1zm40 1v-2l2-1-1 3h-1zm32-1c0-1 0-2 1-1v2l-1-1zm9 1v-2c2-1 2 0 1 1l-1 1zm86 0c0-2 3-4 3-3 2 2 1 3-1 3h-2zm14-3l1-4 1-2c1-1 1-1 1 1l-2 5-1 3v-3zm-594 1v-1l1 1v1l-1-1zm202 0c0-3 1-3 1-1v2l-1-1zm58 0c-1-3 5-4 7-2s0 3-2 1c-1-1-2-1-2 1-1 2-2 2-3 0zm13 1c-1-1 0-2 1-3v1c0 3 0 3-1 2zm184-1l1-2 1 1-1 2-1-1zm148 1v-2c2-1 2 0 1 1l-1 1zm5-1l1-1-1 2v-1zm8-1c1-1 2-2 3-1s-1 2-3 3h-2l2-2zm12 0l1-2 1 2c1 2 0 2-1 2l-1-2zm-616 1c-1-1 0-1 1-1l1 1h-2zm92-2c0-2 1-3 2-3l1 2-1 3c-2 1-2 0-2-2zm16 0c-1-3 0-5 1-4v7l-1-3zm44 1c0-2 0-2 2-1 1 2 1 2 2 0l3-2 1-2v-2 6c-1 3-8 3-8 1zm12 1c-1-1-1-3 1-3l1 1c0 2-1 3-2 2zm-192-2v-2l1 2v1l-1-1zm68 0v-2l1 2v1l-1-1zm9 1c-2-2-1-4 1-4 1 1 2 1 2 3 0 1-2 2-3 1zm143-1l2-1 1 1-2 1s-2 0-1-1zm33 0a1 1 0 0 1 2 0 1 1 0 0 1-2 0zm73 0c-1-2 0-3 2-1l1 2-3-1zm192 1l2-1 1 1h-1-2zm42 0l1-3c1-1 1-1 1 1l-1 2h-1zm131-1a1 1 0 0 1 2 0 1 1 0 0 1-2 0zm-596-1l1-2 1 2-1 1-1-1zm62-1v-2l1 3c0 2-1 1-1-1zm241 1l1-2v2l-1 1v-1zm111 1l1-2 1 1-1 1h-1zm13 0l1-2 1 1c-1 2-2 2-2 1zm155-1a1 1 0 0 1 2 0 1 1 0 0 1-2 0zm-637-1c-1-2 0-3 1-1v2l-1-1zm196 0c-1-1 1-3 3-2l1 2c0 2-3 2-4 0zm121 1l-1-2h1l1 2h-1zm29-1c-1-2-1-2 1-2l2-1c1-2 5-2 7 0s1 4-4 4l-6-1zm91 0c-2-2-1-5 1-7 3-1 3-1 3 2 0 2 0 2 1 0l3-2v4c-1 2-1 2-2 1s-3 0-3 2-1 2-3 0zm11 0l1-1 1 1-1 1s-2 0-1-1zm45 0v-2l2 2v1l-2-1zm32-1l1-2 1 2-1 2-1-2zm56 2c-1-1 0-2 1-3 3-1 3-1 3 1h-1l-2 1-1 1zm10-1c-1-1 0-1 1-1v1 1l-1-1zm22 0h2c1 1 0 1-1 1-2 0-2 0-1-1zm41 0l-1-1c0-2 4 0 4 1 0 2-1 2-3 0zm-515-1v-4c2-2 1-5-1-7l-2-3c0-1 2 0 5 3 3 2 3 3 2 5l-2 2v3c0 3 0 3-2 1zm88 0v-1c2 0 3 3 1 3l-1-2zm82 0l-1-1c-2 0-2-6 0-7l1-3v-1l1 2c-1 5 0 9 1 9v2c0 1-2 1-2-1zm147 0c-1-1-1-1 2-1l2 1c-1 1-2 2-4 0zm50-1c-2-3-1-4 2-2s3 3 1 4c-1 0-2 0-3-2zm54 1c0-1 0-2 1-1v2l-1-1zm42 1v-2l1 2h-1zm-558-2v-2l1 1v2l-1-1zm55 0l2-1 1 1-2 1-1-1zm15 0v-2h1v2l-1 2v-2zm36 0l1-1 1 2h-1c-1 1-1 0-1-1zm14 0c-1-2-1-5 1-5 1-1 1 0 1 1-1 1 0 2 1 2l1 2c-1 2-2 2-4 0zm269 1l1-2 1 1c-1 2-2 2-2 1zm40-1l1-1c1 0 1 0 0 0l-1-2c0-1 5 2 5 4h-2l-3-1zm145 1l1-1h1l-1 1h-1zm-625-2l1-1 1 2h-1c-1 1-1 0-1-1zm75 0v-1l2 1-1 1-1-1zm133-2c-2-4-2-6 1-3l2 1h1l-2 4-2-2zm5 2l1-2 1-2c-1-2 2-3 3-1l1 3c-1 2-1 2-2 1l-2 1-1 2-1-2zm15 0l-3-1-2-1c-2-2-3-4-1-3l2 1 2 1c1 1 1 1 1-1l1-2 1 1 1 1c2-1 3 2 2 4h-4zm10 0c-2-1-3-4-1-4l3 5-2-1zm280 0v-3h-1c-1 0-2 0-1-1 0-3 3-3 3-1l2 3 1 2h-1c0-2-1-1-2 0-1 2-1 2-1 0zm51 0l1-2h2l1 3-4-1zm-456-1a1 1 0 0 1 2 0 1 1 0 0 1-2 0zm36 1c0-2 2-3 3-1 1 1 1 2-1 2l-2-1zm14-2l1-1 1 2-1 1c-1 1-1 0-1-2zm97 1l1-1c2 0 2 2 0 2l-1-1zm237 0l-3-3h5l1 1c1 3 0 3-3 2zm44 0v-1c1-1 6 0 6 1h-6zm43 1v-2l2 1c0 2 0 2-2 1zm-406-2v-2c1-1 3-1 3 1s-3 3-3 1zm96-1l1-2 1 3-1 1c-1 1-1-1-1-2zm193 1v-3 2h1v-2c0-2 0-2 1-1v3c-1 2-2 2-2 1zm88 0v-1l2 1c0 2 0 2-2 0zm41 1l1-2h1l-1 2h-1zm-573-2v-2c2-2 2-2 2 1s-1 3-2 1zm12 0l1-1 2 1-1 1-2-1zm36 0v-1l1-1 1-1v3h-2zm28 0c1-3 3-3 3-1l-1 2-2-1zm144 1l1-3c1-2 1-2 2-1v2l-2 2h-1zm22-1c-2-5 0-9 3-7 2 0 2 1 1 3l1 3v1c0 2-3 2-5 0zm12-1c-1-2-1-3 2-3 2 0 4 2 3 3l-2 1c-1 1-2 1-3-1zm34 0v-2l1 2v2l-1-2zm13 1c-1-2 0-5 1-4l1 5-2-1zm5-1c-2-2-2-2 1-3l4-1c2 2 0 4-1 3l-2 1c0 2-1 2-2 0zm110 1v-2l2-3h1v4c-1 2-2 3-3 1zm49 1v-2h2l-1 2h-1zm37-1c-2-2 0-3 2-1l1 2-3-1zm56 0h2l-2 1v-1zm-515 0c0-2 2-3 3-2l-1 2h-2zm54 0v-3l2 2c0 2-1 2-2 1zm336 0l1-2 1 1-1 1h-1zm3-1c0-1 0-2 1-1l2 2-1 1-2-2zm70 1l1-2 1 1-1 1h-1zm6-1a1 1 0 0 1 2 0 1 1 0 0 1-2 0zm27 0a1 1 0 0 1 2 0 1 1 0 0 1-2 0zm-625 0v-2c0-2 3-1 3 0s-2 3-3 2zm151 0c0-2 2-3 2-1v1h-2zm5-1l1-1 1 1-1 1-1-1zm33-1l1-1 1 2-1 1c-1 1-1 0-1-2zm125 2v-3l1 2c0 2 0 2-1 1zm180 0l1-2h1l-1 2h-1zm32-1c0-1 0-2 1-1v2l-1-1zm155 1l1-1h1l-1 1h-1zm42 0l1-2 1 1-1 1h-1zm-552-3l-1-2-2-1 1-2 2 2 2 1 1 2-1 2s-2 0-2-2zm65 1c0-2 2-4 3-3l2 2-1 1h-4zm129 0l-1-2v-1l-1-2v-3l2 1c1 1 1 0 1-1-1-3 1-5 2-4s2 3 0 3v5l-1 5-2-1zm4 1l1-2 1 1-1 1h-1zm38-3c0-4 0-4 1-2l2 4c1 1 1 2-1 2-2-1-2-1-2-4zm44 1l1-1-1 3v-2zm7 1c-1-1 0-4 1-4s2 4 1 5l-2-1zm56 0c0-2 2-3 2 0l-1 1-1-1zm-444-1l2-2 1 1-2 2-1-1zm73 0v-2c2-1 3-1 3 1 0 3-2 3-3 1zm35 0c-1-1 0-2 1-1v2l-1-1zm14 0a1 1 0 0 1 2 0 1 1 0 0 1-2 0zm112 0v-3c1-1 2-1 2 1 0 3-1 4-2 2zm99 1v-2l2 1c0 2-1 2-2 1zm104-1c-1-3 0-4 2-4l1 3c0 3-2 3-3 1zm97 0v-1l2 2-2-1zm-388 0l-1-3c0-3 0-3 1-2 2 2 3 6 1 6l-1-1zm27-1c0-1-2-3-4-3-1 0-2-4-1-5l4-1 4 1-1 2 1 6-1 2-2-2zm281-1c2-1 2-2 1-4l-1-5c0-2 3-6 4-5l3-1c2-2 8 0 7 2s-3 2-3 0-2-2-2 0l-3 1c-1 0-2 1-2 4v6c1 1 0 3-4 4h-2l2-2zm-460 0l1-1 1 1-1 1-1-1zm19 0c0-1 1-2 2-1h2v2h-3l-1-1zm6 0v-1l1 1v1l-1-1zm27-1c0-2 0-2 2-1l1 2-1 1c-1 0-2 0-2-2zm33 0c-2-3-3-5-1-4l2-1c1-4 2-2 1 2 0 2 0 3 1 2v1l-2 2-1-2zm83 1l-1-1c-2 0-3-3-1-5s3-2 3 3l-1 4v-1zm56 0h2c1 1-1 0-2 1v-1zm20 0h1l1-1c0-2 0-2 2-1l1 3-5-1zm75 0c-2-2-2-4-1-3 2 0 5 5 3 5l-2-2zm186 0h3l-1 1-2-1zm9 1l1-1h1l-1 1h-1zm4-2c0-1 1-2 2-1l2 1-2 2c-1 1-2 0-2-2zm-378 0a1 1 0 0 1 2 0 1 1 0 0 1-2 0zm64-1l1-3 1 3-1 2-1-2zm293 1l-1-3h2l3 3c0 2-3 2-4 0zm60-1c0-2 2-4 3-4s0 4-2 5c-1 2-1 1-1-1zm101 1c0-2 3-4 4-3s0 2-1 2l-2 2c-1 1-1 0-1-1zm-408-1c-1-3 2-6 3-3 2 2 1 4 0 4l-3-1zm56-1c-2-1-2-1 0-2l2 2c1 2 0 3-2 0zm227 2l1-1h1l-1 1h-1zm33-1l2-2c2-1 2-1 1 1-1 3-3 3-3 1zm-254-1v-3h2c2 1 2-1 0-2s-2-2-1-3l2-1c1 0 4 5 3 6l-1-1-1 2c0 2 0 2-2 2h-1l-1 2v-2zm20 1v-5c1 0 2 4 1 5h-1zm142 0v-3l1-3c-1-1-1-1 1-1l1 3c-2 4-2 5-3 4zm75 0l1-2 1 1-1 1h-1zm-543-2c-1-2-1-3 1-1 1 1 2 3 0 3l-1-2zm94 0v-1l1 1v1l-1-1zm171-1c-2-2-2-3-1-3l3 3c1 3 0 3-2 0zm24 2v-4l2 2v2h-2zm67-2c0-2 1-2 1 0v2l-1-2zm71 2l1-2v-2l-1-4-2-3c-2-2 0-3 3-2 2 1 2 2 2 3 0 2 0 3 2 2l1 1-1 1c-1 0-2 1-2 3l-2 3h-1zm121-2c-1-3 0-3 1-3l1 3v2l-2-2zm-599 0l1-1 1 1-1 1-1-1zm284 0l1-1 1 1-1 1-1-1zm50-1l1-1v3l-1-2zm121 2l1-2 1 1-1 1h-1zm112-1l1-1 1 1-1 1-1-1zm59 0a1 1 0 0 1 2 0 1 1 0 0 1-2 0zm65 0a1 1 0 0 1 2 0 1 1 0 0 1-2 0zm-605 0v-2l1 1c0 2 0 2-1 1zm168-1v-1l2 1c0 2 0 2-2 0zm126 0v-3h1l2-1c0-2 1-2 2 0 2 3 1 5-2 5s-4 0-3-1zm2-1h-1l-1 1h1l1-1zm30 2v-4l1 3c0 2 0 2-1 1zm132 0l1-2 1 1-1 1h-1zm93-1l1-1 1 1-1 1-1-1zm-235 0v-2l1 1c1 2 0 2-1 1zm175-1c0-1 0-2 1-1v2l-1-1zm73 0c0-1 0-2 1-1v2l-1-1zm-587-1v-1l1 2-1-1zm15 1l-1-3 1-2 1 3v2h-1zm31 0c-1-2-1-3 1-3l2 2c-1 2-2 2-3 1zm11-1v-1l2 1c0 2 0 2-2 0zm380 0l1-1 1 2h-1c-1 1-1 0-1-1zm30 0c-1-2 0-2 1-2 2 1 3 2 1 3l-2-1zm-433-1v-1l1 1v1l-1-1zm81 0a1 1 0 0 1 2 0 1 1 0 0 1-2 0zm164 0l2-1 1-3 1-2 1 1 1 1-1 1-2 3-1 1-2-1zm28 0l1-2 1 2c1 1 0 1-1 1l-1-1zm35-1l-1-2-1-1c-1-2 0-4 1-3l1-1 1-2 1 4c0 3 0 4 1 2l1-5 1-3 1 2 2 4v1c-1-1-4 0-4 2l-2 3c-2 1-2 1-2-1zm31 1l-1-1-1-1v-2l1-1c0-2 2-2 3-1l2 1c2 0 2 0 1 2l-1 1c2-1 3 0 1 2-1 2-5 2-5 0zm19-1l1-3c1-1 1 0 1 1l1 2c1 0 2 1 0 2s-3 1-3-2zm128 2l1-2 1 1-1 1h-1zm58-1h2l-2 1v-1zm-491-1v-1l1 1v1l-1-1zm2-1c0-2 0-2 1-1v3l-1-2zm94 2l3-1-1 1h-2zm119-1c-2-1-2-3 0-4v1h1l1-5-1-1 1-2 1 2 1 2c3 3-1 9-4 7zm8 0l-1-3c-1-2 1-2 3 1 2 2 2 2 1 3l-3-1zm88 0v-1l1 1v1l-1-1zm77 1c-1-2 0-4 2-5 2 0 2 0 1 1v2h1l-4 2zm51 0c-2-1-2-1 0-3l2-1 2 1h1c0 2-3 3-5 3zm88 0l1-2 1 1-1 1h-1zm22 0c1-2 2-2 2-1l-1 1h-1zm-710-2v-1l1 1v1l-1-1zm323 0v-3c1-1 3 1 3 3s-1 2-3 0zm351 0a1 1 0 0 1 2 0 1 1 0 0 1-2 0zm-502-2c-1-3 0-5 1-3v6l-1-3zm163 0l1-3 2-1v-1c3 0 2 3 0 3l-2 3c0 1-1 1-1-1zm98 2l-2-2c0-2 3-4 5-3h3l3 2 1 2-2-1c-2-2-6-2-5 1v1h-3zm102 0v-3c0-2 2-2 2-1l1 3c0 2-1 2-3 1zm22 0l1-2 1 1-1 1h-1zm6-1l1-1 1 1-2 1v-1zm-412-1l1-2 1 2c1 1 0 1-1 1l-1-1zm34 1v-2l2 1c0 2-1 2-2 1zm86-1v-2l2 1c1 2 0 3-2 1zm71-1v-3l1 1 1 2v1c-2 2-3 2-2-1zm46 1l-2-3c0-2 1-1 2 1 2 2 2 2 3 0 1-1 2-2 3-1s-1 1-2 2c-1 2-2 2-4 1zm120 1c0-1 3-3 4-2l-2 1-2 1zm81-1a1 1 0 0 1 2 0 1 1 0 0 1-2 0zm-408-1l1-1 1 1-1 1-1-1zm37 0v-1-2h1l1 2c0 3-1 3-2 1zm10 0v-1l2 1-1 1-1-1zm59 0a1 1 0 0 1 2 0 1 1 0 0 1-2 0zm176 1l2-2h1l-1 2h-2zm145-1v-1l1 1v1l-1-1zm-593-1v-2c0-1 0 0 0 0l1 1 1 1c0 2-2 2-2 0zm15 0l1-1 1 2h-1c-1 1-1 0-1-1zm39 0c-1-1-1-3 1-4s2 0 1 3c0 2-1 2-2 1zm12 0v-4c1-2 1-2 1 0l1 3v1h-2zm234-1c0-3 1-3 2 0l-1 2-1-2zm93 2l1-2 1 1-1 1h-1zm150 0l1-2 1 1-1 1h-1zm77-2l1-1 2 1-2 2-1-2zm-511 0l1-1 1 1-1 1-1-1zm118-1c0-2 2-2 3 1l-1 2c-1-1-2-1-2-3zm68 1h-1c-1 1-1 0 0 0 1-2 3-2 3 0l-1 2-1-2zm40 1v-2l-2-1c-1 0-2 0-2-2 0-1 0-2 1-1h1c1-2 1-2 1 0l2 3v3h-1zm46 0v-2h3c0 1-2 3-3 2zm85-1c0-2 2-3 3-2l-1 2h-2zm-485-1c-1-1 0-2 1 0v1l-1-1zm103 0v-1l2 1-1 1-1-1zm98 0l3-1c1 1 1 1-1 2l-2-1zm17 1l-1-3h2l1 2c0 2-1 2-2 1zm114-1a1 1 0 0 1 2 0 1 1 0 0 1-2 0zm56 1v-2c1-1 1-1 1 1s0 2-1 1zm41 0v-2c2-1 3 0 1 1l-1 1zm88-1l1-3 1-1c2 0 1 3-1 5-1 1-1 1-1-1zm54 0v-1h2c1-1 1 0 1 1 0 2-2 2-3 0zm23 0l1-2 1 1-1 2-1-1zm41 1l1-2 1 1-1 1h-1zm-578-1l-1-2h2l1 2h-2zm107-1l1-1 1 1-1 1-1-1zm25 0l1-1 1 1-1 1-1-1zm19 1v-3c0-2 0-2 1 0s0 4-1 3zm33-3c0-3 0-4 1-2l2 1c1-1 1 1 1 3-2 3-4 2-4-2zm20 2v-1l1 1v1l-1-1zm3 1l1-2 1 1-1 1h-1zm41-1a1 1 0 0 1 2 0 1 1 0 0 1-2 0zm59 1c-1-2 1-4 2-3 2 1 2 1 1 2-1 2-2 2-3 1zm135-1l1-2h1c2 3 0 5-2 2zm7 1c-2-1-1-3 2-4 2 0 2 0 2 2l-4 2zm-68-1l1-2 1 1-1 1h-1zm-240-1l-1-2v-1l3 2-1 1h-1zm29-2l-3-4c0-2 1-2 3 0 1 2 3 2 4 2 1-1 1 0 1 1 0 4-1 4-5 1zm60 2l1-2 1 1-1 1h-1zm74-1c0-1 0-2 1-1v2l-1-1zm43 0l1-1 1 1-1 1-1-1zm10 0c0-2 4-5 5-4l-4 5-1-1zm99 0h3l-1 1-2-1zm113 1v-3h1l1 2c0 2-1 2-2 1zm-538-3l1-1 1 2-1 1c-1 1-1 0-1-2zm212 2l-1-3h1l1 2-1 1zm42-1c-1-1 1-4 2-4l-1 5-1-1zm103 0l3-1c2 1 1 1-2 2-2 0-2 0-1-1zm30 1v-3l-1-2c-2-1-2-3 0-4h2l1 3v6h-2zm-286-2c-1-1 0-2 1-1v2l-1-1zm165 1l2-3c2-2 2-2 3 0v2c-1 2-5 2-5 1zm111-1h-1c-1 1-4-5-3-8 0-1 0-2 1 0l1 3c0 2 3 5 4 5h1c-1 2-3 2-3 0zm56 1l1-2 1 1-1 1h-1zm-475-1v-2h2l-1 2h-1zm135-1v-1l1 1v1l-1-1zm41-1l1-1v3l-1-2zm202 1v-2l2-1 1 1-1 1-2 1zm17 1l1-2 1 1c-1 2-2 2-2 1zm54 0v-7c2 1 3 3 2 4v1c3 1 1 3-2 2zm33-1c0-1 0-2 1-1v2l-1-1zm-276 0l1-1h1l-1 1h-1zm119 0v-5l1 2 2-1 1-1 2 3c2 2 2 2 0 1l-2 1h-4zm-216-1l-1-2c0-2 0-2 1 0v2zm146-1c-1-1 0-4 2-3 1 1 2 3 0 4l-2-1zm27 0l-1-3h-1v1l-1-4 1-3c1 2 2 2 3 0s1-1 1 1l1 3 1 1v1l-1 1-2 2c-1 2-1 2-1 0zm110 1c-1-1-1-5 1-6 1-2 1-2 1 0v3c1 1-1 4-2 3zm30 0v-3c2-1 2-1 3 1 1 3 0 3-3 2zm22-1l1-1 1 1-1 1-1-1zm120 1l1-1h1l-1 1h-1zm43 0v-2l1 1c0 2 0 2-1 1zm-410-1v-3c-1-2-1-2 1-2 1 0 3 2 3 4s-4 2-4 1zm162-1a1 1 0 0 1 2 0 1 1 0 0 1-2 0zm9 0v-1l1 1v1l-1-1zm181 1l1-2h1l-1 2h-1zm-522-2l-1-1 2 1c0 2 0 2-1 0zm73 1v-2l1 1c0 2 0 2-1 1zm84-1l1-1 1 1-1 1-1-1zm22 1l1-2h1l-1 2h-1zm114-1v-4c0-1 0-3 1-2l2 1c1-1 2 0 2 1l-3 3-2 1c-1 2-1 2 0 0zm206 0l2-2v2l-2 1v-1zm54 1c0-2 2-3 4-4l2-1-2 2-3 2-1 1zm-427-3c2-1 2-2 3-1s1 2-1 2c-4 2-5 2-2-1zm6 2h2c1 0 1 0 0 0h-2zm34 0l-1-1-1-1c0-2 1-2 3-1v3h-1zm96-1v-2l1 2v1l-1-1zm232 0c0-2 3-5 4-4s-1 6-2 6l-2-2zm-561-1h2l1 1h-1l-2-1zm304 0l1-1 1 2h-1c-1 1-1 0-1-1zm366 1l-1-2h1l1 2h-1zm-543-2l1-2 1 2-1 1-1-1zm136 1c-1-2-1-3 1-3l2 2c0 2-2 2-3 1zm92-1l2-1 1 1-1 1-2-1zm106 1c-1-2 0-3 1-2v1l-1 1zm20 0v-4l1 1v3h-1zm51 0l1-2 1 1-1 1h-1zm-383-2l1-1 1 1-1 1-1-1zm35 0v-2c1-2 3-1 3 2 0 2-3 2-3 0zm290 1c-1-1-1-1 1-2 3-1 4 0 2 1l-3 1zm199-1c-1-1 0-1 1-1l2 1c0 2-1 2-3 0zm-229-1c0-2 1-2 2-1l-1 2-1-1zm8 0c0-1 0-2 1-1v2l-1-1zm87 0l1-2 1 1-1 2-1-1zm-198-1v-1l1 1v1l-1-1zm84 0l1-2 1 2-1 1-1-1zm41-1l1-3 1 2-1 3-1-2zm109 2v-2c2-1 3 0 1 1l-1 1zm63-1l1-2 1 1-1 2-1-1zm-458-1l1-1 1 1-1 1-1-1zm58 0l1-1c2 0 3 3 1 3l-2-2zm21 1c-2-2-1-3 1-2l2-1h1c2 0 2 1 0 1l-2 1-2 1zm111 0v-3h1l1 2c0 2-1 2-2 1zm11 0l1-2 1-3c1-3 1-3 1-1 1 2 0 3-1 5l-2 1zm51 0v-3c1-1 2 0 1 2l-1 1zm97-1c0-1 0-2 1-1v2l-1-1zm-286-1v-2c2-1 2 0 2 2s0 2-2 0zm38 1v-2l1 1c0 2 0 2-1 1zm74-2v-3l1-2 1-1c1 0 3 3 1 4l-1 3-2-1zm20 1h2c1 1 1 1-1 1s-2 0-1-1zm74 1l1-1h1l-1 1h-1zm11 0l1-1h1l-1 1h-1zm27-1c0-2 1-2 2-1l-1 2-1-1zm9-1v-4l1 1c1 2 0 5-1 5v-2zm-346 1l-1-3h1l1 2-1 1zm63 0c-1-2 0-3 1-2v1l-1 1zm223-1v-2l1 1c0 3 0 3-1 1zm48 0l-2-1c-1 1-2 0-2-1l3-1c1 0 2 0 2 2l-1 2v-1zm-216 0c-1-2-1-2 2-3 3 0 4 1 2 3h-4zm-76-2c-1-2 0-3 2-2 1 1 0 4-1 4l-1-2zm97 0c0-2 1-2 2-1l-1 2-1-1zm58 0l1-1 1 1-1 1s-2 0-1-1zm16 0v-2l2 1v3l-2-2zm43 0h2l-2 1v-1zm55 0h-2v-3c1-2 1-2 3 1 1 2 2 2 3 2l2-2c1 1-3 4-4 4l-2-2zm219 0l1-2v2l-1 1v-1zm-635-1l-2-2 3 1 1 2-2-1zm203 1l1-2 1 1-1 1h-1zm320-1c-1-1 1-2 3-1l-1 1h-2zm144 0l-1-2 2 1c1 3 1 3-1 1zm-615-1v-3c1-1 1 0 2 1l-1 2h-1zm186 1l1-2 1 1-1 1h-1zm193 0l2-3c2-3 2-3 3-2 1 2 1 2-1 4l-4 1zm16-1l2-1 1 1-1 1-2-1zm18 1l1-1h1l-1 1h-1zm-312-2c-2-1-2-1-1-2l2 1c1 3 1 3-1 1zm37 1l1-2 1 1-1 1h-1zm19 0l1-2c1-1 1 0 1 1-1 2-2 2-2 1zm121-1v-1l1 1v1l-1-1zm49 0a1 1 0 0 1 2 0 1 1 0 0 1-2 0zm46 1l1-2c-1-1 0-1 1-1v2l-2 1c-1 0-1 0 0 0zm-282-2l1-1 1 1-1 1-1-1zm52 0c0-1 0-2 1-1v2l-1-1zm12 0c0-1 0-2 1-1v2l-1-1zm71 0l1-2 1 2c1 1 0 1-1 1l-1-1zm-221-1v-1l1-2v-3l1 2 1 4c0 2-2 2-3 0zm235 1l1-2c1-1 1 0 1 1-1 2-2 2-2 1zm31-1l1-1 1 1-1 1-1-1zm198 0a1 1 0 0 1 2 0 1 1 0 0 1-2 0zm-509 0v-2h1c1 1 2 2 0 2h-1zm62-1v-1l1 1v1l-1-1zm165 0c0-1 0-2 1-1v2l-1-1zm143-1c0-2 0-2 2-1l1 2-1 1c-1 0-2 0-2-2zm64 2c-2-1-2-1-1-4 1-2 3-2 3 0l1 1v1l-1 2h-2zm-317-2c0-2 2-2 3-1l-1 2-2-1zm277 0l2-2c1 1 1 3-1 3-1 1-1 0-1-1zm-344-3l-2-5c0-3 2-2 3 1l2 3 1 2c-1 3-1 3-4-1zm212 2v-1l2 1c0 2 0 2-2 0zm94 0c0-2 1-2 2-1l-1 2-1-1zm61 0v-1c2 0 3 2 1 2l-1-1zm-55-1l1-2 1 2-1 1-1-1zm-82-2l1-1v3l-1-2zm25 1c0-1 0-2 1-1v2l-1-1zm-331-1v-1l1 2-1-1zm129 0c0-1 0-2 1-1v2l-1-1zm185 0v-1l1 1v1l-1-1zm32 1l1-2 1 1-1 1h-1zm215-1v-1l1 2-1-1zm-380-1l1-1 1 1-1 1-1-1zm309 0l2-2c2-2 2-1 1 0-1 3-4 4-3 2zm-389-1v-3l2 4-2-1zm337-1c-1-2 0-3 1-2v5l-1-3zm41 1l2-2v2l-1 1c-2 0-2 0-1-1zm-285-1v-1l1 2-1-1zm7 0c0-1 0-2 1-1v2l-1-1zm-104-1v-1l2 1-1 1-1-1zm155 0c1-3 3-3 3-1l-1 2-2-1zm96 1v-2l3 1v1h-3zm22-2v-2l1 2v2l-1-2zm101 2l1-2 1 1-1 1h-1zM84 51v-1l2 1-1 1-1-1zm186-1c0-3 0-3 1-1v3c-1 1-1 0-1-2zm372 1l-1-2h1l1 2h-1zm-324-2l1-1h1l-1 1h-1zm63-1l1-1 1 1-1 1-1-1zm-212 0l-1-2c1-1 2 0 2 2h-1zm44-1v-2l2 1c0 2-1 3-2 1zm123 1c-1-1 0-1 1-2 2-2 3-2 3-1l-1 2-2 1h-1zm145-1h2c1 1-1 0-2 1v-1zm27 1l1-1h1l-1 1h-1zm8 0l-2-2c0-1 3-1 4 1 1 1 0 1-2 1zm9-2l1-1 1 1-1 1-1-1zm-383-1l-1-1 2 1c0 2 0 2-1 0zm204-2c0-2 0-2 2-1 1 2 1 3-1 3l-1-2zm276 0l1-4v3c0 4-1 4-1 1zm-438 0l1-1c2 0 2 2 1 2l-2-1zm122 0l1-1 1 1-1 1-1-1zm161 0a1 1 0 0 1 2 0 1 1 0 0 1-2 0zm132 1l1-1h1l-1 1h-1zm-171-2c0-2 1-2 2-1l-1 2-1-1zm78 1l2-2h1l-1 2h-2zm-81-2c0-1 0-2 1-1v2l-1-1zm8 1l1-1h1l-1 1h-1zm-73-2c-1-1 0-3 1-2v3l-1-1zm284 0l1-1h1l-1 1h-1zm-55-1l1-1h1l-1 1h-1zm4 0v-2l1 1c1 2 0 2-1 1zm-238-2l2-1 1 1-1 1-2-1zm-28-1l1-3h2c0 3 0 4-2 4l-1-1zm196 0c-1-1 0-2 1 0v2l-1-2zm-158 0l-1-3c0-2 3-2 4 0 1 3-1 5-3 3zm-60-2c0-1 0-2 1-1v2l-1-1zm105 1l-1-2h1l1 2h-1zm145-2a1 1 0 0 1 2 0 1 1 0 0 1-2 0zm63 1l1-2 1 1-1 1h-1zm-479-2c0-1 0-2 1-1v2l-1-1zm319-1l1-1 1 2-1 1-1-2zm91-2c-1-1 0-2 1-2l2 2c1 1 1 1-1 1l-2-1zm-275-1c1-3 3-3 3 0l-1 2-2-2zm26 0l1-1 1 1-1 1-1-1zm42 0l1-1 1 1-1 1-1-1zm-90-3c0-2 0-2 1-1v3l-1-2zm43 1l1-1 1 1-1 1-1-1zm300 0l2-2c2-1 2-1 2 1l-2 2-2-1zm-356-2l1-1 1 1-1 1-1-1zm28 0l1-1 1 1-1 1-1-1zm179 1l1-1h1l-1 1h-1zm21-1v-2h2l-1 2h-1zm-170-2l1-2 1 2c1 1 0 1-1 1l-1-1zm295 0c0-1 0-2 1-1v2l-1-1zm-263-2v-4c1-2 1-2 2 1v4c0 2-1 2-2-1zm234 0l1-3v4c-1 2-1 1-1-1zm67-3l1-2 1 1-1 2-1-1zm-391-1v-1l2 1-1 1-1-1zm192-2l1-2c1-2 3 0 2 2s-3 2-3 0zm-71-1l-1-3c1-1 1 0 2 1 2 3 1 4-1 2zm8-3l1-1 1 2-1 1c-1 1-1 0-1-2zm33 0l1-2 1 1-1 1h-1z"/>
</svg>
