<svg xmlns="http://www.w3.org/2000/svg" version="1" viewBox="0 0 939 466">
  <path fill="#13a538" d="M164 456v-1 1zm113-8v-2h1l1 2h-2zm83-4c-2-2-2-5 0-5s3 3 2 5h-2zm-60-4l1-2c1-1 3 0 3 2h-4zm29 0l1-1h1l-1 1h-1zm39-2v-2c1-1 3 1 3 2 0 2-2 2-3 0zm-117-5l1-1 1 1-1 1-1-1zm-86-8c-1-1 0-7 1-7 2 0 3 2 2 5s-2 3-3 2zm174-6l-6-3c-5 0-7-2-9-7-2-8 4-13 12-10 4 2 9 10 9 14 0 3 1 5 3 4v1l-1 1-2 1c-1 1-4 1-6-1zm29 0c1-1 0-1-1-1-2 1-2 0-2-1l2-2 1 1 1 1v3c-1 1-2 1-1-1zm-231-2v-1l1 1v1l-1-1zm630-5l1-1 1 1-1 1-1-1zm-557-4l1-1 1 1-1 2-1-2zm95 1v-3c1-1 2-1 1 1 0 3 0 3-1 2zm415 0c-1-1-1-3 1-3l2 2-1 2-2-1zm-496-4v-1 1zm143 1l1-1 1 1-1 1-1-1zm13-3c-5-1-8-5-6-9 1-4 5-3 9 2 5 6 4 8-3 7zm-199-1l1-1 1 1-1 1-1-1zm133-2c-3-2-2-4 0-4s4 3 4 5c0 1-2 1-4-1zm-151-3l-1-6 2 1 1 1-2 4zm25-2l1-1 1 1-1 2-1-2zm14 0l1-2c1 0 2 1 0 3-1 1-1 1-1-1zm5 1l-4-8h2c3 0 3 0 3 4v5l-1-1zm49 0l1-1h1l-1 1h-1zm5 0c0-1 0-2 2-2l1 1c0 2-1 2-3 1zm-166-3l1-2c2-1 1 2 0 3l-1-1zm233 0v-11c1-1 2-2 3-1 2 1 2 3 2 8 1 5 1 6-2 6l-3-2zm-131-1l1-2 1 1-1 1h-1zm531 0v-1l1 1v1l-1-1zm-549-3l1-2 1 1-1 2c-1 1-1 0-1-1zm43 0v-1 1zm28 0l1-1 1 2-1 1-1-2zm-32-2c3-2 4-2 3 0l-3 2v-2zm-86-3l-3-3-1 1h-1c-2-1-2-1 0-4l1-3h1l1 1 1 1c1-1 1-4-1-4l-1-3 2-2 1-1c0-2 0-2 2-1l3 2h3c1-3 2-5 4-4l3-1 1-1c2 1 2-1-1-6-3-7-4-7-7-4l-3 2h-3c-3 2-4 0-2-2 2-1 2-2 0-2-2-1-2-3 0-3l3-2c3-2 3-2 1-5-2-2-2-2-3-1-2 2-4 3-4 1l-2-1-1 1h-1l-4-1h-2l-3-1c-2 1-1 0 0-1 2-1 2-1 0-2-3-1-3-4 0-4l1 2c-1 2 3 2 4 0v-4h-2l-5 1-4-3c0-1 1-2 3-2l5-2c0-2-7-1-7 0l-1 2c-2 0-5-4-5-6 0-1-1-2-3-1l-5 2c-3 3-2 0 1-6l2 1c2 1 3 0 3-1l2-3c2-1 2-1 1-2-2-2 0-4 4-4 2 0 3 1 2 3 0 4 1 5 2 1 1-5 0-6-3-6-2 1-4-3-2-5h-2l-4 1c0 2-2 3-4 2-1-2-2-2-2 0h2c0 1-3 3-4 2l-2-7 1-1 2-1-5-1c-5 0-6 1-6 3v1c0-1-1-2-2-1-2 0-4-4-2-5h2l1-2c0-2 1-2 2-3 2 0 10-7 8-7l-1-1c1-1 2 0 3 2l3 2c1 0 5-4 5-6 0-1-5-4-7-3l-1-2-1 2c1 3-2 5-4 3l-1-2c1-1 0-2-1-2l-1 2c0 2-1 2-3 2s-6-3-6-4l4-1c3-1 4-1 3-2v-3c1 0 1-1-1-1l-1 1-4 1-5 1 1-3h1c1 1 2 0 3-2 3-3 3-3 1-4-2-2-1-3 3-2 3 0 3 0 2-3h-3c-1 2-3 2-3 0l-2-3-1-3-1-2h-2c-1-1-1 0-1 1 0 2-1 2-4 0-2-1-2-3 1-3l4-1c1 0 1-1-1-2-2-2-2-2-1-3 1-2 3-2 3-1l-1 1c0-1-1 0 0 0l1 4c1 2 2 2 4 0 1-2 1-2-1-1l-2-1 2-1 1-2 2-2v1l1 3 1 4 1 1h1l-3 1c-3-1-3-1-2 2 0 4 1 5 4 4l3 1 4 1 4-1-2-2v-2-1l-2-1h1c2 1 3-2 3-4-1-1-1-2-3-1l-3-1c0-2 1-2 2-2l3-1c0-2 0-2-2-1-3 0-3 0-2-1v-2-1l-1-1c-1-1 1-6 3-6l-2-2-1-1 2-1-1-1v-2c1-1 4 0 4 1l2 2c2 1 2 0 2-1l1-1h-1c-3 0-3 0-2-2l-1-5v-2l-1-2-1-2 1 1 2 1 1 2v2l1 1 1 2c2 0 2-5 0-5v-1h1l1 1 1-1-1-2-4-2c-2-2-2-2-1-4 1-1 2-1 1-2l-2-1h2v-2c0-4 0-5 2-5l3-2 3-2v2l1 2 1-4c0-5-1-6-2-4-1 3-3 1-2-1l-1-3c-2 0-2-3 0-3l1-2-1-1c-1 1-1 0-1-1l-1-2-3-3-1-1c-1 0-3-2-3-4l3 2 3 2c-1 1 0 1 1 1 2-1 5 2 4 3v2h2c1-1 3 0 3 2l2 1-1 2c-2 1-2 3-1 3 2 0 4-3 4-6 0-2-3-5-5-4-1 0-3-1-2-2h3c2 2 3 1 1-2-1-1-1-2-2-1l-1-1 2-2c2-1 2-1-1-1l-3-2-2-3c-2 0-3-2-3-3-1-1-1-2 1-1l3 2c2 2 5 2 5 0l1-2 2-2c0-3 0-3 2-2l2 3 1 1c2 0 2-2 0-4v-1c2 0 3-3 2-4h-3l-2 2v1l-2-2c0-1-1-2-2-1v-2l4-1h4l2-1-2-2-2-1-3-2-3-1h-2l-1-4v-3c3-1 3 0 2 2l-1 2 1-1h1l3 1c3 0 5 2 5 3 0 3 1 4 2 2 1-3 4-2 4 2v2l-1-2c-2 0-2 4-1 5v1 4 3l2 1h1l1 1c1 0 2 0 1-1 0-1 0-2 1-1l1 2c0 2 2 2 2-1 1-2-1-5-2-4l-2-1c-1-1-1-1-2 1 0 2-1 2-2 2l2-4 1-2c-2-1-1-3 1-3s2 0 0-2l-1-2v-1l-1-3-2-5c-2-1-2-2-1-2l3 2 2 1 2 1h1l2-3c0-1 0-2 1-1l1 2 2 1c2 0 3-1 3-2l-2-2c-1 0-2 0-1-2l-1-3h-3-2l-1-2c-1-3-9-2-9 2 0 1-2 1-2-1-1-3 2-6 4-4h2l2-2c2-1 2-2 1-4-2-2 3-1 7 1 2 1 2 1 1-2 0-2 0-3 1-1s1 5-1 5l-2-1-2-1c-2 0-2 0-2 2l-1 2c-1 1 3 4 6 5 2 1 3 1 3 3s2 4 4 3 2-2 0-3c-2 0-2-1-1-3 2-4 4-6 6-6v-1l-4-1c-2 0-3-1-4-6l-2-1-2-1 2-1c1-2 1-2 1 0s3 5 6 6l3-1 1 1 1 2v1l5 4c0 2 3 5 5 5v-6c3-1 5 0 5 2l2 3v-2l1-3 1-3c1-1 1-2 2 0 0 2 2 2 2 0l1-2 1-1c0-2-3-3-4-1-1 1-2 2-3 1-2 0-2 0-2 2-1 3-1 3-2 1-2-2-2-2 0-2 1-1 2-2 1-4l1-2c1 0 2 0 1 1l1 2 2-2 1-4c1 1 1 0 1-1h2c2 0 3 0 3-2l2-1c1 1 1 0 2-1 0-3 2-3 2 0h1v-3l1-1 2-1c2 0 2 0 1 1 0 2 4 7 6 7 1 0 2-6 0-7l1-1c1-2 1-2 2 0l2 1 2-1-2-1-3-2 2-1c3 0 7-4 6-5l1-2 2 1c0 2 4 0 6-2 1-2 5-3 3-1-1 1 3 10 4 10 3-1 4 0 3 2l1 2 2-1h1c1 1 1 1 1-1h1l2 1c2 0 2 0 1-1v-1l1-1-3-1h-1v-4c-1-2-1-2 1-4l2-2h-3l-3 1c1 2-4 7-5 6l-1-2-1-2c-2 1-1-2 1-4 2-1 3-2 3 0l-2 1-1 1 1 3 1 2 1-2 2-13c2-3 3-2 3 1 0 2-1 2-2 2-2-1-2 1-1 3 2 1 2 0 5-2l3-3c3 3 4 10 1 13l-1 3 2-1 3-2v-3l-1-1 1-1 1 1 2 2 1-1 2-1c2 0 3 4 0 4-2-1-4 1-3 2l-2 2-1 2c0 2 2 2 2 0l1-2h2l1 1 1-3h2l1 1c1 2 2 2 2 1h2c1 2 5 2 5 0l3-2 2-1 2-2c1-1 1-1 1 1v3l-2 1-2 1h3l3 1-1 1-4 2-5 3c-4 2-4 3-1 3 1-1 2 0 3 1 2 2 2 2 2-1-1-3 1-6 4-6 2 0 6-3 6-5l-2-1-2-1 2-1c2 0 3 0 3 2s0 3 3 3c5 0 3 5-2 5-3 0-5-2-2-2l1-1c-2-1-3 0-4 1v3l2 1h2c1-1 1-1 1 1l-1 2 2-2 1-1c-1 2 0 3 1 2l3-1-1 2c-1 1-1 4 1 4v-2l1-1c2 0 2-7 0-7-3-1-1-3 2-3s5-1 2-2c-2 0-3-1-3-3l1-2c1 1 6-2 7-4s1-1 1 1 0 3-2 4-2 2-1 2c2 0 2 3 0 3v1c1 2-1 6-3 6l-2 2 2 2v2c0 3 0 3-3 3l-5 2-2 1c-1-2-3-1-3 2 0 2 0 2 1 1 1-2 1-2 2-1l-1 2 1 1c2 1 3 1 2-1v-2c1 1 2 0 2-1 1-2 5-2 7 0 3 3 5 2 5 0-1-2-1-2-2-1l-1 1 1-2v-3c-1-1-3-6-1-6l1-1h2l-1 2v2l1 2h3l2 1c1 1 2 0 4-2s2-2 1 0 0 4 2 1l2-1-1 7c-1 1 0 3 4 4 5 1 7 1 6-2v-1c2 0 3 5 1 7h-3l-3-1v4l1-1 1-1 1 1v2c-2-1-6 1-6 2s8 1 8-1c0-1 4-6 5-5l-1 2c-2 2-2 2 0 2l2-1 1-1c1 0 0 2-2 3l-3 2 2 4 3 4 1 1-1 4c-1 2 0 2 0 0l1-1h1c2-2 1-6-1-8l-1-2 1-1c0 2 3 5 5 5l1-3c-1-2-1-2 2-2h3l3-1 2 1-2 1-2 2 2 6 3 3 2 2 1-2 3-3c1 1 1 0 2-1l2 1c2 2 2 2 0 1-1 0-2 0-1 1v2l-1-1-2-1v2c0 1 0 2-1 1v1c1 1 5 3 8 3 1 0 5-4 7-8 0-2 1-3 2-3v-1-1l2 2c1 2 1 2-1 2s-5 5-4 7l-2 1c-1 0-2 0-1 2 2 2 2 2 3-1 2-3 4-5 5-4s0 1-1 2-1 1 1 1l2-2c1-2 2-3 3-1h1c1-2 2-2 5 1l4 3 1 1 1 2c2 0 5-4 5-6-1-2-1-3-2-1a231 231 0 0 0-3 3c1-1 1-1-1-1-3 1-3 0-1-2 1-2 6-5 7-4v-2c1-2 0-2-2-1s-2 1-2-1l-1-3c0-2 3-2 6 1s3 2 1-2l-3-3h3c2 0 3 1 3 2l1 1h1l2 1c3-1 5 0 4 2l-3 1c-2-1-2-1-2 2 0 2-1 3-2 3-2 1-2 4 1 5l2 2c-1 7 0 7 5 3 3-2 4-4 5-3l1 1s2 0 1 1l1 1 2 1h-2l-4 1c-2 0-2 1-2 3v2l2-2c3-3 4-3 6-1l2 1v-4l-1-2c1-1 1-1 2 1s1 2 4 2c5-1 5-2 5-4l2-3c2-1 2 0 2 1l-1 4 1 3c3 2 5 2 4-1l1-3 2-1 1 1c1-1 1 0 0 0l-1 1c-1 0-2 2-1 3h3c3-2 4-2 3 1l2 1h4l2 1 1-1 1-4c2-2 2-3 2-5-1-2 0-4 1-5 2-3 4-4 3-1v3h2c0-1 1-2 2-1 0 2-2 6-3 5v1l-1 2v2l2 2 1 1 2-2c2 0 2-2 1-6-1-1 0-1 2-1h3l2-2c2-1 2 2-1 4-2 2-2 7 0 7l1-1c0-1 2-3 4-3v2c0 2 0 2 2 2 1-1 2 0 4 2l3 3c2 0 2 0 1-2s0-3 2-2h1l2-2 2-2h-2c-2 2-3 0-2-1l3-1h2l3-1 2 1-1 1-1 2c0 2-1 3-3 3-3 0-7 2-5 2h2l1 1c-1 2 1 6 3 6v-3c-2-3-2-3 2-3l3 1h3c1 2 6 0 6-2l1 1 2 1c0-2 0-3 1-2 1 2 1 2 1 0l-1-3c-2-2-1-7 2-7 1 0 2 0 0 1-2 2-1 4 1 3h3c1-1 2-1 1 1l-1 3h-1l-1 1 1 2 1 1 2 2 2 1c1 2 1 2 3 1h4c1-1-2-3-4-2-2 0-3 0-2-1l1-1c1 1 2 0 3-1l1 1c-1 1-1 1 1 1l1-2v-1h1l2-2c2 0 2-2 1-4h1c2 0 4 3 2 5v2l3 2v-1c-1-1 0-1 2-1 5 0 10-6 10-13l1-4 4-2 1-2c2 0 2 0 0 3-1 4-1 5 1 5l3 6v2c1 1 1 1 2-1l1-2v2l-1 3c1 0 3-1 3-3l1-1h2c1-1 1-1 1 1 0 1 0 2 2 2h7c1-2 1-2-1-2s-3-2-1-4c1-1 1-1 1 1l1 2 1-1h3l1 3c-3 0-2 2 1 2h2l1 1 1-1 2-1c3 1 4 2 1 4-2 1-2 1 1 1l3-2v-2l2-1c1 1 2 0 3-1l2-1-2 3-3 3v2c1 0 2 0 1-1s0-1 1-1l2-2c1-1 1-2 2-1l3-1c2-2 2-2 3 0l3 3c0-1 1 0 0 0l5 5 3-2c2-2 2-2 0-3-3-3 1-2 5 2 7 4 10 5 10 3s0-2 1-1l2 1c-1-2 3-2 4 0h5l1-1v-1c1 0 3-1 3-3s2-2 2-1l2 3c3 1 4 0 5-5 1-4 3-5 3-1l1 2h4c2 0 3-1 2-2h1l1-1h2c1 0 2 0 0 2l-1 2 3 3c2 0 3-2 1-2l-1-1c1-1 4 0 5 1l2 1c3-2 6-2 6-1 1 1 0 1-1 1l-1 2c0 1 3 2 4 1s7 2 7 4l1 1 1-2-1-1-1-2v-2h-3v-3l2-3c0-2 2-1 3 1 2 1 2 1 3-1h1c-1 1 0 1 1 1l1 1c0 2 2 4 4 3 2-2 1-4-1-3v-1c2-2 3-3 3-1l1 2c2 2 2 2 0 4s-2 4 0 2 2 0 0 2v2l2-2c1-3 2-3 5 0l4 2c2 0 2 0 1-1v-5l1 1 1 1 1 2v3l1 1-2 1c-2 0-1 3 1 3l3 2 2 1 2 2 2 2c1 0 2-1 1-2 0-1 0-2 2-3l2-1 5-1c3 0 4 0 2 1h-3l-2 2c-1 2-2 3-3 2s-1-1-1 1 2 3 7 2h5c3 0 4 0 5 3s2 3 3 2l3-1v1c-2 2-1 3 0 2 2-1 2 0 1 1 0 2 0 3 2 3 1 0 2 0 1 1s5 1 8-1 4-2 4 0c-1 2 2 2 2 0 1-2 2-3 4-2v-2c0-3 1-3 2-1l-1 2c-1 2 0 3 3 2h1c-1 3-1 4-3 3s-2-1-2 1c0 1 0 2 2 2v1l-1 1 2 3c1 2 2 2 5-2l4-3c2 0 2 2 0 3l-2 2v1c-2 1-2 4 0 4l3-2c3-2 4-2 8 2 2 3 2 3 1 6-1 4-1 6 1 5l1 1h-3l-2 2c-1 3 1 5 3 4s2 3 0 5c-1 2-4 2-10 2-2 1-2 3 1 5l2 2c0 3 1 4 3 2s6-3 8-2v1l-3 9c2 0 4 4 4 6l1 2 1 2-2 1c-1 0-2 0-1 1 0 1-4 6-6 6l-2-6c0-2-1-3-2-3l1-1c2-2 0-3-4-2l-7 1c-3 0-3 0-5 2-1 3-1 3 1 4l2 2-2 2c-1 2-2 3-1 5 0 1 0 2-2 3-2 0-2 3 1 3 2 0 1 5-2 6-1 1-2 0-3-2l-1-4-1 2-4 2-2 2-3 3-3 1-2 2c-2 0-2 1-2 3l-1 1-5 4 2 1c2 0 2 0 2 2s-2 5-3 4v1l1 2c-2 1-3 1-3-2-1-1-1-2-1 0-1 2-2 2-3 0v-1l1-2c-1-2 0-2 1-2 2 0 2 0 0-2-2-1-2-1 0-2s2-3-1-2c-2 0-3 1-3 2l-1 4c-1 3-1 3-3 3l-2 1-3-1c-3-1-4 0-3 2 2 2 0 2-1 1s-3-2-7-2l2-2c2-1 1-2-2 0-3 1-3 2-1 4 2 3 0 4-3 3-3-2-4-1-5 3v3l1-2 2-1 3 1 1 2c1 0 2 1 2 3 0 3-2 4-4 1-1-2-2-2-3-2-2 1-3 0-3-1l-2-1c-1 1-2 0-2-1l-5-1c-2 0-3 1-5 8l-4 10c-4 4-10 6-18 6l-8-1c0-1-1-2-3-2l-8-3c-3-2-6-2-7-1h-6l-1-2c0-3-5-7-6-5-2 1-2 0-3-3-3-5-5-8-11-9l-5-1h-5l-2 1v-1c0-1-4-2-6-1h-6l-6 1h-2c-1 0-2 0-3 2 0 2 0 2-2-1-2-4-4-5-7-3-1 2-2 2-2 0-1-2-1-2-2 0-2 2-2 2 0 3l3 2 2 1h2v2c-1 3-1 3-3 1-1-3-3-3-5 0-1 1-2 2-3 1l-3-2v-2l-1-1-1-1 2-1c2 1 2 0 2-1 0-2-2-2-3-1l-3 1-2 1c-1 3-3 3-5 1-1-2-5-2-4 0l-1 2-1-3 2-2-1-2c-3-2-4-2-3 0l-2 1-2-2-2-2-1 2-1 2-1 3v3l-1-2-2-1h-3c-4-3-5-3-8-3-2 0-6-3-6-4l5 2c0 1 1 1 2-2 0-2 0-2-4-2l-4 1c0 1-3 3-6 3l-1-2c0-2 0-2-2-2s-2 0-1 3c0 3 0 3-1 2-2-2-2-2-3 0 0 1-1 1-1-1 0-1-1-1-4 1l-4 3-2-1-4-1h-4l-2 1h-1c0-1-1-2-3-1l-3-1c-2-4-13-3-15 2l-2 3-3-3-5-3c-1 0-4 2-3 3l-2 1-3 1-1 1v-3c2-1 1-4-2-6-2-2-7 0-7 2h1c1-2 1-1 1 1 0 3 0 4-2 4l-2 2s0 1 0 0v-2l1-2c-1-2-7-2-7 0l-3 1c-2-1-3 3-1 4 1 1 1 2-3 3-5 2-7 2-5 0l2-2c1 0 4-2 3-3l-5 2-6 2c-2 0-2 2-2 4 1 2-2 2-4-1s-6-4-8-3c-2 2-11 1-11 0l-1-1-3-3c-2-3-6-5-11-5l-3-2c-1-2-5-1-5 1l1 1h1l-1 2v1l1 1-4-3-4-3-1-2-2-2-1-1-2-1-2 2c0 2 0 2-1 0s-2-1-1 1l-1 1-1 1-2 2-2 1 1 2-2 2-2-1c1-2-1-3-3-2l-1-1c-1-2-1-2-1 0l-1 4c-1 1-1 2 1 3v7l-1 1-1 1-1 2c-1 1-2 2-1 3v2c-2 1-2 2-1 4 2 4 3 9 1 13-2 5-2 6 1 7l3 3v2c-2 0-2 1-2 3s-1 3-2 2c-1 0-2-1-2-5l-1-5-4-1-3-1-10-4-4 2v4c2 1 2 2 1 2l-4-2-3-1c-2 0-4-2-5-5 0-2-1-2-2-2l-4-1 1-6c1-5-1-7-3-5v2c2 2 2 3 0 3v2c2 1 2 2 1 2l-1 1c0 2-2 2-3-1-2-3-2-5 0-5l1-1-3-1c-3 0-3 0-1 4v3c-1 1-3-1-3-3h-3l-4-1v-1c-2 0-2 4-1 5s0 2-2 2c-2 1-2 1-1 5 1 5 3 7 3 4l1-1 2 2 1 2c2 1 2 4 1 4l-1-2-3-2c-3-1-4 2-4 7 0 6-2 8-5 7h-6l-4 1h-7c-4 1-5 1-5 3-1 3-3 3-4 1 0-2-3-3-5-2l-1-1c-2-3-4-1-4 2l-1 2-1-1c0-3-3-3-5-1-2 4-2 5 1 4 2 0 3 0 4 2h4c1 2 1 3-1 4l-4 1-2-1c3-1 2-3-1-3-2 0-3 0-4-2-1-3-2-3-3-2l-1 1-5 2c-1 2-4 3-5 3l-4 2h-23l-2 2-1-1c1-1-5-7-7-7l-4-3-4-3h-3c-2 0-6 2-5 4 0 3-1 4-3 4l-3-1h-1l-4 7c-3 2-3 4 0 4 2 0 2 2 0 3-2 0-2 0-3-2zm61-43l-1-1-1 1 1 1 1-1zm-66-11c-2-2-4-1-3 0l1 2v3c1 2 1 2 2-1v-4zm194-4h-1l-1 1h1l1-1zm-196-3c0-6-3-7-5-1-1 2 0 2 1 1 2 0 2 0 2 2v1l2-3zm-6-6l-1-3c1-3 1-3-1-3-2 1-2 1-1 2v3c-1 3-1 5 2 4l1-3zm196 0l-1-1-2 1 1 1 2-1zm-206-1v-2c-1-2-2-1-3 1s0 3 3 1zm17-2c0-2-2-2-3-2v2h3zm18-2l-2-1-2 1 2 1 2-1zm175-2h-1l-1 1h1l1-1zm-184-2l-2-1 1 2c2 1 3 1 1-1zm-12-1l1-2c1-1 1-1-1-1-2 1-2 4 0 4v-1zm8-4c-2-1-3-2-3 0h1v1l1 1 1-2zm6 1v-1l-1 2 1-1zm-15-4c-1-1-2 0-2 2s0 2 1 0c2-1 2-2 1-2zm-4 1h-1l-1 1h1l1-1zm21-2l-2 1h1l1-1zm424 1v-1l-1-2-1-2h-3c-2 2-3 5-1 5l1-1h2c1 2 2 2 3 1zm-23-2c-2-3-3-3-6-2-2 1-2 1 0 2l4 2c2 0 3 0 2-2zm-439-1l-1-1c-1 1-1 3 1 3v-2zm3-3l2-2c2 0 3-1 3-2 1 1 3 0 4-1 2-1 2-1 0-1l-1-1 4-1c3 0 3 0 1-2s-2-2-4 0l-2 1v2c0 1-1 2-2 1v-3c0-3-1-6-3-6s-2 2 0 2c1 1 2 4 0 4l-1 2c0 1 1 2 2 1s1 1-1 3h-2l-2-1c-1 1-2 0-2-1h-1v2l3 2 2 1zm437 0l-2-1-1 1 2 1 1-1zm176-1l-1-1-2 1c-1 1 0 1 1 1l2-1zm-374-3c1-2 0-2-2-2l-1 2h3zm-251-1l-2-1-1 1 1 1 2-1zm2 0c-1-2 1-2 3 0h1l-1-2v-2-2c-1-2-3 0-4 4l1 3v-1zm251-3l-1-1-2 1 1 1 2-1zm-240-2l-2-1-1 1 2 1 1-1zm18 0l-1-1-1 1 1 1 1-1zm-30-12l-1-3c1-2-1-3-2-1v2l2 2c0 1 0 2 1 1v-1zm5-6l-1-4c0-6-6-9-10-5l-1 2c1-1 2 0 3 1 0 1 1 1 1-1l1-1c1 1 1 2-1 5l-2 2c1 1 5-3 5-5l1 1c1 1 1 1-1 2-2 2-2 3 1 3 2-1 3 0 3 1l1 1c2 0 2 0 0-2zm3-11c1-2 1-2-1-2-3 0-4 1-2 2 1 2 2 2 3 0zm-18-1l-1-1-1 1 1 1 1-1zm23-5h-2l-1 2h1l2-2zm1-3l-1-1-1 1c0 1 0 2 1 1l1-1zm669-1c1-2 0-3-1-1v2l1-1zm-676-1l-2-1-1 1 2 1 1-1zm3-3c-1-1-2 1-1 2h1v-2zm4-5l2-3c1-1 2-3 1-4l1 1c2 2 2 2 1 0 0-3-2-3-3-1l-2 2-1-2-4-1c-2 0-3 0-1 1l1 2c-1 1 0 2 1 1l2 1-1 2c-1 1 1 3 2 3l1-2zm-6-2c-1-2-2-2-2-1l1 1v1c-1 1 0 1 1 1 2 1 2 0 0-2zm-4-4c0-3-3-3-4-1 0 2 1 3 2 3l2-2zm6-5h-3l1 1 2-1zm-6-1l-1-1-1 1 1 1 1-1zm16-2h-2l-1 1 2 1 1-2zm-8-3v-3c-1-1-3 2-3 3 0 2 1 2 3 0zm4-4l-1-2-1 3c1 1 2 1 2-1zm-1-5v-3l-4 4c0 2 3 1 4-1zm7-1c1-3 0-4-2-2l-1 2 1 1v2s2-1 2-3zm-9-3l-2-2c-2-1-2-1 0-1s2-2 1-3c-1 0-5 3-5 5l1 1h5zm7-1l-2-3v-1c1 0 1-2-1-3l-2-2c0-2-3-1-4 0l1 3c1 1 2 2 1 3l3 3h4zm1-11v-8-2l-2 3v6c-2 1-2 3 0 3l2-2zm-10-2l-1-1-1 1 1 1 1-1zm16-8l1-5-1-2c0-2-2-3-2-1l-2 2h-1l-1 2c0 1 0 2 1 1 2 0 2 1 2 2v3l-1 1c0 2 2 1 4-3zm-8-1l-1-1-2 1 1 2 2-2zm-6-2l-1-1v1l1 1v-1zm13-14l-1-1-1 1 1 1 1-1zm1-3l-3-2c-2 0-2 2 1 2l2 2c0 1 0 1 0 0v-2zm-6-3l-1-1-1 1 1 1 1-1zm1-3l-5-4v2c0 2 0 3 2 3l3-1zm523 0l-2-1-1 1 2 1 1-1zm-161-2l1-2c-1-1-3 1-3 2 0 2 0 2 2 0zm186 1l2-2v-2l-3-1c-5 0-5 1-4 4 2 2 2 2 5 1zm9 0c0-2-3-3-4-2l1 1v1c-1 1 0 1 1 1l2-1zm30-1v-2h-3c-3 2-3 3 0 2h3zm-22-1a1 1 0 0 0-2 0 1 1 0 0 0 2 0zm-229-1a1 1 0 0 0-2 0 1 1 0 0 0 2 0zm196-1c0-2-3-1-3 1h1l2-1zm51-4l-3-1-3 1 1 2 1 1c1 3 1 3 2 0l2-3zm-242 3h1c0 1 1 1 1-1 0-3-1-2-5 1-2 0-1 1 0 1l3-1zm-38-1l-1-2v-1l-1 2 1 2 1-1zm5-1c1-1 0-1-1-1l-1 1c0 2 2 2 2 0zm-66-2l-2-1c-1 0-2 1-1 2s3 0 3-1zm109-2l-1-1-1 1 1 1 1-1zm-116-1c1-1 1-1-1-3s-2-2-2 0l-2 2c-2 0-2 0 0 1h5zm-15-1l2-1c1 1 2 0 2-1h-2c-2 1-3-1-1-2l1-2h-1l-2 1-1 3c0 3 1 4 2 2zm212-2l-1-2-1 2c0 2 0 3 1 2l1-2zm-411-3h-1v3l1-3zm3 2l-1-1-1 1 1 1 1-1zm194-5h-2v-2l1-2-3 1c-1 2-1 2-1 0l1-2h1l-1-2v-2c2-2 2-2 0-3l-1 1c0 2-2 7-3 6h-1l1 2c1 0 1 0 0 0-2 1-2 3 1 5s3 2 5 0l2-2zm-20 2l-1-2-2-2-1-1-1 1 1 2v1l-1 1h5zm9-2a1 1 0 0 0-2 0 1 1 0 0 0 2 0zm-186-4l-3-1 1 3c3 1 4 0 2-2zm180 2a1 1 0 0 0-2 0 1 1 0 0 0 2 0zm71-4c-1-1-3 0-2 2h2v-2zm-243-2c0-3 0-3-2-2l-2 2v2l2 2c2 0 2-1 2-4zm170 1v-2c1-2 0-3-2-3h-2l-1-1-1 1 1 2 1 1c0 3 2 5 3 3 2 0 2-1 1-1zm-7-1l-2-1c-1 1 2 4 3 3l-1-2zm-156-10v-2c1-3 0-4-2-3l-1 3-1 3-1-1v-1c-2 0-1 2 2 3h4l-1-2zm-7 1l-1-1-1 1 1 1 1-1zm157-2c0-3-2-2-2 1l1 2 1-3zm13 2l-1-1v1l1 1v-1zm-145-2l-1-1-1 1 1 1 1-1zm-25-2h-1l-1 1h1l1-1zm150-4c1 1 2 0 2-1l-2-1-2-1h-1l-1 2-1 1c0 2 3 3 3 1l2-1zm10-1l-2-1-1 1 1 1 2-1zm-114 0l-2-1-1 1 1 1 2-1zm-12-1l-1-1-1 1 1 1 1-1zm7-2l-2-1h-1l2-1 2-1c0-2-3-3-5-3h-1l2 2-2 2 1 2h4zm83 0l-1-2h-2c0 2 2 4 3 2zm-90-3c-1-2-1-2-1 1 0 1 0 2 1 1v-2zm13 0c0-2-1-2-3-2l-1 3c0 1 0 2 2 1l2-2zm65 2l-1-1-1 1 1 1 1-1zm-48-3l-1-1-1 1 1 2 1-2zm85 1a1 1 0 0 0-2 0 1 1 0 0 0 2 0zm-81-2l-1-1v1l1 1v-1zm45 0a1 1 0 0 0-2 0 1 1 0 0 0 2 0zm7 0c0-1-2-4-3-3s1 4 2 4l1-1zm2-2l1-1h2l-1-1-1-2c0-3-2-1-2 2l1 3v-1zm-66-2h-1l-1 1h1l1-1zm6-2h-1l-1 1h1l1-1zm6 0c1-1 1-2-1-3l-3-1c-1 0-1 1 1 2v2c-1 2 1 2 3 0zm-28 0l-1-1v1l1 1v-1zm35 0l-2-1-1 1 2 1 1-1zm23-1c1-2 0-2-1-1v2l1-1zm6-2l-1-1-1 1c0 1 0 2 1 1l1-1zm-28-1c-1-3-2-4-2-2v3c2 1 3 1 2-1zm21-2c-1-2-2-2-3 0 0 2-1 2-1 0-1-1-1 0-1 1 0 2 0 3 3 1l2-2zm9 2l-1-2-1 2c1 2 2 2 2 0zm-15 0l-2-1-1 1 1 1 2-1zm-23-1a1 1 0 0 0-2 0 1 1 0 0 0 2 0zm-5-2v-2c-2 0-2 2-1 3s1 1 1-1zm8 0c1-1-2-4-3-4v2c1 3 2 3 3 2zm-10-5v-3l-1 4c0 4 1 3 1-1zm53 1h-1l-1 1h1l1-1zm-47-3l-1-1-1 1 1 1 1-1zm2-3l-1-1c0 2 1 3 2 2l-1-1zm-54 308v-4 1c-1 1 0 2 1 2v1h-1zm69-3l1-1 1 2-1 1-1-2zm25 0v-2c1-1 4 1 3 2 0 2-2 2-3 0zm-109 1c-1-3-1-4 1-4h2l-3 4zm28-2l1-1 1 1v2l-2-2zm9 0l1-1 1 1-1 2-1-2zm195 1c-3 0-4-4-3-7s3-3 9-1c4 2 5 8 0 8h-3-3zm-214-1h1-1zm23 0c-1-1 0-2 1-2l2 1c0 2-1 2-3 1zm29 0l1-2v-2l1-1 1 2-1 3v1l-2-1zm130-1c-2-2-3-7-2-8v-4c-1-2-1-6 1-7 1-1 5 1 5 3l1 2 1 2 1 4 2 5c0 4 0 4-3 5l-6-2zm380 1v-2l1-1v3h-1zm-568-3c-2 0-2-4 0-5v1c-1 2-1 2 1 1 2-2 2-3-1-3l-2-1-2-3c-1-2 0-3 3-1l1 2v2c3-1 4 0 4 3 0 4-2 5-4 4zm46-1c2-1 3-2 3-4s0-2 1-1c1 2 3 2 5 0 0-1 1-2 2-1l1 2-1 3c0 2-4 3-5 1s-2-2-2 0c0 1-1 2-3 2h-3l2-2zm-104 0l2-1c2 0 1 1-1 1h-1zm52-2l2-1-1 2c-1 1-1 0-1-1zm93 0l1-2 1 2-1 1c-1 1-1 0-1-1zm465 1l1-1 1 1-1 1-1-1zm-597-2l2-1v1l-1 2-1-2zm125-2c-1-3-1-3 2-3 5 0 5 4 0 5-2 0-2 0-2-2zm-117 0c0-3 1-4 3-1l-1 2-2-1zm157-1l-1-3c1 0 6 3 5 4s-2 1-4-1zm-180-3l1-1v3l-1-2zm169 1l1-1 1 1-1 1-1-1zm434-1l1-2v3c-1 1-1 1-1-1zm-454 0l-1-1 2 1h-1zm-162-2l1-1 2 1-2 1-1-1zm40 1c0-1 0-2-2-2-3-1-3-3 0-3l3 2v4l-1-1zm-18-1l1-1h2l-2 1h-1zm150-1l-2-1-3-1c0-2 4-1 6 1l1 3-2-2zm275 1l1-1 1 1-1 1-1-1zm-126-1l1-1c2 1 2 2 1 2l-2-1zm-176-1l1-1 1 1-1 1-1-1zm-130 0v-7c1-1 2 5 1 6l-1 1zm12-2v-2l-1-2h3c0-2-5-7-6-7l-1-3-1-3c-2-1-1-2 1-2l1-1c-1-2 1-4 2-2 1 1 1 1 0 0l-1-2c-2 1-2-1 0-3s3-2 2 0l1 2h2l3 1c2 0 2 0 2 2l-1 3h-1l-2 1 1 1 1 1 1 2h-1l-3 3-1 3c1 1 8-1 8-2h2c3 1 1 4-3 3l-2 1 2 1 1 1c0 1-1 2-2 1-2 0-3 0-4 2-2 2-4 3-3 1zm1-13l-1-1-1 1c0 2 2 2 2 0zm181 13l2-2 2 1c-1 2-5 2-4 1zm442 0l1-1 1 1-1 1-1-1zm-421-2l1-1 1 2c-1 1-2 1-2-1zm-187 0c0-2 0-3-1-1-1 1-3 0-2-2h3c2 1 2 2 2 3h-2zm11-3c0-2 1-3 2-3l1-2c-1-2 0-1 2 0l4 3 2 2h-8l-1 1-1 2-1-3zm135 3c-1-1 0-3 1-3l2 2c1 2-1 3-3 1zm7-1l1-2c1 1 2 0 2-1 1-2 2-1 2 2-1 3-4 4-5 1zm54 1c-1-1 0-3 1-3l2 2c0 2-2 2-3 1zm-7-1l1-1 1 1-1 1-1-1zm384-1c-1-2 0-3 2-1v2c-1 1-1 1-2-1zm-580 0l2-1v1l-1 1-1-1zm-25-2l-2-1-3-2c-1-1-1-1 1-1l3 1h1c2-1 3 1 2 3s-1 2-2 0zm191 1l2-2 1 1-2 1h-1zm4-2l-1-2c1-1 4 1 4 2 0 2-2 2-3 0zm-209 0v-2l1-1c0 3 2 2 2 0s0-2 1-1v3l-1 1h-3zm200-1l1-1 1 1-1 1-1-1zm45 0l1-1 1 1-1 1-1-1zm19 0l1-1c2 1 2 2 1 2l-2-1zm-230-1l1-1 1 1-1 1-1-1zm3 0l1-1h1l-1 1h-1zm145-1h3v1c-1 1-2 1-3-1zm-243-1l1-1 1 1-1 1-1-1zm252 0l1-1 1 1-1 1-1-1zm126 0c-1-2 1-3 2-2v2h-2zm17-1l1-1 1 2-2-1zm336 1l1-1 1 1-1 1-1-1zm89 0c0-2 1-2 3 0 1 0 1 1-1 1l-2-1zm-573-2l1-3c3-1 3 0 2 1-1 0-2 1 0 1 1 1 1 2-1 2-2 1-2 1-2-1zm438 0c-1-1 0-2 1-2l2 1c0 2-1 2-3 1zm-395-1v-2h1l1 2h-2zm-195-3c0-4 1-5 4-3l2 1-2 2c-3 4-4 3-4 0zm-41 1l1-1 1 1-1 1-1-1zm6 0v-2h1v2h-1zm27 0l4-5v1h1c1 0 2 0 1 1v3l-3 1-3-1zm605 0l1-1 1 1-1 1-1-1zm72-2c-3-2-3-3-1-3l3 3c2 3 1 4-2 0zm-381 0l1-1 1 2-2-1zm320 0l1-1 1 1-1 2-1-2zm-685 0l1-1h1l-1 1h-1zm21 0l1-1h1l-1 1h-1zm216-2l-3-2c-2 0-2 0 0-2l2-2 1 3 1 3 1-2c0-4 1-4 2-1s-2 5-4 3zm58 1c-3-1-8-8-8-9l-1-3c-3-1 2-10 6-10 2 0 2-1 1-3 0-2 0-2 1-1 1 2 8 5 10 5v2c0 2 1 3 2 2h1l1 2h2l1 2c2 0 2 1 1 4v5c0 1-1 2-3 2l-2 1c0 2-4 2-6 1h-6zm415 0c-1-1 0-2 1-2l2 1c0 1-2 2-3 1zm12-1l1-1 1 1-1 2-1-2zm-690-1l1-1 1 1-2 2v-2zm20 1l1-1 1 1-1 1-1-1zm233-2v-1 1zm166 1l1-1 1 1-1 1-1-1zm221-1l1-2 2 2-2 2-1-2zm-450 0l1-1 1 1-1 1-1-1zm-3-4l1-2 1-2v-2c2 0 4 2 4 4l1 3c2 2 2 2 0 1l-3-1h-1v-2h-1c1 1 0 2-1 3s-1 1-1-2zm-173 1v-3c1 0 2 0 2 2s-1 2-2 1zm184 0c-1-1 0-4 1-4 2 1 2 3 1 4h-2zm52 0c0-2 1-3 2-1l-1 1h-1zm284 0l1-1h1l-1 1h-1zm92 0v-2c1-1 2 0 1 2h-1zm-159-2l1-1h2l-2 1h-1zm200 0v-2c1-1 2 0 1 2h-1zm-696-2l1-1 2 1-1 1-2-1zm24 0l2-1 3 1h-5zm17-1c1-3 4-5 4-3l-1 2-1 1-1 2-1-2zm12 1v-1l1 1v1l-1-1zm-7-1l1-1c1-1 2 0 2 1l-2 1-1-1zm310-1l1-1 1 2-1 1-1-2zm-324 0c0-2 2-2 3-1 2 1 1 2-1 2l-2-1zm282 0v-1l1 1v1l-1-1zm344-1c0-5 1-5 3-2l1 2-2 1c-1 2-2 1-2-1zm-604 0c-2-1-1-5 1-5l2 2 1 3h-4zm582-1l1-1 1 1-1 2-1-2zm-613 0c-1-1 2-4 4-4s2-1 1-4c0-3 2-7 3-4v-1h2v2c-1 1-2 2-1 3l-2 3-5 4c0 1-1 2-2 1zm582-1l1-2h2c0 2-1 3-2 3l-1-1zm-250-1v-3c1-1 3 1 3 3s-2 2-3 0zm313 1v-1l1 1v1l-1-1zm19 0c-1-1-1-2 1-3 2 0 5 1 5 3h-6zm-675-1l1-1 1 1-1 1-1-1zm325 0l-3-2c-3 0-4-1-3-2h2c2 1 2 1 1-1v-4c1-2 1-2 2 0l1 4v5zm-58-1l1-1 1 1-1 1-1-1zm288 0h2l-1 1-1-1zm113-1v-2c1-1 4 1 4 3 1 1-3 1-4-1zm82 1c-2-2-1-5 1-3 2 1 2 4 1 4l-2-1zm-767-1l1-1 1 1-1 1-1-1zm330-1v-2c1-1 3 0 3 2s-2 2-3 0zm232 0v-1 1zm17 1c-1-1 0-2 2-2l2 2h-4zm-80-1l1-1c2 1 2 2 1 2l-2-1zm206 0l1-1 1 1-1 1-1-1zm-319-1l2-1v1l-1 1-1-1zm-339-1l2-1 1 1-2 1-1-1zm559 0l-1-1 2 1h-1zm-595-2v-1l2 1v2l-2-2zm745 1l-1-1 2 1h-1zm-324-1l1-1 1 1-1 1-1-1zm-386-1l1-1 1 1-1 1-1-1zm380 0l1-1 1 1-1 1-1-1zm-44-1l1-1 1 1-1 1-1-1zm57 0c-1-2 1-3 2-2v2h-2zm228 0h2l-1 1-1-1zm12 0v-2c1-2 4 0 4 1 0 2-3 2-4 1zm-369-1l1-1c2 0 2 0 1 1h-2zm354 0l1-2v1l-1 1zm46-2l2-1v1l-1 2-1-2zm-351 0l1-1c1 0 2 0 1 1l-1 1-1-1zm355 0v-1l1 1v1l-1-1zm74-1v-1l1 2-1-1zm-786-1l3-1c1 1 0 3-3 3-2 0-2 0 0-2zm302 0c-2-2 0-3 3-1 2 1 2 1 0 2l-3-1zm48 0l-1-1c-1 1-4-2-3-3h5l-2 1c-1 1 0 1 1 1 2 0 2 0 1 3-1 1-1 1-1-1zm66 0l1-2v2c-1 2-1 2-1 0zm3 1c-1-2 0-3 2-3l1 1h-1l-1 1 1 1v1l-2-1zm18-1c-2-3 0-5 2-3v3c-1 2-1 2-2 0zm116 1l2-1v1l-1 1-1-1zm-269-1c-1-1 0-2 1-2l2-2c0-2 2-2 3 1l-1 2-3 1h-2zm123 0l-1-1-1-2c0-2 0-2 1-1l1-2h1v2l1 2c1 0 1 1-1 2h-1zm110 0l1-1 2 1-1 1-2-1zm-485-1l1-1 1 1-1 1-1-1zm6 0h2l-1 1-1-1zm388-1l1-1v2c-1 1-1 1-1-1zm243 1v-1l1 1v1l-1-1zm10 0l-1-2v-3c-1-3-1-5 2-4 2 0 3 2 1 2-1 0-1 1 1 2 2 3 3 4 1 3l-1 1c0 2-1 2-3 1zm-650-1c2-2 3-2 2 0l-2 1c-2 0-2 0 0-1zm452-1c-2-1-2-1 0-1l3 1c0 2 0 2-3 0zm251 1l-1-2 2 1c1 2 1 2-1 1zm-690-1l-2-1c0-2 1-1 3 0l2 2-3-1zm279 0v-2c1-1 2 0 1 2h-1zm124-1v-1 1zm104 0v-1 1zm6 0v-1h3l1 1c0 1 0 2-2 2l-2-2zm104 1l1-1 1 1-1 1-1-1zm-606-4l-1-2c2 0 5 3 5 4s-2 1-4-2zm244 2l-2-1h-1l1-1 1-1c0-2 0-2 0 0l2 2 1 1-1 1-1-1zm32 0v-3c1-2 3-2 5 0l-1 3h-4zm183-1l2-1 1-1h2l3 3h-4l-4-1zm-503 0l1-1 2 1-2 1-1-1zm369-1l1-1 1 1-1 1c-1 1-1 0-1-1zm7 1l2-1v1l-3 1 1-1zm8 0c0-2 2-5 4-4v3c-2 2-3 2-4 1zm17 0l-2-1-1-1c1-1 6 1 6 2l-2 1-1-1zm-99-2l1-2h2c4 0 3 3-1 4-2 0-2-1-2-2zm89 0c0-1 0-2 1 0v1l-1-1zm32 1c-1-1 0-6 1-7l1 2v2l-1 2-1 1zm11 0l1-1h1c0 2-2 2-2 1zm116 0v-6l1 2v4l1 1-2-1zm137-1c-1-1 2-4 5-4l3 2c0 2 0 3-3 2h-5zm-641-1c-1-1 0-3 1-3 2 0 2 1 1 3h-2zm363-1l1-2v2l-1 2v-2zm18 1v-2l1 1c1 2 0 2-1 1zm273 0l-4-3c0-2 7 0 8 1 2 2 1 3-4 2zm42 0l2-1 2 1-2 1-2-1zm39 0l1-1 1 1-1 1-1-1zm-348-1l2-2c1-1 2 0 2 1l-1 1h-3zm16-1v-1 1zm-453 0l1-1 1 1-1 1-1-1zm319-1l2-2v2l-2 2v-2zm82 1l1-1 1 1-1 1-1-1zm279 0l1-1 1 1-1 1-1-1zm-664-2l1-1 2 1c-1 2-3 2-3 0zm15 1l1-1 1 1-1 1-1-1zm284-1l-1-1h-1l2-1c2-1 2-1 2 1-1 2-2 2-2 1zm104-3v-1l2 1 1 1c0 2-3 1-3-1zm-140 0l1-1 1 1-1 2-1-2zm25 1l1-1 1 1-1 1-1-1zm-319-1h2l-1 1-1-1zm19 0l-1-3h4c2 2 2 2 0 2l-3 1c0 1 0 1 0 0zm23-1l-2-1h-1l3-1c2 1 2 3 1 3l-1-1zm9 0l1-1 1 1-1 1-1-1zm-24-2l2-1-1 2c-1 1-1 0-1-1zm741 1l1-1 2 1-2 1-1-1zm-730-4l2-1 1 1-2 1-1-1zm756 0v-2c1-1 4 1 4 2h-4zm-50-1h2l-1 1-1-1zm13-1l1-1 1 1-1 1-1-1zm13-1c-2-1-2-2-1-2l4 1c2 0 3 1 3 2s-4 1-6-1zm-731-1l4-3 1 1-2 1-1 1-1 1-1-1zm687-1l-3-1c-4-1-4-3-1-3s8 4 7 5-2 1-3-1zm20 1l1-1 1 1v1l-2-1zm12-1v-2l2 1c1 2 0 2-2 1zm-777-1l1-1 1 1-1 1-1-1zm749-2l1-1 1 1-1 1-1-1zm-718-4c0-3 0-3 4-3 2 0 4 0 3 1l-2 1-2 1c1 1 0 2-1 3-2 0-2 0-2-3zm734 2l1-1 1 1-1 1-1-1zm-20-1c-1-2 1-4 2-2l3-2 2-2-1 3c-2 3-5 4-6 3zm-733-2l-1-1c-2-1 1-3 3-3s3 0 2 1l-2 2-1 3-1-2zm30 0c-1-2-1-2 1-3 3-1 5 1 4 3s-4 2-5 0zm735 1v-3h1l3 2h1v1h-3-2zm-10-4v-2l2 2-1 2-1-2zm31-2c1-1 4-2 3 0l-2 2-1-2zm-37 0c0-1 0-2 2-2 1 0 2-1 1-2-1-3 2-4 5-1l1 2h-2l-3 2c-2 2-3 2-4 1zm-706-3c-1-1-1-1 1-2 4 0 4 0 3 2h-4zm-39-1l1-1 2 1 1 1-2 1-2-2zm779-1c-1-1-1-2 1-2l2 1c1 2-1 2-3 1zm-775-2l-2-1c-2 1-2 0-1-1h4c2 0 2 1 0 2h-1zm7 0l1-2c2-1 2-1 2 1l-2 2-1-1zm13-2l1-1 2 1-2 1-1-1zm760-1c-1-2 0-2 3-1 2 2 2 2 0 2l-3-1zm-752-1l1-1h2l-2 1h-1zm-11-1v-1l1 1v1l-1-1zm728-1l1-1 1 1-2 2v-2zm49 1l2-1 3 1-3 1-2-1zm-803-1l1-1c2 0 2 0 1 1h-2zm39-1l-1-2c2-1 3 0 3 1l1 1h1c0 2-1 2-4 0zm747 1l1-1 1 1-1 1-1-1zm-25-2l1-2v1l-1 1zm-738-2l-1-2 5-1c0 2-2 3-4 3zm757 0l1-1c2 0 2 0 1 1h-2zm-737-1l-4-1h-1l1-1v-1l-1-1 11 4h-6zm-28-2h3l-1 1-2-1zm-4-2l1-1 1 1-1 2-1-2zm742-2l1-2v3c-1 1-1 1-1-1zm-747-1l1-1 1 1-1 2-1-2zm47-1c-1-1-1-1 1-2l1 2c-1 2-1 2-2 0zm6 1l1-1 1 1-1 1-1-1zm737-6v-1l1 1v1l-1-1zm-8-2l1-2c2-2 3-1 3 0l-1 1-1 1h-2zm39 0l1-1c1 0 2 0 1 1l-1 1-1-1zm-813-1l-1-1 2 1h-1zm783-1v-2l2 1c1 1-1 2-2 1zm-768-1l1-2h2l-2 2h-1zm773-2l3-1c2 0 3 0 2 1h-5zm-783-1l1-1 1 1-1 1-1-1zm18-1h1l2 1-2 1-1-2zm761 0c-1-1 0-2 1-2l2 1c1 1-2 2-3 1zm-756-1v-2l1 1c1 2 0 2-1 1zm5-2c0-1 2-3 4-2h4l1-1c3 0 2 2-3 3h-6zm-28-3c-2-1-2-1 0-1l3 1c0 2 0 2-3 0zm758 1l2-1v1l-1 1-1-1zm23-3c-2-1-2-2 0-2s3 1 2 2h-2zm7-1v-1 1zm-769 0h2l-1 1-1-1zm15 0l-1-2-2-1h-2c2-2 6-1 8 2 1 2 0 2-3 1zm723-2c-2-2-2-3-1-4s4 1 3 2l2 2c3 0 4 2 1 2-1 1-3-1-5-2zm-746 0c-2-1-1-1 0-1l2 1h-2zm756-1l1-1 2 1-2 1-1-1zm34-1l1-1 1 1-1 1-1-1zm-808-5l-1-2 3 2v2l-2-2zm23 0h2l-1 1-1-1zm-11-1l1-1h1l-1 1h-1zm28-1c-1-2 0-3 2-1v2l-2-1zm11 0l1-2 1 1v1h-2zm-56-2c-2-1-2-1 0-1l3 1-1 1-2-1zm768 0l2-1c1 0 2 0 1 1l-2 1-1-1zm21-1c-1-1 0-3 2-4 3 0 4 0 2 3-1 2-2 2-4 1zm-748-3v-1c1-1 3-1 3 1h-3zm9 0c-3-1-3-3-1-4 2 0 3 1 4 3s0 2-3 1zm719-2c-1-1-2-1-1-2h3v2h-2zm6-1c-1-1 0-2 2-2l2 1c0 2-2 2-4 1zm-721-1l1-1 1 1-1 1-1-1zm-10-2v-3c1-1 3 1 2 3s-1 1-2 0zm740 0l1-1 2 1 1 1-2 1-2-2zm13 1l2-1v1l-1 1-1-1zM6 201v-1c1-1 3-1 3 1H6zm81-1c-2-2-2-2 0-2l2 2c0 2 0 2-2 0zm-9 0l1-1h1l-1 1h-1zm730-1l1-1 1 1-1 1-1-1zm-790-3h2l-1 1-1-1zm786-1l-1-4 2-1c2 1 3 0 3-1l2-1c1 0 2 0 1 1l-1 3-2 2-1 1h-3zm24-1c-2-1-1-2 1-2l3 1c0 1-2 2-4 1zm-730-5l1-1 1 2-1 1-1-2zm-6-2l-1-2v-1l-1-3h1c1 0 2 1 1 2s0 1 1 2 2 2 1 3-1 0-2-1zm738 1h3l-1 1-2-1zm-730-3v-2c1-2 2-1 2 2h-2zm-27-2l2-1c2 1 2 2 0 2l-2-1zm11-1l2-1c1 1 1 3-1 3l-1-2zm718 1l1-1 2 1-2 1-1-1zm7 0h3l-1 1-2-1zm-22-1c-2-1-2-2-1-2l2 1v2l-1-1zm19-1c0-1 3-2 3 0h-1l-2 1v-1zm-782-1l1-1 1 1-1 1-1-1zm74 0l1-1 1 1-1 1-1-1zm664-2c0-5 1-7 2-5v3l1 4-1 1c-2 0-2-1-2-3zm8 1l1-1c1-1 1 0 1 1l-1 1-1-1zm-679-1l1-1c1 0 2 0 1 1h-2zm5-1l1-2c1-1 1 0 1 1 0 2-1 2-2 1zm678-4c0-2 1-4 2-3v3c-1 2-1 2-2 0zm-9 0c0-2 1-2 2-2 2 1 2 3 0 2h-2zm-679-3l2-2c1 0 2 0 1 1l-2 1h-1zm673 0l2-1c1 1 2 0 1-1l1-1 1-3c0-4 1-4 1 0l-1 5c-1 2-4 2-5 1zm21 0l-1-3c0-2 4-2 5 0 1 3-1 5-4 3zm-687-2v-1l2 1v2l-2-2zm768 1h2l-1 1-1-1zm-38-3c5-3 6-3 2 0l-4 2 2-2zm47-2l2-1 2-1-2 2h-2zm-768-1c0-2 2-2 3-1s1 1-1 1h-2zm623-1l1-2v1c0 2-1 3-1 1zm24 1l1-1h1l-1 1h-1zm47 0l2-1-1 1h-1zm-62-3l-2-1c0 1-1 1 0 0 2-2 9-1 8 1s-5 2-6 0zm-656 0c-1-2 0-2 2-1v1h-2zm19 0c-2-1-2-2-1-2h2c1 2 1 3-1 2zm684 0l2-1-1 1h-1zm-764-4l2-1 1 1-2 1-1-1zm736 0v-2c-2-1-1-1 0-1 3 0 3 2 1 3h-1zm10-3l1-3c1-1 2-2 2 0v3c1 1 0 2-1 2l-2-2zm37 1l1-1c2 0 2 0 1 1h-2zm-175-2c-1-1-1-2 1-4s4-2 4 0l-1 1-1 2c0 3-1 3-3 1zm-113-1l1-1c1 0 2 0 1 1h-2zm-453-1l1-1 1 1-1 1-1-1zm433-2c0-5 1-6 2-4 2 2 5 0 4-2v-2l1 1c0 2 0 2 1 1h2l-2 1-1 2c1 1 0 2-1 3h-4l-1 2c-1 1-1-1-1-2zm6-1a1 1 0 0 0-2 0 1 1 0 0 0 2 0zm17 2c-1-1-1-1 1-1s2 1 1 2l-2-1zm121 0c-1-1-1-1 1-1l2 1 2 1-1 1-4-2zm-532-2c0-2 0-2 1-1l-1 3v-2zm2 1l1-1 1 1-1 1-1-1zm513 1l1-3c2-2 2-1 1 2-1 2-2 2-2 1zm-87-2l-1-1v-1c2-2 3-1 2 1 0 2-1 4-1 1zm111 1l1-1 1 1-1 1-1-1zm-544-2l-2-4c-2-1-2-1 0 0s4 6 3 6l-1-2zm580 0l2-2c1 1 0 4-2 4v-2zm75 1l1-2h2c0 2-2 3-3 2zm-660-1l2-1v1l-1 1-1-1zm581 0l1-1c1-1 1 0 1 1l-1 1-1-1zm9-2l1-3v-1 3l-1 3v-2zm-88-1c0-3 2-4 4-2 2 1 2 3 0 2l-2 1c-1 2-1 1-2-1zm55 1l1-1c2 0 2 0 1 1l-2 2v-2zm-180-1l-2-2c-2 1-2 0-2-2l1-2 1 1 1 1h1l2-3c2-2 3-2 3-1l1 2c1 1 3 6 1 6v-1l-2-1-1 1c0 3-3 3-4 1zm5-5l-1-1-2 2 1 1 2-2zm62 5c1-2 0-2-2-2s-2-1-2-3l1-2 2-1c2 0 2-1 2-2-1-3 1-4 3-2 2 1 2 1 0 3l-3 2-2 1h3c2-1 2 0 1 1v1c2 0 2 0 0 3s-3 4-3 1zm51 0c0-3 2-5 4-3 2 1 2 1 0 3-3 2-4 2-4 0zm21 0l1-1v1l-2 2 1-2zm-175 0l-3-1v-1-4l-1-2 2 2 2 3 1-4c-2-1-2-3 1-4h1v2c2-1 2 0 1 1v3c2 0 2 3 0 4-1 2-2 2-4 1zm73-1c0-2 1-2 2 0 2 0 1 1 0 1l-2-1zm57 0v-1 1zm77 0c0-2 0-2 2-2l3 1c1 1 1 1-1 1-1-1-2-1-3 1-1 1-1 1-1-1zm34 1l1-2 1 1c-1 2-1 2-2 1zm44-1c1-1 0-1-1-1h-2l2-2c2-1 2 0 2 1h1v-2l1 1v1 2l-1 1-2-1zm137 1h3l-1 1-2-1zm-446-3c0-5 1-8 4-8 2 0 2 0 1 4-1 6-5 9-5 4zm42 1v-1 1zm205 0l1-1 1 1-1 2-1-2zm180 1l1-2c1-1 2 0 1 2h-2zm-202-1l-1-1 1-1c1 1 1 1 0 0v-2l2 2v3l-2-1zm58-1l1-1 2 1-2 1-1-1zm14-1l-1-2 2 1 1 2-2-1zm-316-1l2-1c1 0 2-1 1-2l1-1 2-1h1c2 2 2 2 3 0 1-4 2-3 0 1 0 3-1 4-3 3l-5 2c-2 1-2 1-2-1zm232 1l1-2v-1l-1-1 2 1c2 1 2 2 1 3h-3zm76 0l1-1 1 1-1 1-1-1zm-294-2v-3l2-3 1-1v4l-1 2c1 2-1 3-2 1zm96 0c0-2-2-2-2-2-1 1-1 0-1-1l1-1c2 0 7 4 6 5s-2 1-4-1zm56 0c0-2 0-2 1-1 2 1 2 3 1 3l-2-2zm5 1l1-1c2 0 2 0 1 1h-2zm52 0l1-1c1 0 2 0 1 1l-1 1-1-1zm70 0c0-2 2-3 2-1l-1 1h-1zm-18-2h1c0 1 1 1 1-1s1-2 1 0-1 3-2 3l-1-2zm-183 0l-1-1 3-1c3 0 3 0 1 1-2 2-3 2-3 1zm99-1l1-1v1l-2 2 1-2zm-233 0l2-1c2 0 1 0 1 1l-1 1-2-1zm110-1c0-2 0-2 1-1s2 0 3-1l1-1c0 2-2 3-4 4-1 1-1 0-1-1zm249 0v-1h-1l-1-3 3-1c2 0 3 0 2 1l-1 4c1 1 0 2-1 2l-1-2zm-189-1l1-2h1l1-1-1 3c-2 2-2 2-2 0zm34 1l1-2h1c1 1 1 3-1 3l-1-1zm6-1l1-1v2c-1 1-1 1-1-1zm-133-1l1-2 1 1-1 2-1-1zm162 1l-1-1h-1c0-2 2-2 3 0s0 3-1 1zm-468-1l-2-4v-2l2 3 2 3h-2zm243 1v-6-2l-1-3 1 1 2 3c2 1 2 1 0 2-2 2-2 3 0 2l2 1h-1l-2 1-1 1zm41-1a1 1 0 0 1 2 0 1 1 0 0 1-2 0zm25 0l1-2c2 0 3 1 3 2h-4zm26-1c0-2 0-3 3-2 2 0 2 0 0 2s-2 2-3 0zm256 1l1-1c1-1 1 0 1 1l-1 1-1-1zm-361-1l-3-1 1-2c1-2 1-2 3-1s2 1 1 2v2h-2zm24 0l-2-1-3-1v-1l3-2h2v5zm77 0c-1-2 0-3 2-2v2h-2zm29 0l1-2c1-1 1 0 1 1l-1 1h-1zm46 0v-1l1 1v1l-1-1zm108-1c-2-2-2-3 0-4 2 0 4 2 3 4s-1 2-3 0zm33 1l1-1h1l-1 1h-1zm-335-2l2-1 2 1c-1 2-3 2-4 0zm251 0v-4c0-1 1-2 2-1 1 2 0 6-1 7l-1-2zm-494-1v-1 1zm310 1l1-1 2-2 2-1c0 1 0 2-2 3-2 2-3 2-3 1zm35 0l1-1 1 1-1 1-1-1zm-21-1l1-1h2l-2 1h-1zm12 0l1-1 2 1-1 1-2-1zm112 0c1-1 0-1-1-1l-1-1 1-1 2 1 1 1-1 2-1-1zm38 0l1-1c1 0 2 0 1 1l-1 1-1-1zm-236-1l3-1 3-1 3-1-1 1c-3 2-9 3-8 2zm109 0l1-1c1-1 1 0 1 1l-1 1-1-1zm108 0l1-2 2-1-2 3h-1zm-443-2v-1l2 1v1l-2-1zm317 0l1-1 1 1-1 2-1-2zm21 0v-3c2 0 3 2 2 4-1 1-1 1-2-1zm-33-2v-1h2v-1c1 1 0 2-1 3-1 2-1 2-1-1zm228 2l1-1h1l-1 1h-1zm-288-2l1-1 1 1-1 2-1-2zm76 1l1-1 2 1-2 1-1-1zm22-1l2-2c1 1 0 4-2 4v-2zm91 0c0-2 2-3 4-1l-1 2-3-1zm-427-1l1-3v3c-1 2-1 2-1 0zm-16 0v-2h1v2h-1zm260 0v-3h2v2c-1 2-2 2-2 1zm10 0a1 1 0 0 1 2 0 1 1 0 0 1-2 0zm79-1c-1-2 2-5 3-3 1 1 0 5-2 5l-1-2zm-327-1l-1-3 1 2c0 2 2 2 2 2 2 0 2 1 0 1l-2-2zm195 1v-9 3l2 4v2h-2zm354 0a1 1 0 0 1 2 0 1 1 0 0 1-2 0zm107 0l1-1c1-1 1 0 1 1l-1 1-1-1zm-231-1l1-2c1-1 1 0 1 1 0 2-1 2-2 1zm-438-1l-2-3h1c3 0 3 0 2 3h-1zm241-2c0-4 0-4 3-2 2 1 2 3 0 4-3 1-3 1-3-2zm18 2h2l-1 1-1-1zm72 0l1-1c1-1 1 0 1 1l-1 1-1-1zm21 0l1-1h1l-1 1h-1zm-141-1c-1-1-2-1-1-2s4 0 4 2h-3zm62-1c-2-3-1-4 1-2l2 2h-3zm88 0l2-1v1l-1 1-1-1zm-142-4c1-7 1-7 2-4 1 2 0 8-1 8l-1-4zm16 2v-2l1 1c1 2 0 2-1 1zm289-1l1-1 1 1-1 2-1-2zm-310 0l2-1c1 0 2 0 1 1l-2 1-1-1zm9-3l1-3c1 0 2 7 0 7l-1-4zm40 3l1-1h1l-1 1h-1zm17-1v-1 1zm80 0v-1 1zm-49-1v-1 1zm5 1l1-1 2 1-2 1-1-1zm114 0l1-2 2 1-3 1zm128-1l1-1v1l-1 2v-2zm60 1l2-1 1 1-2 1-1-1zm-577-1l-2-1c-2 0-2-1-2-5v-5l-1 1h-1l-1 1h-5l1-1v-4c0-3 0-3 1-1l5 2c4 0 5 2 4 6l1 4c1 0 2-1 2-3 0-1 0-2 1 0 1 1 1 4-1 5-1 2-2 2-2 1zm280 0l1-1h1l-1 1h-1zm-116-2l-1-2c2 0 3 1 3 2v2l-2-2zm405 1l2-1c2-2 2-1 1 0-1 2-3 2-3 1zm-618-1l1-1c1-1 1 0 1 1l-1 1-1-1zm291 0l1-1h2l-2 1h-1zm-275-2v-2c0-2 1-1 1 1 1 2 0 2-1 1zm201 0c2-1 2-5 1-5l-1-2 1-1 2 1v1l1 3c1 2 1 2-2 3h-2zm54-1l-1-1c-1 1-1 0-1-1 1-2 1-2 2-1l1 1c2 0 1 3 0 3-1 1-1 0-1-1zm123 1a1 1 0 0 1 2 0 1 1 0 0 1-2 0zm-115-1l1-2v1l-1 1zm59 0l-2-1-1-1h4l1 1-1 1h-1zm25-1l1-2 1 1c-1 2-1 2-2 1zm-353-2l1-2v3l-1-1zm190 1l1-5c0-3 1-3 3-3h4v4l-3 2-1 1c0 2-3 2-4 1zm11-1v-5l1-1 1 3 2 3c0 2-4 2-4 0zm-205-2l1-1 1 2-2-1zm227 1l1-1 1 1-1 1-1-1zm53 0l1-1c1 0 2 0 1 1l-1 1-1-1zm190-1l5-4c1 0 1 2-1 3-2 2-4 2-4 1zm-425-1l1-1c1-1 1 0 1 1l-1 1-1-1zm232 0l1-2c1-1 1 0 1 1l-1 2-1-1zm20 0l2-1-1 1h-1zm-25-3c0-2 0-2 1-1l1 2c-1 2-1 2-2-1zm371 2l1-1c2 0 2 0 1 1h-2zm-595-1l1-1c1 0 2 0 1 1l-1 1-1-1zm245 0c0-2 2-2 4-1l1 1h-5zm-250-3l-4-2c-2 1-2 1-1-1v-6l1-1 2-2 3-1 1 1h1c1 0 2 0 1 2-2 2-4 2-5 0v1c1 2 0 3-1 3l-1 1h2l1 2 2 1 2 1c0 4-2 4-4 1zm138 1l-2-3 3-1c2-1 2-1 2 2 1 3 0 4-3 2zm-162-1l-1-1c-1 1-2 0-1-2s1-2 2 0l1 3h-1zm31 0c-3-1-3-2 0-2l4-1h2v1l-3 1-3 1zm141-2l1-4v3l-1 4v-3zm43 2l1-1c2 1 2 2 1 2l-2-1zm52 0c-2-1-2-1 0-1l2 1h-2zM82 95v-1l1 1v1l-1-1zm234-3c-1-4-1-4 1 0 2 3 2 4 1 4l-2-4zm10 3l1-4c1-2 3-2 3 2 0 2-3 3-4 2zm-156-2l2-2c1 1 1 2-1 3l-1-1zm412 1v-1l2 1h-2zm-440-4c-2-3-2-4 0-4 1 0 2 0 1 1l1 4c1 3 0 2-2-1zm235 0v-1l2 1c0 2 0 2-2 0zm-209-1c1-2 0-2-1-2-2 0-2-2-1-3l2 1h2l2-3 1-2c1-2 2-2 4-1l3 2 1 2v1l-3-2c-2-4-4-3-4 2v6h-1l-3-1-2 1v-1zm9 0c-2-1-1-2 0-3 2-1 2-1 3 1l-1 4-2-2zm111 0v-1 2-1zm-153-2l1-2v2s0 1 0 0l2 1-2 2-1-3zm170-1c1-3 3-4 3-2l1 2c2 0 0 2-2 2s-2 0-2-2zm-123 1l2-4c1-1 2-2 1-3v-1c2 0 2-3 1-4-2-1-1-2 2-2l4 1-1 1-1 2c1 2 1 2-1 1-2-2-2 0 1 5s3 6 0 3c-2-2-4-3-4-1l-2 2h-2zm-97-1l1-1 1 1-1 1-1-1zm139-2l1-1 1 1-1 1-1-1zm117-1c1-2 1-2 2-1s0 3-1 3l-1-2zm-176 0l-2-1-1-4c0-4 1-5 2-2 1 2 1 3 2 2v3l-1 2zm87 0v-3-4c0-2 0-2-1 0-1 3-4 3-5 0s0-4 2-3h7c2 1 2 2 1 3l-2 5c-1 2-1 3-2 2zm122 0l1-1c1 0 2 0 1 1h-2zm-60-1l1-1 1 1-1 1-1-1zm131 0l3-1-1 1h-2zm-292-1v-7l2 1h1c-1-1 0-2 1-1l2 1 1 1-3 1-3 3-1 1zm43-2c-2-2-2-3-1-3 1-1 1-1-1-3l-1-3-2-2c-2-2-5-6-3-6l2 1c0 2 1 2 4 1 3 0 3-1 1 4l-1 4 2 2c1 4 3 1 3-4 0-4 0-6 2-6l2-1h1c0 1 0 2 1 1 1 0 2 0 1 1 0 2 2 4 4 4s2 0 0 1h-2c-2-1-5 1-5 2l-2 2-1 2c1 1 0 2-1 2v2c2 0 2 2 1 2l-4-3zm5-9v0zm4-1a1 1 0 0 0-2 0 1 1 0 0 0 2 0zm294 12l1-2 1 1-1 1h-1zm-330-1l1-3 2-3-1 3-1 4-1-1zm104-1v-2l2 2c1 1 0 2-1 2l-1-2zm-137 0l1-2 2-1v2c-1 1-2 2-3 1zm120 0h2l-1 1-1-1zm-51-5c1-2 1-2 2-1 1 3 0 4-2 4v-3zm59 1l1-1 1 1-1 2-1-2zm-4-1l1-1 1 1-2 2v-2zm222 1l1-1c1-1 1 0 1 1l-1 1-1-1zm-210-1c-1-2 1-4 2-2v2h-2zm38 0l1-1 1 1-1 1-1-1zm-134-2v-1 1zm39 1v-3c1-1 2-1 2 1 1 2-1 3-2 2zm26-2l-1-2c0-2 3-2 3-1h2v2c-1 3-2 3-4 1zm16 1c-1-1 2-4 4-3 1 0 1 1-1 1l-1 1c-1 2-1 2-2 1zm-73-1l1-2 1 1-1 1h-1zm104-1l-1-4 1-1s1 0 0 0l1 3v3c-1 1-1 0-1-1zm163 0l1-2 1 2c-1 2-2 2-2 0zm-314-1c0-2 0-2 1-1v3l-1-2zm32 1l1-1 1 1-1 1-1-1zm122 0l2-1 1 1-2 1-1-1zm-19-2l1-2c1-1 1 0 1 1 0 2-1 2-2 1zm40-1c0-2 0-2 2-2 1 0 2-1 2-3s0-2 1-1c1 3 0 7-2 6l-1 1-1 1-1-2zm-78-1l-2-4-2-4c0-2 3-2 4 0s3 2 3 0l1-2 1-2 2-2c2 0 3 0 3 2l-2 3c-1 1-1 1-1-1h-2l-1 3c1 2 0 3-1 3l-2 2h1c1-1 1 1-1 2-1 2-1 2-1 0zm-19 0v-2c1-1 2 0 1 2h-1zm31-2v-1l2 1 1 1-2 1c-1 1-1 0-1-2zm-66 0l1-1 1 1-1 2-1-2zm71 0v-5l1-3c0-2 0-2 1-1 2 1 2 2 1 6l-3 5v-2zm12 1c1-1 1-2-1-3-2-3-2-5 0-3l2 3 1 1c2 1 1 3-2 3v-1zm-52-2l-3-3 2 1c2 1 3 0 5-1l1-2c1 1 1 0 3-1l1-2v-3-3h-3c-1 2-1 2-1 0-1-4 2-4 5 0 4 4 6 10 4 10l-1-2c0-2-4 0-8 4l-3 4-2-2zm29 0v-1 1zm33 1l-1-2h2l1 2h-2zm25 0l1-1c2 1 2 2 1 2l-2-1zm-161-2h2l-1 1-1-1zm34-1l-2-1 5 1c1 1-1 2-3 0zm20 0l1-1 1 1-1 1-1-1zm31 1l1-2v1l-1 1zm59-1l1-1 1 1-1 2-1-2zm32 0l1-1v1l-2 2 1-2zm49 1a1 1 0 0 1 2 0 1 1 0 0 1-2 0zm-118-1c-1-1 0-3 2-3v3h-2zm33 0l1-2c1-1 1 0 1 1 0 2-1 2-2 1zm29-1c0-2 0-2 1-1v2l-1-1zm-184 0l1-1 1 1-1 1-1-1zm36-1l-1-3 1-2 1 2 1 2v3l-2-2zm20 1l1-2c1-1 3 1 2 2h-3zm7 0l1-1 2 1h-3zm4-1l-2-2-1-2h2c3 2 3 3 2 5-1 1-1 1-1-1zm-36-1l1-1h2l-2 1h-1zm115-1l1-1c1 0 2 0 1 1l-1 1-1-1zm-86-1l1-2h1c1 1 1 3-1 3l-1-1zm24 0v-1l1 1v1l-1-1zm70 0l2-4v1l1 3c1 1 1 1-1 1l-2-1zm-19-2v-1 2-1zM19 54l1-1 1 1v1l-2-1zm92 0h2l-1 1-1-1zm118 0l1-2c1-2 2-1 1 1 0 2-2 2-2 1zm91-1v-1 1zm-85-1l-2-3-2-2v-1c2 0 6 4 5 5l1 1v1c-1 1-2 1-2-1zm-25-1l1-1 1 1-1 2-1-2zm-48-1c0-2 0-2 1 0v1l-1-1zm4-2c0-1 1-3 2-2v4l-2-2zm5 0l1-1v2l-1-1zm25 0l1-1v2l-1-1zm8 0v-3c1-2 1-2 1 0l2 2v1l-1 2-2-2zm36-1v-1 1zm-55-1l-2-2 1-1c1 0 2 0 2 2l-1 3v-2zm76-2l3-5 1 2c1 3-1 6-3 5l-1 1-1 1 1-4zm46 2l1-1v3l-1-2zm-201-1l1-1 1 1-1 1-1-1zm166 0l1-2 1 2-2 2v-2zm-37 0l2-1h2l-2 1h-2zm173-1l1-1 1 1-1 2-1-2zm-192-1v-1l1 1v1l-1-1zm25 0c-2-1-2-2 1-2l2-1 1-1v1l-1 2c1 1-2 2-3 1zm-53-1l1-1 2-1h2l-1 2h-4zm78-2l1-2 1 2c0 2-1 2-2 0zm-54 0c0-2 2-6 3-5l-1 4c-1 2-2 2-2 1zm49-1l1-2c1-1 1 0 1 1 0 2-1 2-2 1zm-20-1v-1l1 1v1l-1-1zm-3-1l-1-2h2c1 2 1 3-1 2zm11-1l1-3c1-1 2 0 0 2l-1 1zm-47-1l1-2v1l-1 1zm13-3l2-2-2 3v-1zm29 0l1-1v2c-1 1-1 1-1-1zm297 0l1-1 1 1-1 1-1-1zm-336-3c0-2 0-2 1-1 2 1 1 3 0 3l-1-2zm25-1l2-2 1 1-2 1h-1zm84 0l1-1c1-1 1 0 1 1l-1 1-1-1zm208-4l1-1h1l-1 1h-1zm-338-4v-2l1 1c1 2 0 2-1 1zm-26-2l1-2 1 2-1 2-1-2zm133-1l1-1v2c-1 1-1 1-1-1zm-50-2c-1-2-1-2 1-2l2 2c0 2-2 2-3 0zm81-7l1-1v2c-1 1-1 1-1-1z"/>
</svg>
