<svg xmlns="http://www.w3.org/2000/svg" version="1" viewBox="0 0 1500 527">
  <path fill="#13a538" d="M321 513v-1l1 1v1l-1-1zm9-9l1-2c2 0 2 3 0 4-1 1-2 1-1-2zm-192-1l3-1-2 2-1-1zm9 0l1-1 1 1-1 1-1-1zm311-4l1-1-1 2v-1zm649-4l-1-3c0-2 0-2 2 0l1 2c0 2-1 2-2 1zm-767-2l1-1 1 1-1 1-1-1zm-170-1l1-1 1 1-1 1-1-1zm283-1l1-2 1 2-1 2c-1 1-1 0-1-2zm661 0v-1l1 1v1l-1-1zm-942-3l2-2 1 2-1 1-2-1zm144-2c0-2 2-3 2-2l-2 4v-2zm38 1c0-2 3-5 4-5l1 1-3 3h-1l-1 1zm-56-2l1-1 1 1-1 1c-1 1-1 0-1-1zm806 0l1-1 1 1-1 1c-1 1-1 0-1-1zm-6-1l1-1v2l-1-1zm-519 0c-1-1-1-3 1-3l1 1c0 2-2 2-2 2zm-105-2l1-1-1 2v-1zm112-1l2-2 1 1-2 2-1-1zm95 0l2-2v2c0 1-2 2-2 0zm-338-1l1-1 1 1-1 1c-1 1-1 0-1-1zm223 0l1-2v2l-1 1v-1zm547 1v-3h2l1 3h-3zm-797-2l3-1v1l-4 1 1-1zm402 0l1-1 1 1-1 1s-2 0-1-1zm-397-1l2-1h1l-3 1zm385-1l2-2-1 2-2 1 1-1zm420 0l1-2 1-1v-2c2-2 2 2 0 4-2 3-2 3-2 1zm-905-2l1-1h1l-1 1h-1zm83-1l1-1 1 1-1 1-1-1zm20 1l2-2c2-1 2 0 2 1l-2 1h-2zm24-1l1-2v2c-1 2-1 2-1 0zm95 0v-2l1 2v1l-1-1zm449 1l1-1h1l-1 1h-1zm213-1l1-1 1 1-1 1-1-1zm-790 0l1-1h1l-1 1h-1zm-124-2c0-2 4-5 4-4 1 0 0 2-2 3-1 2-2 2-2 1zm53-1l1-1 1 1-1 1-1-1zm58 0l2-1 1 1-2 1-1-1zm225 0l1-1 1 1-1 1c-1 1-1 0-1-1zm-268-2c0-4 1-4 2-3v3c-2 3-3 3-2 0zm22-1l1-1 1 1-1 1-1-1zm282 0l2-2 1 2-1 1-2-1zm531 1v-3c1-1 1-1 1 1s0 3-1 2zm-874-2l1-1 1 1-1 1-1-1zm82 0l2-3v3c-2 2-2 2-2 0zm21 1l3-5 3-3-1 3c-1 3-5 7-5 5zm5-1v-1l1 1v1l-1-1zm35 1c0-2 2-4 3-3l-1 2-2 1zm159-1v-4c1-3 3-2 2 3 0 2-1 3-2 1zm189 0v-1l1 1c0 2-1 2-1 0zm-559 0c0-1 2-2 3-1l-1 1h-2zm206-3c2-2 3-2 3-1 0 3-1 4-4 4-2 0-2 0 1-3zm171 2l3-2c1 0 2 2 1 3h-1c1-2 0-2-2 0-2 1-2 1-1-1zm104 0l1-2 1 1-1 2-1-1zm137 0v-2l1 2v1l-1-1zm-537-2c-1-1 0-2 1-4l2-2-1 3c0 3-1 4-2 3zm19-1c1-2 3-2 3 0l-2 1-1-1zm204 0c0-1 2-2 3-1l-1 1h-2zm23-2l1-1v1c0 2-1 2-1 0zm151 0l2-1-2 2v-1zm301 0l1-2 1 2-1 1-1-1zm-735 0l1-1h1l-1 1h-1zm562 0c-1-1 0-4 1-4v4h-1zm-539-1l1-1h1l-1 1h-1zm132-1l1-1c1 1 1 1-1 2v-1zm23 0c0-2 2-2 2-1l-1 1h-1s-1 0 0 0zm101 0l1-2v2c-1 2-1 2-1 0zm-331-1l2-3c1-1 1-1 1 1l-1 2-1 1-1-1zm191 0l1-2c2-1 2-1 1 1 0 2-2 3-2 1zm210 0c0-2 1-3 2-2l-1 3-1-1zm227 0l2-2v2l-2 1v-1zm68 0l1-1 1 1-1 1-1-1zm-663-1l1-1 1 1-1 1-1-1zm266 0c2-2 4-2 4-1l-1 1h-2l-1 1v-1zm-253-1l1-1 2 1-1 1-2-1zm156-2l1-3 1 2v2l-1 1-1-2zm122 2c0-2 3-4 3-3 1 1 0 2-1 2l-2 1zm10-1v-1l1 1v1l-1-1zm148 1v-5c1-1 1-1 1 1l1 2c2 0 0 2-1 2h-1zm514-1v-2l1 2v1l-1-1zm-841-1l1-2v2l-1 1v-1zm34 0h3l-3 1c-2 0-2 0 0-1zm44 0c0-1 0-2 1-1v1h-1zm232 0l2-2 1 2-1 1-2-1zm160 0l1-1 1 1-1 1-1-1zm170 0v-1l1 1v1l-1-1zm35 0l1-1 1 1-1 1-1-1zm-427-2l-1-1-1-1h2c2 1 2 3 1 4l-1-2zm36 2l3-4v2c-1 2-3 3-3 2zm-200-4c-1-1-1-2 1-1l1 2c0 2-1 2-2-1zm66 1c0-1 0-2 1-1v1h-1zm164 0v-1l1 2-1-1zm74 1l1-1h1l-1 1h-1zm58 0l-1-2h1l1 2h-1zm-446-2l1-1 1 1-1 1-1-1zm263 1l1-1h1l-1 1h-1zm273-1l1-2 1 1-1 2-1-1zm-698 0l2-1h1l-1 1h-2zm99-1l-1-1h2l1 2-2-1zm8 1h2c1 0 1 0 0 0h-2zm112-1l1-1h1l-1 2-1-1zm262 1l2-1h1l-3 1zm74-2c2-2 3-3 3-1l-2 3c-2 0-2 0-1-2zm204 2l1-1h1l-1 1h-1zm-707-2l2-1 3-3h1l-5 5-1-1zm96 1c0-1 4-3 5-2l-3 2h-2zm922-1c-1-2 0-3 1-3v4l-1-1zm-894-1h3l-3 1v-1zm66-1l1-2c2 0 1 3-1 3v-1zm90 0h3l-1 1-2-1zm-125-1l1-1 1 1-1 1-1-1zm453-1c0-1 0-2 1-1v2c0 2-1 2-1-1zm7 2v-4 4zm210 0c-1-2-1-4 1-4l1 2c0 2-1 3-2 2zm163-1l1-1 1 1-1 1-1-1zm-935-2l-1-2c-2 1-3 0-1-3 1-3 6-4 6-1l-1 2-2 1 1 1c2 0 1 4-1 4s-2 0-1-2zm4 1l1-1 1 1-1 1-1-1zm85 0l1-1 1 1-1 1-1-1zm-118 0l2-3 1-1-1 3-1 1h-1zm179-1l1-1 1 1-1 1-1-1zm419 0l2-2 2 1-2 2-2-1zm-624-1l1-1 2 1-1 1-2-1zm169 0l1-1c2-1 3 0 2 1-1 2-3 2-3 0zm394 0l1-1h1l-1 2-1-1zm-226-1c0-1 0-2 1-1v1h-1zm243 0l1-2v2l-1 1v-1zm32 0h-1l-1-1c1-2 3-2 3 0l-1 2v-1zm-552-1l1-1 1 1-1 1-1-1zm180 0h2c2 1 1 1-1 1-1 0-2 0-1-1zm18 1l1-1h1l-1 1h-1zm-240-3c1-2 3-2 3-1l-2 2c-2 1-2 1-1-1zm338 1l3-1-2 2-1-1zm54 0l1-2v1 1l2-2c0-2 2-2 2-1 1 1 0 2-1 3-3 2-4 2-4 0zm-201 0h2c1 0 1 0 0 0h-2zm132-1l2-3h1c1 1-2 4-4 4l1-1zm100 0l-1-2 2 2c-1 2-1 2-1 0zm58 1c0-2 2-4 3-4l-2 4h-1zm147-1l-1-2c-2 0-1-3 1-4s4 1 2 3v3l-1 1-1-1zm-556-1c0-2 2-3 3-2l-1 2c-2 2-2 2-2 0zm8 0l1-1 1 1-1 1-1-1zm54-1c1-5 3-8 5-8 4 0 3 4-2 6l-2 3-1 1v-2zm5-5c0-1-1-2-2-1-1 2 0 3 2 3v-2zm189 6l1-1 1 1-1 1-1-1zm89 0l3-2v2c-1 2-3 2-3 0zm503 1v-2c2-1 3 0 1 1l-1 1zm93-1l1-1 1 1-1 1-1-1zm-987-1l-1-2 2 2c-1 2-1 2-1 0zm725 0l2-1 1 1-1 1-2-1zm61 0v-1l2 1-1 1-1-1zm-611-2c-1-2-1-3 1-1 2 1 3 3 1 3l-2-2zm161 1v-1l1 1v1l-1-1zm98 0l1-2 1-1 1-1c2 0 2 1 1 1v2l-1 1-2 1-1-1zm72 0h1l1-1 2-1v2c0 2-3 2-4 0zm-622-1h-2v-1h3c2 1 2 1 1 2l-2-1zm98 0l1-1c1 1 0 1-1 2v-1zm203 0c0-2 3-5 4-4l-2 3c-1 2-2 2-2 1zm42 0l-1-2 2 2c-1 2-1 2-1 0zm198 0c0-2 1-4 3-4s1 2 0 4h-3zm91-2c-1-3 0-4 1-4v3c0 5-1 5-1 1zm132 2l1-2 1-1h1c1 1-1 1-1 2-2 3-2 3-2 1zm91 1l1-1h1l-1 1h-1zm12-1l2-2c1-1 1-1 0 0l-1 2h-1zm-620-1l2-2v2l-2 1v-1zm124 0c-1-3 0-8 1-7 2 0 2 2 1 2-2 0-3 3-1 4l1 1h-2zm147 0l2-2-1 2c-2 2-2 2-1 0zm386 0l1-1 1 1-1 1-1-1zm-800 0h2c1 0 1 0 0 0h-2zm328-1l1-3c1-2 3 1 2 3 0 2-3 2-3 0zm15 0h3l-1 1-2-1zm139 0l1-2 1 1-1 2-1-1zm29 0c-1-1 0-2 1-2l1 2-1 1-1-1zm7 0h1l1-1-1-1 1-1 2 1c-1 1 0 1 1 1h1c0 2-5 2-6 1zm101 0c0-2 1-4 3-4v4c-2 2-3 2-3 0zm33 1v-3l2 2c1 1 1 2-2 1zm-631-3l1-2 1 2-1 2-1-2zm539 1l2-2h1l-1 2h-2zm154 0l-1-1 1 1c1 2 0 2 0 0zm217 0c-1-1 1-4 2-3s0 4-1 4l-1-1zm-564-1l2-2 1 1c-1 2-3 3-3 1zm-189 0l1-1h1l-1 1h-1zm82 0c1-2 2-3 2-1 1 0 1 0 0 0h-1l-1 1zm-363-1l2-1s1 0 0 0l-2 1zm187-1l4-4c1 1 0 2-2 3l-2 1zm251 0l1-1 1 1-1 1-1-1zm139 1l-1-3h1l1 2-1 1zm119-1l3-1c2 0 2 0 1 1-1 2-4 2-4 0zm321-1c0-2 2-4 4-4s1 4-1 5c-3 2-3 2-3-1zm-915 0c1-2 2-2 2-1l-2 2v-1zm257 0c0-1 0-2 1-1v1h-1zm99 0c-1 0-1-1 1-2 3-1 3-1 2 2h-3zm546 0c0-2 2-5 3-5v5-2l-1 1c-2 3-2 3-2 1zm117 0c1-3 3-3 3-1l-2 2-1-1zm-1118-1l1-1 2 1c1 1 0 1-1 1l-2-1zm120 1c0-2 1-5 2-4l1 2-1 1-1 1h-1zm4-1v-1l2 1-1 1-1-1zm35-1c0-4 2-6 2-3v2c2 1 0 3-2 3v-2zm23 2l-1-2h1l1 2h-1zm40-1v-1h2c0 2 0 2-2 1zm125 1l1-1h1l-1 1h-1zm132-2l1-3c1-1 1 0 1 1v2l1 1c-2 2-3 1-3-1zm30 1l1-1 1 1-2 1v-1zm-445 0l2-1s1 0 0 0l-2 1zm37-1l-1-2h1l1 1 1 1c0 2 0 2-2 0zm44-1c0-2 2-2 2 0l-1 2c-1 0-2 0-1-2zm51 1l1-1h1l-1 2-1-1zm52 0c-1 0-1-3 1-3 1 0 2 3 1 4l-2-1zm58 0v-2-1c2 0 2 2 0 3-1 2-1 2 0 0zm237 0c1-3 2-3 2-1l-1 2-1-1zm-458-1l1-1 1 1-1 1-1-1zm290 0h-1c-1 1-1-1-2-1 0-2 1-2 3 0l1 2-1-1zm3 0l2-3c2-2 2-2 3-1 1 2 1 4-1 4l-1 1c-2 1-3 0-3-1zm85 0l1-1 1 1-1 1-1-1zm4 0l1-1-1 2v-1zm112-1l1-2c2 0 2 2 0 3-1 1-1 1-1-1zm63 1v-2c1-1 4 1 4 2h-4zm488 0v-2l1 2v1l-1-1zm56 0l-2-3v-4c-1-2 0-4 2-3l1 3 1 3v5l-2-1zm-1198-1l1-1 1 1-1 1-1-1zm494 0l1-1 1 1-1 1-1-1zm43 0l2-1 1 1-1 1-2-1zm263 1c-1-1 3-6 4-5l1 2-5 3zm484-1l1-1 1 1-1 1-1-1zm-918-1l1-1 1 1-1 1-1-1zm88 0c0-2 3-2 3 0l-2 1c-1 0-2 0-1-1zm71-1c-1-2-1-3 1-6 2-4 3-3 3 2-2 6-3 7-4 4zm3 1l4-4v-3c1-1 1-1 2 1 2 2 2 3 0 4-2 2-6 4-6 2zm50 1l1-3 3-3 2-3v3c0 2-4 6-7 6h1zm314 0c-1-2-1-4 1-4v3l-1 1zm-738-2l1-1c1-1 1 0 1 1l-1 1-1-1zm224 0c-2-1-2-1 0-2h2l2 1h1c0 2-2 2-5 1zm94 1l1-1h1l-1 1h-1zm164-1h1v-1l1-3v5l-2-1zm77 0l-1-3v-2l1-4v-3l1 2c-1 2 2 3 2 1h2c1 1 0 1-1 1l-1 5c0 4-3 6-3 3zm-520-2c-1-2 1-5 4-5 2 0 1 2-1 5l-3 3v-3zm276 0c1-3 3-3 3-1s0 2-1 0c-1-1-1-1-1 1l-1 2v-2zm14 1c-1-1-1-2 1-5 2-5 4-5 4 0s0 5-2 4-2-1-1-3c2-1 1-1 0 0-2 2-2 2 0 3v2c-1 1-1 0-2-1zm5 1l1-1h1l-1 1h-1zm109 0l1-1h1l-1 1h-1zm27-1l1-1 1 1-1 1-1-1zm23 0v-1l1 1v1l-1-1zm-536 0l1-1h1l-1 1h-1zm23-1l1-1c1-1 1 0 1 1l-1 1-1-1zm44-2c1-4 2-6 2-2l-2 4v-2zm244 2v-1-2l1-1 1 2c0 4 0 4-2 2zm92 0v-1c2 0 2 1 1 2l-1-1zm395 0l1-2 1 2-1 1-1-1zm165 0c-2-3-1-4 0-2l2 2c0 2-2 1-2 0zm-974 0l1-3c2-2 4-1 2 1-1 2-3 3-3 2zm56 0c-2-1-1-2 0-2l2 1v1h-2zm5 0l2-3h1l-1 2-2 1zm9-1l-1-1h-1c1-2 1-2 3 0l1 2-2-1zm18 0c0-1 2-2 3 0 1 1 1 1-1 1l-2-1zm67 0c0-2 2-5 4-4 2 0 2 3-1 4h-3zm404 1c0-2 3-5 5-5s1 3-1 4c-2 2-4 2-4 1zm29-1c0-2 4-5 5-4l-1 1v3c-3 2-4 2-4 0zm278 0l1-2 1 2-1 1-1-1zm54 0v-3c1-2 2-3 5-3 2-1 3 0 2 1-1 4-6 7-7 5zm-651-1l1-2c2-1 2 0 1 2-2 2-2 2-2 0zm10 0l2-4c2 0 2 3 1 4h-3zm6 1c0-2 4-4 6-4l-3 2-2 2h-1zm41-1v-3 1l1 1v1c0 2-1 2-1 0zm204-1l1-1 1 2-1 1-1-2zm179 1l1-2 1 1-1 2-1-1zm-625-2l2-4c3-1 4 0 2 1l-2 3-2 3v-3zm53 1h-1l-1-1h2l1 2-1-1zm65 0c0-2 0-2-1-1-2 2-4 1-3-1 0-2 0-2-1-1l-1-1 2-1 1-1 3-1c2-1 2 0 2 3 0 4-2 7-2 4zm8 1c0-2 3-4 4-3v1c-2 0-2 1-3 2h-1zm104-1l1-3v4l-1-1zm192 0l1-2 1 1c0 3-1 3-2 1zm127-1l2-3c1-1 2 0 1 1l-2 3c-1 1-1 1-1-1zm300 1l2-2c1-1 1 0 1 1-1 2-3 3-3 1zm-923-1l1-1 1 1-1 1-1-1zm65 0l1-1v1c0 2-1 2-1 0zm278 0l2-2 1 2-1 1-2-1zm122 0l1-2c2 0 1 2 0 3-1 0-2 0-1-1zm48 0l-1-1 1 1c1 2 0 2 0 0zm24 0h1l1-1-1-1c-2 0 0-3 1-3 3 0 3 4 1 5-2 2-3 2-3 0zm3-3v1l1 1-1-2zm77 3l1-1c1 0 2 0 1 1 0 1-2 2-2 0zm168 1l2-1h1l-1 1h-2zm31-2l1-2 1 2-1 2-1-2zm-861 0l2-1 1 1-2 1-1-1zm11 0l1-1 1 1-1 1-1-1zm47 0c-1-2 0-3 1-3l1 2c0 3-1 3-2 1zm16 0c0-2 2-2 3 0l-1 1-2-1zm12-1c0-4 1-5 2-5 2 0 1 3-1 5l-2 2 1-2zm130 1c0-1 3-5 6-5 4-1 3 2-1 4-4 3-5 3-5 1zm81-1c-1-1-1-2 1-1v-1l2-3c1-1 2-2 1-3s0-1 1-1c0 2 3 1 3 0l2 6c0 3-3 4-5 2-1-2-2-2-2 0-1 3-3 4-3 1zm97 1l2-3 1 2-2 2-1-1zm166 0v-2h-1c-1 0-2 0-1-1s2 0 3 2c0 2 0 3-1 1zm58 0c1-2 3-2 3 0l-1 1-2-1zm96 1v-2l1-1h1c1 1 0 1-1 2l-1 1zm55-1v-6 1l1 1 2 2-1 1c-1 0-2 0-1 1v1l-1-1zm-558-1l1-2c1-1 1 0 1 1l-1 2-1-1zm59 0l1-1 1 1-1 1-1-1zm110 0l1-2 1 1-1 2-1-1zm118-1l1-1v2c0 2-1 2-1-1zm113 1h2l-1 1-1-1zm141 0l2-1v2l-2-1zm-662-1l2-2c1-1 2 0 1 2h-3zm26 0v-1l1 1v1l-1-1zm242 0c0-1 0-2 1-1v1h-1zm6 0l1-1 2 1h1c-1 2-5 1-4 0zm87 0l2-2c1 1 1 3-1 3l-1-1zm63 0h2l1 1h-1l-2-1zm7 0l1-1 1 1-1 1-1-1zm119 1l1-1h1l-1 1h-1zm21-1c-1-2 1-6 2-5 2 0 2 4 1 5-2 2-3 2-3 0zm-608-1v-3l-1-2h2l1 1h2l-1 1c-1-1-1-1-1 1l-1 3-1-1zm103 0v-1l1 1v1l-1-1zm102 0c0-1 4-2 5-1l-1 1h-1l-2 1c-1 0-2 0-1-1zm290 0l-1-2c-2 0-3-6-1-7 1-1 5 2 4 4l1-1c2-2 3-1 2 2s-5 7-5 4zm41 0l1-2c2-1 4 1 2 2 0 2-3 2-3 0zm-255-1l-1-3c0-2 3-3 4-1l2 3v1l-2 1-3-1zm399 0l1-1c1-1 1 0 1 1l-1 1-1-1zm402 0v-1l1 1v1l-1-1zm-931-1h2c1 1 1 0 1-1l2-1c1 1 0 2-1 2-2 2-5 2-4 0zm12 0l2-2 1 1-2 2-1-1zm35-1l3-2c2-1 2 0 2 2 0 1-1 2-3 2-3 0-3 0-2-2zm75 1l2-2h1l-1 2h-2zm35 1v-3l1 2c1 1 0 2-1 1zm10-1v-1h-2l-2 1c-1 0-1 0 0 0l4-3 6-1-1 3c-1 2-2 2-4 2s-2 0-1-1zm3-2c0-1 0-2-1-1v1c0 2 1 2 1 0zm26 2c0-2 2-2 2-1 1 1 0 1-1 2l-1-1zm194 0l2-2c2 1 1 3-1 3l-1-1zm44-1v-1l2 1h1c0 2-2 2-3 0zm68 1c-2-1 2-8 5-9 2-1 2-1 4 1s0 6-4 7l-4 2-1-1zm-583-2l-1-2-1-2 1-1 4-3 4-3 2-2v2c0 3 0 4 1 2h1l-3 3-4 3c-1 2-1 2 1 2v1c-2 3-3 3-3 1-1-2-1-2-1 0l-1 1v-2zm311 1l2-3 1 2-2 2-1-1zm58 0l1-2c1-1 2 2 1 3s-2 0-2-1zm25 0l-1-2-2-2c0-2 3-4 5-3h1c0-2-1-3-4-1l-2 1-1 1c-2 1-2 1-2-1v-2c1 1 1-1 2-2l3-2c2 0 2 0 1-2l1-2v-2h-5l-1-3-1-2c0-2 0-2 1-1l1-1c-1-3-5-3-6-1 0 2 0 2-1 1h-3c-1 1-3 0-4-1s-2-1 0 0v5l-2-2c-1-1-1-1-1 1v4l-1 1v1l-1-3-1-1c-1 1-3 0-4-1-2-3-5-3-5 0h-1l-2-1-3-1c-1-1-9-3-10-2v3l-1 2-1-3c0-2-1-2-2-1-2 2-1 4 0 5h3c1 0 2 1 1 2l2 1c2-1 3 1 1 2l-4 2c-1 2-2 2-2 1l-1-1-2-2-1-4c2 0 2-2 0-2-3-1-3-5-1-5l2-2c0-2 1-3 2-3 2 0 3-1 4-3 0-3 0-3-2-3l-5 3v1l-1-1-2-1-1-3c1-3 1-4-3-5l-5-1h-4c-2 0-2 1-2 2l1 3 2 1h4c2 2 2 2 1 4l-3 3-2 1c-1 1-3 2-4 1-3-1-3-3-1-3s2-2 0-2c-2-1-8 3-8 5h1c2 0 4 2 4 5s0 3-3 3l-4-1c-1-2-3-2-5 1l-2 2 1 1 1 5c-1 2-1 3-3 3s-3-1-2-2l-1-1c-1 1-2-1-1-3v-1c-1 0-2 1-2 3l-2 3v-2c0-2-1-4-3-2l-2 1c-1 0-1-1 1-4 2-1 2-2 1-2l-1-1 1-2 1-2c0-2-1-2-3 0s-2 2-4 0l-4-1-2-1-1-5c-2-4-2-5 0-5l-1-2-2-3c0-2-3-3-4-2-2 2-2 4 0 5v-1-1l1-1v-1l2 3v4 8l-4 1-5 4h2c2 0 2 2 0 4-2 3-6 3-5 0 1-2-1-4-3-2 0 1-3 0-3-2 1-3 0-4-1-4h-2l-1 2c0 2-1 3-2 3l-1 1v2c-2-2-1-5 1-5l1-1h-2l1-1c2-3 2-4-1-2h-4l-2-1c0 2-1 3-1 1h-3c-2 2-3 1-4 0-2-2-3-2-4 0 0 1-3 2-3 0h-2c-3 1-3-1-1-3v-2c-2-2-4 0-4 2v2l-1-1-2-1v2c0 1 0 2-2 2h-1v-3c-1-3-1-3-2-1-2 2-3 1-2-2l1-4c-1-1-4 3-4 4 1 0 1 1 0 0l-3 1c-5 2-5-3 0-7 2-1 3-2 4-1s2 1 4-1 2-3 0-3h-4c-1-1-2 0-2 1s-3 3-6 3l-2-1c0-2-2-1-2 1h1v1 5c1 3 1 3-1 6-3 3-4 3-4 1s-1-2-2 0l-3 3-1 2c1 2-1 4-3 4-1 0-2 0-1-1s0-1-1-1c-1-1 0-1 1-2 2-1 2-1 1-2-2 0-2-1-1-2v-1c-1 0-2 0-2-2l2-2 1-1c0-1-1-1-3 1h-1l-1-2v1l-1 2c-1 1-1-1-1-2-1-2-2-3-6-2-2 1-2 2-1 3v3c-2 4-2 4-3 2l-2-1c0 2-3 2-3 0l-1 1-1 3h-1l-6-5 2-1 3-1h-1l-1-3c0-2 0-4 1-3l2-1c1-1 0-4-3-4l-3 1v-1l2-2 1-1-3 1c-2 3-6 4-5 2 0-2 0-2-2-1l-4 2c-1 1-2-4-2-5l-1-1-2-1c0-1-1-2-2-1-2 0-3 0-3-2v-1l1-1-1-1-1-1-1-2h-2v5c-1 2-1 1-1-1-1-3-2-3-4-1-1 2-12 7-12 5-1-1-1 0-1 1 0 2-4 6-6 7l-3-1h-1v1 1l1 1c0 2-2 1-3-1v-4-5c0-2 0-2-1 0l-1 4h-2l-1-2c1-1 0-1-1-1-2 1-2 0-1-2s2-3 1-4-1 0-2 2l-2 2 1-1c1-1-2-1-4 1s-2 2-1 4l1 2c-2-1-2-1-1 1 0 2-1 2-3 0-1-1-1-1 0 0l-1 1-4 2c-2 2-4 0-3-4v-3l-1 3-2 1-3-2v1c1 1 1 1-1 2l-3 1 2 1c4-2 5-2 7 0l4 2c1-1 5 3 4 5v2c-2-1-4 3-3 4l-2-1h-3c-1 1-1 0-1-1l2-2 1-2h-2l-1-4h-2l1 1c2 0 1 4-2 6-2 2-3 2-3 1h-2c-3 1-4 2-3 4l1 2h1l-1 1-1 3c-1 2-1 2-2 1h-3l-1-2-1-4v-4c2-2 3 0 3 3v2c2-1 2-5 0-7-3-2-4-6-3-8 2-1 1-3-1-2-2 0-3-1-1-2v-1h-2c-2 1-2 0-2-2l-1-4c-1-2-1-2-1 0l-2 2h-1c2 1 3 6 1 8-1 1-1 1-1-1v-1l-1 1v2l2 2 1 3v4c1 0 2 0 2 2s-2 6-4 6l-1 1-1-1c0-2 0-2-1 0-1 1-1 0-1-3l1-5 1-2-1-2v-1-3l-2 3-2 2-1 3-1 3c-3 0-3 1-2 3s0 2-1 2c-2 0-2 0-2-3l2-2 1-2a216 216 0 0 0-2-8h1c0-2-3-2-4 0h-2l-1 1c0 3-2 3-3 1l-2-1-1-2 2-1v1c-1 1 1 1 3-1v-1c-2 1-2-2 0-4 1-2 2-1 2 1l-1 3 2-2 4-2 1-2-2-1-1-1-3-2-2-2-2-1-1 1 1 2c3-1 4 2 0 4l-2 3c1 1-1 1-3-1l-1-2-1-6h-1c1-3-1-3-2 0-2 3-1 8 0 7 1 0 2 0 2 2l-2 2-1-1c1-1-3-2-4-2l-1 2h1c3-2 3 1 1 5-2 3-3 4-1 4 1-1 4 0 3 2l1 1 1 2h2c3-2 3-2 4-1v3h-1v-2c-1 0-2 3 0 3v3c0 1 0 3 2 4l1 2h-2c-1 1-4 1-4-1l1-1v-1l-3-1-3 2c-1 0-2-2 0-2h1l1 1v-7l-2-2-1-1c-2 0-2-1 0-3h-6-2c-1 1-1-1-2-2v2c0 2-1 3-3 4-3 2-3 3-1 3h2l-2 1-1 1-2 1-1-3c0-3 1-4 5-5l2-4 1-3 2 2c0 2 2 2 5 0 2-4 2-5-1-4s-7 0-7-1c1-1 0-2-1-2-2 0-2 1-2 2 1 3-1 5-4 5-1 1-2 1-2 3s-1 4-3 5l-2 4-2 3-2 1v-2c-2-1-2-3 0-3h1l-1-1c-2 1-2-2 0-4 3-3 5-9 2-7h-3l-1 1v2l-1 1s0 3-2 3c-2 2-2 2-3 0l-3-4-1-1h-1c-1-2-3-2-3-1l-1 2-1-1c1-1 1-1 0 0l-3 1v-1h-1l-3 4-1 1v-1c0-2-2-1-3 1v-1l1-2c2 0 2 0 2-2l3-4c5-3 5-3 6 0v1l3-1 2-1 2-2 1-2c0-1 3-4 5-4v2c0 2 1 2 2 2h3c2-2 1-4-1-4l-2-2v-2l-3 2-3 2-2 2-1 1-2-1-2-1-1-2c-2 0-3 2-1 2 2 1-1 3-3 3s-4-4-2-4 2-3 0-4v-2l2-3c0-2 0-3-2-2l-2 4-1 4-1 5-1 4v-1l-1-2-1 2c0 2 0 2-2-1l-1-3 2-1c1-3 0-4-2-2s-8 3-9 1c-1-1-2-1-3 1 0 2 0 2 1 1h6c1-1 2-1 2 1l-2 2c-2 2-3 1-3 0l-1-2v1c0 1-1 3-4 4l-3 1c-2 2-4 1-4-1l-1-3c-1 0-2 0-1-2l-1-2v-4c0-2 0-3-1-2l-2-1c1-1 1-2-1-2l1-2c1-1 3-2 5-1 3 0 3 0 0-1l-1-1v-3l1-2c1-3-1-4-3-2v1c1-1 2 1 0 3l-1 3-2 2-1-1-1-1c-1 0-2 0-2-2s-1-2-3 0l-2 1h-5l-2-1v2l-1 2c-1 1-2-3 0-4l1-3c0-2 1-3 3-3l3-2 2-1c2 0 2 1 2 2-1 3 1 4 3 2l-1-3c-2-2-2-5 1-4 1 0 2 0 2-2l-1-2-2-1c-1-3-1-3 1-3l3-1c2-1 2-1 0-2-2-2-2-6 0-6l1-1c-2-2-2-7 0-7s2-3 0-3c-2-1 0-4 2-4 1 1 3 0 4-1s1-1-1-2l-2-2c-1-2-4-1-3 1l-1 1-1 3-3 3c-3 1-5 1-2-1l5-6-4-1c-3 0-4 1-4 2h-2v1c2 2 2 5 0 5l-3 2c-1 1-1 1 0 0 0-2-3-2-5 0h-2l1-2 3-1 2-1v-1c-2-4-2-4-4-2l-2 1 2-3 2-1 6-4h-4l-7 1c-6-1-6-1-7 2-1 4-3 4-7 3-3-1-3-1-1-3s2-2 0-4v-3l-1-2c-3-1-4-4-2-4l3-1 2 1 1 1 2 1h2l3-3 1-2h-4c-1 1-1 1-1-1v-2c-1-1-1-1 1-1s5-3 3-3h-4c-2 1-3 1-4-1l-3-1c-1 1-2 0-2-1l-2-2-2-2c-1-2-5-2-8 0s-4 2-5 0l-3-1h-2l-1-3-1-2c1-2 0-3-2-3h-4c-2 0-2 0 0-3s6-5 8-5l3 3c1 2 1 2-1 4-4 3-1 4 5 1 6-2 10-3 10-1h1l4 2 4 2c2 0 2 1 3 2h1c-1-3 2-3 5 1l3 2-1-2-1-1v-2c-1-2-1-2 1-3v-1l-3-2-2-2v1l-3 1-4 1c-3 3-9-5-6-9 1-1 1-1-1-3-2-1-2-1-1-3 2-1 7-1 9 1l2 1 2-1h1l1-1v2l-1 2c1 0 4-4 4-6s-1-2-3 0c-3 2-7 1-9-2l-3-2-17-5 2-1 5-2 4-2-3-2-4-3 5-1c4 0 4 0 2-2-3-2-3-3 1-3 2 0 2 1 2 2l1 2c2 1 3 0 3-1v-2c2 0 3 2 3 4 0 3 0 3-2 3-5 1-6 5-1 5 2 0 7 2 8 4l1 1 4 2c3 2 4 3 5 1 2-2 2-3-1-2-2 1-2 0-2-1l1-2-2-3-2-3c4-2 5-2 5-1h1l4-1c3 0 4-1 3-2h-5l-4-3-4-1c-2-2-2-4 1-4l3-2-1-1c-1 0-2 0-2-2 0-3 1-4 5-3 3 1 5 5 3 6-1 2 2 8 4 8v-3l-1-2-1-2s2 0 2 2l5 2h3l1 2c1 2 0 4-3 4-2 0-2 0-1 2l2 2-1 2h3c7-1 9-2 4-4l-3-1 2-2c2-2 3-2 3-1 1 2 4 3 5 2 1-2 1-6-1-7l-2-5c0-2-1-3-2-3l-2-2c-1-2 0-2 3-2s4 0 2-1l-1-2c0-2 2-1 3 0 0 1 0 1 0 0l2-1 2-1c0-2 4-2 6 0h2l-1-3c-2-1-2-3 1-3l2 1h6c2-1 3-2 1-4l2-1 3-1c0-2-1-3-2-2-1 0-1-1 2-3 1-2 2-2 3-1h1l1-2 1 2c0 2 4 6 5 6l-1-2c-1-1-2-2-2-5v-3h3c1-1 2-1 4 1l3 1 1 3c0 5 2 10 4 9l2 1 1 1 2 1 1 1 1-2h2c0-1 5 1 5 3l2 1 5 1c1 2 2 2 2 0l-2-1v-4c2-3 3-4 4-2 2 4 5 1 5-5v-4l4 1h6c3 0 3 0 1 2-1 1-1 1 1 1 1-1 2 0 3 1 1 2 5 2 5 0l1-1 1 2 1 1c2 0 2-1 2-2 1-3 2-4 4-3 2 3 3 2 1-1l-1-3-1-3-1-3c1 0 2-1 2-3 0-3 2-3 2 0l3 2 2 2c1 2 1 3-1 3l-1 3c0 2 0 3 1 2l2-1 1-4c1-4 1-5 3-4 1 0 2 1 1 2l1 1 2-2c1-2 1-2 1 0l1 3v4c-2 3-3 4-4 2 0-1 0-1 0 0 0 2 1 3 4 2l1 1 1 1c1-1 1 0 1 2s0 2 2 1c1-2 2-2 1-4s-1-2 2-2l4 2c1 3 5 3 6 1s2-2 5 0c2 2 2 3 0 5v2l1 3c0 2 0 2 6 2h6v-3l-1-8c-1 0-2-7 0-7 1 0 2 1 1 3l1-1c2-1 2-1 1 2l1 3c1 0 2-1 1-3l1-3 1-3c-1-3 2-4 3-3l2 5c0 3 0 4 2 5l1 7 1 6c1 0 2 1 2 4l1 3v-3c-1-2 0-2 2-2l3 1 2 4v3l2-2c3 0 4-4 3-6l-1-3c1-2 0-2-2 0-2 1-2 0-2-5l-1-9-1-2c3 1 4 0 4-2v-3c1-1 8 5 8 7l2 3 1 3v2h3c1 0 6 4 6 6s-3 2-7-1l-3-4v4c1 4 1 4-1 3-1-2-2-2-3 0l-1 4-1 3c-1 2 0 2 3 1l2-2-1-1c-2-2-1-4 2-3h8l6-3-1-1-1-1c0-2 0-1 3 0 2 2 2 3 2 5-1 3 2 7 4 5h1v-2c1-3 3-2 3 1 0 2 0 2 2 2l3-1v1l1 1 1 4 1 3 1-5c0-4 0-6 1-5v-1l-1-1-3 1c-2-1-2-1 0-4 1-2 3-2 4 0l1 1 2-1h1c-2-1-2-2 1-3l1-2c-1-1 1-1 3-1v-1c-1-1-2-2-3-1l-1-1c0-1 0-1 0 0l-1-2c0-2 1-2 6 3 2 1 3 2 2 3s-1 1 1 3l2 2v-2c-2-2-2-5 0-4l3-1v1l2 1 1 3 1 4c1 1 0 8-1 9l1 2c2 0 2 1 2 2 0 3 3 5 5 3 2-1 2-6 1-8v-2c1 0 2 0 3 2 2 3 3 3 4-1 1-3 2-3 3-2v-1-3c1-2 2-2 3 0h1l1-2c2-2 2-4 1-5l-1 1h-2c-1-1 1-2 3-2 1 1 2 0 1-1l1-4 2-2-2 1-4 1c-3-1-5 2-4 6 1 3 0 3-1 3v3c1 2 1 2-1 1-1-2-1-1-1 1v3h-2-3c-2-1-2-2-1-3 1-2 0-4-2-4l-1-1c0-1 0-2 1-1l3 1 2 1 1-2c0-1 0-2 1-1l1-1-1-2v-4c1-5 2-6 4-6 1 1 2 0 2-1 0-3 1-3 3 0l2 1h1c2 2 2 1 3-3 0-4 1-8 2-7l1-2-1-1-2 1c0-2 1-3 3-2l1 3 1 3 2-2c0-2 2-3 2-1l3 3c6 4 9 6 12 6s10 3 10 5h1l3 1 2 1 1 1 2 2v-4l3 1c2 1 2 3-1 5-2 3-2 3-1 6l2 2-1-2c0-4 2-4 3-1 0 2 0 2 1 0l2-1c3 0 3 4 1 5v2c2 2 6 1 7-2l2 1h3c1-2 2-1 2 1l1 1v2c0 2 2 1 6-2 3-3 5-3 6-1 1 1 2 0 2-1l2-2h2l3-5c2-3 3-3 4-3 0 1 1 1 3-1s4-4 3-2l2 1c2-1 2-1 0-2s-2-5 0-6 4 2 3 5v3c3 0 4 1 5 3l-1 3-1 2h1c2-1 7 4 7 6l1 1h2l-1 1c-2 0 2 4 5 5 2 0 3 0 4-3l2-6c0-3-1-4-3-4l-7 1c-5 1-7-1-5-6 1-3-1-7-3-6l-1-1 1-2v-1l-2 1c-1 3-2 1-1-2 2-5 3-8 2-9l-1-8c1-5 1-6 3-7 2 0 3-1 3-3s1-3 3-4l4 1h4l3 1h-1l-1 1 2 2 4 2c2 3 9 6 7 4-1-2 1-5 3-5s3 3 1 5c-1 2-1 2 1 5l3 1 1 1 1 2c-1 1-1 2 1 4l3 5v1h3l3-1c0-2 2-2 3-1 1 2 0 4-3 4l-1 4c1 3 0 3-1 3l-1-2v-3c-2 0-2 2-1 3 2 0-2 4-5 3l-3 1c0 3 0 6 2 6 1 0 2-3 1-4l1 1 2 1 4 1c2 2 6 3 7 2v-3c-1-2-1-4 1-2l5 2c5 0 5 0 6 3l1 4v-2c0-2 0-2 2-3 4 0 5 1 6 4 0 4-3 6-5 4-3-2-4-2-2 1 1 2 1 2 5 1l4-3c0-2 0-2 1 0h8c7-1 8-3 3-7l-1-3 4 1c2 2 2 2 3 0l2-1 3 1c2 0 2 0 3-3 0-2 0-3 3-3 2 0 3 0 3 2s0 2 1 0c2-5 5-4 5 2l1 4-1 4c-1 2-2 3-4 2-1 0-2 0-3 2l-1 4c0 2 0 4-2 3v1c1 2 4 2 6-1 1-2 4-1 4 1l4 1c3 0 4 0 4-2l-1-2-2-1-3-1 1-1c1-3 2-4 5-3 1 0 2 1 1 3l1 1h1l1 2c1 1 0 5-1 4l-2 2c-2 3-2 3 0 3s5-5 5-9c0-2 0-4 1-3v-4-5l2-1 3-4c3-2 3-2 2-7l1-6 4 2 4 1h1l2 4c3 3 8 5 10 3 2-1 4 4 4 10l1 4 4 1h3v-1l-2-2v-1h1l1 2h5l5 1c1 0 2-1 1-2l-1-1 2 1h2l-3 2-2 3c0 3-1 3-2 4-2 1 3 2 6 1l5-1c1 1 2 0 3-1v-3l1-2h2c2 1 6-3 6-5-1-3 0-6 1-5l2-1c1-1 4 1 4 4l-2 2c-2 2-1 3 2 3l4 1c1 1 2 0 2-1l-2-3-1-3-1-2c-2 0-2-1-2-2l1-3h1v1c0 2 0 2 1 0l4-2 3 4 1 4-2 1c-1 2 3 2 5-1 2-2 2-3 4-1l2 3c0 1 0 2 2 2 1 1 2 1 2-1 0-3 0-3 2-3 2 1 3 0 4-1v-3c0-1 0 0 0 0 0 1-1 2-3 2l-1-2c0-1 0-2-1 0-2 1-2 1-1-1s2-2 4-2c3 0 3 0 3-4l1-4 4-3 4-2 1-1-1-1-1-1 2-1 2-4h1l1 2c0 2 1 3 4 3l4-1h-1c-1 0-1-2 1-4 1-1 1-1 2 2l-1 4c-1 1-1 2 1 2h1l-2 2v3l-1 3 1-1h1c2 1 2 3 0 4l-1 2c2 1 7-4 7-7l-1-2h-1v1l1 2c-3 0-3-3-1-5s2-2 3 0l1 4c-1 1 0 2 1 2l3-1 2 1 4 2v1l-1 1c0 1 0 2 1 1s1 0 1 1h-2c-2 0-3 1-1 3v1c-2-1-2 1 0 2 1 2-2 5-4 4-3 0-3-2-1-4l2-4c0-2 0-1-2 1-1 1-2 2-5 1-2 0-3 0-3 2l2 2c2 0 6 4 6 6s1 2 4 2l2 2c2 3 2 3 3 1l1-4h1c1 2 3 1 3-1l2-1h1l1-1-1-1v-1l2 1c1 2 4 1 4-1 0-3 5 3 5 6 0 2 2 2 4 0 1-1 2 0 4 1 3 3 4 3 2 0l-1-4c1-1 1-1 1 1 1 2 1 2 1 0l8-8c1-2 2-1 2 1-1 2-1 2 1 1l1-6c0-4 2-5 5-3 3 3 8 2 10-1s5-2 7 2c2 6 5 7 9 6 4 0 6-2 3-2-2 0-2-3 0-4 2-3 5-2 4 2 0 1 1 1 2-1 2-2 3-3 5-2 3 1 5 0 5-3-1-1-1-2 1-1l2 2 3 1c2-1 2-1 1-2-3-2-2-4 2-4l4-1h11l5-1 3-2c3 0 4 3 2 5-2 3-2 5 1 6h5l5-7c-2-1 2-3 4-2 4 1 6 2 4 4l2 2 2 4c0 3 4 4 6 2l2-2 3-1c0-2 3-2 4 0 0 2-5 7-7 7s-3 1-3 2l-2 2-1 1c1 2-1 1-3 0l-3-1v2c1 0 0 4-2 6h1l4-2c1-1 2-2 3-1l2-1h2l4-3c2-2 2-2 2 0s5 2 5 0h2c1 1 1 0 1-4s0-5-2-5l-1-2v-1c1 2 2 1 3-2 2-4 6-4 8 0l1 2h1l2-1c0-2 3 2 3 4l1 2 3 2 1 1v-3c-2-2-1-3 2-3s4-1 5-3c1-3 6-3 10 0s4 4 3 6c-1 3-1 3 1 3l2-1c1-2 5-2 6 0l-1 4c-1 4 0 5 2 3 1-1 2-2 3-1l3-1 3-1c2 0 3-1 3-3l-1-3-2 4-1 1c-1 0-2-5-1-6 2-2 1-2-1 0l-2 3 1 3c-1 2-1 2-2 1l-3-3s0-3-3-5c-2-3-2-4 2-6h12l3-1 1 1 1-2 1-4 3-5c-1-1-1 0-2 1h-5c-4-3-6-6-4-7h2l3 1c2 0 2 0 2-2-1-2 0-3 1-4 2-2 2-2 4 0l5 7v3l-2 2 7 1c7 0 7 0 7-3-1-2 0-3 2-4s3-2 4-1v-3c0-3 3-5 4-3l3 1c1-1 1 0 1 3l1 4 5-2 6-3 3-1 3-1c0-2 5-2 6-1l6 2c5 0 5 0 5-3 0-2 1-3 2-3 2 0 3-1 2-2s1-1 1-1c2 0 3 0 3-2l1-2c1-1 3 0 3 2l3 4 2 3-2 2-2 5c0 2 0 2-1 1l-4-1c-2-1-3-1-2 1l1 8c1 7 2 8 3 6 2-2 4-1 4 0l2 2 1-2 2-1 2 1c-1 1 0 1 0 0 2-2 4-3 3-1l1 2 1 4c0 3 0 3 1 1l1-4c-1-1 0-2 1-2h3l2 2 1 1 2 1h2l1-1c3 0 4 0 4-2v-2l1 3c0 3 1 3 3 3l2 2 2 1c1-1-2-5-3-5l-3-3-1-3 1-3v-3l-1 3c-2 4-3 5-4 3h-2v3c1 1 1 2-1 2l-1-1c0-2-2-5-4-5s-3-1-3-3l-1-4c-1-1 4-4 7-4l1-2c0-2 4-5 7-4 2 0 3 5 1 5l3 2 3 3c0 4 0 6 1 5l1 1 2 1 1 1-1 2-2 2 2 2c3 0 3 2 0 4-2 1 3 1 7-1l4-1 3-3c1-4 4-6 6-6l2 1c2 2 2 2 1 0s1-4 3-4c3 0 7-3 7-4 0-2 4-2 5-1 1 3 0 5-3 5l-2 1c0 1 5 4 6 3l4 1c2 1 2 1 1 3-2 3-3 10-1 10l1 2 1 3 2-2 1-2h-1l-1-3v-1l2 1c0 3 1 2 2-1l3-4 4-4c0-2 0-2-1-1s-3 0-2-2c1-1 6 0 7 1l2 2c4 0 4 11 1 16-3 3-3 3-1 5l2 5c0 3 3 8 4 9 1 0 1-2-1-4-2-4-1-6 1-6l2-1c2-1 0-6-3-6-2-1-2-1 0-4 0-2 2-4 3-5l3-3 2-4 2-2 2-1 2-2c1-2 4-4 5-2l1 4 1 2-2 2c-2 1-4 3-3 4 0 2-3 4-6 4-1 0-2 0-1 1l-1 2v4c1 3 1 5-1 6-2 2-1 5 1 5l1 2 1 1 4-2 3-2h-3c-3 0-4-1-3-2 0-2 1-3 2-3l3-2 2-3 2-2 2-2 3-1c3 1 5 3 2 3l-2 1c0 1-1 2-2 1v6l-2 1c-3 0-3 0-3 5 1 1 0 2-1 3l-1 1v2c0 2-1 2-2 2l-1 1h-2l1 2 2 4 2 2h5l5 1 2 1 3 1c2 1 2 1 2 3 0 1 0 2 2 3h3l1 1c0 1 5 1 6-1 2-2 4-1 5 1 0 2 0 2 2 1 1-2 1-2-1-3-3-1-5-3-5-6v-3c-2 0-1-4 0-5s2-2 3-1c2 2 2 4 1 6-2 1-1 2 2 2l1 1 1 2v1l3 1v2l2 1c3 1 3 0 1-2s-2-2-1-3c1-2 2-2 5 0 2 1 3 2 2 3v2l2-2 1-1v2l2 3h3l-2-1c-2-1-1-4 1-4l3-1h3c5 0 5 0 1 3l-2 3c1 1 0 1-1 1-2 0-4 2-2 2l5 2-1 2c-3 3-9 6-9 3l-2-1-1 1c0 2-4 2-5 1h-1l-2 1-2-1c0-2-1-2-8-2l-6-1-2-1-1 1 1 1v1c-1 2 2 4 4 3h3l-1 1c-1-1-3 1-2 2l-1 2v3l-2 1-2 1h-2l-1 1h-3v4l1 1 1-1 1-1 2-1 2-2c3 0 3 1 3 4l-1 3c-2 0-1 2 1 4 3 3 4 5 2 4h-1c0 2-5 2-7 1-1-2-1-4 2-4l-1-1c-2 0-3-2-3-3l-2-1c-2 0-2 4 0 5 2 2 2 2-2 3-3 1-6 0-6-2l-4-2c-3-1-3-1-3-3l1-3 1-2-1-1-1 2-1 1-3 1c-1 2-2 2-2 0 0-1 0-2 1-1l1-1-1-1c-2-1-1-3 0-2l2-3c0-3-3-4-5-2-3 2-6 2-5-1 0-2-2-3-4-2l1 2 1 1-2-1h-4l1-1v-1c-1-1-3 0-2 2 1 3 3 5 5 5s2 0 3 6c0 6-1 6-4 4l-2 1-1 2v3l-3 2c-2 3-6 2-7-2-1-2-1-2-1 1s-3 5-5 3-2-6 0-6v-1c-1-1-1-2 1-2h4c1 1 2 1 1-1 0-1-1-2-3-2l-3-1c0-2 0-2-2-1-2 0-2 1-1 3 2 4-2 8-8 8l-2 2 3 1c4 0 5 2 2 3-2 0-2 1-1 2s1 1-1 1h-1l1 3-1 1-1 2c-1 2-2 2-4 1l-3-2v-2l-1 3-4 2-3-1h-4v4c1 4 1 5-2 3h-1c0 2-2 2-5-1l-2-2-1 2c0 1-2 3-5 4-4 3-4 3-6 1-1-1-2-2-3-1l2 2 1 3 1 1c1 0 1 4-1 5l-6-2c-4-2-5-2-6-1-2 1-2 1-1 2l1 2-8 4-2 1c-1 2 1 4 3 4s3 2 2 4c0 3-4 4-5 2l-1 1-3 2c-1 0-6-6-6-8l-1-2-1-2c1-1 0-2-1-2-3 0-3-1-4-6l-1-4-2 2-1 1-1 4v3l2 2c0 2 0 3-2 5-3 3-3 3-6 1s-3-3-1-6l1-4c0-2 0-2-4 0-5 2-9-1-9-7 0-3 0-4 3-5l3-1c1 1 1 0 1-1-1-2-5-2-6 0h-3c-1-2-2 1 0 3v6l-4 2h-2c0 2-5 1-7-1h-2c1 1-5 8-6 8-1-1-2 0-1 1l1 5c1 4 1 4-1 5l-2 4c0 4 0 5-2 5l-1-4-1-5c-2-2-2-2-2 0l-2 3-1 2-1 3c-2 1-2 1-3-2v-3l2-3 1-3 1-1c-1-1-8 0-11 3-2 3-5 2-5-1-1-1 0-3 2-5 7-5 12-6 13-3 0 2 1 2 1 1v-4c-2-3-2-3-5-1l-5 1c-2-1-3 0-3 1 0 3-5 5-7 3l-1-3-3 2-3 2c-2 0-4 0-4 2s3 3 5 1l3-1c3 1 2 4 0 6-2 1-2 1-1 2 4 3 0 8-6 8-3 0-3 0-3-4s0-4-2-4c-3 0-3 0-3-3l-1-3c-2 0-3-1-3-4 1-2 0-3-2-3l-1-3c0-2 0-3 2-3l2-4c0-2-1-2-4-2l-7 1 1 1c-1 2-6 1-7-1l1-2v-2c0-1 1-1 3 1 1 1 1 1 2-1 2-2 1-5 0-5l-1 2c-1 2-1 2-4 1-2-1-3 0-2 2l-4 2c-2 0-2 0-2-2 0-5-8-6-9-2-1 3 0 5 2 4h1l-2 2c-2 1-3 1-2-1 0-1 0-2-1-1l-2 2c0 3 0 3-4 2-2 0-3-1-3-2 0-2-1-2-4-2-3 1-3 1-3-3s-1-4-2 0c0 3-1 3-5 2-3 0-3-1-3-3l-1-3-1 2h-3l-5-1c-3 0-3 0-3-2s-1-3-3-3l-3 2-2 4v3c2 2 2 2 5 1 3-2 3-2 3 1l-2 4h-3c0-2-2-3-2-1l-2 1v-1c1-1 0-1-1-2-2 0-3-3-1-4h-1l-2-4-1-3-2 2-4 5-1 3 2-2 3-3 1-1c1 0 1 1-2 4-2 4-3 7-1 5h3c2 1 2 5 1 5v1c2 1 1 4-2 6h-4 1v-2l1-2c2 0 0-3-2-3s-2-1-2-3 0-2-1 1v3l1 4-1 2-2 2c-2 0-2-6-1-8s-1-2-3 0c-1 1-2 0-3-2l-3-3v-1-1c-2 0-1-2 2-4 4-2 4-2 2-3s-5 1-6 4c0 2-1 2-3 1l-3-3-2-6c-3-2-3-2-5-1l-1 3c1 3 0 6-3 7l-4 1c-1 0-4 3-4 6v2c1-1 4 2 3 3l1 1c2 0 4 3 4 6-1 2-2 3-5 4l-6 3c-4 3-9 1-12-5l-1-4-2 5c-1 3-2 4-1 5l1 2c-1 0-1 1 0 0 1 0 4 1 3 2s-5 0-5-3l-3-3c-3-2-2-5 1-6l3-2c1 1 1 0 1-1h1l2-1h2l5-1c4-1 5-3 3-5l-1-2c0-2-1-2-3-2l-4-1h-3c-2 1-2 2-2 3v5c0 2 0 2-1 1-1-2-1-2-1 0h-3c-2-1-2 0-2 1-1 3-4 3-4 1-1-2-4-2-4 0l-2 3h-3c0-2-1-2-1 0l-1 4-2 2v-5l-2 2-3 3h-3c-2 1-2 3 2 7 3 3 3 7-1 9-2 1-2 1 0 1l2 1 2 1c0 3-2 6-4 5h-2c-1 2-3 1-3-1l-1-2-2-2 1-1h2c2-2 2-2 0-6-2-2-2-3-1-4l1-1-2-1-1-2v2l-1 1c-1 0-2 0-1-1 0-2-1-2-2-1l-2 1-1 2 1 2c2 0 2 4 1 6h-2l-1 1c0 2-1 2-2 2h-2l-2 1-4 3-1 2 4 8c0 2 1 2 2 2 0-1 1-1 0 0h-4-3c-2 0-3 1-3 2 0 3-4 7-5 5h-2l-2-2c-1-2 1-5 3-4v-3c-1-3-1-3-2-1-1 4-6 2-5-2l-1-3c-3 0-6 3-6 4l-1 4-2 3 3-1 4 1 1 1h1c0 2-2 3-3 1-2-2-2-2-2 1 0 2 0 3-2 3s-4-3-3-5v-3l1-1 1-1-6-1c-4 1-5 0-6-1-1-2-2-2-4 1l-2 2-2-1c-3 0-2-5 1-10l4-4v-1l-3 1c-1 1-1 1-2-1l-2-2-1-2c0-2-1-4-3-4-1 0-1 3 1 5 3 2 3 3 0 7l-2 3-1-2-1-1-2 2v-1c1-1 0-1-3-1-3 1-4 1-5-2 0-2-3-4-4-3l-1 5c0 5-1 6-4 5-2 0-3-1-3-3 0-1 0-2-1 0s-1 2 1 3l2 3c0 3-4 2-9-3-3-4-4-4-7-4l-2 2-2 1-2-1c0-2-3-1-4 0l-1-5h-2l-3 9v1l2 2c2 0 3 1 3 3l-2 4-1 2-8-1v-2-4c-1-1-1 0-2 1v3c1 0 1 2-1 2-1 1-2 0-3-1s-1-1-1 1l-3 3-3 3v2l-2 2-1 1-1-1c-2-1-2-2-1-3h2c1 1 1 1 1-2 1-5-2-13-4-13l-1 1-2 1-1-1c2-1 2-3 1-3l-2 1-2 2-1 1-2 1-1-2v-1l-1-4-1-4c-2 0-3 2-3 5 0 2-1 3-2 3l-2 2c-1 2-1 2-4 0l-2-4c0-2-2-3-3-1-1 1-4 0-4-2 0-3-2 0-3 4-1 3 0 4 1 4l3 2c1 2 0 7-1 6l-1 1c1 1 0 2-1 2l-4 2-3 2-2 1h-2l-1-3 1-1c1 1 2 0 2-2l-1-3v-2-2l-3 2-1 1c-2 0-2 1-2 2v3 1c2-1 2 1 0 5-1 1-2 3-4 3h-2c1-1 0-1-1-1l-3-2c-2-1-2-2 0-2l2-4 3-5c2-1 2-2 1-3 0-2-1-2-2-1l-3 1c-2 0-2 2 0 3 1 2 0 4-2 5-2 0-2 0-1-3 0-3 0-3-1-2h-2c-1-2-1-1-2 0l-4 2c-3 0-5-2-2-3h-1c-2 0-2 0 1-3 2-1 2-1 0-1v-2c2-2 2-2 0-3-3 0-4 0-4 2h1c2-1 2 1 0 3-2 1-2 3-2 3l-1 2-1 1h2c2 0 3 0 3 2 1 1 1 2 2 1 2-2 5-1 5 1 0 1 0 2 2 2s2 3-1 6l-1 3c2 0 2 4 0 4l-1 1-3 1c-3-1-3 0-3 2 1 2-1 3-1 0zm-98-20h-2c-1 1-1 1 1 1l1-1zm-38-4l2-2 1-1c0-2-3 0-4 3v2l1-2zm110-6v-2c-1 0-3 2-3 4-1 2-1 2 1 1l2-3zm6 3l-1-1-1 1 2 1v-1zm-108-2h1c1-1 0-2-1-3h-1v2l-1 2 1-1h1zm-3-1l2-3c2-2 2-3 1-4s-1-1 1-1 2 0 0-1c-2-2-2-2-1-3v-2l-2 2-1 2v4c-2 0-2 7-1 7l1-1zm19 0c1-1 0-1-1-1l-2 1c1 2 3 2 3 0zm123 0c1-1 0-2-1-2l-2-1v4l3-1zm-346-2c1-2-1-4-3-3v3c2 1 2 1 1 2-1 0-1 0 0 0l2-2zm420 0c0-2 0-2-1-1v3c0 1 1 1 1-2zm-52-2l-2-2v2l1 1v2h1v-3zm-458 0l-2-1v2c1 2 3 1 2-1zm197 0c0-2-1-2-2-1s1 3 3 3l-1-2zm105-1c0-2-1-1-2 1l1 2 1-3zm-110-1c0-2-1-1-2 1l1 2 1-3zm98-2l-1-3-1-1-2-2c-2 0-2 1-1 9l3 1 2-4zm38 3l-1-1v1c1 2 2 2 1 0zm60-3c0-2 0-2-1-1l-2 4h2l1-3zm32 3c0-1 0-2-1-1l1-5c3-4 2-4-1-5l-2 1 1 1v2c-2 2-2 4-1 7 0 2 3 2 3 0zm-154-1l1-2v-1c-1-1-6-1-5 1l-1 1c-2 0-2-1-1-2l1-2v-2c1-1 1-2-1-2h-1l-1 1c-1 0-1 4 1 8 0 2 7 1 7 0zm73 0l1-2-1-1-2 2 1 2 1-1zm123 0v-3c-2 0-3 4-2 4l2-1zm140-2l3 2v-1c0-3-2-6-2-4l-1-1c-2-1-2 0-3 2-2 3-1 7 0 4l3-2zm-585 1c1-2 0-2-2-2l-2 1h-3c0 3 5 3 7 1zm503 0l2-2c0-2-1-2-4 1-3 2-3 2-1 2l3-1zm92-3c0-3 2-5 5-4 1 0 2-1 2-5l-1-5-1-1h1l1-1-1-1-2 2-2 6c-1 2-2 4-1 5s-1 0-3 0-2 1-2 3v4h2l2-3zm-179 0c2-1 3-3 2-3l-3 2-3 1-1 2c0 2 0 2 5-2zm-53 1v-2l-1-1c1-2-1-4-3-3l-2 1h-2c-1 1 2 4 4 4l1 1c0 2 2 2 3 0zm-314-1c-1-1 0-2 1-3l2-3-2 1-2 2v3c0 2 1 1 1 0zm26-1l-1-3c-1 0-2 3-1 4 1 2 2 1 2-1zm304 0l-3-1 2 2 2 1-1-2zm6 1c0-2-2-2-3 0l1 1 2-1zm-119-1l-2-1h-2c-1 1 0 2 2 2l2-1zm235 0l-2-2 1 2 1 1v-1zm-297-2c-1-1-1-1-3 1-1 1-1 1 2 1 1-1 2-1 1-2zm247 1l-1-1-1 1c0 1 2 2 2 0zm127-1h-1c-2 1-3 1-1 1l2-1zm-329-1l-1-1v1c1 2 2 2 1 0zm81 0v-1l-1 1c0 2 1 2 1 0zm169-1h1l-4-2c-2 0-3-1-3-2 0-2 0-2-1-1v4h1c1-1 3 2 2 3l2-1 2-1zm-555-5c-1-2 0-2 2 0h1l1-2-4-2c-1 0-3 2-2 5 0 5 0 6 1 3l1-4zm290 5l1-3 1-2c2-1 6 0 6 2l2-1 3-2h-1c-4 0-6 0-5-2 0-2 0-2-2-1l-2-1-2-2v1l-3 7-1 5 3-1zm288-1l-1-2-1-1-2-2-2 2h1l2 2c2 1 2 2 1 3s-1 1 0 0l2-2zm5-2c0-1-2-1-2 1-1 3-1 3 1 2l1-3zm-529 2l-1-1-1 1 1 1 1-1zm16-2c-1-1-1 0-1 1l1 1v-2zm431 2c2-1 2-1 0-2s-3 0-3 2 1 2 3 0zm136 0l-1-1-1 1c-1 1 1 2 2 0zm-124-1h4c1-1 1-2-1-2h-3l-2-1-1-1-1-2v4c1 3 2 4 4 2zm-392-4c-1-1-4 0-4 1l1 1 3 1c0 2 0 2 1 0l-1-3zm9 2h1l2-1c1-1 1-2-1-2v-2h-1v2c1 1 1 1-1 2l-2 1c1 1 0 1-1 1h-1l2 1c2 0 2-1 2-2zm396 0h-2l-1 1c2 2 2 2 3-1zm-349-2l3-3c2 0 2 0 0-1-3 0-5 2-5 4l-1 3c-1 0-1 0 0 0l3-3zm101 2l-1-1-1 1 1 1 1-1zm389-4c2 0 2 0 1-2s-1-2 1-3l3-1 1-2v-2l-1-1-3-1c-2 0-4 0-6 2-4 1-4 1-4 8v7l4-3c2-2 3-3 4-2zm10 3c-1-1-3-1-2 1l1 1 1-2zm-642-1l3-1 2-2-10-1v1c2 0 3 3 2 5l1-1 2-1zm252 1h-1l-2 1h2l1-1zm-122-2c3 0 3-1 2-3-2-2-3-2-3 0l-1 2-1 3h1l2-2zm-58 0c0-1 0-2-1-1v1c0 2 1 2 1 0zm448-1h-1c0 1 1 3 2 2l-1-2zm-341-1v-1h-2v2c0 2 2 2 2-1zm402 0l-1-1c-1 1 0 3 1 3v-2zm-620-1v1l1 1-1-2zm14-2l-1 1c-2 2-2 4 0 2l1-3zm598 3l-1-1-1 1 2 1v-1zm-516-2c0-2-1-3-2-3v1l1 3c0 2 1 1 1-1zm32-2v-2l-1 1-1 1c-2-2-5 1-4 3h3l3-3zm476 2c-1-1-1 0-1 1l1 1v-2zm-578 0c0-1-2-2-3-1l1 2 2-1zm163-3c1-1 0-1-1-1l-1 3c0 2 2 1 2-2zm-21 0l-1 1v1l1-2zm45 0c-1-1-2 0-1 1l1 1v-2zm385 0c1-2 0-3-1-2v3l1-1zm-381-2h-2v1h1l1 1v-2zm-215 1h-2 2zm222-2l1-2c2 0-1-2-3-2l-1 3c0 4 2 4 3 1zm-100 0l-1-2v2l2 1-1-1zm-122-1h-2v1l2-1zm150 0l-2-1v1c2 2 2 2 2 0zm29-3l-2-1v1l1 1 1-1zm-174-3c0-1 0-2 2-2l1-1c-1-1-5 0-6 1l3 4v-2zm5 1l1-2-2 2v1l1-1zm-22-3c0-1 0-2-1-1v1c0 2 1 2 1 0zm933-2h-2 2c1 0 1 0 0 0zm-923-4c-1-1-3 0-2 1h1l1-1zm2-2c1-1 0-1-1-1h-1l1 1h1zm1007-2c1-2 0-3-1-2v3l1-1zm-110-1l-1-1-2 1 1 1 2-1zm15-1l3-1c3 2 5 2 5 0 0-1-5-3-8-3-2 1-2 0-2-1l3-1c2 1 2 0 2-2s-1-3-3-3-2 0-1 2c0 1 0 2-2 2-2 1-3-2-1-3 1-1 1-1-2-1l-4 2h-2l-1-3-1-3v1l-1 1c-1 0-2-1 0-3 2-4 0-5-9-3-4 1-5-1-2-3l2-4-1 1c-2 2-5 1-4-2 0-2-2-4-3-2l-2 1s-2 1-2 3l-3 2v1l-2 3-1 3c1 2 1 2 2 1 1-2 4-2 4 0l2-1 2-1h8c2-1 4 0 5 1 2 3 3 7 1 7l-2 1 2 1 2 2c2 3 3 3 6 1l3-2c2 0 6 6 5 7l1 1 1-2zm-30-19l-1-1c-2 1-2-1 0-3 1-1 2 0 2 3l-1 1zm-887 19l-2-1v1l1 1 1-1zm944-4l1-2c1-3 1-3-2-2l-4 1 1 4c1 4 1 4 3 2l1-3zm-938 1l3-2 3-1 3-2 2-1h-3c-3 2-5 0-2-1l2-4v-3l-2 2-4 2c-1-1-1 0-1 1l-3 4c-1 2-2 3-1 4l1 3c0 2 1 1 2-2zm-1-1c-1-1 0-2 1-2v-2l1-1 1 2c0 2-3 4-3 3zm944 2l-1-1-1 1 1 1 1-1zm-931-3c-1-1-3 0-2 2h1l1-2zm982 2c0-3-2-3-3-1s-1 2 1 2l2-1zm-63-2c1-1 1-2-1-1h-2l1 2 2-1zm71 0l-1-2c-2-1-3 1-1 3 1 1 2 0 2-1zm-22-2l2-4 1-2h-6c-2-1-2-1 0 5 0 4 2 4 3 1zm-986-4c0-7-1-7-1 0l1 5v-5zm951 4h-1l-1 1h1l1-1zm-154-1c1-1 0-4-3-4l-1-1c-1-1-1 0-1 1l2 1v2c0 3 1 3 3 1zm203-3l5-3h4l5 1h4l-3-1-9-5c-1-1-3-2-4-1l-2-1c0-2-2-3-3-2v1c2 0 3 3 2 4 0 2-3 1-3 0l-1-2-1 3-2 4c-2 1-2 1 0 1l3 2 1 1 4-2zm-996-1l-1-1-1 1c0 2 1 2 2 0zm20-1c-1-1-2-1-1-2 0-1 0-2-1-1h-1l1 3c0 2 1 2 2 1v-1zm938-2c0-2 1-5 4-7l1-2s-2 0-3 2l-3 2c-1 0-4 3-4 5l5 2v-2zm-951-3c0-1 0-2-1-1s-2-1-3-2c-2-1-2-1-1 1v3h2l3-1zm1039-4l1-4c1-2-1-4-3-4s-3 1-3 4l1 3 2 2c0 3 2 2 2-1zm-132-2h-3v1l1 2c0 2 0 1 1 0l1-3zm-918-14l-1 1v2l1-3zm1073 0l-1-2-1 2v1l2-1zm-1096-9l-1-1-1 1 1 1 1-1zm3-2l-2-1v1l1 1 1-1zm1153-1l-1-2v2l1 1v-1zm-1160-1l-1-1h-2l2 1h1zm1158-2c-1-1-1 0-1 1l1 1v-2zm-1173-5v-1c-1 0-2 0-1 1 0 2 1 2 1 0zm1175-2c2-1 2-1 1-2h-2c0 2-4 0-4-2h1c2 1 2 1 4-1s3-4 1-4l-2 1-2 1s-1 0 0 0l-1 1c-2 0-2 3 0 6l2 2 2-2zm-15-6c0-1-3-2-7-2l-3 1 3 1 2 1 3 1c2 0 2-1 2-2zm-1143-2c-1-1-3-1-2 1l1 1 1-2zm1149-1l2-2 5-2h3c-1 2 3 1 5-1s2-3 1-4c-1 0-2-1-1-2l-7 3h-1c0-3-6-1-9 2v8l2-2zm50-4v-2l-2 2v1l2-1zm-6-2c2-1 2-1 0-3-3-1-4 0-4 2 0 3 0 3 4 1zM194 228c0-2-2-3-2-1-1 2 0 2 1 2l1-1zm194-4h-1l-1 1h1l1-1zm69-3l-2-2c-1-1-1-3 1-2h1c0-2-5-3-6-1 0 1-2 2-7 2s-7 0-7 3l1-1h4c3 1 6 1 6-1h1l1 2c0 3 2 4 4 3v-2c-1-2-1-3 1-2l1 4h1v-3zm173 1c2-1 3-1 2-2v-3l-1-3-2 1c1 1 0 3-1 4-1 3-2 3-3 2-3-1-3 0-1 2l3 2 3-3zm-161 1l-1-1v-2l-1-1c-2 0 0-5 2-6 3-1 2-2-1-2l-3-2-2-3 1 14 1 3h4zm-77-6l1-1-1-2v-3c2-2 2-5 0-5l-2-1-1-2v2l1 3v3l1 3c1 1 1 1-1 1l-2-2v4h4zm21-1c-1-1-2-1-2 1l1 1 1-2zm4-1c0-2 0-2-1-1v3l1-2zm20-3c2 0 2 0 2-2l-1-2-1 1-2 1-2 2c0 3 0 3 1 1 1-1 2-2 3-1zm141 1h3l2-1-4-1-3-1h-1v3c0 1 3 2 3 0zm206 0c-2-2-4-1-2 0l2 1v-1zm148 0c3-1 5-4 3-6-1-1-6 0-7 3-2 5-1 5 4 3zm-546-2v-2l-1 2v1l1-1zm22 0v-2l-1 2v1l1-1zm10-2c-1-1-1 0-1 1 1 3 1 3 2 1l-1-2zm172 1h-1l-1 1h1l1-1zm337-2v-1l-1 2v2l1-3zm-559 0c-2-2-3-2-3 0l3 1c2 0 2 0 0-1zm175 0l-2-1v-1c0-2-2-3-2-2-2 2 0 5 2 5l2-1zm243 0l-1-1v1c2 2 2 2 1 0zm427 0l2-1c1-2 1-2-1-2l-2 1c0 2-3 2-3 0-1-2 0-3 3-4 2-1 2-1 0-3l-2-3c-2-1-6 0-5 2h-1l-2 1c0 2 3 3 3 1h3c3 1 3 1 1 2-1 2-2 2-3 2-2-1-1 0 1 2 2 3 4 3 4 2h2zm-867-2l-1-1-1 2 1 1 1-2zm79 1l-2-2c-1 0-2 1-1 2 0 2 2 1 3 0zm104-1c0-1 0-2 1-1l3-1c2-1 3-1 3-3l1-2 1 2v1l1-2 1-3c1-1 1-2-1-4-2-1-3-2-2-3v-1c-3-1-4 1-1 4 2 2 2 2 0 4s-7 2-10 0c-2-2-4-1-2 1v1c-3-1-3 2 0 5 2 3 6 4 5 2zm0-4c2-2 3-2 3 0l-3 1c-2 0-2 0 0-1zm-203 0h-1c0 2-2 2-2 2l-2 1c0 2 4-1 5-3zm145 0c-2-2-4 0-4 2v3l2-2 2-3zm-121 2v-1c-2-1-3 0-3 2 0 1 3 1 3-1zm-57-1h-2l-2 1 4-1zm38 0l-2-1v1l1 1 1-1zm35-1c0-3-2-3-2 0l1 2 1-2zm353-1l-1-1-1 1 1 1 1-1zm567 0l-1-1-2 1 2 1 1-1zm-681-1l-1-1-1-1c1-1 0-1-1-1l-1-1-1-1-2 1 1 1 1 2c1 2 3 3 5 1zm254-1v-3c0-1-1-2-3-1-2 0-2 0-2 2l5 4v-2zm434 1v-2l-4 1c0 1 3 2 4 1zm-152-7h-5c-2 3-3 4-1 4l1-1 1-1v4l2-3 2-3zm81 1v-1l1-2-1-2-1 1h-1c-1-2-2 2-1 5 2 2 3 2 3-1zm-831 0l-1-1-3-4-2-3c-1 2 0 5 2 7s4 3 4 1zm-57-4l-1-1-1 1 1 1 1-1zm532-5l-1-2c-2 0-5 4-5 6 0 1 1 1 3-1 3-1 4-2 3-3zm-212 1l-1-1v1c0 2 1 2 1 0zm510-8c1-2 1-3-1-2-3 2-3 2-3 0s-2-2-2 0v3c1 2 5 1 6-1zm78 1l-1-1-3 1 1 1 3-1zm-6-4h-2v2h2v-2zm-103-1l-1-1-1 1 1 1 1-1zm109 1h-2 2c1 0 1 0 0 0zM792 409v-2c-1-1 0-2 1-1 3 0 3 2 1 3h-2zm-658-3c1-1 2-2 3-1s0 1-1 2c-3 2-5 2-2-1zm102 1c0-1 0-2 1-1v1h-1zm2 0v-2l1 1c1 3 0 3-1 1zm71 0l1-2 1 2-1 1-1-1zm76 0l1-3v3c-1 2-1 1-1 0zm267-1l-1-2c-2 0-1-4 1-5 3-1 6-5 5-7 0-2 0-2 1 0l3 1 4 5-1 1-1 2-2 3-4 1h-3l-1 3c-1 0-2 0-1-2zm131 1l1-1 1 1-1 1-1-1zm113 0l-2-4h-1c-1 2-3 1-3-1v-4l-1-3c-1-1-1-1 0 0l1-1c1-1 6-1 7 1l1 3v2l3 6-1 1h-1c0 2-2 2-3 0zm-664 0l1-1h1l-1 1h-1zm12-1l1-1h1l-1 2-1-1zm83 0l1-1 1 1-1 1-1-1zm46 0l2-2c2-2 5-3 5-1v1l-1 1-1 1c-1 1-4 2-5 0zm37-1c-3-2-2-4 1-2h1l1-1 1 2c-1 1 0 1 1 1l1 1c0 2-5 1-6-1zm11 2l-1-2c-2 0-2-1-1-2s3 3 2 4zm97-1v-2l1 2v1l-1-1zm349 0l3-1-2 2-1-1zm157 0l1-2 1 1-1 2-1-1zm77 0c-1-1 0-4 2-4s3 2 1 4-3 2-3 0zm-830-1v-4c1-2 1-3-1-2v-1c2-2 5-1 3 0l6 1 2 2-2 1-2 1c1 1 0 2-3 3l-3-1zm20 0h-2l-1-1c0-2 0-2-1-1l-1 1 1-2 1-2c-1-1 2-2 3-1v6zm24 0l1-1 1 1-1 1-1-1zm300 1l-1-2h1l1-1h-2l-3 2-2-1c-2 0 0-2 2-2h4c2-1 2-1 2 2v2h-2zm131-2l-1-1-1-1 1-1h1c-1-1 1-1 2-1 4-1 4 2 1 5-3 1-3 1-3-1zm520 1l1-2 1 2-1 1-1-1zm-1051-1l2-1c1 1-1 1-2 2v-1zm129 1h2c1 0 1 0 0 0h-2zm135 0l1-2 1-3 2-4c2 1 3 0 3-2-1-2-1-2 6-1l2-1v-2l1 2c0 2 1 3 3 4 4 2 6 4 6 5 0 2-5 5-6 4s1-3 3-2l1-1c0-1-1-2-3-2s-2-1-2-2-2-3-4-2c-2 0-2 1-1 3s1 2-1 1l-1-2-1-2-1 1c1 2-1 5-3 5l-4 2-2 1zm76-1c-2-1-2-2-1-2l-1-1c-2-1 0-2 3-2h3c2 0 1 6-1 6l-3-1zm10 0c0-2 2-3 3-2s1 1-1 2h-2zm175 0v-2-1c2 0 2 2 0 3-1 2-1 2 0 0zm13 0v-2l1 2v1l-1-1zm108 0l1-2 1 1-1 2-1-1zm213 0l2-1v-2c3 0 2 2 0 3-2 2-3 2-2 0zm-936-3c-1-4-1-3 1-5 2-1 2 0 2 1l-2 1v1l1 1v2c1 4-1 3-2-1zm18 3c-2-1-1-3 0-3l2 1c0 2-2 2-2 2zm48-1l2-1h1l-1 2-2-1zm55 0c1-3 4-5 4-2l-2 1-1 1v1l-1-1zm83 0l1-1 1 1-1 1-1-1zm169 0l1-1 1 1-2 1v-1zm115 1l-1-2c0-1 1-2 2-1v-3c2 0 3 3 1 5l-2 1zm207 0c0-2 2-3 3-2l-1 1-2 1zm310-1l3-2 1-2c1-2 4-3 4 0l-2 2-3 2-1 1-2-1zm36 0c0-3 2-6 4-6s3 2 3 5c-1 2-2 2-4 2l-3-1zm18 0c0-2 3-3 4-2l-1 2c0 2-3 2-3 0zm-832-1c0-2 0-2 1-1l1 1v-2c-1-1 0-2 1-2 2 0 2 0 2 2s-2 3-4 3l-1-1zm27-1l2-3h1c2-1 2-1 2 2l-3 1-3 2 1-2zm189 0c0-2 1-2 1 0v2l-1-2zm37 1c-1-3-1-3 2-3s4 3 1 4c-2 1-3 0-3-1zm112 1l-1-3-1-2v-2l2-2v-1c0-1 1-3 3-3l1 4-1 2c-1-1-4 0-4 2h1l2 1h-1c-1-1-1 0-1 2v2zm94 0c-2-2-1-5 0-5l2 1c1 1-1 5-2 4zm237-1l1-1 1 1-1 1-1-1zm250 0l1-1 1 1-1 1-1-1zm-1148-1l1-2 5-3c2-3 2-3 2-1 1 2-1 5-2 4s-2 0-3 1c-2 3-3 3-3 1zm55 0c0-1 0-2 1-1v1h-1zm90 0l2-3c2-2 7-2 8-1s-3 3-3 2l-1 1c0 1-5 2-6 1zm12 0c0-2 2-5 4-5 3 0 3 2 2 4s-6 3-6 1zm38-1c-1-3-1-5 1-5v1 3l1 3v-3c-1-2-1-2 1 0l2 2h-1-2c0 1-1 1-2-1zm162 2l-4-2 1-1 1-1 1-2c1 0 1 0 0 0l-2 1-4 1v-2l1-4c-2-2 1-5 3-4s2 3 0 5c-1 1-1 1 2 1l3-1-1-1v-1c0-3 2-2 2 1 0 1 0 2 2 1l2 2c0 2-2 8-3 7h-4zm324-3c-1-4-1-4 2-8 2-4 4-5 4-2l-1 2v1l2 1-1 1-1 3c0 3-2 5-3 5l-2-3zm405 2l1-1c1 1 1 2-1 2v-1zm-996 0l2-3 1-1-1 3-1 1h-1zm91 0h1-1zm80-2l3-1v1l-1 1h-1l-1 1v-2zm117 1c-1-1 0-1 1-1l1 1c-1 2-2 2-2 0zm174 0l1-1 1 1-1 1-1-1zm48 0c-1-3 0-4 3-4s3 1 2 4c-1 2-5 2-5 0zm147-1c1-3 3-5 5-3s0 5-3 5c-2 0-2 0-2-2zm119 1c-1-1 0-3 1-3l1 2c0 2-1 3-2 1zm134 0c-1-3-1-3 2-3 2 0 2 1 2 2l-1 2-3-1zm-615-2l1-2c-2-1-1-3 1-3l2 2-2 3c-2 3-4 3-2 0zm123 1c0-2 3-2 3-1l-2 2c-1 0-2 0-1-1zm70 0l2-2-1 2-2 1 1-1zm17 0l-2-1c-2-1-3-3 0-6 2-3 2-3 2-1h1c2-2 4-1 4 2l-2 5c-3 3-4 3-3 1zm39 0l1-2 1 1-1 2-1-1zm182 0h-1l-1-1h2l1 2-1-1zm246 0v-2c0-1 2 1 2 3 0 1-2 1-2-1zM98 399l3-3c3-2 6-2 4 1l-7 2zm275-2c-2-5-1-6 2-4l1 4c-1 3-3 3-3 0zm1-2l-1-1c0 2 1 4 2 3l-1-2zm54 2c-1-2-1-4 1-4l1 2v4l-2-2zm24 1l2-3c0-1 2-3 4-3l1 2-2 1-2-1 2 1c2 2 2 2 0 3l-5 1h-2l2-1zm16 0l1-3 1 2c0 2-2 4-2 1zm178-1c0-2 1-2 2-2 2 0 3 2 1 3-2 2-3 2-3-1zm30 0l-1-1c2 2 4 2 2 0v-2c2-1 3 1 3 3-1 3-2 3-4 0zm135 0l1-2v4l-1-2zm278 1c0-2 1-2 2-1l-1 2-1-1zm24 0c0-2 2-3 3-2v2c-2 2-3 2-3 0zm201 0v-1c2 0 2 1 1 2l-1-1zm-1030-1v-2-2l-1-1v-1c-2-1-1-3 1-3l2 1 2 1 2 3 1 2 1-1 3-3c2-1 2-3-1-2v-1l3-2h1l1 2-2 5-3 1-4 2-4 1h-2zm78-1l1-2h1v4l-2-2zm17 1l1-1 1 1-1 1-1-1zm159 1c-1-1 0-1 1-1l-1 1zm8 0v-4l1 1v3h-1zm62-2c0-1 0-2-1-1 0 2-3 2-3 0l2-1 4-1v-2l1-2c1-2 5-2 5-1l1 1 1-2c0-2 2-2 2 0l1-1c0-2 3-2 3 0 0 1 1 2 3 2l4 1c0 1-4 4-6 4l-2 1-3 1-2-1c0-2-3-2-6 0l-2 1-1 1-1 3v-3zm111 1v-1l2 1c0 2 0 2-2 0zm206 1v-2c-1 0 0 0 0 0 2 0 1 2 0 2s-1 0 0 0zm206-1c0-3 2-4 3-3l-1 3c-2 2-2 2-2 0zm-873-1c-1-1 0-2 1-2v2h-1zm159 0l1-1 1-3c-1-1 0-2 2-2h3l2-1h1c1 1-5 5-7 5l-1 2-1 1-1-1zm235 0c0-2 1-3 2-2v2h-2zm210 0c0-2 1-2 2-1l-1 2c-1 1-1 0-1-1zm57 0l-1-1c1-1 3 0 3 1 0 2-2 2-2 0zm380 0c-1-1-1-4 1-4 1 0 2 1 2 3s0 3-3 1zm-1091-1v-2l1 1c0 3-1 3-1 1zm121 1l1-1h1l-1 1h-1zm40-1l1-1 1 1-1 1-1-1zm32 0c-1-2 0-3 2-3l2 2c0 3-3 3-4 1zm7 1l3-5 3-2-1 2-2 1 1 1 3 1v1h-3l-4 1zm64-2l-2-3 2 1c1 2 1 2 1-1-1-3 1-3 4 1l1 4c-2 1-4 0-6-2zm634 1c1-2 3-2 3 0l-2 1-1-1zm16 0l1-1h1l-1 2-1-1zm31 0l1-1 1 1-1 1-1-1zm14-1c0-2 3-3 4-2s0 2-1 3c-2 2-3 2-3-1zm-1060 0l1-2 1 1-1 2-1-1zm169 0h3c1 1 1 1-1 1l-2-1zm188 0h-2c-2 1-1-1 1-3l2-1 1 1 1-1c-1-1 0-2 1-2 1-1 1 0 1 1l-2 3c0 3-3 4-3 2zm111 0c0-3 2-4 2-2l2 1h1l-1 2-1-1h-3zm163-1v-5c1-2 1-3-1-3v-2c2-1 3 1 3 3l1 2 1 1 1 1c2 2 0 5-2 4h-1l-1 1-1-2zm52 1l2-1 1-2c0-4 3-8 6-9 5-1 7-5 3-6-1-1-2-1-1-2s-1-1-1-1c-2 0-2-1-1-3 2-3 3-3 3 0 0 2 5 6 8 5l4 2c2 2 2 3 1 4-2 2 0 2 3 0 1-2 4-2 5-2l2-2c0-2 2-4 4-6 4-3 5-3 8-3l5 2c1 1 0 6-1 10l-2 4-3-3-4-1-2 1c-2 0-5 3-4 5v3l-4 3c-3 0-3 0-3-2 1-2 0-3-2-3s-2 1-1 1l1 3-1 2-3-2c-2-2-2-3-1-6v-3l-1 2-1 1-2 1-1 2-2 1-1 1-2 1c0 2 0 2-6 3l-4 1c-1 1-2 1-2-1zm293 0l1-1 1 1-1 1-1-1zm151 0v-1l2 1-1 1-1-1zM68 393l3-1c1 1-2 2-3 2v-1zm197 0c-2-2-2-2 1-1l2 1c0 2 0 2-3 0zm55-1c-1-1-1-2 1-2l1 2v2l-2-2zm5 2l2-1h1l-3 1zm16-1c-2-2-1-3 1-3 3 0 4 2 2 3h-3zm409 0v-1l1 1v1l-1-1zm251 0v-1l1 1v1l-1-1zm-824-2l2-2-1 2-2 2 1-2zm67 1l-3-1v-2c1-1 1-1 0 0 0 2 0 2 1 0l2-2v-2c1-1 1-1 3 1l1 2-2 2c0 3-1 3-2 2zm138 0l1-2c1 0 1 0 0 0v-3c0-2 1-3 3-2l4 2 2 3c3 3 1 4-2 2h-4c-3 2-4 2-4 0zm5-3c-1-2-1-2 1-1 1 1 1 1 0 0-1-3-3-3-3 0l1 2 1-1zm58 3h-2l-1-1 3-1 2 1c0 2-2 3-2 1zm98 1l2-2h1l-1 1-2 1zm141-1l1-1 1 1-1 1-1-1zm554 0l1-2 1 2-1 1-1-1zm224 1h2c1 0 1 0 0 0h-2zm-1341-2l1-1 1 1-1 1-1-1zm138 0l1-2c1-2 1-2 2-1v3c-1 2-3 2-3 0zm176 0v-1l1-1h-2c-3 0-2-3 1-7 3-3 6-4 7-2v2c-2 2 0 4 2 2h2c0 2-4 3-5 2-2-1-3-1-3 1 0 3-3 6-3 4zm102 0c-1-1 1-4 2-3l1 2h-1c-2-1-2-1-1 1 0 2 0 2-1 0zm28-1c0-1 0-2-1-1v-2c3-2 5-2 6-1 0 2-1 4-3 5s-2 1-2-1zm466 1l1-1h1l-1 2-1-1zm-704-1c0-2 1-3 2-2v2c-1 2-1 2-2 0zm46 0l1-1-1 2v-1zm79 0v-1l1 1c0 2-1 2-1 0zm78 0c0-2 1-3 3-2 3 2 2 3 0 3l-3-1zm43-1l1-3c2 0 2 2 0 4-1 2-1 2-1-1zm375 0l2-2c4 1 4 4 1 4-2 0-3 0-3-2zm4 1l-1-1h-2l2 1h1zm56 1c-1-2-1-3 1-3l1 2c0 1-1 2-2 1zm-855-1l1-1h1l-1 1h-1zm21-1l1-1 1 1-1 1-1-1zm333-1c0-1 0-2 1-1v3l-1-2zm281 1c0-1 0-2 1-1v1h-1zm3 0v-1l1 1c0 2-1 2-1 0zm78-1l-2-4c1-1 0-2-1-1l-2-1h-2c-3 2-6-2-4-4s3-2 5 0v2h3l1 1h1l2-2v2 1l1 2c-1 1 0 2 1 2s2 4 0 4l-3-2zm-9-9v1c0 3 0 3 1 1l-1-2zm39 10l1-1 1-2c0-3 4-6 5-3 1 2-2 7-5 7l-2-1zm200 0v-2c1-1 3 0 3 2s-2 2-3 0zm71 0c0-1 0-2-1-1s-3-1-2-3c1-1 1-1 1 1l1 1h2v2h-1zm-853-2l2-3c1 0 2 0 1 1v2l-1 2c-1 0-2 0-2-2zm88-1c0-6 2-9 6-11 3-2 4-1 3 3 0 3-2 4-6 4-2-1-2 0-1 1 2 1 2 2 0 5-2 2-3 2-2-2zm121 2v-1-1h2l1 2c0 2-1 2-3 0zm-318-1l2-2 1 1-1 1-1 1-1-1zm55 1c0-1 3-4 5-4l1 2-1 2-1-1v-1l-2 1-1 1h-1zm106 0c-2-2-1-3 1-3v2c0 1 0 2-1 1zm141-1l1-1 1 1v1l-2-1zm684 0h2l-1 1-1-1zm50 0l-2-2c0-2 3-6 4-6 2 0 4 4 4 7 0 2-4 3-6 1zm-1113 0c-1-2 0-5 2-5v4l-2 1zm109-1l2-1h1l-1 2-2-1zm1016 1l-1-2h1l1 2h-1zm63-1l-1-1c1-1 3 0 3 1 0 2-2 2-2 0zm9 1h2c1 0 1 0 0 0h-2zm-1201-2l1-1 1 1-1 1-1-1zm127 0l3-3c2 0 1 3-1 4l-2-1zm208 0v-1c2 0 2 1 1 2l-1-1zm7-1c2-2 3-2 3-1l-2 2c-2 2-2 2-1-1zm466 1v-2c1-1 4 0 4 2-1 1-4 2-4 0zm-740 0l1-1h1l-1 1h-1zm31-1v-3l1 2c0 3 0 3-1 1zm22 0l1-1 1 1-1 1-1-1zm46 0l1-3c2-1 3-1 3 1-1 3-3 4-4 2zm211 0l2-1 1 1-2 1-1-1zm246 0c-2-2-3-3-1-5l2-1 1 1v-4l3 4c2 2 2 2 1 0 0-1 0-2 1-1l2-1h2c1 1 1 2-1 3l-1 1v-2l-2 3c-1 3-4 3-7 2zm10 0v-1l1 1v1l-1-1zm25 0l1-1 1 1-1 1-1-1zm480 0l1-2 1 1-1 2-1-1zm73 0l-1-2 1 1c0 2 0 2 1 0h1c0 3-1 3-2 1zm-1224-1l2-1c1 1-1 1-2 2v-1zm47 0c0-3-1-4-2-3h-5c0-2 2-3 5-2h3c2-1 5 2 3 4-1 3-4 3-4 1zm57 1l2-1s1 0 0 0l-2 1zm9-2l-1-3v-3c1-1 4 0 3 2l-1-1v7l-1-2zm90 1v-1l1 1v1l-1-1zm61 0l2-2 2-3 3-4c3-3 6-3 6 0h-1c-2-1-3-1-3 2s-2 6-4 5l-2 1c-1 2-3 3-3 1zm7-6h-1l-1 1h1l1-1zm29 7l2-1c1 1 0 1-1 1h-1zm325-1c-1-2 1-4 2-3 2 0 2 1 1 2-1 3-3 3-3 1zm239 1c-1-1 2-4 6-8 2-1 2-1 2 3l-1 3h-1c-1 2-6 3-6 2zm28-1l1-2 1 1-1 2-1-1zm94 0l2-2v2l-2 1v-1zm-848-2c2-2 3-3 4-2s-1 1-2 2c-4 3-5 3-2 0zm36 2l1-1h1l-1 1h-1zm107 0c-4-1-2-7 2-7l3-1h2v1c-1-1-3 1-3 3l2 1c2-1 2-1 1 1l-2 1h-2l-3 1zm3-4c-1-1-3 0-3 2l2-1 1-1zm625 3l1-1v1l-1 1v-1zm57 0l1-2 1 2-1 1-1-1zm-769-1v-2l1 2v1l-1-1zm8 0l1-2 1 1-1 2-1-1zm177 1l1-2 1-2v1l1 1v1l-3 1c-1 0-1 0 0 0zm432-1c-1-2-1-4 1-5s4 1 3 4c-1 2-2 3-4 1zm2-1l-1-2v2l1 1v-1zm21 1l1-2 1 2-1 1-1-1zm161 0v-1l2 1-1 1-1-1zM97 380v-1c2 0 2 1 1 2l-1-1zm48 0l1-1c1-1 1 0 1 1l-1 1-1-1zm282 1v-3l2-2c2 0 1 3-1 4l-1 1zm491 0l1-3c1-2 3-2 2 1l-1 1-1 1h-1zm277-1v-1-1c0-2 0-2 1-1 2 0 2 0 2-2l1-2c3 0 3 2 1 4l-2 3-1 1-2-1zm13 0c-1-1 0-4 1-4l1-2-2-2-1-3 4 1 1 1c3 0 4 3 2 4l-2 4c0 2 0 2-2 2l-2-1zm-1071 0l-2-2h1l3-2c2-2 4-2 4 0 0 1-3 5-4 4h-2zm121-1l3-1-2 2-1-1zm918 0l1-2 1 1-1 2-1-1zm-44-1h3l-1 1-2-1zm27 0l-1-1c1-1 4 0 4 1 0 2-1 2-3 0zm11-1c-1-4 1-6 2-2v4l-2-2zm-1053 0v-1l1 1v1l-1-1zm73 0l4-4c2 0 1 3-1 4h-3zm95 0h-2l-1-1c1-1 6-1 5 1 0 2-2 2-2 0zm33 0l2-2-1 2c-2 2-2 2-1 0zm551 1l1-1h1l-1 1h-1zm271-2c0-2 3-3 4-2s0 4-2 4c-1 0-2 0-2-2zm90 1v-5c4-2 6 2 4 5-1 2-2 2-4 0zm-762-1l1-1 1 1-1 1-1-1zm380 0l2-3 1 2-2 2-1-1zm-668-1c0-1 0-2 1-1v1h-1zm125 1l1-1h1l-1 1h-1zm706-3l-2-4v-2c2-2 3-1 3 2v2c1-1 1 0 1 2-1 4-2 4-2 0zm247 2v-2h-1l-2-2-1-1v-2c1-2 4-3 8-2 2 0 3 1 3 4s-3 6-4 4l-1 1c0 2-2 2-2 0zm-1104-1l1-1 3-5c0-5 2-6 2-2-1 1 0 2 2 1h2l-2 2-2 3-2 2c-4 2-4 2-4 0zm36-1l4-2c1 1-4 4-5 4l1-2zm29 1l1-2 1 1-1 2-1-1zm226 0l1-1 1 1-1 1-1-1zm476-1c-1-2 4-7 6-6l1-1 2 1c2 2 2 2-1 5s-8 4-8 1zm19 2l2-1c1 1 0 1-1 1h-1zm90-2c-3-2-4-5-1-6 2-1 4 2 4 5l-1 3-2-2zm1-4h-2c-1 1 0 2 1 2l1 2 1-1-1-3zm105 5v-1l2 1-1 1-1-1zm42 0c-2-2 0-6 2-6 3-1 5 1 5 4s0 3-3 3l-4-1zm247 1l-1-3 2-1c2 1 3 4 1 4h-2zm-1214-2c1-2 4-5 5-4l-3 5-2-1zm23 0l2-3c1-2 1-2 1 0l1 1 1 1c1 2 0 2-2 2l-3-1zm7 0c-1-2 0-3 2-3s2 1 1 3h-3zm152 0l2-1h2l-2 1h-2zm714 0l1-1 2-4c2-5 5-6 10-2 1 2 3 3 2 4l-2-1h-2l-4 2-3 2c-1 2-4 2-4 0zm-936 0c0-1 2-2 3-1l-1 1h-2zm37-1l1-1-1 2v-1zm192 0l1-1v1c0 2-1 2-1 0zm41 0l2-1c1 0 2 0 1 1 0 2-3 2-3 0zm467-4c0-3 0-5 2-5 2-1 3 0 3 2v1l3-2c2 0 2 1 3 4 0 3 0 4-1 3l-1-1-2-1c-2-2-2-2-2 0l-2 3c-3 1-3 1-3-4zm27 5l1-3c1-1 1-1 0 0l-2-1c1-1 4-1 4 1l-2 2-1 1zm34-2c-1-2-1-3 1-6l2-3 2-2c0-3 1-3 3-3l1-1v-1l1 3c2 3-1 7-3 5-2-1-2-1-1 1l-1 3v4l-1 2-4-2zm-590-1c0-2 1-2 1 0v2c-1 1-1-1-1-2zm606 2l2-5c2 0 1 5-1 5h-1zm88-2l1-2 1 2-1 2-1-2zm120 1c-1-1 0-3 1-2v2h-1zm-1052-2c1-3 3-3 3-1l1 2h1l-3 1c-2 0-2 0-2-2zm57 1l2-3c2-2 3-2 3 1-1 3-4 4-5 2zm189 1c-1-1 3-6 3-6v3c0 2-3 4-3 3zm556-1v-2c1-3 3-3 4 1 0 2-1 3-4 1zm106 0c1-2 3-3 3-2l-1 1v2l-2-1zm76 0v-3l1 2h1l1-3-1 5-2-1zm189 0c-1-1 0-3 1-2v3l-1-1zM69 369l1-1 1 1-1 1-1-1zm52 1c0-2 5-4 6-3l-1 2-5 1zm83-1c0-1 2-3 4-3 1 0 0 3-2 4s-2 1-2-1zm217 0l1-1 1-2h1l-2 3h-1zm374 0l1-1 1 1-1 1-1-1zm9 0l1-1 1 1-1 1-1-1zm160 0l1-1 1 1-1 1-1-1zm12 0l2-2 1 2-1 1-2-1zm39 0v-1h2l-1 2-1-1zm69 0c1-2 3-2 3 0l-2 1-1-1zm-828 0c-1-1 0-3 2-3l1 2c0 1-2 2-3 1zm127-1l1-1c1 1 0 1-1 2v-1zm710 1c-2-1-1-3 0-3l2 1c0 2-2 2-2 2zm127-1l-3-4-4-4-1-2-1 2c0 2-2 5-3 5l-3-1v-4c1-1 1-1 0 0l-1-2c0-1 1-3 3-3 2-1 4-4 1-4l-1-2c0-2 0-3 2-3s3 1 3 2l3 1 3 3 2 2 1 3c1 2 2 2 4 2l4 2c1 1 1 1 0 0l2-2c3 0 4-1 1-2-2 0-2-1-2-3 0-3 4-3 5 0l1 2 1 2-1 2-1 1c2 1 2 7 1 7l-1-2c-1-2-1-2-3-2l-2-1c0-1-2-1-5 3-4 4-5 4-5 2zm-1089-1l2-1 2 1-2 1-2-1zm42 0l2-2 3-2h-1l-1-1c2-3 10-5 10-1h-1l-4 2-5 3-1 1c0 2-2 2-2 0zm255 1l2-3 2-1 1 2-3 1-2 1zm718-1l1-2 1 1-1 2-1-1zm8 1c-2-1-2-1-1-3 1-4 2-6 5-6 2 0 3 3 1 4l-1 3c0 2-1 3-4 2zm2-5c-1-1-1-1-1 1l2 1-1-2zm-742 3l1-1h1 1l3-2h-1l-1-1c-1-1-2 0-3 1-2 1-5 1-5-1l2-2v1c0 2 0 2 1 1 1-2 2-2 5-1 2 0 3 0 2-1v-1l-1-1c-1-1-2-2-1-3l2 1c0 2 2 3 3 4 2 0 2 0-1 4-4 3-8 5-8 2zm425 0l1-1 1 1-1 1-1-1zm199-1c0-3 3-3 4 0 0 2 0 2-2 2-1 0-2 0-2-2zm3 0l-1-1-1 1c0 2 1 2 2 0zm25 0l2-2c3-1 2 2 0 3s-2 1-2-1zm123 2c-2-2-1-4 0-4l2 2c0 1-1 3-2 2zm91-1l1-1h2c3 0 2 2-1 2l-2-1zm-327-1v-1l2 1c0 2 0 2-2 0zm64 0c0-1 0-2 1-1v1h-1zm273 0v-3c2-2 4-1 4 2-1 2-2 3-4 1zM94 364l1-2c1-1 4-1 5 1 0 1-5 2-6 1zm88 0l2-1 3-2h3l2-1c3-2 2 1-1 3-2 1-3 2-4 1h-1c-1 2-4 2-4 0zm13 1c0-2 4-6 7-6l2-1 2-2c2-1 2 1 0 3-1 1-1 1 1 1l4-2h1l-1 2v1l1 1-2 2c-2 2-7 1-7-1h-1l-7 2zm767 0c-1-1 0-3 2-5l3-4 1-2v2c-1 1 0 1 1 2s1 3-1 5-2 3-3 1h-2l-1 1zm364-1l1-1 1 1-1 1-1-1zm115 0l1-1 3 1-2 1-2-1zM58 363l1-1 1 1-1 1-1-1zm76-1l2-3-1 3c-3 3-4 3-1 0zm962 1l1-1 1 1-1 1-1-1zm98 0v-3h4c0 4-3 5-4 3zm-1038-1v-1l1 1v1l-1-1zm897-1l1-2c2 1 2 3 1 4-1 0-2 0-2-2zm26 1l-1-2 2 2c-1 2-1 2-1 0zm8 0l1-1 1 1-1 1-1-1zm166 1v-2c1-2 3-1 3 1 0 1-1 2-3 1zM61 361c0-1 4-2 5-1v1c-1 2-5 2-5 0zm68 0l1-1 1 1-1 1-1-1zm19 1l1-1h1l-1 1h-1zm1118-1l1-2c2 1 2 3 1 3l-2-1zm7 0v-3c2-1 3-1 3 1 2 3-1 4-3 2zm-1113-1c0-1 3-4 6-4 2 0 2 1 1 2-2 2-7 3-7 2zm780 1l-1-3c0-2 1-2 4-2l2 1-1 2c-1 2-2 3-4 2zm-839-2c-1 0 0 0 0 0l1 1-1-1zm830 0v-3-3l2-1 2-2c1-2 1-2 4 0 4 2 4 4-1 5l-4 3c-1 3-3 3-3 1zm153 0l1-1 1 1-1 1-1-1zm32 1c-1-3-1-4 1-4l2 1-3 3zm9-1v-1l1 1v1l-1-1zm116 0c-1-1 0-2 1-3 1-2 1-2 4 0l3 3c-1 2-8 2-8 0zm-1073-1l3-2 1 2-3 1c-2 0-2 0-1-1zm837 0c0-4 2-7 3-7 2-1 2 0 1 1v2l1-1 1 1c0 2 0 2-2 2-1-1-2 0-1 2h-1-1c-1 2-1 1-1 0zm129 0l-1-2-1-2c-3-1-2-4 0-4 5 1 7 0 5-1v-1h2l2 3 2 2-2 3c-2 3-5 4-7 2zm-977-1l2-1v1l-1 1-1-1zm805 0l1-1h1l-1 2-1-1zm89 0l2-2 1 2-1 1-2-1zm-850 0l-1-4c0-4 0-5 3-5 2 0 3 1 3 2l-1 6-4 1zm8-1l2-1h2l-2 2-2-1zm952 0c1-2 2-3 3-1l-1 2-2-1zm65 0c-1-1 0-3 2-3l1 2c-1 2-3 3-3 1zm158 1c-3-1-3-5 0-5 2 0 4 3 2 4l-2 1zm-412-3v-4c2-2 3-4 2-6-2-1-2-1 2-1l3 1 2 2v4l-1-2v-2l-2 3-2 3c1 1 0 4-2 4l-2-2zm66 1l1-1 1 1-1 1-1-1zm4 1c-1-3-1-4 1-4 1 0 2 3 0 4h-1zm35-1l-1-2h2l2-1h1l1 2c0 2-4 3-5 1zm7-1c0-2 2-4 5-4 1 0 2 0 1 2-1 3-2 4-4 4l-2-2zm16 1v-1l2 1-1 1-1-1zm155 1l1-1h1l-1 1h-1zm-1083-2v-1l2 1c0 2 0 2-2 0zm11 0l1-1v1l-1 1v-1zm761-2c-1-1-1-2 1-2 1-1 2 0 2 3 0 2-2 2-3-1zm80 1l1-1 1 1-1 1-1-1zm9 1l-1-2c-2 0-2 0 0-3v-5h-2l-1 1c-1-1-1-3 1-3l1-1c0-3 3-4 5-2s3 6 1 7c-2 0-2 5-1 5l1 2h-1l-2 1h-1zm11-3l-3-4c-2-1-2-2-2-4v-5c1-1 2 0 2 1l3 1 1 2 1 3c2 2 2 9 0 9l-2-3zm25 0c0-3 1-4 3-4h2l1 3c0 2 0 2-2 2-1-1-2 0-2 1l-1 1-1-3zm110 2l-1-5c-1-3-1-4 1-4h4c1-1 1-1-1-3-3-2-2-3 2-4h2l-1 1c-1-1-1-1-1 1l1 2 1 1 3 2 2 1 1-1 1-2 2-1h2c2 0 2 0 2 3s-2 4-4 3l-3 1c-2 1-4 2-5 1-2 0-2 1-3 2 0 3-3 4-5 2zm81-1c1-3 3-3 3 0 0 1 0 2-2 2l-1-2zm-1136 0l1-1 1 1-1 1-1-1zm844 0l1-1 1 1-1 1s-2 0-1-1zm82 1c-1-2-1-3 1-3l1 2c0 1-1 2-2 1zm7-1v-3c2-1 5 1 4 3 0 2-4 2-4 0zm42 1v-2h-2c-1 0-2 0-1-2 0-3 2-3 3 0l2 2c2-1 2 0 1 1 0 1-1 2-3 1zm47-1c0-2 0-2-1-1l-1-1h2v2c-1 2-1 1 0 0zm54 0l1-2 1 1-1 2-1-1zm102 0l2-2 1 2-1 1-2-1zm-77-1v-1l1 1v1l-1-1zm13 0v-3c0-2 0-3 2-1 2 1 3 4 2 4l-2 1-2-1zm-225-1l2-2c1-1 1 0 1 1l-1 2-2-1zm105 0c-1-1-1-2 1-2v2h-1zm-938 0h2c1 0 1 0 0 0h-2zm810-1l1-2c1-1 0-1-2-1h-3l-1 1c-1 0-1-3 1-5l1-5c0-2 1-3 2-3l1 4c-1 4 1 5 3 1l1-2c2 0 2 3 0 8-2 4-4 7-4 4zm94 0l1-2c2 0 1 2 0 3-1 0-2 0-1-1zm-136-1l-2-4c-1-2-1-2 3-1l4 2 1 2c1 0 1 0 0 0l-1 1c1 2-3 1-5 0zm114 0l1-1 1 1-1 1-1-1zm32 0v-1l1 1v1l-1-1zm-931-1l1-1c1 1 0 2-1 2v-1zm16 0h1v-1c0-2 3-2 4 0s0 2-3 2c-2 0-3 0-2-1zm760 0c-2-2-2-6 0-5l1 2 1 2 1-1c-1-2 1-2 2-1 0 2-2 4-3 4l-2-1zm55 0l1-1v1c0 2-1 2-1 0zm59-1c-1-3 0-4 2-4s3 3 2 5c-2 2-4 1-4-1zm117-2c0-7 3-9 6-8 4 2 3 5-1 9-5 5-6 4-5-1zm-1029 2l2-1 1 1-2 1c-1 0-2 0-1-1zm919 0c-1-1 0-2 1-3 3-1 4 0 1 2-1 2-2 2-2 1zm29-1c0-6 6-10 9-7l2 2c0 2-3 4-7 6l-4 1v-2zm-903-1l2-1 1 1-1 1-2-1zm815 0l1-1 1-1c-1-1 2-7 4-7 3 0 2 3-1 5l-3 3-1 2-1-1zm14-1c0-2 1-3 2-3 2 0 2 3 0 4s-2 1-2-1zm6 2l1-1h1l-1 1h-1zm79-1v-1l2 1-1 1-1-1zm102 0l2-1v1l-2 1v-1zM95 343l2-1 1 1-1 1-2-1zm977 0l1-1 1 1-1 1-1-1zm181-1c-1-2 0-4 1-4 2 0 4 3 3 4l-2 1c-2 1-2 1-2-1zm-39-2c-4-3-4-5 0-7 3-1 4-1 4 2l-2 2-1 1c0 2 1 2 2 2 2 0 3 0 2 1 0 3-2 3-5-1zm137 2l1-3c1-1 4 0 4 2 0 3-4 3-5 1zm-1169-1l2-2 2 1-2 2-2-1zm759 1c-2-1-2-4-1-3l1-1h1c1 2 0 4-1 4zm340-1c-1-3 2-5 3-3 1 1 1 4-1 4l-2-1zM27 340v-1l1 1v1l-1-1zm180 1l1-1h1l-1 1h-1zm793-1l-1-3c-1-3 2-2 2 0 1 3 0 5-1 3zm26 0h-1l-2-1v-2l1-4 2-2 2-1v-1l1 2v2c-3 0-4 3-3 5l1 3-1-1zm241 0c-1-2-1-4 1-4 3 0 3 2 2 4h-3zm11 1l1-1h1l-1 1h-1zm-5-2c0-1 0-2 1-1v1h-1zm-1103-1l-1-3h-1l-3-1 2-1 3-1c1-2 5-3 5-1h2l1 1-2 1c-1 0-2 1-2 3-2 4-2 4-4 2zm17 0l1-1 1 1-1 1-1-1zm758 0v-2l1 2v1l-1-1zm330-1v-4l-2-4-1-2c1-1 1 0 1 1 1 2 1 2 2 1h2v1c-1 1-1 1 1 1l3 2c1 2 1 3-1 4-3 3-4 3-5 0zm129 1l1-1 1 1-1 1-1-1zM86 336c2-2 6-2 6-1s-1 2-5 3h-3l2-2zm955 1v-2l2 2v1l-2-1zm27 0l2-2 1 1-2 2-1-1zm10-1l1-1 1 1-1 1-1-1zm27 1l1-1h1l-1 1h-1zm144-3c1-2 0-3-1-3-2-1-1-5 1-6l4 1c2 3 2 6 0 6v1c1 3 1 4-2 4-2 0-2 0-2-3zm37 3v-2l2 1c0 1-1 2-2 1zm-250-2l-1-2 2 2c-1 2-1 2-1 0zm18 0v-2c2-1 4 0 4 2s-2 2-4 0zm35 0l-1-2-1-1c0-1 2-2 5-2s4 0 4 2c1 2 0 3-1 3-3 2-6 1-6 0zm104 0c1-2 3-2 3 0l-2 1-1-1zm65 0c-2-2-1-5 2-5 2 0 4 3 2 5s-2 2-4 0zm-1066-1l2-2 1-2 4-2h4l-1 2v2l-2 1-3 1c0 2-5 2-5 0zm4-1l-1-1-1 1 1 1 1-1zm5-4h-2v1l2-1zm-70 4l3-3 5-3c2 0 1 6-1 7s-5 0-7-1zm858 1c-2-1-1-2 1-3h3c2 2 2 3 1 3l-1-2h-1c0 2-1 3-3 2zm74-1c-1-2 0-5 1-5 3 0 3 2 1 4-2 3-2 3-2 1zm13 0l-1-5c-1-4 0-4 2-5 8-2 15-1 15 3h-1l-4 4c-4 3-5 4-8 4l-3-1zm236 0v-1l2 1-1 1-1-1zm-1129 0c0-2 3-5 4-5 2 0 2 3 0 4-2 2-4 2-4 1zm863-1v-3l-1-2h-2v-8l2 2 1 2v2l1-4c-1-3-1-4 1-4h2l3 1h1l-1 2c-2 0-5 3-3 4h2l3 2c3 1 3 1 1 3l-9 5-1-2zm4-3l-2-1v1c2 2 2 2 2 0zm20 3l1-1 1 1-1 1-1-1zm218 0v-5c2-2 2-2 4-1l2 3 1 2 1 1c0 2-6 1-8 0zm192 0c-1-3 1-4 4-2l2 2c0 2-5 1-6 0zm-482-2l-2-3c-2-1-1-5 0-5v-1c-1-1 1-2 1-3 2-1 2-1 2 1l1 1 1 3 1 3c1 1 2 2 1 3-1 4-4 4-5 1zm188 1c0-2 2-5 4-5s1 2-1 5h-3zM84 330l2-1h1l-1 2-2-1zm1019 0c1-2 3-2 3 0l-2 1-1-1zm76 0c-1-2 1-3 2-2s1 3-1 3l-1-1zm86 0c0-2 1-5 3-4 1 0 2 1 2 3s0 2-2 2l-3-1zm117 0v-2l1 2v1l-1-1zM41 330c0-2 1-3 3-2v1c0 2-3 2-3 1zm1057-1l2-2c1-1 1 0 1 1-1 2-3 3-3 1zm-974-1l3-1 2 1-2 1-3-1zm1136 0c-3-3-2-6 0-5 2 0 2 1 2 2l1 1v2c0 2-1 2-3 0zm-1103 0c0-2 3-3 4-2l-1 1h-1-1l-1 1zm19-1l2-4c0-2 1-2 4-2 5 0 5 2 0 5-4 3-9 3-6 1zm786-1c0-1 1-2 3-2l2 2c0 2-1 2-3 2s-2 0-2-2zm4-1h-1l-1 1 2-1zm412 1l-2-3c1-1 6-1 7 1l2 1 1 1-2 1h-3c-1 1-2 1-3-1zm-100 0l-2-3-1-3 1-4 2-4 1-2 1 2v1l2-2c0-2 4-3 4-1l1 1c2 0 3 0 3 2s-1 3-3 3h-4l-1 1 2 1 1 3c0 3 0 3-2 3-2-1-4 1-3 2v1l-2-1zm127-1c-5-3-4-7 2-8 4-1 8 5 5 9-2 2-4 2-7-1zM87 325l2-1c2 0 3 1 0 2-2 1-2 1-2-1zm1018 0v-1l1 1v1l-1-1zm216 1v-4l2 1c1 1 0 3-2 3zm-1216-2l2-2v2l-2 1v-1zm-36-1l2-2c2-1 2-1 1 1s-3 3-3 1zm987 0v-1c1-1 3 0 3 1 0 2-3 2-3 0zM51 322l1-1 1 1-1 1-1-1zm86 1c-1-1 0-2 1-2v-1l-2-1c1-1 4-2 5 0h3l6-1 4-1c1-1 3-1 3 1s-7 4-8 2l-4 1c-2 1-7 3-8 2zm26-2l1-1 1 1-1 1-1-1zm26 1c0-1-4-5-6-5l-1-1 6-2c2 0 3 1 3 2l-1 2v1l3-1 3-1 1-1 1-1c1-1 1 0 1 1v5c-1 1-2 1-3-1l-1-1-2 1-2 1-1 1h-1zm-93-2l1-1 1 1-1 1-1-1zm14 0c1-2 5-3 5-1l-1 1-3 1-1-1zm1279 0v-1l1 1v1l-1-1zm-1185-1l2-1 1 1-1 1-2-1zm783 0c-2-1 2-5 6-5 2 0 2 1 2 3 0 3 0 3-3 3l-5-1zm274 0c1-2-1-3-4-2-2 0-3 0-2-1 0-1 1-2 3-1l2-1c0-2 3-2 5 0s2 5 0 5h-2l-1 1-1-1zm67 0c-1-2 2-3 3-2s1 3-1 3l-2-1zm20 0c0-1 0-2 1-1l1 1-1 1-1-1zm-292-1l1-1 1 1-1 1-1-1zm215 0l2-1 1 1-1 1-2-1zm21-1c0-2 0-3 2-2h2l-1 2c-2 3-3 3-3 0zM89 317l1-1 1 1-1 1-1-1zm12 1l2-3c1-1 1-1 1 1l-1 2h-2zm103-1c0-2 3-4 3-3 1 1 0 2-1 2l-2 1zm840-1c-1-1 0-3 2-3l1 2c-1 2-3 3-3 1zm255 0l1-2c1-1 3 1 3 2-1 2-3 2-4 0zm84 0c-1-2 0-4 2-4l3-1h2c2 1 1 3 0 3l-2 2c-1 2-5 2-5 0zm46 1c-2-1-1-4 2-4 4 0 5 2 2 3l-2 1h-2zm-1286-4c0-2 1-3 4-4 3-2 5-2 6-1 4 2 1 4-5 4l-2 2c-1 2-3 2-3-1zm1174 2l-2-3c0-2 2-3 2-1h2c1-3 4-1 4 2 0 2-3 3-6 2zM88 314v-2c2-1 3 0 1 1l-1 1zm50 0l1-1h1l-1 1h-1zm897-1v-1l1 1v1l-1-1zm374 0v-2h2l1 2h-3zM59 312l1-1 1 1-1 1-1-1zm122 1h2c1 0 1 0 0 0h-2zm11-1l1-1 1 1-1 1c-1 0-2 0-1-1zm1157 0l2-2c2 0 2 3 0 3l-2-1zm7-1c0-2 2-2 3 1l-1 1-2-2zm-1250-1l2-1h2l-2 2-2-1zm10 0h4c1 1 1 1-2 1s-3 0-2-1zm42 0h3l-2 1c-2 0-2 0-1-1zm16 0c0-2 3-2 4 0h-1-1l-1 1-1-1zm22 0v-1c2 0 2 1 1 2l-1-1zm1096 0l1-1 1 1-1 1-1-1zm75 0c0-1 0-2 1-1v1h-1zM97 309l4-2 1 2-2 1-3-1zm104-1c0-2 0-2 1-1v3l-1-2zm1128 1c-2-2-2-5 0-5 2-1 4 2 2 4v2l-2-1zm-49 0l-1-2h1l1 2h-1zm43-1l1-1 1 1-1 1-1-1zm17 0c1-2 3-2 3 0l-2 1-1-1zM83 307l1-1 1 1-1 1-1-1zm9 0l1-3v3c-1 2-1 1-1 0zm1355 1c-2-2-1-5 1-5 3 0 5 2 4 4 0 1-4 2-5 1zm22 0c-2-1-1-3 0-3l2 1c0 2-2 2-2 2zM56 307c-1-2-1-3 1-3l1 2c0 1-1 2-2 1zm6-1v-1c2 0 2 1 1 2l-1-1zm1236 0l1-1 1 1-1 1-1-1zm67 0c-5-2-4-6 0-6 2 0 4 3 2 5 0 2-1 2-2 1zm-1249-1c-1-1 1-2 2-1s0 1-1 2l-1-1zm-10-1l1-1 1 1-1 1-1-1zm28 0l2-1c1 1 0 2-2 2v-1zm43 0c0-1 2-3 4-3s3 2 1 3h-5zm1123-1l-1-3c0-3 6-5 8-2 1 2 2 2 3 1h1l-1 1-1 2c0 2-3 2-4 0h-1l-4 1zm40-1h1l3-2c0-2 1-2 4-2h3l-3-2-3-1-3-1c0-2 3-2 6-1l3 4 2 2 1 1-2 2h-12zm67 0c-1-3 1-4 4-3 2 0 3 1 2 2l1 1h1c1 1 0 1-3 1l-5-1zm64 0l2-2c2 1 3 3 0 3l-2-1zm-1287-1l1-1h4l-2 2c-1 1-3 0-3-1zm-105-1l1-1 1 1-1 1-1-1zm54 1l-3-2c-1-2 4-5 8-5 2 0 3 1 3 3l-3 3-2 1h-3zm36-2l1-1 1 1-1 1-1-1zm1162 0c0-1 1-2 2-1l1 1-1 1-2-1zm56 0c-1-2 2-3 3-2l2 3c0 1-4 1-5-1zm35 0l-4-4c-1-2-1-3 1-4 1-2 6-1 7 1l-1 8-3-1zM61 298v-1l1 1v1l-1-1zm20 1c-1-2 0-3 3-3l2 2c-1 1-4 2-5 1zm67-1l2-1 1 1-1 1-2-1zm5 1l1-1h1l-1 1h-1zm1162-1l2-1 2 1-2 1-2-1zm24 0l2-1 1 1-1 1-2-1zm-1237 0l1-1h1l-1 1h-1zm1221-1l1-1 1 1-1 1-1-1zm71 0c-2-1 1-3 3-2l1 2c1 1-4 2-4 0zm-87-1c-1-1-1-4 1-4 1 0 2 3 1 4h-2zm-1196-1c-5-1-5-3-1-6 3-2 6-1 7 2 0 4-2 5-6 4zm47 1l-5-2-3-2 2-2c2-2 4-2 11-1l4 1-3 1-3 2-1 2v1h-2zm1168-1c-1-1 0-4 2-4l1 1c0 2-3 4-3 3zm27 0l1-1 1 1-1 1-1-1zM45 294l1-1 1 1-1 1-1-1zm96 0c0-1 2-3 3-2s0 3-1 3l-2-1zm29 0c1-2 4-2 4 0l-2 1-2-1zm-95-2l2-1 1-1 3-1c2 0 3 1 3 2 0 2-1 2-5 2l-4-1zm93-1v-1h1c1 2 1 2-1 1zm1169-1h-4l-1-1 1-1c2 0 1-2-2-4-2-3-2-5 1-6 1-1 5 2 5 4l4 2c4 0 5 1 4 5 0 2-2 3-2 1s0-2-2 0h-4zm24 0v-1h2l-1 2-1-1zm28 0l1-1 1 1-1 1-1-1zm18 0v-2l1 1 1 1h1c-1 2-3 2-3 0zM41 289v-1l1 1c0 2-1 2-1 0zm1315 1c-2-1-1-3 0-3l2 1c0 2-2 2-2 2zm19 0c-2-2-1-4 2-4 2 0 2 1 2 2l-1 2h-3zm-1250-2l-2-1h-1c1-2 4-2 4 0l-1 2v-1zm18 0l1-1 1 1-1 1-1-1zm6-1l1-1 1 1-1 1-1-1zm1178 0v-2l3-1c3 2 1 4-3 3zm84 0l-4-3v-4c1-1 0-2-1-2s-3-1-4-4c-3-6-1-8 4-4l3 2 1 2 2 2c3-1 5 1 4 4l1 3c1 2-2 4-6 4zM67 284l2-1 1 1-1 1-2-1zm91 0c-1-1 0-1 3-1l3 1c0 2-6 1-6 0zm1237 0c-2-2-1-4 2-4 2 0 2 1 2 2 0 2-3 3-4 2zm33-1c-3-1-2-3 1-5 4-2 7-2 8 0l2 1c3 0 1 2-3 3l-5 2-3-1zm-1288-2l2-1 1 1-1 1-2-1zm1283 0l1-1 1 1-1 1-1-1zm-1320-1c-2-1-2-2-1-2l3 1c0 2 0 2-2 1zm18 0h2-2zm1257-1c-1-3 1-5 4-4s2 5-2 5l-2-1zM61 278v-1l1 1v1l-1-1zm107-1l1-1v1c0 2-1 2-1 0zm-80-1l2-1 1 1-2 1c-1 0-2 0-1-1zm13 1v-2h3l-3 2zm51 0c0-1 2-2 3-1l-1 1h-2zm1243-1l1-1 1 1-2 1v-1zM80 275l1-1 1 1-1 1-1-1zm1344-2c0-1 0-2 1-1l1 1v-1l1-1c2 1 2 3-1 3l-2-1zm-54-2v-3c0-2 4-2 6-1v-1c0-2 2-5 4-5l4 3 2 2v1l-2 1-3 1-1 1-3 1c-1 2-5 2-7 0zm-1231-1l-2-3h1l3 1c2 0 3 1 3 2-1 2-4 2-5 0zm27 0l2-1 3 1-2 1-3-1zm1247-3c0-5 2-6 6-2 3 4 3 4 1 5l-5 1c-2 0-2 0-2-4zm34 1l2-2 1 2-1 1-2-1zm-52-3l-4-2c-3 1-5-1-4-3s3-2 7-2c7-1 7 0 6 2l1 2c3 0 3 4 1 5-2 2-3 2-7-2zm33 0c0-2 1-2 3-2 4 0 3 3 0 3l-3-1zM93 264c-1-1 1-2 2 0v1l-2-1zm10 0v-1l2 1-1 1-1-1zm5 0v-1l1 1v1l-1-1zm22 0v-1l2-1 6-2c3-1 4-1 5 1s1 2-1 3l-5-1-3 1c0 2-2 2-4 0zm1293 0c-3-1-4-4-2-4l1-1c0-2 2-2 4 0s2 2 1 5c0 2-2 2-4 0zm18 0l1-1 1 1-1 1-1-1zm15 0c0-2 1-2 3-1s1 2-1 2l-2-1zm-51-1c-2-1-2-1 0-4 1-2 2-3 4-3h3c-1-1 0-2 2-2l2 2-1 1-2 2c-2 1-2 1-1 2v1l-4 1h-3zm-34-1c0-1 2-2 4-1v2c-2 1-4 1-4-1zm-1190-3l2-2h1l-1 1-2 1zm-146-2v-1l1 1v1l-1-1zm50 0v-1c2 0 2 1 1 2l-1-1zm26-1l-6-4h13c1 2-1 5-3 5l-4-1zm50-3h3l-1 1-2-1zm1255 0c-3-2-4-4-1-6 2-1 5 0 7 2 1 1 1 2-1 3-1 2-2 2-5 1zM59 250c-1-1-1-2 3-2l6 1c1 1 1 1-1 1l-5 1-3-1zm1374-1c-1-4 4-5 6-2v3c-3 1-5 0-6-1zM29 246l3-1-1 1-2 1v-1zm68 0c-3 0-4-2-1-4h3l5 1c5 0 8 1 8 3l-6 1-9-1zm31 0h2l1 1h-1l-2-1zm13 0l-3-2 7 1c1 1 1 1-4 1zm12-2c1-2 5-3 5 0l-1 1c0-2-2-2-2 0l-1 1-1-2zm1264-1v-2h2c2-1 4 1 2 2-2 2-3 2-4 0zm33-2c0-2 1-4 4-4 2 0 3 2 2 4 0 2-5 2-6 0zm10 0c0-1 0-2 1-1l1 1-1 1-1-1zm-1332 0c-2-2-1-3 2-3l2 1c-1 2-3 3-4 2zm24-3c-1-1 0-3 1-2v2h-1zm1260 0c-1-1 0-2 1-3 2-2 5-2 6 0 0 3-5 5-7 3zm30 0c0-1 3-3 4-1 2 1 1 2-2 2l-2-1zm-80-1l1-1c1-1 3 0 2 1-1 2-3 2-3 0zm-8 0v-5l2-1 4-2h3l-2-2-1-3c1-1 4 0 5 2 2 3 2 6 0 5-1 0-2 0-2 2l-2 1-4 1c-2 3-2 3-3 2zm32-2c-2-1-2-2-1-3 2-2 7-3 8-2v4c-1 3-4 3-7 1zM98 235l-4-1c-4 0-4-2 1-3 4-2 8 0 7 2 0 1-3 3-4 2zm1338 0c-2-1-1-4 1-4h5c2 2 2 2-1 3l-5 1zm-88-3c-1-3-2-4-4-2-2 3-2 1-1-3 2-4 2-4 5-3 4 1 4 1 3 8 0 2-2 1-3 0zm30-1c0-1 1-2 2-1 2 0 3 0 2 2s-4 2-4-1zm-1235 1l-2-3c0-2 0-3 2-3l3-1 2-1c2 0 3 2 2 3h-2l2 2 2 1c0 2-6 3-9 2zm1254-2c-1-1 0-3 2-2 1 0 2 1 1 2 0 2-3 2-3 0zm50-2c0-2 3-4 4-2v2h-4zm-74-1v-3l-1-1c-1 0-1-5 1-7h3l5 1c3-1 3-1 3 7l-1 4-2-1-2-2c-2 0-2 0-1 1s1 1-1 2-3 0-4-1zm33 0c-2-2 1-4 4-4 2 0 3 1 3 2l-2 1-3 1h-2zm12-2c-1-2-1-3 2-4l2 3c0 3-2 3-4 1zm-1265-1c-1-2 2-3 5-1l2 2-7-1zm1237 0h-1l-2-1h4v2l-1-1zm4 0c-1-3 1-4 4-3 2 0 3 1 2 2 0 3-5 3-6 1zm-1279-2c0-2 0-2 2-1l1 2h-1l-2-1zm21 0v-1l1 1v1l-1-1zm2 0v-1l2 1-1 1-1-1zm7 0v-1l1 1v1l-1-1zm1220 0l1-1c2-1 2 0 0 1h-1zm89 1c-3-1-2-4 0-5l3 1c2 2-1 4-3 4zm-1265-4v-1l1 1v1l-1-1zm1244 0c0-1 1-2 3-2 3 0 2 3-1 3l-2-1zm-1317-1l1-1v1l-1 1v-1zm1230 1v-4c2-1 4 2 4 3l-4 1zm66-1v-2c1-1 4 0 4 2-1 1-4 2-4 0zm-52-1l-2-4c-1-2-2-2-3 0h-5v-4l2-3 1-2c0-2 1-3 2-3 3-1 4 0 4 4 1 4 2 6 4 4s5-2 4 1l-1 2v5c-1 2-6 2-6 0zm10-2c0-3 1-3 2-2h3c1 0 1 1-1 2-3 2-5 2-4 0zm26-1l2-1 1 1-1 1-2-1zm-1278-1h6c1 1 0 1-2 1l-4-1zm9 0c0-1 0-2 1-1v1h-1zm2 0l1-1 1 1-1 1-1-1zm50 0v-2l2 3-2-1zm30 0l1-1c2 0 1 2 0 2l-1-1zm-128-2v-1l2 1-1 1-1-1zm1330 1v-3l1-1c1-1 1 0 1 1l1 1v-2l1-1c1 0 1 2-1 4l-3 1zm9-1v-1l1 1v1l-1-1zm-1254-1c-2-1-2-1 0-2 2 0 5 2 4 3s-2 0-4-1zm311 1h2c1 0 1 0 0 0h-2zm147-1v-1l2 1-1 1-1-1zm752 0l-1-2c1-2 6-3 7-1l-1 1-1 2c0 2-2 2-4 0zm75 1l2-1h2l-2 1h-2zm-1274-2l-3-1c-3-2-4-4-2-4l3-1 4-2c2-1 2-1 2 2 0 2 0 3-2 3v1c2 3 1 4-2 2zm1214 0c-4 0-4-1-4-2s0-2 2-2l3-4c1-2 1-2 3-2l3 1v4l-1 5h-6zm-1190-1c-1-1 0-1 2-1l1-2c-1-1-1-2 2-2 2 0 3 1 3 2 0 2-1 2-2 2l-3 1c0 2-3 2-3 0zm689 0c-2-2-2-3 3-4 3-1 4 1 2 4-2 2-3 2-5 0zm532 0l-1-2 2 1c1 2 1 2 1 0v-2l1 1c0 3-1 3-3 2zm19 0c1-2 5-2 5 0 0 1-2 2-2 0h-1l-1 1-1-1zm-1334-1l1-1 1 1-1 1c-1 1-1 0-1-1zm1228-2v-4c3-2 4-1 4 3l-1 3h-1l-2-2zm31-1l-1-3c-2 1-3-1-2-2 2-2 5-2 5 0l2 1c1 0 4 4 4 6l-3-1c-1-1-1 0-1 1 0 3-3 1-4-2zm-1229 1l1-1 1 1-1 1c-1 1-1 0-1-1zm1270-1l-1-1 3-1h2c2 2 2 4 1 4l-1-1v-1l-1 1c0 2-1 1-3-1zm85 1l2-2 1 2-1 1-2-1zm-875-1c0-1 1-2 2-1l1 1-1 1-2-1zm5 0l1-2 2 1v2c-1 1-3 0-3-1zm299 1c-3-3 1-9 4-8 2 0 3 4 2 5v1c0 2-5 3-6 2zm505-1l-1-2c3 0 4 0 3 1 0 3 0 3-2 1zm-1232-1h-1l-2-1 1-1c1 0 1-1-1-2v-2c1 1 1 0 1-1s3-1 5 1c1 1 1 1-2 1s-3 0-1 1c2 2 3 3 2 4 0 2-2 2-2 0zm378 0l-1-2c-1 0-2 0-1-1h2c2 1 3 4 1 4l-1-1zm831 1v-3l2 2c0 1-1 2-2 1zm38-1l2-1 1 1-2 1-1-1zm-743-1v-2l1 1v2l-1-1zm-567-1l2-1 1 1-1 1-2-1zm649 0l-2-1v-1-3c-2-1-1-2 3-1 3 1 4 1 4 4 0 2-1 3-3 3l-2-1zm3-2c-1-1-1 0-1 1l1 1v-2zm4 2l1-1 1 1-1 1c-1 1-1 0-1-1zm13 0h-1l-2-1c0-2 2-3 3-1 2 1 2 3 0 3v-1zm584 0l1-3c1 0 1-1-1-1v-2h6l-2 2 1 1v3l-2 1-3-1zM37 201c-2-1-1-4 1-4 4-1 5 1 4 3-1 1-3 2-5 1zm437-1l1-1h1l-1 2-1-1zm84 0c-1-2-1-5 2-5 2 0 3 4 2 5-2 2-2 2-4 0zm24 0v-2l1-3c-1-3 0-4 2-3 3 2 3 5 0 5l-2 1v2h-1zm156 0v-2h-1l-1-1c1-2 4-2 5 1 0 2-1 4-3 2zm321 0l1-2 1 1-1 2c-1 1-1 0-1-1zm-641 0l1-1h1l-1 1h-1zm159-1c-2-2-1-3 1-2s3 2 1 3l-2-1zm156 1c-1-2-1-3 1-3l1 2c0 1-1 2-2 1zm178 0l1-1h1l-1 1h-1zm495-1l1-2 1-3c0-2 5-4 7-3 2 2 1 3-3 4l-3 2 1 1v1c0 2-3 2-4 0zm-32 0l2-4c1-1 2-2 2 0v3c0 2-4 2-4 1zm-476-2l2-2c2-3 4-1 2 2-1 2-4 2-4 0zm450-1l1-2-1-1c-1 0-2-1-2-5 1-7 1-7 3-7s4 3 5 6v2c-1-1-1-1-1 1v3c2 2 1 4-2 5-3 0-4 0-3-2zm53 1l2-1v1l-1 1-1-1zm19 0l2-2 1 1v1l1-1 2-2 1 2c-1 2-7 3-7 1zm14 0v-2h4l-2 1c-2-1-3 1-1 2 1 0 1 0 0 0l-1-1zm-1333-1l2-1 1 1-1 1-2-1zm100 0l1-2h2c3 1 3 3-1 3l-2-1zm7 1v-2-2c-3-1-2-4 0-5h2v2l1 3v3c1 1 1 1-1 1h-2zm7-2c-2-2-2-4 0-4v-1c-2-2-1-3 1-2 2 0 2 1 2 2-1 2 0 2 1 2l2 1-2 1c-1 0-2 0-1 1 0 3 0 3-3 0zm219 1c-2 0-4-5-3-7 0-2 3-2 4-1s-1 3-2 3v1c1 1 4 2 2 0-1-2 1-3 3-1l2 1c0-2 3-1 4 2 2 2 0 4-3 2h-7zm41 0v-1l1 1c0 2-1 2-1 0zm323-3l-3-4v-10c1-2 3 0 2 3v1c3-1 5 1 5 3 0 3-2 3-2 1-1-1-1-1-1 1l2 3c3 1 3 5 1 6-2 0-3-1-4-4zm106 3a1 1 0 0 1 2 0l-1 1-1-1zm-762-2c-2-3-2-5 2-5l2-1h4c3 1 4 3 2 3-1 0-2 1-1 2 0 1-3 3-5 3l-4-2zm308 1l1-1 1 1-1 1-1-1zm112 0c-3-2-5-6-3-8l4-1 4 1c0 2-1 3-2 3-2 1-2 1 1 2 2 0 2 3 0 3h-4zm112 0l-2-2-2-3v-1h3l2-1h4c2 0 2 1 2 4-1 4-2 5-7 3zm18 0a1 1 0 0 1 2 0l-1 1-1-1zm233 0v-3c0-1 0-2 2-1v5l-2-1zm524 0l1-1 1 1-1 1-1-1zm-1075-2c0-1 0-2-1-1s-3-2-3-4l1-3c1-1 5 3 5 5l1 2c2 1 1 3-2 3-2 0-2 0-1-2zm355 1c0-1 0-2 1-1v1h-1zm594 0l1-1c2 0 2 2 0 2l-1-1zm77 1l-1-3c2-1 5-1 5 1s-2 2-2 0l-1 1-1 1zm-918-2v-1l1 1v1l-1-1zm250 0l1-1 1 1-1 1c-1 1-1 0-1-1zm78-1h1c2 1 2 2 0 2l-1-2zm26 1v-2l1 1c0 3-1 3-1 1zm128 0c1-2 3-2 3 0l-1 1-2-1zm401 0l1-1 1 1-1 1-1-1zm6 0l1-2 1 1-1 2-1-1zM52 192l1-1c2 0 2 2 0 2l-1-1zm229-2l-3-5c0-4-1-7-3-9v-2-2c-1-1 0-1 1-1s3 4 2 6c0 2 0 2 1 0h2l1 1v-1c-4-4-1-8 3-5 2 0 3 2 3 3l2 4c3 3 3 6 0 6-2 0-4 1-4 3 1 1 0 2-1 3-1 2-2 2-4-1zm0-5l-1-1v1c1 2 2 2 1 0zm7-4l-1-1-1 1 2 1v-1zm185 10l1-1v2c-1 1-2 1-1-1zm365 1v-3c-2-1-1-2 3-2l3-1c1-3 2-1 2 2s-1 4-3 4-2 0 0-1l2-2-6 4-1-1zm212 0l1-1 1 1-1 1-1-1zm-850-1l-4-1c-1 0-2 0-2-2 0-1 1-2 5-2 5 0 8 2 5 5h-4zm21-1c-2-1-2-2-1-3v-1c-2-1 0-3 2-2 3 0 3 0 3 5 1 3 1 3-1 3l-3-2zm206-1c0-2 0-3-1-2s-4-2-4-4l2-2c2 0 4 2 4 5l1 4-1 2-1-3zm165 3c0-1 2-2 3-1l-1 1h-2zm318-2c-1-3-3-3-3 0-1 1-1 2-2 0-2-1-2-4 0-4h2l4 1h2c1-1 2 1 0 4 0 2-2 2-3-1zm52 1c0-1 0-2 1-1v1h-1zm-784-1l1-1 1 1-1 1c-1 1-1 0-1-1zm290 0v-10h1l2 2c3 1 4 5 2 7s-3 3-5 1zm5-5c0-1 0-1 0 0l-3-1v1c2 2 2 2 3 0zm80 5c-1-3-1-4 1-4s3 2 2 4c-2 2-3 2-3 0zm32 1v-5-2c-1-2 0-3 3-3 1 0 2 1 1 4l-1 4v1c0 1-2 2-3 1zm107-1l-1-1-1-1 2-1c2 1 3 3 1 4l-1-1zm90 0c-2 0-2 0-1-1 2-1 3 0 3 1h-2zm114 0c0-2 3-2 3 0l-2 1c-1 0-2 0-1-1zm84 1c-1-2-1-3 1-3l1 1c0 2-2 2-2 2zm342-1l1-1 1 1-1 1-1-1zm-376-1v-3c-2 0-1-2 1-4s2-2 2 0c1 3 1 4-1 7l-2 2v-2zm112 0v-3c1-2 4-2 3 0v1c2-2 3-2 3-1 0 2-5 4-6 3zm330 0l2-2 1 1-2 2-1-1zm-1158-1l-3-2-1-1 1-1 2-2c1-3 2-2 4 2 2 3 2 4 1 5-2 1-3 1-4-1zm43 0v-1l2 1v1l-2-1zm176 0v-2l1 2v1l-1-1zm29 0c-2-1-3-4-1-4l1 1c-1 1 0 1 1 1l2 1c1 2-1 3-3 1zm238 0v-3c2-1 2-1 2 1 2 2 0 4-2 2zm542 0l2-2c2 1 3 3 0 3l-2-1zm182 0l-1-1c1-1 1 0 1 1 1 2 0 2 0 0zm7 0c-2 0-2 0-1-1l3 1c1 1 1 2-2 0zm11 0l2-1c2 0 2 0 1-1s-1-1 0 0c2 0 2 3-1 3l-2-1zm-1325 0h2c1 0 1 0 0 0h-2zm606-1l1-1 2 1-2 1-1-1zm78 0a1 1 0 0 1 2 0l-1 1-1-1zm451 0c0-2-2-2-2-1-2 2-4 1-5-1l-2-2h-1l1-2 1-2 2-2 2 1 2 1h2a90 90 0 0 1 1 9l-1-1zm138 0v-2l3 1c1 1 1 1-1 2s-2 1-2-1zm62 1c-1-2 0-3 1-3 2-1 2 0 2 1l-1 2h-2zm-1263-2c-2-1-2-1 0-2l2 1c2 2 1 3-2 1zm240 0v-2l1 2v1l-1-1zm490 1h2c1 0 1 0 0 0h-2zm171-1l1-2c2 1 2 3 1 3l-2-1zm-940-1c-1-1 2-5 5-5l1 2-2 1-2 2c0 2-2 2-2 0zm200-1v-4l2 2v3c-1 1-1 1-2-1zm32 2v-5c1-1 2 1 1 3l-1 2zm36-1l1-2 1 2-1 1c-1 0-2 0-1-1zm138-1c0-1 1-2 2-1l2-2h3c2 2 1 4 0 4l-2-1-1-1-1 2-1 1-2-2zm158 1l1-3v2c1 3 0 3-1 1zm75 0l2-1 1 1-1 1-2-1zm86 0c-1-1-2-2-1-4 1-3 3-3 5 0 2 5 1 7-4 4zm91-1c-3-2-3-6 0-6 3-1 5 1 5 5-1 3-2 4-5 1zm-711 0a1 1 0 0 1 2 0l-1 1-1-1zm211-1l-4-3-2-1h-4c-1-1 1-4 3-4l3-2c2-3 3-3 3 1l3 3c3 2 4 3 1 6v2l-3-2zm297 2v-3c1-1 1-1 1 1s0 2 1 0 1-2 1 0l1 1-2 1h-2zm38-1l-1-2c-2 0-2-4 1-5 3-3 5-2 5 1 2 4 1 6-1 7-4 1-4 1-4-1zm119-1l-1-3c1-1 5 2 5 4s-2 2-4-1zm105 1l1-1 1 1-1 1-1-1zm276 0l1-1 1 1-1 1-1-1zm112 1c-2-1-1-3 1-3l1 1v1l-2 1zm-1283-2v-1l1 1v1l-1-1zm67 0l-1-1 2 1c1 2 1 2-1 0zm244-1l1-1c1 0 2 1 1 2 0 2-2 2-2-1zm96 1l1-2h1c2 1 1 3-1 3l-1-1zm14 1l-1-3c0-3 2-2 3 1 0 2-1 3-2 2zm1-3c-1-1-1 0-1 1l1 1v-2zm170 2l1-1 1 1-1 1-1-1zm475-1c-1-2 1-7 3-7s2 0 2-2v-3c3 0 3 6 0 7-1 0-1 1 1 2l1 4c-1 2-5 2-7-1zm13 1l1-2 1 2-1 1-1-1zm138 0c-1-1 0-3 2-3l1 2c0 2-2 3-3 1zm-1244-1h5c1 1 1 1-2 1l-3-1zm116 0l-1-3 2 1 1 3-1-3c0-2 0-2 1-1l2 3c0 2-2 2-4 0zm213 0l2-2 1 1-2 2-1-1zm28 0l1-1 1 1-1 1c-1 1-1 0-1-1zm208 1c-1-2-1-5 1-7 1-1 2-1 4 1 2 1 2 2 1 4-2 2-5 3-6 2zm149-1c0-1 0-2-1-1l-1-4c0-3 1-5 2-5 2 0 2 2 1 3v1l1 5c0 3-2 3-2 1zm86 0v-1l1 1v1l-1-1zm158 0l1-1 1 1-1 1c-1 1-1 0-1-1zm214 0l1-1 1 1-1 1-1-1zm31 1l3-2c4-1 7 0 5 2h-8zm61-3c-2-3-2-5 0-5s2 2 1 3v1c2-1 2-2 1-4v-4h3c1 0 2 0 2 2l-2 2-1 1c1 6-2 9-4 4zm-990 1a1 1 0 0 1 2 0l-1 1-1-1zm206 1c-3-1-4-1-4-3l1-2v-4c-2-4-1-4 2-5 2 0 2 0 2 3l-1 3h-1c0 2 3 3 4 1 3-1 5 4 3 6l-2 1h-4zm146-1c0-2-1-2-3-1-1 2-4-3-3-5s1-2 3 0l-1-3c0-2 0-2 2 1l3 4 1 3c1 0 1 2-1 2l-1-1zm225 0a1 1 0 0 1 2 0l-1 1-1-1zm301-1c-2-2-2-2-1-5 1-2 1-2 2 0l2 3c3 0 2 3 0 3-1 1-2 0-3-1zm64 1c-1-3 0-5 1-3v3c-1 2-1 2-1 0zm-991-2l1-2h1l-2-1c-1 1-3-1-2-2l3 1c3 1 4 3 1 4v2h-1l-1-2zm85 0l1-2 1 2-1 2-1-2zm100 1l1-1 1 1-1 1-1-1zm299 0v-1l1 1v1l-1-1zm128 0l1-2 1-1 2 2-1 2-1-1c1-2 1-2-1 0-1 2-1 2-1 0zm87 0l1-2v2l-1 1v-1zm52 0c-1-1 0-3 1-3v1l-1 2 1 1-1-1zm2 0l1-1h1c-1-2 1-4 3-3 1 0 1 1-1 3-4 3-4 3-4 1zm298-1c-2-2-2-4 1-4 1 0 2 1 2 3 0 4-1 4-3 1zM82 180l1-1h1l-1 1h-1zm91-1c-2-2-1-3 1-3l3 3c0 2-2 2-4 0zm8 0l-1-1c1-1 4 0 4 1 0 2-1 2-3 0zm7 0c-2-1-2-1 0-5s4-4 5-2l1 1c2 0 3 4 2 6h-8zm22 1c0-2 1-3 3-2s1 2-1 2h-2zm112 0l-1-2h1l1 2h-1zm29-2l1-3v5l-1-2zm10 1l1-4c1-2 1-2-1-3-2 0-1-5 2-5v2l1 4 1 4c0 2-1 2-2 2 0 0-1 0 0 0l-1 1-1-1zm37 1l-1-2s0-2-1-1-4-3-3-4 4 0 4 1h2l1-3c0-3 2-4 3-3v3c-1 2-1 2 1 2h1l-1 1v3c0 3-3 4-6 3zm53-1l-1-2v-1l-1-2h1l2 1c3 0 4 3 3 4h-4zm118-1c-2-2-2-3-1-5 2-2 3-2 7-2l4 1v4c0 2-1 2-2 2l-2 1c0 2-4 1-6-1zm18 2c0-1 0-2-1-1-1 0-3-2-2-4s2-2 2 0 0 2 1 1l2-4c1-2 2-2 3-2 3 0 2 5-1 5l-3 3-1 2zm191 0l1-1h1l-1 1h-1zm64-1c0-2 2-2 3 0l-1 1-2-1zm-548 0l-1-3c0-1 0-2 1-1v-1c0-2 1-2 3 0 2 3 0 6-3 5zm18-3c-2-1-3-3-2-3v-2c0-1 0-2 1-1l2 3 1 2 1 2v1c-1 1-2 0-3-2zm55 2l-1-2c0-2 2-6 4-7v-1l4 1c2 2 3 6 1 8-1 2-6 2-8 1zm126 1l-1-3c0-2 0-2 2-1l2 2c-1 2-2 3-3 2zm43 0v-5c2-1 3 0 4 3 0 2 0 2-1 1h-1c0 1-1 2-2 1zm11 0c1-1 0-2-1-2l-4-2-5-4c-3 0-4-1-4-3 0-1 0-2-1-1s-6 1-7-1v-3c1-1 2-2 3-1h3c-1-1-2-6-1-7 2-1 7 1 8 4 1 2 1 3-1 5-1 2-1 2 2 4h3c0-1 0-2 1-1s4-1 4-2 1-2 3-2c5 0 7 8 2 9l-2 2-1 4-2 1zm128-2c-1-4-1-5 1-4 1 1 2 6 0 6l-1-2zm276 1c-3-2-4-3-1-4 2-2 4-1 5 2 0 3-1 3-4 2zm52 0c0-2 3-2 3 0l-2 1-1-1zm10 1c-2-2 1-4 2-3v1l-1 1-1 1zm74-2v-3c-1-1-1-1 0 0l-1 1-2-1c0-2 4-2 5 0 1 3 1 5-1 5l-1-2zm-887 0v-1l1 1c0 2-1 2-1 0zm119 0l-1-2c-2-2-1-3 1-1 2 1 1 4 0 4v-1zm61 0v-1l1 1c0 2-1 2-1 0zm31 0c0-3 2-6 4-6l1 2c0 2-2 5-4 5l-1-1zm12 0l1-1 1 1-1 1-1-1zm103 1v-2c0-2-4-2-5 0-1 1-1 2-2 1l-2-3v-3c3-2 5-2 5-1l7 4-2 4h-1zm206-1c0-1 0-2 1-1v1h-1zm59 0l1-3h1c1 1 1 4-1 4l-1-1zm109 0l1-1h1l-1 2-1-1zm86 0l2-1 1 1-2 1-1-1zm13 0l1-2 1 1-1 2-1-1zm366 1c0-1 2-2 3-1l-1 1h-2zm49-1l8-1-2 1-4 1-2-1zm-1296-1l2-2v2l-1 1-1-1zm101 0v-1l1 2-1-1zm138 0a1 1 0 0 1 2 0l-1 1-1-1zm61 0v-1l1 1v1l-1-1zm242 0l2-2v2l-2 1v-1zm383 1c-1-1-1-4 1-6 1-2 1-2 3 0 3 2 3 4 0 5l-2 1h-2zm270-1v-1l1 1v1l-1-1zm5 0l1-2h2c2-1 2 0 2 1 0 2-1 2-2 2l-3-1zm9 0c-1-3 2-4 4-3h2c1-1 4-1 4 1l-2 1-3 1c0 2-4 2-5 0zm22-1c0-2 3-2 3 0 1 1 0 2-2 2l-1-2zm10 1l2-1 2 1-2 1-2-1zm-800 0l-1-4c0-3 3-4 6 0 2 3 3 3 0 3l-3 1h-2zm1-5c-1-1-1 0-1 1l1 1v-2zm381 4l-1-3c1-3 1-3-3-2-3 0-4 0-4-3 0-2 0-3 3-3 4 0 7 2 5 4l2 1c2 0 2 1 2 4s-2 4-4 2zm-474-1c0-2 1-2 2-1l-1 2-1-1zm16 0v-1h2c0 2 0 2-2 1zm290 1v-2c0-2 0-2 1-1s1 1 1-1c-1-3 1-3 3-1 2 4-1 6-5 5zm35-2l-2-2c1-1 2 0 3 1 3 3 2 4-1 1zm79-1c0-3 0-3 1-1l1 1h2v-1l-1-1v-1h2l1 2 1 3 1 1-2-1c0-2-1-2-1-1l-3 2-2-3zm122 3v-2c2-1 3 0 1 1l-1 1zm267-1c-2-1 0-5 2-5s3 2 2 5c-1 2-2 2-4 0zm-898-2c-1-4-1-5 1-4l2-1c1-1 2-1 3 1 2 2 2 2 1 4l-1 1-2 1c-2 0-3 0-4-2zm54 1v-1l2 1-1 1-1-1zm6-1v-3h4l1 2v2c-2 2-3 2-3-1v-2c-1-1-1 1-1 3s-1 2-1-1zm230 1c0-1 0-2 1-1v1h-1zm62-1l-2-3c1-2 4-2 4-1l2 1c1-1 2 2 0 4s-2 2-4-1zm27 1l1-2 1 2-1 1-1-1zm45 0a1 1 0 0 1 2 0l-1 1-1-1zm130 0v-1l1 1v1l-1-1zm83 0l-1-1c1-1 2 0 2 1-1 2-1 2-1 0zm282 0c0-2 3-3 4-2v-1l1-2c2 0 2 1 0 3-1 3-5 5-5 2zm60 0c-1-1 0-2 2-3 2 0 2 0 2 2s-3 3-4 1zm-1184-1v-2c2 0 4 2 3 3l-3-1zm244-1c0-3 0-3 1-1v3l-1-2zm79 1l-1-1 1 1c1 2 0 2 0 0zm594 0l1-1 1 1-1 1c-1 1-1 0-1-1zm-973-1l1-1 2 1-1 1-2-1zm119 1l3-1c1 1 0 1-1 1h-2zm26 0v-2l-1-1-1-1 1-2 2 4c0 2 1 1 2-1v-2c-2 1-3 0-1-1 1-1 2 0 3 1 2 2 2 2 1 4l-6 1zm83-2l-1-1v-1l2-1 2-1 2-4 1 1-1 1-1 3c1 5-3 8-4 3zm4-1h-1l-2 1h2l1-1zm73 3l1-1h1l-1 1h-1zm47-1l1-1 1 1-1 1-1-1zm505 1v-6c3 0 4 2 3 4s-2 3-3 2zm53-1l2-2 1 2-1 1-2-1zm6-1c0-3 1-4 4-2 2 1 1 4-2 4-1 0-2 0-2-2zm233 1l2-2 2 1-2 2-2-1zm26 1c-1-2-1-4 1-4l1 2c0 2-1 3-2 2zm-1170-2c-1-1 1-2 2 0v1l-2-1zm20 1l-1-2c0-2 3-1 3 1 1 1 0 2-2 1zm171 0l-1-4v-2l1 2 2 4h-2zm76 0l1-2 1-1c-1-1 1-2 2-1v1l-1 2c1 1 0 1-1 1h-2zm402-1a1 1 0 0 1 2 0l-1 1-1-1zm28 0h2l-1 1-1-1zm131 0c0-1 3-3 5-2s1 3-2 3l-3-1zm42 0l1-2c1-2 1-2 2-1l1 3c-1 1-3 2-4 0zm15 0v-1l1 1v1l-1-1zm44 0h3l-1 1-2-1zm42 0l-2-3c0-3 8-4 10-1 1 1 4 1 6-2h3c2 2 2 4-1 4l-2 2c0 2-5 2-5 0h-1c0 2-5 2-8 0zm227 1v-3l1-1 1-1c1-2 3 0 2 2l-2 2-1 1h-1zm139-1l2-1 2 1-2 1-2-1zm-1247-1l-2-2v-1l2 1 2 1c1-2 1-2 1 0 0 3-2 3-3 1zm14 1c-2-2-1-3 0-2l2 1c0 2-1 2-2 1zm80-1v-1l1 1c0 2-1 2-1 0zm439 0c-2 0-2 0 0-2l1-4v-4l2 2c2 3 2 6 0 6-1-1-1 0-1 1 1 2 0 2-2 1zm80 0c-1-1 0-3 1-2v2h-1zm9 0l1-1 1 1-1 1c-1 1-1 0-1-1zm-561-1l-1-2c1-1 3 1 3 2h-2zm132-1c-2-2-2-3-1-4 2-2 5 0 3 4v2l-2-2zm26 1l2-1 1 1-1 1-2-1zm51-1v-3-2c-2-1-2-4-1-4l1 1 1 1h1l1 2c2 0 3 4 1 6s-3 2-4-1zm18 1v-2-1c-1-1-1-1 0 0l2 2c0 3 0 3-2 1zm155 0l1-2v-2c-1 0-1-4 1-4l3 6-4 3-1-1zm12-1l1-2h1l1 1c1-1 1 0 1 1-1 3-4 3-4 0zm202 1l-3-2 1-3c0-1 1-2 3-2 3 0 3 1 3 4 0 5 0 5-4 3zm30 0l2-1 1 1-1 1-2-1zm148-1c-2-2-2-2-1-3 3-3 4-1 3 3 0 2-1 2-2 0zm9 1c1-2 4-2 4 0l-2 1-2-1zm87 0l2-3v2 2c1 0 1 0 0 0l-2-1zm106-1c0-1 1-2 3-2s3 1 1 3-4 2-4-1zm114 1l1-1 1 1-1 1-1-1zm5 1c-1-1 1-4 2-4l1 2c0 2-2 3-3 2zm-1082-1l-4-2-6-2c-1-1-1-2 1-3 1-2 3-2 3-2l3 1 3 3 1 3v2h-1zm171-1c-1-1-1-2 1-1v2l-1-1zm17 0v-1l1 1v1l-1-1zm83 0v-3c1-2 1-2 3-1 4 4 4 5 1 5l-4-1zm259 0l2-2 1 1-1 2-2-1zm191 1c-2-1-2-1-1-4 0-2 0-2-1-1v-3c1-3 2-3 3-1h2l2 2 1 5-6 2zm20-1l-2-2v-4c2-5 5-5 6 0 0 4 0 5-2 5l-2 1s-1 0 0 0zm45 0l1-1 1 1-1 1-1-1zm106 1l1-1h1l-1 1h-1zm49-2v-4l2-2v3c0 4-2 6-2 3zm49 1l1-1 2 1-2 1-1-1zm38 0l2-1v1l-1 1-1-1zm25 0c-2 0-2 0-1-2 2-2 4-1 4 1s-1 2-3 1zm-1046 0v-4l2 1c1 1 0 3-2 3zm94-1v-2l2 2c0 2 0 2-2 0zm23-1c-2-3-3-6 0-7 2-2 4-1 2 1l1 1 4 1-1 1h-1l-1 3-2 2-2-2zm394 1h-1c-1 1-1 0-1-1 0-2 3-2 4-1l-1 3-1-1zm28 0l-2-2-1 1v1l-1-3v-3l-1-1h2l1 1 2 1c2-1 4 2 3 4-1 3-3 3-3 1zm78 0v-1l1 1v1l-1-1zm111 1l-1-2-2-2c0-3 3-2 3 1v3zm94-1l1-1 1 1-1 1-1-1zm32 0l2-2c2 1 3 3 0 3l-2-1zm201 0l1-2 1 1-1 2-1-1zm-1197-1s-3-3-5-3c-5-1-7-4-3-6l4 1 2 3 1 1c2-1 5 1 5 3l-1 2h-2c-1 0-2 0-1-1zm42 0v-2l2 3-2-1zm61 0l2-1 1 1-1 1-2-1zm15 0l1-1v1c0 2-1 2-1 0zm64 0v-4c1-3 4-3 5 0 1 5-2 7-5 4zm547 1c-1-1 0-1 1-1h1l-1 1h-1zm12-1l1-1h1l-1 2-1-1zm228-1c-1-4-1-6 1-6s4 4 4 7-4 1-5-1zm34 1c0-1 2-3 3-2 2 1 1 3 0 3l-3-1zm78 1c0-2 4-4 5-3v2l-5 1zm-971-1l1-1h1l-1 1h-1zm936-1c-1-2 0-3 2-3v4l-2-1zm60 0c0-2 1-5 3-5s2 1 2 3 0 3-2 3l-3-1zm-1101 0h2c1 0 1 0 0 0h-2zm14-2c-2-2-2-4 0-4l2 3c2 4 1 4-2 1zm63 1h-1c-2 1-1 0 1-3l2-2-1 3c0 3-1 4-1 2zm32 1v-2l-2-3-1-1 4 2h2l2 1c1 2 1 2-1 1h-1c0 1-1 2-3 2zm112-1c0-2 1-2 2-1l-1 2-1-1zm43 0c0-1 3-2 4-1l-1 1c0 2-3 2-3 0zm167 1v-4l1 2 1 2h-2zm94 0c-1-2-1-3 1-3l1 2c0 1-1 2-2 1zm94 0v-4c2 0 4 3 3 3l-3 1zm132-1l1-2 1 1-1 2c-1 1-1 0-1-1zm384-1c0-1 1-2 2-1l2 1-2 2c-1 0-2 0-2-2zM83 162c-1-2 0-2 2-1v2l-2-1zm302 0c-1-3-1-4 1-3 1 2 2 4 0 4l-1-1zm183 0v-2-1l1-2 1 2 1 1 1 2c0 2-4 2-4 0zm30-1c0-2 0-2 1-1v3l-1-2zm91 0c0-1 2-3 4-3l-1 2c-1 1-2 1-1 2l1-1 1-1v2c-2 2-4 2-4-1zm19 1l2-2 1 1-2 2-1-1zm45 0l1-1h1v2c1 0 1 0 0 0l-2-1zm90 0l1-2v2l-1 1v-1zm31 0a1 1 0 0 1 2 0l-1 1-1-1zm7 0c-2-2 0-4 4-4 3-1 3-1 3 2s0 3-3 3l-4-1zm112 0l2-1 1 1-1 1-2-1zm154 0l1-1 1 1-1 1-1-1zm150 0h1c1 1 1 0 1-1h1v1c0 2-3 2-3 0zm91 0l2-1 1 1-1 1-2-1zm-1021 0v-2c-1-2 0-3 1-2h2c1 0 0 3-2 4h-1zm137-1l2-1 1 1-2 1-1-1zm410 0c0-2 0-3 2-2s2 1 1 2h-3zm155 0c-1-2 1-6 3-6s3 3 1 4l-1 2c0 2-3 2-3 0zm-894-1c-2-1-5-6-3-7h4c3 1 5 3 5 5s-3 3-6 2zm26 1l1-1h1l-1 1h-1zm90-1l1-2h2c1 2 0 3-1 3l-2-1zm34 0l1-2c2 0 2 3 0 3l-1-1zm131-2c-3-4-2-6 2-4 2 2 3 4 1 6-1 1-2 0-3-2zm94 2l1-2c1-1 1 0 1 1 0 3 0 3-2 1zm3-1l-1-3c0-2 0-2 2 0 3 3 3 5 1 5l-2-2zm418 1v-1l1 1v1l-1-1zm166 0c-1-2 0-3 2-2v2h-2zm179 1l-1-2h1l1 2h-1zm-965-2l1-5c1-2 1-2 2 0 2 2 3 3 1 5s-4 2-4 0zm25 0a1 1 0 0 1 2 0l-1 1-1-1zm95 1c-1-1 0-7 2-6 2 0 2 2 0 2v2c0 3 0 3-2 2zm49-1c0-2-1-3-2-3-3-1-2-4 1-4 1 0 2 0 2 3v5l-1-1zm42 1v-6l3 1c1 1 1 1-1 3l-2 2zm207-1l-1-1c1-1 3 0 3 1 0 2-2 2-2 0zm103 0c-1-1 1-6 3-6 1 0 2 1 2 3 0 3-1 4-3 4l-2-1zm23 1c-2-2-1-4 2-5 3-2 4-1 2 1l-1 2c1 2-2 3-3 2zm37-1c-1-1 0-2 1-1v2l-1-1zm261 0v-1h2l-1 2-1-1zm-944-1l-1-1c1-1 2 0 3 1 2 1 1 2-2 0zm54 1l-1-4c0-2 0-2 1-1l1 1 1-2 1 3c0 3-2 4-3 3zm507-2v-2l1 2v2l-1-2zm423 1l4-5-1 3c-1 3-3 4-3 2zm-951 0l-1-2h1l1 2h-1zm242-1v-2l1 1c1 3 0 3-1 1zm24 1c-1-2-1-3 1-3l1 2c0 1-1 2-2 1zm176-1c-1-1 0-2 1-2 2-1 2 0 2 2-1 2-3 2-3 0zm113-1c-1-2 0-7 1-7l3 3c3 2 3 2 1 4-2 3-3 3-5 0zm83 1v-1l1 1v1l-1-1zm221 0c-1-2-1-4 1-4s3 3 2 4h-3zm73 0c0-2 2-4 3-3l1 2c0 3-3 3-4 1zm49 0c0-2 2-4 3-3 2 1 1 3 0 4l-3-1zM89 157v-2l3 1c0 1-2 2-3 1zm498-2c0-2 1-3 2-3v4c-2 1-2 1-2-1zm82 1l1-1 1 1v1l-2-1zm190 1c-1-1 0-4 1-4v4h-1zm94-1l1-1 1 1-1 1c-1 1-1 0-1-1zm242 0c1-3 3-3 3-1l-2 2-1-1zm-167-1l1-1 1 1-1 1c-1 1-1 0-1-1zm85 0v-1l1 1v1l-1-1zM74 154v-2l3 1c1 2 0 2-3 1zm119 0v-2l1 2 1 1-2-1zm8 1c-4-2-5-8-2-9 2-1 7 1 8 3l-2 4c-1 2-2 3-4 2zm112 0c-1-1-2-3 0-3l1 2 1 1h-2zm28-1l1-1 1 1-1 1-1-1zm20 0a1 1 0 0 1 2 0l-1 1-1-1zm144 1l-1-3c0-2 3-1 3 1s-1 3-2 2zm358-1l1-1 1 1-1 1-1-1zm144-1l2-2c1-1 1 1-1 3-1 2-1 2-1-1zm179-1c0-3 0-3 3-3 2 1 3 1 3 3 0 3 0 3-3 3s-3 0-3-3zm131 3l1-1h1l-1 1h-1zm61-1l1-1 1 1-1 1-1-1zm-1122 0v-4c1 0 2 3 1 4h-1zm14-1v-3h1v2l1 1c0 2-2 1-2 0zm98 0c1-3 3-3 3-1l-2 2-1-1zm27 1l-1-3c0-3 2-2 3 1 0 2-1 3-2 2zm206-1l-1-2c1-1 3 1 3 2h-2zm448 0l1-2 1 2-1 1-1-1zm194 1v-2c2-1 3 0 1 1l-1 1zm-1031-2l-2-3-1-3-1-1 2 1 3 1c2 0 3 2 3 4 0 1-2 2-4 1zm188 0l-1-3 2-2c2 1 2 2 2 5-1 2-3 2-3 0zm434 0l1-2 1 1-1 2-1-1zm108 0l-1-1c1-1 3 0 3 1 0 2-2 2-2 0zm281 0c-2-2-3-5-1-5v-1c-2-2-1-3 1-3s6 3 4 3v2c1 2 1 3-1 4h-3zm29 0v-1l1 1c0 2-1 2-1 0zm16 0v-1l1 1v1l-1-1zm-989-1v-1c1-1 2 0 2 1h-2zm48 0v-3c2-1 4 1 3 3 0 2-2 2-3 0zm64 0l-1-2 1 1 1 1h1c0 2-2 2-2 0zm26 1l1-1h1l-1 1h-1zm46-1l2-2-1 2-1 1v-1zm21 0a1 1 0 0 1 2 0l-1 1-1-1zm11 0v-1l1 1v1l-1-1zm277 0l1-2 1 1-1 2-1-1zm7 0v-1h2c0 2 0 2-2 1zm67 1l1-1h1l-1 1h-1zm4-1l-1-2h4c1 2-1 4-3 2zm344 0l2-2v2c0 2-2 2-2 0zm137 0c0-2 1-5 2-4l3-1 2-1v2l-3 3c-1 2-3 3-4 1zm-1181-1v-1l2 1-1 1-1-1zm265 0v-1c2 0 2 1 1 2l-1-1zm273 0a1 1 0 0 1 2 0l-1 1-1-1zm71 0v-1l1 1v1l-1-1zm127 1l-1-3h3l-1 2-1 1zm461-1v-2h2c2 2 0 3-2 2zm16 0l1-1 1 1-1 1-1-1zm-1099-1l-1-1c1-1 2 0 2 1-1 2-1 2-1 0zm214 0v-2l1 2v1l-1-1zm132 0v-1l1 1v1l-1-1zm493 0l-1-2 3 1c2 2 1 3-2 1zm-723 0v-3c0-2 4-2 4 1 0 2-2 3-4 2zm119-1v-1l1 1v1l-1-1zm103 0c-1-1 1-4 2-3l1 2c0 2-2 3-3 1zm11 0c-8-4-10-6-10-9 0-2 2-3 5-4 6-3 9-3 13 0 3 3 3 4 3 7s-1 4-5 5c-3 2-5 2-6 1zm27 0a1 1 0 0 1 2 0l-1 1-1-1zm89 0a1 1 0 0 1 2 0l-1 1-1-1zm392 0l1-1c2 0 2 2 0 2l-1-1zm13 0v-1l2 1-1 1-1-1zm115 0l1-2 1 1-1 2c-1 1-1 0-1-1zm64 1c-2-2-1-4 1-4l2 2c0 1-2 3-3 2zm-658-1l1-1h1l-1 1h-1zm425 0l1-1h1l-1 1h-1zm115 0l1-2c1-2 1-1 1 0 0 2-1 3-2 2zm176-1c-1-1 0-2 2-2 3 0 3 0 1 1-2 3-3 3-3 1zm-1211-1v-1l2 1-1 1-1-1zm189 0l1-1 1 1-1 1c-1 1-1 0-1-1zm325 0v-1l1 1v1l-1-1zm41 0l1-1 1 1-1 1c-1 1-1 0-1-1zm159 0l1-1 1 1-1 1-1-1zm156 0c0-2 3-3 4-2 1 2 0 3-2 3l-2-1zm-915-1l1-1 1 1-1 1c-1 1-1 0-1-1zm57 0c0-1 0-2 1-1l1 1-1 1-1-1zm43 1c-2-2-1-3 0-2l2 1c0 2-1 2-2 1zm58-2v-4c2 0 3 4 2 6l-2-2zm27 1l2-1 1 1-1 1-2-1zm244 0h3l-1 1-2-1zm124 0c1-3 2-3 3 0l-1 1-2-1zm147 1c-2-2-2-5 0-6 3-1 4 0 4 2 0 3-2 4-4 4zm95-2l1-2 1 2c1 2 0 2-1 2l-1-2zm58 1l1-2 1 1-1 2c-1 1-1 0-1-1zm71-1c1-3 4-3 4-1 1 2 0 3-2 3s-2 0-2-2zm-850 0c-2-2-3-5 0-5 2 0 5 2 5 4 0 3-3 3-5 1zm242 1v-3c0-1 1-2 2-1v3c0 1-1 2-2 1zm23-1v-1l1 1v1l-1-1zm31 0l1-2 1 2-1 1-1-1zm631 0l1-1 1 1-1 1c-1 1-1 0-1-1zm-726-2l1-2 2 2c1 2 1 2-1 2-1 0-2 0-2-2zm148 1v-1l1 1v1l-1-1zm34-1v-3c1 0 2 0 1-1-1-2 2-2 3 0 2 3 2 6-1 6-1 0-2 0-3-2zm207 1c-1-1 1-2 2 0v1l-2-1zm73-1l2-2 1 2-1 2-2-2zm50 1a1 1 0 0 1 2 0l-1 1-1-1zm267 0c-2-3-2-6 1-6 2 0 3 4 2 6h-3zm178 0l1-2c1-2 4-1 3 2-1 1-3 2-4 0zm-1099-1v-1l1 2-1-1zm407-1l2-3c1 0 1 3-1 4-1 1-1 1-1-1zm155 1l-1-1c1-1 2 0 2 1-1 2-1 2-1 0zm265 0l1-2 1 1-1 2-1-1zm71 1l-2-2c-4 0-6-2-4-4 2-3 5-2 6 2v4zm71-1c-2-2-2-5 0-5 3-1 5 3 3 5h-3zm151 0l1-1 1 1-1 1-1-1zm-917-1c0-1 0-2 1-1v1h-1zm48 0l2-1 1 1-1 1-2-1zm83 0v-1l1 1c0 2-1 2-1 0zm79 1l4-5 1 2-1 2-2 1h-2zm-543-2l1-1 1 1-1 1-1-1zm396 0l1-1c2 1 1 2 0 2s-2 0-1-1zm13 0l2-2c2 0 2 1 1 2l-2 1-1-1zm63 0l1-1 1 1-1 1-1-1zm318 0l1-2 1 2-1 1-1-1zm78 1c-1-1 0-3 2-3l1 2c0 1-2 2-3 1zm46 0v-6c1-2 3-2 4-1l1 6-2 1h-3zm-805-2v-1l2 1-1 1-1-1zm62 1c-2-2-1-3 1-2 2 0 3 2 1 2h-2zm109-2l-1-2 2 2 1 2-2-2zm385 2v-3c2 0 3 2 2 3h-2zm82-1l1-2c1-1 2 2 1 3s-2 0-2-1zm97 0l1-2 1 2-1 1-1-1zm118 0v-1l1 1v1l-1-1zm-749-2c0-3 2-3 2 0l-1 2-1-2zm514 1v-1l2 1-1 1-1-1zm9-1l1-1 1 2-1 1-1-2zm-416 0v-1l1 1v1l-1-1zm140 0a1 1 0 0 1 2 0l-1 1-1-1zm214 0l1-2 1 1-1 2c-1 1-1 0-1-1zm8-1c0-3 1-3 2 0l-1 2-1-2zm286 0l1-3v4c-1 2-1 2-1-1zm70 1l1-2 1 2-1 1-1-1zm-822-1a1 1 0 0 1 2 0l-1 1-1-1zm42-1l1-1 1 1-1 2-1-2zm45 1v-1l1 1v1l-1-1zm340 0l1-2c0-1 0-2 1 0v3l-2-1zm58 0v-1l1-1 1-2c1-1 2 0 2 3s-3 3-4 1zm19 0l-1-1c1-1 3 0 3 1 0 2-2 2-2 0zm68 1c-2-2-1-5 1-5l2 3c0 2-2 3-3 2zm114-1l1-4 1-3 3 2c1 2 2 3 1 4-1 3-5 3-6 1zm42 0l1-1 1 1-1 1-1-1zm232 0l1-1 1 1-1 1-1-1zm-763-1l1-1h1l-1 2-1-1zm51-1c0-3 1-4 3-1h4l-6 3-1-2zm667 1l1-1 1 1-1 1-1-1zm134 0l1-1 1 1-1 1-1-1zm-1223-1c0-2 0-2 2-1l1 2h-1l-2-1zm199 0c0-1 0-2 1-1v1h-1zm708 0l1-1 1 1-1 1-1-1zm16 0v-1l1 1c0 2-1 2-1 0zm264 1v-2c-1 0-2-2-1-4h3l4 1c2 0 2 3 0 3l-4 1-2 1zm-1092-2l2-1 1 1-1 1-2-1zm308 1l-1-2h1l1 2h-1zm173-1a1 1 0 0 1 2 0l-1 1-1-1zm306 0v-3l3 3h-3zm47 0l-1-2c1-2 5-2 5 0 2 3-1 4-4 2zm-919-1l-1-1c1-1 2 0 2 1-1 2-1 2-1 0zm123 1l-1-2c0-3 3-2 4 0 0 2 0 3-3 2zm80-1c-1-2 0-5 2-4l1 2c0 3-3 4-3 2zm554 0a1 1 0 0 1 2 0l-1 1-1-1zm442 0l1-1 1 1-1 1-1-1zm17 0c0-2 2-3 4-2s1 2-2 3l-2-1zm-338-2l2-2c2 1 3 4 0 4-1 0-2 0-2-2zm-734 0l-1-1 1 1c1 2 0 2 0 0zm160 0v-6l1 7-1-1zm849 0v-1l2 1-1 1-1-1zm8 1l1-1h1l-1 1h-1zm-981-2v-1l1 1v1l-1-1zm161 0a1 1 0 0 1 2 0l-1 1-1-1zm479 0l1-2 1 2-1 1-1-1zm149-2c-1-3-1-5 2-4 2 0 2 4 0 6-2 1-2 1-2-2zm146 2l1-1 1 1-1 1-1-1zm-996-1a1 1 0 0 1 2 0l-1 1-1-1zm161 0a1 1 0 0 1 2 0l-1 1-1-1zm155 0v-2l2 2v1l-2-1zm135 0v-1l1 1v1l-1-1zm376 1c-2-2-1-3 0-3l2 1c0 2-2 2-2 2zm344-1l1-1 1 1-1 1-1-1zm-1181 0c-1-1-3-7-1-7l3 6-2 1zm298 0c-2-1-3-6-1-6 1 0 4 3 4 5l-3 1zm323-1v-1c2 0 2 1 1 2l-1-1zm329 0l1-1 1 1-1 1c-1 1-1 0-1-1zm60 0l2-1 1 1-1 1-2-1zm-1176-1v-1l2 1-1 1-1-1zm255 0c0-2 1-2 2-1l-1 2-1-1zm113 1l2-1c1 1 0 1-1 1h-1zm52-1l1-2 1 2-1 1-1-1zm-327-1l1-1c2 0 2 2 1 2l-2-1zm25 1l-1-2h1l1 2h-1zm274-1a1 1 0 0 1 2 0l-1 1-1-1zm110 0l1-1 1 1-1 1c-1 1-1 0-1-1zm40 0l1-1 1 1-1 1c-1 1-1 0-1-1zm135 0c0-1 2-2 2 0 1 1 0 1-1 1l-1-1zm11 0l-1-1c1-1 2 0 2 1-1 2-1 2-1 0zm69 0c0-1 0-2 1-1v2l-1-1zm403 0l2-1 1 1-1 1-2-1zm-1072-4c-1-5 0-6 3-5s3 7 0 6c-1 0-2 0-1 1l-1 1-1-3zm2-3c-1-1-1-1-1 1l2 1-1-2zm254 6v-4c1 0 2 3 1 4h-1zm38-1v-2l1 2v1l-1-1zm431 0v-3l5-1-2 3c-1 2-2 2-3 1zm-801-1c-1-1-1-2 1-2 1-1 4 1 3 2-1 2-2 2-4 0zm898 0v-1l1 1v1l-1-1zm-260-1l1-1 1 1-1 1c-1 1-1 0-1-1zm343-1c-1-2 0-4 1-4 2 0 4 3 3 5 0 2-4 2-4-1zm-315 0c0-1 0-2 1-1v2l-1-1zm358 0l2-2v2l-1 1-1-1zm-1036-1v-1l2 1-1 1-1-1zm789 0l1-1 1 1-1 1c-1 1-1 0-1-1zm47 0l2-2c1 1 1 3-1 3l-1-1zm109-1c0-2 1-3 2-3 2 0 2 1 1 4-1 2-3 2-3-1zm118 1c-3-3-2-7 1-7 2-1 3 0 5 2v4c-3 3-3 3-6 1zm97 0l2-2c1-1 1 0 1 1l-2 2-1-1zm-268-1l1-2v2l-1 1v-1zm90 0l1-2 2-1v2c-1 3-3 3-3 1zm-914-1v-1l2 1-1 1-1-1zm53 0l-1-2c-3-3-2-6 0-5h2l2 2c1 1 1 1 1-1 0-1 0-2 3-1l2-1v-1c1-1 1 0 1 1l-1 5c0 1-1 2-2 1-2 0-3 0-3 2l-2 1-2-1zm102 0v-1l1 1c0 2-1 2-1 0zm46 0l1-1v1c0 2-1 2-1 0zm72 0l1-2 1 2-1 1-1-1zm130 0v-1l1 1v1l-1-1zm198 0v-1l1 1v1l-1-1zm24 0a1 1 0 0 1 2 0l-1 1-1-1zm-530-1v-1l1 1v1l-1-1zm151 0v-1l1 1v1l-1-1zm420 0l-1-1c1-1 2 0 2 1-1 2-1 2-1 0zm-471-1l1-1 1 1-1 1c-1 1-1 0-1-1zm438 0c-1-1 1-2 2 0v1l-2-1zm-595-1v-1l1 2-1-1zm443 0l1-2 1 2-1 1-1-1zm179 0l-1-1 5-2-1 1-1 2h-2zm72 1v-3c1-2 1-2 2 0l1 2c-1 2-3 2-3 1zm-841-2l2-1 1 1-1 1-2-1zm228 0l-1-1c1-1 3 0 3 1 0 2-2 2-2 0zm-28-1c-2-1-4-4-2-4l6 5-4-1zm608 0a1 1 0 0 1 2 0l-1 1-1-1zm30 0l1-2 1 2-1 1-1-1zm135 0l1-1 1 1-1 1-1-1zm118 0v-1l1 1c0 2-1 2-1 0zm-914 0l-1-3c0-3 3-2 4 1 0 2-2 3-3 2zm44-1v-1l1 1v1l-1-1zm126-1c0-2 0-2 1-1v2c-1 1-1 1-1-1zm131 1v-1l1 1c0 2-1 2-1 0zm68 0v-1l1 2-1-1zm259 0a1 1 0 0 1 2 0l-1 1-1-1zm147-1v-1l2 1-1 1-1-1zm-966 0v-2l2-1 1 2c0 1-2 2-3 1zm13 0c0-1 3-4 4-3l-1 2-3 1zm26-1c-2-2-1-3 1-3l2 2c0 1-2 2-3 1zm7-1v-2l1 2v1l-1-1zm115 1v-6l4 4c1 2 0 2-1 2h-3zm197-1a1 1 0 0 1 2 0l-1 1-1-1zm255 1l1-1h1l-1 1h-1zm57-1l1-1 1 1-1 1-1-1zm140 0v-1l1 1v1l-1-1zm-201-1v-1l1 1v1l-1-1zm57 0a1 1 0 0 1 2 0l-1 1-1-1zm120 0v-1l1 1v1l-1-1zm44 0a1 1 0 0 1 2 0l-1 1-1-1zm271 0v-1l2 1-1 1-1-1zm-1043-1l2-2h1v2c1 1 1 1-1 1l-2-1zm120 1h2c1 0 1 0 0 0h-2zm161-1l1-2v2l-1 1v-1zm238 0l1-2 1 2-1 1-1-1zm225 0l2-1 2 1-2 1-2-1zm550 0l2-2v2l-2 1v-1zM53 105v-1l1 1v1l-1-1zm74 0v-1l1 1v1l-1-1zm99 0c-1-1-1-2 1-1v2l-1-1zm21 0v-1l1 1v1l-1-1zm529 0v-1l1 1v1l-1-1zm190 1c-1-2-1-3 1-3l1 1c0 2-2 2-2 2zm17 0c-1-1 0-3 1-3l1 2c0 1-1 2-2 1zm-53-2l1-1 1 1-1 1c-1 1-1 0-1-1zm-736-1v-1l2 1-1 1-1-1zm631 0c0-2 2-2 3 0l-1 1-2-1zm215 0c-3-2-2-5 0-5s4 3 4 5c-1 2-2 2-4 0zm-595-1l2-4c2-2 2-2 2 0l1 1 1 1-2 1-3 1h-1zm487 0c-1-2-1-5 2-5s4 2 4 4c-1 2-4 3-6 1zm513 0l1-1h1l-1 2-1-1zm-520-1l1-1 1 1-1 1c-1 1-1 0-1-1zm215 0c1-3 2-3 3 0l-2 1-1-1zm21 1l-1-3c0-2 1-3 3-3s3 0 3 2c0 4-3 6-5 4zM124 99c-3-3-4-4-1-4l1 1 2 3 1 2-3-2zm540 1l2-2 1 1-2 2-1-1zm315 1l2-1h1l-3 1zm69-1c-1-2-1-2 1-2l2 2-1 1-2-1zm-623-1a1 1 0 0 1 2 0l-1 1-1-1zm429 0c1-3 2-4 3-2l-1 3-2-1zm254 0l1-1 1 1-1 1-1-1zm-926-3c-2-2-2-3-1-3l3 2c1 3 0 4-2 1zm122 1v-1l1 2-1-1zm18 0l-1-1c1-1 3 0 3 1 0 2-2 2-2 0zm663-1l2-4c2 0 2 1 2 3s-1 3-2 3c-2 0-2 0-2-2zm150 0c-5-4-3-9 2-9 2 0 6 5 6 7s-3 4-4 4l-4-2zm136 1h3l-1 1-2-1zm171 0l1-1 1 1-1 1-1-1zm-934-1l-1-1h2c2 2 1 3-1 1zm7-1l1-1 1 1v1l-2-1zm203 0v-1l1 1v1l-1-1zm-524-2c0-2 0-3 2-5s2-2 1 0l1 2 2 3c0 4-5 3-6 0zm427 1a1 1 0 0 1 2 0l-1 1-1-1zm169 1v-3l1 2c1 1 0 2-1 1zm132-1l1-2c1-1 2 2 1 3s-2 0-2-1zm-394-1l1-3v3c-1 2-1 1-1 0zm97-2v-1l1 1c0 2-1 2-1 0zm216 1v-3c1-1 1-1 1 1s0 3-1 2zm74 0l-1-3 1 1v2zm141 0v-6c1-1 3 3 2 5 0 1-1 2-2 1zm-245-2v-1l1 1c0 2-1 2-1 0zm461 0c1-2 3-2 3 0l-2 1-1-1zm-955 0c-1-2-1-3 1-3l1 2c0 1-1 2-2 1zm12-1v-1l1 1v1l-1-1zm-65-1l-1-1c1-1 3 0 3 1 0 2-2 2-2 0zm17-1c-1-1-1-2 1-2 2-1 4 1 2 3-2 1-2 1-3-1zm10 0c0-2 2-2 3 1l-1 1-2-2zm11 0c0-2 0-2 1-1v2c-1 1-1 1-1-1zm559 1v-1l1 1c0 2-1 2-1 0zm162 0l-1-1c1-1 2 0 2 1-1 2-1 2-1 0zm-288-1v-1l1 1v1l-1-1zm-310-1c0-2 1-2 2-1l-1 2-1-1zm478 0c0-2 2-2 2-1v2l-2-1zm-738-1v-2l4 2c0 2-2 1-4 0zm236 0v-2c1-1 2 1 1 2h-1zm1074 0l1-1 1 1-1 1-1-1zm-805-2l1-2 1 2-1 2c-1 1-1 0-1-2zm-325 1l1-1h1l-1 1h-1zm558-2v-1l1 1v1l-1-1zm317-5l2-2 1 2-1 1-2-1zM107 76c-1-2-1-4 1-4 1 0 3 3 3 5l-4-1zm577-1l1-1h1l-1 1h-1zm408-1c0-1 0-2 1-1v2l-1-1zm-873-1v-1l1 1v1l-1-1zm518 0a1 1 0 0 1 2 0l-1 1-1-1zm546 0h2l-1 1-1-1zM146 72l2-1 1 1-1 1-2-1zm1037 0l1-1 1 1-1 1-1-1zm-916 0v-3l1 2c1 1 0 2-1 1zm426 0l-1-3h1l1 2-1 1zm715-1v-1l2 1-1 1-1-1zm-502-2l1-2v2l-1 1v-1zm-104-1l1-1v1c0 2-1 2-1 0zm-646-1v-1l1 1c1 2 1 2-1 0zm33-1l1-1 1 1-1 1-1-1zm502-1c0-2 0-3 1-2v3c-1 1-1 0-1-1zm-465-1c-2-2-3-6-1-7s6 2 6 5c0 4-2 5-5 2zm456 1v-1l2 1-1 1-1-1zm-29-1a1 1 0 0 1 2 0l-1 1-1-1zm314 0l1-2 1 1c0 3 0 3-2 1zm-720-2l-1-3c1-2 5 0 5 3s-2 3-4 0zm399 1c0-2 1-2 2-1l-1 2c-1 1-1 0-1-1zm154-1l2-2h1l-1 1-1 1v1l-1-1zm406-1c0-1 0-2 1-1v2l-1-1zm51-4l2-4c2-2 2-3 2-1 1 1 0 2-1 3-1 2-3 3-3 2zM140 52v-1l2 2-2-1zm11-1v-1l1 1v1l-1-1zm104 0c0-1 2-3 3-2l-1 2h-2zm509 0a1 1 0 0 1 2 0l-1 1-1-1zm235 0l1-1-1 2v-1zm171 0v-1l2 1-1 1-1-1zM153 47v-1l2 1-1 1-1-1zm100 1v-4c1 0 2 3 1 4h-1zm-37-2l1-1 1 1-2 1v-1zm518 0v-1l1 1v1l-1-1zm-44-1v-3l1 3c0 2-1 2-1 0zm538-1l2-2c1-1 1 0 1 1-1 2-3 3-3 1zm-553-3l1-1 1 1-1 1-1-1zm-412-1l1-1 1 1-1 1-1-1zm466-7a1 1 0 0 1 2 0l-1 1-1-1zm9-2l2-1 1 1-1 1-2-1zm29 0v-1l1 1v1l-1-1zm-540 0c-1-1-1-3 1-3l1 1c0 2-2 2-2 2zm419-9l1-1 1 1-1 1-1-1zm328-1l1-2v2l-1 1v-1zm-793-5l-1-3h3c2 3 2 4 0 5l-2-2z"/>
</svg>
