<svg xmlns="http://www.w3.org/2000/svg" version="1" viewBox="0 0 1000 619">
  <path fill="#ffed00" d="M194 586l-5-6c-2-4-2-6-1-12l1-10 3-6 9-11 12-14 7-10 5-10 5-8 2-5c0-3 4-11 9-20 2-4 6-15 5-17l2-1 1-1 2-4 3-6 2-5 1-3 3-6c4-5 4-7 1-8l1-1c3-2 4-5 2-7s-2-2 0-4c2-3 0-5-4-5h-2l-2-3-2-1v2c2 2 1 6 0 6s-2-1-2-3c0-1 0-2-2-3s-2-2 0-2 4-2 2-3l-2 1c-1 1-1 1-1-2l-1 1-1 3c0 1 0 2-1 1-2 0-2-1-2-4 1-3 0-4-2-4l-2-1c0-2 2-4 3-4 2 0 2 0 1 1-1 2 0 2 2 0v-4l1-3c3 1 5-1 4-3-1-1-1-2-2 0l-2 2v-1l1-1c-2 0-2-3 0-5v-3l-1-1-1 3c0 2-1 2-2 2-2 0-2 0 0 1v3c-2 2-2 2-2 0l-2-1-2-1 1-1v-2c-2-2-3 0-3 3 1 2 0 3-1 4l-1 2-1 3-12 33v7h-3c-8 0-9-3-6-11l2-5c-1-2 1-13 4-19 2-6 3-7 1-9v-10l-2-1h-1l-2-1 1-1 6-6 1-6c1-5 0-7-2-3h-2c-1-1-1-1 1-2 3-1 6-4 5-5v-1c1 1 1 0 1-1l-1-2-3-2v-1c2 0 1-3 0-3-3 0-5-1-8-4-4-2-5-2-4 1 1 1 1 2-2 6-2 2-4 4-3 5l1 1c2-1 1 1 0 3-1 0-2 1-1 2l-2 1-1-1-1-1-2 2-1 2c-1 1-2 1-1 3v3c0 1 0 2-1 1-2 0-2 1-2 4l-4 6-5 7c0 4-6 7-9 5-1-2 0-4 3-8l2-4c0-4 3-10 5-13 2-2 2-5 2-10 0-7 0-7-3-8-4 0-3-2 1-1 3 0 3 0 4-3v-7c0-2 1-3 2-3l2-2h-6c0-2 4-4 5-4 1 1 1 0 1-1s-1-2-3-2-2 0-1 1v2c-1 0-2-1-2-3-1-4-1-4-2-1v4c-4 1-10 5-11 6v3c0 1-3 3-6 3-2 0-5 3-4 5 0 1 0 2-2 2l-3 1c0 2-4 0-5-2l-3-2 1-1 6-6 4-7v-4c0-2 1-3 2-3h2v1l1-2 2-2c2 0 4-4 5-9 0-3 0-4-1-3-3 0-2-2 0-3 3-2 3-1 2 1 0 1 0 2 2 1l1-3v-4l1-2c0 3 3 5 4 4 3 0 3-2 1-2s-2-2-1-3l2 1c1 1 1-1 1-4-1-4-1-5 1-5l4 1c2 1 4-1 2-3-1-1-3-2-2 0h-1l-3-1-1-3c0-4 2-6 4-6 3 1 2-2 0-3-3-1-5 0-8 3-1 2-3 3-5 3-1 1-2 1-1 4v2l-5-3-5-3c-1-1 2-7 3-7l2 1h2l2-3 4-5 3-3 1-1c0-2-2-2-4-1-2 2-5 2-8 2-2 0-2 0 0-3l4-7c1-1 2-3 1-4 0-2 3-2 3 0l2 1c1-1-1-4-3-5-2 0-2 0 0-2h2c1 0 2 0 2-3s0-4-2-4-2 0-2-2l-1-2-1 1c0 2-1 1-5-4l-2-2h3l4 1 1 1c-1 1 0 1 2 1l3 1c2 1 2 1 1 2-1 2-1 2 1 2 3 0 3 2 1 4v1l2-1c2-2 2-8 0-7h-2v-1c-1 1-4-3-3-4l-2-3v-1l2-1v-3l-2-2 8-2h2c0-2 0-2-6-2l-3-1 1-1 1-1h-2l-2 4h-2l-1-2v-4l-2-1h-2l-1-2v-2l1-3 1-1 1 2c0 2 2 2 4 0 2-1 6-1 6 1l1 1c2 0 1-3-1-4-1-1-1-1 1-1 5 2 7-3 3-5-2-1-3-2-2-3l-1-3v-1c2 1 2 0 2-1l1-2 1 2c0 3 2 5 4 5v-4l-1-2c-1-2 1-7 4-7 4 0 6 1 6 3s-1 2-2 2c-3 0-5 2-3 4 2 3 2 4-1 3v1l1 3c-2 2 1 1 3-2l3-2c2-1 4-3 4-6h1c0 2 2 3 2 1s0-2 3-1c2 2 2 2 2 0l1-1 1-3-1-2-3-1c-3-1-3-1-2 1 1 3-1 3-4 1-2-2-2-2-1-4 1-1 2-2 3-1v-2c1 0 2 1 1 2h2c2-1 6 1 6 3h4v-1l-2-1-2-2 2-1h2l-1-1v-3l-1-3c-2 0-2-2 0-4 4-3 5-3 4 2l2-1v-3c-1-2-1-3 1-3h2l2 1 1-1c0-2-3-6-4-5s-1-3 1-5h1l1 2 1-3 1-2 1 2c-1 1 0 2 1 3v2c-1-1-2 0-3 1v1c1-1 1 0 1 4s1 5 3 6l3 3c1 3 2 4 2 2 0-3 2-3 2 0l1 2c2 0 3-2 3-5v-4l1 1c0 2 2 3 3 2v-5h-4l-1 1-1 3-3 1-4-2c-1-2 0-3 2-1l2 1-3-3c-3-3-4-5-1-4 1 1 1 0 1-1-1-2 1-2 4 0l2 2 1 1h2l2-1c2 0 1-2-1-3-2 0-2 0-1-1s1-1-1-1c-2-1-2-3 0-3 1-1 1 0 1 1l1 1c1-2 4 1 5 4l1 4 1-2v-1c2 0 2 2 1 4s-1 2-2 1l-1 1c0 3 0 3 2 2 3-1 3-2 3-6-1-3 0-3 1-3l2-1 2 1c2 3 2 6 0 11-1 2 0 4 1 2h4c3 2 3 2 3 0s0-2-2-2c-2 1-3 1-3-1l1-1 1-2v-2l1 1c-1 1 4 2 5 1l1-3c0-1 2-2 3 0 0 1 0 1 0 0l-2-3c-3-3-5-7-2-7l1 1 1-1 3-3 2-2 2-1c2 0 1-2-1-3l-3-2-1-1c-1 1-2-6 0-8 1-3 3-3 2 0l1 1 2-3c0-2 0-3 3-3 5 0 5 1 2 3-2 1-2 3 0 5v2l-2 1h-1v-4c1-3-2-3-3 0-1 2 0 3 2 5l3 3 2 1-2 1c-2-1-2 0 0 2 1 2 1 2 1 0h5c4 0 4 0 5 3l1 2h4l3-2h-3l-1-1c2-1 1-4-2-3v-2c2-1 2-1 0-4-2-2-2-2 0-4 1-2 2-2 0 0s0 4 2 1c2-2 2-2 2 0v2l1 2 2-1 2-3 2-1 5-2c1-1 1-1 2 1 0 2 3 2 3 0-1-1 0-2 1-2l2-2v-3l1 3 1 3v3c1 1 0 2-1 3-2 1-2 2-1 2l4-3c1-2 2-4 0-3v-3c1-1 2 0 3 2l2 3v-2c0-4-2-7-4-6-2 0-2 0-1-2s2-3 3-2c2 0 2-2 0-3-1 0-2-1-1-3h1c1 2 2 2 4 1 2 0 2 0 1 2l-2 2 1 10c2 1 5-3 4-5h1l2 1c2-1 2 0 3 1 0 3 2 4 3 1 0-2 1-2 2-2 3 1 3-2 1-2l-2-2 1-1c1 1 1 0 1-2v-4l3 3 3 3 6-3-1-1h-2c-2-1 0-3 2-2l1-1v-3c1-1 1-1 2 1 1 3 3 2 4-1 1-4 4-4 3 0l-2 4v7l3-2c3-3 4-4 2-3l-2-1v-3l1 1 2 2 1 2c-1 2 2 2 2 0 1-3 3-3 3 0 0 1 3 4 4 3l1-3c1-2 1-2-1-1-2 0-2 0-2-2 1-3-2-5-4-3-2 0-2 0-1-2s1-6-1-5h-1c-1-1 0-1 1-2 2-1 3 0 4 5 0 2 2 4 4 3l2 1h1l2-1v-2c0-2 0-2 3-1l3 2c0 1 0 2-1 1-2 0-2 0-1 1l-1 2h-3l-2 2c-1 4-1 4 1 3h2l1 1 2-2h4v-5l1-2 3-2 2-2-1-1h-1l2-1c2 0 3 0 2 1l1 2 2 4 1 4v1h-3c-3 0 0 2 3 2s3-1 4-3c0-2 1-3 2-2 2 1 4 0 4-2 0-1-1-2-3-1-2 0-3-1-3-2l-2-1 1-2v-3h-2v-1l-1-4v-2c0-1 0-1 0 0l3 3c2 1 3 2 3 5l1 3 4 3c3 2 3 2 5 0 1-2 1-1 1 0-1 2-1 2 1 0h2l2 1 1-1c0-1 0-2 2-2l4-1c1-1 2-2 4-1l4-1 7-3 6-1 1-1c1 1 3 0 5-1l7-1c7 0 8 0 11-3l3-2c0 2 4 5 5 4v1c0 1 5 4 9 4 2 1 5 4 6 9 1 4 2 4 4 3 1-1 2 0 3 1l2 1v2l3 3 4 3c1 2 1 1 4-1 3-3 4-2 2 2-1 2-1 3-2 2s-1-1-1 1l-1 2-1 4c-1 4-1 5 1 5 1 1 1 0 1-2l-1-2 1-3c1-1 2-2 3-1l-1 1v3c7-1 7-1 7 3 1 5 3 3 2-3 0-4 0-5 2-6 2 0 2-1 2-4l1-3 1 1h5l2-1c1 1 1 0 2-1l2-2 1-2-1-2c-2 0-2-2 0-4v-5l2 1 2 2c2 0 2 2 0 4l-1 5-1 3-1 3c0 1 0 2-1 1l-4 2c-3 2-4 3-3 4l1 3 1 4c0 3 2 4 3 1v-10c1-2 4-3 4-1l1 1 1 1-2 1c-2-1-4 0-4 1l2 1 1 1c-1 3 0 4 2 3h1c-1 1-1 2 1 1l1 1c0 2-1 2-3 1h-1l-2 2-3 1c-1 2-2 2-2 0-1-3-3-2-4 1 0 2 1 3 3 4l2 3 1-1 1-4c-1-1 2-2 4-1l2-2 1-1c1 1 7-5 7-7l2 2c1 3 1 3 1 1l1-4 2-4 1-3 1 5v3l2-2c3-3 6-4 6-2h1c2-1 1 1-1 3-3 2-3 3-2 4s2 2 1 3l1 2c2 0 4-1 4-3l-1-1h-1c-1-2 2-3 4-1 1 1 1 1 2-2 0-2 1-2 2-1 2 1 2 6 0 8-2 1-2 3-1 3l1 2 1 2 1-4c-1-3 0-4 1-5 2-1 2-2 1-2v-3l2 2c1 2 1 2 1 0l-1-3c-2-1-1-2 1-4l3-4 1-1 2-1c0-2-1-2-4-1h-1c0-2 4-2 6-1 1 1 2 2 3 1l2-1v4l-1 1h-5l-1 1-3 3c-1 0-2 0-1 1l1 1 3-1c2-1 2 0 2 2v4c1 1 1 0 1-1l1-2 3-4c1-6 1-6 4-5 2 2 1 5-1 5h-2l2 1 2 1 1 1 2 2c1 2 1 2 3-1l2-3-3-1c-3-1-4-2-3-3v-2c-2-1-2-2 0-4v-3l-2-3-1-3v-1l3 2 2 2 1 2c-1 1 0 1 1 2 3 0 4 1 4 7l1 6 1-1c-1-1 1-3 2-2l-1 3 1 2 3-2-1-1-1-1c0-2-1-4-2-2-2 2-3-1-2-3s2-2 4-1l2 3h1l1 1-1 3v3c-1 2-1 4 1 4l1 1h6c1 2 2 2 3-1h-2c-1 0-2 0-1-1l-1-1 2-1c3-1 3-2 3-4l1-3 1 2c-1 4 0 4 1 0 1-2 1-2 2-1 1 2 1 2 1-1l1-4 1 1v2c1 2 2 7 1 8-1 2-2 2-5 0-2-1-2-1-2 1s1 3 2 2c2 0 2 0 0 2l-2 3-2 1c-4 1-3 3 0 2l3 1c-1 2 0 2 1 1l1 3v3l1 2v1l1-4v-2l2-1h2l-1 2-1 3-1 3-1 1 2 1c2 2 2 2 2-2-1-4 0-6 2-4 0 1 5-1 8-4 2-1 4 0 3 1s0 2 1 2l1-1-3-5v-1l2 1h1v-3c-2-1-2-1 0-1 2-1 5 0 3 1l-1 6v4l1 1-1 1 1 1 1 3 1 1 1-9 1-1c2-1 2-1 3 2 1 6 0 10-1 12l-1 2h2c0 1 0 1 0 0l3-7 1-3c0-2-1-3-2-3-1 1-1 1 0 0v-4c-2-2-2-3-1-4 1-2 2-2 2-1 1 1 4 1 5-1l-1-3-1-1c1-2 2-1 3 1 0 1 0 2 1 1v1c-1 2-1 5 2 5 1 0 2 1 0 2l-1 3c0 4-2 2-2-2 0-2 0-3-1-1l-2 3c-1 0-2 0-1 2l1 2 1 2 1 2c-1 2 3 5 4 4l1-1v-2c1-1 1-1 1 1-1 3-1 4 2 3l4-1c0-3-1-5-2-5-1 1-2-2-1-3l2 1 2 1h2c1 2 2 3 0 2-1-1-2 2-1 3 2 1 5 0 4-2-1-1 0-4 2-6l2 1 1 1c-1-1 0-2 1-3 2-2 3-2 1-4-1-3-1-3 1-1s2 2 1 0c0-3 1-3 3 0 2 2 1 4-1 4l-1 2-3 3c-3 2-3 2-2 3l2 1h1l1-1 3-1h3l-1 1-2 1-1 3v2c0 1 0 2 2 2l3-3v-4c0-2 2-1 2 0h2l4-1c1-1 1-1 0 0-1 2-1 2 2 1 2 0 2 0 2 2h1l2-1 1 1c-1 1 0 2 1 1l2 2 3 3 5 2c2 2 3 3 6 2 3 0 3 0 2 1l-1 2h2c1-2 5-2 5 0l2 2h4l2-1v-1c-2 1-4-1-4-4 0-2 0-3 3-1l2 2c-1 2 7 8 9 7v-2c-1-2-1-3 1-3 3 0 5-1 5-2-1-1-1-1 1-1h1v-2c2-1 2 5 0 8s-2 4 0 6c1 1 1 1 2-1l2-1c2 0 2 7 1 9-1 1-1 1 1 3h1l2-1v-2l-1-1v-1c2-2 5 0 5 2l-1 4c-2 2 1 4 3 2h1l-2 2-1 1 2 1 4 1 3 1 2-1h3v-1h-2l2-1 2 2c0 2 1 2 3-1l4-2c2 1 2 1 0 2l-1 1 1 1-4 1c-4 0-6 2-4 4 1 2 1 3-1 3v-1l-1-1c-1 0-1 1 1 3 3 3 4 14 2 15l-3-1c-2-2-5-2-5 1v8c1 2 1 3-1 4v3h2l1-1-1 3v1l1 1-1 1h-12l2 2c1 1 1 2-1 3l-5 2 4 4v-2l1-1 1-1 4-4 1 1 1 1 2 2c-1 2 0 2 2 1l3-2c-1-1 0-1 1-2s2-1 6 2l6 2c1-2 3-1 1 0-1 1-2 2-9 1l-2-2c-2-1-2-1-2 1l2 2 1 1v1l2 2c0 3 0 3-2 2-3 0-4 1-1 3l2 5c0 3 0 3-3 2-2 0-3 0-2 1v3l-1 3c2 2 0 3-3 2-3 0-3 0-2 1l-1 2-1-6c0-6 0-7-2-5h-3l-1 1 1 1c2 0 3 1 1 2l-1 2h1l2-1v2c-1 2-2 2-4 2-5 0-6 1-4 4 2 1 2 2 1 3s0 2 1 3c3 1 4 0 2-2-2-1-2-2-1-2h5c1 2 7 3 9 1 2-1 1 2 0 4-2 1-2 3 0 5s2 4 0 4l-2 1c0 1 6 2 7 1 1-2 2-1 5 3v6c-1 3-3 4-6 3-2-1-2-1 2-3l4-2-3-1c-2 0-3-1-3-2l-1 1c-1 3-4 2-5-1l-2-3v3c-1 4 0 6 2 5s3 2 1 3-2 3 0 3l1 1-3 4h-3l1 2c3 2 4 6 2 4l-1 1c1 2 0 3-1 4l-2 4-1 3v-1l-1-3v-2l1-1c-1-2-4-1-4 0l-2 2c-2 1-3 4-1 5l1 2v2c1 0 3-3 2-5l1-1h1l1 1v2c0 2 1 2 1 1l2-2c1 0 2-1 1-2 0-2 0-2 1 0v4h-1l1 1h-6v2c0 3 0 4-3 1 0-1-1-1 0 0l-1 1c-1 0-3-2-2-4l-1-2c-1 0-4 4-3 6h-7v5l1 5c-1 1 0 4 2 4l1-1 2-2c2 0 6 4 6 7v2l1 3 2 3 2 2 2 1 2 2c-1 1 0 2 1 2l1 2c-1 2 3 10 6 11 2 1 3 2 2 3 0 3 2 7 3 7 3 0 6 6 7 12 0 5 3 9 6 10 3 0 4 3 5 11l1 6 8 17 6 8c7 11 7 21-1 28-5 5-9 5-16 2-7-2-10-7-14-16l-12-24-4-5-3-4c1-1 0-7-1-10l-3-2c-2 0-2-2 0-3 1 0 0-5-2-8l-2-3-1-2-1-1-1-4-2-5-6-7-6-7-3-1h-3c0 3-2 3-5 2-4-2-4-3 0-3l2 1h1v-2c-2-2-3-2-5-2-4 1-7 0-7-1l3-1 3 1-3-2-2-3-2-2c-3 0-2 2 0 3s2 1 1 2c-2 1-4 1-4-2-1-2-1-2-2-1h-2l-1-1v2c0 2 0 3-3 3l-3 2-1 1c-2 0-4 5-3 5h8v1c2-1 2-1 1 2l-1 4-9-2 1-2c1-1 1-1-1-1-3-1-3-4 0-7 4-3 4-5 1-8-2-1-2-1-3 1-1 3-3 5-3 2l-2-1c-2 0-2 0-3-3 0-2-2-3-4-5h-7c-2 2-2 2-1 3 2 0 3 3 1 3l-2-2c-2-2-2-2-1 0l-1 3c-1 2-1 2 2 3 1 1 2 0 4-1l3-2c2 0 1-3-1-5l-2-2c1-1 6 3 7 6l2 4c2 3 2 3-2 2h-4l-2-1c-1 0-2 0-1 1l3 1c3 0 3 2 1 4-1 2-2 2-3-1l-3-3c-2 0-2 4 0 5 1 1 2 3 0 4-1 1-4-2-4-4 1-5 0-6-3-5h-3l-1 1-2 1c-2 1-3 1-2 3 0 2 0 2-4 2l-3 3c-1 3-3 4-3 2l-2-1-3 1-1 1c-1 0 2-6 4-6h2c1 2 1 2 3 0l4-5 2-3 2-4c2-3 3-4 3-2s1 2 2 1h2l2-3c0-3-2-5-5-5-2 0-3-1-2-3 0-3 0-3 2 0 3 3 5 2 3 0s-2-2-1-3l2-1 1-1-2-1h-2c0-1 1-2 3-2 3 0 4-1 3-3h-2c0 2-4 1-4-1-1-2-1-2-2-1l-1 2v3h-2c-3-4-4-6-3-8 0-1-3-3-4-1v2l1 1v4l2 2c0 2 2 4 3 4 2 0 2 3 0 3-1 0-2 0-3-2l-1-2v3l-2 2c-1 0-1 3 1 4l1 2h1c2 0 4 2 4 4-1 2-5 2-6-1h-3v3c1 3-1 4-3 3h-5l-3 1-6 1c-3 0-4 1-4 2 0 2-2 0-3-2v-4c1-1 2-2 3-1v-1l2-1c2 0 2-1 2-2l-2-5c0-4-3-7-5-6h-3l-1 2c1 2-1 4-3 3v-2l-1-3-2-3c0-1-3-5-5-5l-2-2h-4l-1-1-3-1h-2c0 3-1 3-2 0l2-2 2-3 4-4 3-4v-1c2 1 5 0 5-1-1-1 0-1 1-1 3 0 4 0 2-1v-2c2-2 4-1 4 0l1-1c2-3 2-3 0-3-1-1-2-2-1-3 0-3 0-3-2-1v3l1 1c0 1-3 2-4 1l-3 1c-2 2-2 2-6 0-5-3-4-3-4-1 0 1 0 2 2 2 1-1 2 0 2 1l1 2-1 1c-1 1-2 1-1 2v2l-3 2-4 1-2 1 1 1 1 1-1 1h-4c-3 1-3 1-1 1 2 1 2 2 2 4 0 4 2 5 5 4h4c3 1 3 2 0 2-2-1-2 1 0 3 2 3 2 4 0 4l-2-2-1-2h-2c1-2 0-3-2-4l-3-1-1 1-3 5c-4 3-4 3-6 2-1-2-1-2 1-3l2-2 1-4c0-2 0-2-2-1l-2 4-1 1v-1h-2c-2 2-3 5-1 5l-2 1-4 1c-2 0-5 4-5 8 0 3 0 4-1 3l-4 2c-1 1-2 2-5 1-4-2-5-3-2-4l2-1 2-1 1 1 2 1c2 0 2-1-1-3v-1c3 0 3-2 0-3l-2-2h-2c-2 0-2 1 0 3 2 3 0 4-2 2s-3-2-3-1c-1 2-3 0-3-2l-1-2c-1 0-2 0-1 2l-1 2c-1 0-2 0-1 1 0 2 0 2-2 1-2-2-4-4-4-7-1-2 0-2 1-2l4 1v-2c2-2 0-3-3-2-1 0-2 0-2-2s0-2-6-2-7 3-2 4l4 2c2 2 1 3-1 2-3-1-2 3 1 5 3 1 3 2 2 3-2 1-1 4 0 3l1 1h1v2c-1 1-1 2 1 2l1 2 1 2 1 2c0 1 0 2-2 2l-2-2c0-6-2-7-5-2l-1 3c1-1 2 0 2 1l-2 1c-2 0-4-3-2-4s1-2-1-2c-1 1-2 0-2-1l-1-1-1-1c0-2 4-2 6-1 1 1 1 0 1-2v-2l-1 1h-2v-1c2 0 0-2-2-2l-2-1h3c2 1 2 1 2-1l-1-2-2-1-3 1c-1 0-2 1-1 2h-2c-1-2-3-2-4-2-3 1-3 1-2 2l1 1c-1 2-3 0-3-3l2-3 1-4c-1-3 0-6 2-6l1 3v1c4-5 3-8-2-7l-5-1h-2c-1 2-2 2-3 1-2 0-3 0-4 3s-1 4 1 6v2c-2 0-4 2-3 4 2 2 1 2-2 3-2 1-2 1-1-1 3-2 3-3 0-3l-5-2h-8c-1 1-2 1-1 2v2h3l5 1v1c-1-1-2 0-2 1-1 1-2 1-5-1-5-2-6-8-2-8 2 0 2-1 2-2l2-2 1-4c0-4-1-5-5-4-2 1-5-1-4-2h-3c-3 0-9-2-10-4s-4-2-5 0c-1 1-1 2-2 1l-4 1c-1 1-1 1 0 0l-1-1v11c-1 2-4 3-4 0 1-1 0-2-1-2l-1 1-1 2-1 2v5c-2 3-4 3-5 0h-1v4h2c-2 5-2 6 0 6l1 1h-4c0-1-4 0-6 2h-10l-1 2-3 1h-2v6c1 2 2 5 0 5l-2-3-2-3c-5 0-7 0-7-2s0-2-3-2l-3 1-2 3-3 1c-1-1-1-1 0 0h-3v-3c0-2 1-3 3-1 1 1 1 1 2-1l-1-1-2-2v-4c0-2 0-2-3-2-5 1-9 3-8 4l1 4v3c5-1 7 1 3 2-2 1-2 3 0 6 2 1 2 2 1 2-1-1-2 1-3 4l-3 3c-1-1 0-5 1-7v-4l-1-4-1-3v-2l1-2c0-2-3-1-4 2-2 4-4 5-4 3s-4 3-4 5l-2 1-1 2-1 3-1-2-1-4h-3v1c1 2 1 3-2 3-1 0-2 0-1 2 1 3 0 5-3 5l-5 2-4 1-3 1c-3 2-4 2-4 0l-1-1v-2c0-1-1-2-3-2-3-1-4-2-1-4l1-3c-1-2 0-5 2-5l2-2 5-5 2 2 3 2c2 0 2 1 2 2l2 2c2 0 2 0-2-6-2-3-3-4-2-6v-9l-1-1-1 2-2 4c-3 2-3 2-2 0h-5l-5-1-6-1-3-1c-1 2-1 3 2 3s5 3 5 5-3 2-5 0l-3-1c-1 0-2 0-1 2 1 3-3 9-6 8l-2 1-1 2-1 6-1 6-3 3-3 1c1-1 0-2-3-2-2 0-3 1-2 2l-3 3c-4 2-5 4-2 4l1 1-2 1v1l2 1v2c-2 3-2 5-1 4 1 0 1 1-1 1l-2 4-1 2h-6c-7 2-17 1-17-1l-1-1c-1 1-5-1-8-4-2-3-2-3-2-1v5c0 4-1 5-7 5-4 1-5 1-6 3l-3 2c-3 0-6 4-6 7l-3 3c-2 1-6 5-6 8l-2 3-2 3-3 5c-2 2-4 5-4 8-1 3-4 11-8 17-12 26-14 30-16 38-3 14-7 24-11 30l-5 8c-3 7-7 12-14 14-7 3-13 3-17-1zm42-73h-2l2 1v-1zm27-37h-1l-1 1h1l1-1zm153-84l-1-1v1l1 1v-1zm47-4l-1-1-1 2 1 1 1-2zm-43-1c0-1 2-2 2 0 1 2 4-2 4-4l-1-9h3l-2-2c-2-2-3-5-1-4 1 1 1 0 1-2 0-3 0-3-1-1 0 2-2 3-4 1h-1v5c-1 2-2 3-3 2-3-2-4 0-1 3h4c2-2 3-2 3 1l-1 1h-2l-2 1c-2 1-2 5-1 8 2 2 3 2 3 0zm-43-7l-1 1c0 2 1 2 1 1v-2zm99 1l-1-3c-1-2-1-2-2-1l-1 3v2l1 1 3-2zm-14 0l2-1c3 1 3 1 1-1-1-1-2-2-1-3 0-2 1-2 2-1s1 1 1-1 0-2-2-1l-2 2-5-1v-1l1-1h-1c-2 1-2 6 0 6l2 2c-1 1 0 2 1 2l1-1zm8 0l-1-1-1 1 1 1 1-1zm13 0l3-3c2-2 2-3 1-4l-2 1h-2c-2-2-5 0-3 2h2l-2 2c-2 0-2 1-1 2h4zm-29-2l-1-1c-1 0-2 1-1 2s2 1 2-1zm-22-1c1-2 0-2-2-2-1 1-2 1-1 2h3zm321 0l-2-1c-1 1-1 2 1 2l1-1zm-311-2h-1c0 1 1 2 2 1l-1-1zm-38-1h-1c-1 0-2 0-1 1l2-1zm-161-2v-4l-1 1-1 2c-1 0-1-3 1-4h2c2 1 2 0 0-2-2-1-5 0-5 3-1 2 0 3 1 4l1 2 1 1 1-3zm205 1c-1-2-3-1-2 0l1 1 1-1zm30 0c-1-2-1-3 1-3 1 0 2-1 0-3h-2l-1 3-1 2c0 1 2 3 3 2v-1zm256-1l-2-1h-1c2 2 3 2 3 1zm-514-3h-1v2l1-2zm265 1l1-4c2-3 2-4 1-4-2-1-4 0-3 2l-1 4c-2 2-2 2-1 3 2 1 3 1 3-1zm86 1v-2h-1c-2 2-2 3 0 3s2-1 1-1zm-169-2h-2c-1 0 0 2 2 2v-2zm210 1l-2-1v1l3 1-1-1zm-177-1l-1-1v1l1 1v-1zm169 0l2-2c-1-2-4-1-4 0 0 2 0 2-1 1-2-1-4-1-4 1h7zm17-2c-1-2 0-3 2-2 1 1 2 0 2-1h-5v5l1-2zm79 1l-5-5c-1 2 0 4 1 5h4zm-282-1l-1-1-1 1 1 1 1-1zm30-1v-2l-2 2c-1 1-1 2 1 2l1-2zm-14-1l1-1h1c-1-2-3-1-3 1l1 2v-2zm-2 0l-1-1-1 1 1 1 1-1zm39-1h-1c-1 0-2 0-1 1l2-1zm212-1c-1-1-2-2-3-1-4 0-4-2-2-6v-3l-2-1h-1v-2c2-1 1-3-1-3l-2-1-1-2-2 3-3 4v2l2 3 2 2 2 3c0 2 7 5 9 4l2-2zm-11-8h2v1l-2-1zm-228 9l-1-1v1l1 1v-1zm278-1h-1l-1 1h1l1-1zm-481-2v-2l-1 2v2l1-2zm250-5l-1-1-1 2-2 1v1c2 1 4-1 4-3zm97 2l-1-1c-1 0-2 1-1 2s2 1 2-1zm11 0l-1-2-1-1c-2 1-2 5 1 5l1-2zm8-1l-3-1c-2 0-2 0-1 1l2 2c-1 1-1 1 0 0l2-2zm19 0c1 0 2 0 0-1-2-3-3-3-5 0-1 4-1 5 1 2 1-1 3-2 4-1zm61 0l2-1c2-2 1-3-2 0-2 1-2 3-2 3l1-1 1-1zm7 0c-1-1-3 1-3 2h2l1-2zm-197 1l-1-1-1 1 1 1 1-1zm79 0l-1-1-1 1 1 1 1-1zm43-2l-1-1v2l1 1v-2zm42-1c-1-1-2 1-1 3h1v-3zm-29-1c0-2-1-2-3 0v2c2 1 3 0 3-2zm21 1l1-3-2 1c-3 3-2 6 1 2zm-71-1l-1-1-2 1 1 1 2-1zm-92-2c-1-1-4 0-4 1h2l2-1zm174 1l-1-1-1 1 1 1 1-1zm21 0l2-4c0-2 0-2-2-1h-3l-1 1v3c1 2 0 2 4 1zm9-1c0-3-2-2-3 0l1 2 2-2zm-89-3c-1-1-3 1-2 2h1l1-2zm-26-2c-2-3-4-4-4-2l1 1 2 2 2 2c2 1 1 0-1-3zm51 3l-1-1-1 1v1l2-1zm-145-3c-1-2-2-1-1 1l1 1v-2zm151 1c1 1 4-4 2-5v-3l-1-1h-1v-1l1-1h-2c-2 1-2 3 0 3l1 3h-2l-4 3 4 3 2-1zm24 0v-2h-3c-2 2-2 3 0 2h3zm6-3l2-2-2-1c-4 1-5 2-4 4 0 2 1 2 1 0l3-1zm-22 0l-1-1v2c1 1 1 1 1-1zm55 0h-1l-1 1h1l1-1zm-21-1c1 1 1 0 1-1l-1-1-3 3h1l2-1zm12-4c-1-2-2 0-1 3h1v-3zm-74 1h-3l2 1 1-1zm63-2h-1l-1 1h1l1-1zm1-4h-3c-1 2 0 3 2 2l1-2zm116-2c1-3 0-3-3-1l-3 2c2 1 5 1 6-1zm-154 0l-1-2-1 1c-1 2 1 2 2 1zm4-1h-1l-1 1h1l1-1zm4-3l-1-1-1 2c0 1 1 1 2-1zm154-2l-1 1c0 2 1 2 1 1v-2zm-132 0l-1-1-1 1 1 1 1-1zm-478-15l-1-2-1-2-2-2v2l-1 2c-3 0-3 3 0 5h4l1-3zm617-3c-1-1-3-2-3 0l3 2v-2zm-616-2c0-2 0-2-1-1v2c1 1 1 1 1-1zm619-9h-1l-1 1h1l1-1zm-3-4l-1-1-1 1 1 2 1-2zm-17-3l-1-1-2 1 1 1 2-1zm18-1h-1l-1 1h1l1-1zm-620-17l-1-1-1 1 1 1 1-1zm620-6h3l2-4c3-4 1-4-3 0-3 3-4 3-5 1-2-2-4-1-3 1l-1 2c-2-1-2 0-1 1h3l5-1zm3-11c1-2-1-3-5-3-3 1-5 3-2 3l3-1h2v4c1 0 2-1 2-3zm-628-17l1-2v-1c-2-2-4-1-3 0v4c0 3 0 3 1 2l1-3zm630-35l-1-1c-1 0-2 1-1 2s2 1 2-1zm-635-5l-1-2-1-1v2l2 2v-1zm12-7c0-2-3-3-4 0-1 1 0 2 2 2s2-1 2-2zm69-10l-1 1c0 2 1 2 1 1v-2zm-31-4c-1-2-2-1-1 1h1v-1zm25-1v-1l-1-1v3h2l-1-1zm4-1c0-2 0-2-1-1v2c1 3 1 2 1-1zm-12-1l-1 1c0 2 1 2 1 1v-2zm-53-1l-1-1c-1 0-2 0-1 1l1 1 1-1zm41 0l1-1h1l-1-1-4 2h3zm-4-2v-1l-2 1v2l2-2zm25-2l-1 1c0 2 1 2 1 1v-2zm-18 0l-2-1c-1 1-1 2 1 2l1-1zm11-3c0-2 1-3 2-2l1-2-1-3c0-2-2-1-2 1 0 3-1 4-4 5l-2 1 2 2c3 2 4 2 4-2zm494 2c2-1 2-2 1-3h-2l-2 2-1-2-1-2c-1 0-3 2-2 3l1 2 2 2 4-2zm-501 0l1-4-1-3c-1 0-2 1-1 4v4l1-1zm12-2l-1 1c0 2 1 2 1 1v-2zm28 0l-1 1c0 2 1 2 1 1v-2zm-18-3l-1-2-1 4v2l2-4zm-37-2c0-2-1-3-2-3s-1 5 1 6l1 2c0 1 1 1 1-1l-1-4zm6 5l-2-1c-1 1-1 2 1 2l1-1zm4-3l-2 1v2c2 1 3-2 2-3zm416 2l-2-1c-1 1 0 3 1 3l1-2zm30-2h-1l-2 3h2l1-3zm-24 2l-1-3-2-1 1 3c1 2 2 3 2 1zm8-1h-1l-1 1h1l1-1zm31 1l-1-1-1 1 1 1 1-1zm-427-1c0-2-1-1-2 0l1 1 1-1zm-38-3l1-2h1l-2-1c-2 0-3 3-2 5s2 1 2-2zm60 2c1-2 1-2-1-1-2 0-3 0-2 1h3zm412-1v-1l-2 1v2l2-2zm-17 0l-1-1-1 1 1 1 1-1zm-398-3l-1-1-1 2h1l1-1zm442 1v-2h-1l-2-1h-1c-1 1-2 2-1 3h5zm-24-1l-1-1v1l1 1v-1zm-448-2c1-2-2-1-2 0v2l2-2zm18-1c0-3 0-3-1-1v3l1-2zm408 0c-1-2-2 0-1 1 1 2 2 2 2 1l-1-2zm29 2l-1-1-1 1 1 1 1-1zm-431-4c2-5 5-6 7-4h3c1-1 2-2 3-1l1-2c0-2 0-2-3 0l-4 1-4-1h-2v3l-2 3-1 2-2 1c0 3 3 1 4-2zm-10 0v-2l-2 3c0 3 2 2 2-1zm407-1l-4 2h2l2-2zm-88-1l-1 1c0 2 1 2 1 1v-2zm81 0l-3-2c-2 0-2 0-1 1l2 3h1l1-2zm37 2l-1-1-1 1 1 1 1-1zm-49-2l1-1 1-1c0-2-2 0-3 2v2l1-2zm-60-1l-1-2-1 2 1 2 1-2zm35 1l1-2-1-2-1 1-1 2c-2 2-2 2 0 2l2-1zm-13-2c0-2-1-2-2 0l1 2 1-2zm10-1c1 0 1-1-1-1-2-1-4 0-5 3 0 1 4 0 6-2zm15 1l-1-1v-4l-1-3-1 4c0 4 0 6 1 4h2zm18-3l-1 1c0 2 1 2 1 1v-2zm-362 1l-1-1v1l1 1v-1zm283-2h4l-2-3-2-3-1 4c-2 3-2 4-1 4l2-2zm-327-1l-1-1-1 2 1 1 1-2zm344 0c0-3 0-3-2 0-2 2-2 2 0 1l2-1zm38-3c-1-3-1-3-3-1l-2 1v1l2 2h2l1 1v-4zm-350 1l-2-1c-1 1 0 2 1 2l1-1zm267-1h-1l-1 1h1l1-1zm73 0v-2l-1 1-2 1c-2 0-2 0 0-2l1-2h-2c-4 3 0 6 4 4zm-352-1l-2-3c-2-2-3-1-2 2h2l1 2 1-1zm9-1c1-2-3-1-4 0-1 2 0 2 1 2 2 0 3-1 3-2zm238 0l-1-1-1 1 1 1 1-1zm85 0h-1l-1 1h1l1-1zm10 1l1-1c-1-1-3-1-3 1h2zm-89-3l-1 1c0 2 1 2 1 1v-2zm53 1l-1-1-1 1 1 1 1-1zm-301-2h-2l1 1c2 0 2-1 1-1zm10 0l-1-1-1 2c0 1 1 1 2-1zm243 0c-1-2-2-1-2 0l1 1 1-1zm16 0c0-2 0-2-1-1v3l1-2zm-245-3c2-3 0-5-2-2-1 1-2 2-1 3s2 1 3-1zm257 0l-1-2-1 2 1 2 1-2zm69 1l-1-1-1 1 1 1 1-1zm-351-1l-1-1-1 1 1 1 1-1zm326 0c1 0 1-1-1-3l-2-2v3c0 3 1 3 3 2zm31 0l-1-1-1 1 1 1 1-1zm-111-2h-3l2 2 1-2zm44 0c-1-2-3-3-3-2l3 3v-1zm51 0l1-1 1-1h-2l-2 2c-1 0-1-3 1-4l1-1-2 1c-2 1-2 2-2 4 2 2 4 3 4 0zm-12-3c-2-3-2-3-2 0 0 2 1 3 2 3v-3zm-73 0l-1-2-1 2c0 2 1 2 2 0zm-225-2c-1-1-1 0-2 1 0 2 1 2 1 1l1-2zm3-3h1l-1-1c-1 0-2 1-2 3s1 2 1 0l1-2zm13 2v-1l-2 1c0 3 2 2 2 0zm213-1c-1-1-3 1-2 2h1l1-2zm-234 0c2 0 2-2 0-2l-2 2h2zm207-3l1-3c1-2 0-2-1 0-2 2-2 4-1 4l1-1zm26-2l-1 1c0 2 1 2 1 1v-2zm-31-1v-2l2-6c0-2 0-3-1-2h-1l-2-1c-2 1-2 7 0 10 1 2 3 3 2 1zm109-2l-1-3v-1l2-1c-1-1-5 0-5 2l4 5v-2zm-101-3h-1v2l1-2zm-167-2l-1 2c-1 1-1 1 0 0l1-2zm10 2l-1-1-1 1 1 1 1-1zm3-2v-2h-4l4 3v-1zm34-4c1-2 0-3-1-1l-1 3 2-2zm23-1l1-2c0-2 0-2-1-1h-1l-1-1-1 2c1 1 0 1-2 1l-4 1 4 1 5-1zm-58-2l-1 1c0 2 1 2 1 1v-2zm38 1l-1-1v1l1 1v-1zm161 441c-1-2 1-4 4-4 1 0 2 1 2 3s-1 2-3 3c-2 0-3-1-3-2zm-218 0l1-1 1 1-1 1-1-1zm358-5l1-1h1l-1 1h-1zm-340-3c-1-2 1-5 2-4 2 1 1 5 0 5l-2-1zm34-17c-2-2 0-3 2-1v2l-2-1zm-41-3l2-1 1 1-1 2-2-2zm353-13v-1l1 1v1l-1-1zm-352-1v-1l1 1v1l-1-1zm174 0l1-1 1 1-1 1-1-1zm8-15l1-1 1 1-1 1-1-1zm-237-2v-2c1-2 5-1 4 1s-3 2-4 1zm163-2c1-2 2-2 3 0l-1 1-2-1zm114-1l1-1 1 1-1 1-1-1zm-61-3l1-1 1 1-1 2-1-2zm163-7v-2l1 1c0 2 0 2-1 1zm-238-3l1-1 1 1-1 1-1-1zm284-2l2-1 2 1-2 2-2-2zm-206-5l1-1 1 1-1 1-1-1zm155 0l-1-2c0-3 5-2 5 1 0 2-1 2-4 1zm-274-3c-1-1 0-1 1-1s2 0 0 1h-1zm-94-3h2c2 0 2 1-1 1-1 0-2 0-1-1zm125-1l1-1 1 1-1 1-1-1zm101-6v-1l1 1v1l-1-1zm-213-1l1-1 1 1-1 1-1-1zm205-1l1-1 1 1-1 1-1-1zm-191-1l2-1-2 1c-1 1-1 1 0 0zm290-1v-2c2 0 4 0 4 2 0 1-3 2-4 0zm85 1l1-1 1 1-1 1-1-1zm-222-1c-1-1-1-2 1-2l2 1c-1 2-2 2-3 1zm237-1c-1-1 0-1 1-2 2-1 3 0 1 2h-2zm67 0l1-1 1 1-1 1-1-1zm-343-1l2-1 1 1-1 1-2-1zm-98-1v-2c2-1 3 1 1 2h-1zm-46-3l-1-2v-1l2 1 2 1c1 0 2-1 0-3l1-1c2 0 2 0 2 2l1 2 1 2-2-1c-2-1-2-1-2 1s-3 1-4-1zm173 1v-3h1l2 2c0 2-2 2-3 1zm-34-2v-2l2 1-1 1h-1zm47-1l1-1 1 1-1 1-1-1zm17-1v-2c2-1 4 1 4 2 0 2-2 2-4 0zm58 0l-1-2 2 1c0 2 0 2-1 1zm16 0l1-1 1 1-1 1-1-1zm-360-4c-1-1-1-2 1-2v1c0 2 0 2-1 1zm22 0l2-2c2-1 2 0 0 2h-2zm134 0l1-1 1 1-1 1-1-1zm101 0l1-1 1 1-1 1-1-1zm39 0c-1-1-1-2 1-2l1 1c0 1-1 2-2 1zm45-1l1-1 1 1-1 1-1-1zm-117 0l1-1 1 1-1 1-1-1zm51-1c-3-2-6-8-5-10l1-5 2-4 1-2c-1-1 0-1 1-1h7l6 1c5 0 5 1 4 3-1 1-1 2 1 4 3 3 3 7 0 7-2 1-2 2-1 3l-4 3-4 1-5 1c-1 1-2 1-4-1zm164 0l1-1 1 1-1 1-1-1zm-177-1l-1-1h1l1 1h-1zm72 0c-2-1-2-3-1-3l4 2c0 1-2 2-3 1zm-39-1l1-1 1 1-1 1-1-1zm118-1l2-1 1 1-2 1-1-1zm210 0c-2-1-1-3 2-3 2 0 3 1 3 2s-4 2-5 1zm-247-1l1-1h1l-1 1h-1zm88 0c1-2 3-2 3-1l-2 2-1-1zm-124-2l1-1 1 1-1 2-1-2zm58 0l-3-4-2-1c-2 0-2-1-1-3l1-5c0-2 1-3 3-4s2-2 2-3v-2l1 1 6 1c1-2 4 0 4 2l2 2 4 4c2 4 2 4 5 3 1-1 2-1 2 1s0 2-1 1h-3l-2 2-5 3c-4 5-9 5-13 2zm-370-2l1-1 1 1-1 1-1-1zm431-2c0-1 2-3 3-2l-1 2h-2zm-428-1l-1-1-1-2 2 1v2zm410-1l-4-8-2-2c-1 0-2-1-1-2l-1-1h-1l3-2c2 0 2 0 2 3 0 2 0 2 1 0 1-1 2-2 3-1l2-2h5c3 1 3 1 2-1v-2c1 0 2 1 2 3-1 4 0 4 3 6 4 3 4 5 0 5-3 0-3 1-4 3 0 2-1 2-4 3l-6-2zm-555-1c0-1 2-3 3-2l-1 2h-2zm566 0l1-1h1l-1 1h-1zm-213-2c0-3 3-2 4 0 0 1 0 2-2 2l-2-2zm237 1l2-1 2 1-2 1-2-1zm-459-2l1-1 1 1-1 1-1-1zm10 1l1-1h1l-1 1h-1zm6 0c-2-1-3-10-2-10l1 2v1h3c2 2 1 5 0 5-1 1-2 1-1 2h-1zm263 0c-1-1 0-3 2-3l1 2c0 2-1 2-3 1zm78 0l-1-2 2 1 1 1h-2zm-156-1l1-1h1l-1 1h-1zm271 0l1-1 1 1-2 1v-1zm-289-1l1-1 1 1-1 1-1-1zm129 0h2c1 1 1 1-1 1s-2 0-1-1zm-191-2l1-1 1 1-2 2c-2 0-2 0 0-2zm67 1l1-1 1 1-1 1-1-1zm150 0v-1l1 1v1l-1-1zm31-2v-2c2 0 2 1 2 2 0 4-1 4-2 0zm-156 1v-2l1-1c-1-1 1-2 2-2v2c-1 2-1 2 1 2l1 1h-5zm-50-1l2-1h2l-2 2-2-1zm63 0h3c1 1 1 1-1 1l-2-1zm103 0v-2c2-3 3-3 3 0s0 3-3 2zm43 0l1-1 1 1-1 1-1-1zm-176-1l1-1 1 1-1 1-1-1zm127 0l1-1 1 1-1 1-1-1zm218-1l2-1 2 1v1c-1 1-4 1-4-1zm-420 0l1-1 1 1-1 1-1-1zm82 0l2-1 1 1-1 1-2-1zm44 0v-1l1 1v1l-1-1zm-39-1c-1-1 0-1 1-1s2 0 0 1h-1zm265 0l2-1 1 1-1 1-2-1zm-456-1v-1l2 1h-2zm147 0l1-3h1l-1 3h-1zm24 0c-1 0-1-2 1-2l1 1v2l-2-1zm-14-1v-1l1-3c-1-2 0-2 1-2 2 0 5 3 4 5h-2l-3 1h-1zm22-2c-1-4 1-5 3-2 3 3 3 5 0 5l-3-3zm80 2v-1l1 1v1l-1-1zm203 0h2v1l-2-1zm30-1c-1-2-1-2 1-2l2 2c0 2-1 2-3 0zm-214 0l-3-3-4-4-3-2c-2 0-2 0 0-2l3-2 3-4 2-4c1-3 4-2 7 0l2 3v-3c-1-2-1-2 1-2s3 1 2 2l1 2 1 3 2 2 1 4v5l1 3-6 1-8 1h-2zm43 0c-1-2 1-2 2-1v2l-2-1zm118 0l-2-2c-1-1 0-2 2-2s2 1 2 2c-1 0 0 1 0 0l1 1c-1 2-2 2-3 1zm-127-1h2v1l-2-1zm-197-2v-2h1l1 1v2c-2 1-3 1-2-1zm280 1l1-1 1 1-1 1-1-1zm70 0c-1-1 0-2 1-3h1c0 1 1 2 3 2l2 1h-7zm107-1l2-1 2 1-2 2-2-2zm-590 0c-1-1 0-1 1-1 1 1 2 2 0 2l-1-1zm273-1c-2-1-4-8-3-9h2l2-1 3-1c3 0 4 0 2 1-2 2-2 2 0 2l2 1h1v1l-2 3-5 5-2-2zm227 0c0-2 1-2 1-1v2l-1-1zm-274 0c-1-1 0-3 1-3v4l-1-1zm89-1c0-3 3-2 3 0l-1 2-2-2zm36 0c-1-2-1-2 1-2 1 0 2 1 0 3 0 1-1 1-1-1zm8 0c-1-1 2-5 4-5s1 0 0 3c-2 3-3 3-4 2zm49 0l2-1 2-1 3-1c3 1 1 3-3 3h-4zm31 0v-2l1 1h3l2 1h-6zm-237-1l1-1 1 1-1 1-1-1zm6-1v-3l1 1v4l-1-2zm5 1c-1-1-1-3 1-3l1 1c-1 1-1 1 1 1h1c-1 2-3 2-4 1zm191-1v-1l1 1-1 1v-1zm26 1l-2-1c-2 0-3-2-1-3l1 1 2 1v3-1zm103 0v-2l2 1-1 1h-1zm5-1c-1-2 0-3 1-1v2c0 1-1 1-1-1zm-320 0c0-2 2-2 3-1l-1 2-2-1zm111 0l1-1h2l1-1h4c3-2 4-1 2 1l-1 1h-9zm196 0c1-2 3-2 4-1 0 1 0 2-2 2l-2-1zm-270-1l-1-1 3 1h-2zm-79-1l1-1h1l-1 1h-1zm28-1l2-2v2l-2 2v-2zm149 1l-2-1h-2l-1 1c-2 0-1-4 2-5l2-2 2-1 1 1 1 3c2 2 2 2 1 4h-4zm130 0l1-1h1l-1 1h-1zm-254-1c-1-2 0-2 2-2l1 2h-3zm141-1c-1-2-1-2 1-1v2c0 1-1 1-1-1zm3 0c-2-3-2-4-1-4l2 2 2 2v1l-3-1zm24 1l-3-1h-1c-1-1-2-2-3-1l-5-2-1-2 1-1h4c3 0 3 0 1-1l-1-2c0-2 5-3 5-2l1 1 1-1v-2l1-2c-1-2 0-2 1-2 2 0 8 3 8 5l4 1 4-1 1-1c2 0 1 3-3 5l-4 5-2 2-3 2h-6zm8 0h3l-1 1-2-1zm113 0c0-2 2-2 3-1 2 2 2 2 0 2l-3-1zm66 0v-1l1 1v1l-1-1zm-256-1v-1l2 1-1 1-1-1zm164 0l1-1h1l-1 1h-1zm126-1l2-1c3 0 2 2 0 3l-2-2zm-433 0v-2l3 1c0 2-2 2-3 1zm30 0c-1-1 0-1 2-1l3 1-2 1-3-1zm129 0v-2l2 1-1 1h-1zm-97-1l1-1 1 1-1 1-1-1zm19-1c-1-1-1-1 1-1l1 2-2-1zm65 1l-2-1-1-1 4 1v2l-1-1zm82-1v-2l2 1c1 3 0 3-2 1zm25 1c0-1 1-2 3-1l1 1h-4zm-203-1h-2l-2-1 3-1 2-1h-8c-1-1-1-2 2-3l4-1c2-1 3-1 4 3l1 4h-4zm219 0l2-2c3-1 3-1 1 1s-2 2-3 1zm-272-2c-1-1-1-1 0 0l1 1-1-1zm76 0h1l1 1c-1 1-2 1-2-1zm-10 0h-2l-2-1-1-2c-1-1 1-1 3-1 6 1 6 1 4 2-1 1-2 1-1 2v1l-1-1zm245-1v-2l1 2c0 2 0 2-1 0zm-205 0l1-1 1 1-1 1-1-1zm91-1c-2-1-1-3 1-3l2 1c0 2-1 3-3 2zm-58-2v-1l2 1v2l-2-2zm30 0l2-1 1 1c-1 2-3 2-3 0zm8 1l1-1 1 1-1 1-1-1zm-227-2c-1-1-1-1 0 0l1 1-1-1zm122 0l-3-1-2-2 1-1 3-1c3-2 4-1 4 2s-2 5-3 3zm13 0c-2-1-1-4 1-4l2 1c0 1-2 4-3 3zm-35-1v-1h2c0-1 0-1 0 0l-2 1zm12-1l1-2 1 2c-1 2-2 2-2 0zm40 1v-4l1 1 1 2 1 1h-3zm29 0v-2l2 2h-2zm58 0c-1-2-1-3 1-3l2 1h3c1 1 0 1-2 2h-4zm-94-1c-1-4 0-6 3-4v3l-3 1zm79-2h-4l-2-3h3c2 1 2 0 2-1-1-1 0-1 2-1 4 0 4 1 1 2-2 0-2 1 0 2l1 2c0 1-1 1-3-1zm61 1c-1-1-1-3 1-4h3c0 1-3 5-4 4zm-114-1l1-1 1 1-1 1-1-1zm-158-1l1-1 1 1-1 1-1-1zm9-1c-1-1-1-2 1-2l1 1c0 1-1 2-2 1zm230-1l-1-1-2-1h5c2 0 2 0 1 1v2l-1 1-2-2zm-113 0l1-2 1 1-1 2-1-1zm336-1h1l1 1c-1 1-2 1-2-1zm-661 0h2v1l-2-1zm478 0l2-1h1l-1 2-2-1zm6-2c-1-4 0-5 3-4l3 3-1 1-1 1c-1 3-4 2-4-1zm186 2c-1-1-1-2 1-2l2 1c0 1-2 2-3 1zm-224-1c-1-1 1-3 5-4l3 1-2 2-2 1h-4zm193 0c-1-1-1-2 1-2l2 1c-1 2-2 2-3 1zm-317-1l1-1 1 1-1 1-1-1zm135 0l-1-2c0-2 0-2 1-1l1 1 6-3c2 1 0 3-2 3l-2 1c0 1-2 2-3 1zm-119-1c-2-2 1-3 3-2 1 2 1 2-1 2h-2zm128-1l2-1v-2c-2-2-2-6 0-6v1c-1 1 0 2 1 2 2 0 2 0 1-2-1-1-1-1 1-1h3l-2 3c-2 2-3 3-1 2v3c-1 3-5 4-5 1zm8 1v-2l2 1c0 2 0 2-2 1zm-452-1h2v1l-2-1zm412 0v-3c3-2 4-1 2 2l-2 1zm210 0v-1l1 1v1l-1-1zm-735-1l1-1 1 1-1 1-1-1zm67 0l1-1h1l-1 1h-1zm336 0l4-4c2 0 2 0 2 2l-1 2h-5zm8 0l-1-4c0-3 0-3 3-2 2 0 4 3 2 4l-1 1c0 2-2 2-3 1zm122 0l2-1 1 1-1 1-2-1zm-111-1l1-1h1l-1 1h-1zm25 0h2v1l-2-1zm-351-1l1-1h1l-1 1h-1zm16 0l2-1 1 1-1 1-2-1zm635 0l1-1 1 1-1 1-1-1zm-285-1c1-2 0-4-1-4l-2-2c-2-1-2-1 0-1l1-1v-1c2-1 3 0 3 3 0 2 1 3 2 3 3 0 3 0 1 1l-1 1 1 1h-4zm250 0l-1-1c-1 1-1 1 0 0h1l1 2-1-1zm-294-4l-1-1-2-2c-1-3-1-3-3-2-3 2-4 2-4 1 0-2 5-6 7-6 4-1 10 1 10 2l1 2v2l-3 2-1-3-1-4v1l-2 2h-2c-1 1 0 2 1 3 2 1 2 2 1 3h-1zm127 0c-1-2 0-3 1-1v1h-1zm169 1v-8l1 2 2 2c1 0 1 1-1 2l-2 2zm7-1l-2-3c-3-2-3-3 2-1l4 3v1h-4zm-293-2v-1l1 1v2l-1-2zm308 0v-1h1l1-1c2 0 1 2-1 3l-1-1zm-624-3v-1l1 1v1l-1-1zm598-1v-1l1 1v1l-1-1zm13-1h-4c-2-1-2-3 1-3 2 0 6 3 6 4s-1 1-3-1zm-639 0l1-1h1l-1 1h-1zm35-1l2-1-1 2c-2 1-3 1-1-1zm3 1l1-1 1 1-1 1-1-1zm306-2l1-3c2 0 3 1 2 4s-3 2-3-1zm300 1l-1-2c-2 1-2 1-1-2 1-2 2-2 3-1l1 4-1 2-1 1v-2zm43 0c-1-1 0-1 1-1l1 1-1 1-1-1zm-658-2c1-1 2-2 3-1 2 0 2 1 0 1-1-1-2 0-3 1-2 1-2 1 0-1zm-31-1l-1-1 3 1h-2zm-6-1l1-1 1 1-1 1-1-1zm643 0c-2-1-3-6-2-7l2 1h6c2 3 2 5-2 6h-4zm17-1h-2l3-3 3-2c2 0 3 3 3 4-1 2-2 2-7 1zm-625-1l1-1 1 1-1 1-1-1zm583-3l1-1 1 1-1 2-1-2zm3 1l1-1 1 1-1 1-1-1zm-583-5v-1c1 1 2 0 1-3l1-1 1 1h1v1l-2 3h-2zm587 0l1-1 1 1-1 1-1-1zm27 0h3l-1 1-2-1zm7-1c-1-1 0-2 4-3 2 0 2 0 1 2-1 3-4 3-5 1zm-693-1v-1l2 1h-2zm751-1l-1-2c1-1 4 1 4 2h-3zm-720-2l1-2 1 2-1 2-1-2zm726 0l2-1 1 1-2 1-1-1zm-718-1v-2c1-1 1-1 1 1s0 2-1 1zm664 0c-2 0-2 0 0-2s5-2 5 1c0 1-2 2-5 1zm81-1l2-1 2 1-2 1-2-1zm-741-2l-1-2 2 1c2 2 1 2-1 1zm3-2c-1-1-1-1 1-1l2 1h-3zm639-3l2-1c1 0 1 1-1 1h-1zm9-1l2-1 1 1-1 1-2-1zm32-1l3-1c3-1 3 1-1 2-1 1-2 0-2-1zm-39-3l2-1 1 1-2 2c-1 0-2-1-1-2zm8 1c-3 0-4-3-1-4 3 0 4 0 4 3v2l-3-1zm-775-1c-2-1-2-4-1-6 3-3 8-6 11-6 7 0 10 7 4 10-3 2-12 3-14 2zm54-1l1-1 2 1-1 1-2-1zm38 0c-1-1 0-1 1-1s2 0 0 1h-1zm666-1c-1 0-1-4 1-4l1-2c0-2 0-2 2-1l1 3c0 1-3 5-5 4zm3-3l-1-1-1 1 1 1 1-1zm37 1l1-2v2l-1 2v-2zm15-1h2v1l-2-1zm6-1l1-1 1 1-1 1-1-1zm-46-3c0-2 1-3 3-1l4 1c5 1 4 3-2 3-5 0-6 0-5-3zm21 2v-1l1 1v1l-1-1zm74 0c-1-1 0-1 1-1l2 1-1 1-2-1zm-813-1l1-1 1 1-1 1-1-1zm727-2l1-1 1 1-1 1-1-1zm-736-2l2-2 1 1-2 2-1-1zm721-1c0-2 6-6 8-5v1l-2 2-2 2-3 1c-1 1-1 1-1-1zm-665-1l2-1 2 3-2-1h-1l-2 1 1-2zm5 0c-1-1 2-4 3-3l-1 1-1 2h-1zm676-3h2c1 1 1 1-1 1s-2 0-1-1zm-716-3l2-2 2 1-2 2-2-1zm726 0l2-2 2 2-2 1-2-1zm-21-1h3l-1 1-2-1zm12-1v-3c2-1 4 1 4 3s-3 2-4 0zm-696 0l2-2 1 1c-1 2-3 2-3 1zm22 0h3l-1 1-2-1zm-9-4l1-1 1 1-1 1-1-1zm-4-2l1-2c1-1 2 0 2 1 0 2-1 3-2 3l-1-2zm717 1l1-2 1 1-1 2-1-1zm-43-1c-3-1-2-2 1-2l3 1c-1 1-2 2-4 1zm18 0l2-1 1 1-1 1-2-1zm-736-2v-1h5c1 1-5 2-5 1zm50-2c1-2 1-3 3-3 2 1 2 0 2-3l1-3 2-2 2-2 3-1v-1h3c1-1 2-1 3 1 2 2 3 4 1 4v1c1 2-2 3-3 2-3-2-6 0-6 3 0 2 0 2-1 0h-3c-1 1-1 1 1 3s1 3-5 4c-3 0-3 0-3-3zm659 1c-2-1-4-6-3-7 1-2 3-1 7 1l3 2 1 2c0 3-3 4-8 2zm12 0v-2l-1-2-2-2h6l4 1 2 2v1c0 1-1 2-2 1l-1 1h-6zm62 0c-1-2 0-2 2-2l1 2h-3zm-44-3l-2-1v-1h5c4-1 4 0 0 2-2 2-3 2-3 0zm-705-1h3c1 0 1 1-1 1l-2-1zm11 1l1-1h1l-1 1h-1zm17 0l1-1 1 1-1 1-1-1zm729-1c-1-1 0-2 4-3 3-1 3-1 2 1l-2 2h-4zm-59-1h3l-1 1-2-1zm-708-1l1-1 1 1-1 1-1-1zm697-3v-1c2 1 6-2 6-3v-1l1 1 1 2c0 2 0 2-1 1l-2 1c-2 2-4 2-5 0zm-686-1l1-1h1l1-1c1 1 0 2-1 3s-2 1-2-1zm677 1l1-1 1 1-1 1-1-1zm-686-2v-2c2 0 3 0 2 2h-2zm27-2v-3l1-1c2 1 1 6 0 6s-2-1-1-2zm667 1c-1-1 0-1 1-1s2 0 0 1h-1zm42 0h3l-1 1-2-1zm-718-1l1-1 1 1-1 1-1-1zm689-1c-1-2 0-3 2-1l1 2c-1 1-3 1-3-1zm-27 0c-2-1-1-2 3-2 2 0 3 1 2 2h-5zm36 0l2-1 1 1-2 1-1-1zm-23-4c2-2 2-3 1-4h1l4 2-1 1h-2l1 1 1 1-3 1h-2l-1 1 1-3zm-708 1h3l-1 1-2-1zm45-1v-1l1 1v1l-1-1zm651-1l1-1c2 1 1 2 0 2-1 1-2 0-1-1zm63 1l2-1 1 1-1 1-2-1zm-6-3h3l-1 1-2-1zm-769-2l2-1 1 1c-1 2-3 2-3 0zm52-1l1-2 1 2-1 2-1-2zm-66 0v-1l2 1h-2zm763 0l1-1h1l-1 1h-1zm-31-1v-3l-1-2v-1l2-2h4l1 1 1 2c1 0 1 1-2 3-3 3-4 3-5 2zm16-1h9l-4 1-5-1zm-742-1c-1-1 0-1 1-1h2l-1 1h-2zm762 0l1-1 1 1-1 1-1-1zm19 0l2-1 1 1-2 1-1-1zm-744-2l2-1v1l-2 2c-2 0-2 0 0-2zm719 1c-1 0-1-2 1-2 1 0 3 2 1 2h-2zm-695-1l1-1 1 1-1 1-1-1zm675 0l3-4 3 1c1 2 1 2-1 3h-5zm-677-1v-1l1 1v1l-1-1zm689-2c0-2 2-3 5-1 2 1 1 4-2 4-2 0-2-1-3-3zm116 2h4c1 1 1 1-1 1l-3-1zm-831-1l1-1h1l-1 1h-1zm30-1l1-1h1l-1 1h-1zm-52-2v-2c2-1 3 1 1 2h-1zm60 0l-2-1c-1 1-2 0-2-1 0-3 2-3 4 0 2 2 3 3 1 3l-1-1zm682-1l1-1 2 1-1 1-2-1zm68-2l3-1c3 0 3 0 2 1h-5zm-786-1v-1l2 1-1 1-1-1zm28 0l1-1 2 1-1 1-2-1zm695 0c-2-2-1-3 2-3l4 2-1 1h-5zm32 0v-1l2 1h-2zm-45-3l2-2h2c-1 2-4 3-4 2zm-687-1v-2l1-2 1-2c1 1 1 6-1 7l-1-1zm714 0c-2-3 1-4 6-2 2 1 2 1 1 2h-7zm-770-2h2c2 0 1 2-1 2-1 0-2-1-1-2zm764 1l1-1 1 1-1 1-1-1zm15 0l3-1 2 1-2 1-3-1zm-34-3l-2-1c1-1 7 0 7 1h-5zm-679-1v-2h3c0 2-3 3-3 2zm697 0h3c1 0 1 1-2 1-2 0-3-1-1-1zm-714-3v-1l2 1h-2zm744 0l3-2c3 0 3 0 1 1-3 2-4 2-4 1zm-762-1l2-1 1 1-1 1-2-1zm714-1l1-1c2 1 1 2 0 2-1 1-2 0-1-1zm20 0c-3-2-1-4 4-3l4 1-3 1c-3 2-3 2-5 1zm90 0l2-1 1 1-2 1-1-1zm-791-3l-1-1h-1l2-1c2 0 1 3 0 3v-1zm655 0l2-2v1l-1 1-1 2v-2zm22 0c-3-1-3-3 2-4 2 0 2 0 1 1l-1 3c0 1 1 1 1-1h2c1 2-2 3-5 1zm-14 0l1-2h1v2h-2zm8-2l3-1c1 1-1 3-3 3v-2zm-666-1l-2-1c-1 1-2 0-1-2 0-3 1-4 4-2 2 1 4 3 3 5h-4zm-7-1l1-1 1 1-1 1-1-1zm656 0h2v1l-2-1zm41-1c-1-1 0-1 1-1l2-2 4-1c3 0 3 0 3 3s-3 4-4 2h-2c-2 1-4 1-4-1zm58 1c-1-2-1-3 1-3l1-1 1-1c2 0 1 5 0 6l-3-1zm-87-7l1-1 1 1-1 1-1-1zm10 1c-1-1 0-1 1-2 2 0 3 0 2 2h-3zm-735-1c-1-1 0-1 1-1l2 1-1 1-2-1zm796 0l1-1 1 1-1 1-1-1zm-79-1l-3-2c-1-2 2-5 4-5s4 3 4 6c0 2-2 3-5 1zm-695-1l1-1 1 1-1 1-1-1zm725 0c-1-2 1-3 5-2l3-1h5l-3 2c-6 2-10 2-10 1zm-18-1l1-1 1 1-1 1-1-1zm82 0l1-1 1 1-2 1v-1zm-73-1l1-1h1l-1 1h-1zm-687-1l-1-1h6c0 1-3 2-5 1zm11 0h3l-1 1-2-1zm-36-1v-1l2 1-1 1-1-1zm698-1c-1-1 0-2 3-2s3 0 3 2c-1 2-4 2-6 0zm-667-1h3l-1 1-2-1zm662-1c-1-1-1-2 1-2l1 1c0 1-1 2-2 1zm-668-1v-2c2-2 3-1 1 1 0 2-1 2-1 1zm737 0l1-1h1l-1 1h-1zm-772-1c-1-1 0-1 1-1l1 1-1 1-1-1zm708 0l-1-2c0-2 1-2 3-1 5 1 6 4 1 4l-3-1zm15-1c-3 0-3-1-2-3 1-1 1-1-1-1s-3-2-1-3l-1-1c-1 1-2-1 0-2l3 1 2 2c1 0 2 1 1 3l3 2c2 1 3 1 2 2l-2 1-4-1zm-806-1h2v1l-2-1zm50-2c0-1 1-2 2 0l-1 1-1-1zm71-1l-2-2h5c1-2 3-1 5 1 1 3 1 3-2 4l-6-3zm724 1c1-1 2-2 5-2h5l-4 2c-4 2-6 2-6 0zm-707-1l2-1 1 1-1 1-2-1zm649-1l1-1v2c0 1-1 1-1-1zm-657-1c-2-2-2-2 1-2 2 0 2 0 2 2s-1 2-3 0zm660 1h2c2 0 2 1-1 1l-1-1zm-775-1h2v1l-2-1zm779-1l-1-2c1-2 6 0 6 3 0 1-3 1-5-1zm-9-2l2-1 2 1-2 1-2-1zm40 0l-1-1c-3-2-2-3 1-3s3 0 2 1v2l-1 2-1-1zm-733-1c-1-2-1-2 1-1v1h-1zm24-1v-1l1 1v1l-1-1zm8 0l9-5c2 0 3 4 1 5h-10zm693-1v-1l2 1-1 1-1-1zm-700-3l-1-2-1-3c0-3 2-3 2 1l2 2 3 2c1 2 1 2-2 2s-4 0-3-2zm669 1c-1-1-1-2 2-3l2 1v1c-1-1-2 0-2 1h-2zm46 0h2v1l-2-1zm-723-3c-1-2 0-2 1 0v2l-1-2zm12-1c0-1 0-2-2-3-2-3 0-5 4-5l3 1v2c1 0 2-3 1-5l1-3c0-2 1-2 2-1 2 1 2 1 1 2l-1 5c1 4 1 4-3 3s-6 0-5 2v2h-1zm-23-3l1-2h1l1 2-1 2-2-2zm-6 0l1-1h1l-1 1h-1zm713 0c-1-1-1-1 1-2 3 0 4 0 2 2h-3zm65 0l1-1h1l-1 1h-1zm-98-4c-1-2-1-2 1-2l3-1c0-1 0-1 0 0l-1 2-1 1c1 2-2 2-2 0zm5 0l2-1 2 1-3 1-1-1zm133-2l1-1h1l-1 1h-1zm-123-2l2-1 3-1v1c-1 3-5 4-5 1zm-651 0c-1-2-1-3 1-3l2-1c-1-1 0-1 1-1l2-1-3-1h-1l1-1c-1-1 0-1 1-2l1-2c-1-1 0-2 3-1 1 0 2 0 1 1l-1 5c-1 5-2 6-3 5l-1 1c0 2-2 2-4 1zm10 0l2-1 1 1-1 1-2-1zm-23-3l1-1 1 1-1 1-1-1zm661 0h3l-1 1-2-1zm-672-5c0-2-2-3-3-3-1-1 0-1 2-1l2 1 1 1c2 2 2 2 0 3-1 2-2 2-2-1zm5 2l1-1 1 1-1 1-1-1zm688-1l3-2c2 0 2 0 0 2-3 3-4 2-3 0zm-38 0l1-1h1c0-1 6-4 7-3l-1 2v2l-1 1-1-1h-1l-3 1-2-1zm-634-2l-1-1c-2 1-2 1-1-1l1-3 1-2 2-3c-1-1 0-2 2 0 2 1 2 1 1 3l-4 2c-2 1-2 1 0 3v3l-1-1zm644-3c-5-2-3-8 3-7 4 1 4 2 1 3v2l1 1c-1 2-1 2-5 1zm-14-2l1-2c1 0 1 3-1 4v-2zm-635-1v-2l1 2c1 2 0 3-1 0zm-19 0c-1-1 0-1 1-1l1 1-1 1-1-1zm10 0v-2l2 1-1 1h-1zm26 0c-2-1 2-2 4-1l2 1h-6zm-4-4l-3-2-1-1v-3c0-3 2-2 3 1l1 3 1 5-1-3zm599 1v-2l1-2v-1c2 0 1-3 0-4-2-1-2-2 1-4 2-1 2-2 1-3s0-2 3-2l3-2 3-1v4l-2 1c-2-1-2 0-2 1l-1 4c-1 2 2 3 4 1l2-1-1 2-1 3c1 2-3 4-4 3s-2-1-3 1c-1 3-3 4-4 2zm-594-1c-1-1 0-1 1-1s2 0 0 1h-1zm639 0v-2l1 2h-1zm-725-1l1-1 1 1-1 1-1-1zm17 0l-1-1h1l1 1h-1zm73 0l2-2 2-3 2-1 1 2-1 2-2 1c-1 2-4 3-4 1zm575-1l1-3h1v3h-2zm5-1l-1-1v-5h-1c-1 3-3 2-3 0s-1-3-2-1c-1 1-3 0-3-2l3-4v2h2l3 1h2c1 0 2 0 2 2 1 1 1 0 1-2l-1-3c-2 0-2 0-1-2l1-2c-1-2 1-2 3-1v1l-1 2c0 1 1 2 3 1l5-2h1l-4 4-5 5-1 2-1 2-2 4v-1zm-566-3l-2-2-3-1 1-1h1c0-2-2-1-3 1h-2c-2-2-2-2 0-2l4-2c2-1 5-1 5 1l-1 1h-1c0 2 2 2 2 1l4-1h4v-2l1 2c1 1 0 2-2 3l-5 1c-2 0-2 1-1 2v1l-2-2zm657 1c0-2 2-3 3-3v2c-1 2-3 2-3 1zm-676-2c-2-2-2-2 0-2 1 0 2-1 1-4h3l4 5c-3-1-5 0-5 1 0 2-1 2-3 0zm14 1c-1-2 0-2 2-1v2l-2-1zm556-1c2-2 4-3 4-1l-2 2c-4 1-4 1-2-1zm136 1l2-1 1 1-2 1-1-1zm-75-1c0-1 2-2 3-1l-1 1h-2zm-643-2l-1-5v-1h1l1-1 1 3v2c1 1 1 3-1 3l-1-1zm578-1l3-3c3-1 4 0 2 2s-5 2-5 1zm112 0c-1-1 0-1 1-1s2 0 0 1h-1zm-115-1v-7l1 2c-1 2-1 2 1 0 1-2 1-1 1 1-1 4-3 6-3 4zm109 0l2-1 1 1-2 1-1-1zm-827-1c-1-1 0-1 1-1 1 1 2 2 0 2l-1-1zm164-1l-1-1-1-1-1-1v-2l1 1 3 2c3 1 3 2 1 2h-2zm3-5l-2-3 2-1 2 1-1 1v2l2 1 1 1c-1 2-2 1-4-2zm497 1v-2l3 1c0 2-2 2-3 1zm33-1l-2-1c-2 1-3-1-1-2h3l2 2c2 0 2 2 0 2l-2-1zm109 1l1-2 1 1-1 1h-1zm-670-1c-1 0-1-2 1-2 1 0 3 2 1 2h-2zm12 0h4l-2 1-2-1zm6 0v-2c-1-1-1-1 1-1 1 1 2 2 0 3h-1zm23 0l3-1h2v1h-2l-3 1c-2 0-2 0 0-1zm531 0l1-4c2 0 1 3 0 3l1 1v1l-2-1zm20 0v-1l4-3c2-2 3-2 2 0l-3 2v1l1 1h-4zm-25-2c-1-2 0-3 2-1v2c-1 1-2 0-2-1zm-543 0l-1-1h1l1 1h-1zm-14-1v-4l3 4h-3zm30 0c-1-2 0-3 2-3l1-1v-1h1l2-1c1 1 1 0 1-1 0-2 3-2 4 0l2 3v4c-1 1-2 0-3-2s-2-3-4-2-4 3-2 3v1h-4zm549-1c-1-1 0-5 2-3 1 1 2 5 0 5l-2-2zm62 1l1-1 1 1-2 1v-1zm-656-2c-1-2-1-2 1-2l1 2v2l-2-2zm8 1c-2 0-3-6-1-6s2 2 1 2-1 1 1 3l1 2-2-1zm33 0l-1-1c-1 1-1 1 0 0h1l1 2-1-1zm19-1c-1-3 0-5 1-2v3l-1-1zm50 1v-2l1 1v1l1 1-2-1zm426 0c0-2 2-2 2-1v2l-2-1zm92-1c0-2 3-4 4-2h2l1 2c-1 2-1 2-2 1h-2c-2 1-3 1-3-1zm-609-1c-1-2 0-3 1-1l1 2c-1 1-2 1-2-1zm7 1c-1-1 0-1 1-1s2 0 0 1h-1zm519 0l1-1h1l-1 1h-1zm6 0l2-2 1 2h-3zm74 0l1-2 1 1-1 1h-1zm-587-2c0-2 1-2 1-1l-1 2v-1zm503 1l2-3c3-3 3-1 0 2l-2 1zm81-1c-1-1-1-1 1-3s4 0 2 3c-1 2-2 2-3 0zm-56-1v-1l1-2c-1-2 1-2 2 1v1h-1c0 2-1 3-2 1zm49 1l3-2v1c-1 2-3 2-3 1zm65 0l1-1h1l-1 1h-1zm-725-1v-1l1 1v1l-1-1zm71-1v-1c1-1 3 0 3 1 0 2-1 2-3 0zm512 1l3-4c1-2 3-2 4-2 2 1 1 1-1 2l-3 3c-1 2-3 3-3 1zm67 0c-1 0-2-1-1-2l-1-1-2 1-3 1c-2 0-3-1-2-2 0-2 1-2 3-2 2 1 3 0 5-1l3-2v3l2 2-1 1-1 2v1l-2-1zm-548-3l1-2 1 1v2l-1 2-1-3zm53 2l-3-1-4-2c-1-3 0-3 4-2h2l1-1 2 1v5h-2zm-11-2c-1-1 0-2 2 0v1l-2-1zm401 1l-1-3-2-1h-3l1-3v-2l1-2 3-1h2c2-1 3 0 4 3 0 1-1 1-2-1h-3v1l1 1v1c2 0 2 1 2 3 0 5-1 5-3 4zm-4-1l1-2-1 2c-1 1-1 1 0 0zm52-1l2-1c1 1-1 3-2 3v-2zm89 1l1-2 1 1-1 1h-1zm12-1v-1l1 1v2l-1-2zm-70-1l2-2c1 1-1 4-2 4v-2zm65 1l1-2-1 2c-1 1-1 1 0 0zm-566-1l1-3h5v2c0 1-1 2-3 2l-3-1zm461-1l1-2v2l-1 2v-2zm47 2v-5l1 2-1 3zm110-2l1-1 1 1-1 1-1-1zm-669 0l-1-1h-2c-2-1-2-2 0-2l3-2 2-1v1c-1 1-2 1-1 3v3l-1-1zm525 0h-2v-1l2-1h2l2-1v2c-1 2-2 2-4 1zm100 0l1-1 1 1-1 1-1-1zm-567-2l1-1v2c0 1-1 1-1-1zm-37-1l1-2 1 2-1 2-1-2zm17 0c-1-2 0-3 1-1v3l-1-2zm26 1v-2l-1-1v-4l1-1h3c2 0 5 4 5 5h-3c1-1 0-1-1-2l-2 2-1 3h-1zm17-2c-2-2-1-4 1-4l3-7 2-1 1 3-1 2-2 1c-1 1 0 2 1 2 1-1 2 0 2 2 0 1 0 2-2 3-4 1-3 1-5-1zm-99 0v-3l1-1h1c1-1 1 0 1 2 0 3-1 4-3 2zm35-1c-2-3-2-4-1-4l2 2 1 2 1 1c0 2-1 1-3-1zm33 0v-2h1c2 2 1 3 0 3-2 1-2 0-1-1zm470-1l2-2 1 1-1 3-1 1-1-3zm89 1l2-2c2 0 1 1-1 3-2 1-2 1-1-1zm-517 0c-2 0-2-2-1-3 1 0 4 1 3 3h-2zm399-1l2-1v1l-2 2v-2zm4 1v-3c-2-1-2-2-1-3 2-2 3 0 3 2-1 2 1 3 1 1 1-1 1 0 2 1v1h-2l-2 1h-1zm-450-1v-2h2c2 3 1 4-2 2zm473-2l-1-1-1 1-1 1v-3l1-1-2 1-3 1 1-1 2-2 2-2 1 1 1 2c1 1 1 1 1-1v-1c1 2 0 7-1 7v-2zm-481-1v-1l1 1v2l-1-2zm73-1c0-3-1-6-4-8l-1-2h1l2-1 2-2 2-2h1l2-1v2l-3 1c-2 1-2 2 0 3v9l1 1c-1 3-3 3-3 0zm481 2l1-1 1 1-1 1-1-1zm-589-2l1-1v2c0 1-1 1-1-1zm71 1v-2l2 1c0 1 0 1 0 0l-4-4-3-1 2-1h1l2-3 3-1 1 1c0 2 0 2-1 1-2 0-2 0-1 2l1 4c1 1 1 4-1 4l-2-1zm404 0l-2-1c-1 1-3-1-3-3h2l5 2 2 1c-1 2-3 2-4 1zm23 0l1-1h1l-1 1h-1zm113 0l1-2h1l-1 2h-1zm-563-1c-2 0-2 0 0-2v-2c-2 0-1-5 1-6l2-1v-1l1 5v2c1 2-2 6-4 5zm53-1l1-1 1 1-1 1-1-1zm350 1v-2l1 2h-1zm92 0l2-2 1 1-2 2-1-1zm-466-2v-2c3-1 4-1 4 1-1 3-2 3-4 1zm28 1l1-2c2 0 1 0 0 2h-1zm267-1c-1-1 0-5 1-7l1 1c0 4-1 7-2 6zm28 0l1-8v1c0 2 3 2 3 0v-3l3 2c3 3 2 6-1 4-2-1-5 1-4 3l-1 2-1-1zm53-1l-1-3-1-1h-2c0-1 2-2 3-1h2v5l1 2-2-2zm107 1l2-2h1c0 2-3 4-3 2zm-535-2c0-1 3-1 4 1l-2 1-2-2zm17 0v-3l1 3h-1zm33-1l1-3h2v2c-1 2-3 2-3 1zm269-2v-3h1l3-7c2-5 4-7 4-4l-1 2-1 1-1 4-2 6c-2 4-3 5-3 1zm142 2h2c1 0 1 1-1 1l-1-1zm-368-2v-3c1 0 2 2 1 4 0 1-1 1-1-1zm-107 0l1-1 2 1-1 1-2-1zm109-3c-2-3-2-4-1-5s3-1 2 1v1l1 1v2h1l1-2c1 0 1 4-1 5l-3-3zm444 1l1-1 1 1-1 2-1-2zm-547 0l1-1 1 1-1 1-1-1zm359-1l-1-2-1-1 2-1c2 0 3 2 1 5-1 1-1 1-1-1zm109 1l1-1h1l-1 1h-1zm153-1l2-1c1 1-1 3-2 3v-2zm-575-2l1-4 1 2v2c2 1 1 3 0 3s-2-1-2-3zm84 0c-1-4-1-5 1-2 2 2 3 3 1 4l-2-2zm324 1v-3l5 4h-3c-3 1-3 1-2-1zm-430 0l-1-3c-2-2-2-2-1 1l-1 2-2-3c0-2 1-2 3-2l3 3v3l-1-1zm15 0v-2l1 2h-1zm73 0h2v1l-2-1zm29 0v-2l-1-1-1-1h2l1-1-1-1h-1l-1-1c-1 1-4-1-4-2l3-1c2 1 2 0 3-3 0-3 1-4 3-4l2 1-2 1c-1-1-2 0-2 1v5c1-1 1 0 1 3v6h-2zm-91 0v-5l1 2-1 3zm339-2v-4c-1-2-1-2 1-2l1 2 2 3v2l-2 1c-2 0-2 0-2-2zm75 1v-2c1-2 2 0 1 2h-1zm-411-1v-1l1 1v1l-1-1zm58-1l-2-1-3-1-1-1v-8h1c0 4 1 6 2 7v-2l1-3c1-1 1-1 1 2v2l5 5c-1 2-3 2-4 0zm3-1h-3l2 1 1-1zm269 2l1-3v3h-1zm49 0l-1-1c-2 1-2 0 0-3 1-2 2-2 3 2l-1 3-1-1zm144 0l1-2-1 2c-1 1-1 1 0 0zm-592-2c-1-1-1-2 1-1 1 0 2 1 1 2 0 1-1 1-2-1zm75 0v-2l1-2c-1-2 1-1 2 1 1 3-1 6-3 3zm328 0l1-1v2c0 1-1 1-1-1zm52 1l1-1h1l-1 1h-1zm3 0l1-2 1 1-1 2-1-1zm4-1c0-1 0-2 1-1 1 0 2 1 0 2l-1-1zm109 1l1-1 1 1-1 1-1-1zm36 0l1-2 1 1-1 1h-1zm-557-3c-1-3 0-4 2-2h1l1-2 1 2-1 4c0 2-3 1-4-2zm99 1v-3c0-1 3 2 3 4s-1 1-3-1zm186 0c0-2 0-2 1-1v3l-1-2zm52 1h3l-1 1-2-1zm210 0l1-1 1 1-1 1-1-1zm-551-1c-1-2 0-2 2-2l1 2h-3zm364-1c0-2 3-6 4-5l-1 2-1 3-1 2-1-2zm12 0l-1-3 3 4-2-1zm16 1c-1-2-1-4 1-4l3-1c2 0 1 2-1 4-1 1-2 2-3 1zm14-1l1-1 1 1-1 2-1-2zm-383 0l-2-1h-1 3l1 1h-1zm303 0v-2c1-2 1-2 2 0 2 2 2 2 0 2h-2zm118-1l2-1 3 1c-1 2-5 2-5 0zm-399-1v-9h3c2 1 2 2 0 2l-2 1v4c-1 1-1 1 1 1 2-1 3 0 3 1 0 2-3 2-5 0zm8 0c-1-2-1-2 1-2l1 3c-1 1-2 0-2-1zm12 1l4-3c1 1 0 3-2 4l-2-1zm274 0l3-3-1 2-2 1zm208-1v-1l1 1v2l-1-2zm-389-1c-1-1-1-1 0 0l1 1-1-1zm252 1l1-3c1-2 5-4 5-3l-2 2-2 2-1 2h-1zm-421-1v-1l2 1h-2zm47 0v-2l-1-1-1-1 4 1h2l-2-1v-1l3 1c1 1 1 1-1 3-1 2-4 2-4 1zm45 0l3-2c3-2 3-2 4 0l-1 2h-6zm206 0c-1-1 2-4 3-4l-1 2v2l-1 1-1-1zm-256-1l-2-2c0-1 3-2 4 0 1 1-1 3-2 2zm61 0c-1-5-1-5 1-5h4l-2 2-2 2-1 1zm69-2v-1l2 1v2l-2-2zm246 0c-1-1-1-1 0 0l1 1-1-1zm230 1l1-1 1 1-1 1-1-1zm-588-1l1-1 1 1-1 1-1-1zm49 0l1-1 1 1-1 1-1-1zm22 0l2-1h1l-1 1h-2zm243 0l1-2 1 1c-1 2-2 2-2 1zm38-1l1-1 1 1-1 1-1-1zm26 1l-1-2 2 1c0 2 0 2-1 1zm161 0l1-1h1l-1 1h-1zm3 0l1-2 1 1-1 2-1-1zm-591-1v-2l2 2h-2zm356 0l2-1 2-3c0-2 1-3 2-2 2 0 2 4 0 6h-6zm28 0v-2l1 1c0 2 0 2-1 1zm-245-2v-3l2 4-2-1zm328 0l1-2 1 1-1 2-1-1zm8 0l1-2 1 2-1 2-1-2zm63 1l1-3v3h-1zm-513-1l1-1 1 1-1 1-1-1zm35 0h2c2 0 2 1-1 1l-1-1zm236 0l1-2 1 1-1 1h-1zm33 0l1-1 1 1-1 1-1-1zm100-1c1-2 5-2 6-1 1 2 0 3-3 3l-3-2zm-325 0l1-2 1 1-1 2-1-1zm232 0l1-2 1 1-1 1h-1zm50 0v-2l1 1c0 2 0 2-1 1zm33 0l1-1h1l-1 1h-1zm196 0l1-1 1 1-2 1v-1zm-485-1l2-3 1 2c0 2-3 3-3 1zm11 0l1-1 1 1-1 1-1-1zm135 0l1-1 1 1-1 1-1-1zm97 0l1-1 1 1-1 1-1-1zm17 0l1-2 1 1-1 2-1-1zm21 0l1-3c1-1 1-1 1 1v2h-2zm-340-1l1-1 1 1-1 1-1-1zm3 0l1-2 1 1-1 2-1-1zm78-1l1-1 1 1-1 2-1-2zm150 1l1-2c1-1 1-1 1 1l-1 2-1-1zm113-1l1-1v2c0 1-1 1-1-1zm-374 0v-2l1 2h-1zm147 0l2-2c1-2 3 1 1 2-1 1-1 1 0 0l-1-1-1 1h-1zm217 0l1-1 1 1-1 1-1-1zm-406-2l1-2c2 1 1 3 0 3-1 1-1 0-1-1zm24 1c-1-1 0-1 1-1 3 0 3 0 1 1h-2zm140-1l1-2 1 1-1 2-1-1zm31 1l1-1c1 1 2 0 2-1l2-2c2 1-2 5-4 5l-1-1zm250 0l1-2 1 1-1 1h-1zm-376-1c-1-2 3-4 4-2v1c-1-1-2 0-2 1h-2zm-37-1l1-1 1 1-1 1-1-1zm57-1v-3l1 1 1 2-1 2-1-2zm3 0l1-1v2c0 1-1 1-1-1zm41-1l-2-3-1-1c0-3 2-3 3 0l2 3c2 1 2 2 1 3s-2 0-3-2zm6 2c-1-1 0-2 1-2l1 1c0 2-1 2-2 1zm19-1c-1-1 0-1 1-1l1 1-1 2-1-2zm186 0l1-3h1c2 2 1 5 0 5l-2-2zm-298-1l1-2 1 1-1 2-1-1zm56-1l1-3v5c-1 1-1 1-1-2zm300 2c0-2 1-4 3-4l1 1c-1 1-1 2-2 1l-1 2h-1zm13 0l1-1 1 1-2 1v-1zm-244-1c-2-2-1-5 1-5l3-1v2c0 4-2 6-4 4zm114 0c-1-1-1-1 1-1h1c0 2 0 2-2 1zm111 0v-2 1h2l-2 1zm112 0l1-1 1 1-2 1v-1zm-316-1v-1l1 1v1l-1-1zm293-1l2-1-1 1-2 2 1-2zm-362-2c0-2 1-2 2-2h2v1l-1 3-1 1c-1 0-2-1-2-3zm22 1l-1-1-1 1h-1l1-1 2-2 2-2 2-2v3l-1 2c-1 0-2 0-1 1l-1 2-1-1zm-25-1l1-1v2c0 1-1 1-1-1zm76 0v-1l1 2-1 1v-2zm173 1l1-2h1c0 2-1 3-2 2zm-22-2c-1-1-1-1 0 0l1 1-1-1zm244 0c2-1 2-2 2 0l-1 1c-2 1-2 1-1-1zm-567 0l3-1-1 1-2 1v-1zm48 0l1-1h1l-1 1h-1zm62 0l1-1 1 1-1 1-1-1zm26-1l1-1 1 1-1 2-1-2zm136 1l1-1h1l-1 1h-1zm-115-2c0-2 1-2 1-1v2l-1-1zm123-1l1-2-1 4v-2zm-286 1c1-1 2-2 2 0l-1 1-1-1zm34-1v-1c2 0 2 2 1 2l-1-1zm17 1l2-1 1 1h-3zm43-1l1-1 1 2-1 1-1-2zm147 1l1-2 1 1-1 2-1-1zm-93-2v-2l1-1c-1-1 0-1 1-1l1 1-1 3c0 2 0 2-2 0zm10 0l-2-4 4 4c2 3 1 2-2 0zm255 1v-1h4l-1 1h-3zm-290-2v-1l1 1v2l-1-2zm17 0c-2-1-2-1-1-2l1-1h3l1 1-1 1-1 1c0 2-1 2-2 0zm261 1l1-1 1 1-1 1-1-1zm-410-1l-1-2 2 1c0 2 0 2-1 1zm163-1l1-2v4l-1-2zm107 1l1-2 1 1-1 2-1-1zm-131-1l2-1 1 1h-3zm237 0c0-1 2-4 3-3l-1 2-2 1zm-261-2c-2-2-2-2 0-1h4c1 0 2 0 0 1-1 2-2 2-4 0zm7 0l1-1v1l-1 2v-2zm32 0l1-2v2c0 2-1 2-1 0zm58 1l1-1 1 1-1 1-1-1zm197-1l2-1h2l-2 2-2-1zm-332-1v-1l1 1v2l-1-2zm58 1v-1l1 1v1l-1-1zm261 0h3l-1 1-2-1zm55 0l1-2 1 1-1 1h-1zm-279-2c2-1 2-2 2 0l-1 1c-2 1-2 1-1-1zm85 1v-1l1 1v1l-1-1zm162-1l2-1v1l-2 2v-2zm274 0c0-1 4-4 8-5l6-3c3-2 6-3 6-1 0 1-16 10-19 10l-1-1zm-544-2l1-1v1l-1 2v-2zm-139 0v-2l2 1-1 1h-1zm-19-2v-2l1 3-1-1zm128 1l1-1 1 1-1 1-1-1zm-233-2c-1-2 0-3 1 0v2l-1-2zm259 1l1-1 2 1-1 1-2-1zm17-1l1-2 1-1-1 3h-1zm384 0l1-1 1 1-1 1-1-1zm-416-2l1-1v1l-1 2v-2zm177 1l-1-7c1 0 3 7 2 8l-1-1zm-125-2c0-2 1-2 1-1v2l-1-1zm466 1l2-1 1 1h-3zm-73-1l1-1 1 1-1 1-1-1zm-551-2l-1-2c0-1 1-1 1 1l1 3-1-2zm220 0l1-1v2c0 1-1 1-1-1zm83 1l1-1 1 1-1 1-1-1zm-206-2c-1-1-1-1 0 0l1 1-1-1zm20 1v-1l1 1v1l-1-1zm23-3l1-1v2c0 1-1 1-1-1zm247 1l1-2 1 1-1 2-1-1zm-144-3v-2l1 3-1-1zm-133-2l1-1v3l-1-2zm28 1l2-1-1 1-2 2 1-2zm247 0l2-2v1c-1 2-2 3-2 1zm-8-5l1-1 1 1-1 2-1-2zm-241-1l1-1 1 1-1 2-1-2zm4 1v-1c1 1 2 0 2-1l2-1-2 2c-1 2-2 2-2 1zm125 0l1-1h1l-1 1h-1zm-101-2l1-1v2c0 1-1 1-1-1zm250 1l1-1 1 1-1 1-1-1zm-434-2l1-1v2c0 1-1 1-1-1zm278-1c-1-1 0-1 1-1s2 0 0 1h-1zm45 0l1-1h1l-1 1h-1zm-35-2v-6l1 3c0 2 0 4-1 3zm5-4l1-1 2 1-1 1-2-1zm-13-2c-1-1 0-2 1-2v3l-1-1zm-35-2l1-2 1 2-1 2-1-2zm-286 0l1-1 1 1-1 1-1-1zm83 0l1-1h1l-1 1h-1zm399 0l1-2 1 1-1 1h-1zm-438-1l1-1 1 1-1 1-1-1zm307 0l1-2 1 1-1 1h-1zm339 0l1-1 1 1-1 1-1-1zm-554-6v-1l1 1v1l-1-1zm-230-2c-1-1-1-2 1-1l1 1h-2zm607-1l1-1 1 1-1 1-1-1zm-605-9c-1-2 0-2 1-1v2l-1-1zm303-2l1-1 1 1-1 1-1-1zm143-3l1-1v1l-1 2v-2zm-139 0l1-2-1 2c-1 1-1 1 0 0zm43-1l1-1h1l-1 1h-1zm-171-6l1-1v2c0 1-1 1-1-1zm374-7l1-1h1l-1 1h-1z"/>
</svg>
