<svg xmlns="http://www.w3.org/2000/svg" width="2046" height="655">
  <path fill-rule="evenodd" d="M1886.87 397.5l.26 35-135 1-.11-14.337-7.4.864-21.63-185.5-11.1 2.531-7.78-34.124 14.8-3.376-.29-2.535 23.34-2.722 133.15-30.367 7.78 34.124-125.58 28.642 7.39 63.383 99.15-6.547 2.3 34.924-97.39 6.431 8.56 73.419zM1586.3 504.539l68-387 39.4 6.922-68 387zm-64.83-98.613l-167.88 35.2-7.18-34.256 13.35-2.8 2.74-187.329 35 .512-2.63 179.455 124.83-26.175-7.18-143.662 34.96-1.748 12 240-34.96 1.748zM1310 460h-35v-26.235l-138.02 41.01-3.02-10.176-4.45-.137.41-13.454-2.9-9.783 3.23-.962 7.26-235.8 34.98 1.076-.09 2.991 102.6 6.143V79h35v337.1l1.98 6.679-1.98.59V460zm-35-210.265l-103.68-6.208-5.73 186.235 109.41-32.51V249.735zM933.308 445.723l129.652-30.751 8.08 34.056-156 37-8.078-34.056 3.134-.743-11.582.449-9-232 6.435-.249-1.079-8.8 163-20 4.26 34.74-136.719 16.776 3.384 87.229 139.855-10.822 2.7 34.9-141.2 10.926zM827.52 471.836l-10.026-209.714-130.912 81.967 21.874 268.664-44.912 2.494-19.888-244.281-9.369 5.866-22.574-41.664 27.621-17.294-21.79-267.627 44.912-2.494L682.259 291l151.454-94.829 12.568 23.2 4.2-.2.417 8.72 5.39 9.948-4.772 2.988 10.964 229.337zm-367.294-67.6l104.942.764-.336 40-137-1 .139-16.556-8.946-.452 10-198 39.95 2.018-1.1 21.724 92.012-14.49 6.222 39.514-100.3 15.794zM204.151 222.921L394.3 307.737l-6.323 20.131-11.13 132.647-21.065-2.51-.107 4.987-186.127-5.652 1.057-49.435 168.527 5.117 6.235-74.31-168.336-75.087 2.405-7.66-17.064-.21.968-111.963-2.353-18.186 2.515-.463.055-6.439 32.792.4 218.34-40.124 6.324 48.874-216.383 39.767z"/>
</svg>
