<svg xmlns="http://www.w3.org/2000/svg" version="1" viewBox="0 0 969 460">
  <path fill="#ffed00" d="M476 477v-1l1 1v1l-1-1zm-12-7v-1h2l-1 2-1-1zm7-4l1-1 1 1-1 1-1-1zm-19-11l-1-2c1-1 2 1 2 2h-1zm3-1l1-1 2 1c1 1 0 1-1 1l-2-1zm14-7v-1l2 1h-2zm-13-2c-1-2 0-3 1-1v1h-1zm-6-3l-1-3c-2-1-3-3-1-3s4 3 4 5l-1 2-1 1v-2zm-149-2c0-3 0-3 1-2 2 1 3 5 2 5l-1 1c-1 0-2-1-2-4zm13 2l1-1h1c1-1 3-1 3 1 0 1-4 2-5 0zm149-1l2-1c1 0 2-3 0-3l-1-2c1 0 4 2 4 5l-1 1h-4zm-191-1l1-1h1l-1 1h-1zm202 0l1-2c2 1 1 2 0 3l-1-1zm-17-2c0-3 2-3 3 0l-2 2-1-2zm-200 1l1-1h1l-1 1h-1zm62-1l1-1h1l-1 1h-1zm116-1l-1-3c0-2 0-2 1-1 2 0 3 3 1 4h-1zm-150-1l2-3-1 2c0 2-1 2-1 1zm6 0c1-1 0-1-1-1v-1l2-1v-3l-2-6c1-4 0-4-1-3-1 3-5 2-5-1l-2-1-1 2c0 2-2 3-3 1l1-3 2-2c0-1 3-3 5-2 1 0 2 0 1-1l-2-2-3-2v-3c3-1 2-4 0-6l-2-5-2-2h-3c-3 0-3-4 0-7 2-1 3-3 3-5s-1-3-3-1c-2 3-3 2-4-1l-2-5v-2h1c2-2 4 0 3 3 0 2 1 3 2 1 2-5-2-11-7-11l-4-2-4-3-1-1-3-1c-2 0-3 0-2-1l-1-2c-3-2-3-5 0-7 3-1 3-1 4 1l4 1c2-1 2-1 1 1v4l2 2v-3c-2-2-2-3 0-4v-2c-2 0-5-4-7-8-2-5-2-5-6-4h-3l1-2-2-1-3 3c-1 2-3 2-3 0 0-3 0-4-2-4-1 0-2-2 0-4 2-1 3-1 3 1v1l1-1c0-4 0-6-1-5 0 2-1 2-2 1s-1-1-2 1l-2 1-1 3c0 3-1 5-2 5l-3 2c-2 2-2 2-5-3-2-5-2-5 0-7s3-3 1-2l-2-2c-2-2-2-2-1-4 2-2 2-3 0-3l-2 3c-2 4-4 4-5 1l-1-3c-2 0 0-4 1-5v-1l-2-2h-1c0 2-2 3-2 1l-2-1c-1 0-1 1 1 2 2 2 2 2 0 2l-2 2c0 2 2 3 3 1l2-2-1 3c-1 1-1 5 1 6 2 0 2 3 1 3l-1 2v1c1-1 2 0 2 2 1 4 0 6-2 4l-1-2h-2c-2 1-3 0-5-4-1-2-2-2-3-1s-1 1-1-1v-3c-1-1-1 0-1 2 0 3-3 4-4 2-1-1-1-1-3 1-2 1-2 2-1 3 2 2 2 3 0 3l-1-1-2-3-1-3 1-5c1-3 1-3-2-2l-3-1-1-1-1 2c0 2-1 2-4 2h-4l-3 2c-1 0-2 1-1 2l-1 1c-1 0-2 0-1-1l-2-1-3 1 1 1v1l-2 1v1l-1 1-3 2c-2 3-3 2-2-2 0-2 1-3 2-3v-1c-1-1-1-2-2-1l-2 1c-2-1-3 2-1 4s1 2-3 2c-3 0-4 0-4-2l1-2 2-4 2-4c2-2 2-2 0-1h-4v5l-1 3-1 1-1-2c0-2 0-2-2-1-3 0-3 0-2-3l-1-3c-2 0-3 1-1 4v4l-1 2c0 1-1 2-2 1h-4c-2 0-2-1-2-2l-1-1-2-1c0-1-5-2-7-1h-3l-3-1c-3 1-2-1 1-3l2-4c0-3-3-3-3 0-1 4-3 7-5 6h-2c-1 1 0 2 1 2 3 1 3 2 0 3l-2 2-2 1c-4 0-4 0-4-2-1-1 0-1 2-1l3-1-1-1-1-2-1-2c-1 0-2-3-1-4v-2c-2-2-3-1-2 2l-1 2c-1 0-2-1-1-5 0-4-1-5-2-6-2-1-2-2-1-4l1-2 2-1c1-1 0-2-1-2l-4 5-1 1-1-1c0-2-1-3-4-2s-2 2 1 2h2l-4 2c-2 0-3-1-4-4s-2-4-3-3l-18 4c-13 4-20 5-30 5s-15-1-21-7c-3-3-3-4-3-8l4-7 7-4c5-1 18-2 27-1h9l3-1h4l2-1c-1-1 3-2 6-1v-2c-1-1 0-1 2-1 4 1 4 0 2-3l-1-4c1-2 1-4-1-4-1 1-3-3-2-5h5v2 5c-1 2 0 3 1 3l4 2c2 1 2 0 2-1l-1-2v-2l-1-3-1-2v-2c1-1 1-4-1-3v-1h-1c-2 2-3 1-3-4l-2-4c-2-1-1-2 1-1 2 0 3 1 3 2l2 2 2 3h2c2 0 2-1 3-4l-1-3-1 1-1 1c-2 0-1-3 1-3l3-1v-4c0-4 0-5 2-5l2-2h-1c-1 1-1-1-1-2l-1-2-1 2c0 2-1 2-2 2-1-1-1 0-1 1 0 3-2 2-3 0-1-11-1-12 1-12l3 3 1 1v-3c1-1 1 0 1 2s0 2 2 2l2-1v-2l-2-1-1-1-1-2-1-2 2-2v1l1 2 2 2 1 1 2 1v1l-2 1c0 2 2 2 4 0v-4l-2-3h-2c-2 1-2 0-1-2l1-5c1-2 2-1 2 3 1 4 2 6 4 6l1-1h-1l-1-1c0-2 4 0 5 2 0 3 3 4 3 2l-1-1-1-3 1-2c0 2 3 2 3 0l-1-1v-2l-1-1c-3 1-3-4-1-6 2-3 5-2 6 1 2 4 3 4 4 0v-5l-1-2-1 2c1 1 0 2-2 2l-3-1 1-1c1 1 2 0 2-1 1-2 0-3-1-1h-1l-1-1v-1h9c2 0 3-6 2-7l-1 1c0 2-3 3-4 1l-1-1v-3l2-4 1 1c-1 2 6 3 7 1l2-1 1-3 1-6c0-1 2-1 1-2l2-2c1-2 2-2 3-1l3 2c2 1 2 0 2-2l-1-2c-1 1-2 0-2-1v-2l2 2c1 1 3 2 4 1h2v-2l-1-1c-1 1-2 0-2-3s0-3 2-3c4 1 4 0 0-3-3-3-4-2-3 4l-1 5h-1l-2-2h-2c1 3 0 5-3 4l-2 1c1 1 0 2-1 3l-1 1c1 2-1 3-5 3-5 0-5 2-1 2l3 3h-3l-2 1-1-2c1-1 0-1-1-1l-3-2c-2-2-2-3-1-5 1-3 5-6 5-4h1l1 1v2c1 0 2-1 1-3 0-2 2-4 3-2l2 1 2-1 1-4c2-1 2-1 1 1l1 2 1-2 1-1 1-1-1-1-3-2c-2-2 0-3 4-2 3 2 4 2 3-1l1-2c1 0 2-1 1-3l-1-4c-1-1-1-1 1-1h5c2 0 3 1 4 3v3l-1 2v2 1c1 0 3-3 3-7 1-3 1-3-1-3h-1v-2l-1-3c-1-2-3-4-4-3h-1l3-3c2-2 3-2 4-1s2 0 3-1v-3l-1 1-1 2c-1 0-3-3-3-5l-10-10c-2 0-2-2 0-2l3 1 1-1c2-1 2-2 1-2l-2-2-3-2-3-1h3l3 2 2 1h2c1 2 1 1 3-1l2-3 2-4 1-1h-2l3-1 1 2h1v-1l1-1 1-2 1-2 3-3 2-2c2 1 3 0 2-3-1-2-1-2 1-2l3-3c1-2 1-2 3-1 1 2 1 2 2-1v-6c-1-2-2-4-3-3v-1c0-1-1-2-3-2-3 1-3 1 0-1l4-2h2l1 2c0 2 0 2 2 1l2-3 1-1c1 0 2-1 2-3s2-2 2-2l-3 9v3l2 2c0 2 1 3 2 3v-1l1-1 4-1c2-2 2-2 0-2-2 1-3 0-3-1l-1-2-1-2v-4l1-4 2-2c1-1 1-1 2 1 2 3 2 7 1 7l-1 2c1 1 1 1 2-1l1-4h1l3-1v-4c0-3 0-3 2-3 4-1 7-3 6-6s1-4 3-2l3 1v2l2 2 1 2c-1 3 1 2 2-1l3-3 2-2 1-2c2-1 2 3 0 6l-1 3 2-2c1-3 3-3 3-1l1 3-1 3v4c1 2 2 2 2 0v-2l1 2 2 2 2 1c0 1 1 1 1-1s-1-3-2-3l-1-1c0-3 3-8 4-8h1l1 2v1l-3 7 2 1v-1l1-3c1-1 1-1 2 1l1 2-1 4c1 3 0 5-5 10l-1 2c1 2 4 1 5-2 2-3 4-4 3-1-1 2 2 7 3 7l1-3 1-3 1-2v-1c1 1 5 3 6 2 1 0 2 1 1 2 0 2 0 3 2 4 2 2 2 2 0 3s-5-1-4-3c1 0 1-1 0 0s-2-2-2-4v-2l-1 5c1 4 0 5-2 7-2 3-2 3-1 4s2 2 1 3l1 3c1 0 1 1-1 2l-1 3c0 2 6 3 7 1 1-3 2 0 2 3-1 2-6 5-9 5h-1 7l2-1 2 1c2-1 3 1 1 3l-1 3c0 2 0 2 2 0l2-3c0-3 3-2 3 1 1 2 1 2 2 0 1-3 0-3-3-4s-8-7-5-7v-1c-1 0-1-1 1-1l3 1v3c0 1 2 4 4 4v-1l1-2v-1l-1-4c0-4 1-8 2-6v3l-1 1c2-1 4 1 4 4l-1 3v2c1 1 2 0 2-4 0-3 0-3 2-2v3l-1 3v2l-1 2c0 2 0 2-1 0s-1-2-2 0l-1 9 1-2c1-3 4-4 8-2 2 1 2 2 2 3 0 3 0 3 1 1 3-3 6-4 10-4 3 1 4 1 1 4-3 2-2 4 1 2h4v2h1l6 2 3 2 3 1-1 1c-1 0-3 0-4 2l-1 2 3-1 3-2 1-2 2-4c2 0 3-1 3-2l1 1 1 1 2 2 1 2 3 3 3 2 1-3v-2l1-1c3 1 5 0 4-3v-2-3l1 2 1 2v2l1 2 1 1h-1c-2-1-3 0-2 2 1 1 4 1 4-1l2-1h1v-2h2c1 1 1 1 1-1 0-4 1-5 2-2 1 1 1 0 1-1h1c2 1 1 0-2-3-2-3-2-3 0-4h5l2-2-2-2v-1c2-1 2-2 1-2l-1-2c0-2 1-2 2-1l2 1s2 1 2 3l-1 2-1 1c1 2 0 4-1 4v1l-1 1-2 4-2 3-1 1c0 2 3 1 4-1l2-1v2l1 4 1-1 1-2 1-2 2-9v-1c-2-1-2-2-2-3 1-2 1-2 3-1 1 2 1 1 1 0-1-2 1-3 3-1l1 2 1 3c1 2 2 2 3 1v-1c-2 0-2 0-2-2l-1-2c-1-1 0-2 1-3v-1c-2 1-4-1-3-3l2-2h1c0-3 0-3-1-2l-2 1v-1l1-3-1 1-1 1-1 1-1 2-2-1 1-2 2-2c0-1 1-2 3-2 2 1 3 1 4 5l3 5v-1l-1-4h3c2-2 1-3-1-2l-1-2c1-1 0-3-1-4v-3l3-1v-4c2 0 3 2 4 5 0 4 0 4-3 4-3-1-3 0 0 3h3l1-4 1-2 2 1-1 1c-1-1-1 0-1 1 1 3 4 2 5-3 1-1 1-2 2-1v1l2 4c2 2 3 2 2-3 0-3 1-4 2-5 2 0 3 3 2 5-1 1 0 1 2 1l2-1 1-4 2-3-3 1c-3 0-3 0-2-4 0-4 0-4 2-3 1 0 2 1 2 3s0 2 2 2c2-1 4 1 3 4 0 2 1 1 3-1 3-4 4-5 2-4l-2-1v-2l3-2v-4h-1l-1-1c0-2 1-2 3 0s4 2 4 1l1-1 1 2c0 2 0 2-2 1s-3 0-3 2l-1 2v1h2c3-3 5-3 5 0-1 1 0 2 1 1l1 3c-1 4-1 4 1 3 2 0 2 0 1 1l2-1c2-3 3-4 1-4l-1-1v-6-1l1-1h3c1-1 1-1 1 1l1 2 1 2-2 2v1l-1 1c-1 1-1 1 1 2 1 0 1 1-2 3-4 2-5 4-2 3l2-1 3-3c3-2 4-4 3-8l2-1 2 1h1l-1 3-2 3h2l2 1-1 1h-2c-1-1-1 0-2 1l-2 4c-2 0-3 3-1 3l4-5 1-1v1c0 2 1 2 2 1 2 0 3-1 3-2 1-1 1-2 2-1l5-2c3-3 5-3 5-1l-1 3 1 2c3 2 3 3 0 6-2 1-3 3-2 4s-1 2-2 3-5 0-4-1l-1-1-1 5 1 3h3c-1 1 0 1 1 1 2 0 4-2 2-2l-1-2c0-3 4 4 4 7l-1 4h-2l1 1 1 2c0 1 1 1 1-1l3-3 1 1c-2 1-3 4-2 4l1 3c-1 4 2 1 3-3v-6c0-2 0-2-1-1-2 1-3 2-3 0l2-1h3l2 2h4c2 1 2 1 1 3v2c-2 1-2 1-1 2h4l1 1c0 1-2 4-3 3v1l2 1 1 2 1-2v-5c1-2 1-2 3 0v4 2c1-1 1 0 1 1-1 2-1 2 2 2l2-1v-1l1 2-1 2h-1l-2 1c0 2 2 1 5-1 2-1 2-2 1-2v-1l1-3 1-4v3l1 3 1 1-1 1-1 1c-1 2-1 2 1 2s3-1 3-2c0-3 1-3 4-1 2 1 2 3 2 4l-2 1-1 1 1 1c5-1 6-2 7-4l1-3 1 1c-1 2 1 4 4 3 2-1 2-1 1-2h-2c-1 1-1 0-1-1v-3l-1-1-2 1-3 1h-1l-1 1v-2c0-2 0-3-1-2s-1 0-1-3v-5-4l3-3c1 1 1 1-1 3-1 3-1 6 1 5 1-1 1-1 0 0-2 3-1 5 2 4 2 0 4 0 3 1l3 4 3 2-1-2c-2 0-1-3 1-5 3-1 2-3-1-2-2 0-3 0-3-2v-2-3l1-3h2c2 1 5-1 5-2-1-1 0-2 1-4l2-2v5c0 4 0 5-2 6l-3 1-2 1c-2 1-2 1 0 3h4c1 0 2 0 3 2 1 1 3 3 5 3l2 1c1 1 1 1 1-1s-1-3-3-4l-5-1-1-1 3-1v-1c0-2 0-2 2 0 4 4 6 3 10-1l5-4 1-1 2-1 2-1 2-1c1 0 2 5 0 8-1 2 0 2 1 3s3 2 5 1c4-1 6 2 4 4l-3 5v3l2-2 3-1 2-1c3-2 6-1 7 2l-1 3v1l3 1 3 1h1l2-1v2c-1 2 0 3 2 2 1-1 4 0 4 1l-3 1c-3-1-3 0-3 2 1 3 3 3 5 0 1-2 2-2 4-1h2l1-1c2-1 3 0 1 1v2h1l1 1-1 1-1 1c0 2-1 2-2 1l-3-1c-2 0-2 1-2 3 0 3 0 3 2 2l8 1c4 1 4 1 5-1 0-1 1-2 3-1l3-1v-1l1 2 2 1 2 2 1 1v-1-2c1-1 2 0 2 2 0 4 6 7 9 5v-1c-4 1-5-2-2-4 3-3 4-2 4 3l1 5 2-2 2-2v4c-2 3-2 4 1 2 3-1 6-1 5 1h2c-1 3 2 4 4 2h1l2 5c1 1 1 0 1-1-1-3 3-7 6-7 2 0 2 0 1 1l-1 1c0 2 4 1 6 0h4l3 1 1 1h3c2 1 2 1 1-1l-3-1c-2 0-2-2 1-4 2-1 2-1 1 1-1 4 2 4 6 0 3-3 5-4 6-3l-2 3c-2 2-3 3-2 5l1 3 4-2c4-2 4-2 5 0l2 2c0 1 0 2 2 2l2-1c0-3 2-1 3 2 1 4 3 5 5 4s2-2 2-3l1-1v2l1 2 1 1 1 2 3 1h1l1-1c2 0 2 2 1 4-2 1-2 1 0 0h3l1-3c-1-2 0-2 1-2l2 3 3 4c1 0 2 0 1-2l1-1c2 0 2-1 2-2v-1l1 1 2-1c2-1 3-1 3 1l2 2 1-1-1-1c-1 0-1-3 1-3 1-1 6 3 6 5l2 1-2 2c-3 1-3 2-1 5 2 1 2 1 1-1 0-2 0-2 1-1h3l-1-1c-1-1 4-9 6-10l2-1v1c0 2 1 2 2 1s1-1 3 1l4 1 4 2h2c2 0 2 2 0 4s-2 2 0 4l2 2v2c1 2 4 2 4 1l2-2-1-2-3-1 1-1c1 1 1 0 1-1l2-1c2 0 4-2 5-4h1l2 1v2c0 2-1 3-2 3-2 0-5 3-3 3h1l1-1v1h2l3 1h1c1 0 2 0 2 2s0 3 1 2l1 1c0 1 0 2 1 1 2 0 2 0 1 1l1-1h2c0 1 2 1 3-1h2c2 2 2 2 3 0 1-1 6-1 6 1h-1l-1 1 1 2c1 0 2 0 1 2l-1 3-1 1-1 2-2 4h1l2-1v2c-1 1 4 3 5 2l1-6h-2c-2 2-2 2-3 0v-1l1 1 2-1c3-2 4-3 3-1 0 1 1 2 4 1 4 0 5 0 4 1l1 1-1 2c-2 2-2 2 1 1l3-3 1-1 1 1c0 1 0 1 0 0l2-1h4c0 1 3 5 5 5v1h-2c-3-1-5 0-5 2l1 1 1 1h2c1-1 2 1 3 2s2 2 3 1l2 1 2 3 2 3 3 2 3 2v2c1 3 2 1 2-2s1-3 2-3h4c1 1 4 0 4-2l1-1v7l2 5c1 2 1 3 3 3l4 2h2c1-3 6-4 6-2v1c-2 0-4 5-3 8l1 5 1 2c1 0 2-5 1-6v-2h1c0 2 0 2 4 2s4 0 3 1c0 1-2 2-3 1-1 0-3 2-3 4h5c0-2 4 0 4 2s3 2 4 0l4-1c3 0 1 3-2 4-2 0-3 1-3 2-1 1 0 2 1 2l4 2c2 3 2 3 2 1s3-4 5-2c1 1 0 5-4 6h-2c1-2-1-1-3 0-2 2-2 2 2 2l5 1c0 1 0 1 0 0 1-2 4-4 6-3 2 0 2 3 0 3-3 0-4 2-3 2h2l1-1c1 1 1 2-2 4-3 3-3 5 0 5l2-1v-1l1 3v1h2c2 2 0 3-4 3h-3c0 2-2 4-3 3l-1 1c-1 1 2 6 4 6 1-1 2 0 2 3l1 5 1 4c0 3 0 3 2 2 1-1 1 0 1 2 0 3-3 3-4 0-1-1-2-2-5-1-3 0-4 1-7 4l-6 4-2 1c-1 1-3 1-4-1-1-1-3-1-4 1-2 2-3 1-3-2v-2l-4 2c-3 2-4 2-5 1h-3l-2 4-2 1c-4-1-4 1-2 4 2 1 2 1 0 1l-3-1-1-1h2v-1c-1-2-4-1-3 0 1 2-2 2-5 1-2-1-2 0 1 2v2h-2l-3 1h-6c-2-2-2-4 0-3h2c1-2-2-4-4-4-1 1-2 0-3-2l-1-3-3-2-1 1h2v3c0 3 0 3-3 4-2 0-3 0-2-2s-1-2-10-3l-8 1v3l-7 1-3 1h2v1l1 1c1 1 0 1-1 1l-2-1-4-2-3 1-1 2h-4c-3-2-10-2-11 0h-2v-2c1-1 0-5-2-8l-6 5h5v1c-1-1-2 1-4 2-2 3-4 4-3 2v-1c-2 0-7 4-7 5h-3l1 1c1 0 2 1 1 2h-1c0-1-1-1-1 1l-1 2-2-2c0-2 0-3-2-3l-2-1c0-3-1-2-4 1l-4 3-3 1h-4c-3-1-4-3-2-4 2-2 2-3-3-3-4 0-5-1-8-5-2-4-4-4-4 0h-4v3l1 4-1-1c-1-1-3-1-5 1-1 1-1 1-5-3-1-1-2 0-3 1l1 2c2 2 1 4-2 4s-5-2-2-3c1-1 2-3 0-3-1 1-2 0-2-1l-1-3c-2-2-1-4 1-3l1-1 1-3 1 2c-1 2 0 2 1 2v-4c-2-1-4-1-5 1h-4c-3-2-4-2-4 1-1 2-2 2-6 3h-5l1-5c2-4 2-5 1-5s-2 1-2 4l-1 3-11 3h3l3 1c0 2-3 3-4 1h-3c-2 2-7 2-7 0l1-1h2c1 1 1 2 2 1s-1-1-2-2l-1-2c2-2-3-3-7-3-3 1-4 1-5 3 0 3-1 3-3 3l-3-3c0-2-1-2-2-2h-1l1-2c1 0 2-3 1-4h-1l-1 1-3 1-2 2-1 2-1 4h1c5-2 6-1 6 2 0 2-1 3-3 4-2 2-2 2-2 0v-2l-1 2-6 3-2-2c-1-2 0-2 2-2h2c0-3 0-4-1-3h-2l-2-2-1-2v-2l-1-2-1-2v1l-1 1c-1 0-2 0-2-2l-2-2c-2-1-3-1-2 1l-1 2c-2 1-2 1-2-2v-4c2-2 2-4 0-3l-1-1-2 1-2 1-1 1c1 1 0 2-2 3s-2 1 0 1l3 2c1 2 3 3 7 3l6 1c1 1 1 2-1 3v2l2 1c0 2-1 1-5-2-2-2-4-3-5-2l-2-1h-2l-5-2-2-2v-1-3l-1-1-1 2-1 3c-1 2-2 3-1 4s1 1-1 1l-1-2c1-2-3-4-6-3-1 1-1 1 1 1s3 1 3 2c-1 1-2 2-3 1l-3 3-4 3c-3 2-4 1-8-5-1-2-2-2-3 0-1 1-1 1-1-1v-4l-3-1-2-1-2-1c-6 3-6 3-7 2h-3-1l-2-1h-3c0-2-3-1-4 1l-2 3v2l1 3c1 2 1 2-3 2h-3c0 1-2 4-4 4l-1-3v-5h1l-10-2-4-1h-2c-1 1 1 4 3 4l1 2c-1 1-1 2-3 2-3-1-3 0-3 3 1 3 1 3-2 4-2 1-3 1-2 2 2 2 5 3 6 1 0-2 2-3 2-1l2 1h2c0 2-3 4-6 4l-4 1-3 1c-2-1-3-1-3 1l2 1-1 1-2 3 2 1c3 1 3 1 1 4v1l3-1c1 1 1 1-1 2l-3 1 2 2 3 2-4 4c-3 2-4 2-3 3l4 2 3 1c1 3 1 4-1 3s-6 3-11 8c-3 5-3 5-4 0-1-2-1-2 2-2 4 0 5-2 5-5 0-4-2-6-2-2 0 2 0 3-4 2-3-1-4 0-3 3l-1 3c-2 2-2 4 0 3v1l-1 2 2-1h2l-2 2-2 4c0 1-4 4-5 3l1-2 1-2h-1l-2 2v-3c0-2 0-3-1-2s-2 1-5-2l-4-3-5-3-1-1v2c0 2-3 5-4 4-2-1-1-3 1-5 1-2 1-2-1-1s-2 0-3-1c0-2-2-3-4-4-3-1-3-3 0-2l3-1c0-1 1-1 2 1h3-1l-3-3-3-3v-2c-1-2-2-1-2 1l-1 3c-1 2-2 2-3 2l-1-3v-1l-2-1c-1-2 1-8 3-8v-2c1-2 0-2-1-2l-1-2-1-1-1-5-1-6-4-8-2-6-3 1-2-1c0-3-3-6-4-5l-1 3v2l-2-1-1-2-2-2-3-1-2 1c-1 2-7 1-7-1 0-1 0-2 1-1l2-1 1-3v-2l-1-2v-1l-3 1c-4 2-6 1-6-2l-2-2c-2 0-2 1-2 2l-3 1-3 1 2 1 1 1c0 2-1 2-4 2h-3l1 3c-3 0-3 0-3-3v-4l-1 1-5 3c-4 1-4 2-3 3v1l-1 2-1 3h-2l1-1h2c0-1-3-4-5-3-1 0-1 0 0 0 2 1 2 3 0 4-1 0-2 1-1 3l-1 3c-1-1-2 0-2 1l-3 3c-2 0-2 1-2 6l2 7v4c0 3 1 5 3 6 3 3 3 5 1 5l-1-2c0-2-2-3-4-1h-2c-2-1-4 1-4 4s-1 3-3 1h-1l1 2v3l2 1-1 2-1 2-3 3c-2 1-5 6-5 8l1 5c1 4 0 4-1 4l-2 1c1 1 0 1-3 1h-2l-2 4-5 5c-1 1-1 2-3 0h-3l-6 2c-6 0-9 1-9 2l4 4 5 3-3 1c-3 0-5 0-6-2 0-2-1-2-2 0l-2 1-2-1-1-3 2-4c1-1 0-1-3-1l-3 1 2 1c2-1 2 0 0 1l-2 2h2l-1 2-2 1-1 2v-2zm179-32c-1-2-1-2-2-1s0 2 3 3l-1-2zm-3-5h-4v1h3c3 2 4 1 1-1zm-11-2l-2-2c-1-1-1-1 0 0l2 2zm37-5l-1-1-1 2h1l1-1zm-51-8l-1-2c0-2 0-2-2 0-1 1-1 3 1 2h2zm42-5l-1-1-1 1 1 1 1-1zm-224-22l1-2h-2l-2-1-2-1c-1 0-2 0-1 1l1 2c0 1 1 2 3 2l2-1zm309-15v-2h-1-4c-2 0-2 0-2 3 0 2 1 3 2 3h3c1 1 2-2 2-4zm185 3c1-1 1-1-1-1l-3 1h4zm-61-3h-2l1 1c1 0 2 0 1-1zm-81-3l-1-1-1 2h2v-1zm95-1l-2-1v1h2zm-295-1l-1-1-2 1 2 1 1-1zm237-1l-1-1-1 2 1 1 1-2zm-76 0l-1-1h-1l1 2 1-1zm-79-2l-1-1-1 2h1l1-1zm64-2c2 0 2-1 1-2-2-1-3-2-9-1-2 0-3 3-1 3h3l3 2h1l2-2zm-325 0l1-3c0-3-1-5-3-5v-1l4-1v-4c1 1 1 0 1-1 0-2-1-1-3 1l-4 2-2 1c0 1 2 4 4 4v1c-3 1-3 8 0 8l2-2zm-100-3c-2-3-4-4-4-1l1 1h2l1 2v-2zm445 1c2 0 1-4-1-4v1l-1 1-3 2c-1 1-1 1 2 1l3-1zm-453-7l-5-3c-3 0-3 0-1 2l2 1 1 2c0 2 0 2 2 1l1-3zm11 4l-1-1h-2l2 1h1zm27-4c-1-1-4 2-4 3h2l2-3zm430 2l1-2v-1c-2-1-3-1-3 2-1 3-1 3 1 3l1-2zm-385 0l-2-2c-2-1-3-1-1 2h3zm174-2c0-4 0-4-4-3-4 0-4 0 0 5 2 2 4 1 4-2zm218 2l-1-1-2 1 2 1 1-1zm-496-3c1-1 0-2-1-1v1h1zm5-2l-1-3h-1l-1-2-1-3-1-4v5c0 3 0 5 2 7l3 3v-3zm61 3l-2-2h-2l2 1 2 1zm5-7v-1l2-2c1-2 1-2-1 0-1 1-2 2-3 1-2-1-1 1 1 2v3l-1 2 2-1c2-2 2-3 0-4zm21 4c0-2 0-3-1-2-2 0-2-2-2-4l-1-1-2 1-1 1-1-1v-1c-1-1-2 0-1 1l-1 3c-1 1-1 1 1 1 1-1 2 0 3 1h3l2 1v2l1-2zm13 1l-1-2v2l1 1v-1zm32 0h-2l2 1v-1zm358 0l-2-1-1 1 2 1 1-1zm-459-1v-1-1c-3 1-4 3-1 3l1-1zm25 0c3-2 1-2-2 0l-1 1 3-1zm39-2c0-3-2-4-3-2-2 1-3 0-2-3l-1-1c-2 1-2 0-2-2s-1-3-3 0v3l3 1 2 3c1 3 2 4 4 3l2-2zm370 2c1-2 0-3-1-3v2l-1 1c0 2 2 1 2 0zm9 0h-2l2 1v-1zm-460-2v-3c-2-3-2-3-2-1-1 4 1 7 2 4zm495 0l-1-1-1 1 2 1v-1zm-466-3l2-3-2 2-4 3v1l4-3zm3 1h-2l2 1v-1zm431-1h-3c-1 0-2 0-1 1 2 1 3 1 4-1zm-402-1l-1-1-1 2 1 1 1-2zm335 1v-4l-2 1-1 2c0 2 2 2 3 1zm-358-2c2-2 3-3 0-3l-2 3c-1 3-1 3 2 0zm59 1v-1c-1-1-2 0-1 1h1zm-50-3h-1c0 2 1 3 2 2l-1-2zm-32-3c-2-1-2-1-2 1l1 2h1v-3zm47 3l-2-1-2 1 2 1 2-1zm385-1l-1-1-1 2h1l1-1zm-395-5l-1-1c-2 0-2 1-1 2l2-1zm-71-1l-1-1 1 2v-1zm109-1l-1-1-1 1 1 1 1-1zm680 0l-2-1-1 1 2 1 1-1zm-803-1l-4-3c-2 0-4 2-2 3h6zm5-1v-1c-1-1-2 0-1 1h1zm6-1l-1-1-2 1 1 1 2-1zm767-31l-1-1-2 1 1 1 2-1zM88 258l-1-1-1 1 1 1 1-1zm8-6c-2-2-1-4 0-4 1 1 2 0 3-1s1-1-1-1l-3 1-3 3-1 3 2-1h1c-1 3 1 5 2 3v-3zm-6-4c-1-1-1-1-1 1s0 2 1 1v-2zm763 1h-1l-1 1h1l1-1zm-21-8c-1-2-2-1-3 1-1 1-1 2-2 1h-1c-2 2 0 3 3 1s4-2 3-3zm-738 2h-4l2 1 2-1zm6 0l-1-1-1 1 1 1 1-1zm2-6c0-1-2-1-3 1h1l2-1zm-9-2l-1 2h1v-2zm3-2l-2-2v2c0 2 1 3 2 3l1 1h1l-2-4zm722-2c0-2-2-4-3-3s1 4 2 4l1-1zm-714-4c-1-1-2-1-2 1h1l1-1zm20-8h-2v1c2 1 2 1 2-1zm662-1c0-2 0-2-1-1-2 3-2 4-1 4l2-3zm-676-1v-2c-2 0-3 2-3 3 1 2 3 1 3-1zm669 0c0-2-1-1-4 0-1 2-1 2 1 2l3-2zm12-3c0-2-2-2-3 0-1 1-1 1 1 1l2-1zm-650-2l-2-1v1h2zm-29-1l-2-1v1l1 1 1-1zm-9-1l-1-1-1 1 1 1 1-1zm37-1v-3c1-1 0-1-1-1l-1 1v2c-1 2 0 3 2 1zm632-1l-1-1h-1-1l-1 2c0 2 3 1 4-1zm-644-1h-2v1c2 1 2 1 2-1zm-13-1c-4 0-2-2 2-2h3v-2l1-1c-1-2-3-2-5 0l-3 2c-2 1 0 4 2 4h2l-2-1zm628-4l1-4 1-3-3 3c-2 3-3 3-5 2h-2l2 1 1 1h5zm-614-1l-1-1-1 1 1 1 1-1zm-3-3l-1-3-1-3c0-2 2-4 3-3 1 0 1 1-1 1v2l2 2 1-2c2-3 2-3 1-5-1-1-2-2-3-1l-2 1c-2-1-4 6-2 8l1 1 2 3v-1zm12-8c2 0 2 0 1-1-1-2-1-2 1-2 3-1 3-3 0-3-3 1-4 2-3 4l-2 4c-1 1-2 2-1 3 0 2 1 1 2-2l2-3zm1 6c0-2-2-2-2-1v2l2-1zm600-2v-1l-2 2c0 2 1 1 2-1zm-65-8c0-3-2-3-2 0l1 2c1 0 2-1 1-2zm-538-3v-2l-1-1-4-1c-1 1 1 3 3 3l1 1 1 2v-2zm9-10l-1-2h-1c-1-1-3-1-3 1h2l1 1-2 1v1c2 1 3 1 4-2zm442-7l-1-1c-1 0-2 1-1 2 0 2 2 2 2-1zm-3 1l-2-2v1c0 2 2 3 2 1zm-446-12l-3 2h2l1-2zm172-1c-1-1-3 1-2 2h1l1-2zm164-4c0-2 0-3-2-2l-1 2v1l-1-3c0-1 0-2-1-1h-4v1l4 2c3 4 4 3 5 0zm-145 1c-1-2-3-2-3 0l1-1 1 1 2 1-1-1zm-14-1l-2-2c-1-1-1-1 0 0l2 2zm18-4v-3h2v-1h-3c-2 0-2 0-1 3 2 4 3 4 2 1zm-36 0l-1-1-1 1 2 1v-1zm150-1l1-2-2 2-2 2 3-2zm6-1h-1c0 2 1 3 2 3l-1-3zm-97 1h-2l2 1v-1zm108-3l-2-3-1-1-1-1c-1 0-1 4 1 6v1h-1c0 1 1 2 2 1 2 0 3-1 2-3zm-135 2l-1-1-1-1-1-2c-2-1-3 2-1 4h4zm221 0h-1l-1 1h1l1-1zm-278-3h-1c0 2 1 3 2 2l-1-2zm72 1h-4c-2 0-2-1-2-3s0-3-1-2c-1 0-1 4 1 5 0 1 5 2 6 1v-1zm15-1l-1 1c-1 1-1 1 0 0l1-1zm-45-1c0-3-1-2-1 0l1 2v-2zm128 0v-1c-1-2-1-2-3-1l-1 3 2-1h2zm9 1a1 1 0 0 0-2 0 1 1 0 0 0 2 0zm7-1h-1l-1 1 1 1 1-2zm-26 0l-1-1h-2l-1 1 3 1c1 0 2 0 1-1zm37 0h-1l-1 1h1l1-1zm-31-2h-2l-1 1 3-1zm8 0h-1l-1 1h1l1-1zm-34 0l-1-1-1 1v1l2-1zm40-1l-2-1-3 2 2 1 3-2zm-177-2v-1l-2 2c0 2 0 2 1 1l1-2zm85-1c-1-2-3-1-2 1l1 1 1-2zm62 1h-1l-1 1h1l1-1zm-137-1l-1-1c-1-1-5 1-5 2 1 1 5 1 6-1zm160-2l-1-1c-1 0-2 2-1 5l2-4zm-12-1l-2 1-1 1v1h2l1-3zm28 1l-2-1h-1v3h1l2-2zm-204 1h-1l-2 1h2l1-1zm10-1l-1 1c-1 1-1 1 0 0l1-1zm95-1l-1-1h-1c0-3-2-2-3 0 0 2 4 3 5 1zm-81-4c1 0 1-1 0 0l-1 1c0 2 1 1 1-1zm92 1l-1-3c-1-1-2-2-1-3h-1c-1 1-2 0-2-1-1-3-3-2-3 1 1 3 2 4 5 5l2 1c0 2 1 1 1 0zm-227-4c-1-4-4-7-5-3-1 2 1 6 2 6h2v1l1-4zm124 3l-1-2v2l1 1v-1zm8 0l-1-1v2l1-1zm106-1l-2-1v1l1 1 1-1zm28-3l2-3-2 1c-5 3-5 3-4 4l2 1 2-3zm-24-1l-1 2h1v-2zm-231-1c-1-1-2-1-2 1h1l1-1zm-4 0l-3-2c-2 0-2 0-1 1l3 2c2 0 2 0 1-1zm220-5l-1-5-1-3c-2-1-3 0-1 1 1 1 1 2-1 3-1 1-1 2 1 3l2 3 1 2v-4zm57 2l1-2 1 1 2-2c3-2 3-3 1-3h-4l-1-1c-1 1-2 7-1 8 0 2 2 0 1-1zm-195-1l-1-1-2 2c0 1 2 1 3-1zm-89-1c-1-1-1-1 1-1h4l3-2 2-2 2-3c1-1 0-1-1-1l-2-1-2-1c0 3 0 4-2 4l-1 3c0 3 0 3-3 2s-3-1-3 1v2c2 1 2 1 2-1zm13 0l-1-2c-1-1-1-1-1 1s2 3 2 1zm220-1c1-2 1-2-1 0v2l1-2zm11 1l-1-1-1 1v1l2-1zm-153-4c-1-1-2-1-2 1h1l1-1zm155-1l-1-3-1 3c0 4 2 3 2 0zm-6 0v-1h-1c-1 1-1 0-1-1h-1c-1 2-1 3 1 3l2-1zm-10-2l-1-2v2c1 3 2 2 1 0zm-212-1l-2-2c-1-1-2 0-2 1h1c1-1 1 0 1 1l1 2 1-2zm71 0l-2-2-2 2c-1 1 0 2 2 2 3 0 3-1 2-2zm202 0l4-3v-2c1 1 4 0 4-1l-5-1c-5 0-6 1-6 2 0 2 0 3-2 3-1 1-2 2-1 3l2 1 4-2zm1-3l1-2v2h-1zm-49 1l-1 2h1v-2zm-159-2l-1-2v-2l1-1c0-2-2-1-4 2-2 2-2 2-1 3v2h2l3-2zm166-1h-1l-1 1h1l1-1zm-230-5l2-2v-1c-1 0-5 4-5 6h2l1-3zm233 0c-2-3-3-2-2 0l1 2c2 0 2-1 1-2zm-159 0l-2 1v1l2-2zm203 0h-1c0 1 1 2 2 1l-1-1zm-30-4c0-2-3-1-4 1s2 3 4 1v-2zm-238-3h-2c-4 1-5 2-1 2 2 0 3-1 3-2zm27-26v-4c2-2 0-3-2-1-2 3-2 3-1 5 1 3 3 3 3 0zm-7-1l-1-1-2 1 2 1 1-1zm217 372l-1-2c1-1 2 1 2 2h-1zm59 0v-1l1 1v1l-1-1zm5-1h2l1 2h-1l-2-2zm-162-1v-1-2l1-1v2l1 1 1 1h-3zm5 0l1-1 1 1-1 1-1-1zm15 0v-5h2l-2 6v-1zm127 0h-1c-2 0-2 0-1-1 0-2 2-3 2-1l2 1 1-1-1 2h-2zm-80-2c-1-1-1-1 0 0l2 2-2-2zm87 1l1-1 1 1-1 1-1-1zm26 0l-1-2 3 2h-2zm-251-1l1-1h1l-1 1h-1zm40 0v-1l1 1h-1zm290 1c0-1 2-2 3-1l-1 1h-2zm-311-1l1-1h1l-1 1h-1zm75-2l1-1 1 1-1 1-1-1zm-64-1c0-2 2-3 3-2l-1 2h-2zm153 0l1-1h3l2 1-3 1-3-1zm42 0v-1c2 0 2 1 1 2l-1-1zm-59-1l1-1 1 1-2 1v-1zm37 0c-2-1-1-2 0-1l2 1h-2zm9 0v-1l1 1v1l-1-1zm24 0l1-1h1l-1 1h-1zm-15-1c-1-1 1-4 3-4s1 2-1 4h-2zm9-2c2-2 4-3 4-1 0 1-2 3-4 3s-2 0 0-2zm-16 0l2-1 1 1-1 1-2-1zm-194-1c1-2 4-2 4 0l-2 1-2-1zm204-1c-2-3-2-4 1-4 2 0 2 1 2 2v2l1 1c0 2-1 1-4-1zm-193 0c-2-1-1-2 1-2l2 1c0 2-2 2-3 1zm152 0l2-2 1 2-1 1-2-1zm-87-2l2-3c0-2 1-2 3-2l3 1 1 3h-1l-2-2c-1-1-2 0-3 2l-3 3v-2zm120 1l1-1h1l-1 1h-1zm-201-1l2-2 1 2-2 1c-2 0-2 0-1-1zm169-2v-1l-1-1 2-1v4l-1-1zm28 0l-1-2 1-2 1 2 1 1 1 1-1 1-2-1zm-13-1l-2-2h3l4 2h-5zm32 0c-1-1 0-1 0 0 2 0 2 1 1 1l-1-1zm13 0l1-1 2 1c1 1 0 1-1 1l-2-1zm-218 0c0-1 2-2 3-1l-1 1h-2zm166-1l1-1c1 0 1 1-1 1 0 1-1 0 0 0zm16-1c-2-1-3-1-2-2 2-2 4-1 5 2v2l-3-2zm-177 0l2-1-1 1h-1zm138 0l2-2 1 1-2 2-1-1zm7 0c-1-1-1-2 1-2l1 1-2 1zm46 0l-1-2c1-2 1-2 3 0l2 3-4-1zm-199-1l1-3c2-2 4-2 4-1l-1 4h-2-2zm192-1l-2-2-2-1v-3c-1-3 2-3 4-1l3 2 1 2v1l-1 1c0 3-2 3-3 1zm58 1l1-1h1l-1 1h-1zm-33-1l1-2c2-1 2-1 2 1-1 2-2 3-3 1zm8 0c-1-1 0-1 0 0 2 0 2 1 1 1l-1-1zm-11-1l1-2v2h-1zm-81-1l1-1 1 1-1 1-1-1zm23 0c0-1 2-2 3-1v1h-3zm11 0l-2-3c-1-2-1-2 1-4 3-3 3-3 3-1v3 4l-1 2-1-1zm-89-3l-1-2-1-1c0-3 1-2 4 0 2 2 2 3 0 4-1 1-1 1-2-1zm520 1v-3l2 2c0 2 0 2-2 1zm-437-1l1-1h1l-1 1h-1zm71 0v-1l1 1v1l-1-1zm-270 0l1-1h1l-1 1h-1zm265-1l2-1v1l-1 1-1-1zm-54-1l2-1v-7l1 1 2 4c2 2 2 2 1 3h-6zm48 0c-1-1 0-4 1-4l1 3c0 2-1 3-2 1zm-140-1l2-5c2 0 1 5 0 5h-2zm69 0l1-2 1 1-1 1h-1zm7-2l-1-3c1-1 4 3 4 4 0 2-1 1-3-1zm-150-2l2-2c1 0 1 2-1 3l-1-1zm156 0c-1-1 1-5 2-4v3l-1 1h-1zm62 0c-2-2-1-4 1-5 3-1 4 0 3 3 0 2-2 3-4 2zm17 0l1-1h1l-1 1h-1zm-230-2v-1l1 1v1l-1-1zm71-1v-1l2 1h-2zm17 0c-1-2 0-3 1-2v2h-1zm317 0l1-2c2 1 2 2 0 3l-1-1zm105 0v-1l1 1v1l-1-1zm-535-2c-2-2 0-3 2-2l1 2h-3zm140 0c0-2 2-2 3-1 2 1 2 2-1 2l-2-1zm47 0l1-1h1l-1 1h-1zm129-1l2-1 1 1-2 1-1-1zm-391-2l1-1 2 1-1 1-2-1zm175-1l1-2c2 0 1 4 0 4l-1-2zm76 0l1-1h1l-1 2-1-1zm7-1c-1-2-1-3-2-2l-3-1v-2c4 0 9 4 8 6s-2 1-3-1zm-201 0l1-2v2l-1 1v-1zm29-1c0-2 0-2 2-1l1 2-1 1-2-2zm416 1l1-1h1l-1 1h-1zm-274-2l1-2 2 2c1 1 0 1-1 1l-2-1zm97 0c-1-1 1-2 2-1l-1 2-1-1zm-244-1v-1l2 1-1 1-1-1zm109 0l2-1 1 1-1 1-2-1zm143 0v-1l1 1v1l-1-1zm50 0l1-1 1 1-1 1-1-1zm39 0c-1-1 0-1 1-2 1 0 3 0 2 2h-3zm190 0c0-2 1-2 2-1l-1 2c-1 1-1-1-1-1zm-523-1v-2c1-2 1-2 2 0l2 2h-4zm85 0c0-2 2-4 3-5 3 0 3 0 1 3s-4 4-4 2zm280 0v-1l1 1v1l-1-1zm193-1v-1l1 1v1l-1-1zm-327-1l1-1c1-1 2 0 1 1 0 1-2 2-2 0zm168 0v-1l1 1v1l-1-1zm98 0l1-1 1 1-1 1-1-1zm-337-2c0-2 0-2 1-1v3l-1-2zm178 1h2l-1 1-1-1zm47 0c-1-1-1-2 1-2l1 1-2 1zm-11-1c0-2 2-3 2-2l-1 2h-1zm-398-1l1-2 1 1-1 1h-1zm4 1l1-1h1l-1 1h-1zm421-1l1-1h1l-1 1h-1zm48 0c-1-2 0-3 1-1v1h-1zm-342-1h2l-1 1c-1 0-2 0-1-1zm163 0v-1l1 1v1l-1-1zm61 0l1-1 2-1 2 1c-1 2-5 2-5 1zm246-1l1-3c1 0 2-1 1-2l1-1c2 0 2 1 2 2v4c0 3-4 3-5 0zm22 1c-2-2 0-2 1-1v2l-1-1zm-728-1l1-1h1l-1 1h-1zm126-1l-1-2 1 1h5c1-1 1-1 1 1l-2 2-4-2zm278 0l1-1 1 1-1 1-1-1zm144 0l3-3 1 2-2 2-2-1zm38 0v-1l1 1c1 1 0 2-1 0zm4 0l1-2 1 2-1 1-1-1zm-473-1l2-2c2-2 2-2 2 0s-2 3-3 3l-1-1zm143 0l1-2h1v2h-2zm192 0l1-1h1l-1 1h-1zm61 0c-1-2 1-3 3-3 1 1 0 4-1 4l-2-1zm13 0l2-1 1 1-2 1-1-1zm-271-1l2-1h1l-3 1zm32-2l2-1 2 1v1l-2 1-2-2zm9 1l1-2h2l1 2h-4zm238 0l1-1 1 1v1l-2-1zm-448-1l-2-5v-2c1-1 1 0 1 1l1 2c2-1 2 2 1 4h-1zm206-1l-2-2 3 1 1 2-2-1zm175 1c1-2 3-2 3-1l-2 2-1-1zm249 0v-1l2 1h-2zm-617-1l1-1v1h-1zm439 0l2-1 1 1-1 1-2-1zm-307-1l2-1 1 1-1 1-2-1zm177 0l2-2 2 1-2 2-2-1zm312 0l1-1 1 1-1 1-1-1zm-715-1c-1-1 1-2 2-1l-1 1h-1zm49 1l2-2h2l-2 2h-2zm73-1l1-1 1 1-1 1-1-1zm165-1c-1-2-1-2 1-2l2 2c0 3-2 2-3 0zm223 1c-1-2 0-3 1-1v1h-1zm15 0h2v1l-2-1zm168 1l1-1h1l-1 1h-1zm-639-4c0-4 2-4 3-1v2c-1-1-2 0-2 1-1 1-1 0-1-2zm62 1l2-1-1 2c-2 1-2 1-1-1zm241 1l2-1h1l-1 1h-2zm52 0c-1-1 2-3 3-3 2 1 1 3-1 4l-2-1zm55-1h3c2 2 2 2-1 2l-2-2zm-428 0l1-1h1l-1 1h-1zm10 0v-1l1 1v1l-1-1zm37 0l1-1 1 1-1 1-1-1zm279 0c-1-1 0-1 0 0 2 0 2 1 1 1l-1-1zm132 0l2-1 1 1-1 1-2-1zm-525-1l1-1 1 1-1 1-1-1zm153 0l1-2 1 1-1 1h-1zm141 0l1-1 1 1-2 1v-1zm4 0l1-1h1l-1 1h-1zm120 0l2-1c1 0 0 2-2 2v-1zm138 0l1-2 1 2c0 1-1 2-2 0zm29 0v-3c2-2 4-1 4 1s-3 4-4 2zm35 0l1-1h1l-1 1h-1zm4 0l-1-2h1v2zm120-1l1-2h1c2 1 1 4-1 4l-1-2zm8 1l2-1 2 1-3 1-1-1zm-152-1v-1l1 1v1l-1-1zm169 0l2-2 2 1-2 2-2-1zm-279-2v-4c2 0 4 3 4 5s-3 1-4-1zm209 1c-1-1 0-1 0 0 2 0 2 1 1 1l-1-1zm38 0l2-2 1 1-2 2-1-1zm-638-1l1-1 1 1-1 1-1-1zm176 0v-1l1 1v1l-1-1zm32 0l1-1h1l-1 1h-1zm143 0c-1-1-1-2 1-2l1 1-2 1zm15-1l2-1c2 0 2 2 0 3-2 0-2 0-2-2zm153 1l1-1 1 1-1 1-1-1zm-597-1c-1 0-1-1 1-2 2-2 2-2 2 0 1 1-1 3-3 2zm92-1l2-3c1-1 1-1 1 1l-1 3-2 1v-2zm37 1v-1l1 1v1l-1-1zm239 0l1-2v2h-1zm86 0l2-1 1 1-1 1-2-1zm60 0l1-1 1 1-2 1v-1zm11 0c-1 0 0-2 2-2l1 2h-3zm-583 0l1-1h1l-1 1h-1zm126-1l4-2v1l-4 1zm44 0l1-2 2 2c1 1 1 1-1 1l-2-1zm187 0v-1l1 1h-1zm277 0l2-1 1 1-2 1-1-1zm4 0l1-1 1 1-1 1-1-1zm9-1v-3l2-1v1 5l-2-2zm168 1c-2-2-3-3-1-3s4 2 4 3h-3zm-632-1l1-1 1 1-1 1-1-1zm131-1v-2c2 0 5 2 4 3 0 2-2 1-4-1zm16 1l5-3-4 4-1-1zm206 0c1-2 2-2 3-1l-1 2-2-1zm105 0l1-2c1-1 3 1 3 2-1 2-4 1-4 0zm45 0l-2-1c1-1 6 0 6 1h-4zm9-1c0-3 1-4 2-2 1 1 0 4-1 4l-1-2zm142 1c-1-1 0-1 1-1l3 1-2 1-2-1zm-739-1l1-1v-1c-1-1-1-1 1-1 3 0 3 1 0 3h-2zm188-2l-3-4c1-2 3-1 3 1l1 1c2 0 3 0 3 2 0 3-1 3-4 0zm53 2l1-1 1 1-1 1-1-1zm136 0c-1-1-1-1 1-3 2-1 3-2 3 0l-2 4-2-1zm123 0v-1l1 1v1l-1-1zm110 0l1-2v2h-1zm21 0c-1-1-1-2 1-2l2 2c1 1-2 2-3 0zm-387-1l-1-1-2-1c0-3 1-3 3-2 3 2 3 1 2 3 0 2-2 3-2 1zm96-1c-1-2 0-3 2-3v3c-2 2-2 2-2 0zm125 2l1-1h1l-1 1h-1zm5-1c-1-2 0-3 1-2v2h-1zm180 0c0-1 1-2 2-1v1c0 2-2 1-2 0zm32 0c0-2 2-3 3-2 2 2 1 3-1 3l-2-1zm-609 0l2-1c0-1 1-1 0 0l-2 1zm138-2v-2l2 2-1 2-1-2zm273 1l4-2-2 2h-2zm-478-1c0-1 1-2 3-2 4 1 4 3 0 3l-3-1zm194 0l2-3h2c1 1 0 2-1 3h-3zm160 0l1-1c2 0 3 1 1 1h-2zm61 0l1-1 1 1-1 1-1-1zm88 0v-2c1-2 4-1 3 1 0 2-1 2-3 1zm136 0v-1l1 1v1l-1-1zm75 0h2l-1 1c-1 0-2 0-1-1zm-756-2c-1-2-1-2 2-2l2 2c-1 2-3 2-4 0zm87 0c0-3 1-4 2-2l1 1h1l-2 2c-3 1-3 1-2-1zm26 1l1-2 1 2c0 1-1 2-2 0zm272 0v-1l1 1v1l-1-1zm341-1h-9c0-1 1-2 9-2 6-1 7-1 6 1s-5 3-6 1zm-732-1l1-1 1 2-1 1-1-2zm294 0l-2-3 1-1 3 2 2 2c2 0 1 2-1 2s-3 0-3-2zm144 1v-2l2 2v1l-2-1zm64 0l1-1 1 1-1 1-1-1zm69-1c0-1 2-1 3 1l-1 1-2-2zm54 0v-2l1-1 2 1-3 4v-2zm89 2v-5l3 4-3 1zm92-1l1-1h1l-1 1h-1zm-814-1l-1-1-2-1c0-2-3-2-4 0l-2 1c-1 0 0-2 2-3 2-3 3-3 3-1l1 1h1c-1 1 0 2 2 2 2 1 2 3 0 3v-1zm245 0l-3-1-4-1 1-1h1c0-2 2-3 4-2l2 6-1-1zm226 0l1-2h1l-1 2h-1zm62 0l1-1 1 1-2 1v-1zm10 0v-1h-4c-1 2-2 1-2-1l1-2h2l-1-1h-2c-1-1 0-1 2-2 3 0 5 1 5 2-1 1 0 2 1 3v2h-2zm30 0l2-2 1 2-1 1-2-1zm138-1v-1c2 1 3 3 1 3l-1-2zm-623 0v-1l2 1-1 1-1-1zm299 0c-1-1 0-5 1-4v1h5c1 1 0 1-1 2l-2 1h-3zm93 0c1-2 3-2 3 0l-1 1-2-1zm148 0l1-1 1 1v1l-2-1zm48-1l-1-1 3 2-2-1zm106 1c-2-2 0-2 1-1v2l-1-1zm-732-1v-3c2-1 2-1 2 1s-1 4-2 2zm33 0l1-2 1 1-1 1h-1zm30 0v-1l1 1v1l-1-1zm386 0v-1l1 1v1l-1-1zm15 0l-3-1c-2 0-3-2-2-3 2-3 4-2 5 1 2 3 1 5 0 3zm13 0l1-1v-2c-2-3 0-5 4-3 3 1 4 3 2 3l-1 1c1 1 0 2-4 3l-2-1zm249 0v-1c2 0 2 1 1 2l-1-1zm26 0h-3c-3 0-4-1-2-3 1-1 2 0 5 1 3 2 4 3 1 3l-1-1zm-725-1l2-2c2 1 3 2 0 2h-2zm207 0l1-1h1l-1 1h-1zm401 0h2v1l-2-1zm-665-1l1-2h2v2h-3zm26-2l1-1v3l-1-2zm24 2l-1-1h3c1 2 0 2-2 1zm198 0l1-1h1l-1 1h-1zm233 1l1-1h1l-1 1h-1zm203-1v-1l1 1v1l-1-1zm33 0l2-1 3 1-3 1-2-1zm13 0c0-2-2-2-4-2l-1-2c0-2 4-1 5 2 2 3 2 3 0 3v-1zm-800 0l1-1h1l-1 1h-1zm339-1l2-1 1 1-1 1-2-1zm91 0c-1-1-1-1 1-1l2 1h-3zm22 1l2-1h1l-1 1h-2zm61-1v-1l2 1h-2zm8 0c-1-1 1-4 2-4 2 0 2 4 0 4h-2zm46 0l1-2c1-1 5 0 5 1 0 2-5 2-6 1zm-510 0l2-1c0-1 1-1 0 0l-2 1zm107-1l4-2c0 1 1 1 0 0l2-1c3 1 2 3-2 4l-4-1zm130 0v-5l4 1 2 1-3 2-3 1zm18 0l-3-2c-2-1 1-3 3-1 3 1 2 4 0 3zm34 0v-2l2 2h-2zm131-1c-2-2-3-2-4-1s-1 1-1-1c1-2 1-2-3 0-4 3-7 2-6-1l-1-2-3-2c-1-1-1-1 1-3 3-3 6-3 6 0 0 2 1 2 3 2 3 0 3 0 3-3v-1l5 2 3 1-1 3c-2 4-2 4 0 4l1 1v2l1 1-4-2zm119 2v-2l3-1c2 0 2 0 1 2l-4 1zm208-1l2-2 1 1-1 2-2-1zm34 0h2v1l-2-1zm-774-1c-2 0-2-1-2-2l-1-3c-1-2 0-3 2-2h1c-1-1 0-1 1-1l3 1 1 1 3 1c1 2 1 2-2 2s-4 0-3 1c0 2-1 3-3 2zm47 0l1-1 1-1v-2c2 0 3 3 2 4h-4zm617-2c1-5 2-7 5-5h2l1 1c0 1-1 2-4 1h-2v4c-2 3-2 3-2-1zm16 2l3-3c2-1 2-1 1 1-1 3-4 4-4 2zm77 0l-3-1c-3 0-2-1 2-2l4 2 1 1h-4zm28 0v-1l2 1 1 1-3-1zm-815-2c-2-2-2-2 0-2h1l1 2 1 1c-1 1-2 0-3-1zm94 1l1-1h6l-6 2-1-1zm744 0l1-1h1l-1 1h-1zm-773-1v-2l1 2v1l-1-1zm6 0c2-2 4-3 4-1l-1 1-3 1v-1zm37 0v-1l1 1v1l-1-1zm16 0l1-1h1l-1 1h-1zm19-1l-1-2v-3l1-2c0-3 6 0 6 3l1 1 1 1-2 1-4 2c-2 1-2 1-2-1zm5-4h-1l-2 1h2l1-1zm121 5l-1-2c-1-3 3-4 6-3 2 2 2 2-1 3l-3 2h-1zm208 1l1-1h1l-1 1h-1zm7 0l1-1h1l-1 1h-1zm89-1l-1-1-1-1c-1-2 0-1 3 1l1 2-2-1zm181 0l-1-2-1-1h2l4 1c3-1 3-1 2-2s-2-2-3-1v-1c0-3 1-2 4 0 2 2 2 2 0 4-2 0-2 2-2 2l-2 1-3-1zm20 0c-1-1-1-4 1-4l4 4h-5zm27-1h2l2 2h-2l-2-2zm-683-1c0-2 1-3 2-3v3c-2 2-2 2-2 0zm677 1l-1-2-1-1c-1-1-2 0-1 1 0 1-2 2-3 0l-4-1-4-2v-1l3-1h6v-2l6 1 1 1v2c-3-1-3 0-1 2l2 4-3-1zm23 0l1-2 2 2c1 1 1 1-1 1l-2-1zm-729-2l-2-1-1 2v-3c2-2 2-2 3-1l1 1 2 1c3 2 4 2 4 0l1-2 1 2c-1 3-7 4-9 1zm47 1l1-2 1 1-1 1h-1zm354 0l-1-1h-3c-1-1-1-1 2-1 2 0 3 0 3 2l-1 1v-1zm-431-1h2l1 1h-1l-2-1zm51-1l-2-1h-1l-1-3c-1 0-1-1 1-1 1-1 4 1 4 3l2 1c3 1 3 2 0 3-2 0-3-1-3-2zm186 1l1-1 1 1v1l-2-1zm451 0l1-1 1 1v1l-2-1zm-676-2l2-2c2-1 2-1 2 1h3l-1 2-4 1c-1 0-2 0-2-2zm696 1l-3-1h-1c-1-2 4-4 6-2 2 3 1 4-2 3zm-720-2l-1-2 5 3c0 2-4 1-4-1zm83 1c0-2 8-5 10-4s1 2-3 2l-4 1-2 2-1-1zm-115-2l1-2 1-1v-2l4-1v1l1 1 1-2v-1l2 1c1 2 1 3-1 5-1 2-3 3-3 1l-3-2v2l-1 2-2-2zm273 1v-2l1 2v1l-1-1zm-301-1l-1-2v-1c-2 0-1-2 1-2 2-1 2-1 1 3l-1 2zm12-1l-1-3h1c0 2 0 2 1 1h1l4 1c6-1 5 0-3 2-1 1-2 1-3-1zm60 0c0-1 3-4 4-3h8c1 2-1 3-3 2h-3c0 2-5 3-6 1zm59 1h-3c-1 0-3-2-3-4l3-1 2 1v3l2 2-1-1zm-107-1v-2c2 1 2 2 1 3l-1-1zm24 0v-4l1-2 2 2c2 2 3 3 2 4-2 1-3 0-3-1 1-1 0-1 0 0l-2 1zm17-1c-1-1 1-5 2-5 2 0 3 2 2 4l-4 1zm28 0l1-2h1l2 1v1h-4zm200 0l1-1h3l-2 2-2-1zm-313 0l1-1h1l-1 1h-1zm105-2l-1-3c0-2 0-3-2-3l-3 1-3 1-3 1h-2c-2-1-1-2 1-2l3-1 2-1c1 0 2-1 1-2 0-2 0-2 2-2h8l1 2-1 1c0 2 0 2 2 1l-1 2-1 3c2 0 2 1 0 3-1 1-2 1-3-1zm707 0c0-2 1-2 3-1 1 2 1 3-1 3l-2-2zm-748 0l3-1-1 1-2 1v-1zm-20-1c1-3 2-4 3-3 3 1 1 4-1 4l-2-1zm283 0c-1-1 0-1 0 0 2 0 2 1 1 1l-1-1zm552 0l1-1 1 1-1 1-1-1zm-839-1c-2-1-2-2-2-4 1-2 4-2 3 0l1 3v1h-2zm84 0l1-2 1 2-1 1-1-1zm23-2l-1-2h-1l-1 1v-2h3v3zm694 0l3-2c3 0 3 0 2 2-1 1-5 2-5 0zm-322 0l1-1h1l-1 1h-1zm-471-2l1-1h1l-1 1h-1zm18 0c1-2 3-2 3 0l-2 1-1-1zm81-3l-1-2-1-1c2-2 5 0 4 2 0 2-2 3-2 1zm695 0v-1c2 0 2 1 1 2l-1-1zm-849-1v-1l2 1-1 1-1-1zm118 0l-1-3h1l1 3h-1zm-99-1c-1-1-1-2 1-4l4-2c2 0 2 2 0 5-4 2-3 2-5 1zm816 0h2v1l-2-1zm2-2l1-1 1 1v1l-2-1zm9 0l-1-2-1-1 2-1c2 0 2 1 2 3l-1 2-1-1zm-868-3l1-1 1 1-1 1-1-1zm859-2c3 0 2-2 0-4l-2-2c1-1 4 0 5 2l2 2 1 1-1 1h-1l-3 1c-1 0-2 0-1-1zm-830-2c-1-2 0-2 2-2l2 2-2 1-2-1zm17-4h2v1l-2-1zm866-2l2-1 2 1-2 1-2-1zm-46-3l2-1 1 1-1 1-2-1zm-4-1l1-1c1-1 1 0 0 0 0 2-1 3-1 1zm54-1h2v1l-2-1zm-57-5c-1-2 1-3 5-2h2l-2 2h-5zm38-1h5c1 1 1 1-2 1l-3-1zm-10-1l1-1 1 1-1 1-1-1zm25-1l2-1 2 1-2 1-2-1zm-33-5h3l-3 1v-1zM60 281l2-1h1l-3 1zm836-3c-2-2-2-3-1-3l4 1c3 1 3 1 2 3-1 3-4 3-5-1zm-12-8c-1-5-1-7 1-7l1 2 1 1c1-1 2 0 1 1-1 3-4 5-4 3zm16-5l1-1h1l-1 1h-1zm-831-5l-1-1h-2l2-1v-3c-1-1-1-1 0 0 2 0 3 6 2 6l-1-1zm807 0l1-1h1l-1 1h-1zm0-8l2-1-1 2c-2 1-2 1-1-1zm9 1v-2l2 1c1 1-1 2-2 1zm-825-2c2-2 4-2 2 0l-2 1v-1zm879 0l1-1 1 1-1 1-1-1zm-864-2v-3c1-1 1-1 2 1s1 3-1 3l-1-1zm804-1c0-2 2-2 2-1 1 1 0 2-1 2l-1-1zm26 0l3-1c2 0 2 0 1 1h-4zm-44-1l2-1-3 2 1-1zm-789-1l-1-5v-2h1l1 1 1 4c0 3-1 4-2 2zm784-1l2-2 1 1c-1 2-3 2-3 1zm-18-4c-1-3 0-5 3-5 2 0 2 0 0 1l-2 3 2 1h1c-1 2-3 2-4 0zm10 0c0-2 2-2 3-1l-1 1h-2zm-787-4l1-1 1-4c0-3 0-3 1-2l2 3-1 2-1 1-2 1h-1zm793 0l2-3c3-1 4-2 5-1l2 2h-1c0-1-5 0-7 2h-1zm-786-1v-3c-1-3-1-3 1-1 1 1 2 2 1 3l-2 1zm5-2l1-1 1 1-1 1-1-1zm769-1v-1l1 1v1l-1-1zm-4 0c-1-5 0-9 3-6l-1 3c-2 1-2 1-1 2v1h-1zm-8-2v-2c2-1 3-1 3 1 1 2 0 2-3 1zm-774-2v-3c1-2 2-2 3 0s1 3-1 4c-1 1-1 1-2-1zm767-5v-1l3-3c2-2 3-2 3-1l1 3h-2l1 2 1 1c0 1-6 1-7-1zm42-1c1-4 2-5 3-2 0 3 0 5-3 5v-3zm-799-3c-4-1-4-3-1-3s5 2 5 4c0 1-1 1-4-1zm765 2l1-2 1 1-1 1h-1zm-34-3l1-2v2h-1zm6-1l1-3 1-2-4-1c-5 0-6-2-1-3l4 1c1 2 2 2 4 2h1l-3 4c0 2 0 2 2 1h3l2 2-2-1h-3l-3 2c-3 0-3 0-2-2zm48 1c0-2 3-3 4-2 2 1 1 2-2 3-2 0-3 0-2-1zm34 0l2-1 1-1 1-1v2c-2 2-4 3-4 1zm16-1l1-1h1l-1 2c-1 1-1 0-1-1zm-808-1v-2-4l1-2 1 5c-1 3-1 5-2 3zm708 0v-1l1 1v1l-1-1zm75-1l1-2h2v2c-1 2-3 3-3 0zm49 1h1l3-1h1l-3 2c-1 1-2 0-2-1zm-110-1c-1-1-1-3 2-3l1-1h1c0 3-2 5-4 4zm101 0a1 1 0 0 1 2 0 1 1 0 0 1-2 0zm-840-2l1-1 1-3c-1-3-1-4 1-4l1 3c0 3 0 4 2 3l2 1-4 1h-4zm747 0c0-2 3-5 4-4l1-1c0-2 1-2 1-1 1 1-1 5-4 6h-2zm8 0l1-2 1 1-1 1h-1zm88 0l1-2 1 1-1 1h-1zm-846-2l-1-2 2 2v1l-1-1zm777-3c0-2 2-3 4-2l-2 2c-2 2-2 2-2 0zm-46 0l3-1v1h-3zm-717-1c1-1 0-2-2-3-2 0-3-1-3-2h1l6 1c6-1 6-1 4-3-1-1-1-1 1-1l1 2 1 3 1 2h-2c-1-3-3-3-3 0h-1c0-1-1-1-2 1h-2zm691-1a1 1 0 0 1 2 0 1 1 0 0 1-2 0zm5-2c-1-2 0-3 2-3s2 1 1 4c-1 2-3 1-3-1zm7 1c-3-1-2-5 1-4l3-1v1l1 2c2-1 2-1 2 1-1 2-3 2-7 1zm32 0l1-1h1l-1 2c-1 1-1 0-1-1zm17-1l2-2 1 1-2 2-1-1zm-30 0l1-2 1 1-1 1h-1zm-32-2c1-2 3-2 3-1l-2 2-1-1zm41-2l2-2 2-1h1l-1 3h-4zm-33-1c-2-1-2-1 0-1l2 1v1l-2-1zm-710-2c0-1 1-2 2-1 2 0 3 2 2 2l-2 1c-1 0-2 0-2-2zm762 1c-1-1 0-2 2-2s2 0 1 2h-3zm-738-1h-2l-1-1c0-2 2-2 4-1 2 2 1 3-1 2zm699 0c-1-1 1-3 3-3s1 3-1 3h-2zm15-1l1-2c1-1 1-1 1 1s-1 3-2 1zm6-1c-1-2 0-4 2-4v5c-1 1-2 1-2-1zm-35 0l2-2 1 1c-1 2-3 2-3 1zm47-1l1-2 1 1-1 2c-1 1-1 0-1-1zm-72-2c-1-1 0-2 1-4h2l3 1h3l-3 2c-4 4-5 4-6 1zm15 2c0-2 2-2 3-1l-1 1h-2zm5-1a1 1 0 0 1 2 0 1 1 0 0 1-2 0zm-714-2l1-3c2-2 3 0 2 2 0 2-3 3-3 1zm40-1c0-1 0-2 1-1v2l-1-1zm683-1v-2c2-2 4-1 4 1s-1 2-4 1zm-32-2c0-2 2-3 3-2l-1 3c-2 1-2 1-2-1zm60 1c-1-1 2-4 3-3s-1 4-2 4l-1-1zm-725-2l-2-1c-2 0-2 0-1-2 0-2 1-2 5 1 6 3 6 3 2 3l-4-1zm653 0h2v1l-2-1zm94-1l5-4c1 1-2 5-4 5l-1-1zm-737-2l-1-2-2-3v-2c1 1 2 0 4-1l1-2 1 2v5c-1 4-2 5-3 3zm622 0l-1-2v-2h1l2 1c2 0 3 1 1 3h-3zm16 0l-1-1c-1 1-2 0-3-1l-2-1c-2 0-2 0 1-2l6-2h3l-3-2c-2-2-2-2-1-3 2-2 8-3 9-2l-2 3-1 2c2-1 4 0 4 2l1 1h6l-1 1v2h-6-2c-4-2-6-2-7 1l-1 2zm78 0l4-2v2c-1 1-4 2-4 0zm-41-1a1 1 0 0 1 2 0 1 1 0 0 1-2 0zm50 0a1 1 0 0 1 2 0 1 1 0 0 1-2 0zm-117-5c-2-2 0-4 4-2h3l-3 2c-2 2-3 2-4 0zm54-1v-2c1 0 2-1 2-3l1-2 2 1c0 3-5 8-5 6zm11 0v-1l1 1v1l-1-1zm11 0l2-2v2l-2 1v-1zm-697-1v-4l2 1c0 1-1 4-2 3zm589 0l-1-1-1 1 4-4c1 0 1 3-1 4h-1zm116 1l1-2 1 1-1 1h-1zm-124-4v-4c0-1 3 0 4 2s0 4-3 5c-2 0-2 0-1-3zm138 2l1-2v-2l4-2c4-1 4 1 0 4s-5 4-5 2zm-107-3c-1-1 0-2 1-1 2 0 3 2 1 2-1 1-2 0-2-1zm-16-1c1-3 2-3 2 0l-1 2c-1 0-2-1-1-2zm22 1v-3c3-2 4-1 4 1-1 3-2 4-4 2zm72 0c-1-3 1-4 4-4 2 0 2 0 1 2-2 3-4 4-5 2zm39 0l1-1 1 1-2 1v-1zm-81 0l1-3h1l-1 2-1 1zm55-2l2-2v3c-1 1-2 0-2-1zm-148-1l2-2c3 0 3 2 0 3-2 1-2 1-2-1zm83 0l1-2 1-2 2-3c2-1 2-1 2 1l-1 3-1 2c0 2-2 3-4 3v-2zm48 1l1-2v2h-1zm-655-1v-2l-1-1c-2 1-3-1-2-2l3 1c2 2 2 2 1 4h-1zm505 0h1v-1c-2-2-1-6 1-4v2 2l2 1h-4zm129-1c1-3 3-4 3-1l-2 2c-1 1-2 0-1-1zm-104 0v-3-6l1 1c-1 1 0 1 3 1l1 1-1 1-1 2c1 1 0 2-1 2v2l-2-1zm46 0l2-2h1c0 2-3 4-3 2zm52 0v-1h2c1 1 0 1-1 2s-1 0-1-1zm-115-2l2-2h4l-2 1-2 2-1 1c-1 0-2-1-1-2zm5 2l1-2 1 1-1 1h-1zm67-1l2-2h1l-1 2h-2zm55 0c-1-1 2-3 4-3v2c-2 2-4 3-4 1zm-27-1l1-1h4c-3 2-5 3-5 1zm53 0l1-2 1 1-1 2c-1 1-1 0-1-1zm-123-1l1-2c1-1 3-1 1 1 0 1-1 2-2 1zm53 0l4-3c1 1-1 4-2 4l-2-1zm-113-1l1-1-1 2v-1zm73-1c0-3 1-4 3-2l-1 3c-2 1-2 1-2-1zm47 0l2-3c1-1 1-1 1 1 0 3-3 4-3 2zm-89-1l1-2v1c0 2-1 3-1 1zm163 0l1-1h1l-1 2c-1 1-1 0-1-1zm-696-1v-2c2 0 3 2 2 2h-2zm20 0l1-2 1 1-1 2-1-1zm590-1l2-2c1 0 1 3-1 4l-1-2zm-601 0c-2 0-1-2 1-2 1-1 2 0 2 1s-1 2-3 1zm556-1a1 1 0 0 1 2 0 1 1 0 0 1-2 0zm21-1v-1l2 3-2-2zm82 1l3-4c2-1 2-1 2 1l-1 2-2 1h-2zm-187-2v-7l1 1 1 2c2 0 1 2-1 4-1 2-1 2-1 0zm33 0c-1-2 2-6 2-5 1 1 0 6-1 6l-1-1zm23 0a1 1 0 0 1 2 0 1 1 0 0 1-2 0zm92 0l2-2 1 1-2 2-1-1zm5 0l2-2c2-1 2-1 1 1s-3 3-3 1zm31 0l1-1 1 1-2 1v-1zm50 0l1-1 1 1-2 1v-1zm-694-1c-1-2 1-4 2-3l-1 4-1-1zm481 0c-2-2 0-4 2-3 1 1 2 4 0 4l-2-1zm32 0l1-2 1 1-1 2c-1 1-1 0-1-1zm46 0l1-2 1 1-1 2c-1 1-1-1-1-1zm99 0l2-2-2 3v-1zm-675-1l2-2 1 2-1 1-2-1zm20 1l2-1c0-1 1-1 0 0l-2 1zm467-1h-1l-2-1 2-2 1-2 1-1 1-1 2-2h4l-1 1c-2 0-2 1-1 4l-1 4h-5zm52-1c1-2 3-3 3-1l-3 3v-2zm41 1c-1-1 1-3 2-2l-1 3-1-1zm11 0v-1l1 1v1l-1-1zm30 0c-1-2 1-4 2-2v2h-2zm87 1l1-2 1 1-1 1h-1zm-700-2l1-1 1 1-1 1-1-1zm513 0c-2-1-1-3 1-3s2 1 2 2c0 2-2 2-3 1zm134 0l1-2 1 1-1 2c-1 1-1 0-1-1zm-110-2l1-2 1 2-1 2-1-2zm-532-1l-1-1 3-2c2-1 3 1 1 3-1 2-2 2-3 0zm573 1c0-2 2-3 3-2l2 1v1l-2 1-3-1zm9-1c0-2 2-4 3-2l1 1c1-1 1 0 1 1 0 2-1 2-3 2-1 0-2 0-2-2zm142 1l1-1h1l-1 2c-1 1-1 0-1-1zm-716-2c1-2 1-2-1-2v-1-3c-1 1-3 0-2-2 1-1 1-1 3 1l2 3c1 1 0 5-2 5v-1zm458 0l1-3 3-1c1 0 2 0 2 2l-3 3c-3 1-3 1-3-1zm98 1l1-2 1 1-1 2-1-1zm37 0l2-2h1c0 2-3 4-3 2zm27 0l1-3h2c0 2-3 5-3 3zm-138-1l3-4c2-2 3-1 1 2-1 2-4 3-4 2zm174 0l1-1 1 1-2 1v-1zm-178-1l1-2c2 1 2 2 0 3l-1-1zm17 0a1 1 0 0 1 2 0 1 1 0 0 1-2 0zm56 0v-2c2-1 3-1 3 1s0 2-3 1zm31 1l1-2 1-1 1-1c2 0 1 1-1 3l-2 1zm105-1l1-2c1-1 1-1 1 1s0 3-2 1zm-115-2l1-2 1 2-1 1-1-1zm62 0v-2 1l1 1h-1zm-134-1v-2l1 1c0 2-1 3-1 1zm-516 0c0-1 3-2 4-1l-2 1h-2zm462-3l-4-2c-2 0-3-3-2-4h-1l-2-1 2-1 2-2 2-4c1-1 4-1 4 1h2v-1c-1-1 0-2 1-4s1-2-2-1h-5c0 2-3 1-3-1-1-4-1-4 3-6l3-2v2c0 2 0 2 2 2 3 0 7-4 5-4s-1-3 1-5c2-3 4-3 4 0l2 3 3 1v-1c0-2 0-2 4-3 2 0 3 1 3 2l1 1-2 3-3 4-1 2h1c2 0 3 0 3 3l2 3 1 1-2 1-1 1c0 1-1 1-2-1l-2-3-2-2-2-1-1-1-3-2c-3-3-4-2-3 1v4c-1 1-1 1 1 1 2-1 3 0 3 2 0 4-3 8-4 5l-1-2v-2h-3c-3 2-3 2-2 3l2 2h-1l-2 3h8l6-1c3-1 4 0 4 1l-1 1c-2-1-3 1-4 5-1 2-3 3-4 1v-3c2-3 0-2-2 1-3 4-4 4-8 0zm-443 1c0-2-4-6-4-5h-1c0-1 3-4 5-4l-1 1v1l1 2c0 2 3 3 5 1l2 1-2 1c-1-1-1 0-2 1 0 2-3 3-3 1zm474 0c0-1 3-2 4-1v1h-4zm28 1l1-2 1 1-1 1h-1zm-532-2v-1l2 1c1 1 0 1-1 1l-1-1zm500 0c-1-2-1-4 1-4 1 0 2 1 2 3s-1 3-3 1zm60 0a1 1 0 0 1 2 0 1 1 0 0 1-2 0zm36 0l1-2 1 1-1 2c-1 1-1 0-1-1zm49 0l2-3c1-1 1-1 1 1l-1 2h-2zm-700-1v-2l3 2c1 1 1 1-1 1l-2-1zm588-2l-1-2c1-1 2 1 2 2h-1zm3 0a1 1 0 0 1 2 0 1 1 0 0 1-2 0zm137 0a1 1 0 0 1 2 0 1 1 0 0 1-2 0zm5 0l2-1h1c-1 2-3 3-3 1zm-158-1c1-2 3-2 3-1l-2 1h-1zm30 0l1-2 1 2-1 1-1-1zm10 1l1-2 1 1-1 1h-1zm79-1c1-2 3-2 3-1l-2 2-1-1zm-14-2l1-2 1 1-1 3c-1 1-1-1-1-2zm-249 1l-1-2v-6l1-1 1-2c2 0 1 3 0 4-3 0-1 2 1 1 2 0 2 0 1 2l-2 2v1l-1 1zm7-1l1-3h2l1 1h1l1 1-2 1h-4zm-379-3c0-1 1-2 2-1 3 1 2 4 0 4-1 0-2-1-2-3zm213 2l-2-3-1-2-2-1-2-1c-3 0-4-1-2-3 2-1 2-1 3 1h1v-2l1-1 2-1 3-1h2l-1 2-1 1 3 2h1c0-2 2 0 2 2h-2l-3-1-1-1v7l2-2c1-2 2-2 2-1 1 2-1 6-2 6l-3-1zm-1-8l-1-1-2 1 2 1 1-1zm287 7l1-3 2-2 1-1 3-2 2-1-1 2-2 3c0 2-5 5-6 4zm188-1l1-1 1 1-2 1v-1zm-666-1l1-1 1 1-1 1-1-1zm172-2c-2-1-1-2 2-1l1-1h1l3 1c1-1 1 0 1 2 0 1-6 1-8-1zm34 1v-1l1 1v1l-1-1zm3-1l-1-3c0-3-2-5-4-4l-1-2c0-2 0-2 2-2 2 1 2 0 2-1 0-2 0-2 1-1 0 2 0 2 2 1 1-2 1-2 2 0 0 2 0 3-2 4v3c-1 1-1 1 1 2 1 0 2 3 0 4l-2-1zm148 1c0-2 2-2 3-1l-1 1h-2zm15-2c1-2 2-2 3 0l-1 2-2-2zm-366 0l1-1h1c1-1 3 0 3 1h-5zm424-1l2-2 1 2-1 2-2-2zm-456 0l-1-1h-2c0-2 4-1 4 1v1l-1-1zm386 0c-1-1-1-1 1-1 2-1 3 0 1 1h-2zm-371-1l1-1h2l-1 2-2-1zm599-1l2-2v2c0 3-2 2-2 0zm-100 0c0-2 3-3 3-2 1 2 0 3-2 3l-1-1zm76 0l2-2h1c0 2-3 4-3 2zm-387-2l-1-3c-3-1-2-3 1-2 2 0 3 1 3 2-1 1 1 3 3 2v1l-2 1h-3c-1 1-1 1-1-1zm47 1l2-1 1 1-1 1-2-1zm134 0v-1l2 1h-2zm58 0l1-2h1c0 2-2 3-2 2zm18-1c-3-3-6-3-8-1-1 2-2 2-2 1h-3c-1-1 7-10 10-10l3-4 2-3c0-1 0-1 0 0-1 1 0 3 1 3 2 2 1 4-2 5l-1 1 2 1c1-1 1 0 1 1v2l2 1c1 1 1 2-1 3-2 3-2 3-4 0zm111 1l1-3 1 2-1 2-1-1zm133 0l1-1h1l-1 2c-1 1-1 0-1-1zm-508-2v-3l1-3 1-2 1 3 2 3 1 3c-3 1-5 0-6-1zm183 1a1 1 0 0 1 2 0 1 1 0 0 1-2 0zm165 0h2v1l-2-1zm-317-1l-1-2c-1 1-2 0-1-1l1-1 2 4h-1zm329 0l1-2v2h-1zm-530-1l1-2v2h-1zm149 1l-1-3c0-2 1-3 3-3l2 1c0 2-3 6-4 5zm324-1l1-1h1l-2 1zm8 0v-2h3c0 2-3 3-3 2zm112 1l1-2 1 1-1 1h-1zm-203-2c-2-1-1-3 1-3 2-1 2 0 2 1l-1 2h-2zm-412-1l1-1 1 1-1 1-1-1zm438 0l1-2v-1c-1-2 0-2 2-3 3-3 3-3 0-5h-4c0 2-1 2-3 1-2-2-1-5 1-7s5-3 4-1v2c2 0 4 0 6 2l3 2 1 3c1 2 1 3-2 5l-4 3c-2 0-2 0-1 1s1 1-1 1l-3-1zm-220-2l1-2v3c-1 1-1 0-1-1zm162 1l1-3c1-2 1-2 2-1l1 1 1 1h1l1 1c-1 2-7 3-7 1zm39 0l1-2c1-1 1-1 1 1l-1 2-1-1zm-27-1c1-1 0-2-1-2l-2-2h2c2 0 2 0 3-2l1-2 3 6c0 2 0 3-3 3l-3-1zm35 0v-1-2l1-4h2l2 3c0 2-5 5-5 4zm-205-1l-1-2 1 1h2c0 2-2 2-2 1zm274 0c-1-1 0-3 2-3v2c0 2-2 3-2 1zm-473-1c-2-1-2-2-2-4 1-1 1-1 3 1 3 3 2 5-1 3zm153 0l2-3c2-1 2-1 0-1l-3 1-1 2c-2 0-1-1 1-4l2-1 1 1 1-2 2 1 2 3-3 1-2 2c1 1 0 1-1 1l-1-1zm13 0v-2c0-2 1-2 2-1v3h-2zm24 1l1-2 1 1-1 1h-1zm22-1l1-2 1-2v-1l1 3c0 1-3 4-3 2zm182-2c0-2 1-4 3-4s2 1 2 3c0 1 0 2-2 2l-3-1zm-216-1l1-2c2 1 1 2 0 3l-1-1zm30-1h2l1 2h-1l-2-2zm230-1c1-5 2-7 3-5h1c0-2 2-3 2-1l2 1-1-2c-2 0-1-3 2-6 3-2 4-2 4-1-1 2 0 2 1 1s2 0 3 2 1 3-1 7l-2 3-3 2-4 1-4 1c-3 0-3 0-3-3zm13-10h-1l-1 1h1l1-1zm57 13l1-2 1 1-1 1h-1zm-311-2c0-2 3-2 4-1v1l-2 1-2-1zm29 0c-2-1-1-2 0-1l2 1h-2zm-233-1v-1l2 1c1 1 0 1-1 1l-1-1zm20 0v-3h2l-1 3h-1zm312 0c-3 0-2-2 1-4 2-1 2-1 2 2v3l-3-1zm36 1v-5l2 1h1v3l-3 1zm40-1l1-2 1 1-1 2-1-1zm-59-1l1-2v2l-1 1v-1zm41-1l1-2v2c0 3-2 2-1 0zm5 1c0-2 2-4 2-3v2l-2 1zm-240-1v-1l1 1v1l-1-1zm37 0l1-2v2h-1zm-248-1v-1l1 1v1l-1-1zm229 0c-1-1 0-2 1-2l2 2-1 1-2-1zm21 0h2l1 1h-1l-2-1zm241 0v-5c1 1 4 0 4-2s3-6 4-6c1-1 2 0 2 3 0 4 0 4-3 5l-4 4c-1 2-2 3-3 1zm33-1c1-2 4-4 4-2l-2 3c-1 1-2 1-2-1zm88 1l1-3 1 2-1 2-1-1zm-543-1l-1-1h1l1 1h-1zm173-1c-1-1-1-1 0 0l1 2-1-2zm160 1c0-1 2-2 3-1l-1 1h-2zm55 0l-3-3c0-2 1-2 3-3l10-2 1-2-1-1c-1 1-1-1 1-5 0-2 1-3 2-2l1 3h1l2-1 1-1 1-2 1-3 1 1c1 3 1 3 5 1h4c2 2 2 2 4 0 3-4 3-4-1-3-2 0-2 0-1-2 2-2 2-5 0-5l-1-2 3-1c3-1 3 0 4 1l1 1 1 2v4c1 2 0 5-1 5-2-1-4 1-4 4 1 2 0 2-2 2l-4 3-2 2v-2l-2-2v3c1 1 0 2-1 2-1 1-5-3-4-5h-2l-4 2c-2 1-3 5-1 5l2-1c1-2 2-1 2 0s0 2-1 1v1l-3 3c-3 3-4 3-4 1s-2-3-4-1c-1 2-2 2-5 2zm28-15l-1-3-1 2 1 2 1-1zm-273 14l2-3c3-2 3-2 3 0v3c0 2-5 1-5 0zm10 0l-1-1 2-1 2 1c-1 2-3 3-3 1zm34 0l1-2 1 2-1 1-1-1zm10 0c-1-1 0-1 0 0 2 0 2 1 1 1l-1-1zm151-1l1-1c2 0 2 2 0 3l-1-2zm17 1c-1-2 1-4 2-2 1 1 0 3-1 3l-1-1zm-159-1h-2l-1-1v-4l2-1c1-1 1-1 2 1l1 2c1 1 0 4-1 4l-1-1zm5 0l1-1h2c0 1-2 2-3 1zm5 0v-3c2 0 3 3 2 3h-2zm123 0v-1l1 1v1l-1-1zm-13-1l2-2v2l-2 1v-1zm-212-1l1-2v2h-1zm107 0l-1-1h1l1 1h-1zm148 0l1-2 1 2c0 1-1 2-2 0zm-360-2c-2-2-2-3-1-3l2 1 2 1v2c-1 1-2 1-3-1zm130 1a1 1 0 0 1 2 0 1 1 0 0 1-2 0zm-136-1v-1l1 1h-1zm114-1c0-2 1-3 4-2 3 2 3 4-1 4-2 0-3 0-3-2zm51 0l1-5c1-1 1-1 1 1h2l-1 1-2 3c-1 2-1 2-1 0zm211 1c-1-2-1-7 1-7l2 7c-1 1-3 2-3 0zm54 0l2-2 2 1-2 2-2-1zm-243-1a1 1 0 0 1 2 0 1 1 0 0 1-2 0zm7 0l1-1-1 2v-1zm279 0l1-2v2h-1zm32 0l1-1h1l-1 2c-1 1-1 0-1-1zm125-1l2-2c1 1-1 4-2 4v-2zm-495-1l2-2h4l2 1 3 2h-9c-2 1-2 1-2-1zm87 1l-1-2c1-1 2 1 2 2h-1zm164 0c-1-1 1-5 3-5v3c-1 3-2 4-3 2zm35 0l1-2 1 1-1 2c-1 1-1-1-1-1zm29 0v-2l1-3h2l2 1c2 0 2 2 1 3-2 1-5 2-6 1zM55 99c-1-1-1-2 1-1l1 1h-2zm90 0l3-3c2 0 1 3-1 3h-2zm110 0l2-2-2 3v-1zm8 1l2-2h1l-2 2h-1zm77-1c0-2 1-2 2-1l-1 2c-1 1-1-1-1-1zm148 0c0-1 3-2 4-1l-1 1h-3zm136 0a1 1 0 0 1 2 0 1 1 0 0 1-2 0zm-379-1l1-1h1l-1 2c-1 1-1 0-1-1zm253-1v-2c2 0 3 2 2 3s-2 1-2-1zm-238 0l1-1h1l-1 2c-1 1-1 0-1-1zm50 0c-1 0-2-3 0-3l1 1 1 2v1l-2-1zm66 0l-2-1c-1 1-2 0-2-1 0-2 0-2 2-1s2 1 1-1c-1-3-1-5 1-5l3-2c1-1 1-1 1 1 0 1 0 2 1 1 2 0 3 3 1 5l-1 1-2 2-3 1zm138 0l-1-3 1-2 1 6-1-1zm-261-1l1-1v1l-1 1v-1zm92 0h2v1l-2-1zm266 0l1-2 1 1-1 2-1-1zm-370 0l3-2c3-2 4-2 4 1l-3 1h-4zm49 0l1-2 1 1-1 1h-1zm-8-2l1-1 1 1-2 1v-1zm81 0v-3l1 1v2c1 1 0 2-1 0zm53 0l1-1h1l-1 2-1-1zm21 0c0-1 2-3 4-3v2c-1 2-4 3-4 1zm136 0h-1c-3 1-2-2 0-3l2-2 1-2 1 3c-1 4-3 6-3 4zm-319-1l-1-2 1 2c1 1 0 2 0 0zm2 0l2-2c1-1 2-1 1 1 0 2-3 3-3 1zm97 0c-1-1 0-2 1-1v1h-1zm213 0v-1-2l-1 1c-1 2-3 2-3 0l2-3 2-1 2-1 1 4c-1 3-2 5-3 3zm-438-1c0-2 2-3 2-2 1 1 3 1 5-1v2c-2 2-7 3-7 1zm196 0l1-1-1 1c-1 1-1 1 0 0zm76-1l-1-2 2 1c2 3 1 3-1 1zm92 0c0-2 1-3 1-1v3l-1-2zm-335-1c1-2 0-7-1-8l-1-4c-1-2-1-2 1-1 1 2 1 2 2 1 3-1 4-1 4 1l-1 1c0-1-1 0 0 0l-1 2v4l-1 5c-2 2-3 1-2-1zm187 0h1l1 1-1 1-1-2zm41 0l1-2c1-1 2 2 1 3 0 2-2 1-2-1zm65 0l1-2 1 2-1 2-1-2zm132 1v-1c2-1 2-1 1 1h-1zm-317-1v-1l1 1v1l-1-1zm3-2c-1-4 0-5 1-2v5l-1-3zm24 2l1-2v2h-1zm156 0v-3c2-2 3-3 2 0l-1 3h-1zm142 0l1-1v-1c-1-2 0-2 2-1s1 4-2 4l-1-1zm177 0l1-2v2h-1zm-259-1l2-2h1l-1 2h-2zm7 0l1-4 2-3v3c1 3 0 5-1 5l-2-1zm247 0l2-2v2l-2 1v-1zm-240-1l1-3 1 2-1 2-1-1zm-150-2l2-2 1 2c-1 2-3 3-3 0zm23 0l-1-5-1-2 2 2c2 2 3 2 4 0 1-1 1-1 0 0l1 2v1c0 1 0 2-1 1v1l-1 2-3-2zm46 1l2-2c2-1 2-1 1 1 0 2-3 3-3 1zm-190-1l4-4s0 2-2 3l-2 1zm69 0l1-2 1 1-1 2-1-1zm9 0v-2l1 1c0 2-1 3-1 1zm102-2c-2-5 1-7 3-2 1 2 2 3 1 4-2 2-3 1-4-2zm182 2l1-2v2h-1zm167 1c0-2 2-4 3-4l-1 3-2 1zm-616-2v-2c0-2 0-2 1-1 2 3 1 5-1 3zm96 0v-1l1 1h-1zm122 0v-4l-1-3h-1l2-1 1 1h1c1 0 5 3 5 5s-2 3-3 2h-2c0 1-2 2-2 0zm161 0l1-1h1l-1 2c-1 1-1 0-1-1zm-183-1l1-2 1 1-1 2c-1 1-1-1-1-1zm166 0v-2l1 1c0 2-1 3-1 1zm60 0c-2-1-2-6-1-7 1-2 1-2 3-1l1 2h2l3-2v4l-7 5-1-1zm204 0l1-2 1 1-1 2c-1 1-1 0-1-1zm-561-1l1-1h1l-1 2c-1 1-1 0-1-1zm76 0a1 1 0 0 1 2 0 1 1 0 0 1-2 0zm201 0a1 1 0 0 1 2 0 1 1 0 0 1-2 0zm62 0l1-2 1 1-1 2c-1 1-1-1-1-1zm10 0l2-2c2-2 3-1 1 1 0 2-3 3-3 1zm-435-1v-4c1-3 3-1 2 2 0 3-1 4-2 2zm401 0l1-2 1 2-1 1-1-1zm-410-1v-3c2-1 3 1 2 3h-2zm129 0v-2l1 2v1l-1-1zm311 0c-2-1-2-2-1-3l3-1h2c1-1 1-1 1 2s-3 4-5 2zm-53-1l1-2 1 2c0 1-1 2-2 0zm44 0l-1-2v-1l-1-2c2-2 5 1 5 3 0 3-2 4-3 2zm32 0l1-1h1l-1 2c-1 1-1 0-1-1zm-340-2l1-3c2-1 2-1 2 2-1 3-2 4-3 1zm220 1l-1-2 1 2c1 1 0 2 0 0zm56 0l1-1v-1l1-3v-2c-1-1 0-3 1-3l1 2 1 3-1 4c-1 2-4 3-4 1zm-267 0l1-2 1 1-1 1h-1zm74-1l-1-1h1l1 1h-1zm70-3l-3-4-2-2c-1-2-1-2-3-1l-2-1c0-2 2-4 3-2h5c1 0 1 1-1 3-1 2-1 2 1 1l3-1c0 1 2 8 1 10s-2 1-2-3zm6 3c-2-1-2-1-1-2 3-2 5-2 5-1v3h-4zm123-2l1-3 1-2c1-4 4-6 4-4v6c0 3-1 4-3 5-3 1-3 1-3-2zm-293-1c0-3 2-5 4-5 1 0 0 3-2 5v2c1 1 0 1-1 1l-1-3zm87 1l1-1 1 1-2 1v-1zm55-1c0-2 1-2 2-1l-1 2-1-1zm140 0c-1-2 0-3 2-3 1 1 2 2 1 3h-3zm-292-1c-1-1 0-5 1-5l1-2 1-2v3c-1 2 1 2 1 2l1-2 1-1h3v2c-1 2-2 2-3 2l-4 2c-1 2-2 2-2 1zm160 0c0-2 1-2 2-1l-1 2-1-1zm69 0l-1-1h1l1 1h-1zm182 0l2-1 1 1-2 1-1-1zm-377-1a1 1 0 0 1 2 0 1 1 0 0 1-2 0zm83-1h1l1 1-1 1-1-2zm24 1c-2-3 2-4 4-2v2h-4zm-121-1l-1-1v-2-4c2 1 3 7 2 8l-1-1zm6 0v-2c1-2 3-1 2 1 0 1-1 2-2 1zm171 1l1-2 1 1-1 1h-1zm49 0l1-2 1 1-1 1h-1zm74-2c-1-1-1-1 1-4 2-2 3-2 3-1 0 2-3 6-4 5zm33 0l1-2 1 1-1 2c-1 1-1 0-1-1zm-314-1l1-3h1v4l-2-1zm-103 0c0-2 2-2 3-1l-1 1h-2zm212-1l2-3c1-1 1-1 1 1l-1 3-2-1zm123-3l1-5 2-2v7l-1 1-1 3-1-4zm104 3l1-1h1l-1 2-1-1zm-445-3V56v-1l1-1 1 3c0 3 3 9 4 7h1c1 1 1 2-3 3-4 2-4 2-4-1zm174 3l1-2 1 1-1 1h-1zm82-1c0-2 1-4 3-4l1 2c-1 3-3 4-4 2zm186 0l1-2v2l-1 1v-1zm-329 0l1-2 1 1-1 1h-1zm245-2l1-3h1c1 2 0 5-1 5l-1-2zm-337-1c-2-1-2-2-1-3 1-3 3-1 4 2 0 4-1 4-3 1zm1-3l-1 2h1v-2zm202 5l2-1h1l-3 1zm-74-2v-1l1 1v1l-1-1zm59-1l1-2c1-1 1 0 1 1l-1 2-1-1zm80 0c-1-1-1-2 1-2 1-1 1 0 1 1 0 2 0 2-2 1zm129 1l1-2 1 1-1 1h-1zm-221-3c-1-2-1-3 1-2 3 0 4 1 2 3-1 1-2 1-3-1zm6 0l2-3c3-1 2 0 0 3l-2 3v-3zm191 1c-1-1 0-2 1-3l2-2-1 2c0 3-2 5-2 3zm-383-2l1-1 1 1c1 1 0 2-1 2s-2-1-1-2zm334 1l1-2 1 2-1 1-1-1zm87 0l1-1c1-1 1 0 0 0 0 2-1 3-1 1zm-213-1l1-1h1l-1 1h-1zm55 1c0-1 2-2 3-1l-1 1h-2zm136-1l2-2c2-1 2-1 1 1s-3 3-3 1zm-397-1c-2-3-1-4 2-2 2 1 2 2 1 2h-3zm60-1v-3l-1-1h4c-1 1-1 1 1 1h2l-2 2-1 1-2 1c-1 1-1 1-1-1zm213 2l1-1h1l-1 1h-1zm83-1l1-3c1-1 1-1 1 1l-1 3c-1 1-1 0-1-1zm-346-2c-2-1-2-3 0-3l3 2c2 2 2 2 0 1l-2 1-1-1zm228 1v-2l1 2v1l-1-1zm126 0l1-1h1l-1 2-1-1zm31 0c-1-2 1-4 2-3v3h-2zm-80-2l1-1 1 2-1 1-1-2zm-322 0c-1-1 0-3 1-3l1 2c0 2-1 3-2 1zm37 0l-1-3c1-1 2 1 2 3h-1zm309 0l1-3c1-1 1-1 1 1l-1 3-1-1zm36 0l1-3 1-2v2c0 3-1 5-2 3zm-28-1v-2c1-1 1-1 1 1s0 3-1 1zm-334-1v-2l-1-2v-2h3l1 1-1 1-1 2-1 2zm32-1h2l1 1h-1l-2-1zm364 0a1 1 0 0 1 2 0 1 1 0 0 1-2 0zm-368-1c-1-1-1-2 1-3 2-2 4-1 3 0l-2 2-1 1h-1zm309 1l1-1h1l-1 1h-1zm-351-2l1-1h1l-1 1h-1zm-12-3c0-2 0-2 1-1v4l-1-3zm16 1l1-1h1l-1 1h-1zm4 0l2-3 2-2c1-2 1-2 1 0l-1 2-2 2c0 2-2 3-2 1zm27 0l1-2v2h-1zm5 0l1-3h2v1l-2 1-1 1zm68-2v-2l1 2v2l-1-2zm144 1l1-2 1 2-1 1-1-1zm10 0l1-1h1l-1 1h-1zm94 0l1-2v2h-1zm-350-2l-1-1-1-1c-1-2 1-2 3 0 1 1 0 3-1 3v-1zm49 0l1-2c1-1 1 0 1 1l-1 2-1-1zm31 1l1-1h1l-1 1h-1zm29-1c-1-1 0-2 1-2s2 2 0 2h-1zm4 0h2v1l-2-1zm-137-2c-1-2 0-3 2-1v2l-2-1zm381 0l2-3-1 2-1 1zm-367-1c-1-1 1-3 3-2v2h-3zm29 0v-1h1c0 2-1 3-1 1zm14 0c0-1 0-2-1-1-1 0-2-4-1-5 2-1 5 1 5 4 0 2-2 4-3 2zm361-1a1 1 0 0 1 2 0 1 1 0 0 1-2 0zm-369-5v-2l1 3c0 1-1 1-1-1zm17 1l1-1h1l-1 1h-1zm15 0v-3l1 2c0 2-1 3-1 1zm308 1l1-1h1l-1 1h-1zm-337-2l1-1v1l-1 1v-1zm329-1l1-2 1 2-1 1-1-1zm-304-1l1-1h1l-1 1h-1zm329 0l1-1 1 1-1 1-1-1zm-41-2l1-1h1l-1 1h-1zm-287 0l1-1h1l-1 1h-1zm-117-2l-1-1h1l1 1h-1zm89 0v-1l1 1v1l-1-1zm32 1l1-1h1l-1 1h-1zm-39-3v-1l1 2-1-1zm319 0h2l1 2h-1l-2-2zm57 1l1-2c1-1 1-1 1 1l-1 2-1-1zm-342-7l1-1h1l-1 1h-1zm301-2l2-2-2 2-2 2 2-2zm17 1l1-2v2l-1 1v-1zm83 0h2l-1 1-1-1zm-70-1v-3c1-2 1-2 2-1 0 2-1 6-2 4zm-4-1v-2l1 1c0 2-1 3-1 1zm-315-6l2-2-1 3c-2 1-2 1-1-1zm339-7l1-2 1 1-1 1h-1z"/>
</svg>
