<svg xmlns="http://www.w3.org/2000/svg" width="80" height="80" viewBox="0 0 80 80">
    <path fill="#FFF" fill-rule="evenodd" d="M43.996 49.735l7.761-.705.43 4.726-18.519 1.681-.43-4.726 6.026-.547-1.204-15.629-4.216.702-.782-4.68 10.102-1.682.781 4.681-1.18.196 1.231 15.983zM37.312 26.75v-5.313h4.25v5.313h-4.25zM29.953 14H53.22v1.094l.214-.16 9.78 12.985h.661v24.823h-.678l-8.175 9.769-.035-.029.062.863L31.782 65l-.04-.557-13.167-9.833.095-.126-1.028.068-1.603-23.94L15 29.577l14.953-14.89V14zm-7.82 37.43l11.706 8.742 18.113-1.289 7.232-8.642V30.352L50.386 18.67h-17.8L20.732 30.475l1.403 20.955z"/>
</svg>
