<svg class="h-24 sm:h-48 w-auto" xmlns="http://www.w3.org/2000/svg" width="49" height="74" viewBox="0 0 49 74">
  <path fill="#FFED00" fill-rule="evenodd" d="M27.205 12.107l17.511 4.366-1.173 13.597 4.802 1.197L35.141 73.86 6.463 66.71l10.532-42.245-14.278 5.979-2.175-5.859 17.325-7.254 2.176 5.858-1.527.64 3.342.833 5.347-12.556zm3.456 7.394l-2.832 6.65 9.743 2.43.621-7.202-7.532-1.878zM21.59 31.13L20 37.5l19.617 1.416.947-3.055-18.975-4.73zm-3.143 12.607l-2.388 9.575 17.726 4.42 3.908-12.606-19.246-1.39zm-3.921 15.726l-.64 2.566 17.235 4.297.784-2.53-17.38-4.333zM3.74 15.103l1.452-5.822 10.673 2.662-1.451 5.821-10.674-2.66zM14.02.77l8.92 9.069-4.354 4.437-8.92-9.07L14.019.77z"/>
</svg>