<svg xmlns="http://www.w3.org/2000/svg" width="256" height="266" viewBox="0 0 256 266">
    <path fill="#FFF" fill-rule="evenodd" d="M142.726 59.647L148.87 54l105.157 113.436-2.929 2.69 4.903 2.441-26.29 52.357-3.27-1.63-2.025 8.068-18.544-4.616-20.432 33.909-3.3-1.974-2.45 7.319-52.577-17.452.987-2.955h-9.444v-40.56l-34.449-8.574 1.037-4.131L76 188.032 130.89 70.91l-.192-.206.507-.468 6.136-13.092 5.385 2.503zM108.415 177.1L213 203.136l14.217-28.314-78.2-84.357-40.602 86.635zm34.971 50.893l27.41 9.097 9.996-16.588-37.406-9.312v16.803zM121 61.117l-47.561 40.356V175H49V95.646h12.22l-7.823-9.559L105.355 42 121 61.117zM78.62 0L95 18.435 29.253 76.9V184H4.6V75.088L0 69.914 78.62 0z"/>
</svg>
