<svg xmlns="http://www.w3.org/2000/svg" width="133" height="219" viewBox="0 0 133 219">
    <path fill="#E4032E" fill-rule="evenodd" d="M16.943 113.783l.994-17.016 101.94 6.04-.995 17.015-39.046-2.313v27.225l46.387 64.24L112.537 219 74.04 165.688l-31.352 52.681-14.518-8.764 34.742-58.373v-34.725l-45.97-2.724zM0 52.13L8.769 37.35l30.2 18.324-8.77 14.78L0 52.13zM68.62 0l16.093 4.656-11.861 42.03-16.094-4.655L68.619 0zm25.412 60.383l36.171-6.057L133 71.186l-36.17 6.058-2.798-16.86zM79.63 90.777l-16.824 3.444-6.049-29.661 16.822-3.444 6.05 29.661z"/>
</svg>
