<?xml version="1.0" encoding="UTF-8"?>
<svg width="959px" height="330px" viewBox="0 0 959 330" version="1.1" xmlns="http://www.w3.org/2000/svg" xmlns:xlink="http://www.w3.org/1999/xlink">
    <!-- Generator: Sketch 52.5 (67469) - http://www.bohemiancoding.com/sketch -->
    <title>Slice 1</title>
    <desc>Created with Sketch.</desc>
    <g id="Page-1" stroke="none" stroke-width="1" fill="none" fill-rule="evenodd">
        <g id="Group" fill="#ffed00" fill-rule="nonzero">
            <rect id="Rectangle" transform="translate(99.760954, 146.721500) rotate(16.000000) translate(-99.760954, -146.721500) " x="83.2609544" y="9.22149956" width="33" height="275"></rect>
            <rect id="Rectangle" transform="translate(45.500000, 174.500000) rotate(-10.000000) translate(-45.500000, -174.500000) " x="24" y="37" width="43" height="275"></rect>
            <rect id="Rectangle" transform="translate(170.021909, 191.210700) rotate(-2.000000) translate(-170.021909, -191.210700) " x="153.521909" y="53.7106999" width="33" height="275"></rect>
            <rect id="Rectangle" transform="translate(250.625302, 53.315639) rotate(72.000000) translate(-250.625302, -53.315639) " x="227.125302" y="-46.1843614" width="47" height="199"></rect>
            <rect id="Rectangle" transform="translate(391.857709, 131.398252) rotate(-1.000000) translate(-391.857709, -131.398252) " x="368.357709" y="10.3982518" width="47" height="242"></rect>
            <rect id="Rectangle" transform="translate(535.883289, 140.344527) rotate(4.000000) translate(-535.883289, -140.344527) " x="512.383289" y="19.3445272" width="47" height="242"></rect>
            <rect id="Rectangle" transform="translate(473.744321, 153.559989) rotate(-28.000000) translate(-473.744321, -153.559989) " x="454.244321" y="16.0599895" width="39" height="275"></rect>
            <rect id="Rectangle" transform="translate(250.262824, 172.360930) rotate(88.000000) translate(-250.262824, -172.360930) " x="233.762824" y="96.3609299" width="33" height="152"></rect>
            <rect id="Rectangle" transform="translate(250.111812, 295.684361) rotate(83.000000) translate(-250.111812, -295.684361) " x="228.611812" y="196.184361" width="43" height="199"></rect>
            <rect id="Rectangle" transform="translate(613.455829, 144.500357) rotate(-2.000000) translate(-613.455829, -144.500357) " x="595.455829" y="21.5003566" width="36" height="246"></rect>
            <rect id="Rectangle" transform="translate(669.562381, 250.833888) rotate(-102.000000) translate(-669.562381, -250.833888) " x="651.562381" y="196.833888" width="36" height="108"></rect>
            <rect id="Rectangle" transform="translate(726.107900, 154.103042) rotate(-185.000000) translate(-726.107900, -154.103042) " x="696.6079" y="31.1030423" width="59" height="246"></rect>
            <rect id="Rectangle" transform="translate(809.533860, 156.295410) rotate(-179.000000) translate(-809.533860, -156.295410) " x="791.53386" y="33.2954098" width="36" height="246"></rect>
            <rect id="Rectangle" transform="translate(669.562381, 250.833888) rotate(-102.000000) translate(-669.562381, -250.833888) " x="651.562381" y="196.833888" width="36" height="108"></rect>
            <rect id="Rectangle" transform="translate(884.443867, 76.280096) rotate(-273.000000) translate(-884.443867, -76.280096) " x="854.943867" y="3.28009608" width="59" height="146"></rect>
            <rect id="Rectangle" transform="translate(883.385010, 169.636400) rotate(-265.000000) translate(-883.385010, -169.636400) " x="864.38501" y="104.1364" width="38" height="131"></rect>
            <rect id="Rectangle" transform="translate(884.443867, 262.992705) rotate(-273.000000) translate(-884.443867, -262.992705) " x="854.943867" y="189.992705" width="59" height="146"></rect>
        </g>
    </g>
</svg>
